<svg width="298" height="274" viewBox="0 0 298 274" fill="none" xmlns="http://www.w3.org/2000/svg">
<g clip-path="url(#clip0_2703_16478)">
<path d="M0.711893 19.1249L0.606439 19.2835L0.789741 19.3352L0.607021 19.3889L0.71422 19.5463L0.539731 19.47L0.520667 19.6595L0.436054 19.4889L0.299648 19.6218L0.344502 19.4367L0.154579 19.4508L0.307913 19.3379L0.153341 19.2266L0.343408 19.2386L0.296512 19.054L0.434378 19.1854L0.517101 19.0139L0.538257 19.2032L0.711893 19.1249Z" fill="white"/>
<path d="M63.4837 37.9531L63.3782 38.1116L63.5615 38.1633L63.3788 38.217L63.486 38.3744L63.3115 38.2981L63.2925 38.4876L63.2078 38.317L63.0714 38.4499L63.1163 38.2648L62.9264 38.2789L63.0797 38.166L62.9251 38.0547L63.1152 38.0668L63.0683 37.8822L63.2062 38.0136L63.2889 37.842L63.31 38.0313L63.4837 37.9531Z" fill="white"/>
<path d="M25.1145 59.5937L25.0091 59.7523L25.1924 59.8039L25.0096 59.8576L25.1168 60.0151L24.9423 59.9387L24.9233 60.1282L24.8387 59.9576L24.7023 60.0905L24.7471 59.9054L24.5572 59.9196L24.7105 59.8066L24.556 59.6953L24.746 59.7074L24.6991 59.5228L24.837 59.6542L24.9197 59.4826L24.9409 59.6719L25.1145 59.5937Z" fill="white"/>
<path d="M31.016 25.164L30.9106 25.3226L31.0939 25.3743L30.9112 25.428L31.0184 25.5854L30.8439 25.5091L30.8248 25.6985L30.7402 25.5279L30.6038 25.6608L30.6486 25.4757L30.4587 25.4899L30.6121 25.3769L30.4575 25.2657L30.6475 25.2777L30.6007 25.0931L30.7385 25.2245L30.8212 25.053L30.8424 25.2422L31.016 25.164Z" fill="white"/>
<path d="M12.9792 33.3593L12.8737 33.5179L13.057 33.5696L12.8743 33.6233L12.9815 33.7807L12.807 33.7044L12.788 33.8939L12.7034 33.7232L12.567 33.8561L12.6118 33.6711L12.4219 33.6852L12.5752 33.5722L12.4206 33.461L12.6107 33.473L12.5638 33.2884L12.7017 33.4198L12.7844 33.2483L12.8056 33.4375L12.9792 33.3593Z" fill="white"/>
<path d="M127.104 54.0234L126.999 54.182L127.182 54.2336L126.999 54.2873L127.107 54.4447L126.932 54.3684L126.913 54.5579L126.828 54.3873L126.692 54.5202L126.737 54.3351L126.547 54.3492L126.7 54.2363L126.546 54.125L126.736 54.1371L126.689 53.9525L126.827 54.0839L126.909 53.9123L126.931 54.1016L127.104 54.0234Z" fill="white"/>
<path d="M69.7135 19.9218L69.608 20.0804L69.7913 20.1321L69.6086 20.1858L69.7158 20.3432L69.5413 20.2669L69.5223 20.4564L69.4376 20.2857L69.3012 20.4186L69.3461 20.2336L69.1562 20.2477L69.3095 20.1347L69.1549 20.0235L69.345 20.0355L69.2981 19.8509L69.436 19.9823L69.5187 19.8108L69.5398 20L69.7135 19.9218Z" fill="white"/>
<path d="M208.761 38.9374L208.656 39.096L208.839 39.1477L208.657 39.2014L208.764 39.3588L208.589 39.2825L208.57 39.472L208.486 39.3014L208.349 39.4343L208.394 39.2492L208.204 39.2633L208.357 39.1504L208.203 39.0391L208.393 39.0511L208.346 38.8665L208.484 38.9979L208.567 38.8264L208.588 39.0157L208.761 38.9374Z" fill="white"/>
<path d="M132.68 92.7187L132.574 92.8773L132.757 92.9289L132.575 92.9826L132.682 93.1401L132.507 93.0637L132.488 93.2532L132.404 93.0826L132.267 93.2155L132.312 93.0304L132.122 93.0446L132.276 92.9316L132.121 92.8203L132.311 92.8324L132.264 92.6478L132.402 92.7792L132.485 92.6076L132.506 92.7969L132.68 92.7187Z" fill="white"/>
<path d="M69.3873 66.8124L69.2819 66.971L69.4652 67.0227L69.2824 67.0764L69.3896 67.2338L69.2151 67.1575L69.1961 67.347L69.1115 67.1764L68.9751 67.3093L69.0199 67.1242L68.83 67.1383L68.9833 67.0254L68.8288 66.9141L69.0188 66.9261L68.9719 66.7415L69.1098 66.8729L69.1925 66.7014L69.2137 66.8907L69.3873 66.8124Z" fill="white"/>
<path d="M66.7636 117.641L66.6582 117.799L66.8415 117.851L66.6587 117.905L66.7659 118.062L66.5915 117.986L66.5724 118.175L66.4878 118.004L66.3514 118.137L66.3962 117.952L66.2063 117.966L66.3596 117.853L66.2051 117.742L66.3951 117.754L66.3482 117.57L66.4861 117.701L66.5688 117.53L66.59 117.719L66.7636 117.641Z" fill="white"/>
<path d="M262.872 113.047L262.767 113.205L262.95 113.257L262.767 113.311L262.875 113.468L262.7 113.392L262.681 113.581L262.597 113.411L262.46 113.544L262.505 113.359L262.315 113.373L262.468 113.26L262.314 113.148L262.504 113.161L262.457 112.976L262.595 113.107L262.678 112.936L262.699 113.125L262.872 113.047Z" fill="white"/>
<path d="M199.252 273.75L199.146 273.909L199.33 273.96L199.147 274.014L199.254 274.171L199.08 274.095L199.061 274.284L198.976 274.114L198.84 274.247L198.884 274.062L198.694 274.076L198.848 273.963L198.693 273.852L198.883 273.864L198.836 273.679L198.974 273.81L199.057 273.639L199.078 273.828L199.252 273.75Z" fill="white"/>
<path d="M256.971 149.453L256.865 149.612L257.048 149.663L256.866 149.717L256.973 149.874L256.798 149.798L256.779 149.988L256.695 149.817L256.558 149.95L256.603 149.765L256.413 149.779L256.567 149.666L256.412 149.555L256.602 149.567L256.555 149.382L256.693 149.514L256.776 149.342L256.797 149.531L256.971 149.453Z" fill="white"/>
<path d="M167.769 123.547L167.663 123.705L167.847 123.757L167.664 123.811L167.771 123.968L167.597 123.892L167.578 124.081L167.493 123.911L167.357 124.044L167.401 123.859L167.212 123.873L167.365 123.76L167.21 123.648L167.4 123.661L167.353 123.476L167.491 123.607L167.574 123.436L167.595 123.625L167.769 123.547Z" fill="white"/>
<path d="M99.2291 247.508L99.1237 247.666L99.307 247.718L99.1242 247.772L99.2314 247.929L99.0569 247.853L99.0379 248.042L98.9533 247.872L98.8169 248.005L98.8617 247.819L98.6718 247.834L98.8251 247.721L98.6706 247.609L98.8606 247.621L98.8137 247.437L98.9516 247.568L99.0343 247.397L99.0555 247.586L99.2291 247.508Z" fill="white"/>
<path d="M19.539 210.125L19.4336 210.284L19.6169 210.335L19.4342 210.389L19.5414 210.546L19.3669 210.47L19.3478 210.659L19.2632 210.489L19.1268 210.622L19.1717 210.437L18.9817 210.451L19.1351 210.338L18.9805 210.227L19.1706 210.239L19.1237 210.054L19.2615 210.185L19.3442 210.014L19.3654 210.203L19.539 210.125Z" fill="white"/>
<path d="M20.5237 96.3281L20.4182 96.4866L20.6015 96.5383L20.4188 96.592L20.526 96.7494L20.3515 96.6731L20.3324 96.8626L20.2478 96.692L20.1114 96.8249L20.1563 96.6398L19.9663 96.6539L20.1197 96.541L19.9651 96.4297L20.1552 96.4418L20.1083 96.2572L20.2461 96.3886L20.3289 96.217L20.35 96.4063L20.5237 96.3281Z" fill="white"/>
<path d="M126.12 107.148L126.014 107.307L126.198 107.359L126.015 107.412L126.122 107.57L125.948 107.493L125.928 107.683L125.844 107.512L125.707 107.645L125.752 107.46L125.562 107.474L125.716 107.361L125.561 107.25L125.751 107.262L125.704 107.077L125.842 107.209L125.925 107.037L125.946 107.227L126.12 107.148Z" fill="white"/>
<path d="M276.318 185.203L276.213 185.362L276.396 185.413L276.214 185.467L276.321 185.624L276.146 185.548L276.127 185.738L276.043 185.567L275.906 185.7L275.951 185.515L275.761 185.529L275.914 185.416L275.76 185.305L275.95 185.317L275.903 185.132L276.041 185.264L276.124 185.092L276.145 185.281L276.318 185.203Z" fill="white"/>
<path d="M232.702 225.531L232.597 225.69L232.78 225.741L232.597 225.795L232.704 225.953L232.53 225.876L232.511 226.066L232.426 225.895L232.29 226.028L232.335 225.843L232.145 225.857L232.298 225.744L232.143 225.633L232.334 225.645L232.287 225.46L232.424 225.592L232.507 225.42L232.528 225.609L232.702 225.531Z" fill="white"/>
<path d="M172.36 134.367L172.254 134.526L172.438 134.577L172.255 134.631L172.362 134.788L172.188 134.712L172.169 134.902L172.084 134.731L171.948 134.864L171.992 134.679L171.802 134.693L171.956 134.58L171.801 134.469L171.991 134.481L171.944 134.296L172.082 134.428L172.165 134.256L172.186 134.445L172.36 134.367Z" fill="white"/>
<path d="M243.525 75.0077L243.419 75.1663L243.602 75.218L243.42 75.2717L243.527 75.4291L243.352 75.3528L243.333 75.5423L243.249 75.3717L243.112 75.5046L243.157 75.3195L242.967 75.3336L243.121 75.2207L242.966 75.1094L243.156 75.1214L243.109 74.9369L243.247 75.0682L243.33 74.8967L243.351 75.086L243.525 75.0077Z" fill="white"/>
<path d="M32.0007 243.906L31.8952 244.065L32.0785 244.116L31.8958 244.17L32.003 244.328L31.8285 244.251L31.8094 244.441L31.7248 244.27L31.5884 244.403L31.6333 244.218L31.4433 244.232L31.5967 244.119L31.4421 244.008L31.6322 244.02L31.5853 243.835L31.7231 243.967L31.8059 243.795L31.827 243.984L32.0007 243.906Z" fill="white"/>
<path d="M24.1299 144.859L24.0245 145.018L24.2078 145.07L24.0251 145.123L24.1322 145.281L23.9578 145.204L23.9387 145.394L23.8541 145.223L23.7177 145.356L23.7625 145.171L23.5726 145.185L23.7259 145.072L23.5714 144.961L23.7614 144.973L23.7145 144.788L23.8524 144.92L23.9351 144.748L23.9563 144.938L24.1299 144.859Z" fill="white"/>
<path d="M204.827 141.25L204.722 141.409L204.905 141.46L204.722 141.514L204.829 141.671L204.655 141.595L204.636 141.784L204.551 141.614L204.415 141.747L204.46 141.562L204.27 141.576L204.423 141.463L204.269 141.352L204.459 141.364L204.412 141.179L204.55 141.31L204.632 141.139L204.653 141.328L204.827 141.25Z" fill="white"/>
<path d="M152.355 188.484L152.25 188.643L152.433 188.695L152.251 188.748L152.358 188.906L152.183 188.829L152.164 189.019L152.08 188.848L151.943 188.981L151.988 188.796L151.798 188.81L151.951 188.697L151.797 188.586L151.987 188.598L151.94 188.413L152.078 188.545L152.161 188.373L152.182 188.563L152.355 188.484Z" fill="white"/>
<path d="M187.331 211.031L187.12 211.349L187.486 211.452L187.121 211.56L187.335 211.875L186.986 211.722L186.948 212.101L186.779 211.76L186.506 212.026L186.596 211.655L186.215 211.683L186.522 211.457L186.213 211.235L186.593 211.259L186.499 210.89L186.775 211.152L186.941 210.809L186.983 211.188L187.331 211.031Z" fill="white"/>
<path d="M106.173 155.281L105.962 155.599L106.329 155.702L105.963 155.81L106.178 156.125L105.829 155.972L105.79 156.351L105.621 156.01L105.348 156.276L105.438 155.905L105.058 155.933L105.365 155.707L105.055 155.485L105.436 155.509L105.342 155.14L105.618 155.402L105.783 155.059L105.826 155.438L106.173 155.281Z" fill="white"/>
<path d="M225.872 19.5157L225.661 19.8331L226.028 19.9365L225.662 20.0439L225.876 20.3589L225.527 20.2062L225.489 20.5854L225.32 20.244L225.047 20.5099L225.137 20.1395L224.757 20.1678L225.063 19.9418L224.754 19.7192L225.134 19.7432L225.041 19.3739L225.316 19.6368L225.482 19.2936L225.524 19.6723L225.872 19.5157Z" fill="white"/>
<path d="M154.38 20.4923L154.169 20.8096L154.536 20.913L154.17 21.0205L154.385 21.3355L154.036 21.1828L153.998 21.5619L153.828 21.2205L153.555 21.4865L153.645 21.1161L153.265 21.1444L153.572 20.9184L153.263 20.6957L153.643 20.7198L153.549 20.3505L153.825 20.6134L153.991 20.2701L154.033 20.6488L154.38 20.4923Z" fill="white"/>
<path d="M294.085 212.016L293.874 212.333L294.24 212.436L293.875 212.544L294.089 212.859L293.74 212.706L293.702 213.085L293.533 212.744L293.26 213.01L293.35 212.64L292.97 212.668L293.276 212.442L292.967 212.219L293.347 212.243L293.254 211.874L293.529 212.137L293.695 211.794L293.737 212.172L294.085 212.016Z" fill="white"/>
<path d="M65.1803 204.141L64.9693 204.458L65.3361 204.561L64.9704 204.669L65.1849 204.984L64.8358 204.831L64.7976 205.21L64.6283 204.869L64.3554 205.135L64.4451 204.765L64.0651 204.793L64.3719 204.567L64.0626 204.344L64.4429 204.368L64.3491 203.999L64.625 204.262L64.7905 203.919L64.8328 204.297L65.1803 204.141Z" fill="white"/>
<path d="M18.284 184.797L18.073 185.114L18.4398 185.218L18.0741 185.325L18.2886 185.64L17.9395 185.487L17.9013 185.867L17.732 185.525L17.4591 185.791L17.5488 185.421L17.1688 185.449L17.4756 185.223L17.1663 185L17.5466 185.024L17.4528 184.655L17.7287 184.918L17.8942 184.575L17.9365 184.954L18.284 184.797Z" fill="white"/>
<path d="M2.21431 108.383L2.0033 108.7L2.37009 108.804L2.00446 108.911L2.21897 109.226L1.86982 109.073L1.83167 109.453L1.66236 109.111L1.38941 109.377L1.47916 109.007L1.09913 109.035L1.40595 108.809L1.09665 108.586L1.47697 108.61L1.38313 108.241L1.659 108.504L1.82453 108.161L1.86687 108.539L2.21431 108.383Z" fill="white"/>
<path d="M233.712 1.33817L233.481 1.33118L233.652 1.57479L233.407 1.40635L233.417 1.63875L233.274 1.38769L233.118 1.50014L233.143 1.28391L232.895 1.2238L233.077 1.14359L232.852 0.939043L233.105 1.03238L233.009 0.779104L233.216 1.00232L233.293 0.818821L233.356 1.06746L233.571 1.03961L233.461 1.19734L233.712 1.33817Z" fill="white"/>
<path d="M294.217 84.5647L293.986 84.5577L294.156 84.8013L293.912 84.6329L293.922 84.8653L293.778 84.6142L293.623 84.7267L293.648 84.5105L293.4 84.4504L293.581 84.3702L293.357 84.1656L293.61 84.2589L293.514 84.0057L293.72 84.2289L293.798 84.0454L293.861 84.294L294.075 84.2662L293.965 84.4239L294.217 84.5647Z" fill="white"/>
<path d="M273.153 118.229L272.921 118.222L273.092 118.465L272.848 118.297L272.857 118.529L272.714 118.278L272.559 118.391L272.584 118.175L272.336 118.114L272.517 118.034L272.293 117.83L272.546 117.923L272.45 117.67L272.656 117.893L272.734 117.709L272.796 117.958L273.011 117.93L272.901 118.088L273.153 118.229Z" fill="white"/>
<path d="M219.974 28.4163L219.743 28.4093L219.913 28.6529L219.669 28.4845L219.679 28.7169L219.535 28.4658L219.38 28.5783L219.405 28.362L219.157 28.3019L219.338 28.2217L219.114 28.0172L219.367 28.1105L219.271 27.8572L219.477 28.0804L219.555 27.8969L219.618 28.1456L219.832 28.1177L219.722 28.2755L219.974 28.4163Z" fill="white"/>
<path d="M181.067 61.3929L180.836 61.3859L181.006 61.6295L180.762 61.461L180.772 61.6934L180.629 61.4424L180.473 61.5548L180.498 61.3386L180.25 61.2785L180.432 61.1983L180.207 60.9937L180.46 61.0871L180.364 60.8338L180.57 61.057L180.648 60.8735L180.711 61.1222L180.926 61.0943L180.816 61.252L181.067 61.3929Z" fill="white"/>
<path d="M290.994 179.666L290.762 179.659L290.933 179.903L290.688 179.734L290.698 179.967L290.555 179.716L290.4 179.828L290.425 179.612L290.177 179.552L290.358 179.472L290.134 179.267L290.387 179.361L290.291 179.107L290.497 179.33L290.574 179.147L290.637 179.396L290.852 179.368L290.742 179.525L290.994 179.666Z" fill="white"/>
<path d="M125.913 189.893L125.682 189.886L125.852 190.129L125.608 189.961L125.618 190.193L125.475 189.942L125.319 190.055L125.344 189.839L125.096 189.778L125.278 189.698L125.053 189.494L125.306 189.587L125.21 189.334L125.416 189.557L125.494 189.374L125.557 189.622L125.772 189.594L125.662 189.752L125.913 189.893Z" fill="white"/>
<path d="M62.3285 73.4397L62.0972 73.4327L62.2677 73.6763L62.0233 73.5079L62.0331 73.7403L61.89 73.4892L61.7345 73.6017L61.7595 73.3855L61.5115 73.3254L61.693 73.2452L61.4685 73.0406L61.7216 73.1339L61.6256 72.8807L61.8318 73.1039L61.9094 72.9204L61.9722 73.169L62.1869 73.1412L62.077 73.2989L62.3285 73.4397Z" fill="white"/>
<path d="M255.54 121.026L255.309 121.019L255.48 121.262L255.235 121.094L255.245 121.326L255.102 121.075L254.946 121.188L254.971 120.971L254.723 120.911L254.905 120.831L254.68 120.627L254.933 120.72L254.837 120.467L255.044 120.69L255.121 120.506L255.184 120.755L255.399 120.727L255.289 120.885L255.54 121.026Z" fill="white"/>
<path d="M288.526 192.502L288.295 192.495L288.466 192.739L288.221 192.57L288.231 192.803L288.088 192.552L287.932 192.664L287.958 192.448L287.709 192.388L287.891 192.308L287.666 192.103L287.92 192.196L287.824 191.943L288.03 192.166L288.107 191.983L288.17 192.232L288.385 192.204L288.275 192.361L288.526 192.502Z" fill="white"/>
<path d="M52.5207 111.401L52.2894 111.394L52.4599 111.637L52.2155 111.469L52.2253 111.701L52.0822 111.45L51.9267 111.563L51.9517 111.346L51.7037 111.286L51.8852 111.206L51.6607 111.002L51.9138 111.095L51.8178 110.842L52.024 111.065L52.1016 110.881L52.1644 111.13L52.3791 111.102L52.2692 111.26L52.5207 111.401Z" fill="white"/>
<path d="M113.661 32.4788L113.43 32.4718L113.6 32.7154L113.356 32.547L113.366 32.7794L113.222 32.5283L113.067 32.6408L113.092 32.4245L112.844 32.3644L113.025 32.2842L112.801 32.0797L113.054 32.173L112.958 31.9197L113.164 32.1429L113.242 31.9594L113.305 32.2081L113.519 32.1802L113.409 32.338L113.661 32.4788Z" fill="white"/>
<path d="M227.667 208.166L227.436 208.159L227.607 208.403L227.362 208.234L227.372 208.467L227.229 208.216L227.073 208.328L227.098 208.112L226.85 208.052L227.032 207.972L226.807 207.767L227.06 207.861L226.964 207.607L227.171 207.83L227.248 207.647L227.311 207.896L227.526 207.868L227.416 208.025L227.667 208.166Z" fill="white"/>
<path d="M251.23 263.622L250.767 263.608L251.108 264.096L250.619 263.759L250.639 264.224L250.352 263.721L250.041 263.946L250.091 263.514L249.595 263.393L249.958 263.233L249.509 262.823L250.015 263.01L249.823 262.503L250.236 262.95L250.391 262.583L250.517 263.08L250.946 263.025L250.726 263.34L251.23 263.622Z" fill="white"/>
<path d="M198.973 132.52L198.51 132.507L198.851 132.994L198.362 132.657L198.382 133.122L198.095 132.62L197.784 132.845L197.834 132.412L197.338 132.292L197.701 132.131L197.252 131.722L197.758 131.909L197.566 131.402L197.979 131.848L198.134 131.481L198.26 131.979L198.69 131.923L198.47 132.239L198.973 132.52Z" fill="white"/>
<path d="M118.115 120.77L117.652 120.757L117.993 121.244L117.504 120.907L117.524 121.372L117.237 120.87L116.926 121.095L116.976 120.662L116.48 120.542L116.843 120.381L116.394 119.972L116.9 120.159L116.708 119.652L117.121 120.098L117.276 119.731L117.402 120.229L117.832 120.173L117.612 120.489L118.115 120.77Z" fill="white"/>
<path d="M32.6117 181.817L32.1489 181.803L32.4901 182.291L32.0011 181.954L32.0207 182.419L31.7343 181.916L31.4231 182.141L31.4732 181.709L30.9769 181.589L31.3401 181.428L30.8908 181.019L31.3973 181.205L31.2053 180.699L31.6179 181.145L31.773 180.778L31.8988 181.276L32.3285 181.22L32.1085 181.536L32.6117 181.817Z" fill="white"/>
<path d="M78.8212 54.1064L78.3585 54.0925L78.6997 54.5799L78.2107 54.2429L78.2303 54.7079L77.9439 54.2055L77.6326 54.4305L77.6828 53.9979L77.1864 53.8776L77.5497 53.7171L77.1004 53.3078L77.6068 53.4946L77.4148 52.9878L77.8274 53.4344L77.9826 53.0672L78.1083 53.5648L78.538 53.509L78.3181 53.8247L78.8212 54.1064Z" fill="white"/>
<path d="M2.1642 122.614L1.70145 122.6L2.04266 123.088L1.55366 122.751L1.57324 123.216L1.28681 122.713L0.975602 122.938L1.02576 122.506L0.529376 122.385L0.892651 122.225L0.443359 121.816L0.949776 122.002L0.757801 121.496L1.1704 121.942L1.32557 121.575L1.45129 122.073L1.881 122.017L1.66102 122.332L2.1642 122.614Z" fill="white"/>
<path d="M248.827 84.7383C249.481 85.8464 248.216 87.0914 247.119 86.4188L232.443 77.4233C231.735 76.9893 230.809 77.364 230.602 78.1682L226.312 94.8385C225.992 96.0849 224.217 96.0704 223.916 94.8189L219.9 78.0807C219.706 77.2732 218.786 76.8835 218.071 77.3058L203.25 86.0602C202.142 86.7147 200.897 85.4492 201.57 84.352L210.565 69.6761C210.999 68.9682 210.625 68.0422 209.82 67.8353L193.15 63.5456C191.904 63.2249 191.918 61.4497 193.17 61.1494L209.908 57.1328C210.715 56.9391 211.105 56.0194 210.683 55.3044L201.928 40.4835C201.274 39.3754 202.539 38.1304 203.637 38.803L218.312 47.7985C219.02 48.2325 219.946 47.8578 220.153 47.0536L224.443 30.3833C224.764 29.1369 226.539 29.1514 226.839 30.4029L230.856 47.1411C231.049 47.9485 231.969 48.3383 232.684 47.916L247.505 39.1616C248.613 38.5071 249.858 39.7725 249.186 40.8698L240.19 55.5456C239.756 56.2536 240.131 57.1795 240.935 57.3865L257.605 61.6762C258.852 61.9969 258.837 63.772 257.586 64.0723L240.847 68.0889C240.04 68.2827 239.65 69.2024 240.073 69.9173L248.827 84.7383Z" fill="url(#paint0_linear_2703_16478)"/>
<path d="M56.3298 255.237C57.1181 256.572 55.5939 258.071 54.2723 257.261L36.596 246.427C35.7432 245.904 34.628 246.355 34.3788 247.324L29.212 267.402C28.8257 268.904 26.6877 268.886 26.326 267.379L21.4882 247.218C21.2548 246.246 20.1471 245.776 19.286 246.285L1.43483 256.829C0.100186 257.618 -1.39929 256.094 -0.589232 254.772L10.2454 237.096C10.7681 236.243 10.3168 235.128 9.34821 234.878L-10.7304 229.712C-12.2315 229.325 -12.2141 227.187 -10.7068 226.826L9.45359 221.988C10.4261 221.754 10.8956 220.647 10.3869 219.786L-0.157297 201.934C-0.945641 200.6 0.578545 199.1 1.90013 199.91L19.5765 210.745C20.4292 211.268 21.5444 210.816 21.7937 209.848L26.9604 189.769C27.3467 188.268 29.4848 188.286 29.8465 189.793L34.6843 209.953C34.9177 210.926 36.0253 211.395 36.8865 210.887L54.7376 200.342C56.0723 199.554 57.5718 201.078 56.7617 202.4L45.927 220.076C45.4044 220.929 45.8556 222.044 46.8243 222.293L66.9028 227.46C68.404 227.846 68.3865 229.984 66.8792 230.346L46.7189 235.184C45.7463 235.417 45.2769 236.525 45.7855 237.386L56.3298 255.237Z" fill="url(#paint1_linear_2703_16478)"/>
<g filter="url(#filter0_ii_2703_16478)">
<path d="M106.343 76.6211C106.615 75.0854 108.116 74.1139 109.637 74.46C123.315 77.5747 129.582 83.4702 131.914 87.8711C132.792 89.5266 131.272 91.0725 129.399 91.1055C126.883 91.1494 124.803 91.6077 123.21 92.1826C124.635 93.7637 127.219 96.9752 129.811 100.952C139.165 101.764 150.242 107.159 155.75 110.41C156.428 110.81 157.294 110.703 157.854 110.149C166.293 101.812 173.972 98.9296 177.496 98.4033C177.985 98.3305 178.472 98.5222 178.771 98.915C182.706 104.086 182.84 117.171 182.144 126.668C182.02 128.367 184.805 129.764 186.371 129.094C189.125 127.914 191.969 127.788 193.747 127.99C194.102 128.031 194.432 128.202 194.649 128.485C199.256 134.514 191.059 151.844 184.438 163.1C183.964 163.907 184.344 164.913 185.029 165.777L186.216 165.702C189.766 165.476 191.166 170.216 188.063 171.955L170.386 181.863C168.748 182.781 166.735 182.161 165.851 180.612C151.436 182.854 125.098 187.949 112.508 190.595C112.428 190.612 112.347 190.622 112.266 190.627C111.031 190.7 109.848 190.748 108.715 190.777L108.685 191.019C108.414 193.155 106.222 194.482 104.203 193.731L84.8079 186.521C81.4948 185.289 82.1115 180.429 85.6272 180.063L86.888 179.932C87.6678 179.012 87.7284 177.441 86.6946 176.724C73.0091 167.228 68.2285 154.657 67.3997 148.159C67.3092 147.449 67.7318 146.782 68.4134 146.563C71.3854 145.613 74.4092 145.612 76.8382 145.947C78.3404 146.154 79.8257 144.484 79.2688 143.073C74.0021 129.735 74.2253 118.873 75.2688 113.818C75.4295 113.041 76.1628 112.546 76.9495 112.652C85.6895 113.84 96.408 118.969 102.229 122.258C103.178 122.794 104.395 122.327 104.823 121.324C107.785 114.376 114.857 107.479 120.436 103.499C119.297 100.745 117.981 97.8581 116.584 95.3281C114.636 96.3086 113.001 97.4674 111.68 98.6152C109.85 100.205 106.578 99.8198 106.105 97.4424C104.674 90.2442 105.404 81.9379 106.343 76.6211Z" fill="#F57979"/>
</g>
<g filter="url(#filter1_n_2703_16478)">
<ellipse cx="124.862" cy="133.923" rx="85.1838" ry="75.9575" transform="rotate(-9.05149 124.862 133.923)" fill="url(#paint2_linear_2703_16478)" fill-opacity="0.9"/>
<path d="M113.015 59.5603C159.188 52.2047 201.803 79.6237 208.335 120.625C214.867 161.626 182.881 200.93 136.708 208.286C90.5349 215.641 47.9195 188.221 41.3878 147.22C34.8564 106.219 66.8423 66.916 113.015 59.5603Z" stroke="url(#paint3_linear_2703_16478)" stroke-width="1.31507"/>
</g>
<g filter="url(#filter2_ii_2703_16478)">
<path d="M116.496 218.737L111.165 210.848C109.914 208.997 110.603 206.463 112.661 205.592C132.486 197.207 155.92 194.736 167.709 194.444C169.828 194.392 171.448 196.226 171.247 198.337L170.428 206.938C170.269 208.605 168.994 209.95 167.34 210.212C144.735 213.8 128.14 218.219 120.379 220.222C118.898 220.605 117.352 220.005 116.496 218.737Z" fill="#8C3E3E"/>
</g>
<circle cx="142.397" cy="205.143" r="2.55707" fill="#CFD7F7"/>
<circle cx="126.323" cy="208.791" r="2.55707" fill="#CFD7F7"/>
<circle cx="157.557" cy="202.557" r="2.55707" fill="#CFD7F7"/>
<g filter="url(#filter3_g_2703_16478)">
<ellipse cx="120.393" cy="147.298" rx="12.6132" ry="11.1571" transform="rotate(-7.75815 120.393 147.298)" fill="white"/>
</g>
<g filter="url(#filter4_g_2703_16478)">
<ellipse cx="121.026" cy="147.079" rx="8.54877" ry="7.80462" transform="rotate(-7.75815 121.026 147.079)" fill="black"/>
</g>
<g filter="url(#filter5_g_2703_16478)">
<ellipse cx="155.174" cy="143.807" rx="11.3885" ry="11.1571" transform="rotate(-7.75815 155.174 143.807)" fill="white"/>
</g>
<ellipse cx="138.925" cy="153.052" rx="3.65296" ry="2.92237" transform="rotate(-3.98844 138.925 153.052)" fill="#FF581D"/>
<path d="M134.346 157.547L134.83 158.224C135.628 159.341 137.062 159.808 138.365 159.373V159.373" stroke="#852A0A" stroke-width="1.16895" stroke-linecap="round"/>
<g filter="url(#filter6_g_2703_16478)">
<ellipse cx="155.235" cy="143.509" rx="8.40344" ry="7.91103" transform="rotate(-7.75815 155.235 143.509)" fill="black"/>
</g>
<path opacity="0.8" d="M82.005 95.9644L67.7245 117.421C64.6162 122.091 58.8017 127.258 54.518 123.636C51.8756 121.401 51.8819 117.178 52.523 114.424C53.9045 109.516 59.6373 97.5794 71.5174 89.0887C78.6736 83.9743 82.2626 84.3174 83.8847 86.3469C86.0915 89.1078 83.9633 93.022 82.005 95.9644Z" fill="url(#paint4_linear_2703_16478)"/>
<path opacity="0.89" d="M50.9267 130.282C57.9404 125.607 58.2326 136.127 57.502 141.972C56.6252 145.186 52.7531 143.311 50.9267 141.972C48.0043 140.024 43.913 134.958 50.9267 130.282Z" fill="url(#paint5_linear_2703_16478)"/>
<path d="M132.576 157.679C133.969 157.679 134.526 157.401 134.805 156.008" stroke="#852A0A" stroke-width="1.11433" stroke-linecap="round"/>
<g filter="url(#filter7_ii_2703_16478)">
<path d="M251.857 142.172L242.549 140.143L240.386 145.361L247.706 147.071C248.697 147.302 249.297 148.31 249.029 149.291L246.358 159.055C245.379 162.631 241.354 164.398 238.059 162.698L233.594 160.393L231.253 170.523L235.304 171.188C242.679 172.4 249.8 167.924 251.906 160.754L255.54 148.383C256.347 145.636 254.654 142.781 251.857 142.172Z" fill="#FFD662"/>
</g>
<g filter="url(#filter8_iiii_2703_16478)">
<path d="M186.248 132.081L195.662 133.541L195.8 139.187L188.356 138.146C187.348 138.005 186.425 138.729 186.322 139.742L185.299 149.812C184.923 153.501 188.042 156.599 191.729 156.199L196.724 155.657L195.26 165.95L191.242 165.112C183.925 163.587 178.893 156.847 179.511 149.399L180.575 136.55C180.811 133.697 183.419 131.643 186.248 132.081Z" fill="#FFD662"/>
</g>
<path d="M248.939 104.034C250.317 104.003 251.481 104.981 251.73 106.292C251.744 106.292 251.758 106.289 251.771 106.289C253.307 106.254 254.58 107.471 254.615 109.006C254.65 110.542 253.434 111.815 251.898 111.85C250.903 111.873 250.019 111.367 249.511 110.592L243.552 116.899L241.776 115.222L247.505 109.157C246.752 108.674 246.244 107.839 246.222 106.878C246.187 105.342 247.403 104.069 248.939 104.034Z" fill="#E7DFDD"/>
<path d="M216.739 121.562C227.112 117.473 220.702 126.806 216.175 132.011L207.099 129.992C206.54 127.75 205.757 122.896 207.102 121.417C208.447 119.938 211.024 120.914 212.144 121.586C212.441 116.827 213.905 115.1 214.6 114.832C219.828 112.469 217.535 120.675 216.739 121.562Z" fill="#89E2C6"/>
<g filter="url(#filter9_i_2703_16478)">
<path d="M211.893 126.516C214.986 129.31 216.16 132.181 216.361 133.268L200.548 132.262C198.185 128.148 193.74 119.233 194.863 116.483C195.986 113.734 199.569 115.427 201.22 116.618C202.271 112.732 204.888 114.201 206.065 115.422C205.497 113.474 205.348 109.456 209.293 108.967C213.238 108.478 211.318 117.793 209.865 122.512C213.682 123.094 212.808 125.424 211.893 126.516Z" fill="#41C99C"/>
</g>
<g filter="url(#filter10_i_2703_16478)">
<path d="M203.597 122.958C208.614 122.598 207.502 128.597 206.319 131.642C209.261 134.555 211.454 138.226 196.689 129.603C181.924 120.981 185.869 118.172 189.687 117.845C188.956 116.678 187.903 112.857 191.662 111.814C195.336 110.795 198.27 117.132 199.489 121.056C203.486 117.69 203.893 120.921 203.597 122.958Z" fill="#28A16F"/>
</g>
<g filter="url(#filter11_iii_2703_16478)">
<path d="M213.334 170.068L215.151 170.126L214.975 170.691L220.274 172.704C218.253 176.121 215.347 183.317 217.52 188.14C218.193 189.634 220 189.951 221.579 190.393C223.622 190.965 225.204 192.885 223.038 197.77L207.386 195.038L207.391 195.005L207.385 195.031L193.472 192.375C193.12 187.043 195.264 185.785 197.38 185.95C199.014 186.079 200.819 186.403 201.965 185.232C205.666 181.451 205.414 173.695 204.692 169.792L212.709 170.048L212.753 169.847L213.334 170.068Z" fill="#FFD150"/>
</g>
<g filter="url(#filter12_iii_2703_16478)">
<path d="M236.203 113.684C238.383 110.872 242.429 110.36 245.241 112.54C248.053 114.72 248.565 118.766 246.385 121.578L243.87 124.82C244.591 126.577 244.962 128.512 244.897 130.533C244.651 138.209 238.23 144.231 230.554 143.985C222.879 143.739 216.857 137.318 217.103 129.642C217.349 121.967 223.77 115.945 231.445 116.191C232.324 116.219 233.181 116.329 234.009 116.511L236.203 113.684Z" fill="#D36633"/>
</g>
<g filter="url(#filter13_iii_2703_16478)">
<path d="M243.884 136.552C227.826 123.204 205.298 125.668 195.241 128.786C194.788 128.926 194.45 129.28 194.329 129.739C190.263 145.166 188.906 175.897 210.022 180.242C236.121 185.612 242.377 155.432 244.377 137.774C244.43 137.308 244.245 136.852 243.884 136.552Z" fill="#FFD150"/>
</g>
<mask id="mask0_2703_16478" style="mask-type:alpha" maskUnits="userSpaceOnUse" x="191" y="126" width="54" height="52">
<path d="M243.884 136.547C227.826 123.199 205.298 125.663 195.242 128.78C194.788 128.921 194.45 129.276 194.328 129.735C190.259 145.076 188.761 173.017 208.962 176.133C235.952 183.045 242.372 155.36 244.377 137.77C244.43 137.304 244.245 136.847 243.884 136.547Z" fill="#FFD662"/>
</mask>
<g mask="url(#mask0_2703_16478)">
<g filter="url(#filter14_f_2703_16478)">
<rect x="202.796" y="121.18" width="9.88619" height="30.0868" rx="4.94309" transform="rotate(8.5525 202.796 121.18)" fill="#FFE4E4"/>
</g>
</g>
<circle cx="227.568" cy="119.602" r="1.08617" fill="#AE4C00"/>
<circle cx="230.555" cy="122.588" r="0.814626" fill="#AE4C00"/>
<circle cx="228.111" cy="126.117" r="1.08617" fill="#AE4C00"/>
<g filter="url(#filter15_ii_2703_16478)">
<path d="M189.691 195.401C189.831 193.418 191.66 191.994 193.617 192.346L222.321 197.504C224.337 197.867 225.556 199.941 224.892 201.879L223.214 206.772C222.677 208.339 221.073 209.276 219.444 208.975L192.065 203.914C190.392 203.604 189.219 202.088 189.338 200.391L189.691 195.401Z" fill="#FFCA4B"/>
</g>
<circle cx="239.696" cy="117.604" r="0.814626" fill="#AE4C00"/>
<circle cx="235.623" cy="117.875" r="1.08617" fill="#AE4C00"/>
<circle cx="240.511" cy="114.071" r="1.08617" fill="#AE4C00"/>
</g>
<defs>
<filter id="filter0_ii_2703_16478" x="60.8122" y="74.3906" width="135.179" height="121.016" filterUnits="userSpaceOnUse" color-interpolation-filters="sRGB">
<feFlood flood-opacity="0" result="BackgroundImageFix"/>
<feBlend mode="normal" in="SourceGraphic" in2="BackgroundImageFix" result="shape"/>
<feColorMatrix in="SourceAlpha" type="matrix" values="0 0 0 0 0 0 0 0 0 0 0 0 0 0 0 0 0 0 127 0" result="hardAlpha"/>
<feOffset dx="-6.57533" dy="1.46118"/>
<feGaussianBlur stdDeviation="5.44291"/>
<feComposite in2="hardAlpha" operator="arithmetic" k2="-1" k3="1"/>
<feColorMatrix type="matrix" values="0 0 0 0 1 0 0 0 0 0.912766 0 0 0 0 0.792818 0 0 0 0.8 0"/>
<feBlend mode="normal" in2="shape" result="effect1_innerShadow_2703_16478"/>
<feColorMatrix in="SourceAlpha" type="matrix" values="0 0 0 0 0 0 0 0 0 0 0 0 0 0 0 0 0 0 127 0" result="hardAlpha"/>
<feOffset dx="-0.730592" dy="0.730592"/>
<feGaussianBlur stdDeviation="0.365296"/>
<feComposite in2="hardAlpha" operator="arithmetic" k2="-1" k3="1"/>
<feColorMatrix type="matrix" values="0 0 0 0 0.871206 0 0 0 0 1 0 0 0 0 0.997853 0 0 0 0.5 0"/>
<feBlend mode="normal" in2="effect1_innerShadow_2703_16478" result="effect2_innerShadow_2703_16478"/>
</filter>
<filter id="filter1_n_2703_16478" x="39.8836" y="57.7109" width="169.957" height="152.422" filterUnits="userSpaceOnUse" color-interpolation-filters="sRGB">
<feFlood flood-opacity="0" result="BackgroundImageFix"/>
<feBlend mode="normal" in="SourceGraphic" in2="BackgroundImageFix" result="shape"/>
<feTurbulence type="fractalNoise" baseFrequency="0.14257845282554626 0.14257845282554626" stitchTiles="stitch" numOctaves="3" result="noise" seed="1999" />
<feColorMatrix in="noise" type="luminanceToAlpha" result="alphaNoise" />
<feComponentTransfer in="alphaNoise" result="coloredNoise1">
<feFuncA type="discrete" tableValues="1 1 1 1 1 1 1 1 1 1 1 1 1 1 1 1 1 1 1 1 1 1 1 1 1 1 1 1 1 1 1 1 1 1 1 1 1 1 1 1 1 1 1 1 1 1 1 1 1 1 1 0 0 0 0 0 0 0 0 0 0 0 0 0 0 0 0 0 0 0 0 0 0 0 0 0 0 0 0 0 0 0 0 0 0 0 0 0 0 0 0 0 0 0 0 0 0 0 0 0 "/>
</feComponentTransfer>
<feComposite operator="in" in2="shape" in="coloredNoise1" result="noise1Clipped" />
<feFlood flood-color="rgba(0, 0, 0, 0.08)" result="color1Flood" />
<feComposite operator="in" in2="noise1Clipped" in="color1Flood" result="color1" />
<feMerge result="effect1_noise_2703_16478">
<feMergeNode in="shape" />
<feMergeNode in="color1" />
</feMerge>
</filter>
<filter id="filter2_ii_2703_16478" x="102.795" y="194.445" width="68.4691" height="27.3518" filterUnits="userSpaceOnUse" color-interpolation-filters="sRGB">
<feFlood flood-opacity="0" result="BackgroundImageFix"/>
<feBlend mode="normal" in="SourceGraphic" in2="BackgroundImageFix" result="shape"/>
<feColorMatrix in="SourceAlpha" type="matrix" values="0 0 0 0 0 0 0 0 0 0 0 0 0 0 0 0 0 0 127 0" result="hardAlpha"/>
<feOffset dx="-8.03651" dy="1.46118"/>
<feGaussianBlur stdDeviation="3.87214"/>
<feComposite in2="hardAlpha" operator="arithmetic" k2="-1" k3="1"/>
<feColorMatrix type="matrix" values="0 0 0 0 0.869328 0 0 0 0 0.719989 0 0 0 0 1 0 0 0 0.2 0"/>
<feBlend mode="normal" in2="shape" result="effect1_innerShadow_2703_16478"/>
<feColorMatrix in="SourceAlpha" type="matrix" values="0 0 0 0 0 0 0 0 0 0 0 0 0 0 0 0 0 0 127 0" result="hardAlpha"/>
<feOffset dx="-0.730592"/>
<feGaussianBlur stdDeviation="0.365296"/>
<feComposite in2="hardAlpha" operator="arithmetic" k2="-1" k3="1"/>
<feColorMatrix type="matrix" values="0 0 0 0 0.858824 0 0 0 0 0.976471 0 0 0 0 0.984314 0 0 0 0.2 0"/>
<feBlend mode="normal" in2="effect1_innerShadow_2703_16478" result="effect2_innerShadow_2703_16478"/>
</filter>
<filter id="filter3_g_2703_16478" x="107.438" y="135.744" width="25.9094" height="23.1056" filterUnits="userSpaceOnUse" color-interpolation-filters="sRGB">
<feFlood flood-opacity="0" result="BackgroundImageFix"/>
<feBlend mode="normal" in="SourceGraphic" in2="BackgroundImageFix" result="shape"/>
<feTurbulence type="fractalNoise" baseFrequency="1.5208369493484497 1.5208369493484497" numOctaves="3" seed="3511" />
<feDisplacementMap in="shape" scale="0.73059177398681641" xChannelSelector="R" yChannelSelector="G" result="displacedImage" width="100%" height="100%" />
<feMerge result="effect1_texture_2703_16478">
<feMergeNode in="displacedImage"/>
</feMerge>
</filter>
<filter id="filter4_g_2703_16478" x="112.249" y="139.018" width="17.5532" height="16.1205" filterUnits="userSpaceOnUse" color-interpolation-filters="sRGB">
<feFlood flood-opacity="0" result="BackgroundImageFix"/>
<feBlend mode="normal" in="SourceGraphic" in2="BackgroundImageFix" result="shape"/>
<feTurbulence type="fractalNoise" baseFrequency="2.3155946731567383 2.3155946731567383" numOctaves="3" seed="3511" />
<feDisplacementMap in="shape" scale="0.47983837127685547" xChannelSelector="R" yChannelSelector="G" result="displacedImage" width="100%" height="100%" />
<feMerge result="effect1_texture_2703_16478">
<feMergeNode in="displacedImage"/>
</feMerge>
</filter>
<filter id="filter5_g_2703_16478" x="143.423" y="132.275" width="23.5019" height="23.0587" filterUnits="userSpaceOnUse" color-interpolation-filters="sRGB">
<feFlood flood-opacity="0" result="BackgroundImageFix"/>
<feBlend mode="normal" in="SourceGraphic" in2="BackgroundImageFix" result="shape"/>
<feTurbulence type="fractalNoise" baseFrequency="1.5208369493484497 1.5208369493484497" numOctaves="3" seed="3511" />
<feDisplacementMap in="shape" scale="0.73059177398681641" xChannelSelector="R" yChannelSelector="G" result="displacedImage" width="100%" height="100%" />
<feMerge result="effect1_texture_2703_16478">
<feMergeNode in="displacedImage"/>
</feMerge>
</filter>
<filter id="filter6_g_2703_16478" x="146.599" y="135.346" width="17.2712" height="16.3236" filterUnits="userSpaceOnUse" color-interpolation-filters="sRGB">
<feFlood flood-opacity="0" result="BackgroundImageFix"/>
<feBlend mode="normal" in="SourceGraphic" in2="BackgroundImageFix" result="shape"/>
<feTurbulence type="fractalNoise" baseFrequency="2.3155946731567383 2.3155946731567383" numOctaves="3" seed="3511" />
<feDisplacementMap in="shape" scale="0.47983837127685547" xChannelSelector="R" yChannelSelector="G" result="displacedImage" width="100%" height="100%" />
<feMerge result="effect1_texture_2703_16478">
<feMergeNode in="displacedImage"/>
</feMerge>
</filter>
<filter id="filter7_ii_2703_16478" x="227.049" y="138.038" width="29.8074" height="33.3445" filterUnits="userSpaceOnUse" color-interpolation-filters="sRGB">
<feFlood flood-opacity="0" result="BackgroundImageFix"/>
<feBlend mode="normal" in="SourceGraphic" in2="BackgroundImageFix" result="shape"/>
<feColorMatrix in="SourceAlpha" type="matrix" values="0 0 0 0 0 0 0 0 0 0 0 0 0 0 0 0 0 0 127 0" result="hardAlpha"/>
<feOffset dx="-4.20471" dy="-2.10236"/>
<feGaussianBlur stdDeviation="2.70678"/>
<feComposite in2="hardAlpha" operator="arithmetic" k2="-1" k3="1"/>
<feColorMatrix type="matrix" values="0 0 0 0 1 0 0 0 0 0.719161 0 0 0 0 0.234075 0 0 0 1 0"/>
<feBlend mode="normal" in2="shape" result="effect1_innerShadow_2703_16478"/>
<feColorMatrix in="SourceAlpha" type="matrix" values="0 0 0 0 0 0 0 0 0 0 0 0 0 0 0 0 0 0 127 0" result="hardAlpha"/>
<feOffset dx="1.11433" dy="-1.11433"/>
<feGaussianBlur stdDeviation="1.11433"/>
<feComposite in2="hardAlpha" operator="arithmetic" k2="-1" k3="1"/>
<feColorMatrix type="matrix" values="0 0 0 0 1 0 0 0 0 0.686276 0 0 0 0 0.127028 0 0 0 1 0"/>
<feBlend mode="normal" in2="effect1_innerShadow_2703_16478" result="effect2_innerShadow_2703_16478"/>
</filter>
<filter id="filter8_iiii_2703_16478" x="175.255" y="129.921" width="23.1405" height="37.7035" filterUnits="userSpaceOnUse" color-interpolation-filters="sRGB">
<feFlood flood-opacity="0" result="BackgroundImageFix"/>
<feBlend mode="normal" in="SourceGraphic" in2="BackgroundImageFix" result="shape"/>
<feColorMatrix in="SourceAlpha" type="matrix" values="0 0 0 0 0 0 0 0 0 0 0 0 0 0 0 0 0 0 127 0" result="hardAlpha"/>
<feOffset dx="-4.20471" dy="-2.10236"/>
<feGaussianBlur stdDeviation="2.70678"/>
<feComposite in2="hardAlpha" operator="arithmetic" k2="-1" k3="1"/>
<feColorMatrix type="matrix" values="0 0 0 0 1 0 0 0 0 0.719161 0 0 0 0 0.234075 0 0 0 1 0"/>
<feBlend mode="normal" in2="shape" result="effect1_innerShadow_2703_16478"/>
<feColorMatrix in="SourceAlpha" type="matrix" values="0 0 0 0 0 0 0 0 0 0 0 0 0 0 0 0 0 0 127 0" result="hardAlpha"/>
<feOffset dx="1.67149" dy="1.67149"/>
<feGaussianBlur stdDeviation="2.00579"/>
<feComposite in2="hardAlpha" operator="arithmetic" k2="-1" k3="1"/>
<feColorMatrix type="matrix" values="0 0 0 0 1 0 0 0 0 0.666667 0 0 0 0 0 0 0 0 0.6 0"/>
<feBlend mode="normal" in2="effect1_innerShadow_2703_16478" result="effect2_innerShadow_2703_16478"/>
<feColorMatrix in="SourceAlpha" type="matrix" values="0 0 0 0 0 0 0 0 0 0 0 0 0 0 0 0 0 0 127 0" result="hardAlpha"/>
<feOffset dx="1.11433" dy="-1.11433"/>
<feGaussianBlur stdDeviation="1.11433"/>
<feComposite in2="hardAlpha" operator="arithmetic" k2="-1" k3="1"/>
<feColorMatrix type="matrix" values="0 0 0 0 1 0 0 0 0 0.686276 0 0 0 0 0.127028 0 0 0 1 0"/>
<feBlend mode="normal" in2="effect2_innerShadow_2703_16478" result="effect3_innerShadow_2703_16478"/>
<feColorMatrix in="SourceAlpha" type="matrix" values="0 0 0 0 0 0 0 0 0 0 0 0 0 0 0 0 0 0 127 0" result="hardAlpha"/>
<feOffset dx="0.557163" dy="0.557163"/>
<feGaussianBlur stdDeviation="0.557163"/>
<feComposite in2="hardAlpha" operator="arithmetic" k2="-1" k3="1"/>
<feColorMatrix type="matrix" values="0 0 0 0 1 0 0 0 0 1 0 0 0 0 1 0 0 0 0.6 0"/>
<feBlend mode="normal" in2="effect3_innerShadow_2703_16478" result="effect4_innerShadow_2703_16478"/>
</filter>
<filter id="filter9_i_2703_16478" x="194.684" y="108.945" width="23.5361" height="26.1798" filterUnits="userSpaceOnUse" color-interpolation-filters="sRGB">
<feFlood flood-opacity="0" result="BackgroundImageFix"/>
<feBlend mode="normal" in="SourceGraphic" in2="BackgroundImageFix" result="shape"/>
<feColorMatrix in="SourceAlpha" type="matrix" values="0 0 0 0 0 0 0 0 0 0 0 0 0 0 0 0 0 0 127 0" result="hardAlpha"/>
<feOffset dx="1.85945" dy="1.85945"/>
<feGaussianBlur stdDeviation="2.23134"/>
<feComposite in2="hardAlpha" operator="arithmetic" k2="-1" k3="1"/>
<feColorMatrix type="matrix" values="0 0 0 0 0.872844 0 0 0 0 1 0 0 0 0 0.36422 0 0 0 0.6 0"/>
<feBlend mode="normal" in2="shape" result="effect1_innerShadow_2703_16478"/>
</filter>
<filter id="filter10_i_2703_16478" x="186.17" y="111.703" width="25.6312" height="25.1251" filterUnits="userSpaceOnUse" color-interpolation-filters="sRGB">
<feFlood flood-opacity="0" result="BackgroundImageFix"/>
<feBlend mode="normal" in="SourceGraphic" in2="BackgroundImageFix" result="shape"/>
<feColorMatrix in="SourceAlpha" type="matrix" values="0 0 0 0 0 0 0 0 0 0 0 0 0 0 0 0 0 0 127 0" result="hardAlpha"/>
<feOffset dx="3.34298" dy="1.85945"/>
<feGaussianBlur stdDeviation="2.23134"/>
<feComposite in2="hardAlpha" operator="arithmetic" k2="-1" k3="1"/>
<feColorMatrix type="matrix" values="0 0 0 0 0.444937 0 0 0 0 0.944092 0 0 0 0 0.636279 0 0 0 0.6 0"/>
<feBlend mode="normal" in2="shape" result="effect1_innerShadow_2703_16478"/>
</filter>
<filter id="filter11_iii_2703_16478" x="190.648" y="167.887" width="34.8555" height="29.8864" filterUnits="userSpaceOnUse" color-interpolation-filters="sRGB">
<feFlood flood-opacity="0" result="BackgroundImageFix"/>
<feBlend mode="normal" in="SourceGraphic" in2="BackgroundImageFix" result="shape"/>
<feColorMatrix in="SourceAlpha" type="matrix" values="0 0 0 0 0 0 0 0 0 0 0 0 0 0 0 0 0 0 127 0" result="hardAlpha"/>
<feOffset dx="-1.902" dy="-1.902"/>
<feGaussianBlur stdDeviation="5.82487"/>
<feComposite in2="hardAlpha" operator="arithmetic" k2="-1" k3="1"/>
<feColorMatrix type="matrix" values="0 0 0 0 1 0 0 0 0 0.719161 0 0 0 0 0.234075 0 0 0 1 0"/>
<feBlend mode="normal" in2="shape" result="effect1_innerShadow_2703_16478"/>
<feColorMatrix in="SourceAlpha" type="matrix" values="0 0 0 0 0 0 0 0 0 0 0 0 0 0 0 0 0 0 127 0" result="hardAlpha"/>
<feOffset dx="1.4265" dy="-0.4755"/>
<feGaussianBlur stdDeviation="3.94665"/>
<feComposite in2="hardAlpha" operator="arithmetic" k2="-1" k3="1"/>
<feColorMatrix type="matrix" values="0 0 0 0 0.982536 0 0 0 0 1 0 0 0 0 0.790433 0 0 0 0.7 0"/>
<feBlend mode="normal" in2="effect1_innerShadow_2703_16478" result="effect2_innerShadow_2703_16478"/>
<feColorMatrix in="SourceAlpha" type="matrix" values="0 0 0 0 0 0 0 0 0 0 0 0 0 0 0 0 0 0 127 0" result="hardAlpha"/>
<feOffset dx="-2.78582" dy="-0.557163"/>
<feGaussianBlur stdDeviation="1.39291"/>
<feComposite in2="hardAlpha" operator="arithmetic" k2="-1" k3="1"/>
<feColorMatrix type="matrix" values="0 0 0 0 1 0 0 0 0 0.686276 0 0 0 0 0.127028 0 0 0 1 0"/>
<feBlend mode="normal" in2="effect2_innerShadow_2703_16478" result="effect3_innerShadow_2703_16478"/>
</filter>
<filter id="filter12_iii_2703_16478" x="214.314" y="110.261" width="35.0508" height="35.5856" filterUnits="userSpaceOnUse" color-interpolation-filters="sRGB">
<feFlood flood-opacity="0" result="BackgroundImageFix"/>
<feBlend mode="normal" in="SourceGraphic" in2="BackgroundImageFix" result="shape"/>
<feColorMatrix in="SourceAlpha" type="matrix" values="0 0 0 0 0 0 0 0 0 0 0 0 0 0 0 0 0 0 127 0" result="hardAlpha"/>
<feOffset dy="1.85394"/>
<feGaussianBlur stdDeviation="3.12852"/>
<feComposite in2="hardAlpha" operator="arithmetic" k2="-1" k3="1"/>
<feColorMatrix type="matrix" values="0 0 0 0 0.94902 0 0 0 0 0.52549 0 0 0 0 0.309804 0 0 0 1 0"/>
<feBlend mode="normal" in2="shape" result="effect1_innerShadow_2703_16478"/>
<feColorMatrix in="SourceAlpha" type="matrix" values="0 0 0 0 0 0 0 0 0 0 0 0 0 0 0 0 0 0 127 0" result="hardAlpha"/>
<feOffset dx="-2.78091" dy="-0.926968"/>
<feGaussianBlur stdDeviation="1.62925"/>
<feComposite in2="hardAlpha" operator="arithmetic" k2="-1" k3="1"/>
<feColorMatrix type="matrix" values="0 0 0 0 0.67451 0 0 0 0 0.305882 0 0 0 0 0.027451 0 0 0 1 0"/>
<feBlend mode="normal" in2="effect1_innerShadow_2703_16478" result="effect2_innerShadow_2703_16478"/>
<feColorMatrix in="SourceAlpha" type="matrix" values="0 0 0 0 0 0 0 0 0 0 0 0 0 0 0 0 0 0 127 0" result="hardAlpha"/>
<feOffset dx="1.62925" dy="1.62925"/>
<feGaussianBlur stdDeviation="3.06842"/>
<feComposite in2="hardAlpha" operator="arithmetic" k2="-1" k3="1"/>
<feColorMatrix type="matrix" values="0 0 0 0 1 0 0 0 0 0.728835 0 0 0 0 0.728835 0 0 0 0.6 0"/>
<feBlend mode="normal" in2="effect2_innerShadow_2703_16478" result="effect3_innerShadow_2703_16478"/>
</filter>
<filter id="filter13_iii_2703_16478" x="180.01" y="124.426" width="66.047" height="58.6775" filterUnits="userSpaceOnUse" color-interpolation-filters="sRGB">
<feFlood flood-opacity="0" result="BackgroundImageFix"/>
<feBlend mode="normal" in="SourceGraphic" in2="BackgroundImageFix" result="shape"/>
<feColorMatrix in="SourceAlpha" type="matrix" values="0 0 0 0 0 0 0 0 0 0 0 0 0 0 0 0 0 0 127 0" result="hardAlpha"/>
<feOffset dx="-11.8875" dy="-1.902"/>
<feGaussianBlur stdDeviation="6.77587"/>
<feComposite in2="hardAlpha" operator="arithmetic" k2="-1" k3="1"/>
<feColorMatrix type="matrix" values="0 0 0 0 1 0 0 0 0 0.719161 0 0 0 0 0.234075 0 0 0 1 0"/>
<feBlend mode="normal" in2="shape" result="effect1_innerShadow_2703_16478"/>
<feColorMatrix in="SourceAlpha" type="matrix" values="0 0 0 0 0 0 0 0 0 0 0 0 0 0 0 0 0 0 127 0" result="hardAlpha"/>
<feOffset dx="-2.78582" dy="-0.557163"/>
<feGaussianBlur stdDeviation="1.39291"/>
<feComposite in2="hardAlpha" operator="arithmetic" k2="-1" k3="1"/>
<feColorMatrix type="matrix" values="0 0 0 0 1 0 0 0 0 0.686276 0 0 0 0 0.127028 0 0 0 1 0"/>
<feBlend mode="normal" in2="effect1_innerShadow_2703_16478" result="effect2_innerShadow_2703_16478"/>
<feColorMatrix in="SourceAlpha" type="matrix" values="0 0 0 0 0 0 0 0 0 0 0 0 0 0 0 0 0 0 127 0" result="hardAlpha"/>
<feOffset dx="1.67149" dy="2.22865"/>
<feGaussianBlur stdDeviation="1.89435"/>
<feComposite in2="hardAlpha" operator="arithmetic" k2="-1" k3="1"/>
<feColorMatrix type="matrix" values="0 0 0 0 1 0 0 0 0 0.902907 0 0 0 0 0.902907 0 0 0 0.6 0"/>
<feBlend mode="normal" in2="effect2_innerShadow_2703_16478" result="effect3_innerShadow_2703_16478"/>
</filter>
<filter id="filter14_f_2703_16478" x="193.485" y="116.343" width="23.9236" height="40.899" filterUnits="userSpaceOnUse" color-interpolation-filters="sRGB">
<feFlood flood-opacity="0" result="BackgroundImageFix"/>
<feBlend mode="normal" in="SourceGraphic" in2="BackgroundImageFix" result="shape"/>
<feGaussianBlur stdDeviation="2.75796" result="effect1_foregroundBlur_2703_16478"/>
</filter>
<filter id="filter15_ii_2703_16478" x="182.7" y="186.717" width="43.4888" height="23.4281" filterUnits="userSpaceOnUse" color-interpolation-filters="sRGB">
<feFlood flood-opacity="0" result="BackgroundImageFix"/>
<feBlend mode="normal" in="SourceGraphic" in2="BackgroundImageFix" result="shape"/>
<feColorMatrix in="SourceAlpha" type="matrix" values="0 0 0 0 0 0 0 0 0 0 0 0 0 0 0 0 0 0 127 0" result="hardAlpha"/>
<feOffset dx="-8.35745" dy="-5.57163"/>
<feGaussianBlur stdDeviation="3.31512"/>
<feComposite in2="hardAlpha" operator="arithmetic" k2="-1" k3="1"/>
<feColorMatrix type="matrix" values="0 0 0 0 0.988235 0 0 0 0 0.647451 0 0 0 0 0.0588235 0 0 0 1 0"/>
<feBlend mode="normal" in2="shape" result="effect1_innerShadow_2703_16478"/>
<feColorMatrix in="SourceAlpha" type="matrix" values="0 0 0 0 0 0 0 0 0 0 0 0 0 0 0 0 0 0 127 0" result="hardAlpha"/>
<feOffset dx="1.11433" dy="1.11433"/>
<feGaussianBlur stdDeviation="0.557163"/>
<feComposite in2="hardAlpha" operator="arithmetic" k2="-1" k3="1"/>
<feColorMatrix type="matrix" values="0 0 0 0 1 0 0 0 0 1 0 0 0 0 1 0 0 0 0.5 0"/>
<feBlend mode="normal" in2="effect1_innerShadow_2703_16478" result="effect2_innerShadow_2703_16478"/>
</filter>
<linearGradient id="paint0_linear_2703_16478" x1="216.032" y1="4.4242" x2="229.106" y2="107.111" gradientUnits="userSpaceOnUse">
<stop stop-color="#9CCFFF"/>
<stop offset="1" stop-color="#A7B3FF" stop-opacity="0"/>
</linearGradient>
<linearGradient id="paint1_linear_2703_16478" x1="16.8297" y1="158.503" x2="32.577" y2="282.184" gradientUnits="userSpaceOnUse">
<stop stop-color="#9CCFFF"/>
<stop offset="1" stop-color="#A7B3FF" stop-opacity="0"/>
</linearGradient>
<linearGradient id="paint2_linear_2703_16478" x1="208.966" y1="112.169" x2="56.2284" y2="176.983" gradientUnits="userSpaceOnUse">
<stop stop-color="#FFB2B2" stop-opacity="0.2"/>
<stop offset="1" stop-color="white" stop-opacity="0"/>
</linearGradient>
<linearGradient id="paint3_linear_2703_16478" x1="42.305" y1="81.9261" x2="104.04" y2="215.007" gradientUnits="userSpaceOnUse">
<stop stop-color="#8C3E3E"/>
<stop offset="0.586538" stop-color="#CEB484"/>
<stop offset="1" stop-color="#8F5B5B"/>
</linearGradient>
<linearGradient id="paint4_linear_2703_16478" x1="61.2942" y1="94.8895" x2="100.906" y2="148.97" gradientUnits="userSpaceOnUse">
<stop stop-color="#FFD9D9"/>
<stop offset="0.440397" stop-color="#FFD9D9" stop-opacity="0"/>
</linearGradient>
<linearGradient id="paint5_linear_2703_16478" x1="47.0541" y1="130.463" x2="62.4064" y2="133.6" gradientUnits="userSpaceOnUse">
<stop stop-color="#FFD9D9"/>
<stop offset="1" stop-color="#FFD9D9" stop-opacity="0"/>
</linearGradient>
<clipPath id="clip0_2703_16478">
<rect width="298" height="274" fill="white"/>
</clipPath>
</defs>
</svg>
