<svg width="14" height="14" viewBox="0 0 14 14" fill="none" xmlns="http://www.w3.org/2000/svg">
<g clip-path="url(#clip0_2808_42795)">
<path d="M11.9102 4.08301C12.7949 4.08321 13.5117 4.80072 13.5117 5.68555V9.20898C13.5112 9.65102 13.1531 10.0098 12.7109 10.0098H12.1914C11.969 10.4758 11.4941 10.7998 10.9434 10.7998C10.3932 10.7987 9.917 10.4758 9.69531 10.0098H4.28906C4.06666 10.4758 3.59181 10.7998 3.04102 10.7998C2.49079 10.7987 2.01468 10.4759 1.79297 10.0098H1.27441C0.833471 10.0083 0.473168 9.65014 0.472656 9.20898V5.68555C0.472656 4.80157 1.19158 4.08458 2.0752 4.08301H11.9102ZM3.0459 8.82422C2.71877 8.82446 2.45312 9.08981 2.45312 9.41699C2.45322 9.7441 2.71883 10.0095 3.0459 10.0098C3.37315 10.0097 3.63858 9.74423 3.63867 9.41699C3.63867 9.08968 3.37321 8.82424 3.0459 8.82422ZM10.9512 8.82422C10.6238 8.82422 10.3584 9.08966 10.3584 9.41699C10.3584 9.74429 10.6239 10.0098 10.9512 10.0098C11.2784 10.0097 11.5439 9.74424 11.5439 9.41699C11.5439 9.08971 11.2784 8.82429 10.9512 8.82422ZM2.06836 4.87402C1.62637 4.8745 1.26672 5.23273 1.2666 5.6748V6.84961H3.24316V4.87402H2.06836ZM4.0332 6.84961H6.4043V4.87402H4.0332V6.84961ZM7.19238 6.84961H9.56348V4.87402H7.19238V6.84961ZM10.3516 6.84961H12.7227V5.6748C12.7225 5.23243 12.3633 4.87402 11.9209 4.87402H10.3516V6.84961Z" fill="#0057FF"/>
</g>
<defs>
<clipPath id="clip0_2808_42795">
<rect width="14" height="14" fill="white"/>
</clipPath>
</defs>
</svg>
