<svg width="14" height="14" viewBox="0 0 14 14" fill="none" xmlns="http://www.w3.org/2000/svg">
<path d="M9.03418 2.84863C9.763 2.84917 10.4208 3.28814 10.7012 3.96094L11.5205 5.92773C12.1015 6.18071 12.5086 6.76051 12.5088 7.43457V10.1035H11.5498V10.582C11.5498 11.111 11.1207 11.5397 10.5918 11.54C10.0627 11.5399 9.63379 11.1111 9.63379 10.582V10.1035H4.36426V10.582C4.36426 11.111 3.93512 11.5397 3.40625 11.54C2.87713 11.54 2.44824 11.1112 2.44824 10.582V10.1035H1.49023V7.43457C1.49043 6.76162 1.89517 6.18234 2.47461 5.92871L3.2959 3.96094C3.57661 3.2881 4.23478 2.84867 4.96387 2.84863H9.03418ZM3.40625 6.75C2.87709 6.75001 2.44824 7.17884 2.44824 7.70801C2.44842 8.23702 2.8772 8.66601 3.40625 8.66602C3.93531 8.66602 4.36408 8.23703 4.36426 7.70801C4.36426 7.17884 3.93542 6.75 3.40625 6.75ZM10.5918 6.74902C10.0628 6.74914 9.63388 7.17899 9.63379 7.70801C9.63398 8.23695 10.0628 8.6659 10.5918 8.66602C11.1207 8.66584 11.5496 8.23691 11.5498 7.70801C11.5497 7.17902 11.1208 6.7492 10.5918 6.74902ZM4.96387 3.94434C4.67686 3.94438 4.41733 4.11708 4.30664 4.38184L3.71973 5.79199H10.2783L9.69043 4.38184C9.58 4.11721 9.32086 3.94487 9.03418 3.94434H4.96387Z" fill="#0057FF"/>
</svg>
