<svg width="16" height="16" viewBox="0 0 16 16" fill="none" xmlns="http://www.w3.org/2000/svg">
<path d="M10.4448 3.33398C11.1737 3.33445 11.8324 3.77339 12.1128 4.44629L13.0376 6.66602C13.7587 6.83931 14.2961 7.4875 14.2964 8.26172V11.5469H13.2007V12.0938C13.2007 12.6982 12.7103 13.1889 12.106 13.1895C11.5012 13.1895 11.0103 12.6985 11.0103 12.0938V11.5469H4.98877V12.0938C4.98877 12.6983 4.49753 13.1891 3.89307 13.1895C3.28844 13.1893 2.79834 12.6984 2.79834 12.0938V11.5469H1.70361V8.26172C1.7039 7.488 2.23905 6.83981 2.95947 6.66602L3.88525 4.44629C4.16594 3.77352 4.82421 3.3341 5.55322 3.33398H10.4448ZM3.89307 7.71387C3.28859 7.71403 2.79859 8.20414 2.79834 8.80859C2.79834 9.41326 3.28844 9.90413 3.89307 9.9043C4.49783 9.9043 4.98877 9.41336 4.98877 8.80859C4.98852 8.20404 4.49768 7.71387 3.89307 7.71387ZM12.106 7.71387C11.5014 7.71387 11.0106 8.20411 11.0103 8.80859C11.0103 9.41336 11.5012 9.9043 12.106 9.9043C12.7104 9.90393 13.2007 9.41314 13.2007 8.80859C13.2003 8.20434 12.7102 7.71423 12.106 7.71387ZM5.55322 4.42969C5.26639 4.42981 5.0077 4.60265 4.89697 4.86719L4.16748 6.61914H11.8315L11.1021 4.86719C10.9917 4.60235 10.7317 4.43015 10.4448 4.42969H5.55322Z" fill="#0057FF"/>
</svg>
