<svg width="298" height="274" viewBox="0 0 298 274" fill="none" xmlns="http://www.w3.org/2000/svg">
<g clip-path="url(#clip0_2946_6465)">
<path d="M0.712076 19.1249L0.606622 19.2835L0.789924 19.3352L0.607204 19.3889L0.714403 19.5463L0.539914 19.47L0.52085 19.6595L0.436237 19.4889L0.299831 19.6218L0.344685 19.4367L0.154762 19.4508L0.308096 19.3379L0.153524 19.2266L0.343591 19.2386L0.296695 19.054L0.434561 19.1854L0.517285 19.0139L0.53844 19.2032L0.712076 19.1249Z" fill="white"/>
<path d="M63.4836 37.9531L63.3781 38.1116L63.5614 38.1633L63.3787 38.217L63.4859 38.3744L63.3114 38.2981L63.2923 38.4876L63.2077 38.317L63.0713 38.4499L63.1162 38.2648L62.9262 38.2789L63.0796 38.166L62.925 38.0547L63.1151 38.0668L63.0682 37.8822L63.206 38.0136L63.2888 37.842L63.3099 38.0313L63.4836 37.9531Z" fill="white"/>
<path d="M25.1144 59.5937L25.009 59.7523L25.1923 59.8039L25.0095 59.8576L25.1167 60.0151L24.9423 59.9387L24.9232 60.1282L24.8386 59.9576L24.7022 60.0905L24.747 59.9054L24.5571 59.9196L24.7104 59.8066L24.5559 59.6953L24.7459 59.7074L24.699 59.5228L24.8369 59.6542L24.9196 59.4826L24.9408 59.6719L25.1144 59.5937Z" fill="white"/>
<path d="M31.0163 25.164L30.9108 25.3226L31.0941 25.3743L30.9114 25.428L31.0186 25.5854L30.8441 25.5091L30.825 25.6985L30.7404 25.5279L30.604 25.6608L30.6489 25.4757L30.459 25.4899L30.6123 25.3769L30.4577 25.2657L30.6478 25.2777L30.6009 25.0931L30.7388 25.2245L30.8215 25.053L30.8426 25.2422L31.0163 25.164Z" fill="white"/>
<path d="M12.9792 33.3593L12.8737 33.5179L13.057 33.5696L12.8743 33.6233L12.9815 33.7807L12.807 33.7044L12.7879 33.8939L12.7033 33.7232L12.5669 33.8561L12.6118 33.6711L12.4219 33.6852L12.5752 33.5722L12.4206 33.461L12.6107 33.473L12.5638 33.2884L12.7017 33.4198L12.7844 33.2483L12.8055 33.4375L12.9792 33.3593Z" fill="white"/>
<path d="M127.104 54.0234L126.999 54.182L127.182 54.2336L126.999 54.2873L127.106 54.4447L126.932 54.3684L126.913 54.5579L126.828 54.3873L126.692 54.5202L126.737 54.3351L126.547 54.3492L126.7 54.2363L126.546 54.125L126.736 54.1371L126.689 53.9525L126.827 54.0839L126.909 53.9123L126.931 54.1016L127.104 54.0234Z" fill="white"/>
<path d="M69.7135 19.9218L69.6081 20.0804L69.7914 20.1321L69.6087 20.1858L69.7159 20.3432L69.5414 20.2669L69.5223 20.4564L69.4377 20.2857L69.3013 20.4186L69.3461 20.2336L69.1562 20.2477L69.3096 20.1347L69.155 20.0235L69.3451 20.0355L69.2982 19.8509L69.436 19.9823L69.5187 19.8108L69.5399 20L69.7135 19.9218Z" fill="white"/>
<path d="M208.761 38.9374L208.656 39.096L208.839 39.1477L208.657 39.2014L208.764 39.3588L208.589 39.2825L208.57 39.472L208.486 39.3014L208.349 39.4343L208.394 39.2492L208.204 39.2633L208.357 39.1504L208.203 39.0391L208.393 39.0511L208.346 38.8665L208.484 38.9979L208.567 38.8264L208.588 39.0157L208.761 38.9374Z" fill="white"/>
<path d="M132.68 92.7187L132.574 92.8773L132.758 92.9289L132.575 92.9826L132.682 93.1401L132.508 93.0637L132.489 93.2532L132.404 93.0826L132.268 93.2155L132.312 93.0304L132.123 93.0446L132.276 92.9316L132.121 92.8203L132.311 92.8324L132.264 92.6478L132.402 92.7792L132.485 92.6076L132.506 92.7969L132.68 92.7187Z" fill="white"/>
<path d="M69.3874 66.8124L69.2819 66.971L69.4652 67.0227L69.2825 67.0764L69.3897 67.2338L69.2152 67.1575L69.1961 67.347L69.1115 67.1764L68.9751 67.3093L69.02 67.1242L68.8301 67.1383L68.9834 67.0254L68.8288 66.9141L69.0189 66.9261L68.972 66.7415L69.1099 66.8729L69.1926 66.7014L69.2137 66.8907L69.3874 66.8124Z" fill="white"/>
<path d="M66.7638 117.641L66.6584 117.799L66.8417 117.851L66.659 117.905L66.7662 118.062L66.5917 117.986L66.5726 118.175L66.488 118.004L66.3516 118.137L66.3964 117.952L66.2065 117.966L66.3599 117.853L66.2053 117.742L66.3953 117.754L66.3485 117.57L66.4863 117.701L66.569 117.53L66.5902 117.719L66.7638 117.641Z" fill="white"/>
<path d="M262.872 113.047L262.767 113.205L262.95 113.257L262.767 113.311L262.875 113.468L262.7 113.392L262.681 113.581L262.596 113.411L262.46 113.544L262.505 113.359L262.315 113.373L262.468 113.26L262.314 113.148L262.504 113.161L262.457 112.976L262.595 113.107L262.677 112.936L262.699 113.125L262.872 113.047Z" fill="white"/>
<path d="M199.252 273.75L199.147 273.909L199.33 273.96L199.147 274.014L199.254 274.171L199.08 274.095L199.061 274.284L198.976 274.114L198.84 274.247L198.885 274.062L198.695 274.076L198.848 273.963L198.694 273.852L198.884 273.864L198.837 273.679L198.975 273.81L199.057 273.639L199.078 273.828L199.252 273.75Z" fill="white"/>
<path d="M256.971 149.453L256.865 149.612L257.049 149.663L256.866 149.717L256.973 149.874L256.799 149.798L256.78 149.988L256.695 149.817L256.559 149.95L256.603 149.765L256.414 149.779L256.567 149.666L256.412 149.555L256.602 149.567L256.555 149.382L256.693 149.514L256.776 149.342L256.797 149.531L256.971 149.453Z" fill="white"/>
<path d="M167.769 123.547L167.663 123.705L167.847 123.757L167.664 123.811L167.771 123.968L167.597 123.892L167.577 124.081L167.493 123.911L167.356 124.044L167.401 123.859L167.211 123.873L167.365 123.76L167.21 123.648L167.4 123.661L167.353 123.476L167.491 123.607L167.574 123.436L167.595 123.625L167.769 123.547Z" fill="white"/>
<path d="M99.2292 247.508L99.1237 247.666L99.307 247.718L99.1243 247.772L99.2315 247.929L99.057 247.853L99.0379 248.042L98.9533 247.872L98.8169 248.005L98.8618 247.819L98.6719 247.834L98.8252 247.721L98.6706 247.609L98.8607 247.621L98.8138 247.437L98.9517 247.568L99.0344 247.397L99.0555 247.586L99.2292 247.508Z" fill="white"/>
<path d="M19.5392 210.125L19.4338 210.284L19.6171 210.335L19.4344 210.389L19.5416 210.546L19.3671 210.47L19.348 210.659L19.2634 210.489L19.127 210.622L19.1718 210.437L18.9819 210.451L19.1352 210.338L18.9807 210.227L19.1707 210.239L19.1238 210.054L19.2617 210.185L19.3444 210.014L19.3656 210.203L19.5392 210.125Z" fill="white"/>
<path d="M20.5236 96.3281L20.4181 96.4866L20.6014 96.5383L20.4187 96.592L20.5259 96.7494L20.3514 96.6731L20.3324 96.8626L20.2478 96.692L20.1114 96.8249L20.1562 96.6398L19.9663 96.6539L20.1196 96.541L19.965 96.4297L20.1551 96.4418L20.1082 96.2572L20.2461 96.3886L20.3288 96.217L20.35 96.4063L20.5236 96.3281Z" fill="white"/>
<path d="M126.12 107.148L126.014 107.307L126.198 107.359L126.015 107.412L126.122 107.57L125.948 107.493L125.929 107.683L125.844 107.512L125.708 107.645L125.752 107.46L125.562 107.474L125.716 107.361L125.561 107.25L125.751 107.262L125.704 107.077L125.842 107.209L125.925 107.037L125.946 107.227L126.12 107.148Z" fill="white"/>
<path d="M276.319 185.203L276.213 185.362L276.396 185.413L276.214 185.467L276.321 185.624L276.146 185.548L276.127 185.738L276.043 185.567L275.906 185.7L275.951 185.515L275.761 185.529L275.915 185.416L275.76 185.305L275.95 185.317L275.903 185.132L276.041 185.264L276.124 185.092L276.145 185.281L276.319 185.203Z" fill="white"/>
<path d="M232.702 225.531L232.597 225.69L232.78 225.741L232.597 225.795L232.705 225.953L232.53 225.876L232.511 226.066L232.426 225.895L232.29 226.028L232.335 225.843L232.145 225.857L232.298 225.744L232.144 225.633L232.334 225.645L232.287 225.46L232.425 225.592L232.508 225.42L232.529 225.609L232.702 225.531Z" fill="white"/>
<path d="M172.36 134.367L172.255 134.526L172.438 134.577L172.255 134.631L172.362 134.788L172.188 134.712L172.169 134.902L172.084 134.731L171.948 134.864L171.993 134.679L171.803 134.693L171.956 134.58L171.801 134.469L171.992 134.481L171.945 134.296L172.083 134.428L172.165 134.256L172.186 134.445L172.36 134.367Z" fill="white"/>
<path d="M243.525 75.0077L243.419 75.1663L243.602 75.218L243.42 75.2717L243.527 75.4291L243.352 75.3528L243.333 75.5423L243.249 75.3717L243.112 75.5046L243.157 75.3195L242.967 75.3336L243.121 75.2207L242.966 75.1094L243.156 75.1214L243.109 74.9369L243.247 75.0682L243.33 74.8967L243.351 75.086L243.525 75.0077Z" fill="white"/>
<path d="M32.0007 243.906L31.8952 244.065L32.0785 244.116L31.8958 244.17L32.003 244.328L31.8285 244.251L31.8094 244.441L31.7248 244.27L31.5884 244.403L31.6333 244.218L31.4433 244.232L31.5967 244.119L31.4421 244.008L31.6322 244.02L31.5853 243.835L31.7231 243.967L31.8059 243.795L31.827 243.984L32.0007 243.906Z" fill="white"/>
<path d="M24.13 144.859L24.0246 145.018L24.2079 145.07L24.0252 145.123L24.1324 145.281L23.9579 145.204L23.9388 145.394L23.8542 145.223L23.7178 145.356L23.7627 145.171L23.5727 145.185L23.7261 145.072L23.5715 144.961L23.7616 144.973L23.7147 144.788L23.8525 144.92L23.9353 144.748L23.9564 144.938L24.13 144.859Z" fill="white"/>
<path d="M204.827 141.25L204.722 141.409L204.905 141.46L204.722 141.514L204.83 141.671L204.655 141.595L204.636 141.784L204.551 141.614L204.415 141.747L204.46 141.562L204.27 141.576L204.423 141.463L204.269 141.352L204.459 141.364L204.412 141.179L204.55 141.31L204.633 141.139L204.654 141.328L204.827 141.25Z" fill="white"/>
<path d="M152.356 188.484L152.25 188.643L152.433 188.695L152.251 188.748L152.358 188.906L152.183 188.829L152.164 189.019L152.08 188.848L151.943 188.981L151.988 188.796L151.798 188.81L151.952 188.697L151.797 188.586L151.987 188.598L151.94 188.413L152.078 188.545L152.161 188.373L152.182 188.563L152.356 188.484Z" fill="white"/>
<path d="M187.331 211.031L187.12 211.349L187.486 211.452L187.121 211.56L187.335 211.875L186.986 211.722L186.948 212.101L186.779 211.76L186.506 212.026L186.595 211.655L186.215 211.683L186.522 211.457L186.213 211.235L186.593 211.259L186.499 210.89L186.775 211.152L186.941 210.809L186.983 211.188L187.331 211.031Z" fill="white"/>
<path d="M106.173 155.281L105.962 155.599L106.329 155.702L105.964 155.81L106.178 156.125L105.829 155.972L105.791 156.351L105.621 156.01L105.348 156.276L105.438 155.905L105.058 155.933L105.365 155.707L105.056 155.485L105.436 155.509L105.342 155.14L105.618 155.402L105.784 155.059L105.826 155.438L106.173 155.281Z" fill="white"/>
<path d="M225.872 19.5157L225.661 19.8331L226.027 19.9365L225.662 20.0439L225.876 20.3589L225.527 20.2062L225.489 20.5854L225.32 20.244L225.047 20.5099L225.136 20.1395L224.756 20.1678L225.063 19.9418L224.754 19.7192L225.134 19.7432L225.04 19.3739L225.316 19.6368L225.482 19.2936L225.524 19.6723L225.872 19.5157Z" fill="white"/>
<path d="M154.38 20.4923L154.169 20.8096L154.536 20.913L154.171 21.0205L154.385 21.3355L154.036 21.1828L153.998 21.5619L153.828 21.2205L153.556 21.4865L153.645 21.1161L153.265 21.1444L153.572 20.9184L153.263 20.6957L153.643 20.7198L153.549 20.3505L153.825 20.6134L153.991 20.2701L154.033 20.6488L154.38 20.4923Z" fill="white"/>
<path d="M294.085 212.016L293.874 212.333L294.241 212.436L293.875 212.544L294.09 212.859L293.741 212.706L293.702 213.085L293.533 212.744L293.26 213.01L293.35 212.64L292.97 212.668L293.277 212.442L292.967 212.219L293.348 212.243L293.254 211.874L293.53 212.137L293.695 211.794L293.738 212.172L294.085 212.016Z" fill="white"/>
<path d="M65.1802 204.141L64.9692 204.458L65.336 204.561L64.9704 204.669L65.1849 204.984L64.8357 204.831L64.7976 205.21L64.6283 204.869L64.3553 205.135L64.4451 204.765L64.065 204.793L64.3719 204.567L64.0626 204.344L64.4429 204.368L64.349 203.999L64.6249 204.262L64.7904 203.919L64.8328 204.297L65.1802 204.141Z" fill="white"/>
<path d="M18.2842 184.797L18.0732 185.114L18.44 185.218L18.0744 185.325L18.2889 185.64L17.9397 185.487L17.9016 185.867L17.7323 185.525L17.4593 185.791L17.5491 185.421L17.169 185.449L17.4759 185.223L17.1666 185L17.5469 185.024L17.4531 184.655L17.7289 184.918L17.8944 184.575L17.9368 184.954L18.2842 184.797Z" fill="white"/>
<path d="M2.2144 108.383L2.00339 108.7L2.37018 108.804L2.00456 108.911L2.21906 109.226L1.86991 109.073L1.83176 109.453L1.66245 109.111L1.3895 109.377L1.47925 109.007L1.09922 109.035L1.40604 108.809L1.09674 108.586L1.47706 108.61L1.38323 108.241L1.6591 108.504L1.82463 108.161L1.86696 108.539L2.2144 108.383Z" fill="white"/>
<path d="M233.713 1.33817L233.481 1.33118L233.652 1.57479L233.408 1.40635L233.417 1.63875L233.274 1.38769L233.119 1.50014L233.144 1.28391L232.896 1.2238L233.077 1.14359L232.853 0.939043L233.106 1.03238L233.01 0.779104L233.216 1.00232L233.294 0.818821L233.356 1.06746L233.571 1.03961L233.461 1.19734L233.713 1.33817Z" fill="white"/>
<path d="M294.217 84.5647L293.986 84.5577L294.156 84.8013L293.912 84.6329L293.922 84.8653L293.779 84.6142L293.623 84.7267L293.648 84.5105L293.4 84.4504L293.582 84.3702L293.357 84.1656L293.61 84.2589L293.514 84.0057L293.72 84.2289L293.798 84.0454L293.861 84.294L294.076 84.2662L293.966 84.4239L294.217 84.5647Z" fill="white"/>
<path d="M273.153 118.229L272.921 118.222L273.092 118.465L272.848 118.297L272.857 118.529L272.714 118.278L272.559 118.391L272.584 118.175L272.336 118.114L272.517 118.034L272.293 117.83L272.546 117.923L272.45 117.67L272.656 117.893L272.734 117.709L272.796 117.958L273.011 117.93L272.901 118.088L273.153 118.229Z" fill="white"/>
<path d="M219.974 28.4163L219.743 28.4093L219.913 28.6529L219.669 28.4845L219.679 28.7169L219.535 28.4658L219.38 28.5783L219.405 28.362L219.157 28.3019L219.339 28.2217L219.114 28.0172L219.367 28.1105L219.271 27.8572L219.477 28.0804L219.555 27.8969L219.618 28.1456L219.832 28.1177L219.723 28.2755L219.974 28.4163Z" fill="white"/>
<path d="M181.067 61.3929L180.836 61.3859L181.006 61.6295L180.762 61.461L180.772 61.6934L180.629 61.4424L180.473 61.5548L180.498 61.3386L180.25 61.2785L180.432 61.1983L180.207 60.9937L180.46 61.0871L180.364 60.8338L180.571 61.057L180.648 60.8735L180.711 61.1222L180.926 61.0943L180.816 61.252L181.067 61.3929Z" fill="white"/>
<path d="M290.994 179.666L290.762 179.659L290.933 179.903L290.688 179.734L290.698 179.967L290.555 179.716L290.4 179.828L290.425 179.612L290.177 179.552L290.358 179.472L290.134 179.267L290.387 179.361L290.291 179.107L290.497 179.33L290.574 179.147L290.637 179.396L290.852 179.368L290.742 179.525L290.994 179.666Z" fill="white"/>
<path d="M125.913 189.893L125.682 189.886L125.853 190.129L125.608 189.961L125.618 190.193L125.475 189.942L125.319 190.055L125.344 189.839L125.096 189.778L125.278 189.698L125.053 189.494L125.307 189.587L125.211 189.334L125.417 189.557L125.494 189.374L125.557 189.622L125.772 189.594L125.662 189.752L125.913 189.893Z" fill="white"/>
<path d="M62.3285 73.4397L62.0972 73.4327L62.2677 73.6763L62.0233 73.5079L62.0331 73.7403L61.89 73.4892L61.7345 73.6017L61.7595 73.3855L61.5115 73.3254L61.693 73.2452L61.4685 73.0406L61.7216 73.1339L61.6256 72.8807L61.8318 73.1039L61.9094 72.9204L61.9722 73.169L62.1869 73.1412L62.077 73.2989L62.3285 73.4397Z" fill="white"/>
<path d="M255.54 121.026L255.309 121.019L255.48 121.262L255.235 121.094L255.245 121.326L255.102 121.075L254.946 121.188L254.971 120.971L254.723 120.911L254.905 120.831L254.68 120.627L254.933 120.72L254.838 120.467L255.044 120.69L255.121 120.506L255.184 120.755L255.399 120.727L255.289 120.885L255.54 121.026Z" fill="white"/>
<path d="M288.527 192.502L288.295 192.495L288.466 192.739L288.222 192.57L288.231 192.803L288.088 192.552L287.933 192.664L287.958 192.448L287.71 192.388L287.891 192.308L287.667 192.103L287.92 192.196L287.824 191.943L288.03 192.166L288.108 191.983L288.17 192.232L288.385 192.204L288.275 192.361L288.527 192.502Z" fill="white"/>
<path d="M52.5209 111.401L52.2896 111.394L52.4601 111.637L52.2157 111.469L52.2255 111.701L52.0824 111.45L51.9268 111.563L51.9519 111.346L51.7038 111.286L51.8854 111.206L51.6609 111.002L51.9139 111.095L51.818 110.842L52.0242 111.065L52.1017 110.881L52.1646 111.13L52.3793 111.102L52.2694 111.26L52.5209 111.401Z" fill="white"/>
<path d="M113.661 32.4788L113.43 32.4718L113.6 32.7154L113.356 32.547L113.366 32.7794L113.223 32.5283L113.067 32.6408L113.092 32.4245L112.844 32.3644L113.026 32.2842L112.801 32.0797L113.054 32.173L112.958 31.9197L113.164 32.1429L113.242 31.9594L113.305 32.2081L113.519 32.1802L113.41 32.338L113.661 32.4788Z" fill="white"/>
<path d="M227.667 208.166L227.436 208.159L227.607 208.403L227.362 208.234L227.372 208.467L227.229 208.216L227.073 208.328L227.098 208.112L226.85 208.052L227.032 207.972L226.807 207.767L227.06 207.861L226.964 207.607L227.171 207.83L227.248 207.647L227.311 207.896L227.526 207.868L227.416 208.025L227.667 208.166Z" fill="white"/>
<path d="M251.23 263.622L250.767 263.608L251.108 264.096L250.619 263.759L250.639 264.224L250.352 263.721L250.041 263.946L250.091 263.514L249.595 263.393L249.958 263.233L249.509 262.823L250.015 263.01L249.823 262.503L250.236 262.95L250.391 262.583L250.517 263.08L250.947 263.025L250.727 263.34L251.23 263.622Z" fill="white"/>
<path d="M198.973 132.52L198.51 132.507L198.851 132.994L198.362 132.657L198.382 133.122L198.096 132.62L197.784 132.845L197.834 132.412L197.338 132.292L197.701 132.131L197.252 131.722L197.758 131.909L197.567 131.402L197.979 131.848L198.134 131.481L198.26 131.979L198.69 131.923L198.47 132.239L198.973 132.52Z" fill="white"/>
<path d="M118.115 120.77L117.652 120.757L117.993 121.244L117.504 120.907L117.524 121.372L117.238 120.87L116.926 121.095L116.977 120.662L116.48 120.542L116.843 120.381L116.394 119.972L116.901 120.159L116.709 119.652L117.121 120.098L117.276 119.731L117.402 120.229L117.832 120.173L117.612 120.489L118.115 120.77Z" fill="white"/>
<path d="M32.6121 181.817L32.1493 181.803L32.4905 182.291L32.0015 181.954L32.0211 182.419L31.7347 181.916L31.4235 182.141L31.4736 181.709L30.9773 181.589L31.3405 181.428L30.8912 181.019L31.3977 181.205L31.2057 180.699L31.6183 181.145L31.7734 180.778L31.8992 181.276L32.3289 181.22L32.1089 181.536L32.6121 181.817Z" fill="white"/>
<path d="M78.8215 54.1064L78.3588 54.0925L78.7 54.5799L78.211 54.2429L78.2306 54.7079L77.9442 54.2055L77.633 54.4305L77.6831 53.9979L77.1867 53.8776L77.55 53.7171L77.1007 53.3078L77.6071 53.4946L77.4151 52.9878L77.8277 53.4344L77.9829 53.0672L78.1086 53.5648L78.5383 53.509L78.3184 53.8247L78.8215 54.1064Z" fill="white"/>
<path d="M2.16432 122.614L1.70157 122.6L2.04278 123.088L1.55378 122.751L1.57337 123.216L1.28693 122.713L0.975724 122.938L1.02588 122.506L0.529498 122.385L0.892773 122.225L0.443482 121.816L0.949898 122.002L0.757923 121.496L1.17052 121.942L1.32569 121.575L1.45141 122.073L1.88112 122.017L1.66114 122.332L2.16432 122.614Z" fill="white"/>
<path d="M248.827 84.7383C249.482 85.8464 248.216 87.0914 247.119 86.4188L232.443 77.4233C231.735 76.9893 230.809 77.364 230.602 78.1682L226.312 94.8385C225.992 96.0849 224.217 96.0704 223.916 94.8189L219.9 78.0807C219.706 77.2732 218.786 76.8835 218.071 77.3058L203.25 86.0602C202.142 86.7147 200.897 85.4492 201.57 84.352L210.565 69.6761C210.999 68.9682 210.625 68.0422 209.82 67.8353L193.15 63.5456C191.904 63.2249 191.918 61.4497 193.17 61.1494L209.908 57.1328C210.715 56.9391 211.105 56.0194 210.683 55.3044L201.928 40.4835C201.274 39.3754 202.539 38.1304 203.637 38.803L218.313 47.7985C219.021 48.2325 219.946 47.8578 220.153 47.0536L224.443 30.3833C224.764 29.1369 226.539 29.1514 226.839 30.4029L230.856 47.1411C231.05 47.9485 231.969 48.3383 232.684 47.916L247.505 39.1616C248.613 38.5071 249.858 39.7725 249.186 40.8698L240.19 55.5456C239.756 56.2536 240.131 57.1795 240.935 57.3865L257.605 61.6762C258.852 61.9969 258.837 63.772 257.586 64.0723L240.848 68.0889C240.04 68.2827 239.65 69.2024 240.073 69.9173L248.827 84.7383Z" fill="url(#paint0_linear_2946_6465)"/>
<path d="M56.3296 255.237C57.118 256.572 55.5938 258.071 54.2722 257.261L36.5959 246.427C35.7431 245.904 34.6279 246.355 34.3787 247.324L29.2119 267.402C28.8256 268.904 26.6876 268.886 26.3259 267.379L21.4881 247.218C21.2547 246.246 20.147 245.776 19.2858 246.285L1.43471 256.829C0.100064 257.618 -1.39942 256.094 -0.589354 254.772L10.2453 237.096C10.768 236.243 10.3167 235.128 9.34809 234.878L-10.7305 229.712C-12.2317 229.325 -12.2142 227.187 -10.7069 226.826L9.45347 221.988C10.426 221.754 10.8955 220.647 10.3868 219.786L-0.157419 201.934C-0.945763 200.6 0.578423 199.1 1.90001 199.91L19.5764 210.745C20.4291 211.268 21.5443 210.816 21.7936 209.848L26.9603 189.769C27.3466 188.268 29.4847 188.286 29.8464 189.793L34.6842 209.953C34.9175 210.926 36.0252 211.395 36.8864 210.887L54.7375 200.342C56.0722 199.554 57.5716 201.078 56.7616 202.4L45.9269 220.076C45.4042 220.929 45.8555 222.044 46.8241 222.293L66.9027 227.46C68.4039 227.846 68.3864 229.984 66.8791 230.346L46.7188 235.184C45.7462 235.417 45.2767 236.525 45.7854 237.386L56.3296 255.237Z" fill="url(#paint1_linear_2946_6465)"/>
<g clip-path="url(#clip1_2946_6465)">
<g filter="url(#filter0_ii_2946_6465)">
<path d="M125.565 78.752C125.838 77.2069 127.348 76.2301 128.878 76.5781C142.635 79.7109 148.937 85.6401 151.283 90.0664C152.165 91.7313 150.638 93.2863 148.754 93.3193C146.225 93.3635 144.134 93.8235 142.532 94.4014C143.968 95.9951 146.571 99.2313 149.18 103.237C158.585 104.058 169.72 109.48 175.258 112.748C175.94 113.151 176.809 113.042 177.372 112.485C185.86 104.099 193.584 101.202 197.129 100.673C197.62 100.6 198.109 100.792 198.41 101.188C202.368 106.388 202.503 119.548 201.803 129.1C201.678 130.809 204.479 132.214 206.055 131.539C208.825 130.353 211.684 130.225 213.473 130.429C213.829 130.469 214.161 130.642 214.379 130.927C219.013 136.99 210.769 154.419 204.11 165.74C203.634 166.55 204.014 167.559 204.699 168.427L205.898 168.351C209.469 168.124 210.877 172.89 207.756 174.64L189.977 184.605C188.331 185.527 186.31 184.905 185.419 183.353C170.922 185.607 144.43 190.733 131.767 193.394C131.686 193.411 131.605 193.421 131.522 193.426C130.28 193.499 129.09 193.547 127.949 193.576L127.921 193.806C127.648 195.955 125.444 197.289 123.414 196.534L103.907 189.283C100.575 188.044 101.195 183.155 104.73 182.787L106.011 182.653C106.783 181.727 106.838 180.16 105.804 179.442C92.0396 169.892 87.232 157.249 86.3984 150.714C86.3075 150 86.7316 149.329 87.417 149.109C90.4064 148.153 93.4476 148.152 95.8906 148.489C97.4014 148.698 98.8955 147.018 98.3359 145.6C93.0388 132.184 93.2629 121.259 94.3125 116.176C94.474 115.394 95.2115 114.896 96.0029 115.003C104.793 116.197 115.573 121.357 121.428 124.664C122.383 125.204 123.607 124.734 124.037 123.725C127.018 116.734 134.133 109.795 139.744 105.793C138.598 103.021 137.273 100.113 135.867 97.5654C133.907 98.5518 132.262 99.7172 130.934 100.872C129.093 102.471 125.802 102.083 125.326 99.6924C123.887 92.4531 124.621 84.0996 125.565 78.752Z" fill="#F57979"/>
</g>
<g filter="url(#filter1_n_2946_6465)">
<ellipse cx="144.689" cy="136.379" rx="85.6739" ry="76.3945" transform="rotate(-9.05149 144.689 136.379)" fill="url(#paint2_linear_2946_6465)" fill-opacity="0.9"/>
<path d="M132.774 61.5886C179.213 54.1906 222.073 81.7675 228.643 123.005C235.212 164.242 203.042 203.771 156.603 211.169C110.164 218.567 67.3037 190.99 60.7344 149.753C54.1651 108.516 86.3351 68.9866 132.774 61.5886Z" stroke="url(#paint3_linear_2946_6465)" stroke-width="1.32263"/>
</g>
<g filter="url(#filter2_ii_2946_6465)">
<path d="M136.274 221.674L130.913 213.74C129.655 211.878 130.347 209.329 132.417 208.454C152.356 200.02 175.926 197.534 187.782 197.242C189.913 197.189 191.543 199.034 191.341 201.156L190.517 209.807C190.357 211.484 189.075 212.836 187.411 213.1C164.676 216.709 147.986 221.153 140.18 223.168C138.691 223.552 137.135 222.949 136.274 221.674Z" fill="#8C3E3E"/>
</g>
<circle cx="162.325" cy="208.009" r="2.57178" fill="#CFD7F7"/>
<circle cx="146.158" cy="211.681" r="2.57178" fill="#CFD7F7"/>
<circle cx="178.489" cy="205.806" r="2.57178" fill="#CFD7F7"/>
<g filter="url(#filter3_g_2946_6465)">
<ellipse cx="140.194" cy="149.82" rx="12.6857" ry="11.2213" transform="rotate(-7.75815 140.194 149.82)" fill="white"/>
</g>
<g filter="url(#filter4_g_2946_6465)">
<ellipse cx="140.831" cy="149.609" rx="8.59795" ry="7.84953" transform="rotate(-7.75815 140.831 149.609)" fill="black"/>
</g>
<g filter="url(#filter5_g_2946_6465)">
<ellipse cx="175.175" cy="146.315" rx="11.454" ry="11.2213" transform="rotate(-7.75815 175.175 146.315)" fill="white"/>
</g>
<ellipse cx="158.833" cy="155.614" rx="3.67398" ry="2.93918" transform="rotate(-3.98844 158.833 155.614)" fill="#FF581D"/>
<path d="M154.228 160.133L154.714 160.814C155.517 161.938 156.959 162.407 158.269 161.97V161.97" stroke="#852A0A" stroke-width="1.17567" stroke-linecap="round"/>
<g filter="url(#filter6_g_2946_6465)">
<ellipse cx="175.236" cy="146.016" rx="8.45178" ry="7.95655" transform="rotate(-7.75815 175.236 146.016)" fill="black"/>
</g>
<path opacity="0.8" d="M101.585 98.1996L87.2226 119.78C84.0964 124.477 78.2485 129.674 73.9401 126.03C71.2825 123.783 71.2888 119.535 71.9337 116.765C73.323 111.83 79.0889 99.8238 91.0373 91.2844C98.2347 86.1405 101.844 86.4856 103.476 88.5267C105.695 91.3035 103.555 95.2402 101.585 98.1996Z" fill="url(#paint4_linear_2946_6465)"/>
<path opacity="0.89" d="M70.328 132.711C77.382 128.008 77.676 138.589 76.9412 144.468C76.0593 147.701 72.165 145.815 70.328 144.468C67.3888 142.508 63.274 137.414 70.328 132.711Z" fill="url(#paint5_linear_2946_6465)"/>
<circle cx="141.396" cy="149.482" r="0.943106" fill="white"/>
<circle cx="175.347" cy="145.709" r="0.943106" fill="white"/>
<g filter="url(#filter7_i_2946_6465)">
<path d="M61.8291 173.666C69.5876 168.148 71.0176 159.163 70.6296 153.204C70.5288 151.657 72.0583 150.376 73.4195 151.118C85.0504 157.459 87.0526 171.181 86.4939 177.741L88.692 174.098C89.3605 172.99 90.898 172.835 91.6582 173.882C96.0796 179.974 100.291 191.691 90.2007 202.362C83.3547 209.601 75.8083 209.964 69.7537 208.028C62.8141 205.809 57.6738 199.626 56.0543 192.523C54.6372 186.308 55.2693 179.039 61.8291 173.666Z" fill="url(#paint6_linear_2946_6465)"/>
</g>
<g filter="url(#filter8_i_2946_6465)">
<path d="M199.9 78.715C205.013 74.4496 205.526 68.1073 204.935 63.9731C204.781 62.8998 205.779 61.9245 206.768 62.3687C215.219 66.1643 217.354 75.6246 217.318 80.2285L218.654 77.5697C219.061 76.7611 220.124 76.5706 220.711 77.2599C224.122 81.2694 227.689 89.2131 221.227 97.1964C216.843 102.613 211.601 103.272 207.275 102.248C202.317 101.075 198.4 97.0399 196.888 92.1741C195.566 87.9164 195.615 82.8141 199.9 78.715Z" fill="url(#paint7_linear_2946_6465)"/>
</g>
<path d="M68.0888 187.227C72.3852 184.171 73.1771 179.195 72.9622 175.895C72.9064 175.038 73.7534 174.329 74.5071 174.74C80.9479 178.252 82.0566 185.85 81.7473 189.483L82.9645 187.465C83.3347 186.852 84.1861 186.766 84.607 187.346C87.0554 190.719 89.3877 197.208 83.7999 203.117C80.0089 207.126 75.83 207.327 72.4772 206.255C68.6343 205.026 65.7878 201.602 64.891 197.669C64.1063 194.227 64.4563 190.202 68.0888 187.227Z" fill="url(#paint8_linear_2946_6465)"/>
<path d="M204.995 87.834C207.826 85.472 208.11 81.9599 207.783 79.6705C207.698 79.0762 208.25 78.5361 208.798 78.7821C213.478 80.884 214.66 86.1227 214.64 88.6721L215.38 87.1998C215.605 86.752 216.194 86.6465 216.519 87.0283C218.408 89.2485 220.383 93.6474 216.805 98.0682C214.377 101.068 211.474 101.433 209.079 100.866C206.333 100.216 204.164 97.9816 203.327 95.2871C202.595 92.9294 202.622 90.1039 204.995 87.834Z" fill="url(#paint9_linear_2946_6465)"/>
<path d="M171.271 145.623L174.106 146.35C174.14 146.359 174.171 146.377 174.196 146.402C174.222 146.426 174.241 146.457 174.251 146.491L175.114 149.364C175.128 149.408 175.155 149.445 175.191 149.472C175.227 149.498 175.271 149.512 175.315 149.511C175.359 149.51 175.402 149.494 175.437 149.465C175.471 149.437 175.496 149.397 175.507 149.353L176.209 146.437C176.217 146.402 176.235 146.37 176.259 146.344C176.283 146.318 176.313 146.299 176.346 146.288L179.137 145.404C179.179 145.391 179.216 145.363 179.241 145.326C179.267 145.289 179.28 145.244 179.279 145.198C179.278 145.153 179.262 145.109 179.234 145.073C179.207 145.037 179.168 145.012 179.125 145L176.29 144.274C176.256 144.265 176.225 144.247 176.2 144.222C176.174 144.198 176.155 144.167 176.145 144.132L175.282 141.26C175.268 141.216 175.241 141.178 175.205 141.152C175.169 141.125 175.125 141.112 175.081 141.113C175.037 141.114 174.994 141.13 174.959 141.159C174.925 141.187 174.9 141.227 174.889 141.271L174.187 144.187C174.178 144.222 174.161 144.254 174.137 144.28C174.113 144.306 174.083 144.325 174.05 144.336L171.259 145.219C171.217 145.233 171.18 145.261 171.155 145.298C171.129 145.335 171.116 145.38 171.117 145.426C171.118 145.471 171.134 145.515 171.162 145.551C171.189 145.587 171.228 145.612 171.271 145.623Z" fill="white"/>
<path d="M137.271 149.623L140.106 150.35C140.14 150.359 140.171 150.377 140.196 150.402C140.222 150.426 140.241 150.457 140.251 150.491L141.114 153.364C141.128 153.408 141.155 153.445 141.191 153.472C141.227 153.498 141.271 153.512 141.315 153.511C141.359 153.51 141.402 153.494 141.437 153.465C141.471 153.437 141.496 153.397 141.507 153.353L142.209 150.437C142.217 150.402 142.235 150.37 142.259 150.344C142.283 150.318 142.313 150.299 142.346 150.288L145.137 149.404C145.179 149.391 145.216 149.363 145.241 149.326C145.267 149.289 145.28 149.244 145.279 149.198C145.278 149.153 145.262 149.109 145.234 149.073C145.207 149.037 145.168 149.012 145.125 149L142.29 148.274C142.256 148.265 142.225 148.247 142.2 148.222C142.174 148.198 142.155 148.167 142.145 148.132L141.282 145.26C141.268 145.216 141.241 145.178 141.205 145.152C141.169 145.125 141.125 145.112 141.081 145.113C141.037 145.114 140.994 145.13 140.959 145.159C140.925 145.187 140.9 145.227 140.889 145.271L140.187 148.187C140.178 148.222 140.161 148.254 140.137 148.28C140.113 148.306 140.083 148.325 140.05 148.336L137.259 149.219C137.217 149.233 137.18 149.261 137.155 149.298C137.129 149.335 137.116 149.38 137.117 149.426C137.118 149.471 137.134 149.515 137.162 149.551C137.189 149.587 137.228 149.612 137.271 149.623Z" fill="white"/>
</g>
</g>
<defs>
<filter id="filter0_ii_2946_6465" x="79.7731" y="76.5078" width="135.957" height="121.712" filterUnits="userSpaceOnUse" color-interpolation-filters="sRGB">
<feFlood flood-opacity="0" result="BackgroundImageFix"/>
<feBlend mode="normal" in="SourceGraphic" in2="BackgroundImageFix" result="shape"/>
<feColorMatrix in="SourceAlpha" type="matrix" values="0 0 0 0 0 0 0 0 0 0 0 0 0 0 0 0 0 0 127 0" result="hardAlpha"/>
<feOffset dx="-6.61316" dy="1.46959"/>
<feGaussianBlur stdDeviation="5.47422"/>
<feComposite in2="hardAlpha" operator="arithmetic" k2="-1" k3="1"/>
<feColorMatrix type="matrix" values="0 0 0 0 1 0 0 0 0 0.912766 0 0 0 0 0.792818 0 0 0 0.8 0"/>
<feBlend mode="normal" in2="shape" result="effect1_innerShadow_2946_6465"/>
<feColorMatrix in="SourceAlpha" type="matrix" values="0 0 0 0 0 0 0 0 0 0 0 0 0 0 0 0 0 0 127 0" result="hardAlpha"/>
<feOffset dx="-0.734795" dy="0.734795"/>
<feGaussianBlur stdDeviation="0.367398"/>
<feComposite in2="hardAlpha" operator="arithmetic" k2="-1" k3="1"/>
<feColorMatrix type="matrix" values="0 0 0 0 0.871206 0 0 0 0 1 0 0 0 0 0.997853 0 0 0 0.5 0"/>
<feBlend mode="normal" in2="effect1_innerShadow_2946_6465" result="effect2_innerShadow_2946_6465"/>
</filter>
<filter id="filter1_n_2946_6465" x="59.2212" y="59.7266" width="170.935" height="153.305" filterUnits="userSpaceOnUse" color-interpolation-filters="sRGB">
<feFlood flood-opacity="0" result="BackgroundImageFix"/>
<feBlend mode="normal" in="SourceGraphic" in2="BackgroundImageFix" result="shape"/>
<feTurbulence type="fractalNoise" baseFrequency="0.14176283776760101 0.14176283776760101" stitchTiles="stitch" numOctaves="3" result="noise" seed="1999" />
<feColorMatrix in="noise" type="luminanceToAlpha" result="alphaNoise" />
<feComponentTransfer in="alphaNoise" result="coloredNoise1">
<feFuncA type="discrete" tableValues="1 1 1 1 1 1 1 1 1 1 1 1 1 1 1 1 1 1 1 1 1 1 1 1 1 1 1 1 1 1 1 1 1 1 1 1 1 1 1 1 1 1 1 1 1 1 1 1 1 1 1 0 0 0 0 0 0 0 0 0 0 0 0 0 0 0 0 0 0 0 0 0 0 0 0 0 0 0 0 0 0 0 0 0 0 0 0 0 0 0 0 0 0 0 0 0 0 0 0 0 "/>
</feComponentTransfer>
<feComposite operator="in" in2="shape" in="coloredNoise1" result="noise1Clipped" />
<feFlood flood-color="rgba(0, 0, 0, 0.08)" result="color1Flood" />
<feComposite operator="in" in2="noise1Clipped" in="color1Flood" result="color1" />
<feMerge result="effect1_noise_2946_6465">
<feMergeNode in="shape" />
<feMergeNode in="color1" />
</feMerge>
</filter>
<filter id="filter2_ii_2946_6465" x="122.495" y="197.242" width="68.863" height="27.5087" filterUnits="userSpaceOnUse" color-interpolation-filters="sRGB">
<feFlood flood-opacity="0" result="BackgroundImageFix"/>
<feBlend mode="normal" in="SourceGraphic" in2="BackgroundImageFix" result="shape"/>
<feColorMatrix in="SourceAlpha" type="matrix" values="0 0 0 0 0 0 0 0 0 0 0 0 0 0 0 0 0 0 127 0" result="hardAlpha"/>
<feOffset dx="-8.08275" dy="1.46959"/>
<feGaussianBlur stdDeviation="3.89442"/>
<feComposite in2="hardAlpha" operator="arithmetic" k2="-1" k3="1"/>
<feColorMatrix type="matrix" values="0 0 0 0 0.869328 0 0 0 0 0.719989 0 0 0 0 1 0 0 0 0.2 0"/>
<feBlend mode="normal" in2="shape" result="effect1_innerShadow_2946_6465"/>
<feColorMatrix in="SourceAlpha" type="matrix" values="0 0 0 0 0 0 0 0 0 0 0 0 0 0 0 0 0 0 127 0" result="hardAlpha"/>
<feOffset dx="-0.734795"/>
<feGaussianBlur stdDeviation="0.367398"/>
<feComposite in2="hardAlpha" operator="arithmetic" k2="-1" k3="1"/>
<feColorMatrix type="matrix" values="0 0 0 0 0.858824 0 0 0 0 0.976471 0 0 0 0 0.984314 0 0 0 0.2 0"/>
<feBlend mode="normal" in2="effect1_innerShadow_2946_6465" result="effect2_innerShadow_2946_6465"/>
</filter>
<filter id="filter3_g_2946_6465" x="127.165" y="138.203" width="26.0585" height="23.2348" filterUnits="userSpaceOnUse" color-interpolation-filters="sRGB">
<feFlood flood-opacity="0" result="BackgroundImageFix"/>
<feBlend mode="normal" in="SourceGraphic" in2="BackgroundImageFix" result="shape"/>
<feTurbulence type="fractalNoise" baseFrequency="1.5121370553970337 1.5121370553970337" numOctaves="3" seed="3511" />
<feDisplacementMap in="shape" scale="0.73479515314102173" xChannelSelector="R" yChannelSelector="G" result="displacedImage" width="100%" height="100%" />
<feMerge result="effect1_texture_2946_6465">
<feMergeNode in="displacedImage"/>
</feMerge>
</filter>
<filter id="filter4_g_2946_6465" x="132.004" y="141.501" width="17.654" height="16.217" filterUnits="userSpaceOnUse" color-interpolation-filters="sRGB">
<feFlood flood-opacity="0" result="BackgroundImageFix"/>
<feBlend mode="normal" in="SourceGraphic" in2="BackgroundImageFix" result="shape"/>
<feTurbulence type="fractalNoise" baseFrequency="2.3023483753204346 2.3023483753204346" numOctaves="3" seed="3511" />
<feDisplacementMap in="shape" scale="0.48259910941123962" xChannelSelector="R" yChannelSelector="G" result="displacedImage" width="100%" height="100%" />
<feMerge result="effect1_texture_2946_6465">
<feMergeNode in="displacedImage"/>
</feMerge>
</filter>
<filter id="filter5_g_2946_6465" x="163.356" y="134.719" width="23.6371" height="23.1879" filterUnits="userSpaceOnUse" color-interpolation-filters="sRGB">
<feFlood flood-opacity="0" result="BackgroundImageFix"/>
<feBlend mode="normal" in="SourceGraphic" in2="BackgroundImageFix" result="shape"/>
<feTurbulence type="fractalNoise" baseFrequency="1.5121370553970337 1.5121370553970337" numOctaves="3" seed="3511" />
<feDisplacementMap in="shape" scale="0.73479515314102173" xChannelSelector="R" yChannelSelector="G" result="displacedImage" width="100%" height="100%" />
<feMerge result="effect1_texture_2946_6465">
<feMergeNode in="displacedImage"/>
</feMerge>
</filter>
<filter id="filter6_g_2946_6465" x="166.551" y="137.806" width="17.3708" height="16.4201" filterUnits="userSpaceOnUse" color-interpolation-filters="sRGB">
<feFlood flood-opacity="0" result="BackgroundImageFix"/>
<feBlend mode="normal" in="SourceGraphic" in2="BackgroundImageFix" result="shape"/>
<feTurbulence type="fractalNoise" baseFrequency="2.3023483753204346 2.3023483753204346" numOctaves="3" seed="3511" />
<feDisplacementMap in="shape" scale="0.48259910941123962" xChannelSelector="R" yChannelSelector="G" result="displacedImage" width="100%" height="100%" />
<feMerge result="effect1_texture_2946_6465">
<feMergeNode in="displacedImage"/>
</feMerge>
</filter>
<filter id="filter7_i_2946_6465" x="55.4307" y="150.898" width="40.9883" height="58.1328" filterUnits="userSpaceOnUse" color-interpolation-filters="sRGB">
<feFlood flood-opacity="0" result="BackgroundImageFix"/>
<feBlend mode="normal" in="SourceGraphic" in2="BackgroundImageFix" result="shape"/>
<feColorMatrix in="SourceAlpha" type="matrix" values="0 0 0 0 0 0 0 0 0 0 0 0 0 0 0 0 0 0 127 0" result="hardAlpha"/>
<feOffset/>
<feGaussianBlur stdDeviation="6.43636"/>
<feComposite in2="hardAlpha" operator="arithmetic" k2="-1" k3="1"/>
<feColorMatrix type="matrix" values="0 0 0 0 1 0 0 0 0 0.479511 0 0 0 0 0.479511 0 0 0 1 0"/>
<feBlend mode="normal" in2="shape" result="effect1_innerShadow_2946_6465"/>
</filter>
<filter id="filter8_i_2946_6465" x="196.126" y="62.2578" width="28.6934" height="40.3984" filterUnits="userSpaceOnUse" color-interpolation-filters="sRGB">
<feFlood flood-opacity="0" result="BackgroundImageFix"/>
<feBlend mode="normal" in="SourceGraphic" in2="BackgroundImageFix" result="shape"/>
<feColorMatrix in="SourceAlpha" type="matrix" values="0 0 0 0 0 0 0 0 0 0 0 0 0 0 0 0 0 0 127 0" result="hardAlpha"/>
<feOffset/>
<feGaussianBlur stdDeviation="4.50128"/>
<feComposite in2="hardAlpha" operator="arithmetic" k2="-1" k3="1"/>
<feColorMatrix type="matrix" values="0 0 0 0 1 0 0 0 0 0.479511 0 0 0 0 0.479511 0 0 0 1 0"/>
<feBlend mode="normal" in2="shape" result="effect1_innerShadow_2946_6465"/>
</filter>
<linearGradient id="paint0_linear_2946_6465" x1="216.032" y1="4.4242" x2="229.106" y2="107.111" gradientUnits="userSpaceOnUse">
<stop stop-color="#9CCFFF"/>
<stop offset="1" stop-color="#A7B3FF" stop-opacity="0"/>
</linearGradient>
<linearGradient id="paint1_linear_2946_6465" x1="16.8296" y1="158.503" x2="32.5769" y2="282.184" gradientUnits="userSpaceOnUse">
<stop stop-color="#9CCFFF"/>
<stop offset="1" stop-color="#A7B3FF" stop-opacity="0"/>
</linearGradient>
<linearGradient id="paint2_linear_2946_6465" x1="229.277" y1="114.5" x2="75.6602" y2="179.687" gradientUnits="userSpaceOnUse">
<stop stop-color="#FFB2B2" stop-opacity="0.2"/>
<stop offset="1" stop-color="white" stop-opacity="0"/>
</linearGradient>
<linearGradient id="paint3_linear_2946_6465" x1="61.6567" y1="84.083" x2="123.747" y2="217.93" gradientUnits="userSpaceOnUse">
<stop stop-color="#8C3E3E"/>
<stop offset="0.586538" stop-color="#CEB484"/>
<stop offset="1" stop-color="#8F5B5B"/>
</linearGradient>
<linearGradient id="paint4_linear_2946_6465" x1="80.7553" y1="97.1185" x2="120.595" y2="151.51" gradientUnits="userSpaceOnUse">
<stop stop-color="#FFD9D9"/>
<stop offset="0.440397" stop-color="#FFD9D9" stop-opacity="0"/>
</linearGradient>
<linearGradient id="paint5_linear_2946_6465" x1="66.4331" y1="132.892" x2="81.8737" y2="136.047" gradientUnits="userSpaceOnUse">
<stop stop-color="#FFD9D9"/>
<stop offset="1" stop-color="#FFD9D9" stop-opacity="0"/>
</linearGradient>
<linearGradient id="paint6_linear_2946_6465" x1="75.709" y1="149.594" x2="76.0475" y2="209.03" gradientUnits="userSpaceOnUse">
<stop stop-color="#FD8A3C"/>
<stop offset="1" stop-color="#FDD85B"/>
</linearGradient>
<linearGradient id="paint7_linear_2946_6465" x1="208.282" y1="61.1829" x2="211.718" y2="102.608" gradientUnits="userSpaceOnUse">
<stop stop-color="#FD8A3C"/>
<stop offset="1" stop-color="#FDD85B"/>
</linearGradient>
<linearGradient id="paint8_linear_2946_6465" x1="75.775" y1="173.896" x2="73.7091" y2="216.431" gradientUnits="userSpaceOnUse">
<stop stop-color="#FFEAC5"/>
<stop offset="1" stop-color="#FEF973"/>
</linearGradient>
<linearGradient id="paint9_linear_2946_6465" x1="209.637" y1="78.1254" x2="210.485" y2="107.895" gradientUnits="userSpaceOnUse">
<stop stop-color="#FFEAC5"/>
<stop offset="1" stop-color="#FEF973"/>
</linearGradient>
<clipPath id="clip0_2946_6465">
<rect width="298" height="274" fill="white"/>
</clipPath>
<clipPath id="clip1_2946_6465">
<rect width="225.289" height="165.764" fill="white" transform="translate(29.166 58)"/>
</clipPath>
</defs>
</svg>
