<svg width="82" height="35" viewBox="0 0 82 35" fill="none" xmlns="http://www.w3.org/2000/svg">
<g clip-path="url(#clip0_2048_5087)">
<path d="M35.313 12.3349C31.2489 10.7264 27.1442 10.8976 26.1034 12.7813C25.0525 14.6799 26.5827 19.1755 29.4715 22.9082C32.3604 26.6385 36.4434 26.5165 38.6964 22.4422C40.9133 18.3796 39.366 13.9383 35.313 12.3349Z" fill="#FF9700"/>
<path d="M14.646 13.6352C18.2516 16.1083 22.2907 16.856 23.7215 15.2516C25.1653 13.6352 24.6671 8.91221 22.6757 4.63054C20.6843 0.351193 16.6775 -0.439611 13.5812 3.02944C10.5232 6.49524 11.05 11.1691 14.646 13.6352Z" fill="#006ECD"/>
<path d="M27.5693 26.654C26.9916 22.306 24.8454 18.7878 22.7006 18.791C20.5373 18.7929 17.3707 22.3223 15.5286 26.6726C13.6884 31.0216 15.781 34.5449 20.4218 34.5398C25.034 34.5078 28.1456 30.99 27.5693 26.654Z" fill="#EF151E"/>
<path d="M11.1092 15.3507C10.374 15.3507 9.879 15.806 9.879 16.4835V17.1657H11.6259C11.6259 17.1657 11.6841 22.9538 11.618 23.5604C11.552 24.167 11.3985 25.1541 10.3185 25.6715C9.38682 26.118 9.3674 26.5408 9.30825 26.9162C9.23107 27.4035 9.32211 27.4652 9.67519 27.3784C11.063 27.0369 12.5405 26.4777 13.2878 25.0993C13.6935 24.3512 13.8557 23.5409 13.8557 22.3111V17.1653C14.5956 17.1569 15.1294 16.6831 15.1294 16.0324V15.3507H11.1092ZM9.1673 23.1548C9.1673 23.1548 7.76608 25.1726 5.04452 25.1726C2.237 25.1726 0.12085 23.0142 0.12085 20.1512C0.12085 17.2502 2.237 15.0625 5.04452 15.0625C7.71663 15.0625 9.13171 17.0799 9.13171 17.0799C9.13171 17.0799 8.3835 17.8841 7.66533 17.8841C7.31503 17.8841 7.05299 17.7213 6.74983 17.5338C6.34453 17.2822 5.88423 16.9973 5.04498 16.9973C3.44874 16.9973 2.15012 18.4118 2.15012 20.1512C2.15012 21.854 3.44874 23.2393 5.04498 23.2393C5.99238 23.2393 6.43742 22.9664 6.83024 22.726C7.10937 22.5547 7.37326 22.3928 7.75499 22.3928C8.56374 22.3928 9.1673 23.1548 9.1673 23.1548Z" fill="black"/>
<path d="M50.4194 16.8783C50.4194 17.1723 50.356 17.4384 50.2293 17.6764C50.1096 17.9146 49.9371 18.1247 49.7119 18.3067C49.4936 18.4818 49.233 18.6289 48.9303 18.7479C48.6346 18.867 48.3071 18.951 47.948 19V19.5777H51.9719V20.0189C51.9719 20.3621 51.7995 20.5337 51.4545 20.5337H42.4033V20.0924C42.4033 19.7493 42.5758 19.5777 42.9207 19.5777H46.4272V18.9895C46.0752 18.9405 45.7513 18.8565 45.4556 18.7375C45.1669 18.6113 44.9134 18.4608 44.6952 18.2858C44.4839 18.1037 44.3184 17.8936 44.1988 17.6555C44.079 17.4174 44.0192 17.1583 44.0192 16.8783C44.0192 16.5421 44.1001 16.241 44.2621 15.9748C44.4311 15.7017 44.66 15.4706 44.9486 15.2816C45.2373 15.0925 45.5752 14.9489 45.9625 14.851C46.3568 14.7459 46.7758 14.6934 47.2193 14.6934C47.6629 14.6934 48.0783 14.7459 48.4656 14.851C48.8598 14.9489 49.2013 15.0925 49.4901 15.2816C49.7787 15.4706 50.0041 15.7017 50.166 15.9748C50.3349 16.241 50.4194 16.5421 50.4194 16.8783ZM50.7996 22.5924C50.7996 23.2576 50.5004 23.5902 49.902 23.5902H45.0754V24.1261H50.9476V24.5567C50.9476 24.7177 50.8947 24.8437 50.7891 24.9347C50.6905 25.0328 50.5673 25.0819 50.4194 25.0819H43.5651V23.6533C43.5651 22.988 43.8643 22.6554 44.4628 22.6554H49.2787V22.0881H43.5651V21.6575C43.5651 21.4965 43.6144 21.3704 43.7129 21.2793C43.8185 21.1813 43.9452 21.1323 44.0931 21.1323H50.7999L50.7996 22.5924ZM48.9092 16.8783C48.9092 16.6681 48.8634 16.486 48.7718 16.332C48.6873 16.1709 48.5676 16.0344 48.4128 15.9223C48.2579 15.8103 48.0783 15.7262 47.8741 15.6703C47.6699 15.6142 47.4517 15.5861 47.2193 15.5861C46.987 15.5861 46.7687 15.6142 46.5645 15.6703C46.3603 15.7262 46.1808 15.8103 46.0258 15.9223C45.8709 16.0344 45.7477 16.1709 45.6561 16.332C45.5717 16.486 45.5295 16.6681 45.5295 16.8783C45.5295 17.0883 45.5718 17.2739 45.6563 17.435C45.7478 17.589 45.871 17.7185 46.026 17.8236C46.1808 17.9286 46.3603 18.0092 46.5645 18.0651C46.7687 18.1212 46.987 18.1493 47.2193 18.1493C47.4517 18.1493 47.6699 18.1212 47.8741 18.0651C48.0783 18.0092 48.2579 17.9286 48.4128 17.8236C48.5676 17.7185 48.6873 17.5889 48.772 17.4349C48.8635 17.2738 48.9092 17.0884 48.9092 16.8783ZM60.2857 25.0293V22.2143C60.0498 22.2773 59.7532 22.3333 59.3959 22.3822C59.0457 22.4244 58.674 22.4594 58.2808 22.4873C57.8877 22.5083 57.4946 22.5258 57.1016 22.5399C56.7085 22.5538 56.3511 22.5608 56.0295 22.5608H53.6066V19.126C53.6066 18.923 53.671 18.7584 53.7997 18.6324C53.9354 18.5064 54.1105 18.4434 54.325 18.4434H57.1766V16.5316H53.671V16.0904C53.671 15.9293 53.721 15.8033 53.8211 15.7123C53.9211 15.6142 54.0462 15.5652 54.1963 15.5652H58.7097V18.7059C58.7097 18.9089 58.6418 19.0735 58.5061 19.1996C58.3774 19.3257 58.2058 19.3887 57.9914 19.3887H55.1397V21.5841H56.7478C56.9693 21.5841 57.2194 21.5806 57.4982 21.5736C57.777 21.5666 58.0701 21.5526 58.3774 21.5315C58.6919 21.5106 59.0099 21.4825 59.3315 21.4474C59.6603 21.4125 59.9784 21.3705 60.2857 21.3214V16.2059C60.2857 15.8908 60.3607 15.6457 60.5108 15.4706C60.6609 15.2956 60.886 15.2081 61.1863 15.2081H61.8294V24.0629C61.8294 24.7072 61.5292 25.0293 60.929 25.0293H60.2857ZM72.6724 22.6029V23.0861C72.6724 23.2472 72.6197 23.3732 72.5141 23.4642C72.4155 23.5482 72.2923 23.5902 72.1444 23.5902H63.1038V23.1071C63.1038 22.9461 63.1531 22.8235 63.2516 22.7395C63.3572 22.6484 63.4839 22.6029 63.6317 22.6029H72.6724ZM65.8286 18.1912V19.872H69.9582V18.1912H65.8286ZM64.3078 20.8592V16.4056C64.3078 16.0904 64.3817 15.8488 64.5296 15.6807C64.6775 15.5127 64.8992 15.4287 65.1949 15.4287H65.8286V17.2038H69.9582V16.4056C69.9582 16.0904 70.0321 15.8488 70.18 15.6807C70.3278 15.5127 70.5496 15.4287 70.8453 15.4287H71.479V19.6828C71.479 19.8508 71.4473 20.0084 71.3839 20.1554C71.3206 20.2955 71.2326 20.4181 71.1199 20.523C71.0143 20.6281 70.8841 20.7122 70.7293 20.7752C70.5813 20.8312 70.4228 20.8592 70.2539 20.8592H64.3078ZM73.1532 17.7606C73.1532 17.3684 73.2266 17.0148 73.3733 16.6997C73.5272 16.3775 73.7335 16.1044 73.9922 15.8802C74.2579 15.6492 74.5656 15.4741 74.9151 15.3551C75.2717 15.229 75.6563 15.166 76.0689 15.166C76.5514 15.166 76.9918 15.2501 77.3904 15.4182C77.7889 15.5862 78.121 15.8208 78.3867 16.122H80.369V16.0694C80.369 15.8243 80.4494 15.6212 80.6102 15.4603C80.771 15.2991 80.9737 15.2186 81.2185 15.2186H81.8793V19.7458C81.8793 19.9909 81.7989 20.1939 81.638 20.355C81.4772 20.5161 81.2744 20.5967 81.0298 20.5967H80.369V19.3152H78.4601C78.1944 19.6513 77.8553 19.9103 77.4427 20.0924C77.0303 20.2675 76.5723 20.3551 76.0688 20.3551C75.6563 20.3551 75.2717 20.2955 74.9151 20.1764C74.5656 20.0504 74.2579 19.8753 73.9922 19.6512C73.7335 19.4272 73.5272 19.1541 73.3733 18.8319C73.2266 18.5098 73.1532 18.1527 73.1532 17.7606ZM81.7847 23.1385C81.7847 23.5307 81.6903 23.8809 81.5017 24.1891C81.3199 24.5042 81.0786 24.7738 80.778 24.9979C80.4774 25.2219 80.1418 25.3934 79.7712 25.5125C79.4006 25.6315 79.03 25.691 78.6594 25.691C78.2259 25.691 77.8168 25.6245 77.4323 25.4915C77.0547 25.3655 76.7226 25.1904 76.4359 24.9663C76.1492 24.7422 75.922 24.4726 75.7542 24.1575C75.5864 23.8494 75.5026 23.5097 75.5026 23.1385C75.5026 22.7394 75.5899 22.3823 75.7646 22.0672C75.9395 21.7521 76.1737 21.486 76.4673 21.2688C76.761 21.0447 77.0966 20.8732 77.4742 20.7541C77.8517 20.6351 78.2468 20.5756 78.6594 20.5756C79.1069 20.5756 79.523 20.6421 79.9075 20.7752C80.2921 20.9013 80.6207 21.0798 80.8934 21.3109C81.1731 21.535 81.3898 21.8046 81.5436 22.1197C81.7044 22.4348 81.7848 22.7744 81.7848 23.1385H81.7847ZM80.2745 23.1385C80.2745 22.9285 80.2361 22.7219 80.1593 22.5189C80.0823 22.3158 79.9739 22.1372 79.834 21.9831C79.6942 21.8291 79.523 21.7066 79.3202 21.6155C79.1243 21.5175 78.9041 21.4685 78.6594 21.4685C78.3937 21.4685 78.156 21.5175 77.9462 21.6155C77.7435 21.7066 77.5722 21.8327 77.4323 21.9937C77.2925 22.1478 77.1876 22.3263 77.1177 22.5294C77.0478 22.7254 77.0129 22.9285 77.0129 23.1385C77.0129 23.3626 77.0513 23.5727 77.1281 23.7688C77.205 23.9649 77.3133 24.1365 77.4532 24.2837C77.6001 24.4306 77.7749 24.5461 77.9777 24.6302C78.1804 24.7213 78.4077 24.7668 78.6594 24.7668C78.9112 24.7668 79.1349 24.7178 79.3307 24.6197C79.5334 24.5287 79.7047 24.4061 79.8445 24.2521C79.9844 24.105 80.0893 23.9334 80.1591 23.7372C80.236 23.5412 80.2745 23.3417 80.2745 23.1385ZM74.6634 17.7606C74.6634 18.0126 74.6983 18.2437 74.7683 18.4538C74.8382 18.6639 74.9326 18.8424 75.0515 18.9895C75.1774 19.1366 75.3242 19.2521 75.4919 19.3361C75.6667 19.4202 75.8591 19.4622 76.0689 19.4622C76.2787 19.4622 76.4674 19.4202 76.6353 19.3361C76.81 19.2521 76.9568 19.1366 77.0757 18.9895C77.2016 18.8424 77.2995 18.6638 77.3694 18.4537C77.4393 18.2436 77.4742 18.0126 77.4742 17.7606C77.4742 17.5084 77.4393 17.2773 77.3694 17.0673C77.2995 16.8571 77.2016 16.6785 77.0757 16.5315C76.9568 16.3845 76.81 16.269 76.6353 16.185C76.4674 16.101 76.2787 16.059 76.0689 16.059C75.8591 16.059 75.6667 16.101 75.4919 16.185C75.3242 16.269 75.1774 16.3845 75.0515 16.5316C74.9327 16.6786 74.8383 16.8571 74.7683 17.0673C74.6984 17.2773 74.6635 17.5084 74.6635 17.7606H74.6634ZM78.9005 17.0987C78.9565 17.3999 78.9845 17.6205 78.9845 17.7606C78.9845 17.9706 78.9635 18.1632 78.9216 18.3383H80.369V17.0987H78.9005Z" fill="black"/>
</g>
<defs>
<clipPath id="clip0_2048_5087">
<rect width="81.7583" height="33.6831" fill="white" transform="translate(0.12085 0.855469)"/>
</clipPath>
</defs>
</svg>
