<svg width="298" height="274" viewBox="0 0 298 274" fill="none" xmlns="http://www.w3.org/2000/svg">
<g clip-path="url(#clip0_2713_18797)">
<path d="M0.711832 19.1249L0.606378 19.2835L0.78968 19.3352L0.60696 19.3889L0.714159 19.5463L0.53967 19.47L0.520606 19.6595L0.435993 19.4889L0.299587 19.6218L0.344441 19.4367L0.154518 19.4508L0.307852 19.3379L0.15328 19.2266L0.343347 19.2386L0.296451 19.054L0.434317 19.1854L0.51704 19.0139L0.538196 19.2032L0.711832 19.1249Z" fill="white"/>
<path d="M63.4837 37.9531L63.3782 38.1116L63.5615 38.1633L63.3788 38.217L63.486 38.3744L63.3115 38.2981L63.2925 38.4876L63.2078 38.317L63.0714 38.4499L63.1163 38.2648L62.9264 38.2789L63.0797 38.166L62.9251 38.0547L63.1152 38.0668L63.0683 37.8822L63.2062 38.0136L63.2889 37.842L63.31 38.0313L63.4837 37.9531Z" fill="white"/>
<path d="M25.1145 59.5937L25.0091 59.7523L25.1924 59.8039L25.0097 59.8576L25.1169 60.0151L24.9424 59.9387L24.9233 60.1282L24.8387 59.9576L24.7023 60.0905L24.7472 59.9054L24.5572 59.9196L24.7106 59.8066L24.556 59.6953L24.7461 59.7074L24.6992 59.5228L24.837 59.6542L24.9198 59.4826L24.9409 59.6719L25.1145 59.5937Z" fill="white"/>
<path d="M31.016 25.164L30.9106 25.3226L31.0939 25.3743L30.9112 25.428L31.0184 25.5854L30.8439 25.5091L30.8248 25.6985L30.7402 25.5279L30.6038 25.6608L30.6486 25.4757L30.4587 25.4899L30.6121 25.3769L30.4575 25.2657L30.6475 25.2777L30.6007 25.0931L30.7385 25.2245L30.8212 25.053L30.8424 25.2422L31.016 25.164Z" fill="white"/>
<path d="M12.9792 33.3593L12.8737 33.5179L13.057 33.5696L12.8743 33.6233L12.9815 33.7807L12.807 33.7044L12.7879 33.8939L12.7033 33.7232L12.5669 33.8561L12.6118 33.6711L12.4219 33.6852L12.5752 33.5722L12.4206 33.461L12.6107 33.473L12.5638 33.2884L12.7017 33.4198L12.7844 33.2483L12.8055 33.4375L12.9792 33.3593Z" fill="white"/>
<path d="M127.104 54.0234L126.999 54.182L127.182 54.2336L126.999 54.2873L127.107 54.4447L126.932 54.3684L126.913 54.5579L126.828 54.3873L126.692 54.5202L126.737 54.3351L126.547 54.3492L126.7 54.2363L126.546 54.125L126.736 54.1371L126.689 53.9525L126.827 54.0839L126.909 53.9123L126.931 54.1016L127.104 54.0234Z" fill="white"/>
<path d="M69.7135 19.9218L69.6081 20.0804L69.7914 20.1321L69.6087 20.1858L69.7159 20.3432L69.5414 20.2669L69.5223 20.4564L69.4377 20.2857L69.3013 20.4186L69.3461 20.2336L69.1562 20.2477L69.3096 20.1347L69.155 20.0235L69.3451 20.0355L69.2982 19.8509L69.436 19.9823L69.5187 19.8108L69.5399 20L69.7135 19.9218Z" fill="white"/>
<path d="M208.761 38.9374L208.656 39.096L208.839 39.1477L208.657 39.2014L208.764 39.3588L208.589 39.2825L208.57 39.472L208.486 39.3014L208.349 39.4343L208.394 39.2492L208.204 39.2633L208.357 39.1504L208.203 39.0391L208.393 39.0511L208.346 38.8665L208.484 38.9979L208.567 38.8264L208.588 39.0157L208.761 38.9374Z" fill="white"/>
<path d="M132.68 92.7187L132.574 92.8773L132.757 92.9289L132.575 92.9826L132.682 93.1401L132.507 93.0637L132.488 93.2532L132.404 93.0826L132.267 93.2155L132.312 93.0304L132.122 93.0446L132.276 92.9316L132.121 92.8203L132.311 92.8324L132.264 92.6478L132.402 92.7792L132.485 92.6076L132.506 92.7969L132.68 92.7187Z" fill="white"/>
<path d="M69.3874 66.8124L69.2819 66.971L69.4652 67.0227L69.2825 67.0764L69.3897 67.2338L69.2152 67.1575L69.1961 67.347L69.1115 67.1764L68.9751 67.3093L69.02 67.1242L68.8301 67.1383L68.9834 67.0254L68.8288 66.9141L69.0189 66.9261L68.972 66.7415L69.1099 66.8729L69.1926 66.7014L69.2137 66.8907L69.3874 66.8124Z" fill="white"/>
<path d="M66.7636 117.641L66.6581 117.799L66.8414 117.851L66.6587 117.905L66.7659 118.062L66.5914 117.986L66.5724 118.175L66.4878 118.004L66.3513 118.137L66.3962 117.952L66.2063 117.966L66.3596 117.853L66.205 117.742L66.3951 117.754L66.3482 117.57L66.4861 117.701L66.5688 117.53L66.59 117.719L66.7636 117.641Z" fill="white"/>
<path d="M262.872 113.047L262.767 113.205L262.95 113.257L262.767 113.311L262.875 113.468L262.7 113.392L262.681 113.581L262.597 113.411L262.46 113.544L262.505 113.359L262.315 113.373L262.468 113.26L262.314 113.148L262.504 113.161L262.457 112.976L262.595 113.107L262.678 112.936L262.699 113.125L262.872 113.047Z" fill="white"/>
<path d="M199.252 273.75L199.146 273.909L199.33 273.96L199.147 274.014L199.254 274.171L199.08 274.095L199.061 274.284L198.976 274.114L198.84 274.247L198.884 274.062L198.694 274.076L198.848 273.963L198.693 273.852L198.883 273.864L198.836 273.679L198.974 273.81L199.057 273.639L199.078 273.828L199.252 273.75Z" fill="white"/>
<path d="M256.971 149.453L256.865 149.612L257.048 149.663L256.866 149.717L256.973 149.874L256.798 149.798L256.779 149.988L256.695 149.817L256.558 149.95L256.603 149.765L256.413 149.779L256.567 149.666L256.412 149.555L256.602 149.567L256.555 149.382L256.693 149.514L256.776 149.342L256.797 149.531L256.971 149.453Z" fill="white"/>
<path d="M167.769 123.547L167.663 123.705L167.847 123.757L167.664 123.811L167.771 123.968L167.597 123.892L167.578 124.081L167.493 123.911L167.357 124.044L167.401 123.859L167.212 123.873L167.365 123.76L167.21 123.648L167.4 123.661L167.353 123.476L167.491 123.607L167.574 123.436L167.595 123.625L167.769 123.547Z" fill="white"/>
<path d="M99.2292 247.508L99.1237 247.666L99.307 247.718L99.1243 247.772L99.2315 247.929L99.057 247.853L99.0379 248.042L98.9533 247.872L98.8169 248.005L98.8618 247.819L98.6719 247.834L98.8252 247.721L98.6706 247.609L98.8607 247.621L98.8138 247.437L98.9517 247.568L99.0344 247.397L99.0555 247.586L99.2292 247.508Z" fill="white"/>
<path d="M19.539 210.125L19.4335 210.284L19.6168 210.335L19.4341 210.389L19.5413 210.546L19.3668 210.47L19.3478 210.659L19.2631 210.489L19.1267 210.622L19.1716 210.437L18.9817 210.451L19.135 210.338L18.9804 210.227L19.1705 210.239L19.1236 210.054L19.2615 210.185L19.3442 210.014L19.3653 210.203L19.539 210.125Z" fill="white"/>
<path d="M20.5236 96.3281L20.4181 96.4866L20.6014 96.5383L20.4187 96.592L20.5259 96.7494L20.3514 96.6731L20.3324 96.8626L20.2478 96.692L20.1114 96.8249L20.1562 96.6398L19.9663 96.6539L20.1196 96.541L19.965 96.4297L20.1551 96.4418L20.1082 96.2572L20.2461 96.3886L20.3288 96.217L20.35 96.4063L20.5236 96.3281Z" fill="white"/>
<path d="M126.12 107.148L126.014 107.307L126.198 107.359L126.015 107.412L126.122 107.57L125.948 107.493L125.928 107.683L125.844 107.512L125.707 107.645L125.752 107.46L125.562 107.474L125.716 107.361L125.561 107.25L125.751 107.262L125.704 107.077L125.842 107.209L125.925 107.037L125.946 107.227L126.12 107.148Z" fill="white"/>
<path d="M276.318 185.203L276.213 185.362L276.396 185.413L276.214 185.467L276.321 185.624L276.146 185.548L276.127 185.738L276.043 185.567L275.906 185.7L275.951 185.515L275.761 185.529L275.914 185.416L275.76 185.305L275.95 185.317L275.903 185.132L276.041 185.264L276.124 185.092L276.145 185.281L276.318 185.203Z" fill="white"/>
<path d="M232.702 225.531L232.597 225.69L232.78 225.741L232.597 225.795L232.704 225.953L232.53 225.876L232.511 226.066L232.426 225.895L232.29 226.028L232.335 225.843L232.145 225.857L232.298 225.744L232.144 225.633L232.334 225.645L232.287 225.46L232.425 225.592L232.507 225.42L232.528 225.609L232.702 225.531Z" fill="white"/>
<path d="M172.36 134.367L172.254 134.526L172.438 134.577L172.255 134.631L172.362 134.788L172.188 134.712L172.169 134.902L172.084 134.731L171.948 134.864L171.992 134.679L171.802 134.693L171.956 134.58L171.801 134.469L171.991 134.481L171.944 134.296L172.082 134.428L172.165 134.256L172.186 134.445L172.36 134.367Z" fill="white"/>
<path d="M243.525 75.0077L243.419 75.1663L243.602 75.218L243.42 75.2717L243.527 75.4291L243.352 75.3528L243.333 75.5423L243.249 75.3717L243.112 75.5046L243.157 75.3195L242.967 75.3336L243.121 75.2207L242.966 75.1094L243.156 75.1214L243.109 74.9369L243.247 75.0682L243.33 74.8967L243.351 75.086L243.525 75.0077Z" fill="white"/>
<path d="M32.0007 243.906L31.8952 244.065L32.0785 244.116L31.8958 244.17L32.003 244.328L31.8285 244.251L31.8094 244.441L31.7248 244.27L31.5884 244.403L31.6333 244.218L31.4433 244.232L31.5967 244.119L31.4421 244.008L31.6322 244.02L31.5853 243.835L31.7231 243.967L31.8059 243.795L31.827 243.984L32.0007 243.906Z" fill="white"/>
<path d="M24.1299 144.859L24.0245 145.018L24.2078 145.07L24.0251 145.123L24.1322 145.281L23.9578 145.204L23.9387 145.394L23.8541 145.223L23.7177 145.356L23.7625 145.171L23.5726 145.185L23.7259 145.072L23.5714 144.961L23.7614 144.973L23.7145 144.788L23.8524 144.92L23.9351 144.748L23.9563 144.938L24.1299 144.859Z" fill="white"/>
<path d="M204.827 141.25L204.722 141.409L204.905 141.46L204.722 141.514L204.829 141.671L204.655 141.595L204.636 141.784L204.551 141.614L204.415 141.747L204.46 141.562L204.27 141.576L204.423 141.463L204.269 141.352L204.459 141.364L204.412 141.179L204.55 141.31L204.632 141.139L204.653 141.328L204.827 141.25Z" fill="white"/>
<path d="M152.355 188.484L152.25 188.643L152.433 188.695L152.251 188.748L152.358 188.906L152.183 188.829L152.164 189.019L152.08 188.848L151.943 188.981L151.988 188.796L151.798 188.81L151.951 188.697L151.797 188.586L151.987 188.598L151.94 188.413L152.078 188.545L152.161 188.373L152.182 188.563L152.355 188.484Z" fill="white"/>
<path d="M187.331 211.031L187.12 211.349L187.486 211.452L187.121 211.56L187.335 211.875L186.986 211.722L186.948 212.101L186.779 211.76L186.506 212.026L186.595 211.655L186.215 211.683L186.522 211.457L186.213 211.235L186.593 211.259L186.499 210.89L186.775 211.152L186.941 210.809L186.983 211.188L187.331 211.031Z" fill="white"/>
<path d="M106.173 155.281L105.962 155.599L106.329 155.702L105.963 155.81L106.178 156.125L105.829 155.972L105.79 156.351L105.621 156.01L105.348 156.276L105.438 155.905L105.058 155.933L105.365 155.707L105.055 155.485L105.436 155.509L105.342 155.14L105.618 155.402L105.783 155.059L105.826 155.438L106.173 155.281Z" fill="white"/>
<path d="M225.872 19.5157L225.661 19.8331L226.028 19.9365L225.662 20.0439L225.876 20.3589L225.527 20.2062L225.489 20.5854L225.32 20.244L225.047 20.5099L225.137 20.1395L224.757 20.1678L225.063 19.9418L224.754 19.7192L225.134 19.7432L225.041 19.3739L225.316 19.6368L225.482 19.2936L225.524 19.6723L225.872 19.5157Z" fill="white"/>
<path d="M154.38 20.4923L154.169 20.8096L154.536 20.913L154.17 21.0205L154.385 21.3355L154.036 21.1828L153.998 21.5619L153.828 21.2205L153.555 21.4865L153.645 21.1161L153.265 21.1444L153.572 20.9184L153.263 20.6957L153.643 20.7198L153.549 20.3505L153.825 20.6134L153.991 20.2701L154.033 20.6488L154.38 20.4923Z" fill="white"/>
<path d="M294.085 212.016L293.874 212.333L294.241 212.436L293.875 212.544L294.089 212.859L293.74 212.706L293.702 213.085L293.533 212.744L293.26 213.01L293.35 212.64L292.97 212.668L293.276 212.442L292.967 212.219L293.347 212.243L293.254 211.874L293.529 212.137L293.695 211.794L293.737 212.172L294.085 212.016Z" fill="white"/>
<path d="M65.1802 204.141L64.9692 204.458L65.336 204.561L64.9704 204.669L65.1849 204.984L64.8357 204.831L64.7976 205.21L64.6283 204.869L64.3553 205.135L64.4451 204.765L64.065 204.793L64.3719 204.567L64.0626 204.344L64.4429 204.368L64.349 203.999L64.6249 204.262L64.7904 203.919L64.8328 204.297L65.1802 204.141Z" fill="white"/>
<path d="M18.284 184.797L18.073 185.114L18.4398 185.218L18.0741 185.325L18.2886 185.64L17.9395 185.487L17.9013 185.867L17.732 185.525L17.4591 185.791L17.5488 185.421L17.1688 185.449L17.4756 185.223L17.1663 185L17.5466 185.024L17.4528 184.655L17.7287 184.918L17.8942 184.575L17.9365 184.954L18.284 184.797Z" fill="white"/>
<path d="M2.21428 108.383L2.00327 108.7L2.37006 108.804L2.00443 108.911L2.21894 109.226L1.86978 109.073L1.83164 109.453L1.66233 109.111L1.38938 109.377L1.47913 109.007L1.0991 109.035L1.40592 108.809L1.09662 108.586L1.47694 108.61L1.3831 108.241L1.65897 108.504L1.8245 108.161L1.86684 108.539L2.21428 108.383Z" fill="white"/>
<path d="M233.712 1.33817L233.481 1.33118L233.652 1.57479L233.407 1.40635L233.417 1.63875L233.274 1.38769L233.118 1.50014L233.143 1.28391L232.895 1.2238L233.077 1.14359L232.852 0.939043L233.105 1.03238L233.009 0.779104L233.216 1.00232L233.293 0.818821L233.356 1.06746L233.571 1.03961L233.461 1.19734L233.712 1.33817Z" fill="white"/>
<path d="M294.217 84.5647L293.986 84.5577L294.156 84.8013L293.912 84.6329L293.921 84.8653L293.778 84.6142L293.623 84.7267L293.648 84.5105L293.4 84.4504L293.581 84.3702L293.357 84.1656L293.61 84.2589L293.514 84.0057L293.72 84.2289L293.798 84.0454L293.86 84.294L294.075 84.2662L293.965 84.4239L294.217 84.5647Z" fill="white"/>
<path d="M273.153 118.229L272.921 118.222L273.092 118.465L272.848 118.297L272.857 118.529L272.714 118.278L272.559 118.391L272.584 118.175L272.336 118.114L272.517 118.034L272.293 117.83L272.546 117.923L272.45 117.67L272.656 117.893L272.734 117.709L272.796 117.958L273.011 117.93L272.901 118.088L273.153 118.229Z" fill="white"/>
<path d="M219.974 28.4085L219.743 28.4015L219.913 28.6451L219.669 28.4767L219.679 28.7091L219.535 28.458L219.38 28.5705L219.405 28.3542L219.157 28.2941L219.338 28.2139L219.114 28.0094L219.367 28.1027L219.271 27.8494L219.477 28.0726L219.555 27.8891L219.618 28.1378L219.832 28.1099L219.722 28.2677L219.974 28.4085Z" fill="white"/>
<path d="M181.067 61.385L180.836 61.3781L181.006 61.6217L180.762 61.4532L180.772 61.6856L180.629 61.4346L180.473 61.547L180.498 61.3308L180.25 61.2707L180.432 61.1905L180.207 60.9859L180.46 61.0793L180.364 60.826L180.57 61.0492L180.648 60.8657L180.711 61.1143L180.925 61.0865L180.816 61.2442L181.067 61.385Z" fill="white"/>
<path d="M290.994 179.666L290.762 179.659L290.933 179.903L290.688 179.734L290.698 179.967L290.555 179.716L290.4 179.828L290.425 179.612L290.177 179.552L290.358 179.472L290.134 179.267L290.387 179.361L290.291 179.107L290.497 179.33L290.574 179.147L290.637 179.396L290.852 179.368L290.742 179.525L290.994 179.666Z" fill="white"/>
<path d="M125.913 189.893L125.682 189.886L125.852 190.129L125.608 189.961L125.618 190.193L125.475 189.942L125.319 190.055L125.344 189.839L125.096 189.778L125.278 189.698L125.053 189.494L125.306 189.587L125.21 189.334L125.416 189.557L125.494 189.374L125.557 189.622L125.772 189.594L125.662 189.752L125.913 189.893Z" fill="white"/>
<path d="M62.3285 73.4319L62.0972 73.4249L62.2677 73.6685L62.0233 73.5001L62.0331 73.7325L61.89 73.4814L61.7345 73.5939L61.7595 73.3777L61.5115 73.3176L61.693 73.2373L61.4685 73.0328L61.7216 73.1261L61.6256 72.8729L61.8318 73.0961L61.9094 72.9126L61.9722 73.1612L62.1869 73.1334L62.077 73.2911L62.3285 73.4319Z" fill="white"/>
<path d="M255.54 121.018L255.309 121.011L255.48 121.254L255.235 121.086L255.245 121.318L255.102 121.067L254.946 121.18L254.971 120.964L254.723 120.903L254.905 120.823L254.68 120.619L254.933 120.712L254.837 120.459L255.044 120.682L255.121 120.499L255.184 120.747L255.399 120.719L255.289 120.877L255.54 121.018Z" fill="white"/>
<path d="M288.526 192.502L288.295 192.495L288.466 192.739L288.221 192.57L288.231 192.803L288.088 192.552L287.932 192.664L287.958 192.448L287.709 192.388L287.891 192.308L287.666 192.103L287.92 192.196L287.824 191.943L288.03 192.166L288.107 191.983L288.17 192.232L288.385 192.204L288.275 192.361L288.526 192.502Z" fill="white"/>
<path d="M52.5206 111.401L52.2893 111.394L52.4599 111.637L52.2155 111.469L52.2253 111.701L52.0821 111.45L51.9266 111.563L51.9517 111.346L51.7036 111.286L51.8851 111.206L51.6606 111.002L51.9137 111.095L51.8178 110.842L52.024 111.065L52.1015 110.881L52.1643 111.13L52.3791 111.102L52.2691 111.26L52.5206 111.401Z" fill="white"/>
<path d="M113.661 32.4788L113.43 32.4718L113.6 32.7154L113.356 32.547L113.366 32.7794L113.222 32.5283L113.067 32.6408L113.092 32.4245L112.844 32.3644L113.025 32.2842L112.801 32.0797L113.054 32.173L112.958 31.9197L113.164 32.1429L113.242 31.9594L113.305 32.2081L113.519 32.1802L113.409 32.338L113.661 32.4788Z" fill="white"/>
<path d="M227.667 208.166L227.436 208.159L227.606 208.403L227.362 208.234L227.372 208.467L227.229 208.216L227.073 208.328L227.098 208.112L226.85 208.052L227.032 207.972L226.807 207.767L227.06 207.861L226.964 207.607L227.171 207.83L227.248 207.647L227.311 207.896L227.526 207.868L227.416 208.025L227.667 208.166Z" fill="white"/>
<path d="M251.23 263.622L250.767 263.608L251.108 264.096L250.619 263.759L250.639 264.224L250.352 263.721L250.041 263.946L250.091 263.514L249.595 263.393L249.958 263.233L249.509 262.823L250.015 263.01L249.823 262.503L250.236 262.95L250.391 262.583L250.517 263.08L250.946 263.025L250.726 263.34L251.23 263.622Z" fill="white"/>
<path d="M198.973 132.52L198.51 132.507L198.851 132.994L198.362 132.657L198.382 133.122L198.095 132.62L197.784 132.845L197.834 132.412L197.338 132.292L197.701 132.131L197.252 131.722L197.758 131.909L197.566 131.402L197.979 131.848L198.134 131.481L198.26 131.979L198.689 131.923L198.469 132.239L198.973 132.52Z" fill="white"/>
<path d="M118.115 120.763L117.652 120.749L117.993 121.236L117.504 120.899L117.524 121.364L117.237 120.862L116.926 121.087L116.976 120.654L116.48 120.534L116.843 120.373L116.394 119.964L116.9 120.151L116.708 119.644L117.121 120.091L117.276 119.723L117.402 120.221L117.832 120.165L117.612 120.481L118.115 120.763Z" fill="white"/>
<path d="M32.6116 181.817L32.1488 181.803L32.49 182.291L32.001 181.954L32.0206 182.419L31.7342 181.916L31.423 182.141L31.4731 181.709L30.9768 181.589L31.34 181.428L30.8907 181.019L31.3972 181.205L31.2052 180.699L31.6178 181.145L31.773 180.778L31.8987 181.276L32.3284 181.22L32.1084 181.536L32.6116 181.817Z" fill="white"/>
<path d="M78.8213 54.1064L78.3586 54.0925L78.6998 54.5799L78.2108 54.2429L78.2303 54.7079L77.9439 54.2055L77.6327 54.4305L77.6829 53.9979L77.1865 53.8776L77.5498 53.7171L77.1005 53.3078L77.6069 53.4946L77.4149 52.9878L77.8275 53.4344L77.9827 53.0672L78.1084 53.5648L78.5381 53.509L78.3181 53.8247L78.8213 54.1064Z" fill="white"/>
<path d="M2.1642 122.614L1.70145 122.6L2.04266 123.088L1.55366 122.751L1.57324 123.216L1.28681 122.713L0.975602 122.938L1.02576 122.506L0.529376 122.385L0.892651 122.225L0.443359 121.816L0.949776 122.002L0.757801 121.496L1.1704 121.942L1.32557 121.575L1.45129 122.073L1.881 122.017L1.66102 122.332L2.1642 122.614Z" fill="white"/>
<path d="M248.827 84.7383C249.481 85.8464 248.216 87.0914 247.119 86.4188L232.443 77.4233C231.735 76.9893 230.809 77.364 230.602 78.1682L226.312 94.8385C225.992 96.0849 224.217 96.0704 223.916 94.8189L219.9 78.0807C219.706 77.2732 218.786 76.8835 218.071 77.3058L203.25 86.0602C202.142 86.7147 200.897 85.4492 201.57 84.352L210.565 69.6761C210.999 68.9682 210.625 68.0422 209.82 67.8353L193.15 63.5456C191.904 63.2249 191.918 61.4497 193.17 61.1494L209.908 57.1328C210.715 56.9391 211.105 56.0194 210.683 55.3044L201.928 40.4835C201.274 39.3754 202.539 38.1304 203.637 38.803L218.312 47.7985C219.02 48.2325 219.946 47.8578 220.153 47.0536L224.443 30.3833C224.764 29.1369 226.539 29.1514 226.839 30.4029L230.856 47.1411C231.049 47.9485 231.969 48.3383 232.684 47.916L247.505 39.1616C248.613 38.5071 249.858 39.7725 249.186 40.8698L240.19 55.5456C239.756 56.2536 240.131 57.1795 240.935 57.3865L257.605 61.6762C258.852 61.9969 258.837 63.772 257.586 64.0723L240.847 68.0889C240.04 68.2827 239.65 69.2024 240.073 69.9173L248.827 84.7383Z" fill="url(#paint0_linear_2713_18797)"/>
<path d="M56.3298 255.237C57.1181 256.572 55.5939 258.071 54.2723 257.261L36.596 246.427C35.7432 245.904 34.628 246.355 34.3788 247.324L29.212 267.402C28.8257 268.904 26.6877 268.886 26.326 267.379L21.4882 247.218C21.2548 246.246 20.1471 245.776 19.286 246.285L1.43483 256.829C0.100186 257.618 -1.39929 256.094 -0.589232 254.772L10.2454 237.096C10.7681 236.243 10.3168 235.128 9.34821 234.878L-10.7304 229.712C-12.2315 229.325 -12.2141 227.187 -10.7068 226.826L9.45359 221.988C10.4261 221.754 10.8956 220.647 10.3869 219.786L-0.157297 201.934C-0.945641 200.6 0.578545 199.1 1.90013 199.91L19.5765 210.745C20.4292 211.268 21.5444 210.816 21.7937 209.848L26.9604 189.769C27.3467 188.268 29.4848 188.286 29.8465 189.793L34.6843 209.953C34.9177 210.926 36.0253 211.395 36.8865 210.887L54.7376 200.342C56.0723 199.554 57.5718 201.078 56.7617 202.4L45.927 220.076C45.4044 220.929 45.8556 222.044 46.8243 222.293L66.9028 227.46C68.404 227.846 68.3865 229.984 66.8792 230.346L46.7189 235.184C45.7463 235.417 45.2769 236.525 45.7855 237.386L56.3298 255.237Z" fill="url(#paint1_linear_2713_18797)"/>
<g clip-path="url(#clip1_2713_18797)">
<g filter="url(#filter0_ii_2713_18797)">
<path d="M125.699 74.0557C125.976 72.4902 127.506 71.5002 129.056 71.8525C142.998 75.0274 149.386 81.0375 151.764 85.5234C152.658 87.2109 151.109 88.787 149.2 88.8203C146.637 88.8651 144.517 89.3313 142.894 89.917C144.951 92.2002 149.376 97.8076 152.833 104.248C163.725 98.5822 206.002 93.6227 210.091 140.91C213.661 182.183 196.519 184.507 187.502 180.51C182.148 193.226 169.84 189.155 164.356 185.529C152.755 201.592 137.584 194.64 131.449 189.155C132.843 192.781 101.609 220.667 93.522 157.921C87.2188 109.015 122.58 103.965 142.457 107.691C141.01 103.601 138.706 97.7725 136.14 93.123C134.153 94.1228 132.486 95.304 131.139 96.4746C129.274 98.0954 125.937 97.7018 125.456 95.2783C123.997 87.9412 124.742 79.475 125.699 74.0557Z" fill="#798ACD"/>
</g>
<g filter="url(#filter1_n_2713_18797)">
<ellipse cx="145.081" cy="132.433" rx="86.8294" ry="77.4249" transform="rotate(-9.05149 145.081 132.433)" fill="url(#paint2_linear_2713_18797)" fill-opacity="0.9"/>
<path d="M133.005 56.6343C180.07 49.1365 223.509 77.0854 230.167 118.879C236.825 160.672 204.221 200.735 157.156 208.232C110.091 215.73 66.6521 187.781 59.9942 145.988C53.3363 104.195 85.9402 64.1322 133.005 56.6343Z" stroke="url(#paint3_linear_2713_18797)" stroke-width="1.34047"/>
</g>
<g filter="url(#filter2_ii_2713_18797)">
<path d="M136.553 218.887L131.12 210.846C129.844 208.958 130.546 206.375 132.644 205.488C152.852 196.941 176.739 194.422 188.755 194.125C190.915 194.071 192.567 195.941 192.362 198.092L191.527 206.859C191.365 208.559 190.066 209.929 188.379 210.197C165.338 213.854 148.422 218.359 140.512 220.401C139.002 220.79 137.426 220.179 136.553 218.887Z" fill="#3E4C8C"/>
</g>
<circle cx="162.954" cy="205.036" r="2.60647" fill="#CFD7F7"/>
<circle cx="146.57" cy="208.747" r="2.60647" fill="#CFD7F7"/>
<circle cx="179.337" cy="202.794" r="2.60647" fill="#CFD7F7"/>
<ellipse cx="159.416" cy="151.924" rx="3.72353" ry="2.97882" transform="rotate(-3.98844 159.416 151.924)" fill="#FF581D"/>
<path d="M154.749 156.516L155.242 157.206C156.055 158.345 157.516 158.82 158.844 158.377V158.377" stroke="#852A0A" stroke-width="1.19153" stroke-linecap="round"/>
<path opacity="0.8" d="M101.396 93.7394L86.8397 115.611C83.6713 120.371 77.7445 125.638 73.378 121.945C70.6845 119.668 70.6909 115.363 71.3445 112.555C72.7526 107.553 78.5962 95.3856 90.7058 86.731C98.0002 81.5177 101.659 81.8675 103.312 83.9361C105.561 86.7504 103.392 90.7402 101.396 93.7394Z" fill="url(#paint4_linear_2713_18797)"/>
<path opacity="0.89" d="M69.7173 128.711C76.8665 123.945 77.1644 134.669 76.4197 140.626C75.526 143.903 71.5791 141.992 69.7173 140.626C66.7385 138.641 62.5682 133.477 69.7173 128.711Z" fill="url(#paint5_linear_2713_18797)"/>
<g filter="url(#filter3_g_2713_18797)">
<path d="M186.391 145.376C184.263 146.439 178.317 149.911 175.082 151.824C174.671 152.068 174.295 152.366 173.893 152.626C171.863 153.938 168.053 154.205 165.378 146.795C162.424 138.617 168.69 133.165 172.193 131.461C174.275 130.704 179.462 129.985 183.551 133.165C188.663 137.141 189.23 143.956 186.391 145.376Z" fill="white"/>
</g>
<g filter="url(#filter4_g_2713_18797)">
<path d="M146.636 155.305C144.859 154.639 137.171 153.277 132.958 152.58C131.364 152.316 129.86 151.441 129.257 149.942C127.323 145.131 129.569 140.906 131.832 138.471C132.706 137.53 133.77 136.602 134.977 136.164C138.097 135.031 144.863 133.911 149.507 136.649C151.424 137.78 152.523 139.874 153.042 142.039C155.467 152.157 148.703 156.08 146.636 155.305Z" fill="white"/>
</g>
<g filter="url(#filter5_g_2713_18797)">
<path d="M144.301 151.694C141.755 151.29 139.003 150.746 136.686 150.249C134.172 149.709 131.748 147.873 132.383 145.381C133.023 142.872 135.043 140.635 136.633 139.331C137.044 138.993 137.504 138.718 138.013 138.563C139.64 138.067 142.654 137.73 146.206 138.921C147.068 139.21 147.853 139.701 148.471 140.368C151.409 143.546 151.27 146.732 150.228 149.118C149.263 151.328 146.683 152.073 144.301 151.694Z" fill="black"/>
</g>
<g filter="url(#filter6_g_2713_18797)">
<path d="M182.492 144.432C180.564 145.737 178.209 147.055 176.128 148.131C173.844 149.311 170.864 149.427 169.425 147.297C168.162 145.429 168.031 143.362 168.217 142.245C168.785 139.406 171.455 133.727 177.588 133.727C181.685 133.727 183.729 136.26 184.635 138.789C185.398 140.916 184.363 143.165 182.492 144.432Z" fill="black"/>
</g>
<g filter="url(#filter7_i_2713_18797)">
<rect x="53.4829" y="130.812" width="62.8215" height="46.8745" rx="11.3585" transform="rotate(16.8106 53.4829 130.812)" fill="url(#paint6_linear_2713_18797)"/>
</g>
<rect x="50.5961" y="163.75" width="23.6789" height="5.7989" rx="2.89945" transform="rotate(16.8106 50.5961 163.75)" fill="white"/>
<circle cx="84.4274" cy="165.396" r="3.38269" transform="rotate(16.8106 84.4274 165.396)" fill="white"/>
<path d="M85.8563 156.484C88.6086 157.4 93.767 161.045 92.3829 168.3" stroke="white" stroke-width="3.38269" stroke-linecap="round"/>
<path d="M88.5773 149.992C93.0634 151.852 101.368 158.45 98.6983 169.961" stroke="white" stroke-width="3.38269" stroke-linecap="round"/>
<g filter="url(#filter8_i_2713_18797)">
<path d="M217.212 67.7725C218.371 66.4431 220.559 67.2734 220.545 69.0372L220.384 88.3522C220.38 88.9066 220.617 89.4358 221.035 89.8003L235.594 102.495C236.923 103.654 236.093 105.842 234.33 105.828L215.014 105.667C214.459 105.662 213.93 105.901 213.566 106.319L200.872 120.877C199.712 122.206 197.525 121.376 197.539 119.612L197.7 100.297C197.704 99.7429 197.466 99.2134 197.048 98.849L182.49 86.1545C181.16 84.9953 181.991 82.8074 183.754 82.822L203.069 82.9824C203.624 82.987 204.153 82.7488 204.518 82.3309L217.212 67.7725ZM210.589 89.5787C208.136 88.648 205.394 89.8816 204.463 92.3343C203.532 94.7871 204.766 97.5297 207.219 98.4606C209.671 99.3914 212.414 98.1578 213.345 95.705C214.276 93.2522 213.042 90.5095 210.589 89.5787Z" fill="url(#paint7_linear_2713_18797)"/>
</g>
<g filter="url(#filter9_i_2713_18797)">
<path d="M222.678 110.725C222.56 109.768 223.696 109.181 224.408 109.83L232.21 116.945C232.434 117.149 232.736 117.244 233.037 117.207L243.515 115.916C244.472 115.798 245.059 116.934 244.41 117.646L237.296 125.447C237.092 125.671 236.996 125.974 237.033 126.275L238.325 136.753C238.443 137.709 237.307 138.297 236.595 137.647L228.793 130.534C228.569 130.33 228.267 130.233 227.966 130.27L217.487 131.563C216.531 131.681 215.944 130.545 216.593 129.832L223.707 122.03C223.911 121.806 224.007 121.505 223.97 121.204L222.678 110.725ZM229.134 121.372C227.861 122.03 227.362 123.597 228.02 124.871C228.679 126.145 230.245 126.644 231.519 125.985C232.793 125.327 233.292 123.76 232.634 122.486C231.975 121.212 230.408 120.713 229.134 121.372Z" fill="url(#paint8_linear_2713_18797)"/>
</g>
<circle cx="230.466" cy="123.71" r="3.1236" fill="#2D3B57"/>
</g>
</g>
<defs>
<filter id="filter0_ii_2713_18797" x="86.0776" y="71.7812" width="124.495" height="128.153" filterUnits="userSpaceOnUse" color-interpolation-filters="sRGB">
<feFlood flood-opacity="0" result="BackgroundImageFix"/>
<feBlend mode="normal" in="SourceGraphic" in2="BackgroundImageFix" result="shape"/>
<feColorMatrix in="SourceAlpha" type="matrix" values="0 0 0 0 0 0 0 0 0 0 0 0 0 0 0 0 0 0 127 0" result="hardAlpha"/>
<feOffset dx="-6.70235" dy="1.48941"/>
<feGaussianBlur stdDeviation="5.54806"/>
<feComposite in2="hardAlpha" operator="arithmetic" k2="-1" k3="1"/>
<feColorMatrix type="matrix" values="0 0 0 0 1 0 0 0 0 0.912766 0 0 0 0 0.792818 0 0 0 0.8 0"/>
<feBlend mode="normal" in2="shape" result="effect1_innerShadow_2713_18797"/>
<feColorMatrix in="SourceAlpha" type="matrix" values="0 0 0 0 0 0 0 0 0 0 0 0 0 0 0 0 0 0 127 0" result="hardAlpha"/>
<feOffset dx="-0.744706" dy="0.744706"/>
<feGaussianBlur stdDeviation="0.372353"/>
<feComposite in2="hardAlpha" operator="arithmetic" k2="-1" k3="1"/>
<feColorMatrix type="matrix" values="0 0 0 0 0.871206 0 0 0 0 1 0 0 0 0 0.997853 0 0 0 0.5 0"/>
<feBlend mode="normal" in2="effect1_innerShadow_2713_18797" result="effect2_innerShadow_2713_18797"/>
</filter>
<filter id="filter1_n_2713_18797" x="58.4608" y="54.75" width="173.24" height="155.367" filterUnits="userSpaceOnUse" color-interpolation-filters="sRGB">
<feFlood flood-opacity="0" result="BackgroundImageFix"/>
<feBlend mode="normal" in="SourceGraphic" in2="BackgroundImageFix" result="shape"/>
<feTurbulence type="fractalNoise" baseFrequency="0.13987626135349274 0.13987626135349274" stitchTiles="stitch" numOctaves="3" result="noise" seed="1999" />
<feColorMatrix in="noise" type="luminanceToAlpha" result="alphaNoise" />
<feComponentTransfer in="alphaNoise" result="coloredNoise1">
<feFuncA type="discrete" tableValues="1 1 1 1 1 1 1 1 1 1 1 1 1 1 1 1 1 1 1 1 1 1 1 1 1 1 1 1 1 1 1 1 1 1 1 1 1 1 1 1 1 1 1 1 1 1 1 1 1 1 1 0 0 0 0 0 0 0 0 0 0 0 0 0 0 0 0 0 0 0 0 0 0 0 0 0 0 0 0 0 0 0 0 0 0 0 0 0 0 0 0 0 0 0 0 0 0 0 0 0 "/>
</feComponentTransfer>
<feComposite operator="in" in2="shape" in="coloredNoise1" result="noise1Clipped" />
<feFlood flood-color="rgba(0, 0, 0, 0.08)" result="color1Flood" />
<feComposite operator="in" in2="noise1Clipped" in="color1Flood" result="color1" />
<feMerge result="effect1_noise_2713_18797">
<feMergeNode in="shape" />
<feMergeNode in="color1" />
</feMerge>
</filter>
<filter id="filter2_ii_2713_18797" x="122.588" y="194.125" width="69.7918" height="27.88" filterUnits="userSpaceOnUse" color-interpolation-filters="sRGB">
<feFlood flood-opacity="0" result="BackgroundImageFix"/>
<feBlend mode="normal" in="SourceGraphic" in2="BackgroundImageFix" result="shape"/>
<feColorMatrix in="SourceAlpha" type="matrix" values="0 0 0 0 0 0 0 0 0 0 0 0 0 0 0 0 0 0 127 0" result="hardAlpha"/>
<feOffset dx="-8.19176" dy="1.48941"/>
<feGaussianBlur stdDeviation="3.94694"/>
<feComposite in2="hardAlpha" operator="arithmetic" k2="-1" k3="1"/>
<feColorMatrix type="matrix" values="0 0 0 0 0.869328 0 0 0 0 0.719989 0 0 0 0 1 0 0 0 0.2 0"/>
<feBlend mode="normal" in2="shape" result="effect1_innerShadow_2713_18797"/>
<feColorMatrix in="SourceAlpha" type="matrix" values="0 0 0 0 0 0 0 0 0 0 0 0 0 0 0 0 0 0 127 0" result="hardAlpha"/>
<feOffset dx="-0.744706"/>
<feGaussianBlur stdDeviation="0.372353"/>
<feComposite in2="hardAlpha" operator="arithmetic" k2="-1" k3="1"/>
<feColorMatrix type="matrix" values="0 0 0 0 0.858824 0 0 0 0 0.976471 0 0 0 0 0.984314 0 0 0 0.2 0"/>
<feBlend mode="normal" in2="effect1_innerShadow_2713_18797" result="effect2_innerShadow_2713_18797"/>
</filter>
<filter id="filter3_g_2713_18797" x="164.364" y="130.568" width="23.971" height="23.0204" filterUnits="userSpaceOnUse" color-interpolation-filters="sRGB">
<feFlood flood-opacity="0" result="BackgroundImageFix"/>
<feBlend mode="normal" in="SourceGraphic" in2="BackgroundImageFix" result="shape"/>
<feTurbulence type="fractalNoise" baseFrequency="2.2717092037200928 2.2717092037200928" numOctaves="3" seed="3511" />
<feDisplacementMap in="shape" scale="0.48910805583000183" xChannelSelector="R" yChannelSelector="G" result="displacedImage" width="100%" height="100%" />
<feMerge result="effect1_texture_2713_18797">
<feMergeNode in="displacedImage"/>
</feMerge>
</filter>
<filter id="filter4_g_2713_18797" x="128.278" y="134.701" width="25.5259" height="20.9422" filterUnits="userSpaceOnUse" color-interpolation-filters="sRGB">
<feFlood flood-opacity="0" result="BackgroundImageFix"/>
<feBlend mode="normal" in="SourceGraphic" in2="BackgroundImageFix" result="shape"/>
<feTurbulence type="fractalNoise" baseFrequency="2.2717092037200928 2.2717092037200928" numOctaves="3" seed="3511" />
<feDisplacementMap in="shape" scale="0.48910805583000183" xChannelSelector="R" yChannelSelector="G" result="displacedImage" width="100%" height="100%" />
<feMerge result="effect1_texture_2713_18797">
<feMergeNode in="displacedImage"/>
</feMerge>
</filter>
<filter id="filter5_g_2713_18797" x="132.036" y="137.865" width="19.115" height="14.1688" filterUnits="userSpaceOnUse" color-interpolation-filters="sRGB">
<feFlood flood-opacity="0" result="BackgroundImageFix"/>
<feBlend mode="normal" in="SourceGraphic" in2="BackgroundImageFix" result="shape"/>
<feTurbulence type="fractalNoise" baseFrequency="2.2717092037200928 2.2717092037200928" numOctaves="3" seed="3511" />
<feDisplacementMap in="shape" scale="0.48910805583000183" xChannelSelector="R" yChannelSelector="G" result="displacedImage" width="100%" height="100%" />
<feMerge result="effect1_texture_2713_18797">
<feMergeNode in="displacedImage"/>
</feMerge>
</filter>
<filter id="filter6_g_2713_18797" x="167.905" y="133.482" width="17.2279" height="15.7313" filterUnits="userSpaceOnUse" color-interpolation-filters="sRGB">
<feFlood flood-opacity="0" result="BackgroundImageFix"/>
<feBlend mode="normal" in="SourceGraphic" in2="BackgroundImageFix" result="shape"/>
<feTurbulence type="fractalNoise" baseFrequency="2.2717092037200928 2.2717092037200928" numOctaves="3" seed="3511" />
<feDisplacementMap in="shape" scale="0.48910805583000183" xChannelSelector="R" yChannelSelector="G" result="displacedImage" width="100%" height="100%" />
<feMerge result="effect1_texture_2713_18797">
<feMergeNode in="displacedImage"/>
</feMerge>
</filter>
<filter id="filter7_i_2713_18797" x="40.4513" y="131.906" width="70.3718" height="59.1491" filterUnits="userSpaceOnUse" color-interpolation-filters="sRGB">
<feFlood flood-opacity="0" result="BackgroundImageFix"/>
<feBlend mode="normal" in="SourceGraphic" in2="BackgroundImageFix" result="shape"/>
<feColorMatrix in="SourceAlpha" type="matrix" values="0 0 0 0 0 0 0 0 0 0 0 0 0 0 0 0 0 0 127 0" result="hardAlpha"/>
<feOffset dx="-2.27171" dy="-1.70378"/>
<feGaussianBlur stdDeviation="5.22492"/>
<feComposite in2="hardAlpha" operator="arithmetic" k2="-1" k3="1"/>
<feColorMatrix type="matrix" values="0 0 0 0 0.819608 0 0 0 0 0.807843 0 0 0 0 0.815686 0 0 0 1 0"/>
<feBlend mode="normal" in2="shape" result="effect1_innerShadow_2713_18797"/>
</filter>
<filter id="filter8_i_2713_18797" x="181.834" y="67.1172" width="54.4149" height="54.982" filterUnits="userSpaceOnUse" color-interpolation-filters="sRGB">
<feFlood flood-opacity="0" result="BackgroundImageFix"/>
<feBlend mode="normal" in="SourceGraphic" in2="BackgroundImageFix" result="shape"/>
<feColorMatrix in="SourceAlpha" type="matrix" values="0 0 0 0 0 0 0 0 0 0 0 0 0 0 0 0 0 0 127 0" result="hardAlpha"/>
<feOffset dy="0.567927"/>
<feGaussianBlur stdDeviation="3.0668"/>
<feComposite in2="hardAlpha" operator="arithmetic" k2="-1" k3="1"/>
<feColorMatrix type="matrix" values="0 0 0 0 0.802268 0 0 0 0 0.78906 0 0 0 0 0.90794 0 0 0 1 0"/>
<feBlend mode="normal" in2="shape" result="effect1_innerShadow_2713_18797"/>
</filter>
<filter id="filter9_i_2713_18797" x="216.319" y="109.555" width="28.3652" height="28.9351" filterUnits="userSpaceOnUse" color-interpolation-filters="sRGB">
<feFlood flood-opacity="0" result="BackgroundImageFix"/>
<feBlend mode="normal" in="SourceGraphic" in2="BackgroundImageFix" result="shape"/>
<feColorMatrix in="SourceAlpha" type="matrix" values="0 0 0 0 0 0 0 0 0 0 0 0 0 0 0 0 0 0 127 0" result="hardAlpha"/>
<feOffset dy="0.567927"/>
<feGaussianBlur stdDeviation="3.0668"/>
<feComposite in2="hardAlpha" operator="arithmetic" k2="-1" k3="1"/>
<feColorMatrix type="matrix" values="0 0 0 0 0.802268 0 0 0 0 0.78906 0 0 0 0 0.90794 0 0 0 1 0"/>
<feBlend mode="normal" in2="shape" result="effect1_innerShadow_2713_18797"/>
</filter>
<linearGradient id="paint0_linear_2713_18797" x1="216.032" y1="4.4242" x2="229.106" y2="107.111" gradientUnits="userSpaceOnUse">
<stop stop-color="#9CCFFF"/>
<stop offset="1" stop-color="#A7B3FF" stop-opacity="0"/>
</linearGradient>
<linearGradient id="paint1_linear_2713_18797" x1="16.8297" y1="158.503" x2="32.577" y2="282.184" gradientUnits="userSpaceOnUse">
<stop stop-color="#9CCFFF"/>
<stop offset="1" stop-color="#A7B3FF" stop-opacity="0"/>
</linearGradient>
<linearGradient id="paint2_linear_2713_18797" x1="230.81" y1="110.259" x2="75.1214" y2="176.326" gradientUnits="userSpaceOnUse">
<stop stop-color="#B2E5FF" stop-opacity="0.2"/>
<stop offset="1" stop-color="white" stop-opacity="0"/>
</linearGradient>
<linearGradient id="paint3_linear_2713_18797" x1="60.929" y1="79.4321" x2="123.857" y2="215.084" gradientUnits="userSpaceOnUse">
<stop stop-color="#3E4C8C"/>
<stop offset="0.586538" stop-color="#CECE84"/>
<stop offset="1" stop-color="#5B658F"/>
</linearGradient>
<linearGradient id="paint4_linear_2713_18797" x1="80.2851" y1="92.6438" x2="120.662" y2="147.769" gradientUnits="userSpaceOnUse">
<stop stop-color="#D9F9FF"/>
<stop offset="0.440397" stop-color="#D9F9FF" stop-opacity="0"/>
</linearGradient>
<linearGradient id="paint5_linear_2713_18797" x1="66.0511" y1="123.987" x2="68.7247" y2="137.656" gradientUnits="userSpaceOnUse">
<stop stop-color="#D9F9FF"/>
<stop offset="1" stop-color="#D9F9FF" stop-opacity="0"/>
</linearGradient>
<linearGradient id="paint6_linear_2713_18797" x1="60.7315" y1="133.229" x2="111.955" y2="176.72" gradientUnits="userSpaceOnUse">
<stop stop-color="#A5AAFF"/>
<stop offset="1" stop-color="#BE85FF"/>
</linearGradient>
<linearGradient id="paint7_linear_2713_18797" x1="219.318" y1="67.2453" x2="198.765" y2="121.404" gradientUnits="userSpaceOnUse">
<stop stop-color="#A2AFD0"/>
<stop offset="1" stop-color="#777E91"/>
</linearGradient>
<linearGradient id="paint8_linear_2713_18797" x1="223.232" y1="109.676" x2="237.771" y2="137.802" gradientUnits="userSpaceOnUse">
<stop stop-color="#6577A6"/>
<stop offset="1" stop-color="#777E91"/>
</linearGradient>
<clipPath id="clip0_2713_18797">
<rect width="298" height="274" fill="white"/>
</clipPath>
<clipPath id="clip1_2713_18797">
<rect width="228.327" height="168" fill="white" transform="translate(28 53)"/>
</clipPath>
</defs>
</svg>
