<svg width="23" height="23" viewBox="0 0 23 23" fill="none" xmlns="http://www.w3.org/2000/svg">
<path d="M8.67132 9.7032H6.3635C6.29406 9.70324 6.23088 9.73258 6.17316 9.79044C6.11529 9.84816 6.08596 9.91135 6.08592 9.98078V19.3513C6.08595 19.4207 6.11529 19.4839 6.17316 19.5416C6.23088 19.5995 6.29406 19.6288 6.3635 19.6289H16.6364C16.7058 19.6288 16.769 19.5995 16.8267 19.5416C16.8846 19.4839 16.9139 19.4207 16.9139 19.3513V9.98078C16.9139 9.91135 16.8846 9.84816 16.8267 9.79044C16.769 9.73258 16.7058 9.70324 16.6364 9.7032H14.3285V8.3497H16.6364C17.0921 8.34973 17.4776 8.50799 17.7933 8.82378C18.1091 9.13957 18.2674 9.525 18.2674 9.98078V19.3513C18.2674 19.8071 18.1091 20.1925 17.7933 20.5083C17.4776 20.8241 17.0921 20.9823 16.6364 20.9824H6.3635C5.90772 20.9823 5.52229 20.8241 5.2065 20.5083C4.89071 20.1925 4.73245 19.8071 4.73242 19.3513V9.98078C4.73245 9.525 4.89071 9.13957 5.2065 8.82378C5.52229 8.50799 5.90772 8.34973 6.3635 8.3497H8.67132V9.7032Z" fill="#7A51FF"/>
<path d="M14.7964 5.6427L13.8456 6.6076L12.1767 4.93864V14.8916H10.8232V4.93864L9.15421 6.6076L8.20341 5.6427L11.4999 2.34619L14.7964 5.6427Z" fill="#7A51FF"/>
</svg>
