<svg width="82" height="27" viewBox="0 0 82 27" fill="none" xmlns="http://www.w3.org/2000/svg">
<g clip-path="url(#clip0_2048_5031)">
<path d="M8.12481 5.39759H2.45656V0.699219H-0.204773V12.7337H2.45656V7.74995H8.12481V12.7337H10.785V0.699219H8.12481V5.39759ZM65.9158 1.38563C65.3574 1.95198 65.335 2.77833 65.3205 3.26003V12.7337H67.9775V8.89388H73.6225V12.7337H76.2911V0.699219H67.9966C67.2082 0.706417 66.4708 0.81986 65.9158 1.38563ZM68.6559 3.05071H73.6228V6.54412H67.9777V3.73799C67.9888 3.59978 67.9621 3.34929 68.0797 3.20101C68.2054 3.04466 68.4058 3.05733 68.6559 3.05071ZM47.0928 0.699219H38.783V12.7337H41.4443V3.05071H46.4341C46.6822 3.05733 46.8854 3.04466 47.0086 3.20072C47.1277 3.349 47.1041 3.5995 47.1126 3.7377V12.7334H49.7713V3.26003C49.7565 2.77833 49.7355 1.95198 49.1797 1.38563C48.6218 0.81986 47.8853 0.706417 47.0928 0.699219ZM33.7676 9.69374C33.758 9.83482 33.7821 10.0798 33.6648 10.2293C33.5387 10.3871 33.3363 10.3732 33.0895 10.3799H28.1008V0.699219H25.4383V12.7337H33.7498C34.5403 12.7276 35.2774 12.611 35.8335 12.0452C36.392 11.4797 36.4132 10.6545 36.4283 10.1711V0.699219H33.7681V9.69374H33.7676ZM63.1136 3.26003C63.1006 2.77833 63.0785 1.95198 62.5227 1.38563C61.9665 0.81986 61.2283 0.706417 60.439 0.699219H52.1309V12.7337H60.439C61.2283 12.7276 61.9665 12.611 62.5227 12.0452C63.0785 11.4797 63.1006 10.6545 63.1136 10.1711V3.26003ZM60.4631 9.69374C60.4535 9.83482 60.4779 10.0798 60.3614 10.2293C60.2365 10.3871 60.0318 10.3732 59.7847 10.3799H54.7896V3.05071H59.7847C60.0321 3.05733 60.2368 3.04466 60.3614 3.20072C60.4776 3.349 60.4532 3.5995 60.4631 3.7377V9.69374ZM18.1141 5.96452L14.8862 0.699219H11.725L16.6925 8.28636V12.7337H19.5339V8.28636L24.5005 0.699219H21.3382L18.1141 5.96452ZM78.9576 0.699219H81.7952V12.7337H78.9576V0.699219Z" fill="#003C83"/>
<path d="M-0.204773 15.8828H81.7952V17.6956H-0.204773V15.8828Z" fill="#003C83"/>
<path d="M53.1165 24.883C53.3782 24.8531 53.6146 24.7753 53.8056 24.579C54.0644 24.3172 54.0769 23.936 54.0818 23.7123V22.283C54.0766 22.0605 54.0641 21.6778 53.8056 21.4158C53.5498 21.1541 53.2086 21.1011 52.8435 21.0977H48.9805V26.6981H50.2295V24.8966H51.8079L53.0241 26.6981H54.342L53.1165 24.883ZM52.908 23.4998C52.9022 23.5574 52.8958 23.6176 52.8618 23.6619C52.8043 23.7345 52.7093 23.7296 52.5955 23.7296H50.2298V22.2643H52.5955C52.7093 22.2675 52.8043 22.2615 52.8618 22.3346C52.8958 22.3784 52.9025 22.4408 52.908 22.4955V23.4998ZM38.0076 24.883C38.2698 24.8531 38.5059 24.7753 38.6982 24.579C38.956 24.3172 38.9688 23.936 38.9738 23.7123V22.283C38.9688 22.0605 38.956 21.6778 38.6982 21.4158C38.4417 21.1541 38.0996 21.1011 37.7337 21.0977H33.8724V26.6981H35.12V24.8966H36.6993L37.9155 26.6981H39.2322L38.0076 24.883ZM37.7979 23.4998C37.7935 23.5574 37.7868 23.6176 37.7532 23.6619C37.6957 23.7345 37.6013 23.7296 37.4866 23.7296H35.1203V22.2643H37.4866C37.6013 22.2675 37.6957 22.2615 37.7532 22.3346C37.7871 22.3784 37.7938 22.4408 37.7979 22.4955V23.4998ZM21.856 21.0979V22.3242H23.7858V26.6984H25.0233V22.3242H26.9548V21.0979H21.856ZM8.96002 21.0979V26.6984H10.1963V23.1552L11.4064 26.6984H12.4993L13.7082 23.1552V26.6984H14.9442V21.0979H13.3049L11.9521 25.042L10.5997 21.0979H8.96002ZM67.5392 26.6984H68.7749V25.0932H71.3904C71.7574 25.0915 72.0984 25.0373 72.3534 24.7756C72.6127 24.5116 72.6246 24.1312 72.6307 23.9098V22.2842C72.6246 22.0608 72.6124 21.6801 72.3534 21.417C72.0981 21.1564 71.7571 21.1017 71.3904 21.0982H67.5392V26.6984ZM71.4519 23.6945C71.4493 23.7497 71.4435 23.8122 71.4095 23.8566C71.3514 23.928 71.257 23.9262 71.1418 23.9262H68.7749V22.264H71.1418C71.2568 22.2663 71.3514 22.2617 71.4095 22.3355C71.4435 22.3786 71.4496 22.4394 71.4519 22.4958V23.6945ZM44.0742 22.3927C44.1291 22.3219 44.2235 22.3257 44.3371 22.3231H47.8926V21.0979H44.0304C43.6645 21.1014 43.3241 21.1561 43.0651 21.4167C42.8063 21.6798 42.7973 22.0605 42.7915 22.283V25.5133C42.7976 25.7361 42.8066 26.1188 43.0651 26.3805C43.3244 26.6411 43.6645 26.6958 44.0304 26.6984H46.6525C47.019 26.6961 47.3594 26.6414 47.6173 26.3805C47.8743 26.1188 47.8862 25.7361 47.8923 25.5133V23.3418H45.2272V24.4353H46.654V25.24C46.6522 25.2971 46.6456 25.3595 46.6093 25.4022C46.5526 25.4741 46.4579 25.4701 46.3441 25.4718H44.3368C44.2229 25.4701 44.1288 25.4741 44.074 25.4016C44.0388 25.3595 44.0304 25.2971 44.0281 25.24V22.5551C44.0304 22.4996 44.0391 22.4377 44.0742 22.3927ZM65.2197 25.287C65.2153 25.3521 65.2261 25.4661 65.1729 25.5363C65.1125 25.6089 65.0199 25.6034 64.904 25.606H62.5877V21.0979H61.3523V26.6984H65.2118C65.5784 26.6967 65.9199 26.642 66.1801 26.3805C66.4377 26.1168 66.4478 25.7338 66.4539 25.5104V21.0979H65.2194L65.2197 25.287ZM60.0254 21.417C59.7692 21.1564 59.4263 21.1017 59.0612 21.0982H56.4391C56.0741 21.1017 55.7328 21.1564 55.4749 21.417C55.217 21.6801 55.2066 22.0608 55.1996 22.2842V25.5136C55.2066 25.7364 55.2173 26.1191 55.4749 26.3808C55.7331 26.6414 56.0741 26.6961 56.4391 26.6987H59.0612C59.4266 26.6964 59.7692 26.6417 60.0254 26.3808C60.2853 26.1191 60.2963 25.7364 60.3016 25.5136V22.2839C60.2961 22.0605 60.285 21.6798 60.0254 21.417ZM59.0633 25.2403C59.0609 25.2973 59.0543 25.3598 59.0206 25.4024C58.9625 25.4744 58.8693 25.4704 58.7543 25.4721H56.7481C56.6334 25.4704 56.539 25.4744 56.4827 25.4024C56.4469 25.3598 56.4391 25.2973 56.4356 25.2403V22.5554C56.4391 22.4996 56.4469 22.4377 56.4827 22.3936C56.539 22.3216 56.6337 22.3271 56.7481 22.3228H58.7543C58.8693 22.3271 58.9625 22.3216 59.0206 22.3936C59.0543 22.4374 59.0612 22.4993 59.0633 22.5554V25.2403ZM32.5362 21.417C32.2801 21.1564 31.9371 21.1017 31.5726 21.0982H28.9493C28.5849 21.1017 28.2436 21.1564 27.9857 21.417C27.7276 21.6801 27.7174 22.0608 27.7107 22.2842V25.5136C27.7171 25.7364 27.7276 26.1191 27.9857 26.3808C28.2436 26.6414 28.5849 26.6961 28.9493 26.6987H31.5726C31.9374 26.6964 32.2801 26.6417 32.5362 26.3808C32.7961 26.1191 32.8063 25.7364 32.8112 25.5136V22.2839C32.8063 22.0605 32.7961 21.6798 32.5362 21.417ZM31.5738 25.2403C31.5726 25.2973 31.5645 25.3598 31.5302 25.4024C31.4733 25.4744 31.3795 25.4704 31.2639 25.4721H29.2577C29.1439 25.4704 29.0501 25.4744 28.9935 25.4024C28.9583 25.3598 28.9493 25.2973 28.9464 25.2403V22.5554C28.9493 22.4996 28.9583 22.4377 28.9935 22.3936C29.0498 22.3216 29.1439 22.3271 29.2577 22.3228H31.2639C31.3795 22.3271 31.4736 22.3216 31.5302 22.3936C31.5648 22.4374 31.5726 22.4993 31.5738 22.5554V25.2403ZM20.8227 21.417C20.5672 21.1564 20.2242 21.1017 19.8592 21.0982H17.237C16.8711 21.1017 16.5296 21.1564 16.2735 21.417C16.0147 21.6801 16.004 22.0608 15.9967 22.2842V25.5136C16.004 25.7364 16.015 26.1191 16.2735 26.3808C16.5296 26.6414 16.8714 26.6961 17.237 26.6987H19.8592C20.2245 26.6964 20.5672 26.6417 20.8227 26.3808C21.0832 26.1191 21.0928 25.7364 21.0989 25.5136V22.2839C21.0928 22.0605 21.0832 21.6798 20.8227 21.417ZM19.8609 25.2403C19.8592 25.2973 19.8531 25.3598 19.8173 25.4024C19.7604 25.4744 19.666 25.4704 19.5513 25.4721H17.5452C17.4307 25.4704 17.3361 25.4744 17.2806 25.4024C17.2455 25.3598 17.237 25.2973 17.2338 25.2403V22.5554C17.237 22.4996 17.2455 22.4377 17.2806 22.3936C17.3361 22.3216 17.4307 22.3271 17.5452 22.3228H19.5513C19.6657 22.3271 19.7604 22.3216 19.8173 22.3936C19.8531 22.4374 19.8592 22.4993 19.8609 22.5554V25.2403Z" fill="#003C83"/>
</g>
<defs>
<clipPath id="clip0_2048_5031">
<rect width="82" height="26" fill="white" transform="translate(-0.204773 0.699219)"/>
</clipPath>
</defs>
</svg>
