<svg width="298" height="274" viewBox="0 0 298 274" fill="none" xmlns="http://www.w3.org/2000/svg">
<g clip-path="url(#clip0_2959_18425)">
<path d="M0.711893 19.1249L0.606439 19.2835L0.789741 19.3352L0.607021 19.3889L0.71422 19.5463L0.539731 19.47L0.520667 19.6595L0.436054 19.4889L0.299648 19.6218L0.344502 19.4367L0.154579 19.4508L0.307913 19.3379L0.153341 19.2266L0.343408 19.2386L0.296512 19.054L0.434378 19.1854L0.517101 19.0139L0.538257 19.2032L0.711893 19.1249Z" fill="white"/>
<path d="M63.4837 37.9531L63.3782 38.1116L63.5615 38.1633L63.3788 38.217L63.486 38.3744L63.3115 38.2981L63.2925 38.4876L63.2078 38.317L63.0714 38.4499L63.1163 38.2648L62.9264 38.2789L63.0797 38.166L62.9251 38.0547L63.1152 38.0668L63.0683 37.8822L63.2062 38.0136L63.2889 37.842L63.31 38.0313L63.4837 37.9531Z" fill="white"/>
<path d="M25.1145 59.5937L25.0091 59.7523L25.1924 59.8039L25.0097 59.8576L25.1169 60.0151L24.9424 59.9387L24.9233 60.1282L24.8387 59.9576L24.7023 60.0905L24.7472 59.9054L24.5572 59.9196L24.7106 59.8066L24.556 59.6953L24.7461 59.7074L24.6992 59.5228L24.837 59.6542L24.9198 59.4826L24.9409 59.6719L25.1145 59.5937Z" fill="white"/>
<path d="M31.016 25.164L30.9106 25.3226L31.0939 25.3743L30.9112 25.428L31.0184 25.5854L30.8439 25.5091L30.8248 25.6985L30.7402 25.5279L30.6038 25.6608L30.6486 25.4757L30.4587 25.4899L30.6121 25.3769L30.4575 25.2657L30.6475 25.2777L30.6007 25.0931L30.7385 25.2245L30.8212 25.053L30.8424 25.2422L31.016 25.164Z" fill="white"/>
<path d="M12.9792 33.3593L12.8737 33.5179L13.057 33.5696L12.8743 33.6233L12.9815 33.7807L12.807 33.7044L12.7879 33.8939L12.7033 33.7232L12.5669 33.8561L12.6118 33.6711L12.4219 33.6852L12.5752 33.5722L12.4206 33.461L12.6107 33.473L12.5638 33.2884L12.7017 33.4198L12.7844 33.2483L12.8055 33.4375L12.9792 33.3593Z" fill="white"/>
<path d="M127.104 54.0234L126.999 54.182L127.182 54.2336L126.999 54.2873L127.107 54.4447L126.932 54.3684L126.913 54.5579L126.828 54.3873L126.692 54.5202L126.737 54.3351L126.547 54.3492L126.7 54.2363L126.546 54.125L126.736 54.1371L126.689 53.9525L126.827 54.0839L126.909 53.9123L126.931 54.1016L127.104 54.0234Z" fill="white"/>
<path d="M69.7135 19.9218L69.608 20.0804L69.7913 20.1321L69.6086 20.1858L69.7158 20.3432L69.5413 20.2669L69.5223 20.4564L69.4376 20.2857L69.3012 20.4186L69.3461 20.2336L69.1562 20.2477L69.3095 20.1347L69.1549 20.0235L69.345 20.0355L69.2981 19.8509L69.436 19.9823L69.5187 19.8108L69.5398 20L69.7135 19.9218Z" fill="white"/>
<path d="M208.761 38.9374L208.656 39.096L208.839 39.1477L208.657 39.2014L208.764 39.3588L208.589 39.2825L208.57 39.472L208.486 39.3014L208.349 39.4343L208.394 39.2492L208.204 39.2633L208.357 39.1504L208.203 39.0391L208.393 39.0511L208.346 38.8665L208.484 38.9979L208.567 38.8264L208.588 39.0157L208.761 38.9374Z" fill="white"/>
<path d="M132.68 92.7187L132.574 92.8773L132.757 92.9289L132.575 92.9826L132.682 93.1401L132.507 93.0637L132.488 93.2532L132.404 93.0826L132.267 93.2155L132.312 93.0304L132.122 93.0446L132.276 92.9316L132.121 92.8203L132.311 92.8324L132.264 92.6478L132.402 92.7792L132.485 92.6076L132.506 92.7969L132.68 92.7187Z" fill="white"/>
<path d="M69.3873 66.8124L69.2819 66.971L69.4652 67.0227L69.2824 67.0764L69.3896 67.2338L69.2151 67.1575L69.1961 67.347L69.1115 67.1764L68.9751 67.3093L69.0199 67.1242L68.83 67.1383L68.9833 67.0254L68.8288 66.9141L69.0188 66.9261L68.9719 66.7415L69.1098 66.8729L69.1925 66.7014L69.2137 66.8907L69.3873 66.8124Z" fill="white"/>
<path d="M66.7636 117.641L66.6581 117.799L66.8414 117.851L66.6587 117.905L66.7659 118.062L66.5914 117.986L66.5724 118.175L66.4878 118.004L66.3513 118.137L66.3962 117.952L66.2063 117.966L66.3596 117.853L66.205 117.742L66.3951 117.754L66.3482 117.57L66.4861 117.701L66.5688 117.53L66.59 117.719L66.7636 117.641Z" fill="white"/>
<path d="M262.872 113.047L262.767 113.205L262.95 113.257L262.767 113.311L262.875 113.468L262.7 113.392L262.681 113.581L262.597 113.411L262.46 113.544L262.505 113.359L262.315 113.373L262.468 113.26L262.314 113.148L262.504 113.161L262.457 112.976L262.595 113.107L262.678 112.936L262.699 113.125L262.872 113.047Z" fill="white"/>
<path d="M199.252 273.75L199.146 273.909L199.33 273.96L199.147 274.014L199.254 274.171L199.08 274.095L199.061 274.284L198.976 274.114L198.84 274.247L198.884 274.062L198.694 274.076L198.848 273.963L198.693 273.852L198.883 273.864L198.836 273.679L198.974 273.81L199.057 273.639L199.078 273.828L199.252 273.75Z" fill="white"/>
<path d="M256.971 149.453L256.865 149.612L257.048 149.663L256.866 149.717L256.973 149.874L256.798 149.798L256.779 149.988L256.695 149.817L256.558 149.95L256.603 149.765L256.413 149.779L256.567 149.666L256.412 149.555L256.602 149.567L256.555 149.382L256.693 149.514L256.776 149.342L256.797 149.531L256.971 149.453Z" fill="white"/>
<path d="M167.769 123.547L167.663 123.705L167.847 123.757L167.664 123.811L167.771 123.968L167.597 123.892L167.578 124.081L167.493 123.911L167.357 124.044L167.401 123.859L167.212 123.873L167.365 123.76L167.21 123.648L167.4 123.661L167.353 123.476L167.491 123.607L167.574 123.436L167.595 123.625L167.769 123.547Z" fill="white"/>
<path d="M99.2291 247.508L99.1237 247.666L99.307 247.718L99.1242 247.772L99.2314 247.929L99.0569 247.853L99.0379 248.042L98.9533 247.872L98.8169 248.005L98.8617 247.819L98.6718 247.834L98.8251 247.721L98.6706 247.609L98.8606 247.621L98.8137 247.437L98.9516 247.568L99.0343 247.397L99.0555 247.586L99.2291 247.508Z" fill="white"/>
<path d="M19.539 210.125L19.4336 210.284L19.6169 210.335L19.4342 210.389L19.5414 210.546L19.3669 210.47L19.3478 210.659L19.2632 210.489L19.1268 210.622L19.1717 210.437L18.9817 210.451L19.1351 210.338L18.9805 210.227L19.1706 210.239L19.1237 210.054L19.2615 210.185L19.3442 210.014L19.3654 210.203L19.539 210.125Z" fill="white"/>
<path d="M20.5237 96.3281L20.4182 96.4866L20.6015 96.5383L20.4188 96.592L20.526 96.7494L20.3515 96.6731L20.3324 96.8626L20.2478 96.692L20.1114 96.8249L20.1563 96.6398L19.9663 96.6539L20.1197 96.541L19.9651 96.4297L20.1552 96.4418L20.1083 96.2572L20.2461 96.3886L20.3289 96.217L20.35 96.4063L20.5237 96.3281Z" fill="white"/>
<path d="M126.12 107.148L126.014 107.307L126.198 107.359L126.015 107.412L126.122 107.57L125.948 107.493L125.928 107.683L125.844 107.512L125.707 107.645L125.752 107.46L125.562 107.474L125.716 107.361L125.561 107.25L125.751 107.262L125.704 107.077L125.842 107.209L125.925 107.037L125.946 107.227L126.12 107.148Z" fill="white"/>
<path d="M276.318 185.203L276.213 185.362L276.396 185.413L276.214 185.467L276.321 185.624L276.146 185.548L276.127 185.738L276.043 185.567L275.906 185.7L275.951 185.515L275.761 185.529L275.914 185.416L275.76 185.305L275.95 185.317L275.903 185.132L276.041 185.264L276.124 185.092L276.145 185.281L276.318 185.203Z" fill="white"/>
<path d="M232.702 225.531L232.597 225.69L232.78 225.741L232.597 225.795L232.704 225.953L232.53 225.876L232.511 226.066L232.426 225.895L232.29 226.028L232.335 225.843L232.145 225.857L232.298 225.744L232.143 225.633L232.334 225.645L232.287 225.46L232.424 225.592L232.507 225.42L232.528 225.609L232.702 225.531Z" fill="white"/>
<path d="M172.36 134.367L172.254 134.526L172.438 134.577L172.255 134.631L172.362 134.788L172.188 134.712L172.169 134.902L172.084 134.731L171.948 134.864L171.992 134.679L171.802 134.693L171.956 134.58L171.801 134.469L171.991 134.481L171.944 134.296L172.082 134.428L172.165 134.256L172.186 134.445L172.36 134.367Z" fill="white"/>
<path d="M243.525 75.0077L243.419 75.1663L243.602 75.218L243.42 75.2717L243.527 75.4291L243.352 75.3528L243.333 75.5423L243.249 75.3717L243.112 75.5046L243.157 75.3195L242.967 75.3336L243.121 75.2207L242.966 75.1094L243.156 75.1214L243.109 74.9369L243.247 75.0682L243.33 74.8967L243.351 75.086L243.525 75.0077Z" fill="white"/>
<path d="M32.0007 243.906L31.8952 244.065L32.0785 244.116L31.8958 244.17L32.003 244.328L31.8285 244.251L31.8094 244.441L31.7248 244.27L31.5884 244.403L31.6333 244.218L31.4433 244.232L31.5967 244.119L31.4421 244.008L31.6322 244.02L31.5853 243.835L31.7231 243.967L31.8059 243.795L31.827 243.984L32.0007 243.906Z" fill="white"/>
<path d="M24.1299 144.859L24.0245 145.018L24.2078 145.07L24.0251 145.123L24.1322 145.281L23.9578 145.204L23.9387 145.394L23.8541 145.223L23.7177 145.356L23.7625 145.171L23.5726 145.185L23.7259 145.072L23.5714 144.961L23.7614 144.973L23.7145 144.788L23.8524 144.92L23.9351 144.748L23.9563 144.938L24.1299 144.859Z" fill="white"/>
<path d="M204.827 141.25L204.722 141.409L204.905 141.46L204.722 141.514L204.829 141.671L204.655 141.595L204.636 141.784L204.551 141.614L204.415 141.747L204.46 141.562L204.27 141.576L204.423 141.463L204.269 141.352L204.459 141.364L204.412 141.179L204.55 141.31L204.632 141.139L204.653 141.328L204.827 141.25Z" fill="white"/>
<path d="M152.355 188.484L152.25 188.643L152.433 188.695L152.251 188.748L152.358 188.906L152.183 188.829L152.164 189.019L152.08 188.848L151.943 188.981L151.988 188.796L151.798 188.81L151.951 188.697L151.797 188.586L151.987 188.598L151.94 188.413L152.078 188.545L152.161 188.373L152.182 188.563L152.355 188.484Z" fill="white"/>
<path d="M187.331 211.031L187.12 211.349L187.486 211.452L187.121 211.56L187.335 211.875L186.986 211.722L186.948 212.101L186.779 211.76L186.506 212.026L186.596 211.655L186.215 211.683L186.522 211.457L186.213 211.235L186.593 211.259L186.499 210.89L186.775 211.152L186.941 210.809L186.983 211.188L187.331 211.031Z" fill="white"/>
<path d="M106.173 155.281L105.962 155.599L106.329 155.702L105.963 155.81L106.178 156.125L105.829 155.972L105.79 156.351L105.621 156.01L105.348 156.276L105.438 155.905L105.058 155.933L105.365 155.707L105.055 155.485L105.436 155.509L105.342 155.14L105.618 155.402L105.783 155.059L105.826 155.438L106.173 155.281Z" fill="white"/>
<path d="M225.872 19.5157L225.661 19.8331L226.028 19.9365L225.662 20.0439L225.876 20.3589L225.527 20.2062L225.489 20.5854L225.32 20.244L225.047 20.5099L225.137 20.1395L224.757 20.1678L225.063 19.9418L224.754 19.7192L225.134 19.7432L225.041 19.3739L225.316 19.6368L225.482 19.2936L225.524 19.6723L225.872 19.5157Z" fill="white"/>
<path d="M154.38 20.4923L154.169 20.8096L154.536 20.913L154.17 21.0205L154.385 21.3355L154.036 21.1828L153.998 21.5619L153.828 21.2205L153.555 21.4865L153.645 21.1161L153.265 21.1444L153.572 20.9184L153.263 20.6957L153.643 20.7198L153.549 20.3505L153.825 20.6134L153.991 20.2701L154.033 20.6488L154.38 20.4923Z" fill="white"/>
<path d="M294.085 212.016L293.874 212.333L294.24 212.436L293.875 212.544L294.089 212.859L293.74 212.706L293.702 213.085L293.533 212.744L293.26 213.01L293.35 212.64L292.97 212.668L293.276 212.442L292.967 212.219L293.347 212.243L293.254 211.874L293.529 212.137L293.695 211.794L293.737 212.172L294.085 212.016Z" fill="white"/>
<path d="M65.1803 204.141L64.9693 204.458L65.3361 204.561L64.9704 204.669L65.1849 204.984L64.8358 204.831L64.7976 205.21L64.6283 204.869L64.3554 205.135L64.4451 204.765L64.0651 204.793L64.3719 204.567L64.0626 204.344L64.4429 204.368L64.3491 203.999L64.625 204.262L64.7905 203.919L64.8328 204.297L65.1803 204.141Z" fill="white"/>
<path d="M18.284 184.797L18.073 185.114L18.4398 185.218L18.0741 185.325L18.2886 185.64L17.9395 185.487L17.9013 185.867L17.732 185.525L17.4591 185.791L17.5488 185.421L17.1688 185.449L17.4756 185.223L17.1663 185L17.5466 185.024L17.4528 184.655L17.7287 184.918L17.8942 184.575L17.9365 184.954L18.284 184.797Z" fill="white"/>
<path d="M2.21434 108.383L2.00333 108.7L2.37012 108.804L2.00449 108.911L2.219 109.226L1.86985 109.073L1.8317 109.453L1.66239 109.111L1.38944 109.377L1.47919 109.007L1.09916 109.035L1.40598 108.809L1.09668 108.586L1.477 108.61L1.38316 108.241L1.65903 108.504L1.82456 108.161L1.8669 108.539L2.21434 108.383Z" fill="white"/>
<path d="M233.712 1.33035L233.481 1.32337L233.652 1.56697L233.407 1.39854L233.417 1.63094L233.274 1.37987L233.118 1.49233L233.143 1.2761L232.895 1.21599L233.077 1.13578L232.852 0.931231L233.105 1.02457L233.009 0.771291L233.216 0.994504L233.293 0.811009L233.356 1.05965L233.571 1.0318L233.461 1.18953L233.712 1.33035Z" fill="white"/>
<path d="M294.217 84.5569L293.986 84.5499L294.156 84.7935L293.912 84.6251L293.922 84.8575L293.778 84.6064L293.623 84.7189L293.648 84.5027L293.4 84.4426L293.581 84.3623L293.357 84.1578L293.61 84.2511L293.514 83.9979L293.72 84.2211L293.798 84.0376L293.861 84.2862L294.075 84.2584L293.965 84.4161L294.217 84.5569Z" fill="white"/>
<path d="M273.153 118.221L272.921 118.214L273.092 118.458L272.848 118.289L272.857 118.522L272.714 118.27L272.559 118.383L272.584 118.167L272.336 118.107L272.517 118.026L272.293 117.822L272.546 117.915L272.45 117.662L272.656 117.885L272.734 117.702L272.796 117.95L273.011 117.922L272.901 118.08L273.153 118.221Z" fill="white"/>
<path d="M219.974 28.4085L219.743 28.4015L219.913 28.6451L219.669 28.4767L219.679 28.7091L219.535 28.458L219.38 28.5705L219.405 28.3542L219.157 28.2941L219.338 28.2139L219.114 28.0094L219.367 28.1027L219.271 27.8494L219.477 28.0726L219.555 27.8891L219.618 28.1378L219.832 28.1099L219.722 28.2677L219.974 28.4085Z" fill="white"/>
<path d="M181.067 61.385L180.836 61.3781L181.006 61.6217L180.762 61.4532L180.772 61.6856L180.629 61.4346L180.473 61.547L180.498 61.3308L180.25 61.2707L180.432 61.1905L180.207 60.9859L180.46 61.0793L180.364 60.826L180.57 61.0492L180.648 60.8657L180.711 61.1143L180.926 61.0865L180.816 61.2442L181.067 61.385Z" fill="white"/>
<path d="M290.994 179.658L290.762 179.651L290.933 179.895L290.688 179.727L290.698 179.959L290.555 179.708L290.4 179.82L290.425 179.604L290.177 179.544L290.358 179.464L290.134 179.259L290.387 179.353L290.291 179.099L290.497 179.323L290.574 179.139L290.637 179.388L290.852 179.36L290.742 179.518L290.994 179.658Z" fill="white"/>
<path d="M125.913 189.885L125.682 189.878L125.852 190.122L125.608 189.953L125.618 190.186L125.475 189.935L125.319 190.047L125.344 189.831L125.096 189.771L125.278 189.69L125.053 189.486L125.306 189.579L125.21 189.326L125.416 189.549L125.494 189.366L125.557 189.614L125.772 189.586L125.662 189.744L125.913 189.885Z" fill="white"/>
<path d="M62.3285 73.4319L62.0972 73.4249L62.2677 73.6685L62.0233 73.5001L62.0331 73.7325L61.89 73.4814L61.7345 73.5939L61.7595 73.3777L61.5115 73.3176L61.693 73.2373L61.4685 73.0328L61.7216 73.1261L61.6256 72.8729L61.8318 73.0961L61.9094 72.9126L61.9722 73.1612L62.1869 73.1334L62.077 73.2911L62.3285 73.4319Z" fill="white"/>
<path d="M255.54 121.018L255.309 121.011L255.48 121.254L255.235 121.086L255.245 121.318L255.102 121.067L254.946 121.18L254.971 120.964L254.723 120.903L254.905 120.823L254.68 120.619L254.933 120.712L254.837 120.459L255.044 120.682L255.121 120.499L255.184 120.747L255.399 120.719L255.289 120.877L255.54 121.018Z" fill="white"/>
<path d="M288.526 192.494L288.295 192.487L288.466 192.731L288.221 192.563L288.231 192.795L288.088 192.544L287.932 192.656L287.958 192.44L287.709 192.38L287.891 192.3L287.666 192.095L287.92 192.189L287.824 191.935L288.03 192.159L288.107 191.975L288.17 192.224L288.385 192.196L288.275 192.354L288.526 192.494Z" fill="white"/>
<path d="M52.5207 111.393L52.2894 111.386L52.4599 111.629L52.2155 111.461L52.2253 111.693L52.0822 111.442L51.9267 111.555L51.9517 111.339L51.7037 111.278L51.8852 111.198L51.6607 110.994L51.9138 111.087L51.8178 110.834L52.024 111.057L52.1016 110.874L52.1644 111.122L52.3791 111.094L52.2692 111.252L52.5207 111.393Z" fill="white"/>
<path d="M113.661 32.471L113.43 32.464L113.6 32.7076L113.356 32.5392L113.366 32.7716L113.222 32.5205L113.067 32.633L113.092 32.4167L112.844 32.3566L113.025 32.2764L112.801 32.0719L113.054 32.1652L112.958 31.9119L113.164 32.1351L113.242 31.9516L113.305 32.2003L113.519 32.1724L113.409 32.3302L113.661 32.471Z" fill="white"/>
<path d="M227.667 208.158L227.436 208.151L227.607 208.395L227.362 208.227L227.372 208.459L227.229 208.208L227.073 208.32L227.098 208.104L226.85 208.044L227.032 207.964L226.807 207.759L227.06 207.853L226.964 207.599L227.171 207.823L227.248 207.639L227.311 207.888L227.526 207.86L227.416 208.018L227.667 208.158Z" fill="white"/>
<path d="M251.23 263.614L250.767 263.6L251.108 264.088L250.619 263.751L250.639 264.216L250.352 263.713L250.041 263.938L250.091 263.506L249.595 263.385L249.958 263.225L249.509 262.816L250.015 263.002L249.823 262.496L250.236 262.942L250.391 262.575L250.517 263.073L250.946 263.017L250.726 263.332L251.23 263.614Z" fill="white"/>
<path d="M198.973 132.513L198.51 132.499L198.851 132.986L198.362 132.649L198.382 133.114L198.095 132.612L197.784 132.837L197.834 132.404L197.338 132.284L197.701 132.123L197.252 131.714L197.758 131.901L197.566 131.394L197.979 131.841L198.134 131.473L198.26 131.971L198.69 131.915L198.47 132.231L198.973 132.513Z" fill="white"/>
<path d="M118.115 120.763L117.652 120.749L117.993 121.236L117.504 120.899L117.524 121.364L117.237 120.862L116.926 121.087L116.976 120.654L116.48 120.534L116.843 120.373L116.394 119.964L116.9 120.151L116.708 119.644L117.121 120.091L117.276 119.723L117.402 120.221L117.832 120.165L117.612 120.481L118.115 120.763Z" fill="white"/>
<path d="M32.6116 181.81L32.1489 181.796L32.4901 182.283L32.0011 181.946L32.0207 182.411L31.7343 181.909L31.4231 182.134L31.4732 181.701L30.9768 181.581L31.3401 181.42L30.8908 181.011L31.3972 181.198L31.2052 180.691L31.6178 181.138L31.773 180.77L31.8987 181.268L32.3284 181.212L32.1085 181.528L32.6116 181.81Z" fill="white"/>
<path d="M78.8212 54.0986L78.3585 54.0846L78.6997 54.5721L78.2107 54.2351L78.2303 54.7001L77.9439 54.1977L77.6326 54.4227L77.6828 53.9901L77.1864 53.8698L77.5497 53.7093L77.1004 53.3L77.6068 53.4867L77.4148 52.9799L77.8274 53.4266L77.9826 53.0594L78.1083 53.557L78.538 53.5012L78.3181 53.8168L78.8212 54.0986Z" fill="white"/>
<path d="M2.16414 122.606L1.70138 122.592L2.0426 123.08L1.5536 122.743L1.57318 123.208L1.28675 122.706L0.975541 122.931L1.02569 122.498L0.529315 122.378L0.89259 122.217L0.443298 121.808L0.949715 121.995L0.75774 121.488L1.17034 121.934L1.32551 121.567L1.45123 122.065L1.88094 122.009L1.66096 122.325L2.16414 122.606Z" fill="white"/>
<path d="M248.827 84.7383C249.481 85.8464 248.216 87.0914 247.119 86.4188L232.443 77.4233C231.735 76.9893 230.809 77.364 230.602 78.1682L226.312 94.8385C225.992 96.0849 224.217 96.0704 223.916 94.8189L219.9 78.0807C219.706 77.2732 218.786 76.8835 218.071 77.3058L203.25 86.0602C202.142 86.7147 200.897 85.4492 201.57 84.352L210.565 69.6761C210.999 68.9682 210.625 68.0422 209.82 67.8353L193.15 63.5456C191.904 63.2249 191.918 61.4497 193.17 61.1494L209.908 57.1328C210.715 56.9391 211.105 56.0194 210.683 55.3044L201.928 40.4835C201.274 39.3754 202.539 38.1304 203.637 38.803L218.312 47.7985C219.02 48.2325 219.946 47.8578 220.153 47.0536L224.443 30.3833C224.764 29.1369 226.539 29.1514 226.839 30.4029L230.856 47.1411C231.049 47.9485 231.969 48.3383 232.684 47.916L247.505 39.1616C248.613 38.5071 249.858 39.7725 249.186 40.8698L240.19 55.5456C239.756 56.2536 240.131 57.1795 240.935 57.3865L257.605 61.6762C258.852 61.9969 258.837 63.772 257.586 64.0723L240.847 68.0889C240.04 68.2827 239.65 69.2024 240.073 69.9173L248.827 84.7383Z" fill="url(#paint0_linear_2959_18425)"/>
<path d="M56.3298 255.237C57.1181 256.572 55.5939 258.071 54.2723 257.261L36.596 246.427C35.7432 245.904 34.628 246.355 34.3788 247.324L29.212 267.402C28.8257 268.904 26.6877 268.886 26.326 267.379L21.4882 247.218C21.2548 246.246 20.1471 245.776 19.286 246.285L1.43483 256.829C0.100186 257.618 -1.39929 256.094 -0.589232 254.772L10.2454 237.096C10.7681 236.243 10.3168 235.128 9.34821 234.878L-10.7304 229.712C-12.2315 229.325 -12.2141 227.187 -10.7068 226.826L9.45359 221.988C10.4261 221.754 10.8956 220.647 10.3869 219.786L-0.157297 201.934C-0.945641 200.6 0.578545 199.1 1.90013 199.91L19.5765 210.745C20.4292 211.268 21.5444 210.816 21.7937 209.848L26.9604 189.769C27.3467 188.268 29.4848 188.286 29.8465 189.793L34.6843 209.953C34.9177 210.926 36.0253 211.395 36.8865 210.887L54.7376 200.342C56.0723 199.554 57.5718 201.078 56.7617 202.4L45.927 220.076C45.4044 220.929 45.8556 222.044 46.8243 222.293L66.9028 227.46C68.404 227.846 68.3865 229.984 66.8792 230.346L46.7189 235.184C45.7463 235.417 45.2769 236.525 45.7855 237.386L56.3298 255.237Z" fill="url(#paint1_linear_2959_18425)"/>
<g filter="url(#filter0_d_2959_18425)">
<path d="M114.224 131.481L199.461 176.622L199.754 176.778L199.596 177.07L187.456 199.481L187.435 199.518L187.407 199.548L187.405 199.549C187.404 199.55 187.402 199.552 187.4 199.554C187.396 199.558 187.391 199.566 187.384 199.575C187.368 199.592 187.343 199.616 187.312 199.649C187.25 199.714 187.159 199.811 187.041 199.933C186.977 199.999 186.904 200.072 186.824 200.152L162.374 244.323C161.051 246.713 157.966 247.725 155.483 246.582C153.001 245.44 152.062 242.577 153.385 240.186L169.922 210.311C169.932 210.27 169.945 210.228 169.96 210.185C170.02 210.009 170.124 209.788 170.272 209.512C170.494 209.097 170.454 208.612 170.195 208.129C169.934 207.643 169.462 207.19 168.888 206.896C168.316 206.602 167.666 206.478 167.055 206.612C166.571 206.719 166.089 206.995 165.67 207.517L155.473 226.554C153.409 230.408 148.495 232.093 144.5 230.319C140.504 228.544 138.938 223.982 141.002 220.128L151.054 201.36L151.008 201.337L151.186 201.031C153.29 197.386 153.769 194.219 153.239 191.719C152.71 189.221 151.168 187.355 149.16 186.306C145.149 184.211 139.211 185.36 135.792 191.493L135.633 191.778L135.623 191.772L128.095 205.543C126.434 208.58 122.533 209.881 119.382 208.451C116.231 207.02 115.021 203.398 116.681 200.362L125.021 185.107C125.367 183.615 124.355 182.179 122.876 181.393C122.072 180.966 121.173 180.761 120.37 180.857C119.654 180.943 119.012 181.267 118.554 181.899L99.8262 215.731C97.7088 219.556 92.7719 221.175 88.8002 219.348C84.8287 217.52 83.3256 212.937 85.4429 209.112L103.412 176.65L103.35 176.627L103.498 176.307C103.828 175.598 103.964 174.987 103.969 174.522C103.974 174.046 103.843 173.779 103.713 173.671C103.615 173.589 103.437 173.537 103.127 173.72C102.85 173.882 102.509 174.215 102.145 174.779L87.8888 199.085C86.4425 201.55 83.1972 202.532 80.6409 201.277C78.0848 200.022 77.1848 197.006 78.6307 194.54L92.6373 170.663L92.6049 170.647L92.7671 170.35L113.781 131.616L113.936 131.329L114.224 131.481Z" fill="url(#paint2_linear_2959_18425)"/>
</g>
<g filter="url(#filter1_ii_2959_18425)">
<path d="M173.044 61.8977C173.998 60.6378 175.801 60.456 177.013 61.4703C187.911 70.598 190.84 78.8103 190.911 83.8573C190.938 85.7555 188.854 86.4483 187.149 85.6126C184.86 84.4906 182.772 83.9424 181.071 83.7253C181.769 86.3508 182.934 92.1561 183.281 98.5228C223.217 108.757 219.998 130.394 215.815 144.548L220.513 146.787C222.816 147.885 223.126 151.036 221.082 152.561L212.554 158.919C212.324 159.09 212.081 159.225 211.834 159.329C210.76 164.859 209.976 170.803 209.449 175.865C208.901 181.129 204.124 184.867 199.331 182.622C195.705 180.924 191.857 180.993 188.413 183.036L185.568 184.724C181.927 186.883 177.552 187.431 173.49 186.237L133.2 174.389C129.296 173.241 126.013 170.579 124.082 166.997L123.402 165.735C120.979 161.242 116.391 158.479 111.523 156.944C103.027 154.265 97.4707 149.012 99.6435 144.578C101.994 139.783 106.194 133.868 109.964 127.899L106.538 122.674C105.139 120.541 106.511 117.685 109.05 117.443L115.827 116.799C126.26 82.7041 155.169 86.2117 173.199 94.2634C173.526 90.8142 173.749 86.9602 173.641 83.503C171.43 83.4872 169.42 83.7764 167.698 84.2017C165.313 84.7899 162.54 82.9309 163.211 80.5688C165.245 73.4151 169.741 66.2597 173.044 61.8977Z" fill="#AEC336"/>
</g>
<g filter="url(#filter2_n_2959_18425)">
<ellipse cx="163.938" cy="121.067" rx="86.3247" ry="76.9748" transform="rotate(18.066 163.938 121.067)" fill="url(#paint3_linear_2959_18425)" fill-opacity="0.9"/>
<path d="M187.602 48.5206C232.648 63.2142 258.422 107.631 245.374 147.631C232.326 187.631 185.319 208.307 140.274 193.614C95.2282 178.92 69.455 134.503 82.5026 94.5035C95.5504 54.5038 142.557 33.8272 187.602 48.5206Z" stroke="url(#paint4_linear_2959_18425)" stroke-width="1.33268"/>
</g>
<g filter="url(#filter3_ii_2959_18425)">
<path d="M117.016 194.984L115.852 185.406C115.579 183.158 117.37 181.191 119.629 181.356C141.384 182.95 163.664 191.546 174.431 196.728C176.367 197.66 176.981 200.063 175.825 201.874L171.113 209.253C170.2 210.684 168.428 211.308 166.815 210.78C144.768 203.575 127.759 199.895 119.833 198.118C118.321 197.778 117.203 196.523 117.016 194.984Z" fill="#545B09"/>
</g>
<circle cx="146.656" cy="194.69" r="2.59096" transform="rotate(27.1175 146.656 194.69)" fill="#DBDFAB"/>
<circle cx="130.474" cy="190.557" r="2.59096" transform="rotate(27.1175 130.474 190.557)" fill="#DBDFAB"/>
<circle cx="162.167" cy="200.136" r="2.59096" transform="rotate(27.1175 162.167 200.136)" fill="#DBDFAB"/>
<g filter="url(#filter4_g_2959_18425)">
<ellipse cx="151.548" cy="128.787" rx="12.7821" ry="11.3066" transform="rotate(19.3593 151.548 128.787)" fill="white"/>
</g>
<g filter="url(#filter5_g_2959_18425)">
<ellipse cx="152.221" cy="128.881" rx="8.66326" ry="7.90915" transform="rotate(19.3593 152.221 128.881)" fill="black"/>
</g>
<g filter="url(#filter6_g_2959_18425)">
<ellipse cx="184.531" cy="141.712" rx="11.541" ry="11.3066" transform="rotate(19.3593 184.531 141.712)" fill="white"/>
</g>
<ellipse cx="165.603" cy="142.545" rx="3.70188" ry="2.96151" transform="rotate(23.129 165.603 142.545)" fill="#FF581D"/>
<path d="M161.621 147.876L160.841 147.765C160.251 147.681 159.769 147.249 159.622 146.671C159.279 145.327 157.439 145.158 156.857 146.417L156.639 146.887C156.487 147.216 156.44 147.588 156.545 147.934C156.93 149.206 157.786 150.558 160.01 150.437C161.143 150.376 161.959 149.925 162.478 149.426C163.168 148.764 162.568 148.012 161.621 147.876Z" fill="#852A0A" stroke="#852A0A" stroke-width="1.1846"/>
<g filter="url(#filter7_g_2959_18425)">
<ellipse cx="184.725" cy="141.465" rx="8.51598" ry="8.01698" transform="rotate(19.3593 184.725 141.465)" fill="black"/>
</g>
<path opacity="0.8" d="M142.615 68.3167L119.823 81.074C114.861 83.8508 107.23 85.8258 105.04 80.5794C103.688 77.3432 105.645 73.5369 107.495 71.3485C111.008 67.5604 121.693 59.4413 136.331 57.2705C145.148 55.9629 148.227 57.9303 148.753 60.5101C149.468 64.0198 145.74 66.5673 142.615 68.3167Z" fill="url(#paint5_linear_2959_18425)"/>
<path opacity="0.89" d="M98.7356 84.9024C107.222 83.9246 102.626 93.549 99.2669 98.4835C96.9912 100.978 94.3647 97.498 93.336 95.4462C91.6 92.339 90.2495 85.8801 98.7356 84.9024Z" fill="url(#paint6_linear_2959_18425)"/>
<path d="M147.228 111C149.428 114.496 163.105 126.627 170.027 126.097" stroke="#B0C648" stroke-width="7"/>
<g filter="url(#filter8_ii_2959_18425)">
<path d="M105.641 146.918C97.2808 167.954 78.6141 164.543 69.2474 159.725C68.0877 159.128 67.5855 157.775 67.9557 156.525L80.4981 114.171C80.917 112.756 82.3321 111.873 83.7642 112.227C95.9759 115.246 114.149 125.509 105.641 146.918Z" fill="#F8CB2B"/>
</g>
<ellipse cx="78.5449" cy="136.336" rx="21.5372" ry="24.9096" transform="rotate(22.9481 78.5449 136.336)" fill="url(#paint7_linear_2959_18425)"/>
<ellipse cx="78.4767" cy="136.312" rx="18.627" ry="21.5349" transform="rotate(22.9481 78.4767 136.312)" fill="#EBFBFF"/>
<path d="M84.0473 122.383L77.354 136.458" stroke="#192653" stroke-width="2.89647" stroke-linecap="round"/>
<path d="M73.5 145L77.8696 135.953" stroke="#192653" stroke-width="2.89647" stroke-linecap="round"/>
<ellipse cx="77.8045" cy="135.745" rx="3.47576" ry="3.76541" transform="rotate(21.2356 77.8045 135.745)" fill="#192653"/>
<rect x="85.9874" y="117.172" width="1.73788" height="2.54265" rx="0.86894" transform="rotate(24.9649 85.9874 117.172)" fill="#192653"/>
<rect x="69.7679" y="151.344" width="1.73788" height="2.54265" rx="0.86894" transform="rotate(24.9649 69.7679 151.344)" fill="#192653"/>
<rect x="92.6295" y="142.906" width="1.73788" height="2.54265" rx="0.86894" transform="rotate(123.314 92.6295 142.906)" fill="#192653"/>
<rect x="65.9822" y="128.992" width="1.73788" height="2.54265" rx="0.86894" transform="rotate(123.314 65.9822 128.992)" fill="#192653"/>
</g>
<defs>
<filter id="filter0_d_2959_18425" x="68.078" y="126.162" width="135.903" height="129.816" filterUnits="userSpaceOnUse" color-interpolation-filters="sRGB">
<feFlood flood-opacity="0" result="BackgroundImageFix"/>
<feColorMatrix in="SourceAlpha" type="matrix" values="0 0 0 0 0 0 0 0 0 0 0 0 0 0 0 0 0 0 127 0" result="hardAlpha"/>
<feOffset dx="-2.81789" dy="1.87859"/>
<feGaussianBlur stdDeviation="3.52236"/>
<feComposite in2="hardAlpha" operator="out"/>
<feColorMatrix type="matrix" values="0 0 0 0 1 0 0 0 0 1 0 0 0 0 1 0 0 0 0.4 0"/>
<feBlend mode="normal" in2="BackgroundImageFix" result="effect1_dropShadow_2959_18425"/>
<feBlend mode="normal" in="SourceGraphic" in2="effect1_dropShadow_2959_18425" result="shape"/>
</filter>
<filter id="filter1_ii_2959_18425" x="92.5078" y="60.8125" width="129.936" height="127.528" filterUnits="userSpaceOnUse" color-interpolation-filters="sRGB">
<feFlood flood-opacity="0" result="BackgroundImageFix"/>
<feBlend mode="normal" in="SourceGraphic" in2="BackgroundImageFix" result="shape"/>
<feColorMatrix in="SourceAlpha" type="matrix" values="0 0 0 0 0 0 0 0 0 0 0 0 0 0 0 0 0 0 127 0" result="hardAlpha"/>
<feOffset dx="-6.66339" dy="1.48075"/>
<feGaussianBlur stdDeviation="5.51581"/>
<feComposite in2="hardAlpha" operator="arithmetic" k2="-1" k3="1"/>
<feColorMatrix type="matrix" values="0 0 0 0 1 0 0 0 0 0.979808 0 0 0 0 0.913462 0 0 0 0.8 0"/>
<feBlend mode="normal" in2="shape" result="effect1_innerShadow_2959_18425"/>
<feColorMatrix in="SourceAlpha" type="matrix" values="0 0 0 0 0 0 0 0 0 0 0 0 0 0 0 0 0 0 127 0" result="hardAlpha"/>
<feOffset dx="-0.740377" dy="0.740377"/>
<feGaussianBlur stdDeviation="0.370188"/>
<feComposite in2="hardAlpha" operator="arithmetic" k2="-1" k3="1"/>
<feColorMatrix type="matrix" values="0 0 0 0 0.871206 0 0 0 0 1 0 0 0 0 0.997853 0 0 0 0.5 0"/>
<feBlend mode="normal" in2="effect1_innerShadow_2959_18425" result="effect2_innerShadow_2959_18425"/>
</filter>
<filter id="filter2_n_2959_18425" x="78.4461" y="43.125" width="170.984" height="155.883" filterUnits="userSpaceOnUse" color-interpolation-filters="sRGB">
<feFlood flood-opacity="0" result="BackgroundImageFix"/>
<feBlend mode="normal" in="SourceGraphic" in2="BackgroundImageFix" result="shape"/>
<feTurbulence type="fractalNoise" baseFrequency="0.14069412648677826 0.14069412648677826" stitchTiles="stitch" numOctaves="3" result="noise" seed="1999" />
<feColorMatrix in="noise" type="luminanceToAlpha" result="alphaNoise" />
<feComponentTransfer in="alphaNoise" result="coloredNoise1">
<feFuncA type="discrete" tableValues="1 1 1 1 1 1 1 1 1 1 1 1 1 1 1 1 1 1 1 1 1 1 1 1 1 1 1 1 1 1 1 1 1 1 1 1 1 1 1 1 1 1 1 1 1 1 1 1 1 1 1 0 0 0 0 0 0 0 0 0 0 0 0 0 0 0 0 0 0 0 0 0 0 0 0 0 0 0 0 0 0 0 0 0 0 0 0 0 0 0 0 0 0 0 0 0 0 0 0 0 "/>
</feComponentTransfer>
<feComposite operator="in" in2="shape" in="coloredNoise1" result="noise1Clipped" />
<feFlood flood-color="rgba(0, 0, 0, 0.08)" result="color1Flood" />
<feComposite operator="in" in2="noise1Clipped" in="color1Flood" result="color1" />
<feMerge result="effect1_noise_2959_18425">
<feMergeNode in="shape" />
<feMergeNode in="color1" />
</feMerge>
</filter>
<filter id="filter3_ii_2959_18425" x="107.976" y="181.344" width="68.4316" height="31.1058" filterUnits="userSpaceOnUse" color-interpolation-filters="sRGB">
<feFlood flood-opacity="0" result="BackgroundImageFix"/>
<feBlend mode="normal" in="SourceGraphic" in2="BackgroundImageFix" result="shape"/>
<feColorMatrix in="SourceAlpha" type="matrix" values="0 0 0 0 0 0 0 0 0 0 0 0 0 0 0 0 0 0 127 0" result="hardAlpha"/>
<feOffset dx="-8.14414" dy="1.48075"/>
<feGaussianBlur stdDeviation="3.924"/>
<feComposite in2="hardAlpha" operator="arithmetic" k2="-1" k3="1"/>
<feColorMatrix type="matrix" values="0 0 0 0 0.869328 0 0 0 0 0.719989 0 0 0 0 1 0 0 0 0.2 0"/>
<feBlend mode="normal" in2="shape" result="effect1_innerShadow_2959_18425"/>
<feColorMatrix in="SourceAlpha" type="matrix" values="0 0 0 0 0 0 0 0 0 0 0 0 0 0 0 0 0 0 127 0" result="hardAlpha"/>
<feOffset dx="-0.740377"/>
<feGaussianBlur stdDeviation="0.370188"/>
<feComposite in2="hardAlpha" operator="arithmetic" k2="-1" k3="1"/>
<feColorMatrix type="matrix" values="0 0 0 0 0.858824 0 0 0 0 0.976471 0 0 0 0 0.984314 0 0 0 0.2 0"/>
<feBlend mode="normal" in2="effect1_innerShadow_2959_18425" result="effect2_innerShadow_2959_18425"/>
</filter>
<filter id="filter4_g_2959_18425" x="138.546" y="116.934" width="26.0039" height="23.7013" filterUnits="userSpaceOnUse" color-interpolation-filters="sRGB">
<feFlood flood-opacity="0" result="BackgroundImageFix"/>
<feBlend mode="normal" in="SourceGraphic" in2="BackgroundImageFix" result="shape"/>
<feTurbulence type="fractalNoise" baseFrequency="1.5007375478744507 1.5007375478744507" numOctaves="3" seed="3511" />
<feDisplacementMap in="shape" scale="0.74037665128707886" xChannelSelector="R" yChannelSelector="G" result="displacedImage" width="100%" height="100%" />
<feMerge result="effect1_texture_2959_18425">
<feMergeNode in="displacedImage"/>
</feMerge>
</filter>
<filter id="filter5_g_2959_18425" x="143.391" y="120.64" width="17.6582" height="16.4785" filterUnits="userSpaceOnUse" color-interpolation-filters="sRGB">
<feFlood flood-opacity="0" result="BackgroundImageFix"/>
<feBlend mode="normal" in="SourceGraphic" in2="BackgroundImageFix" result="shape"/>
<feTurbulence type="fractalNoise" baseFrequency="2.2849917411804199 2.2849917411804199" numOctaves="3" seed="3511" />
<feDisplacementMap in="shape" scale="0.48626482486724854" xChannelSelector="R" yChannelSelector="G" result="displacedImage" width="100%" height="100%" />
<feMerge result="effect1_texture_2959_18425">
<feMergeNode in="displacedImage"/>
</feMerge>
</filter>
<filter id="filter6_g_2959_18425" x="172.642" y="130.005" width="23.7776" height="23.4123" filterUnits="userSpaceOnUse" color-interpolation-filters="sRGB">
<feFlood flood-opacity="0" result="BackgroundImageFix"/>
<feBlend mode="normal" in="SourceGraphic" in2="BackgroundImageFix" result="shape"/>
<feTurbulence type="fractalNoise" baseFrequency="1.5007375478744507 1.5007375478744507" numOctaves="3" seed="3511" />
<feDisplacementMap in="shape" scale="0.74037665128707886" xChannelSelector="R" yChannelSelector="G" result="displacedImage" width="100%" height="100%" />
<feMerge result="effect1_texture_2959_18425">
<feMergeNode in="displacedImage"/>
</feMerge>
</filter>
<filter id="filter7_g_2959_18425" x="176.017" y="133.147" width="17.416" height="16.6347" filterUnits="userSpaceOnUse" color-interpolation-filters="sRGB">
<feFlood flood-opacity="0" result="BackgroundImageFix"/>
<feBlend mode="normal" in="SourceGraphic" in2="BackgroundImageFix" result="shape"/>
<feTurbulence type="fractalNoise" baseFrequency="2.2849917411804199 2.2849917411804199" numOctaves="3" seed="3511" />
<feDisplacementMap in="shape" scale="0.48626482486724854" xChannelSelector="R" yChannelSelector="G" result="displacedImage" width="100%" height="100%" />
<feMerge result="effect1_texture_2959_18425">
<feMergeNode in="displacedImage"/>
</feMerge>
</filter>
<filter id="filter8_ii_2959_18425" x="56.4918" y="112.148" width="51.3403" height="53.5281" filterUnits="userSpaceOnUse" color-interpolation-filters="sRGB">
<feFlood flood-opacity="0" result="BackgroundImageFix"/>
<feBlend mode="normal" in="SourceGraphic" in2="BackgroundImageFix" result="shape"/>
<feColorMatrix in="SourceAlpha" type="matrix" values="0 0 0 0 0 0 0 0 0 0 0 0 0 0 0 0 0 0 127 0" result="hardAlpha"/>
<feOffset dx="-1.15859" dy="2.31717"/>
<feGaussianBlur stdDeviation="4.52553"/>
<feComposite in2="hardAlpha" operator="arithmetic" k2="-1" k3="1"/>
<feColorMatrix type="matrix" values="0 0 0 0 0.820068 0 0 0 0 1 0 0 0 0 0.754639 0 0 0 0.6 0"/>
<feBlend mode="normal" in2="shape" result="effect1_innerShadow_2959_18425"/>
<feColorMatrix in="SourceAlpha" type="matrix" values="0 0 0 0 0 0 0 0 0 0 0 0 0 0 0 0 0 0 127 0" result="hardAlpha"/>
<feOffset dx="-11.344"/>
<feGaussianBlur stdDeviation="7.52829"/>
<feComposite in2="hardAlpha" operator="arithmetic" k2="-1" k3="1"/>
<feColorMatrix type="matrix" values="0 0 0 0 1 0 0 0 0 0.339205 0 0 0 0 0.339205 0 0 0 0.3 0"/>
<feBlend mode="normal" in2="effect1_innerShadow_2959_18425" result="effect2_innerShadow_2959_18425"/>
</filter>
<linearGradient id="paint0_linear_2959_18425" x1="216.032" y1="4.4242" x2="229.106" y2="107.111" gradientUnits="userSpaceOnUse">
<stop stop-color="#9CCFFF"/>
<stop offset="1" stop-color="#A7B3FF" stop-opacity="0"/>
</linearGradient>
<linearGradient id="paint1_linear_2959_18425" x1="16.8297" y1="158.503" x2="32.577" y2="282.184" gradientUnits="userSpaceOnUse">
<stop stop-color="#9CCFFF"/>
<stop offset="1" stop-color="#A7B3FF" stop-opacity="0"/>
</linearGradient>
<linearGradient id="paint2_linear_2959_18425" x1="168.158" y1="150.192" x2="123.521" y2="249.845" gradientUnits="userSpaceOnUse">
<stop offset="0.158654" stop-color="#121938"/>
<stop offset="0.621738" stop-color="#B3C954"/>
<stop offset="0.938356" stop-color="#FFEF9D"/>
</linearGradient>
<linearGradient id="paint3_linear_2959_18425" x1="249.169" y1="99.0223" x2="94.3856" y2="164.705" gradientUnits="userSpaceOnUse">
<stop stop-color="#B2E5FF" stop-opacity="0.2"/>
<stop offset="1" stop-color="white" stop-opacity="0"/>
</linearGradient>
<linearGradient id="paint4_linear_2959_18425" x1="113.491" y1="36.0319" x2="107.702" y2="184.587" gradientUnits="userSpaceOnUse">
<stop stop-color="#718C3E"/>
<stop offset="0.586538" stop-color="#CECE84"/>
<stop offset="1" stop-color="#718C3E"/>
</linearGradient>
<linearGradient id="paint5_linear_2959_18425" x1="124.43" y1="57.7804" x2="135.179" y2="124.858" gradientUnits="userSpaceOnUse">
<stop stop-color="#EEFFD9"/>
<stop offset="0.440397" stop-color="#EEFFD9" stop-opacity="0"/>
</linearGradient>
<linearGradient id="paint6_linear_2959_18425" x1="95.1592" y1="83.2762" x2="107.558" y2="93.1971" gradientUnits="userSpaceOnUse">
<stop stop-color="#EEFFD9"/>
<stop offset="1" stop-color="#EEFFD9" stop-opacity="0"/>
</linearGradient>
<linearGradient id="paint7_linear_2959_18425" x1="100.764" y1="129.386" x2="5.87294" y2="139.903" gradientUnits="userSpaceOnUse">
<stop stop-color="#F6EF6B"/>
<stop offset="1" stop-color="#CACACA"/>
</linearGradient>
<clipPath id="clip0_2959_18425">
<rect width="298" height="274" fill="white"/>
</clipPath>
</defs>
</svg>
