<svg width="206" height="157" viewBox="0 0 206 157" fill="none" xmlns="http://www.w3.org/2000/svg">
<line x1="68.8564" y1="22.2106" x2="51.4913" y2="39.5757" stroke="#D4C7FF" stroke-width="1.18726" stroke-linecap="round"/>
<line x1="203.413" y1="70.4928" x2="186.048" y2="87.8579" stroke="#D4C7FF" stroke-width="1.18726" stroke-linecap="round"/>
<line x1="47.3694" y1="43.8326" x2="21.2595" y2="70.8838" stroke="#D4C7FF" stroke-width="1.18726" stroke-linecap="round"/>
<line x1="181.925" y1="92.1138" x2="155.815" y2="119.165" stroke="#D4C7FF" stroke-width="1.18726" stroke-linecap="round"/>
<line x1="166.886" y1="6.63138" x2="140.776" y2="33.6827" stroke="#D4C7FF" stroke-width="1.18726" stroke-linecap="round"/>
<line x1="49.5676" y1="41.5552" x2="49.2928" y2="41.84" stroke="#D4C7FF" stroke-width="1.18726" stroke-linecap="round"/>
<line x1="184.123" y1="89.8365" x2="183.848" y2="90.1212" stroke="#D4C7FF" stroke-width="1.18726" stroke-linecap="round"/>
<line x1="19.3352" y1="72.8765" x2="19.0603" y2="73.1612" stroke="#D4C7FF" stroke-width="1.18726" stroke-linecap="round"/>
<line x1="153.891" y1="121.159" x2="153.616" y2="121.443" stroke="#D4C7FF" stroke-width="1.18726" stroke-linecap="round"/>
<line x1="138.853" y1="35.6753" x2="138.578" y2="35.9601" stroke="#D4C7FF" stroke-width="1.18726" stroke-linecap="round"/>
<line x1="17.1221" y1="75.1549" x2="3.7145" y2="88.5625" stroke="#D4C7FF" stroke-width="1.18726" stroke-linecap="round"/>
<line x1="151.678" y1="123.437" x2="138.27" y2="136.845" stroke="#D4C7FF" stroke-width="1.18726" stroke-linecap="round"/>
<line x1="136.639" y1="37.9557" x2="123.231" y2="51.3633" stroke="#D4C7FF" stroke-width="1.18726" stroke-linecap="round"/>
<path d="M105.374 74.4014L93.8975 85.8782" stroke="black" stroke-width="0.791505"/>
<rect x="72.1311" y="56.593" width="54.6139" height="71.2355" rx="2.77027" fill="#F2EEFF" stroke="#7A51FF" stroke-width="0.791505" stroke-dasharray="3.96 3.96"/>
<path d="M105.374 74.4014L93.8975 85.8782" stroke="#7A51FF" stroke-width="1.58301" stroke-linecap="round"/>
<path d="M93.8975 74.4021L105.374 85.8789" stroke="#7A51FF" stroke-width="1.58301" stroke-linecap="round"/>
<path d="M163.885 64.1123L159.822 70.2178" stroke="#D4C7FF" stroke-width="3.16602" stroke-linecap="round"/>
<path d="M158.802 65.1348L164.907 69.1972" stroke="#D4C7FF" stroke-width="3.16602" stroke-linecap="round"/>
<path d="M92.6494 25.3291L88.5869 31.4346" stroke="#D4C7FF" stroke-width="3.16602" stroke-linecap="round"/>
<path d="M87.5664 26.3506L93.6719 30.4131" stroke="#D4C7FF" stroke-width="3.16602" stroke-linecap="round"/>
<path d="M45.9611 131.533L41.6586 133.965" stroke="#D4C7FF" stroke-width="2.37452" stroke-linecap="round"/>
<path d="M42.5933 130.599L45.0255 134.901" stroke="#D4C7FF" stroke-width="2.37452" stroke-linecap="round"/>
<rect x="68.9661" y="108.832" width="60.9459" height="29.2857" rx="2.77027" fill="#D9D9D9" stroke="#BBBBBB" stroke-width="0.791505"/>
<rect x="63.425" y="111.206" width="72.027" height="28.4942" rx="2.77027" fill="#EAEAEA" stroke="#CDCDCD" stroke-width="0.791505"/>
<path d="M58.2803 113.581H80.3516C81.1878 113.581 81.9336 114.107 82.2148 114.895L83.0684 117.283C83.4621 118.386 84.5061 119.122 85.6768 119.122H112.548C113.751 119.122 114.817 118.345 115.186 117.199L115.907 114.954C116.17 114.136 116.932 113.581 117.791 113.581H140.597C141.689 113.581 142.575 114.468 142.575 115.561V148.804C142.575 149.896 141.689 150.782 140.597 150.782H58.2803C57.1876 150.782 56.301 149.896 56.3008 148.804V115.561C56.3008 114.468 57.1874 113.581 58.2803 113.581Z" fill="#916FFF" stroke="#8173AF" stroke-width="0.791505"/>
<circle cx="158.801" cy="77.5684" r="1.58301" fill="#D4C7FF"/>
<circle cx="73.3184" cy="18.2051" r="1.58301" fill="#D4C7FF"/>
<circle cx="32.1602" cy="91.0234" r="1.58301" fill="#D4C7FF"/>
<circle cx="168.299" cy="127.433" r="1.58301" fill="#D4C7FF"/>
</svg>
