<svg width="298" height="275" viewBox="0 0 298 275" fill="none" xmlns="http://www.w3.org/2000/svg">
<g clip-path="url(#clip0_2786_5710)">
<path d="M0.712076 20.0781L0.606622 20.2366L0.789924 20.2883L0.607204 20.342L0.714403 20.4994L0.539914 20.4231L0.52085 20.6126L0.436237 20.442L0.299831 20.5749L0.344685 20.3898L0.154762 20.4039L0.308096 20.291L0.153524 20.1797L0.343591 20.1918L0.296695 20.0072L0.434561 20.1386L0.517285 19.967L0.53844 20.1563L0.712076 20.0781Z" fill="white"/>
<path d="M63.4836 38.9062L63.3781 39.0648L63.5614 39.1164L63.3787 39.1701L63.4859 39.3276L63.3114 39.2512L63.2923 39.4407L63.2077 39.2701L63.0713 39.403L63.1162 39.2179L62.9262 39.2321L63.0796 39.1191L62.925 39.0078L63.1151 39.0199L63.0682 38.8353L63.206 38.9667L63.2888 38.7951L63.3099 38.9844L63.4836 38.9062Z" fill="white"/>
<path d="M25.1144 60.5468L25.009 60.7054L25.1923 60.7571L25.0095 60.8108L25.1167 60.9682L24.9423 60.8919L24.9232 61.0814L24.8386 60.9107L24.7022 61.0436L24.747 60.8586L24.5571 60.8727L24.7104 60.7597L24.5559 60.6485L24.7459 60.6605L24.699 60.4759L24.8369 60.6073L24.9196 60.4358L24.9408 60.625L25.1144 60.5468Z" fill="white"/>
<path d="M31.0163 26.1171L30.9108 26.2757L31.0941 26.3274L30.9114 26.3811L31.0186 26.5385L30.8441 26.4622L30.825 26.6517L30.7404 26.4811L30.604 26.614L30.6489 26.4289L30.459 26.443L30.6123 26.33L30.4577 26.2188L30.6478 26.2308L30.6009 26.0462L30.7388 26.1776L30.8215 26.0061L30.8426 26.1953L31.0163 26.1171Z" fill="white"/>
<path d="M12.9792 34.3124L12.8737 34.471L13.057 34.5227L12.8743 34.5764L12.9815 34.7338L12.807 34.6575L12.7879 34.847L12.7033 34.6764L12.5669 34.8093L12.6118 34.6242L12.4219 34.6383L12.5752 34.5254L12.4206 34.4141L12.6107 34.4261L12.5638 34.2415L12.7017 34.3729L12.7844 34.2014L12.8055 34.3907L12.9792 34.3124Z" fill="white"/>
<path d="M127.104 54.9765L126.999 55.1351L127.182 55.1868L126.999 55.2405L127.106 55.3979L126.932 55.3216L126.913 55.511L126.828 55.3404L126.692 55.4733L126.737 55.2882L126.547 55.3024L126.7 55.1894L126.546 55.0782L126.736 55.0902L126.689 54.9056L126.827 55.037L126.909 54.8655L126.931 55.0547L127.104 54.9765Z" fill="white"/>
<path d="M69.7135 20.8749L69.6081 21.0335L69.7914 21.0852L69.6087 21.1389L69.7159 21.2963L69.5414 21.22L69.5223 21.4095L69.4377 21.2389L69.3013 21.3718L69.3461 21.1867L69.1562 21.2008L69.3096 21.0879L69.155 20.9766L69.3451 20.9886L69.2982 20.804L69.436 20.9354L69.5187 20.7639L69.5399 20.9532L69.7135 20.8749Z" fill="white"/>
<path d="M208.761 39.8906L208.656 40.0491L208.839 40.1008L208.657 40.1545L208.764 40.3119L208.589 40.2356L208.57 40.4251L208.486 40.2545L208.349 40.3874L208.394 40.2023L208.204 40.2164L208.357 40.1035L208.203 39.9922L208.393 40.0043L208.346 39.8197L208.484 39.9511L208.567 39.7795L208.588 39.9688L208.761 39.8906Z" fill="white"/>
<path d="M132.68 93.6718L132.574 93.8304L132.758 93.8821L132.575 93.9358L132.682 94.0932L132.508 94.0169L132.489 94.2064L132.404 94.0357L132.268 94.1686L132.312 93.9836L132.123 93.9977L132.276 93.8847L132.121 93.7735L132.311 93.7855L132.264 93.6009L132.402 93.7323L132.485 93.5608L132.506 93.75L132.68 93.6718Z" fill="white"/>
<path d="M69.3874 67.7656L69.2819 67.9241L69.4652 67.9758L69.2825 68.0295L69.3897 68.1869L69.2152 68.1106L69.1961 68.3001L69.1115 68.1295L68.9751 68.2624L69.02 68.0773L68.8301 68.0914L68.9834 67.9785L68.8288 67.8672L69.0189 67.8793L68.972 67.6947L69.1099 67.8261L69.1926 67.6545L69.2137 67.8438L69.3874 67.7656Z" fill="white"/>
<path d="M66.7638 118.594L66.6584 118.752L66.8417 118.804L66.659 118.858L66.7662 119.015L66.5917 118.939L66.5726 119.128L66.488 118.958L66.3516 119.091L66.3964 118.905L66.2065 118.92L66.3599 118.807L66.2053 118.695L66.3953 118.707L66.3485 118.523L66.4863 118.654L66.569 118.483L66.5902 118.672L66.7638 118.594Z" fill="white"/>
<path d="M262.872 114L262.767 114.159L262.95 114.21L262.767 114.264L262.875 114.421L262.7 114.345L262.681 114.534L262.596 114.364L262.46 114.497L262.505 114.312L262.315 114.326L262.468 114.213L262.314 114.102L262.504 114.114L262.457 113.929L262.595 114.06L262.677 113.889L262.699 114.078L262.872 114Z" fill="white"/>
<path d="M199.252 274.703L199.147 274.862L199.33 274.913L199.147 274.967L199.254 275.124L199.08 275.048L199.061 275.238L198.976 275.067L198.84 275.2L198.885 275.015L198.695 275.029L198.848 274.916L198.694 274.805L198.884 274.817L198.837 274.632L198.975 274.764L199.057 274.592L199.078 274.781L199.252 274.703Z" fill="white"/>
<path d="M256.971 150.406L256.865 150.565L257.049 150.616L256.866 150.67L256.973 150.828L256.799 150.751L256.78 150.941L256.695 150.77L256.559 150.903L256.603 150.718L256.414 150.732L256.567 150.619L256.412 150.508L256.602 150.52L256.555 150.335L256.693 150.467L256.776 150.295L256.797 150.484L256.971 150.406Z" fill="white"/>
<path d="M167.769 124.5L167.663 124.659L167.847 124.71L167.664 124.764L167.771 124.921L167.597 124.845L167.577 125.034L167.493 124.864L167.356 124.997L167.401 124.812L167.211 124.826L167.365 124.713L167.21 124.602L167.4 124.614L167.353 124.429L167.491 124.56L167.574 124.389L167.595 124.578L167.769 124.5Z" fill="white"/>
<path d="M99.2292 248.461L99.1237 248.619L99.307 248.671L99.1243 248.725L99.2315 248.882L99.057 248.806L99.0379 248.995L98.9533 248.825L98.8169 248.958L98.8618 248.773L98.6719 248.787L98.8252 248.674L98.6706 248.563L98.8607 248.575L98.8138 248.39L98.9517 248.521L99.0344 248.35L99.0555 248.539L99.2292 248.461Z" fill="white"/>
<path d="M19.5392 211.078L19.4338 211.237L19.6171 211.288L19.4344 211.342L19.5416 211.499L19.3671 211.423L19.348 211.613L19.2634 211.442L19.127 211.575L19.1718 211.39L18.9819 211.404L19.1352 211.291L18.9807 211.18L19.1707 211.192L19.1238 211.007L19.2617 211.139L19.3444 210.967L19.3656 211.156L19.5392 211.078Z" fill="white"/>
<path d="M20.5236 97.2812L20.4181 97.4398L20.6014 97.4914L20.4187 97.5451L20.5259 97.7026L20.3514 97.6262L20.3324 97.8157L20.2478 97.6451L20.1114 97.778L20.1562 97.5929L19.9663 97.6071L20.1196 97.4941L19.965 97.3828L20.1551 97.3949L20.1082 97.2103L20.2461 97.3417L20.3288 97.1701L20.35 97.3594L20.5236 97.2812Z" fill="white"/>
<path d="M126.12 108.101L126.014 108.26L126.198 108.312L126.015 108.365L126.122 108.523L125.948 108.447L125.929 108.636L125.844 108.465L125.708 108.598L125.752 108.413L125.562 108.427L125.716 108.314L125.561 108.203L125.751 108.215L125.704 108.031L125.842 108.162L125.925 107.99L125.946 108.18L126.12 108.101Z" fill="white"/>
<path d="M276.319 186.156L276.213 186.315L276.396 186.366L276.214 186.42L276.321 186.578L276.146 186.501L276.127 186.691L276.043 186.52L275.906 186.653L275.951 186.468L275.761 186.482L275.915 186.369L275.76 186.258L275.95 186.27L275.903 186.085L276.041 186.217L276.124 186.045L276.145 186.234L276.319 186.156Z" fill="white"/>
<path d="M232.702 226.484L232.597 226.643L232.78 226.695L232.597 226.748L232.705 226.906L232.53 226.829L232.511 227.019L232.426 226.848L232.29 226.981L232.335 226.796L232.145 226.81L232.298 226.697L232.144 226.586L232.334 226.598L232.287 226.413L232.425 226.545L232.508 226.373L232.529 226.563L232.702 226.484Z" fill="white"/>
<path d="M172.36 135.32L172.255 135.479L172.438 135.531L172.255 135.584L172.362 135.742L172.188 135.665L172.169 135.855L172.084 135.684L171.948 135.817L171.993 135.632L171.803 135.646L171.956 135.533L171.801 135.422L171.992 135.434L171.945 135.249L172.083 135.381L172.165 135.209L172.186 135.398L172.36 135.32Z" fill="white"/>
<path d="M243.525 75.9609L243.419 76.1195L243.602 76.1711L243.42 76.2248L243.527 76.3822L243.352 76.3059L243.333 76.4954L243.249 76.3248L243.112 76.4577L243.157 76.2726L242.967 76.2867L243.121 76.1738L242.966 76.0625L243.156 76.0746L243.109 75.89L243.247 76.0214L243.33 75.8498L243.351 76.0391L243.525 75.9609Z" fill="white"/>
<path d="M32.0007 244.859L31.8952 245.018L32.0785 245.07L31.8958 245.123L32.003 245.281L31.8285 245.204L31.8094 245.394L31.7248 245.223L31.5884 245.356L31.6333 245.171L31.4433 245.185L31.5967 245.072L31.4421 244.961L31.6322 244.973L31.5853 244.788L31.7231 244.92L31.8059 244.748L31.827 244.938L32.0007 244.859Z" fill="white"/>
<path d="M24.13 145.812L24.0246 145.971L24.2079 146.023L24.0252 146.076L24.1324 146.234L23.9579 146.157L23.9388 146.347L23.8542 146.176L23.7178 146.309L23.7627 146.124L23.5727 146.138L23.7261 146.025L23.5715 145.914L23.7616 145.926L23.7147 145.742L23.8525 145.873L23.9353 145.701L23.9564 145.891L24.13 145.812Z" fill="white"/>
<path d="M204.827 142.203L204.722 142.362L204.905 142.413L204.722 142.467L204.83 142.624L204.655 142.548L204.636 142.738L204.551 142.567L204.415 142.7L204.46 142.515L204.27 142.529L204.423 142.416L204.269 142.305L204.459 142.317L204.412 142.132L204.55 142.264L204.633 142.092L204.654 142.281L204.827 142.203Z" fill="white"/>
<path d="M152.356 189.437L152.25 189.596L152.433 189.648L152.251 189.701L152.358 189.859L152.183 189.782L152.164 189.972L152.08 189.801L151.943 189.934L151.988 189.749L151.798 189.763L151.952 189.65L151.797 189.539L151.987 189.551L151.94 189.367L152.078 189.498L152.161 189.326L152.182 189.516L152.356 189.437Z" fill="white"/>
<path d="M187.331 211.984L187.12 212.302L187.486 212.405L187.121 212.513L187.335 212.828L186.986 212.675L186.948 213.054L186.779 212.713L186.506 212.979L186.595 212.608L186.215 212.637L186.522 212.411L186.213 212.188L186.593 212.212L186.499 211.843L186.775 212.106L186.941 211.762L186.983 212.141L187.331 211.984Z" fill="white"/>
<path d="M106.173 156.234L105.962 156.552L106.329 156.655L105.964 156.763L106.178 157.078L105.829 156.925L105.791 157.304L105.621 156.963L105.348 157.229L105.438 156.858L105.058 156.887L105.365 156.661L105.056 156.438L105.436 156.462L105.342 156.093L105.618 156.356L105.784 156.012L105.826 156.391L106.173 156.234Z" fill="white"/>
<path d="M225.872 20.4689L225.661 20.7862L226.027 20.8896L225.662 20.997L225.876 21.312L225.527 21.1593L225.489 21.5385L225.32 21.1971L225.047 21.463L225.136 21.0927L224.756 21.1209L225.063 20.8949L224.754 20.6723L225.134 20.6964L225.04 20.327L225.316 20.5899L225.482 20.2467L225.524 20.6254L225.872 20.4689Z" fill="white"/>
<path d="M154.38 21.4454L154.169 21.7627L154.536 21.8662L154.171 21.9736L154.385 22.2886L154.036 22.1359L153.998 22.5151L153.828 22.1737L153.556 22.4396L153.645 22.0692L153.265 22.0975L153.572 21.8715L153.263 21.6489L153.643 21.6729L153.549 21.3036L153.825 21.5665L153.991 21.2232L154.033 21.602L154.38 21.4454Z" fill="white"/>
<path d="M294.085 212.969L293.874 213.286L294.241 213.39L293.875 213.497L294.09 213.812L293.741 213.659L293.702 214.038L293.533 213.697L293.26 213.963L293.35 213.593L292.97 213.621L293.277 213.395L292.967 213.172L293.348 213.196L293.254 212.827L293.53 213.09L293.695 212.747L293.738 213.125L294.085 212.969Z" fill="white"/>
<path d="M65.1802 205.094L64.9692 205.411L65.336 205.515L64.9704 205.622L65.1849 205.937L64.8357 205.784L64.7976 206.163L64.6283 205.822L64.3553 206.088L64.4451 205.718L64.065 205.746L64.3719 205.52L64.0626 205.297L64.4429 205.321L64.349 204.952L64.6249 205.215L64.7904 204.872L64.8328 205.25L65.1802 205.094Z" fill="white"/>
<path d="M18.2842 185.75L18.0732 186.067L18.44 186.171L18.0744 186.278L18.2889 186.593L17.9397 186.441L17.9016 186.82L17.7323 186.478L17.4593 186.744L17.5491 186.374L17.169 186.402L17.4759 186.176L17.1666 185.954L17.5469 185.978L17.4531 185.608L17.7289 185.871L17.8944 185.528L17.9368 185.907L18.2842 185.75Z" fill="white"/>
<path d="M2.2144 109.336L2.00339 109.653L2.37018 109.757L2.00456 109.864L2.21906 110.179L1.86991 110.027L1.83176 110.406L1.66245 110.064L1.3895 110.33L1.47925 109.96L1.09922 109.988L1.40604 109.762L1.09674 109.539L1.47706 109.564L1.38323 109.194L1.6591 109.457L1.82463 109.114L1.86696 109.493L2.2144 109.336Z" fill="white"/>
<path d="M233.712 2.29129L233.481 2.28431L233.652 2.52791L233.407 2.35948L233.417 2.59188L233.274 2.34081L233.118 2.45327L233.143 2.23704L232.895 2.17693L233.077 2.09672L232.852 1.89217L233.105 1.98551L233.009 1.73223L233.216 1.95544L233.293 1.77195L233.356 2.02059L233.571 1.99274L233.461 2.15047L233.712 2.29129Z" fill="white"/>
<path d="M294.217 85.5179L293.986 85.5109L294.156 85.7545L293.912 85.586L293.922 85.8184L293.779 85.5674L293.623 85.6798L293.648 85.4636L293.4 85.4035L293.582 85.3233L293.357 85.1187L293.61 85.2121L293.514 84.9588L293.72 85.182L293.798 84.9985L293.861 85.2472L294.076 85.2193L293.966 85.377L294.217 85.5179Z" fill="white"/>
<path d="M273.153 119.182L272.921 119.175L273.092 119.419L272.848 119.25L272.857 119.483L272.714 119.231L272.559 119.344L272.584 119.128L272.336 119.068L272.517 118.987L272.293 118.783L272.546 118.876L272.45 118.623L272.656 118.846L272.734 118.663L272.796 118.911L273.011 118.883L272.901 119.041L273.153 119.182Z" fill="white"/>
<path d="M219.974 29.3616L219.743 29.3546L219.913 29.5982L219.669 29.4298L219.679 29.6622L219.535 29.4111L219.38 29.5236L219.405 29.3074L219.157 29.2472L219.339 29.167L219.114 28.9625L219.367 29.0558L219.271 28.8025L219.477 29.0258L219.555 28.8423L219.618 29.0909L219.832 29.063L219.723 29.2208L219.974 29.3616Z" fill="white"/>
<path d="M181.067 62.3382L180.836 62.3312L181.006 62.5748L180.762 62.4064L180.772 62.6388L180.629 62.3877L180.473 62.5001L180.498 62.2839L180.25 62.2238L180.432 62.1436L180.207 61.939L180.46 62.0324L180.364 61.7791L180.571 62.0023L180.648 61.8188L180.711 62.0675L180.926 62.0396L180.816 62.1973L181.067 62.3382Z" fill="white"/>
<path d="M290.994 180.619L290.762 180.612L290.933 180.856L290.688 180.688L290.698 180.92L290.555 180.669L290.4 180.781L290.425 180.565L290.177 180.505L290.358 180.425L290.134 180.22L290.387 180.314L290.291 180.06L290.497 180.284L290.574 180.1L290.637 180.349L290.852 180.321L290.742 180.479L290.994 180.619Z" fill="white"/>
<path d="M125.913 190.846L125.682 190.839L125.853 191.083L125.608 190.914L125.618 191.147L125.475 190.895L125.319 191.008L125.344 190.792L125.096 190.732L125.278 190.651L125.053 190.447L125.307 190.54L125.211 190.287L125.417 190.51L125.494 190.327L125.557 190.575L125.772 190.547L125.662 190.705L125.913 190.846Z" fill="white"/>
<path d="M62.3285 74.385L62.0972 74.3781L62.2677 74.6217L62.0233 74.4532L62.0331 74.6856L61.89 74.4346L61.7345 74.547L61.7595 74.3308L61.5115 74.2707L61.693 74.1905L61.4685 73.9859L61.7216 74.0793L61.6256 73.826L61.8318 74.0492L61.9094 73.8657L61.9722 74.1143L62.1869 74.0865L62.077 74.2442L62.3285 74.385Z" fill="white"/>
<path d="M255.54 121.971L255.309 121.964L255.48 122.208L255.235 122.039L255.245 122.272L255.102 122.02L254.946 122.133L254.971 121.917L254.723 121.857L254.905 121.776L254.68 121.572L254.933 121.665L254.838 121.412L255.044 121.635L255.121 121.452L255.184 121.7L255.399 121.672L255.289 121.83L255.54 121.971Z" fill="white"/>
<path d="M288.527 193.455L288.295 193.448L288.466 193.692L288.222 193.524L288.231 193.756L288.088 193.505L287.933 193.617L287.958 193.401L287.71 193.341L287.891 193.261L287.667 193.056L287.92 193.15L287.824 192.896L288.03 193.12L288.108 192.936L288.17 193.185L288.385 193.157L288.275 193.315L288.527 193.455Z" fill="white"/>
<path d="M52.5209 112.354L52.2896 112.347L52.4601 112.59L52.2157 112.422L52.2255 112.654L52.0824 112.403L51.9268 112.516L51.9519 112.3L51.7038 112.239L51.8854 112.159L51.6609 111.955L51.9139 112.048L51.818 111.795L52.0242 112.018L52.1017 111.834L52.1646 112.083L52.3793 112.055L52.2694 112.213L52.5209 112.354Z" fill="white"/>
<path d="M113.661 33.4319L113.43 33.4249L113.6 33.6685L113.356 33.5001L113.366 33.7325L113.223 33.4814L113.067 33.5939L113.092 33.3777L112.844 33.3176L113.026 33.2373L112.801 33.0328L113.054 33.1261L112.958 32.8729L113.164 33.0961L113.242 32.9126L113.305 33.1612L113.519 33.1334L113.41 33.2911L113.661 33.4319Z" fill="white"/>
<path d="M227.667 209.119L227.436 209.112L227.607 209.356L227.362 209.188L227.372 209.42L227.229 209.169L227.073 209.281L227.098 209.065L226.85 209.005L227.032 208.925L226.807 208.72L227.06 208.814L226.964 208.56L227.171 208.784L227.248 208.6L227.311 208.849L227.526 208.821L227.416 208.979L227.667 209.119Z" fill="white"/>
<path d="M251.23 264.575L250.767 264.561L251.108 265.049L250.619 264.712L250.639 265.177L250.352 264.674L250.041 264.899L250.091 264.467L249.595 264.346L249.958 264.186L249.509 263.777L250.015 263.963L249.823 263.457L250.236 263.903L250.391 263.536L250.517 264.034L250.947 263.978L250.727 264.293L251.23 264.575Z" fill="white"/>
<path d="M198.973 133.474L198.51 133.46L198.851 133.947L198.362 133.61L198.382 134.075L198.096 133.573L197.784 133.798L197.834 133.365L197.338 133.245L197.701 133.084L197.252 132.675L197.758 132.862L197.567 132.355L197.979 132.802L198.134 132.434L198.26 132.932L198.69 132.876L198.47 133.192L198.973 133.474Z" fill="white"/>
<path d="M118.115 121.716L117.652 121.702L117.993 122.189L117.504 121.852L117.524 122.317L117.238 121.815L116.926 122.04L116.977 121.607L116.48 121.487L116.843 121.326L116.394 120.917L116.901 121.104L116.709 120.597L117.121 121.044L117.276 120.677L117.402 121.174L117.832 121.118L117.612 121.434L118.115 121.716Z" fill="white"/>
<path d="M32.6121 182.77L32.1493 182.757L32.4905 183.244L32.0015 182.907L32.0211 183.372L31.7347 182.87L31.4235 183.095L31.4736 182.662L30.9773 182.542L31.3405 182.381L30.8912 181.972L31.3977 182.159L31.2057 181.652L31.6183 182.098L31.7734 181.731L31.8992 182.229L32.3289 182.173L32.1089 182.489L32.6121 182.77Z" fill="white"/>
<path d="M78.8215 55.0596L78.3588 55.0456L78.7 55.533L78.211 55.196L78.2306 55.661L77.9442 55.1586L77.633 55.3837L77.6831 54.951L77.1867 54.8307L77.55 54.6702L77.1007 54.2609L77.6071 54.4477L77.4151 53.9409L77.8277 54.3875L77.9829 54.0204L78.1086 54.5179L78.5383 54.4622L78.3184 54.7778L78.8215 55.0596Z" fill="white"/>
<path d="M2.16432 123.567L1.70157 123.553L2.04278 124.041L1.55378 123.704L1.57337 124.169L1.28693 123.666L0.975724 123.891L1.02588 123.459L0.529498 123.339L0.892773 123.178L0.443482 122.769L0.949898 122.955L0.757923 122.449L1.17052 122.895L1.32569 122.528L1.45141 123.026L1.88112 122.97L1.66114 123.286L2.16432 123.567Z" fill="white"/>
<path d="M248.827 85.6914C249.482 86.7995 248.216 88.0445 247.119 87.3719L232.443 78.3764C231.735 77.9424 230.809 78.3171 230.602 79.1213L226.312 95.7916C225.992 97.038 224.217 97.0235 223.916 95.772L219.9 79.0338C219.706 78.2264 218.786 77.8366 218.071 78.2589L203.25 87.0133C202.142 87.6678 200.897 86.4024 201.57 85.3051L210.565 70.6293C210.999 69.9213 210.625 68.9954 209.82 68.7884L193.15 64.4987C191.904 64.178 191.918 62.4029 193.17 62.1026L209.908 58.086C210.715 57.8922 211.105 56.9725 210.683 56.2576L201.928 41.4366C201.274 40.3285 202.539 39.0835 203.637 39.7561L218.313 48.7516C219.021 49.1856 219.946 48.8109 220.153 48.0067L224.443 31.3364C224.764 30.09 226.539 30.1045 226.839 31.356L230.856 48.0942C231.05 48.9017 231.969 49.2914 232.684 48.8691L247.505 40.1147C248.613 39.4602 249.858 40.7256 249.186 41.8229L240.19 56.4988C239.756 57.2067 240.131 58.1327 240.935 58.3396L257.605 62.6293C258.852 62.95 258.837 64.7252 257.586 65.0255L240.848 69.0421C240.04 69.2358 239.65 70.1555 240.073 70.8705L248.827 85.6914Z" fill="url(#paint0_linear_2786_5710)"/>
<path d="M56.3296 256.19C57.118 257.525 55.5938 259.024 54.2722 258.214L36.5959 247.38C35.7431 246.857 34.6279 247.308 34.3787 248.277L29.2119 268.356C28.8256 269.857 26.6876 269.839 26.3259 268.332L21.4881 248.172C21.2547 247.199 20.147 246.73 19.2858 247.238L1.43471 257.783C0.100064 258.571 -1.39942 257.047 -0.589354 255.725L10.2453 238.049C10.768 237.196 10.3167 236.081 9.34809 235.832L-10.7305 230.665C-12.2317 230.278 -12.2142 228.14 -10.7069 227.779L9.45347 222.941C10.426 222.708 10.8955 221.6 10.3868 220.739L-0.157419 202.888C-0.945763 201.553 0.578423 200.053 1.90001 200.864L19.5764 211.698C20.4291 212.221 21.5443 211.77 21.7936 210.801L26.9603 190.722C27.3466 189.221 29.4847 189.239 29.8464 190.746L34.6842 210.906C34.9175 211.879 36.0252 212.348 36.8864 211.84L54.7375 201.295C56.0722 200.507 57.5716 202.031 56.7616 203.353L45.9269 221.029C45.4042 221.882 45.8555 222.997 46.8241 223.246L66.9027 228.413C68.4039 228.799 68.3864 230.938 66.8791 231.299L46.7188 236.137C45.7462 236.37 45.2767 237.478 45.7854 238.339L56.3296 256.19Z" fill="url(#paint1_linear_2786_5710)"/>
<g filter="url(#filter0_d_2786_5710)">
<path d="M110.477 135.961L197.557 181.78L197.876 181.949L197.699 182.263L185.224 204.551L185.19 204.61L185.138 204.653L184.917 204.379L185.137 204.654L185.13 204.659C185.126 204.663 185.119 204.668 185.111 204.675C185.093 204.689 185.066 204.71 185.032 204.737C184.964 204.79 184.863 204.868 184.733 204.968C184.472 205.169 184.092 205.458 183.613 205.81C183.456 205.925 183.286 206.046 183.108 206.174L159.459 247.533C158.015 250.058 154.689 251.149 152.031 249.969C149.372 248.788 148.387 245.783 149.831 243.257L166.643 213.856C166.656 213.798 166.673 213.739 166.694 213.679C166.757 213.503 166.863 213.28 167.015 213.007C167.556 212.029 167.266 211.209 166.846 210.972C166.642 210.857 166.339 210.826 165.94 211.036C165.532 211.251 165.039 211.713 164.525 212.551L164.354 212.83L164.062 212.677L162.834 212.035L152.933 229.923C150.679 233.995 145.383 235.81 141.105 233.977C136.826 232.144 135.185 227.357 137.439 223.285L149.987 200.618C150.757 198.485 150.902 196.654 150.602 195.153C150.154 192.915 148.714 191.368 146.793 190.618C142.936 189.112 137.058 190.817 133.532 196.94L133.368 197.225L133.074 197.08L132.133 196.619L124.992 209.262C123.179 212.471 118.974 213.873 115.599 212.395C112.224 210.916 110.957 207.116 112.77 203.908L120.19 190.771L120.133 190.743L120.27 190.435C120.656 189.561 120.664 188.853 120.477 188.333C120.29 187.814 119.894 187.441 119.388 187.255C118.379 186.884 116.879 187.255 115.885 188.876L115.717 189.15L115.427 189.004L114.204 188.386L96.4041 219.518C94.0935 223.558 88.7727 225.302 84.5189 223.413C80.2652 221.524 78.6896 216.717 80.9998 212.677L99.2167 180.816L99.1429 180.779L99.2932 180.468C99.6287 179.773 99.7241 179.203 99.6807 178.794C99.6374 178.386 99.4639 178.161 99.2758 178.067C99.1696 178.013 99.0296 177.987 98.8587 178.012L83.5626 203.276C81.9852 205.881 78.4863 206.939 75.7492 205.64C73.0126 204.341 72.0724 201.177 73.6492 198.572L91.6797 168.795L110.007 136.1L110.173 135.801L110.477 135.961Z" fill="url(#paint2_linear_2786_5710)"/>
</g>
<g clip-path="url(#clip1_2786_5710)" filter="url(#filter1_i_2786_5710)">
<path d="M127.367 155.076C130.547 153.038 134.796 154.297 136.353 157.738C137.873 161.097 136.142 165.031 132.639 166.18L118.471 170.825C116.44 171.491 114.227 170.563 113.279 168.648C112.306 166.683 112.967 164.302 114.812 163.119L127.367 155.076Z" fill="#D474C6"/>
<path d="M117.754 136.312C121.223 134.817 125.211 136.748 126.19 140.397C127.145 143.957 124.799 147.559 121.156 148.124L106.422 150.41C104.31 150.738 102.277 149.464 101.652 147.42C101.01 145.324 102.048 143.081 104.061 142.213L117.754 136.312Z" fill="#D474C6"/>
<g filter="url(#filter2_n_2786_5710)">
<ellipse cx="163.828" cy="129.059" rx="85.9951" ry="76.6809" transform="rotate(17.543 163.828 129.059)" fill="url(#paint3_linear_2786_5710)" fill-opacity="0.9"/>
<path d="M186.741 56.5774C231.747 70.8047 257.824 114.815 245.191 154.779C232.557 194.743 185.92 215.768 140.915 201.541C95.9094 187.313 69.8321 143.302 82.4658 103.338C95.0995 63.3738 141.736 42.3501 186.741 56.5774Z" stroke="url(#paint4_linear_2786_5710)" stroke-width="1.32759"/>
</g>
<g filter="url(#filter3_ii_2786_5710)">
<path d="M172.539 68.7805C173.478 67.5164 175.273 67.3186 176.49 68.3187C187.429 77.312 190.421 85.4659 190.538 90.4927C190.581 92.3834 188.511 93.093 186.805 92.2762C184.513 91.1779 182.426 90.6518 180.728 90.4514C181.505 93.2649 182.859 99.7712 183.148 106.698C190.648 104.274 198.124 105.42 201.488 106.557C210.447 108.706 227.308 119.402 223.073 144.995C220.339 156.102 214.86 164.315 208.092 170.384L210.515 175.587C211.417 177.524 210.759 179.831 208.97 181.001C207.135 182.2 204.691 181.827 203.298 180.135L200.123 176.278C197.111 178.113 193.978 179.647 190.82 180.932L192.661 188.183C193.187 190.255 192.111 192.399 190.135 193.215C188.109 194.052 185.778 193.23 184.724 191.309L180.836 184.22C170.902 186.801 161.693 187.344 156.243 187.407C155.716 187.413 154.868 187.382 153.879 187.317L150.202 193.621C149.125 195.468 146.854 196.242 144.873 195.44C142.841 194.616 141.755 192.396 142.35 190.287L143.949 184.619C126.479 173.146 88.861 129.491 115.072 102.061C136.854 79.2647 160.202 91.6847 172.689 104.062C173.134 99.9863 173.509 94.8006 173.328 90.297C171.126 90.3016 169.128 90.6085 167.417 91.0477C165.047 91.6562 162.267 89.8283 162.914 87.4686C164.875 80.3238 169.288 73.1558 172.539 68.7805Z" fill="#D474C6"/>
</g>
<g filter="url(#filter4_ii_2786_5710)">
<path d="M117.943 201.847L116.697 192.316C116.404 190.079 118.171 188.103 120.422 188.247C142.108 189.637 164.38 197.997 175.153 203.062C177.09 203.972 177.724 206.361 176.588 208.175L171.962 215.569C171.065 217.002 169.306 217.64 167.694 217.129C145.667 210.152 128.689 206.641 120.778 204.942C119.269 204.618 118.144 203.378 117.943 201.847Z" fill="#802A71"/>
</g>
<circle cx="147.468" cy="201.284" r="2.58143" transform="rotate(26.5945 147.468 201.284)" fill="#F5C0EC"/>
<circle cx="131.312" cy="197.308" r="2.58143" transform="rotate(26.5945 131.312 197.308)" fill="#F5C0EC"/>
<circle cx="162.966" cy="206.566" r="2.58143" transform="rotate(26.5945 162.966 206.566)" fill="#F5C0EC"/>
<g filter="url(#filter5_g_2786_5710)">
<ellipse cx="153.782" cy="132.107" rx="12.7333" ry="11.2634" transform="rotate(18.8363 153.782 132.107)" fill="white"/>
</g>
<g filter="url(#filter6_g_2786_5710)">
<ellipse cx="154.227" cy="131.767" rx="8.63019" ry="7.87896" transform="rotate(18.8363 154.227 131.767)" fill="black"/>
</g>
<g filter="url(#filter7_g_2786_5710)">
<ellipse cx="186.751" cy="144.685" rx="11.497" ry="11.2634" transform="rotate(18.8363 186.751 144.685)" fill="white"/>
</g>
<ellipse cx="167.906" cy="145.688" rx="3.68775" ry="2.9502" transform="rotate(22.606 167.906 145.688)" fill="#FF581D"/>
<path d="M161.74 147.68L161.871 148.509C162.086 149.879 163.17 150.948 164.542 151.144V151.144" stroke="#852A0A" stroke-width="1.18008" stroke-linecap="round"/>
<g filter="url(#filter8_g_2786_5710)">
<ellipse cx="186.942" cy="144.438" rx="8.48347" ry="7.98638" transform="rotate(18.8363 186.942 144.438)" fill="black"/>
</g>
<path opacity="0.8" d="M142.294 75.4252L119.706 88.3405C114.79 91.1517 107.205 93.1884 104.976 87.9822C103.6 84.7707 105.515 80.9613 107.338 78.7646C110.803 74.9591 121.373 66.7742 135.934 64.4787C144.706 63.0959 147.791 65.0277 148.338 67.5928C149.082 71.0825 145.392 73.6541 142.294 75.4252Z" fill="url(#paint5_linear_2786_5710)"/>
<path opacity="0.89" d="M98.7305 92.3567C107.175 91.3056 102.684 100.935 99.3832 105.881C97.139 108.386 94.491 104.944 93.4476 102.909C91.69 99.8295 90.286 93.4079 98.7305 92.3567Z" fill="url(#paint6_linear_2786_5710)"/>
<path d="M146.672 116.445C149.441 119.511 165 129.109 171.728 127.396" stroke="#D474C6" stroke-width="7"/>
</g>
</g>
<defs>
<filter id="filter0_d_2786_5710" x="62.3848" y="130.305" width="139.991" height="129.641" filterUnits="userSpaceOnUse" color-interpolation-filters="sRGB">
<feFlood flood-opacity="0" result="BackgroundImageFix"/>
<feColorMatrix in="SourceAlpha" type="matrix" values="0 0 0 0 0 0 0 0 0 0 0 0 0 0 0 0 0 0 127 0" result="hardAlpha"/>
<feOffset dx="-3" dy="2"/>
<feGaussianBlur stdDeviation="3.75"/>
<feComposite in2="hardAlpha" operator="out"/>
<feColorMatrix type="matrix" values="0 0 0 0 1 0 0 0 0 1 0 0 0 0 1 0 0 0 0.4 0"/>
<feBlend mode="normal" in2="BackgroundImageFix" result="effect1_dropShadow_2786_5710"/>
<feBlend mode="normal" in="SourceGraphic" in2="effect1_dropShadow_2786_5710" result="shape"/>
</filter>
<filter id="filter1_i_2786_5710" x="19.3126" y="7" width="278.382" height="250.578" filterUnits="userSpaceOnUse" color-interpolation-filters="sRGB">
<feFlood flood-opacity="0" result="BackgroundImageFix"/>
<feBlend mode="normal" in="SourceGraphic" in2="BackgroundImageFix" result="shape"/>
<feColorMatrix in="SourceAlpha" type="matrix" values="0 0 0 0 0 0 0 0 0 0 0 0 0 0 0 0 0 0 127 0" result="hardAlpha"/>
<feOffset dx="-1.68741" dy="0.56247"/>
<feGaussianBlur stdDeviation="1.09682"/>
<feComposite in2="hardAlpha" operator="arithmetic" k2="-1" k3="1"/>
<feColorMatrix type="matrix" values="0 0 0 0 0.259615 0 0 0 0 0.104845 0 0 0 0 0.104845 0 0 0 0.18 0"/>
<feBlend mode="normal" in2="shape" result="effect1_innerShadow_2786_5710"/>
</filter>
<filter id="filter2_n_2786_5710" x="78.6152" y="51.4609" width="170.426" height="155.195" filterUnits="userSpaceOnUse" color-interpolation-filters="sRGB">
<feFlood flood-opacity="0" result="BackgroundImageFix"/>
<feBlend mode="normal" in="SourceGraphic" in2="BackgroundImageFix" result="shape"/>
<feTurbulence type="fractalNoise" baseFrequency="0.14123333990573883 0.14123333990573883" stitchTiles="stitch" numOctaves="3" result="noise" seed="1999" />
<feColorMatrix in="noise" type="luminanceToAlpha" result="alphaNoise" />
<feComponentTransfer in="alphaNoise" result="coloredNoise1">
<feFuncA type="discrete" tableValues="1 1 1 1 1 1 1 1 1 1 1 1 1 1 1 1 1 1 1 1 1 1 1 1 1 1 1 1 1 1 1 1 1 1 1 1 1 1 1 1 1 1 1 1 1 1 1 1 1 1 1 0 0 0 0 0 0 0 0 0 0 0 0 0 0 0 0 0 0 0 0 0 0 0 0 0 0 0 0 0 0 0 0 0 0 0 0 0 0 0 0 0 0 0 0 0 0 0 0 0 "/>
</feComponentTransfer>
<feComposite operator="in" in2="shape" in="coloredNoise1" result="noise1Clipped" />
<feFlood flood-color="rgba(0, 0, 0, 0.08)" result="color1Flood" />
<feComposite operator="in" in2="noise1Clipped" in="color1Flood" result="color1" />
<feMerge result="effect1_noise_2786_5710">
<feMergeNode in="shape" />
<feMergeNode in="color1" />
</feMerge>
</filter>
<filter id="filter3_ii_2786_5710" x="99.428" y="67.6797" width="124.315" height="129.553" filterUnits="userSpaceOnUse" color-interpolation-filters="sRGB">
<feFlood flood-opacity="0" result="BackgroundImageFix"/>
<feBlend mode="normal" in="SourceGraphic" in2="BackgroundImageFix" result="shape"/>
<feColorMatrix in="SourceAlpha" type="matrix" values="0 0 0 0 0 0 0 0 0 0 0 0 0 0 0 0 0 0 127 0" result="hardAlpha"/>
<feOffset dx="-6.63795" dy="1.4751"/>
<feGaussianBlur stdDeviation="5.49475"/>
<feComposite in2="hardAlpha" operator="arithmetic" k2="-1" k3="1"/>
<feColorMatrix type="matrix" values="0 0 0 0 1 0 0 0 0 0.912766 0 0 0 0 0.792818 0 0 0 0.8 0"/>
<feBlend mode="normal" in2="shape" result="effect1_innerShadow_2786_5710"/>
<feColorMatrix in="SourceAlpha" type="matrix" values="0 0 0 0 0 0 0 0 0 0 0 0 0 0 0 0 0 0 127 0" result="hardAlpha"/>
<feOffset dx="-0.73755" dy="0.73755"/>
<feGaussianBlur stdDeviation="0.368775"/>
<feComposite in2="hardAlpha" operator="arithmetic" k2="-1" k3="1"/>
<feColorMatrix type="matrix" values="0 0 0 0 0.871206 0 0 0 0 1 0 0 0 0 0.997853 0 0 0 0.5 0"/>
<feBlend mode="normal" in2="effect1_innerShadow_2786_5710" result="effect2_innerShadow_2786_5710"/>
</filter>
<filter id="filter4_ii_2786_5710" x="108.847" y="188.242" width="68.3044" height="30.5376" filterUnits="userSpaceOnUse" color-interpolation-filters="sRGB">
<feFlood flood-opacity="0" result="BackgroundImageFix"/>
<feBlend mode="normal" in="SourceGraphic" in2="BackgroundImageFix" result="shape"/>
<feColorMatrix in="SourceAlpha" type="matrix" values="0 0 0 0 0 0 0 0 0 0 0 0 0 0 0 0 0 0 127 0" result="hardAlpha"/>
<feOffset dx="-8.11305" dy="1.4751"/>
<feGaussianBlur stdDeviation="3.90902"/>
<feComposite in2="hardAlpha" operator="arithmetic" k2="-1" k3="1"/>
<feColorMatrix type="matrix" values="0 0 0 0 0.869328 0 0 0 0 0.719989 0 0 0 0 1 0 0 0 0.2 0"/>
<feBlend mode="normal" in2="shape" result="effect1_innerShadow_2786_5710"/>
<feColorMatrix in="SourceAlpha" type="matrix" values="0 0 0 0 0 0 0 0 0 0 0 0 0 0 0 0 0 0 127 0" result="hardAlpha"/>
<feOffset dx="-0.73755"/>
<feGaussianBlur stdDeviation="0.368775"/>
<feComposite in2="hardAlpha" operator="arithmetic" k2="-1" k3="1"/>
<feColorMatrix type="matrix" values="0 0 0 0 0.858824 0 0 0 0 0.976471 0 0 0 0 0.984314 0 0 0 0.2 0"/>
<feBlend mode="normal" in2="effect1_innerShadow_2786_5710" result="effect2_innerShadow_2786_5710"/>
</filter>
<filter id="filter5_g_2786_5710" x="140.822" y="120.311" width="25.9207" height="23.5969" filterUnits="userSpaceOnUse" color-interpolation-filters="sRGB">
<feFlood flood-opacity="0" result="BackgroundImageFix"/>
<feBlend mode="normal" in="SourceGraphic" in2="BackgroundImageFix" result="shape"/>
<feTurbulence type="fractalNoise" baseFrequency="1.5064890384674072 1.5064890384674072" numOctaves="3" seed="3511" />
<feDisplacementMap in="shape" scale="0.73755002021789551" xChannelSelector="R" yChannelSelector="G" result="displacedImage" width="100%" height="100%" />
<feMerge result="effect1_texture_2786_5710">
<feMergeNode in="displacedImage"/>
</feMerge>
</filter>
<filter id="filter6_g_2786_5710" x="145.428" y="123.562" width="17.5987" height="16.4063" filterUnits="userSpaceOnUse" color-interpolation-filters="sRGB">
<feFlood flood-opacity="0" result="BackgroundImageFix"/>
<feBlend mode="normal" in="SourceGraphic" in2="BackgroundImageFix" result="shape"/>
<feTurbulence type="fractalNoise" baseFrequency="2.2937488555908203 2.2937488555908203" numOctaves="3" seed="3511" />
<feDisplacementMap in="shape" scale="0.48440840840339661" xChannelSelector="R" yChannelSelector="G" result="displacedImage" width="100%" height="100%" />
<feMerge result="effect1_texture_2786_5710">
<feMergeNode in="displacedImage"/>
</feMerge>
</filter>
<filter id="filter7_g_2786_5710" x="174.906" y="133.022" width="23.6897" height="23.3235" filterUnits="userSpaceOnUse" color-interpolation-filters="sRGB">
<feFlood flood-opacity="0" result="BackgroundImageFix"/>
<feBlend mode="normal" in="SourceGraphic" in2="BackgroundImageFix" result="shape"/>
<feTurbulence type="fractalNoise" baseFrequency="1.5064890384674072 1.5064890384674072" numOctaves="3" seed="3511" />
<feDisplacementMap in="shape" scale="0.73755002021789551" xChannelSelector="R" yChannelSelector="G" result="displacedImage" width="100%" height="100%" />
<feMerge result="effect1_texture_2786_5710">
<feMergeNode in="displacedImage"/>
</feMerge>
</filter>
<filter id="filter8_g_2786_5710" x="178.265" y="136.156" width="17.355" height="16.5625" filterUnits="userSpaceOnUse" color-interpolation-filters="sRGB">
<feFlood flood-opacity="0" result="BackgroundImageFix"/>
<feBlend mode="normal" in="SourceGraphic" in2="BackgroundImageFix" result="shape"/>
<feTurbulence type="fractalNoise" baseFrequency="2.2937488555908203 2.2937488555908203" numOctaves="3" seed="3511" />
<feDisplacementMap in="shape" scale="0.48440840840339661" xChannelSelector="R" yChannelSelector="G" result="displacedImage" width="100%" height="100%" />
<feMerge result="effect1_texture_2786_5710">
<feMergeNode in="displacedImage"/>
</feMerge>
</filter>
<linearGradient id="paint0_linear_2786_5710" x1="216.032" y1="5.37732" x2="229.106" y2="108.064" gradientUnits="userSpaceOnUse">
<stop stop-color="#9CCFFF"/>
<stop offset="1" stop-color="#A7B3FF" stop-opacity="0"/>
</linearGradient>
<linearGradient id="paint1_linear_2786_5710" x1="16.8296" y1="159.456" x2="32.5769" y2="283.137" gradientUnits="userSpaceOnUse">
<stop stop-color="#9CCFFF"/>
<stop offset="1" stop-color="#A7B3FF" stop-opacity="0"/>
</linearGradient>
<linearGradient id="paint2_linear_2786_5710" x1="164.463" y1="154.412" x2="121.181" y2="254.993" gradientUnits="userSpaceOnUse">
<stop offset="0.158654" stop-color="#121938"/>
<stop offset="0.529097" stop-color="#FF89C4"/>
<stop offset="0.938356" stop-color="#FFEB81"/>
</linearGradient>
<linearGradient id="paint3_linear_2786_5710" x1="248.733" y1="107.098" x2="94.541" y2="172.529" gradientUnits="userSpaceOnUse">
<stop stop-color="#FFB2FF" stop-opacity="0.2"/>
<stop offset="1" stop-color="white" stop-opacity="0"/>
</linearGradient>
<linearGradient id="paint4_linear_2786_5710" x1="112.802" y1="44.8101" x2="108.387" y2="192.845" gradientUnits="userSpaceOnUse">
<stop stop-color="#802A71"/>
<stop offset="0.586538" stop-color="#CEA184"/>
<stop offset="1" stop-color="#A3547F"/>
</linearGradient>
<linearGradient id="paint5_linear_2786_5710" x1="124.084" y1="65.0949" x2="135.401" y2="131.816" gradientUnits="userSpaceOnUse">
<stop stop-color="#FFD9FF"/>
<stop offset="0.440397" stop-color="#FCD7FD" stop-opacity="0"/>
</linearGradient>
<linearGradient id="paint6_linear_2786_5710" x1="100.521" y1="91.5801" x2="96.0582" y2="114.019" gradientUnits="userSpaceOnUse">
<stop stop-color="#FFD9FF"/>
<stop offset="1" stop-color="#FCD7FD" stop-opacity="0"/>
</linearGradient>
<clipPath id="clip0_2786_5710">
<rect width="298" height="274" fill="white" transform="translate(0 0.953125)"/>
</clipPath>
<clipPath id="clip1_2786_5710">
<rect width="226.133" height="166.386" fill="white" transform="translate(95.4863 7) rotate(26.5945)"/>
</clipPath>
</defs>
</svg>
