<svg width="300" height="220" viewBox="0 0 300 220" fill="none" xmlns="http://www.w3.org/2000/svg">
<g clip-path="url(#clip0_1836_2020)">
<path d="M126.112 156.362C128.667 152.07 134.435 151.043 138.313 154.19C142.098 157.262 142.38 162.938 138.918 166.369L124.917 180.248C122.909 182.238 119.744 182.451 117.489 180.747C115.176 179 114.547 175.794 116.03 173.303L126.112 156.362Z" fill="#D474C6"/>
<path d="M103.637 139.865C106.854 136.044 112.712 135.966 116.029 139.701C119.266 143.345 118.624 148.992 114.651 151.817L98.5845 163.241C96.2809 164.879 93.1236 164.576 91.174 162.529C89.1751 160.431 89.0748 157.164 90.9412 154.947L103.637 139.865Z" fill="#D474C6"/>
<g filter="url(#filter0_n_1836_2020)">
<ellipse cx="153.82" cy="104.016" rx="113.705" ry="101.39" transform="rotate(-9.05149 153.82 104.016)" fill="url(#paint0_linear_1836_2020)" fill-opacity="0.9"/>
<path d="M138.007 4.75555C199.64 -5.06295 256.523 31.5362 265.242 86.2654C273.961 140.995 231.266 193.457 169.633 203.276C108 213.094 51.1164 176.495 42.3978 121.766C33.6791 67.0366 76.3742 14.5741 138.007 4.75555Z" stroke="url(#paint1_linear_1836_2020)" stroke-width="1.75538"/>
</g>
<g filter="url(#filter1_ii_1836_2020)">
<path d="M128.439 27.5508C128.802 25.5002 130.806 24.2038 132.836 24.666C151.094 28.8237 159.459 36.6929 162.572 42.5674C163.743 44.7774 161.716 46.8411 159.215 46.8848C155.856 46.9433 153.079 47.5555 150.953 48.3232C153.54 51.194 158.99 58.0868 163.431 66.1055C170.862 58.803 180.378 55.7347 185.028 55.0889C196.894 52.3259 223.159 54.9915 233.301 87.7578C236.643 102.511 235.026 115.467 230.615 126.649L236.562 131.369C238.777 133.126 239.364 136.244 237.94 138.686C236.481 141.189 233.371 142.193 230.723 141.018L224.681 138.335C222.208 142.284 219.417 145.95 216.445 149.337L222.908 156.813C224.757 158.952 224.754 162.124 222.9 164.259C221 166.447 217.759 166.855 215.375 165.207L206.587 159.13C196.366 168.065 185.797 174.159 179.39 177.461C178.77 177.78 177.75 178.245 176.542 178.754L175.926 188.38C175.745 191.2 173.52 193.46 170.702 193.684C167.813 193.912 165.214 191.93 164.669 189.084L163.207 181.442C135.762 178.22 65.4404 148.872 80.1934 100.924C92.455 61.0735 127.418 61.9424 149.507 69.1875C147.621 64.1039 144.993 57.7449 142.11 52.5225C139.509 53.8314 137.327 55.3767 135.563 56.9092C133.121 59.0316 128.752 58.5164 128.121 55.3428C126.211 45.7343 127.186 34.6479 128.439 27.5508Z" fill="#D474C6"/>
</g>
<g filter="url(#filter2_ii_1836_2020)">
<path d="M142.653 217.235L135.538 206.705C133.868 204.233 134.787 200.851 137.534 199.689C163.997 188.496 195.278 185.197 211.014 184.809C213.842 184.739 216.005 187.187 215.737 190.004L214.643 201.485C214.431 203.71 212.729 205.505 210.521 205.856C180.348 210.645 158.197 216.543 147.837 219.218C145.861 219.728 143.796 218.927 142.653 217.235Z" fill="#802A71"/>
</g>
<circle cx="177.226" cy="199.083" r="3.41323" fill="#F5C0EC"/>
<circle cx="155.771" cy="203.959" r="3.41323" fill="#F5C0EC"/>
<circle cx="198.679" cy="196.158" r="3.41323" fill="#F5C0EC"/>
<g filter="url(#filter3_g_1836_2020)">
<ellipse cx="143.745" cy="113.564" rx="16.8363" ry="14.8928" transform="rotate(-7.75815 143.745 113.564)" fill="white"/>
</g>
<g filter="url(#filter4_g_1836_2020)">
<ellipse cx="144.59" cy="113.274" rx="11.4111" ry="10.4178" transform="rotate(-7.75815 144.59 113.274)" fill="black"/>
</g>
<g filter="url(#filter5_g_1836_2020)">
<ellipse cx="190.172" cy="108.908" rx="15.2016" ry="14.8928" transform="rotate(-7.75815 190.172 108.908)" fill="white"/>
</g>
<ellipse cx="168.483" cy="121.245" rx="4.87605" ry="3.90084" transform="rotate(-3.98844 168.483 121.245)" fill="#FF581D"/>
<path d="M162.371 127.254L163.017 128.158C164.082 129.649 165.996 130.272 167.735 129.692V129.692" stroke="#852A0A" stroke-width="1.56034" stroke-linecap="round"/>
<g filter="url(#filter6_g_1836_2020)">
<ellipse cx="190.253" cy="108.512" rx="11.2171" ry="10.5598" transform="rotate(-7.75815 190.253 108.512)" fill="black"/>
</g>
<path opacity="0.8" d="M96.6144 53.3488L77.5525 81.9895C73.4034 88.2236 65.6421 95.1208 59.9241 90.2852C56.3969 87.3024 56.4053 81.6653 57.2612 77.9886C59.1051 71.4383 66.7574 55.5045 82.6152 44.171C92.1675 37.3441 96.9582 37.8022 99.1234 40.5111C102.069 44.1964 99.2283 49.4212 96.6144 53.3488Z" fill="url(#paint2_linear_1836_2020)"/>
<path opacity="0.89" d="M55.1302 99.152C64.4922 92.9107 64.8823 106.954 63.9071 114.755C62.7367 119.046 57.5682 116.543 55.1302 114.755C51.2294 112.155 45.7682 105.393 55.1302 99.152Z" fill="url(#paint3_linear_1836_2020)"/>
<g filter="url(#filter7_i_1836_2020)">
<path d="M84.8527 149.203C70.7794 184.615 39.3549 178.873 23.5866 170.763C21.6344 169.758 20.7888 167.48 21.4122 165.375L42.5265 94.0746C43.2317 91.6933 45.614 90.2062 48.0249 90.8022C68.5826 95.8846 99.1757 113.162 84.8527 149.203Z" fill="#602D9B"/>
</g>
<ellipse cx="39.2385" cy="131.397" rx="36.2567" ry="41.934" transform="rotate(22.9481 39.2385 131.397)" fill="url(#paint4_linear_1836_2020)"/>
<ellipse cx="39.1238" cy="131.35" rx="31.3576" ry="36.2529" transform="rotate(22.9481 39.1238 131.35)" fill="#FCDDE3"/>
<path d="M48.5016 107.901L28.5098 149.835" stroke="#341953" stroke-width="4.87605" stroke-linecap="round"/>
<ellipse cx="37.992" cy="130.412" rx="5.85126" ry="6.33886" transform="rotate(21.2356 37.992 130.412)" fill="#341953"/>
<rect x="51.7676" y="99.1245" width="2.92563" height="4.28042" rx="1.46281" transform="rotate(24.9649 51.7676 99.1245)" fill="#3F2169"/>
<rect x="24.4629" y="156.662" width="2.92563" height="4.28042" rx="1.46281" transform="rotate(24.9649 24.4629 156.662)" fill="#3F2169"/>
<rect x="62.9492" y="142.434" width="2.92563" height="4.28042" rx="1.46281" transform="rotate(123.314 62.9492 142.434)" fill="#3F2169"/>
<rect x="18.0898" y="119.029" width="2.92563" height="4.28042" rx="1.46281" transform="rotate(123.314 18.0898 119.029)" fill="#3F2169"/>
<g filter="url(#filter8_ii_1836_2020)">
<path d="M275.301 136.546C284.773 134.032 293.956 139.137 295.812 147.949C297.667 156.761 291.492 165.943 282.019 168.457C272.546 170.971 263.363 165.867 261.508 157.055C259.652 148.243 265.828 139.06 275.301 136.546ZM288.742 149.862C287.673 144.784 282.381 141.841 276.922 143.29C271.463 144.739 267.904 150.031 268.973 155.109C270.042 160.187 275.335 163.129 280.794 161.68C286.253 160.231 289.811 154.94 288.742 149.862Z" fill="#F5F5F5"/>
</g>
<g filter="url(#filter9_iii_1836_2020)">
<path d="M271.153 126.358C278.154 124.924 279.865 135.155 279.846 140.45C280.306 144.575 280.941 156.049 280.148 171.067C279.998 173.909 279.243 176.77 277.29 178.84C268.877 187.756 252.539 188.696 244.901 184.275C243.719 183.591 242.808 182.551 242.031 181.428C232.127 167.131 223.328 143.082 227.576 138.945C232.773 133.104 245.158 129.46 252.313 128.02C253.682 127.745 255.08 127.695 256.476 127.71C259.886 127.747 265.551 127.506 271.153 126.358Z" fill="#EEEEEE"/>
</g>
<g filter="url(#filter10_i_1836_2020)">
<path d="M247.104 131.158C256.741 117.32 265.411 117.236 268.617 119.001C271.526 120.478 275.997 125.066 271.467 131.883C271.146 132.366 270.745 132.797 270.303 133.172C262.119 140.121 252.126 143.098 244.16 144.011C243.523 144.149 242.861 144.268 242.18 144.362C236.609 145.132 231.874 144.029 231.567 141.899C231.425 141.501 231.399 141.063 231.531 140.592C231.701 139.985 232.09 139.402 232.817 138.935C233.273 138.642 233.808 138.509 234.333 138.373C238.09 137.399 242.376 134.986 244.943 133.32C245.806 132.76 246.516 132.002 247.104 131.158Z" fill="#392929"/>
</g>
<g filter="url(#filter11_i_1836_2020)">
<circle cx="278.132" cy="107.875" r="5.55798" transform="rotate(-2.8247 278.132 107.875)" fill="#392929"/>
</g>
</g>
<defs>
<filter id="filter0_n_1836_2020" x="40.3892" y="2.28564" width="226.862" height="203.46" filterUnits="userSpaceOnUse" color-interpolation-filters="sRGB">
<feFlood flood-opacity="0" result="BackgroundImageFix"/>
<feBlend mode="normal" in="SourceGraphic" in2="BackgroundImageFix" result="shape"/>
<feTurbulence type="fractalNoise" baseFrequency="0.10681461542844772 0.10681461542844772" stitchTiles="stitch" numOctaves="3" result="noise" seed="1999" />
<feColorMatrix in="noise" type="luminanceToAlpha" result="alphaNoise" />
<feComponentTransfer in="alphaNoise" result="coloredNoise1">
<feFuncA type="discrete" tableValues="1 1 1 1 1 1 1 1 1 1 1 1 1 1 1 1 1 1 1 1 1 1 1 1 1 1 1 1 1 1 1 1 1 1 1 1 1 1 1 1 1 1 1 1 1 1 1 1 1 1 1 0 0 0 0 0 0 0 0 0 0 0 0 0 0 0 0 0 0 0 0 0 0 0 0 0 0 0 0 0 0 0 0 0 0 0 0 0 0 0 0 0 0 0 0 0 0 0 0 0 "/>
</feComponentTransfer>
<feComposite operator="in" in2="shape" in="coloredNoise1" result="noise1Clipped" />
<feFlood flood-color="rgba(0, 0, 0, 0.08)" result="color1Flood" />
<feComposite operator="in" in2="noise1Clipped" in="color1Flood" result="color1" />
<feMerge result="effect1_noise_1836_2020">
<feMergeNode in="shape" />
<feMergeNode in="color1" />
</feMerge>
</filter>
<filter id="filter1_ii_1836_2020" x="69.4049" y="24.5723" width="169.309" height="171.08" filterUnits="userSpaceOnUse" color-interpolation-filters="sRGB">
<feFlood flood-opacity="0" result="BackgroundImageFix"/>
<feBlend mode="normal" in="SourceGraphic" in2="BackgroundImageFix" result="shape"/>
<feColorMatrix in="SourceAlpha" type="matrix" values="0 0 0 0 0 0 0 0 0 0 0 0 0 0 0 0 0 0 127 0" result="hardAlpha"/>
<feOffset dx="-8.77689" dy="1.95042"/>
<feGaussianBlur stdDeviation="7.26531"/>
<feComposite in2="hardAlpha" operator="arithmetic" k2="-1" k3="1"/>
<feColorMatrix type="matrix" values="0 0 0 0 1 0 0 0 0 0.912766 0 0 0 0 0.792818 0 0 0 0.8 0"/>
<feBlend mode="normal" in2="shape" result="effect1_innerShadow_1836_2020"/>
<feColorMatrix in="SourceAlpha" type="matrix" values="0 0 0 0 0 0 0 0 0 0 0 0 0 0 0 0 0 0 127 0" result="hardAlpha"/>
<feOffset dx="-0.97521" dy="0.97521"/>
<feGaussianBlur stdDeviation="0.487605"/>
<feComposite in2="hardAlpha" operator="arithmetic" k2="-1" k3="1"/>
<feColorMatrix type="matrix" values="0 0 0 0 0.871206 0 0 0 0 1 0 0 0 0 0.997853 0 0 0 0.5 0"/>
<feBlend mode="normal" in2="effect1_innerShadow_1836_2020" result="effect2_innerShadow_1836_2020"/>
</filter>
<filter id="filter2_ii_1836_2020" x="124.365" y="184.807" width="91.3939" height="36.5134" filterUnits="userSpaceOnUse" color-interpolation-filters="sRGB">
<feFlood flood-opacity="0" result="BackgroundImageFix"/>
<feBlend mode="normal" in="SourceGraphic" in2="BackgroundImageFix" result="shape"/>
<feColorMatrix in="SourceAlpha" type="matrix" values="0 0 0 0 0 0 0 0 0 0 0 0 0 0 0 0 0 0 127 0" result="hardAlpha"/>
<feOffset dx="-10.7273" dy="1.95042"/>
<feGaussianBlur stdDeviation="5.16861"/>
<feComposite in2="hardAlpha" operator="arithmetic" k2="-1" k3="1"/>
<feColorMatrix type="matrix" values="0 0 0 0 0.869328 0 0 0 0 0.719989 0 0 0 0 1 0 0 0 0.2 0"/>
<feBlend mode="normal" in2="shape" result="effect1_innerShadow_1836_2020"/>
<feColorMatrix in="SourceAlpha" type="matrix" values="0 0 0 0 0 0 0 0 0 0 0 0 0 0 0 0 0 0 127 0" result="hardAlpha"/>
<feOffset dx="-0.97521"/>
<feGaussianBlur stdDeviation="0.487605"/>
<feComposite in2="hardAlpha" operator="arithmetic" k2="-1" k3="1"/>
<feColorMatrix type="matrix" values="0 0 0 0 0.858824 0 0 0 0 0.976471 0 0 0 0 0.984314 0 0 0 0.2 0"/>
<feBlend mode="normal" in2="effect1_innerShadow_1836_2020" result="effect2_innerShadow_1836_2020"/>
</filter>
<filter id="filter3_g_1836_2020" x="126.453" y="98.1442" width="34.5845" height="30.8404" filterUnits="userSpaceOnUse" color-interpolation-filters="sRGB">
<feFlood flood-opacity="0" result="BackgroundImageFix"/>
<feBlend mode="normal" in="SourceGraphic" in2="BackgroundImageFix" result="shape"/>
<feTurbulence type="fractalNoise" baseFrequency="1.1393560171127319 1.1393560171127319" numOctaves="3" seed="3511" />
<feDisplacementMap in="shape" scale="0.97520977258682251" xChannelSelector="R" yChannelSelector="G" result="displacedImage" width="100%" height="100%" />
<feMerge result="effect1_texture_1836_2020">
<feMergeNode in="displacedImage"/>
</feMerge>
</filter>
<filter id="filter4_g_1836_2020" x="132.875" y="102.515" width="23.4304" height="21.517" filterUnits="userSpaceOnUse" color-interpolation-filters="sRGB">
<feFlood flood-opacity="0" result="BackgroundImageFix"/>
<feBlend mode="normal" in="SourceGraphic" in2="BackgroundImageFix" result="shape"/>
<feTurbulence type="fractalNoise" baseFrequency="1.7347598075866699 1.7347598075866699" numOctaves="3" seed="3511" />
<feDisplacementMap in="shape" scale="0.6404985785484314" xChannelSelector="R" yChannelSelector="G" result="displacedImage" width="100%" height="100%" />
<feMerge result="effect1_texture_1836_2020">
<feMergeNode in="displacedImage"/>
</feMerge>
</filter>
<filter id="filter5_g_1836_2020" x="174.487" y="93.5207" width="31.3708" height="30.7755" filterUnits="userSpaceOnUse" color-interpolation-filters="sRGB">
<feFlood flood-opacity="0" result="BackgroundImageFix"/>
<feBlend mode="normal" in="SourceGraphic" in2="BackgroundImageFix" result="shape"/>
<feTurbulence type="fractalNoise" baseFrequency="1.1393560171127319 1.1393560171127319" numOctaves="3" seed="3511" />
<feDisplacementMap in="shape" scale="0.97520977258682251" xChannelSelector="R" yChannelSelector="G" result="displacedImage" width="100%" height="100%" />
<feMerge result="effect1_texture_1836_2020">
<feMergeNode in="displacedImage"/>
</feMerge>
</filter>
<filter id="filter6_g_1836_2020" x="178.726" y="97.6187" width="23.0538" height="21.7875" filterUnits="userSpaceOnUse" color-interpolation-filters="sRGB">
<feFlood flood-opacity="0" result="BackgroundImageFix"/>
<feBlend mode="normal" in="SourceGraphic" in2="BackgroundImageFix" result="shape"/>
<feTurbulence type="fractalNoise" baseFrequency="1.7347598075866699 1.7347598075866699" numOctaves="3" seed="3511" />
<feDisplacementMap in="shape" scale="0.6404985785484314" xChannelSelector="R" yChannelSelector="G" result="displacedImage" width="100%" height="100%" />
<feMerge result="effect1_texture_1836_2020">
<feMergeNode in="displacedImage"/>
</feMerge>
</filter>
<filter id="filter7_i_1836_2020" x="19.2598" y="90.6704" width="69.2821" height="90.1064" filterUnits="userSpaceOnUse" color-interpolation-filters="sRGB">
<feFlood flood-opacity="0" result="BackgroundImageFix"/>
<feBlend mode="normal" in="SourceGraphic" in2="BackgroundImageFix" result="shape"/>
<feColorMatrix in="SourceAlpha" type="matrix" values="0 0 0 0 0 0 0 0 0 0 0 0 0 0 0 0 0 0 127 0" result="hardAlpha"/>
<feOffset dx="-1.95042" dy="3.90084"/>
<feGaussianBlur stdDeviation="3.41323"/>
<feComposite in2="hardAlpha" operator="arithmetic" k2="-1" k3="1"/>
<feColorMatrix type="matrix" values="0 0 0 0 0.924917 0 0 0 0 1 0 0 0 0 0.849835 0 0 0 0.6 0"/>
<feBlend mode="normal" in2="shape" result="effect1_innerShadow_1836_2020"/>
</filter>
<filter id="filter8_ii_1836_2020" x="256.547" y="135.905" width="39.5938" height="35.9724" filterUnits="userSpaceOnUse" color-interpolation-filters="sRGB">
<feFlood flood-opacity="0" result="BackgroundImageFix"/>
<feBlend mode="normal" in="SourceGraphic" in2="BackgroundImageFix" result="shape"/>
<feColorMatrix in="SourceAlpha" type="matrix" values="0 0 0 0 0 0 0 0 0 0 0 0 0 0 0 0 0 0 127 0" result="hardAlpha"/>
<feOffset dx="-4.63165" dy="2.77899"/>
<feGaussianBlur stdDeviation="2.82531"/>
<feComposite in2="hardAlpha" operator="arithmetic" k2="-1" k3="1"/>
<feColorMatrix type="matrix" values="0 0 0 0 0.949782 0 0 0 0 1 0 0 0 0 0.85652 0 0 0 0.77 0"/>
<feBlend mode="normal" in2="shape" result="effect1_innerShadow_1836_2020"/>
<feColorMatrix in="SourceAlpha" type="matrix" values="0 0 0 0 0 0 0 0 0 0 0 0 0 0 0 0 0 0 127 0" result="hardAlpha"/>
<feOffset dx="-0.92633" dy="0.92633"/>
<feGaussianBlur stdDeviation="0.463165"/>
<feComposite in2="hardAlpha" operator="arithmetic" k2="-1" k3="1"/>
<feColorMatrix type="matrix" values="0 0 0 0 0.980056 0 0 0 0 1 0 0 0 0 0.999668 0 0 0 0.7 0"/>
<feBlend mode="normal" in2="effect1_innerShadow_1836_2020" result="effect2_innerShadow_1836_2020"/>
</filter>
<filter id="filter9_iii_1836_2020" x="221.849" y="126.222" width="63.678" height="64.3323" filterUnits="userSpaceOnUse" color-interpolation-filters="sRGB">
<feFlood flood-opacity="0" result="BackgroundImageFix"/>
<feBlend mode="normal" in="SourceGraphic" in2="BackgroundImageFix" result="shape"/>
<feColorMatrix in="SourceAlpha" type="matrix" values="0 0 0 0 0 0 0 0 0 0 0 0 0 0 0 0 0 0 127 0" result="hardAlpha"/>
<feOffset dx="-4.63165" dy="2.77899"/>
<feGaussianBlur stdDeviation="2.82531"/>
<feComposite in2="hardAlpha" operator="arithmetic" k2="-1" k3="1"/>
<feColorMatrix type="matrix" values="0 0 0 0 0.949782 0 0 0 0 1 0 0 0 0 0.85652 0 0 0 0.77 0"/>
<feBlend mode="normal" in2="shape" result="effect1_innerShadow_1836_2020"/>
<feColorMatrix in="SourceAlpha" type="matrix" values="0 0 0 0 0 0 0 0 0 0 0 0 0 0 0 0 0 0 127 0" result="hardAlpha"/>
<feOffset dx="5.55798" dy="3.70532"/>
<feGaussianBlur stdDeviation="2.50109"/>
<feComposite in2="hardAlpha" operator="arithmetic" k2="-1" k3="1"/>
<feColorMatrix type="matrix" values="0 0 0 0 1 0 0 0 0 0.602539 0 0 0 0 0.403809 0 0 0 0.25 0"/>
<feBlend mode="normal" in2="effect1_innerShadow_1836_2020" result="effect2_innerShadow_1836_2020"/>
<feColorMatrix in="SourceAlpha" type="matrix" values="0 0 0 0 0 0 0 0 0 0 0 0 0 0 0 0 0 0 127 0" result="hardAlpha"/>
<feOffset dx="-0.92633" dy="0.92633"/>
<feGaussianBlur stdDeviation="0.463165"/>
<feComposite in2="hardAlpha" operator="arithmetic" k2="-1" k3="1"/>
<feColorMatrix type="matrix" values="0 0 0 0 0.980056 0 0 0 0 1 0 0 0 0 0.999668 0 0 0 0.7 0"/>
<feBlend mode="normal" in2="effect2_innerShadow_1836_2020" result="effect3_innerShadow_1836_2020"/>
</filter>
<filter id="filter10_i_1836_2020" x="230.518" y="118.208" width="42.8814" height="28.2511" filterUnits="userSpaceOnUse" color-interpolation-filters="sRGB">
<feFlood flood-opacity="0" result="BackgroundImageFix"/>
<feBlend mode="normal" in="SourceGraphic" in2="BackgroundImageFix" result="shape"/>
<feColorMatrix in="SourceAlpha" type="matrix" values="0 0 0 0 0 0 0 0 0 0 0 0 0 0 0 0 0 0 127 0" result="hardAlpha"/>
<feOffset dx="-0.92633" dy="1.85266"/>
<feGaussianBlur stdDeviation="2.31583"/>
<feComposite in2="hardAlpha" operator="arithmetic" k2="-1" k3="1"/>
<feColorMatrix type="matrix" values="0 0 0 0 1 0 0 0 0 0.771221 0 0 0 0 0.942805 0 0 0 0.7 0"/>
<feBlend mode="normal" in2="shape" result="effect1_innerShadow_1836_2020"/>
</filter>
<filter id="filter11_i_1836_2020" x="269.795" y="102.317" width="13.8952" height="12.0425" filterUnits="userSpaceOnUse" color-interpolation-filters="sRGB">
<feFlood flood-opacity="0" result="BackgroundImageFix"/>
<feBlend mode="normal" in="SourceGraphic" in2="BackgroundImageFix" result="shape"/>
<feColorMatrix in="SourceAlpha" type="matrix" values="0 0 0 0 0 0 0 0 0 0 0 0 0 0 0 0 0 0 127 0" result="hardAlpha"/>
<feOffset dx="-2.77899" dy="0.92633"/>
<feGaussianBlur stdDeviation="2.31583"/>
<feComposite in2="hardAlpha" operator="arithmetic" k2="-1" k3="1"/>
<feColorMatrix type="matrix" values="0 0 0 0 1 0 0 0 0 0.772549 0 0 0 0 0.941176 0 0 0 0.4 0"/>
<feBlend mode="normal" in2="shape" result="effect1_innerShadow_1836_2020"/>
</filter>
<linearGradient id="paint0_linear_1836_2020" x1="266.084" y1="74.9781" x2="62.2066" y2="161.494" gradientUnits="userSpaceOnUse">
<stop stop-color="#FFB2FF" stop-opacity="0.2"/>
<stop offset="1" stop-color="white" stop-opacity="0"/>
</linearGradient>
<linearGradient id="paint1_linear_1836_2020" x1="43.6213" y1="34.6093" x2="126.027" y2="212.249" gradientUnits="userSpaceOnUse">
<stop stop-color="#802A71"/>
<stop offset="0.586538" stop-color="#CEA184"/>
<stop offset="1" stop-color="#A3547F"/>
</linearGradient>
<linearGradient id="paint2_linear_1836_2020" x1="68.9692" y1="51.914" x2="121.844" y2="124.101" gradientUnits="userSpaceOnUse">
<stop stop-color="#FFD9FF"/>
<stop offset="0.440397" stop-color="#FCD7FD" stop-opacity="0"/>
</linearGradient>
<linearGradient id="paint3_linear_1836_2020" x1="56.7874" y1="97.1739" x2="56.7961" y2="107.9" gradientUnits="userSpaceOnUse">
<stop stop-color="#FFD9FF"/>
<stop offset="1" stop-color="#FCD7FD" stop-opacity="0"/>
</linearGradient>
<linearGradient id="paint4_linear_1836_2020" x1="76.6439" y1="119.697" x2="-0.311556" y2="148.044" gradientUnits="userSpaceOnUse">
<stop stop-color="#AC79E8"/>
<stop offset="1" stop-color="#5E4080"/>
</linearGradient>
<clipPath id="clip0_1836_2020">
<rect width="299" height="220" fill="white" transform="translate(0.5)"/>
</clipPath>
</defs>
</svg>
