<svg width="25" height="25" viewBox="0 0 25 25" fill="none" xmlns="http://www.w3.org/2000/svg">
<path d="M19.4971 11.123H13.3818V9.62305H17.3311C16.8041 8.65771 16.0732 7.8974 15.1387 7.3418C14.2042 6.78599 13.1822 6.50781 12.0732 6.50781C10.4068 6.50791 8.98981 7.09124 7.82324 8.25781C6.65671 9.42444 6.07324 10.8412 6.07324 12.5078C6.07324 14.1744 6.65671 15.5912 7.82324 16.7578C8.98981 17.9244 10.4068 18.5077 12.0732 18.5078C13.3565 18.5078 14.5155 18.1415 15.5488 17.4082C16.5822 16.6749 17.307 15.7078 17.7236 14.5078H19.3047C18.8509 16.1396 17.9568 17.4642 16.623 18.4814C15.289 19.4988 13.7719 20.0078 12.0732 20.0078C9.97959 20.0077 8.20583 19.2809 6.75293 17.8281C5.30017 16.3755 4.57335 14.6027 4.57324 12.5098C4.57324 10.4165 5.29989 8.64227 6.75293 7.18848C8.20583 5.73474 9.97959 5.00791 12.0732 5.00781C13.2422 5.00781 14.349 5.26742 15.3926 5.78711C16.4361 6.30711 17.3047 7.04095 17.9971 7.98828V5.00781H19.4971V11.123Z" fill="#393F4E"/>
</svg>
