<svg width="262" height="221" viewBox="0 0 262 221" fill="none" xmlns="http://www.w3.org/2000/svg">
<g filter="url(#filter0_ii_3060_12393)">
<path d="M104.606 29.1738C104.967 27.1312 106.964 25.8396 108.986 26.2998C127.173 30.4413 135.504 38.2803 138.605 44.1318C139.772 46.333 137.752 48.3879 135.262 48.4316C131.919 48.49 129.153 49.0984 127.036 49.8623C129.779 52.9065 135.754 60.4885 140.307 69.1309C143.445 66.0034 147.337 63.0965 151.666 60.9746C155.897 58.7592 160.71 57.504 165.817 57.5039C180.227 57.5039 192.305 67.481 195.525 80.9033C207.316 85.1382 215.749 96.4164 215.749 109.665C215.749 117.484 212.81 124.615 207.979 130.019C207.405 130.801 206.794 131.591 206.144 132.387C206.575 134.432 206.804 136.552 206.804 138.726C206.803 155.599 193.125 169.277 176.251 169.277C175.088 169.277 173.94 169.21 172.811 169.083C167.079 177.701 156.914 183.433 145.327 183.433C138 183.433 131.241 181.14 125.812 177.275C121.088 180.235 115.52 181.945 109.557 181.945C93.9237 181.945 81.0018 170.205 78.9248 154.962C67.3605 150.408 59.258 139.85 59.2578 127.55C59.2578 116.236 66.1128 106.394 76.2119 101.345C76.1225 100.403 76.0752 99.4487 76.0752 98.4844C76.0752 81.1991 90.7548 67.1865 108.863 67.1865C114.303 67.1865 119.432 68.4517 123.948 70.6895C124.581 70.9104 125.221 71.1435 125.87 71.3896C123.977 66.2134 121.241 59.5063 118.227 54.0459C115.634 55.35 113.46 56.8901 111.703 58.417C109.27 60.5308 104.919 60.0175 104.29 56.8564C102.387 47.2859 103.358 36.2432 104.606 29.1738Z" fill="#FECA7A"/>
</g>
<g filter="url(#filter1_g_3060_12393)">
<ellipse cx="129.299" cy="114.716" rx="16.7705" ry="14.8345" transform="rotate(-8.01099 129.299 114.716)" fill="white"/>
</g>
<g filter="url(#filter2_g_3060_12393)">
<ellipse cx="130.139" cy="114.428" rx="11.3664" ry="10.377" transform="rotate(-8.01099 130.139 114.428)" fill="black"/>
</g>
<g filter="url(#filter3_g_3060_12393)">
<ellipse cx="175.519" cy="109.871" rx="15.1421" ry="14.8345" transform="rotate(-8.01099 175.519 109.871)" fill="white"/>
</g>
<ellipse cx="153.971" cy="122.262" rx="4.85697" ry="3.88558" transform="rotate(-4.24128 153.971 122.262)" fill="#FF581D"/>
<path d="M147.91 128.271L148.557 129.169C149.625 130.65 151.534 131.261 153.263 130.676V130.676" stroke="#852A0A" stroke-width="1.55423" stroke-linecap="round"/>
<g filter="url(#filter4_g_3060_12393)">
<ellipse cx="175.6" cy="109.482" rx="11.1732" ry="10.5185" transform="rotate(-8.01099 175.6 109.482)" fill="black"/>
</g>
<g filter="url(#filter5_n_3060_12393)">
<ellipse cx="128.255" cy="105.204" rx="113.26" ry="100.993" transform="rotate(-9.30433 128.255 105.204)" fill="url(#paint0_linear_3060_12393)" fill-opacity="0.9"/>
<path d="M112.068 6.40227C173.416 -3.64842 230.237 32.5577 239.162 87.0338C248.087 141.51 205.79 193.954 144.442 204.005C83.0941 214.056 26.2723 177.851 17.3472 123.375C8.42213 68.8984 50.72 16.4532 112.068 6.40227Z" stroke="url(#paint1_linear_3060_12393)" stroke-width="1.74851"/>
</g>
<g filter="url(#filter6_ii_3060_12393)">
<path d="M117.633 218.039L110.499 207.581C108.825 205.127 109.725 201.754 112.457 200.584C138.766 189.319 169.91 185.895 185.582 185.439C188.4 185.357 190.565 187.786 190.31 190.593L189.271 202.034C189.07 204.252 187.382 206.047 185.184 206.406C155.151 211.309 133.112 217.281 122.805 219.991C120.838 220.508 118.779 219.719 117.633 218.039Z" fill="#C57C42"/>
</g>
<circle cx="151.985" cy="199.807" r="3.39988" transform="rotate(-0.252845 151.985 199.807)" fill="#F3F5C0"/>
<circle cx="130.638" cy="204.754" r="3.39988" transform="rotate(-0.252845 130.638 204.754)" fill="#F3F5C0"/>
<circle cx="173.345" cy="196.799" r="3.39988" transform="rotate(-0.252845 173.345 196.799)" fill="#F3F5C0"/>
<path opacity="0.8" d="M71.0518 54.9862L52.1905 83.5984C48.0851 89.8263 40.3846 96.7306 34.6678 91.9391C31.1413 88.9834 31.1249 83.3684 31.9613 79.7024C33.7692 73.1697 41.3214 57.2647 57.0672 45.906C66.552 39.0639 71.3259 39.4991 73.4946 42.1879C76.4449 45.8458 73.6382 51.0626 71.0518 54.9862Z" fill="url(#paint2_linear_3060_12393)"/>
<path opacity="0.89" d="M29.9332 100.788C39.231 94.5302 39.6813 108.516 38.7442 116.292C37.5973 120.571 32.438 118.101 30.0017 116.33C26.1048 113.757 20.6353 107.046 29.9332 100.788Z" fill="url(#paint3_linear_3060_12393)"/>
<g filter="url(#filter7_iii_3060_12393)">
<path d="M257.529 106.471C256.26 103.733 250.487 97.8985 247.759 95.3235L235.535 91.8385C234.437 91.5256 228.52 90.7391 225.699 90.385C224.084 91.0036 220.38 92.2945 218.484 92.5094C216.115 92.778 213.871 94.0242 213.248 93.8464C212.749 93.7042 205.082 94.5772 201.31 95.0314C200.325 95.0201 197.897 95.0833 196.073 95.4264C193.792 95.8553 192.119 97.9408 199.447 106.774C199.875 108.11 201.373 110.425 202.193 111.333C203.013 112.241 204.475 113.737 206.168 114.894C207.861 116.051 207.167 117.067 208.308 118.741C209.45 120.415 211.838 121.501 214.457 122.248C217.077 122.994 222.657 129.441 230.515 131.681C238.374 133.922 235.237 132.623 238.444 132.728C241.651 132.833 243.629 132.048 246.016 131.245C248.402 130.442 247.333 129.462 255.223 124.968C263.113 120.474 261.614 115.325 261.096 112.885C260.578 110.444 259.116 109.893 257.529 106.471Z" fill="#BEC2C9"/>
</g>
<mask id="mask0_3060_12393" style="mask-type:alpha" maskUnits="userSpaceOnUse" x="194" y="90" width="68" height="44">
<path d="M257.525 106.471C256.256 103.733 250.483 97.8985 247.755 95.3235L235.531 91.8385C234.433 91.5256 228.516 90.7391 225.695 90.385C224.08 91.0036 220.376 92.2945 218.48 92.5094C216.111 92.778 213.867 94.0242 213.244 93.8464C212.745 93.7042 205.078 94.5772 201.307 95.0314C200.321 95.0201 197.893 95.0833 196.069 95.4264C193.788 95.8553 192.115 97.9408 199.443 106.774C199.871 108.11 201.369 110.425 202.189 111.333C203.009 112.241 204.471 113.737 206.164 114.894C207.857 116.051 207.163 117.067 208.304 118.741C209.446 120.415 211.834 121.501 214.453 122.248C217.073 122.994 222.653 129.441 230.511 131.681C238.37 133.922 235.233 132.623 238.44 132.728C241.647 132.833 243.625 132.048 246.012 131.245C248.399 130.442 247.329 129.462 255.219 124.968C263.109 120.474 261.61 115.325 261.092 112.885C260.574 110.444 259.112 109.893 257.525 106.471Z" fill="#BEC2C9"/>
</mask>
<g mask="url(#mask0_3060_12393)">
<g opacity="0.93" filter="url(#filter8_f_3060_12393)">
<path d="M196.992 99.5361L201.071 99.5039L205.367 102.684L205.862 104.599L209.756 105.431L207.349 110.345L218.378 109.535L225.577 109.717L238.987 112.582L242.821 117.925L248.416 121.383L252.12 116.746C252.47 116.519 253.431 116.121 254.469 116.343L255.767 116.62L257.278 113.777L256.011 111.244L256.905 109.174L254.957 105.591L255.653 103.694C256.507 104.763 257.184 105.729 257.527 106.471C259.114 109.893 260.576 110.445 261.094 112.885C261.612 115.325 263.112 120.473 255.222 124.968C253.711 125.828 252.53 126.56 251.589 127.187L235.325 132.918C235.127 132.883 234.896 132.838 234.623 132.776L217.213 123.907C216.086 123.069 215.163 122.45 214.455 122.248C211.836 121.501 209.448 120.415 208.307 118.741C207.166 117.067 207.86 116.051 206.167 114.895C204.474 113.737 203.011 112.241 202.191 111.333C201.371 110.425 199.874 108.11 199.445 106.774C196.001 102.622 194.546 99.9607 194.207 98.2617L196.992 99.5361Z" fill="#838383"/>
</g>
</g>
<mask id="mask1_3060_12393" style="mask-type:alpha" maskUnits="userSpaceOnUse" x="194" y="90" width="68" height="44">
<path d="M257.525 106.471C256.256 103.733 250.483 97.8985 247.755 95.3235L235.531 91.8385C234.433 91.5256 228.516 90.7391 225.695 90.385C224.08 91.0036 220.376 92.2945 218.48 92.5094C216.111 92.778 213.867 94.0242 213.244 93.8464C212.745 93.7042 205.078 94.5772 201.307 95.0314C200.321 95.0201 197.893 95.0833 196.069 95.4264C193.788 95.8553 192.115 97.9408 199.443 106.774C199.871 108.11 201.369 110.425 202.189 111.333C203.009 112.241 204.471 113.737 206.164 114.894C207.857 116.051 207.163 117.067 208.304 118.741C209.446 120.415 211.834 121.501 214.453 122.248C217.073 122.994 222.653 129.441 230.511 131.681C238.37 133.922 235.233 132.623 238.44 132.728C241.647 132.833 243.625 132.048 246.012 131.245C248.399 130.442 247.329 129.462 255.219 124.968C263.109 120.474 261.61 115.325 261.092 112.885C260.574 110.444 259.112 109.893 257.525 106.471Z" fill="#BEC2C9"/>
</mask>
<g mask="url(#mask1_3060_12393)">
<g opacity="0.54" filter="url(#filter9_f_3060_12393)">
<path d="M256.206 99.9048C257.039 98.665 258.984 94.9112 259.852 93.1893C257.768 90.4342 253.185 84.5108 251.518 82.8578C249.434 80.7915 241.1 82.8578 237.454 82.8578C234.537 82.8578 216.793 85.9573 208.285 87.507C209.153 90.6064 211.098 96.8053 211.931 96.8053C212.973 96.8053 220.265 95.2556 220.786 95.2556C221.307 95.2556 222.87 95.7722 223.911 96.8053L227.037 99.9048C228.078 100.938 230.683 107.137 231.204 108.17C231.725 109.203 237.454 106.104 239.017 107.137C240.58 108.17 243.184 108.17 244.747 108.17C246.309 108.17 246.309 108.17 250.476 107.137C254.643 106.104 252.039 105.587 254.643 103.004C257.248 100.421 255.164 101.455 256.206 99.9048Z" fill="#474747"/>
</g>
</g>
<g filter="url(#filter10_iiii_3060_12393)">
<path d="M248.747 82.5617C245.253 81.9413 241.39 81.2515 238.445 80.7164C235.84 80.2432 233.169 81.9798 232.581 84.5612L222.471 128.897L217.505 154.21C214.05 165.07 208.25 179.078 205.601 187.902C205.014 189.859 205.912 191.944 207.825 192.66C211.565 194.06 215.951 194.771 219.386 195.084C221.693 195.295 223.655 193.578 223.974 191.284C225.413 180.925 227.766 164.93 228.819 161.235C230.322 155.964 231.431 152.733 234.664 140.734C236.985 132.121 246.465 105.037 252.302 88.6746C253.265 85.9749 251.569 83.0627 248.747 82.5617Z" fill="#DBA589"/>
</g>
<path d="M227.34 91.5664C238.795 104.971 242.971 113.911 244.41 131.072" stroke="url(#paint4_linear_3060_12393)" stroke-width="4.79636" stroke-linecap="round"/>
<path d="M214.246 120.914C218.539 115.945 228.517 106.023 250.091 98.5646" stroke="url(#paint5_linear_3060_12393)" stroke-width="4.79636" stroke-linecap="round"/>
<path d="M115.402 96.3496C117.963 97.2836 125.231 104.031 146.824 100.983" stroke="#FCCC81" stroke-width="10.5778"/>
<mask id="mask2_3060_12393" style="mask-type:alpha" maskUnits="userSpaceOnUse" x="194" y="90" width="68" height="44">
<path d="M257.525 106.471C256.256 103.733 250.483 97.8985 247.755 95.3235L235.531 91.8385C234.433 91.5256 228.516 90.7391 225.695 90.385C224.08 91.0036 220.376 92.2945 218.48 92.5094C216.111 92.778 213.867 94.0242 213.244 93.8464C212.745 93.7042 205.078 94.5772 201.307 95.0314C200.321 95.0201 197.893 95.0833 196.069 95.4264C193.788 95.8553 192.115 97.9408 199.443 106.774C199.871 108.11 201.369 110.425 202.189 111.333C203.009 112.241 204.471 113.737 206.164 114.894C207.857 116.051 207.163 117.067 208.304 118.741C209.446 120.415 211.834 121.501 214.453 122.248C217.073 122.994 222.653 129.441 230.511 131.681C238.37 133.922 235.233 132.623 238.44 132.728C241.647 132.833 243.625 132.048 246.012 131.245C248.399 130.442 247.329 129.462 255.219 124.968C263.109 120.474 261.61 115.325 261.092 112.885C260.574 110.444 259.112 109.893 257.525 106.471Z" fill="#BEC2C9"/>
</mask>
<g mask="url(#mask2_3060_12393)">
<g opacity="0.61" filter="url(#filter11_f_3060_12393)">
<rect x="177.18" y="84.4492" width="43.6335" height="33.0556" fill="#E3FFDE"/>
</g>
</g>
<path d="M103.133 122.133C103.794 125.879 107.761 133.372 118.338 133.372" stroke="#A77322" stroke-width="1.98334" stroke-linecap="round"/>
<path d="M106.438 124.121L101.458 126.881" stroke="#A77322" stroke-width="1.98334" stroke-linecap="round"/>
<path d="M114.714 130.728L113.097 136.188" stroke="#A77322" stroke-width="1.98334" stroke-linecap="round"/>
<path d="M110.099 128.083L106.576 132.557" stroke="#A77322" stroke-width="1.98334" stroke-linecap="round"/>
<g filter="url(#filter12_i_3060_12393)">
<path d="M54.7746 166.555C53.8237 163.654 55.5446 160.557 58.5108 159.831L67.1552 157.718C70.0753 157.004 72.9963 158.887 73.5514 161.842L79.8472 195.348C80.3601 198.077 78.6547 200.733 75.9591 201.403L71.6566 202.471C68.9916 203.133 66.2675 201.626 65.4123 199.016L54.7746 166.555Z" fill="#91533A"/>
</g>
<g filter="url(#filter13_i_3060_12393)">
<path d="M37.0639 121.83C43.9229 113.927 43.1247 103.959 41.1678 97.6948C40.6598 96.0685 41.9621 94.3046 43.608 94.7449C57.6728 98.5081 63.363 112.647 64.464 119.798L65.869 115.337C66.2962 113.981 67.8985 113.418 68.9815 114.34C75.2808 119.702 82.8123 131.128 74.7957 145.137C69.3569 154.641 61.3905 156.983 54.4222 156.482C46.4354 155.908 39.3445 150.634 35.7761 143.466C32.6538 137.194 31.4476 129.266 37.0639 121.83Z" fill="url(#paint6_linear_3060_12393)"/>
</g>
<path d="M47.2586 134.712C51.0569 130.336 50.6149 124.816 49.5312 121.347C49.2499 120.447 49.9711 119.47 50.8825 119.714C58.671 121.798 61.822 129.627 62.4317 133.587L63.2097 131.117C63.4463 130.366 64.3336 130.054 64.9333 130.564C68.4216 133.534 72.5923 139.861 68.153 147.619C65.1412 152.882 60.7297 154.179 56.871 153.901C52.4482 153.583 48.5216 150.663 46.5455 146.693C44.8165 143.22 44.1486 138.83 47.2586 134.712Z" fill="url(#paint7_linear_3060_12393)"/>
<g filter="url(#filter14_i_3060_12393)">
<path d="M47.0731 162.681C45.0239 159.663 46.6086 155.526 50.1501 154.649L72.5437 149.105C75.9308 148.266 79.1763 150.909 79.041 154.396L78.795 160.735C78.7045 163.066 77.0846 165.057 74.8207 165.619L56.3303 170.211C54.199 170.74 51.9638 169.885 50.7303 168.068L47.0731 162.681Z" fill="url(#paint8_linear_3060_12393)"/>
</g>
<defs>
<filter id="filter0_ii_3060_12393" x="48.3008" y="26.207" width="167.449" height="161.211" filterUnits="userSpaceOnUse" color-interpolation-filters="sRGB">
<feFlood flood-opacity="0" result="BackgroundImageFix"/>
<feBlend mode="normal" in="SourceGraphic" in2="BackgroundImageFix" result="shape"/>
<feColorMatrix in="SourceAlpha" type="matrix" values="0 0 0 0 0 0 0 0 0 0 0 0 0 0 0 0 0 0 127 0" result="hardAlpha"/>
<feOffset dx="-10.957" dy="3.98435"/>
<feGaussianBlur stdDeviation="14.6425"/>
<feComposite in2="hardAlpha" operator="arithmetic" k2="-1" k3="1"/>
<feColorMatrix type="matrix" values="0 0 0 0 0.933333 0 0 0 0 0.960784 0 0 0 0 0.682353 0 0 0 1 0"/>
<feBlend mode="normal" in2="shape" result="effect1_innerShadow_3060_12393"/>
<feColorMatrix in="SourceAlpha" type="matrix" values="0 0 0 0 0 0 0 0 0 0 0 0 0 0 0 0 0 0 127 0" result="hardAlpha"/>
<feOffset dx="-0.689819" dy="0.689819"/>
<feGaussianBlur stdDeviation="0.34491"/>
<feComposite in2="hardAlpha" operator="arithmetic" k2="-1" k3="1"/>
<feColorMatrix type="matrix" values="0 0 0 0 0.871206 0 0 0 0 1 0 0 0 0 0.997853 0 0 0 0.5 0"/>
<feBlend mode="normal" in2="effect1_innerShadow_3060_12393" result="effect2_innerShadow_3060_12393"/>
</filter>
<filter id="filter1_g_3060_12393" x="112.077" y="99.3541" width="34.4441" height="30.7233" filterUnits="userSpaceOnUse" color-interpolation-filters="sRGB">
<feFlood flood-opacity="0" result="BackgroundImageFix"/>
<feBlend mode="normal" in="SourceGraphic" in2="BackgroundImageFix" result="shape"/>
<feTurbulence type="fractalNoise" baseFrequency="1.1438311338424683 1.1438311338424683" numOctaves="3" seed="3511" />
<feDisplacementMap in="shape" scale="0.97139436006546021" xChannelSelector="R" yChannelSelector="G" result="displacedImage" width="100%" height="100%" />
<feMerge result="effect1_texture_3060_12393">
<feMergeNode in="displacedImage"/>
</feMerge>
</filter>
<filter id="filter2_g_3060_12393" x="118.47" y="103.71" width="23.3372" height="21.4349" filterUnits="userSpaceOnUse" color-interpolation-filters="sRGB">
<feFlood flood-opacity="0" result="BackgroundImageFix"/>
<feBlend mode="normal" in="SourceGraphic" in2="BackgroundImageFix" result="shape"/>
<feTurbulence type="fractalNoise" baseFrequency="1.7415732145309448 1.7415732145309448" numOctaves="3" seed="3511" />
<feDisplacementMap in="shape" scale="0.63799268007278442" xChannelSelector="R" yChannelSelector="G" result="displacedImage" width="100%" height="100%" />
<feMerge result="effect1_texture_3060_12393">
<feMergeNode in="displacedImage"/>
</feMerge>
</filter>
<filter id="filter3_g_3060_12393" x="159.893" y="94.5416" width="31.2487" height="30.6569" filterUnits="userSpaceOnUse" color-interpolation-filters="sRGB">
<feFlood flood-opacity="0" result="BackgroundImageFix"/>
<feBlend mode="normal" in="SourceGraphic" in2="BackgroundImageFix" result="shape"/>
<feTurbulence type="fractalNoise" baseFrequency="1.1438311338424683 1.1438311338424683" numOctaves="3" seed="3511" />
<feDisplacementMap in="shape" scale="0.97139436006546021" xChannelSelector="R" yChannelSelector="G" result="displacedImage" width="100%" height="100%" />
<feMerge result="effect1_texture_3060_12393">
<feMergeNode in="displacedImage"/>
</feMerge>
</filter>
<filter id="filter4_g_3060_12393" x="164.119" y="98.6302" width="22.9622" height="21.7044" filterUnits="userSpaceOnUse" color-interpolation-filters="sRGB">
<feFlood flood-opacity="0" result="BackgroundImageFix"/>
<feBlend mode="normal" in="SourceGraphic" in2="BackgroundImageFix" result="shape"/>
<feTurbulence type="fractalNoise" baseFrequency="1.7415732145309448 1.7415732145309448" numOctaves="3" seed="3511" />
<feDisplacementMap in="shape" scale="0.63799268007278442" xChannelSelector="R" yChannelSelector="G" result="displacedImage" width="100%" height="100%" />
<feMerge result="effect1_texture_3060_12393">
<feMergeNode in="displacedImage"/>
</feMerge>
</filter>
<filter id="filter5_n_3060_12393" x="15.2852" y="3.85352" width="225.941" height="202.701" filterUnits="userSpaceOnUse" color-interpolation-filters="sRGB">
<feFlood flood-opacity="0" result="BackgroundImageFix"/>
<feBlend mode="normal" in="SourceGraphic" in2="BackgroundImageFix" result="shape"/>
<feTurbulence type="fractalNoise" baseFrequency="0.1072341650724411 0.1072341650724411" stitchTiles="stitch" numOctaves="3" result="noise" seed="1999" />
<feColorMatrix in="noise" type="luminanceToAlpha" result="alphaNoise" />
<feComponentTransfer in="alphaNoise" result="coloredNoise1">
<feFuncA type="discrete" tableValues="1 1 1 1 1 1 1 1 1 1 1 1 1 1 1 1 1 1 1 1 1 1 1 1 1 1 1 1 1 1 1 1 1 1 1 1 1 1 1 1 1 1 1 1 1 1 1 1 1 1 1 0 0 0 0 0 0 0 0 0 0 0 0 0 0 0 0 0 0 0 0 0 0 0 0 0 0 0 0 0 0 0 0 0 0 0 0 0 0 0 0 0 0 0 0 0 0 0 0 0 "/>
</feComponentTransfer>
<feComposite operator="in" in2="shape" in="coloredNoise1" result="noise1Clipped" />
<feFlood flood-color="rgba(0, 0, 0, 0.08)" result="color1Flood" />
<feComposite operator="in" in2="noise1Clipped" in="color1Flood" result="color1" />
<feMerge result="effect1_noise_3060_12393">
<feMergeNode in="shape" />
<feMergeNode in="color1" />
</feMerge>
</filter>
<filter id="filter6_ii_3060_12393" x="99.3595" y="185.438" width="90.9726" height="36.6537" filterUnits="userSpaceOnUse" color-interpolation-filters="sRGB">
<feFlood flood-opacity="0" result="BackgroundImageFix"/>
<feBlend mode="normal" in="SourceGraphic" in2="BackgroundImageFix" result="shape"/>
<feColorMatrix in="SourceAlpha" type="matrix" values="0 0 0 0 0 0 0 0 0 0 0 0 0 0 0 0 0 0 127 0" result="hardAlpha"/>
<feOffset dx="-10.6853" dy="1.94279"/>
<feGaussianBlur stdDeviation="5.14839"/>
<feComposite in2="hardAlpha" operator="arithmetic" k2="-1" k3="1"/>
<feColorMatrix type="matrix" values="0 0 0 0 0.869328 0 0 0 0 0.719989 0 0 0 0 1 0 0 0 0.2 0"/>
<feBlend mode="normal" in2="shape" result="effect1_innerShadow_3060_12393"/>
<feColorMatrix in="SourceAlpha" type="matrix" values="0 0 0 0 0 0 0 0 0 0 0 0 0 0 0 0 0 0 127 0" result="hardAlpha"/>
<feOffset dx="-0.971394"/>
<feGaussianBlur stdDeviation="0.485697"/>
<feComposite in2="hardAlpha" operator="arithmetic" k2="-1" k3="1"/>
<feColorMatrix type="matrix" values="0 0 0 0 0.858824 0 0 0 0 0.976471 0 0 0 0 0.984314 0 0 0 0.2 0"/>
<feBlend mode="normal" in2="effect1_innerShadow_3060_12393" result="effect2_innerShadow_3060_12393"/>
</filter>
<filter id="filter7_iii_3060_12393" x="190.292" y="85.5884" width="77.0224" height="51.2565" filterUnits="userSpaceOnUse" color-interpolation-filters="sRGB">
<feFlood flood-opacity="0" result="BackgroundImageFix"/>
<feBlend mode="normal" in="SourceGraphic" in2="BackgroundImageFix" result="shape"/>
<feColorMatrix in="SourceAlpha" type="matrix" values="0 0 0 0 0 0 0 0 0 0 0 0 0 0 0 0 0 0 127 0" result="hardAlpha"/>
<feOffset dx="-2.87781" dy="-4.79636"/>
<feGaussianBlur stdDeviation="4.70043"/>
<feComposite in2="hardAlpha" operator="arithmetic" k2="-1" k3="1"/>
<feColorMatrix type="matrix" values="0 0 0 0 0.533072 0 0 0 0 0.477082 0 0 0 0 0.253121 0 0 0 1 0"/>
<feBlend mode="normal" in2="shape" result="effect1_innerShadow_3060_12393"/>
<feColorMatrix in="SourceAlpha" type="matrix" values="0 0 0 0 0 0 0 0 0 0 0 0 0 0 0 0 0 0 127 0" result="hardAlpha"/>
<feOffset dx="5.75563" dy="3.83709"/>
<feGaussianBlur stdDeviation="3.35745"/>
<feComposite in2="hardAlpha" operator="arithmetic" k2="-1" k3="1"/>
<feColorMatrix type="matrix" values="0 0 0 0 0.991722 0 0 0 0 1 0 0 0 0 0.875826 0 0 0 0.25 0"/>
<feBlend mode="normal" in2="effect1_innerShadow_3060_12393" result="effect2_innerShadow_3060_12393"/>
<feColorMatrix in="SourceAlpha" type="matrix" values="0 0 0 0 0 0 0 0 0 0 0 0 0 0 0 0 0 0 127 0" result="hardAlpha"/>
<feOffset dx="-12.4705" dy="-22.0632"/>
<feGaussianBlur stdDeviation="1.91854"/>
<feComposite in2="hardAlpha" operator="arithmetic" k2="-1" k3="1"/>
<feColorMatrix type="matrix" values="0 0 0 0 1 0 0 0 0 0.348858 0 0 0 0 0.967443 0 0 0 0.06 0"/>
<feBlend mode="normal" in2="effect2_innerShadow_3060_12393" result="effect3_innerShadow_3060_12393"/>
</filter>
<filter id="filter8_f_3060_12393" x="191.959" y="96.0139" width="71.8432" height="39.1518" filterUnits="userSpaceOnUse" color-interpolation-filters="sRGB">
<feFlood flood-opacity="0" result="BackgroundImageFix"/>
<feBlend mode="normal" in="SourceGraphic" in2="BackgroundImageFix" result="shape"/>
<feGaussianBlur stdDeviation="1.12389" result="effect1_foregroundBlur_3060_12393"/>
</filter>
<filter id="filter9_f_3060_12393" x="202.996" y="76.6505" width="62.1442" height="37.0231" filterUnits="userSpaceOnUse" color-interpolation-filters="sRGB">
<feFlood flood-opacity="0" result="BackgroundImageFix"/>
<feBlend mode="normal" in="SourceGraphic" in2="BackgroundImageFix" result="shape"/>
<feGaussianBlur stdDeviation="2.64445" result="effect1_foregroundBlur_3060_12393"/>
</filter>
<filter id="filter10_iiii_3060_12393" x="199.875" y="74.9531" width="55.4723" height="120.148" filterUnits="userSpaceOnUse" color-interpolation-filters="sRGB">
<feFlood flood-opacity="0" result="BackgroundImageFix"/>
<feBlend mode="normal" in="SourceGraphic" in2="BackgroundImageFix" result="shape"/>
<feColorMatrix in="SourceAlpha" type="matrix" values="0 0 0 0 0 0 0 0 0 0 0 0 0 0 0 0 0 0 127 0" result="hardAlpha"/>
<feOffset dx="-5.54663"/>
<feGaussianBlur stdDeviation="3.65153"/>
<feComposite in2="hardAlpha" operator="arithmetic" k2="-1" k3="1"/>
<feColorMatrix type="matrix" values="0 0 0 0 0.745098 0 0 0 0 0.514118 0 0 0 0 0.39435 0 0 0 1 0"/>
<feBlend mode="normal" in2="shape" result="effect1_innerShadow_3060_12393"/>
<feColorMatrix in="SourceAlpha" type="matrix" values="0 0 0 0 0 0 0 0 0 0 0 0 0 0 0 0 0 0 127 0" result="hardAlpha"/>
<feOffset dx="2.77332"/>
<feGaussianBlur stdDeviation="2.86576"/>
<feComposite in2="hardAlpha" operator="arithmetic" k2="-1" k3="1"/>
<feColorMatrix type="matrix" values="0 0 0 0 1 0 0 0 0 0.9788 0 0 0 0 0.745605 0 0 0 0.6 0"/>
<feBlend mode="normal" in2="effect1_innerShadow_3060_12393" result="effect2_innerShadow_3060_12393"/>
<feColorMatrix in="SourceAlpha" type="matrix" values="0 0 0 0 0 0 0 0 0 0 0 0 0 0 0 0 0 0 127 0" result="hardAlpha"/>
<feOffset dx="-1.32223"/>
<feGaussianBlur stdDeviation="2.64445"/>
<feComposite in2="hardAlpha" operator="arithmetic" k2="-1" k3="1"/>
<feColorMatrix type="matrix" values="0 0 0 0 0.96783 0 0 0 0 0.91039 0 0 0 0 0.5849 0 0 0 0.8 0"/>
<feBlend mode="normal" in2="effect2_innerShadow_3060_12393" result="effect3_innerShadow_3060_12393"/>
<feColorMatrix in="SourceAlpha" type="matrix" values="0 0 0 0 0 0 0 0 0 0 0 0 0 0 0 0 0 0 127 0" result="hardAlpha"/>
<feOffset dx="-2.64445" dy="-6.61113"/>
<feGaussianBlur stdDeviation="2.84279"/>
<feComposite in2="hardAlpha" operator="arithmetic" k2="-1" k3="1"/>
<feColorMatrix type="matrix" values="0 0 0 0 0.600962 0 0 0 0 0.120192 0 0 0 0 0 0 0 0 0.25 0"/>
<feBlend mode="normal" in2="effect3_innerShadow_3060_12393" result="effect4_innerShadow_3060_12393"/>
</filter>
<filter id="filter11_f_3060_12393" x="165.015" y="72.2847" width="67.9618" height="57.3836" filterUnits="userSpaceOnUse" color-interpolation-filters="sRGB">
<feFlood flood-opacity="0" result="BackgroundImageFix"/>
<feBlend mode="normal" in="SourceGraphic" in2="BackgroundImageFix" result="shape"/>
<feGaussianBlur stdDeviation="6.08224" result="effect1_foregroundBlur_3060_12393"/>
</filter>
<filter id="filter12_i_3060_12393" x="54.5117" y="157.566" width="25.4258" height="47.6813" filterUnits="userSpaceOnUse" color-interpolation-filters="sRGB">
<feFlood flood-opacity="0" result="BackgroundImageFix"/>
<feBlend mode="normal" in="SourceGraphic" in2="BackgroundImageFix" result="shape"/>
<feColorMatrix in="SourceAlpha" type="matrix" values="0 0 0 0 0 0 0 0 0 0 0 0 0 0 0 0 0 0 127 0" result="hardAlpha"/>
<feOffset dy="17.4719"/>
<feGaussianBlur stdDeviation="1.31039"/>
<feComposite in2="hardAlpha" operator="arithmetic" k2="-1" k3="1"/>
<feColorMatrix type="matrix" values="0 0 0 0 0.498039 0 0 0 0 0.247059 0 0 0 0 0.129412 0 0 0 1 0"/>
<feBlend mode="normal" in2="shape" result="effect1_innerShadow_3060_12393"/>
</filter>
<filter id="filter13_i_3060_12393" x="33.1445" y="94.6758" width="45.125" height="61.8691" filterUnits="userSpaceOnUse" color-interpolation-filters="sRGB">
<feFlood flood-opacity="0" result="BackgroundImageFix"/>
<feBlend mode="normal" in="SourceGraphic" in2="BackgroundImageFix" result="shape"/>
<feColorMatrix in="SourceAlpha" type="matrix" values="0 0 0 0 0 0 0 0 0 0 0 0 0 0 0 0 0 0 127 0" result="hardAlpha"/>
<feOffset/>
<feGaussianBlur stdDeviation="7.07391"/>
<feComposite in2="hardAlpha" operator="arithmetic" k2="-1" k3="1"/>
<feColorMatrix type="matrix" values="0 0 0 0 1 0 0 0 0 0.479511 0 0 0 0 0.479511 0 0 0 1 0"/>
<feBlend mode="normal" in2="shape" result="effect1_innerShadow_3060_12393"/>
</filter>
<filter id="filter14_i_3060_12393" x="46.1641" y="148.949" width="32.8828" height="24.9104" filterUnits="userSpaceOnUse" color-interpolation-filters="sRGB">
<feFlood flood-opacity="0" result="BackgroundImageFix"/>
<feBlend mode="normal" in="SourceGraphic" in2="BackgroundImageFix" result="shape"/>
<feColorMatrix in="SourceAlpha" type="matrix" values="0 0 0 0 0 0 0 0 0 0 0 0 0 0 0 0 0 0 127 0" result="hardAlpha"/>
<feOffset dy="3.49438"/>
<feGaussianBlur stdDeviation="4.97949"/>
<feComposite in2="hardAlpha" operator="arithmetic" k2="-1" k3="1"/>
<feColorMatrix type="matrix" values="0 0 0 0 0.992157 0 0 0 0 0.682353 0 0 0 0 0.27451 0 0 0 1 0"/>
<feBlend mode="normal" in2="shape" result="effect1_innerShadow_3060_12393"/>
</filter>
<linearGradient id="paint0_linear_3060_12393" x1="240.08" y1="76.2802" x2="36.9998" y2="162.457" gradientUnits="userSpaceOnUse">
<stop stop-color="#FFE7B2" stop-opacity="0.2"/>
<stop offset="1" stop-color="white" stop-opacity="0"/>
</linearGradient>
<linearGradient id="paint1_linear_3060_12393" x1="18.1833" y1="36.5544" x2="101.046" y2="213.135" gradientUnits="userSpaceOnUse">
<stop stop-color="#C68250"/>
<stop offset="0.586538" stop-color="#CEA184"/>
<stop offset="1" stop-color="#CD885E"/>
</linearGradient>
<linearGradient id="paint2_linear_3060_12393" x1="43.5087" y1="53.6786" x2="96.493" y2="125.35" gradientUnits="userSpaceOnUse">
<stop stop-color="#FFEFD9"/>
<stop offset="0.440397" stop-color="#FDEBD7" stop-opacity="0"/>
</linearGradient>
<linearGradient id="paint3_linear_3060_12393" x1="24.7879" y1="101.643" x2="41.1283" y2="103.766" gradientUnits="userSpaceOnUse">
<stop stop-color="#FFFCD9"/>
<stop offset="1" stop-color="#FDF1D7" stop-opacity="0"/>
</linearGradient>
<linearGradient id="paint4_linear_3060_12393" x1="222.132" y1="84.4491" x2="247.651" y2="135.113" gradientUnits="userSpaceOnUse">
<stop stop-color="#F9FFA0"/>
<stop offset="0.240385" stop-color="#654C31"/>
<stop offset="0.512811" stop-color="#664D32"/>
<stop offset="1" stop-color="#936C43"/>
</linearGradient>
<linearGradient id="paint5_linear_3060_12393" x1="210.232" y1="121.472" x2="263.121" y2="91.0607" gradientUnits="userSpaceOnUse">
<stop stop-color="#D4C674"/>
<stop offset="0.240385" stop-color="#9A6E44"/>
<stop offset="0.751499" stop-color="#543C24"/>
</linearGradient>
<linearGradient id="paint6_linear_3060_12393" x1="45.6592" y1="92.5246" x2="61.4041" y2="155.923" gradientUnits="userSpaceOnUse">
<stop stop-color="#FD8A3C"/>
<stop offset="1" stop-color="#FDD85B"/>
</linearGradient>
<linearGradient id="paint7_linear_3060_12393" x1="52.0184" y1="118.484" x2="60.8207" y2="164.452" gradientUnits="userSpaceOnUse">
<stop stop-color="#FFEAC5"/>
<stop offset="1" stop-color="#FEF973"/>
</linearGradient>
<linearGradient id="paint8_linear_3060_12393" x1="61.0762" y1="151.93" x2="65.0768" y2="168.039" gradientUnits="userSpaceOnUse">
<stop stop-color="#B16433"/>
<stop offset="1" stop-color="#945637"/>
</linearGradient>
</defs>
</svg>
