<svg width="299" height="249" viewBox="0 0 299 249" fill="none" xmlns="http://www.w3.org/2000/svg">
<g clip-path="url(#clip0_3052_45750)">
<g filter="url(#filter0_d_3052_45750)">
<path d="M99.0824 108.194L199.573 161.413L199.92 161.598L199.734 161.942L185.418 188.364L185.396 188.406L185.362 188.442L185.163 188.259L185.363 188.443L185.361 188.445C185.36 188.446 185.358 188.448 185.355 188.451C185.35 188.456 185.342 188.464 185.333 188.474C185.314 188.494 185.287 188.524 185.25 188.562C185.177 188.639 185.069 188.752 184.929 188.896C184.85 188.978 184.76 189.068 184.661 189.168L155.843 241.229C154.283 244.047 150.645 245.241 147.719 243.894C144.792 242.547 143.685 239.171 145.245 236.353L164.755 201.106C164.766 201.066 164.779 201.025 164.793 200.984C164.864 200.777 164.985 200.515 165.159 200.19C165.421 199.701 165.376 199.128 165.07 198.559C164.762 197.986 164.204 197.452 163.528 197.105C162.853 196.759 162.089 196.613 161.369 196.771C160.808 196.894 160.247 197.209 159.758 197.803L147.718 220.283C145.284 224.826 139.492 226.814 134.782 224.722C130.071 222.63 128.225 217.25 130.659 212.707L142.509 190.581L142.449 190.552L142.657 190.19C145.138 185.893 145.703 182.16 145.079 179.213C144.456 176.268 142.638 174.066 140.27 172.829C135.54 170.359 128.54 171.716 124.509 178.947L124.322 179.282L124.308 179.275L115.434 195.509C113.476 199.089 108.877 200.625 105.161 198.938C101.446 197.251 100.021 192.981 101.978 189.4L111.809 171.417C112.217 169.657 111.026 167.965 109.282 167.038C108.334 166.534 107.274 166.293 106.326 166.407C105.495 166.507 104.748 166.879 104.21 167.602L82.1115 207.522C79.6151 212.032 73.796 213.94 69.1136 211.786C64.4313 209.631 62.6589 204.229 65.1549 199.719L86.3382 161.449L86.2601 161.42L86.436 161.042C86.8251 160.207 86.9853 159.487 86.9907 158.939C86.9963 158.376 86.8417 158.061 86.6893 157.934C86.573 157.837 86.3637 157.776 85.9976 157.992C85.6742 158.182 85.2774 158.57 84.8521 159.226L68.0349 187.895C66.3297 190.801 62.5026 191.958 59.4886 190.479C56.4751 188.999 55.4153 185.443 57.1202 182.537L73.6312 154.389L73.5941 154.369L73.7838 154.018L98.5579 108.352L98.7413 108.013L99.0824 108.194Z" fill="url(#paint0_linear_3052_45750)"/>
</g>
<g filter="url(#filter1_ii_3052_45750)">
<path d="M174.439 26.1613C175.564 24.6754 177.69 24.4605 179.119 25.6569C191.969 36.4185 195.422 46.1008 195.506 52.0511C195.537 54.2888 193.08 55.1059 191.07 54.1209C188.369 52.7967 185.906 52.1511 183.898 51.8955C184.722 54.9905 186.095 61.8322 186.506 69.3361C233.605 81.4019 229.804 106.918 224.871 123.607L230.403 126.243C233.118 127.537 233.484 131.253 231.073 133.051L221.02 140.546C220.751 140.746 220.469 140.904 220.181 141.027C218.914 147.547 217.988 154.555 217.367 160.523C216.721 166.729 211.09 171.136 205.439 168.49C201.164 166.488 196.627 166.569 192.566 168.978L189.213 170.967C184.92 173.513 179.761 174.159 174.973 172.751L127.472 158.782C122.869 157.429 118.998 154.291 116.721 150.068L115.919 148.581C113.064 143.283 107.655 140.025 101.915 138.215C91.8993 135.056 85.3479 128.864 87.9095 123.637C90.6797 117.985 95.6304 111.013 100.074 103.978L96.0309 97.8114C94.382 95.2964 95.9985 91.9304 98.9922 91.6454L106.991 90.8844C119.289 50.6951 153.362 54.8226 174.619 64.312C175.004 60.2474 175.266 55.7065 175.139 51.6329C172.534 51.6147 170.167 51.9556 168.138 52.4568C165.326 53.151 162.056 50.9586 162.847 48.1732C165.245 39.7391 170.545 31.3041 174.439 26.1613Z" fill="#AEC336"/>
</g>
<g filter="url(#filter2_n_3052_45750)">
<ellipse cx="163.7" cy="95.9147" rx="101.774" ry="90.7511" transform="rotate(18.066 163.7 95.9147)" fill="url(#paint1_linear_3052_45750)" fill-opacity="0.9"/>
<path d="M191.599 10.3841C244.707 27.7075 275.092 80.0736 259.709 127.232C244.327 174.391 188.908 198.768 135.8 181.445C82.6927 164.122 52.3065 111.755 67.6894 64.5966C83.0723 17.4379 138.492 -6.93926 191.599 10.3841Z" stroke="url(#paint2_linear_3052_45750)" stroke-width="1.57119"/>
</g>
<g filter="url(#filter3_ii_3052_45750)">
<path d="M108.38 183.061L107.007 171.769C106.685 169.119 108.797 166.799 111.46 166.994C137.109 168.874 163.376 179.008 176.071 185.118C178.353 186.216 179.077 189.049 177.714 191.184L172.159 199.885C171.082 201.571 168.994 202.307 167.092 201.685C141.099 193.19 121.045 188.852 111.701 186.756C109.918 186.356 108.6 184.876 108.38 183.061Z" fill="#545B09"/>
</g>
<circle cx="143.323" cy="182.714" r="3.05466" transform="rotate(27.1175 143.323 182.714)" fill="#DBDFAB"/>
<circle cx="124.248" cy="177.841" r="3.05466" transform="rotate(27.1175 124.248 177.841)" fill="#DBDFAB"/>
<circle cx="161.612" cy="189.134" r="3.05466" transform="rotate(27.1175 161.612 189.134)" fill="#DBDFAB"/>
<g filter="url(#filter4_g_3052_45750)">
<ellipse cx="149.092" cy="105.016" rx="15.0697" ry="13.3301" transform="rotate(19.3593 149.092 105.016)" fill="white"/>
</g>
<g filter="url(#filter5_g_3052_45750)">
<ellipse cx="149.885" cy="105.126" rx="10.2137" ry="9.32466" transform="rotate(19.3593 149.885 105.126)" fill="black"/>
</g>
<g filter="url(#filter6_g_3052_45750)">
<ellipse cx="187.977" cy="120.253" rx="13.6065" ry="13.3301" transform="rotate(19.3593 187.977 120.253)" fill="white"/>
</g>
<ellipse cx="165.658" cy="121.236" rx="4.36442" ry="3.49153" transform="rotate(23.129 165.658 121.236)" fill="#FF581D"/>
<path d="M160.96 127.521L160.041 127.389C159.345 127.29 158.777 126.78 158.603 126.099C158.199 124.515 156.03 124.316 155.343 125.8L155.087 126.354C154.907 126.742 154.851 127.18 154.975 127.589C155.429 129.088 156.439 130.682 159.061 130.54C160.397 130.467 161.359 129.935 161.971 129.348C162.784 128.567 162.077 127.68 160.96 127.521Z" fill="#852A0A" stroke="#852A0A" stroke-width="1.39661"/>
<g filter="url(#filter7_g_3052_45750)">
<ellipse cx="188.199" cy="119.963" rx="10.0401" ry="9.45179" transform="rotate(19.3593 188.199 119.963)" fill="black"/>
</g>
<path opacity="0.8" d="M138.549 33.7218L111.678 48.7623C105.829 52.036 96.832 54.3644 94.2494 48.1791C92.6564 44.3637 94.9629 39.8762 97.1449 37.2962C101.286 32.83 113.884 23.2579 131.141 20.6986C141.536 19.1569 145.166 21.4764 145.786 24.518C146.629 28.6558 142.234 31.6593 138.549 33.7218Z" fill="url(#paint3_linear_3052_45750)"/>
<path opacity="0.89" d="M86.8274 53.2758C96.8324 52.1231 91.4137 63.47 87.4538 69.2876C84.7708 72.2286 81.6743 68.1258 80.4614 65.7067C78.4147 62.0434 76.8225 54.4286 86.8274 53.2758Z" fill="url(#paint4_linear_3052_45750)"/>
<path d="M145.688 82.0557C147.588 86.5397 161.214 103.24 169.369 103.93" stroke="#B0C648" stroke-width="8.2528"/>
<g filter="url(#filter8_i_3052_45750)">
<rect x="236.496" y="31.751" width="61.9398" height="46.2166" rx="11.1991" transform="rotate(28.9499 236.496 31.751)" fill="url(#paint5_linear_3052_45750)"/>
</g>
<rect x="226.887" y="62.8945" width="23.3465" height="5.71752" rx="2.85876" transform="rotate(28.9499 226.887 62.8945)" fill="white"/>
<circle cx="259.16" cy="71.5036" r="3.33522" transform="rotate(28.9499 259.16 71.5036)" fill="white"/>
<path d="M262.383 63.2051C264.846 64.6583 269.063 69.2414 266.224 75.9476" stroke="white" stroke-width="3.33522" stroke-linecap="round"/>
<path d="M266.355 57.5068C270.294 60.23 276.931 68.3119 271.971 78.8539" stroke="white" stroke-width="3.33522" stroke-linecap="round"/>
</g>
<defs>
<filter id="filter0_d_3052_45750" x="44.6769" y="101.923" width="160.224" height="153.046" filterUnits="userSpaceOnUse" color-interpolation-filters="sRGB">
<feFlood flood-opacity="0" result="BackgroundImageFix"/>
<feColorMatrix in="SourceAlpha" type="matrix" values="0 0 0 0 0 0 0 0 0 0 0 0 0 0 0 0 0 0 127 0" result="hardAlpha"/>
<feOffset dx="-3.32221" dy="2.21481"/>
<feGaussianBlur stdDeviation="4.15276"/>
<feComposite in2="hardAlpha" operator="out"/>
<feColorMatrix type="matrix" values="0 0 0 0 1 0 0 0 0 1 0 0 0 0 1 0 0 0 0.4 0"/>
<feBlend mode="normal" in2="BackgroundImageFix" result="effect1_dropShadow_3052_45750"/>
<feBlend mode="normal" in="SourceGraphic" in2="effect1_dropShadow_3052_45750" result="shape"/>
</filter>
<filter id="filter1_ii_3052_45750" x="79.4956" y="24.8848" width="153.184" height="150.342" filterUnits="userSpaceOnUse" color-interpolation-filters="sRGB">
<feFlood flood-opacity="0" result="BackgroundImageFix"/>
<feBlend mode="normal" in="SourceGraphic" in2="BackgroundImageFix" result="shape"/>
<feColorMatrix in="SourceAlpha" type="matrix" values="0 0 0 0 0 0 0 0 0 0 0 0 0 0 0 0 0 0 127 0" result="hardAlpha"/>
<feOffset dx="-7.85595" dy="1.74577"/>
<feGaussianBlur stdDeviation="6.50298"/>
<feComposite in2="hardAlpha" operator="arithmetic" k2="-1" k3="1"/>
<feColorMatrix type="matrix" values="0 0 0 0 1 0 0 0 0 0.979808 0 0 0 0 0.913462 0 0 0 0.8 0"/>
<feBlend mode="normal" in2="shape" result="effect1_innerShadow_3052_45750"/>
<feColorMatrix in="SourceAlpha" type="matrix" values="0 0 0 0 0 0 0 0 0 0 0 0 0 0 0 0 0 0 127 0" result="hardAlpha"/>
<feOffset dx="-0.872883" dy="0.872883"/>
<feGaussianBlur stdDeviation="0.436441"/>
<feComposite in2="hardAlpha" operator="arithmetic" k2="-1" k3="1"/>
<feColorMatrix type="matrix" values="0 0 0 0 0.871206 0 0 0 0 1 0 0 0 0 0.997853 0 0 0 0.5 0"/>
<feBlend mode="normal" in2="effect1_innerShadow_3052_45750" result="effect2_innerShadow_3052_45750"/>
</filter>
<filter id="filter2_n_3052_45750" x="62.9062" y="4.02148" width="201.586" height="183.787" filterUnits="userSpaceOnUse" color-interpolation-filters="sRGB">
<feFlood flood-opacity="0" result="BackgroundImageFix"/>
<feBlend mode="normal" in="SourceGraphic" in2="BackgroundImageFix" result="shape"/>
<feTurbulence type="fractalNoise" baseFrequency="0.11933635920286179 0.11933635920286179" stitchTiles="stitch" numOctaves="3" result="noise" seed="1999" />
<feColorMatrix in="noise" type="luminanceToAlpha" result="alphaNoise" />
<feComponentTransfer in="alphaNoise" result="coloredNoise1">
<feFuncA type="discrete" tableValues="1 1 1 1 1 1 1 1 1 1 1 1 1 1 1 1 1 1 1 1 1 1 1 1 1 1 1 1 1 1 1 1 1 1 1 1 1 1 1 1 1 1 1 1 1 1 1 1 1 1 1 0 0 0 0 0 0 0 0 0 0 0 0 0 0 0 0 0 0 0 0 0 0 0 0 0 0 0 0 0 0 0 0 0 0 0 0 0 0 0 0 0 0 0 0 0 0 0 0 0 "/>
</feComponentTransfer>
<feComposite operator="in" in2="shape" in="coloredNoise1" result="noise1Clipped" />
<feFlood flood-color="rgba(0, 0, 0, 0.08)" result="color1Flood" />
<feComposite operator="in" in2="noise1Clipped" in="color1Flood" result="color1" />
<feMerge result="effect1_noise_3052_45750">
<feMergeNode in="shape" />
<feMergeNode in="color1" />
</feMerge>
</filter>
<filter id="filter3_ii_3052_45750" x="97.724" y="166.982" width="80.6783" height="36.6667" filterUnits="userSpaceOnUse" color-interpolation-filters="sRGB">
<feFlood flood-opacity="0" result="BackgroundImageFix"/>
<feBlend mode="normal" in="SourceGraphic" in2="BackgroundImageFix" result="shape"/>
<feColorMatrix in="SourceAlpha" type="matrix" values="0 0 0 0 0 0 0 0 0 0 0 0 0 0 0 0 0 0 127 0" result="hardAlpha"/>
<feOffset dx="-9.60171" dy="1.74577"/>
<feGaussianBlur stdDeviation="4.62628"/>
<feComposite in2="hardAlpha" operator="arithmetic" k2="-1" k3="1"/>
<feColorMatrix type="matrix" values="0 0 0 0 0.869328 0 0 0 0 0.719989 0 0 0 0 1 0 0 0 0.2 0"/>
<feBlend mode="normal" in2="shape" result="effect1_innerShadow_3052_45750"/>
<feColorMatrix in="SourceAlpha" type="matrix" values="0 0 0 0 0 0 0 0 0 0 0 0 0 0 0 0 0 0 127 0" result="hardAlpha"/>
<feOffset dx="-0.872883"/>
<feGaussianBlur stdDeviation="0.436441"/>
<feComposite in2="hardAlpha" operator="arithmetic" k2="-1" k3="1"/>
<feColorMatrix type="matrix" values="0 0 0 0 0.858824 0 0 0 0 0.976471 0 0 0 0 0.984314 0 0 0 0.2 0"/>
<feBlend mode="normal" in2="effect1_innerShadow_3052_45750" result="effect2_innerShadow_3052_45750"/>
</filter>
<filter id="filter4_g_3052_45750" x="133.763" y="91.044" width="30.658" height="27.9442" filterUnits="userSpaceOnUse" color-interpolation-filters="sRGB">
<feFlood flood-opacity="0" result="BackgroundImageFix"/>
<feBlend mode="normal" in="SourceGraphic" in2="BackgroundImageFix" result="shape"/>
<feTurbulence type="fractalNoise" baseFrequency="1.2729212045669556 1.2729212045669556" numOctaves="3" seed="3511" />
<feDisplacementMap in="shape" scale="0.87288284301757812" xChannelSelector="R" yChannelSelector="G" result="displacedImage" width="100%" height="100%" />
<feMerge result="effect1_texture_3052_45750">
<feMergeNode in="displacedImage"/>
</feMerge>
</filter>
<filter id="filter5_g_3052_45750" x="139.475" y="95.4096" width="20.8194" height="19.4317" filterUnits="userSpaceOnUse" color-interpolation-filters="sRGB">
<feFlood flood-opacity="0" result="BackgroundImageFix"/>
<feBlend mode="normal" in="SourceGraphic" in2="BackgroundImageFix" result="shape"/>
<feTurbulence type="fractalNoise" baseFrequency="1.938123345375061 1.938123345375061" numOctaves="3" seed="3511" />
<feDisplacementMap in="shape" scale="0.57329225540161133" xChannelSelector="R" yChannelSelector="G" result="displacedImage" width="100%" height="100%" />
<feMerge result="effect1_texture_3052_45750">
<feMergeNode in="displacedImage"/>
</feMerge>
</filter>
<filter id="filter6_g_3052_45750" x="173.962" y="106.452" width="28.033" height="27.6014" filterUnits="userSpaceOnUse" color-interpolation-filters="sRGB">
<feFlood flood-opacity="0" result="BackgroundImageFix"/>
<feBlend mode="normal" in="SourceGraphic" in2="BackgroundImageFix" result="shape"/>
<feTurbulence type="fractalNoise" baseFrequency="1.2729212045669556 1.2729212045669556" numOctaves="3" seed="3511" />
<feDisplacementMap in="shape" scale="0.87288284301757812" xChannelSelector="R" yChannelSelector="G" result="displacedImage" width="100%" height="100%" />
<feMerge result="effect1_texture_3052_45750">
<feMergeNode in="displacedImage"/>
</feMerge>
</filter>
<filter id="filter7_g_3052_45750" x="177.932" y="110.156" width="20.5342" height="19.6153" filterUnits="userSpaceOnUse" color-interpolation-filters="sRGB">
<feFlood flood-opacity="0" result="BackgroundImageFix"/>
<feBlend mode="normal" in="SourceGraphic" in2="BackgroundImageFix" result="shape"/>
<feTurbulence type="fractalNoise" baseFrequency="1.938123345375061 1.938123345375061" numOctaves="3" seed="3511" />
<feDisplacementMap in="shape" scale="0.57329225540161133" xChannelSelector="R" yChannelSelector="G" result="displacedImage" width="100%" height="100%" />
<feMerge result="effect1_texture_3052_45750">
<feMergeNode in="displacedImage"/>
</feMerge>
</filter>
<filter id="filter8_i_3052_45750" x="215.905" y="34.0906" width="70.7711" height="64.0637" filterUnits="userSpaceOnUse" color-interpolation-filters="sRGB">
<feFlood flood-opacity="0" result="BackgroundImageFix"/>
<feBlend mode="normal" in="SourceGraphic" in2="BackgroundImageFix" result="shape"/>
<feColorMatrix in="SourceAlpha" type="matrix" values="0 0 0 0 0 0 0 0 0 0 0 0 0 0 0 0 0 0 127 0" result="hardAlpha"/>
<feOffset dx="-2.23983" dy="-1.67987"/>
<feGaussianBlur stdDeviation="5.1516"/>
<feComposite in2="hardAlpha" operator="arithmetic" k2="-1" k3="1"/>
<feColorMatrix type="matrix" values="0 0 0 0 0.819608 0 0 0 0 0.807843 0 0 0 0 0.815686 0 0 0 1 0"/>
<feBlend mode="normal" in2="shape" result="effect1_innerShadow_3052_45750"/>
</filter>
<linearGradient id="paint0_linear_3052_45750" x1="162.668" y1="130.252" x2="110.042" y2="247.739" gradientUnits="userSpaceOnUse">
<stop offset="0.158654" stop-color="#121938"/>
<stop offset="0.621738" stop-color="#B3C954"/>
<stop offset="0.938356" stop-color="#FFEF9D"/>
</linearGradient>
<linearGradient id="paint1_linear_3052_45750" x1="264.184" y1="69.924" x2="81.6991" y2="147.362" gradientUnits="userSpaceOnUse">
<stop stop-color="#B2E5FF" stop-opacity="0.2"/>
<stop offset="1" stop-color="white" stop-opacity="0"/>
</linearGradient>
<linearGradient id="paint2_linear_3052_45750" x1="104.224" y1="-4.33981" x2="97.3993" y2="170.803" gradientUnits="userSpaceOnUse">
<stop stop-color="#718C3E"/>
<stop offset="0.586538" stop-color="#CECE84"/>
<stop offset="1" stop-color="#718C3E"/>
</linearGradient>
<linearGradient id="paint3_linear_3052_45750" x1="117.111" y1="21.2998" x2="129.783" y2="100.382" gradientUnits="userSpaceOnUse">
<stop stop-color="#EEFFD9"/>
<stop offset="0.440397" stop-color="#EEFFD9" stop-opacity="0"/>
</linearGradient>
<linearGradient id="paint4_linear_3052_45750" x1="82.6109" y1="51.3587" x2="97.2287" y2="63.0552" gradientUnits="userSpaceOnUse">
<stop stop-color="#EEFFD9"/>
<stop offset="1" stop-color="#EEFFD9" stop-opacity="0"/>
</linearGradient>
<linearGradient id="paint5_linear_3052_45750" x1="243.643" y1="34.1333" x2="294.148" y2="77.0147" gradientUnits="userSpaceOnUse">
<stop stop-color="#A5AAFF"/>
<stop offset="1" stop-color="#BE85FF"/>
</linearGradient>
<clipPath id="clip0_3052_45750">
<rect width="299" height="248" fill="white" transform="translate(0 0.699219)"/>
</clipPath>
</defs>
</svg>
