<svg width="299" height="221" viewBox="0 0 299 221" fill="none" xmlns="http://www.w3.org/2000/svg">
<g filter="url(#filter0_ii_3060_22614)">
<path d="M127.729 28.2715C128.091 26.2184 130.098 24.9209 132.131 25.3838C150.412 29.5468 158.787 37.4257 161.904 43.3076C163.076 45.5202 161.046 47.5872 158.542 47.6309C155.181 47.6895 152.402 48.3012 150.273 49.0693C152.972 52.0649 158.785 59.4313 163.321 67.8896C177.631 60.4649 233.018 53.9969 238.378 115.972C243.058 170.088 220.583 173.134 208.761 167.894C201.74 184.567 185.602 179.229 178.411 174.476C163.2 195.537 143.309 186.42 135.265 179.229C137.093 183.982 96.8029 211.824 85.5361 138.276C75.743 74.348 123.587 67.5373 149.719 72.4219C147.823 67.0565 144.793 59.3876 141.418 53.2734C138.813 54.5842 136.627 56.1323 134.861 57.667C132.416 59.7913 128.043 59.2753 127.41 56.0986C125.497 46.4785 126.474 35.3776 127.729 28.2715Z" fill="#798ACD"/>
</g>
<g filter="url(#filter1_n_3060_22614)">
<ellipse cx="153.136" cy="104.862" rx="113.848" ry="101.517" transform="rotate(-9.05149 153.136 104.862)" fill="url(#paint0_linear_3060_22614)" fill-opacity="0.9"/>
<path d="M137.303 5.47676C199.013 -4.35405 255.968 32.2909 264.698 87.0886C273.428 141.887 230.678 194.416 168.968 204.247C107.257 214.077 50.3027 177.432 41.5731 122.634C32.8438 67.836 75.5925 15.3077 137.303 5.47676Z" stroke="url(#paint1_linear_3060_22614)" stroke-width="1.75758"/>
</g>
<g filter="url(#filter2_ii_3060_22614)">
<path d="M141.957 218.225L134.833 207.681C133.161 205.207 134.081 201.82 136.832 200.657C163.328 189.45 194.648 186.147 210.403 185.757C213.236 185.687 215.401 188.139 215.133 190.959L214.038 202.455C213.826 204.683 212.121 206.48 209.911 206.831C179.699 211.626 157.52 217.532 147.148 220.21C145.169 220.721 143.102 219.919 141.957 218.225Z" fill="#3E4C8C"/>
</g>
<circle cx="176.57" cy="200.048" r="3.41752" fill="#CFD7F7"/>
<circle cx="155.089" cy="204.927" r="3.41752" fill="#CFD7F7"/>
<circle cx="198.05" cy="197.122" r="3.41752" fill="#CFD7F7"/>
<g filter="url(#filter3_g_3060_22614)">
<ellipse cx="147.165" cy="122.738" rx="16.8575" ry="14.9115" transform="rotate(-7.75815 147.165 122.738)" fill="white"/>
</g>
<g filter="url(#filter4_g_3060_22614)">
<ellipse cx="148.01" cy="122.448" rx="11.4254" ry="10.4309" transform="rotate(-7.75815 148.01 122.448)" fill="black"/>
</g>
<g filter="url(#filter5_g_3060_22614)">
<ellipse cx="193.649" cy="118.07" rx="15.2207" ry="14.9115" transform="rotate(-7.75815 193.649 118.07)" fill="white"/>
</g>
<ellipse cx="171.931" cy="130.424" rx="4.88217" ry="3.90574" transform="rotate(-3.98844 171.931 130.424)" fill="#FF581D"/>
<path d="M165.812 136.437L166.459 137.341C167.526 138.835 169.442 139.458 171.183 138.878V138.878" stroke="#852A0A" stroke-width="1.5623" stroke-linecap="round"/>
<g filter="url(#filter6_g_3060_22614)">
<ellipse cx="193.731" cy="117.672" rx="11.2312" ry="10.5731" transform="rotate(-7.75815 193.731 117.672)" fill="black"/>
</g>
<path opacity="0.8" d="M95.8575 54.1358L76.7717 82.8125C72.6173 89.0544 64.8463 95.9603 59.1211 91.1186C55.5896 88.132 55.598 82.4878 56.4549 78.8065C58.3012 72.248 65.9631 56.2942 81.8408 44.9465C91.405 38.111 96.2018 38.5697 98.3697 41.282C101.319 44.9719 98.4748 50.2033 95.8575 54.1358Z" fill="url(#paint2_linear_3060_22614)"/>
<path opacity="0.89" d="M54.3203 99.9909C63.6941 93.7417 64.0846 107.802 63.1082 115.614C61.9364 119.91 56.7613 117.404 54.3203 115.614C50.4145 113.01 44.9465 106.24 54.3203 99.9909Z" fill="url(#paint3_linear_3060_22614)"/>
<path d="M39.4043 154.133H34.0615V169.536H23.8105V154.133H17.8984L28.6514 134.152L39.4043 154.133Z" fill="url(#paint4_linear_3060_22614)"/>
<g opacity="0.66">
<path d="M13.6283 131.051L16.0533 131.705C16.0822 131.713 16.1087 131.728 16.1301 131.749C16.1515 131.771 16.1672 131.797 16.1758 131.826L16.8674 134.24C16.8782 134.277 16.9006 134.309 16.9312 134.332C16.9619 134.354 16.9991 134.367 17.0372 134.366C17.0754 134.366 17.1124 134.353 17.1427 134.33C17.173 134.307 17.1949 134.274 17.2051 134.238L17.8595 131.813C17.8676 131.784 17.883 131.757 17.904 131.736C17.9251 131.714 17.9513 131.699 17.9801 131.69L20.3948 130.998C20.4314 130.988 20.4635 130.965 20.4862 130.935C20.509 130.904 20.5211 130.867 20.5208 130.829C20.5206 130.791 20.5078 130.754 20.4846 130.723C20.4614 130.693 20.429 130.671 20.3922 130.661L17.9672 130.006C17.9383 129.998 17.9118 129.983 17.8904 129.962C17.869 129.941 17.8533 129.915 17.8447 129.886L17.1531 127.471C17.1423 127.435 17.1199 127.402 17.0893 127.38C17.0586 127.357 17.0214 127.345 16.9833 127.345C16.9451 127.345 16.9081 127.358 16.8778 127.381C16.8475 127.405 16.8256 127.437 16.8154 127.474L16.161 129.899C16.1529 129.928 16.1375 129.954 16.1164 129.976C16.0953 129.997 16.0692 130.013 16.0403 130.021L13.6257 130.713C13.5891 130.724 13.557 130.746 13.5342 130.777C13.5115 130.807 13.4994 130.845 13.4996 130.883C13.4999 130.921 13.5127 130.958 13.5359 130.988C13.5591 131.018 13.5915 131.04 13.6283 131.051Z" fill="white" stroke="white" stroke-width="0.249263" stroke-linecap="round" stroke-linejoin="round"/>
</g>
<g filter="url(#filter7_i_3060_22614)">
<path d="M40.3904 183.883L84.9791 180.695C85.3116 180.671 85.6431 180.702 85.9654 180.787C90.64 182.023 127.605 191.825 128.317 192.901C128.85 193.707 128.635 199.095 128.459 202.235C128.384 203.578 127.414 204.691 126.1 204.976L81.1131 214.718C80.3929 214.874 79.6406 214.763 78.9968 214.404L41.9467 193.77C40.986 193.235 40.3905 192.221 40.3905 191.122L40.3904 183.883Z" fill="#F6CD74"/>
</g>
<path d="M40.3867 183.885L86.2802 179.401C86.6472 179.365 87.0177 179.397 87.3734 179.494L126.433 190.161C129.446 190.983 129.396 195.274 126.364 196.026L85.8908 206.069C85.1859 206.244 84.4415 206.159 83.7933 205.832L40.3867 183.885Z" fill="url(#paint5_linear_3060_22614)"/>
<path d="M81.4694 211.532L81.4694 204.629C81.4694 204.368 81.6525 204.142 81.9085 204.087L128.637 194.2L128.637 202.441C128.637 202.706 128.45 202.933 128.191 202.984L82.1304 212.075C81.7881 212.143 81.4694 211.881 81.4694 211.532Z" fill="white"/>
<g filter="url(#filter8_d_3060_22614)">
<path d="M143.554 180.203L111.046 164.714C110.513 164.46 109.898 164.387 109.202 164.516C101.525 165.931 53.4576 174.803 51.8566 175.289C50.6422 175.658 50.2615 178.842 50.1424 180.732C50.0852 181.639 50.424 182.379 51.0337 182.84L74.8575 200.83C75.4744 201.296 76.3317 201.44 77.268 201.235L138.746 187.792C140.842 187.334 142.781 185.28 143.101 183.179L143.554 180.203Z" fill="url(#paint6_linear_3060_22614)"/>
<path d="M143.617 180.243L111.73 164.382C110.945 163.992 110.553 163.797 110.089 163.74C109.624 163.682 109.109 163.765 108.079 163.931L68.5889 170.289C57.7704 172.03 52.3611 172.901 51.0306 175.843C49.7002 178.786 53.7369 180.95 61.8103 185.279L75.2002 192.459C76.0577 192.918 76.4865 193.148 77.0051 193.208C77.5236 193.268 78.102 193.154 79.2587 192.926L143.617 180.243Z" fill="url(#paint7_linear_3060_22614)"/>
<path d="M75.5059 197.597L75.4857 195.739C75.4833 195.512 75.3755 195.303 75.195 195.174L50.7771 177.722L50.2911 179.679C50.2214 179.96 50.3228 180.251 50.5488 180.42L74.3706 198.204C74.8392 198.554 75.5124 198.194 75.5059 197.597Z" fill="white"/>
</g>
<path d="M48.0389 157.08L92.6275 153.892C92.96 153.868 93.2915 153.899 93.6138 153.984C98.2884 155.22 135.253 165.023 135.965 166.098C136.499 166.904 136.283 172.293 136.107 175.432C136.032 176.775 135.063 177.888 133.748 178.173L88.7615 187.916C88.0414 188.072 87.289 187.96 86.6453 187.601L49.5951 166.967C48.6344 166.432 48.0389 165.419 48.0389 164.319L48.0389 157.08Z" fill="#253CA8"/>
<g filter="url(#filter9_i_3060_22614)">
<path d="M48.0391 157.084L93.9326 152.6C94.2996 152.564 94.6701 152.596 95.0258 152.693L134.085 163.36C137.098 164.183 137.048 168.473 134.017 169.225L93.5432 179.268C92.8382 179.443 92.0939 179.359 91.4457 179.031L48.0391 157.084Z" fill="url(#paint8_linear_3060_22614)"/>
</g>
<path d="M89.1217 184.721L89.1217 177.819C89.1217 177.557 89.3049 177.331 89.5609 177.277L136.29 167.39L136.29 175.631C136.29 175.895 136.103 176.123 135.843 176.174L89.7828 185.265C89.4405 185.332 89.1217 185.07 89.1217 184.721Z" fill="white"/>
<g filter="url(#filter10_g_3060_22614)">
<path d="M85.0295 157.284C84.8904 156.931 85.4658 156.738 85.9452 156.978L88.1572 158.082C88.375 158.191 88.647 158.218 88.847 158.151L91.0599 157.412C91.5705 157.241 92.2648 157.677 92.0109 158.008L91.1231 159.167C90.9978 159.33 91.1101 159.557 91.3842 159.694L93.1897 160.595C93.7043 160.852 93.5519 161.317 92.9635 161.285L89.9857 161.125C89.7695 161.113 89.5846 161.175 89.4983 161.288L88.3087 162.84C88.0736 163.147 87.2812 162.998 87.1318 162.619L86.6079 161.29C86.5283 161.088 86.232 160.923 85.9185 160.906L83.6961 160.786C83.0604 160.752 82.722 160.198 83.2326 160.027L85.4455 159.288C85.6455 159.221 85.7346 159.073 85.6714 158.913L85.0295 157.284Z" fill="#152A8D"/>
</g>
<g filter="url(#filter11_g_3060_22614)">
<path d="M86.439 164.343C86.3681 164.163 86.6615 164.065 86.9059 164.187L88.0579 164.762C88.1689 164.818 88.3076 164.832 88.4096 164.797L89.5655 164.411C89.8259 164.324 90.1799 164.546 90.0504 164.715L89.585 165.323C89.5211 165.406 89.5783 165.521 89.7181 165.591L90.6628 166.063C90.9251 166.194 90.8474 166.431 90.5474 166.415L88.9972 166.331C88.8869 166.325 88.7927 166.357 88.7486 166.414L88.1293 167.223C88.0095 167.379 87.6054 167.303 87.5293 167.11L87.2551 166.414C87.2146 166.311 87.0635 166.227 86.9036 166.219L85.7385 166.156C85.4144 166.138 85.2418 165.856 85.5022 165.769L86.6581 165.383C86.7601 165.349 86.8056 165.273 86.7733 165.191L86.439 164.343Z" fill="#152A8D"/>
</g>
<g filter="url(#filter12_g_3060_22614)">
<path d="M96.9898 160.91C96.9189 160.73 97.2123 160.632 97.4567 160.754L98.6086 161.33C98.7197 161.385 98.8584 161.399 98.9604 161.365L100.116 160.979C100.377 160.892 100.731 161.113 100.601 161.282L100.136 161.89C100.072 161.973 100.129 162.089 100.269 162.159L101.214 162.63C101.476 162.761 101.398 162.998 101.098 162.982L99.5479 162.899C99.4377 162.893 99.3434 162.924 99.2994 162.982L98.6801 163.79C98.5602 163.946 98.1562 163.871 98.08 163.677L97.8059 162.982C97.7653 162.879 97.6142 162.795 97.4544 162.786L96.2893 162.723C95.9652 162.706 95.7926 162.423 96.053 162.336L97.2089 161.95C97.3109 161.916 97.3563 161.841 97.3241 161.759L96.9898 160.91Z" fill="#152A8D"/>
</g>
<g filter="url(#filter13_i_3060_22614)">
<path d="M283.22 79.4639C283.621 79.225 284.119 79.5643 284.043 80.0254L277.44 120.2C277.375 120.597 276.921 120.791 276.589 120.565L266.741 113.851L203.209 201.184C201.771 203.16 199.235 204.003 196.9 203.281L158.995 191.558L140.675 213.046C138.627 215.447 135.021 215.735 132.62 213.688C130.219 211.64 129.932 208.033 131.979 205.632L152.742 181.28L152.883 181.12C154.371 179.501 156.665 178.875 158.778 179.528L196.372 191.155L257.295 107.41L248.204 101.213C247.872 100.986 247.888 100.492 248.233 100.286L283.22 79.4639Z" fill="url(#paint9_linear_3060_22614)"/>
</g>
<defs>
<filter id="filter0_ii_3060_22614" x="75.4465" y="25.29" width="163.561" height="164.994" filterUnits="userSpaceOnUse" color-interpolation-filters="sRGB">
<feFlood flood-opacity="0" result="BackgroundImageFix"/>
<feBlend mode="normal" in="SourceGraphic" in2="BackgroundImageFix" result="shape"/>
<feColorMatrix in="SourceAlpha" type="matrix" values="0 0 0 0 0 0 0 0 0 0 0 0 0 0 0 0 0 0 127 0" result="hardAlpha"/>
<feOffset dx="-8.78791" dy="1.95287"/>
<feGaussianBlur stdDeviation="7.27444"/>
<feComposite in2="hardAlpha" operator="arithmetic" k2="-1" k3="1"/>
<feColorMatrix type="matrix" values="0 0 0 0 1 0 0 0 0 0.912766 0 0 0 0 0.792818 0 0 0 0.8 0"/>
<feBlend mode="normal" in2="shape" result="effect1_innerShadow_3060_22614"/>
<feColorMatrix in="SourceAlpha" type="matrix" values="0 0 0 0 0 0 0 0 0 0 0 0 0 0 0 0 0 0 127 0" result="hardAlpha"/>
<feOffset dx="-0.976435" dy="0.976435"/>
<feGaussianBlur stdDeviation="0.488217"/>
<feComposite in2="hardAlpha" operator="arithmetic" k2="-1" k3="1"/>
<feColorMatrix type="matrix" values="0 0 0 0 0.871206 0 0 0 0 1 0 0 0 0 0.997853 0 0 0 0.5 0"/>
<feBlend mode="normal" in2="effect1_innerShadow_3060_22614" result="effect2_innerShadow_3060_22614"/>
</filter>
<filter id="filter1_n_3060_22614" x="39.5625" y="3.00391" width="227.145" height="203.715" filterUnits="userSpaceOnUse" color-interpolation-filters="sRGB">
<feFlood flood-opacity="0" result="BackgroundImageFix"/>
<feBlend mode="normal" in="SourceGraphic" in2="BackgroundImageFix" result="shape"/>
<feTurbulence type="fractalNoise" baseFrequency="0.10668060928583145 0.10668060928583145" stitchTiles="stitch" numOctaves="3" result="noise" seed="1999" />
<feColorMatrix in="noise" type="luminanceToAlpha" result="alphaNoise" />
<feComponentTransfer in="alphaNoise" result="coloredNoise1">
<feFuncA type="discrete" tableValues="1 1 1 1 1 1 1 1 1 1 1 1 1 1 1 1 1 1 1 1 1 1 1 1 1 1 1 1 1 1 1 1 1 1 1 1 1 1 1 1 1 1 1 1 1 1 1 1 1 1 1 0 0 0 0 0 0 0 0 0 0 0 0 0 0 0 0 0 0 0 0 0 0 0 0 0 0 0 0 0 0 0 0 0 0 0 0 0 0 0 0 0 0 0 0 0 0 0 0 0 "/>
</feComponentTransfer>
<feComposite operator="in" in2="shape" in="coloredNoise1" result="noise1Clipped" />
<feFlood flood-color="rgba(0, 0, 0, 0.08)" result="color1Flood" />
<feComposite operator="in" in2="noise1Clipped" in="color1Flood" result="color1" />
<feMerge result="effect1_noise_3060_22614">
<feMergeNode in="shape" />
<feMergeNode in="color1" />
</feMerge>
</filter>
<filter id="filter2_ii_3060_22614" x="123.646" y="185.756" width="91.5104" height="36.5593" filterUnits="userSpaceOnUse" color-interpolation-filters="sRGB">
<feFlood flood-opacity="0" result="BackgroundImageFix"/>
<feBlend mode="normal" in="SourceGraphic" in2="BackgroundImageFix" result="shape"/>
<feColorMatrix in="SourceAlpha" type="matrix" values="0 0 0 0 0 0 0 0 0 0 0 0 0 0 0 0 0 0 127 0" result="hardAlpha"/>
<feOffset dx="-10.7408" dy="1.95287"/>
<feGaussianBlur stdDeviation="5.1751"/>
<feComposite in2="hardAlpha" operator="arithmetic" k2="-1" k3="1"/>
<feColorMatrix type="matrix" values="0 0 0 0 0.869328 0 0 0 0 0.719989 0 0 0 0 1 0 0 0 0.2 0"/>
<feBlend mode="normal" in2="shape" result="effect1_innerShadow_3060_22614"/>
<feColorMatrix in="SourceAlpha" type="matrix" values="0 0 0 0 0 0 0 0 0 0 0 0 0 0 0 0 0 0 127 0" result="hardAlpha"/>
<feOffset dx="-0.976435"/>
<feGaussianBlur stdDeviation="0.488217"/>
<feComposite in2="hardAlpha" operator="arithmetic" k2="-1" k3="1"/>
<feColorMatrix type="matrix" values="0 0 0 0 0.858824 0 0 0 0 0.976471 0 0 0 0 0.984314 0 0 0 0.2 0"/>
<feBlend mode="normal" in2="effect1_innerShadow_3060_22614" result="effect2_innerShadow_3060_22614"/>
</filter>
<filter id="filter3_g_3060_22614" x="129.852" y="107.298" width="34.6288" height="30.8798" filterUnits="userSpaceOnUse" color-interpolation-filters="sRGB">
<feFlood flood-opacity="0" result="BackgroundImageFix"/>
<feBlend mode="normal" in="SourceGraphic" in2="BackgroundImageFix" result="shape"/>
<feTurbulence type="fractalNoise" baseFrequency="1.1379265785217285 1.1379265785217285" numOctaves="3" seed="3511" />
<feDisplacementMap in="shape" scale="0.97643476724624634" xChannelSelector="R" yChannelSelector="G" result="displacedImage" width="100%" height="100%" />
<feMerge result="effect1_texture_3060_22614">
<feMergeNode in="displacedImage"/>
</feMerge>
</filter>
<filter id="filter4_g_3060_22614" x="136.281" y="111.676" width="23.4577" height="21.5436" filterUnits="userSpaceOnUse" color-interpolation-filters="sRGB">
<feFlood flood-opacity="0" result="BackgroundImageFix"/>
<feBlend mode="normal" in="SourceGraphic" in2="BackgroundImageFix" result="shape"/>
<feTurbulence type="fractalNoise" baseFrequency="1.7325831651687622 1.7325831651687622" numOctaves="3" seed="3511" />
<feDisplacementMap in="shape" scale="0.64130318164825439" xChannelSelector="R" yChannelSelector="G" result="displacedImage" width="100%" height="100%" />
<feMerge result="effect1_texture_3060_22614">
<feMergeNode in="displacedImage"/>
</feMerge>
</filter>
<filter id="filter5_g_3060_22614" x="177.945" y="102.663" width="31.41" height="30.8143" filterUnits="userSpaceOnUse" color-interpolation-filters="sRGB">
<feFlood flood-opacity="0" result="BackgroundImageFix"/>
<feBlend mode="normal" in="SourceGraphic" in2="BackgroundImageFix" result="shape"/>
<feTurbulence type="fractalNoise" baseFrequency="1.1379265785217285 1.1379265785217285" numOctaves="3" seed="3511" />
<feDisplacementMap in="shape" scale="0.97643476724624634" xChannelSelector="R" yChannelSelector="G" result="displacedImage" width="100%" height="100%" />
<feMerge result="effect1_texture_3060_22614">
<feMergeNode in="displacedImage"/>
</feMerge>
</filter>
<filter id="filter6_g_3060_22614" x="182.191" y="106.764" width="23.0827" height="21.8151" filterUnits="userSpaceOnUse" color-interpolation-filters="sRGB">
<feFlood flood-opacity="0" result="BackgroundImageFix"/>
<feBlend mode="normal" in="SourceGraphic" in2="BackgroundImageFix" result="shape"/>
<feTurbulence type="fractalNoise" baseFrequency="1.7325831651687622 1.7325831651687622" numOctaves="3" seed="3511" />
<feDisplacementMap in="shape" scale="0.64130318164825439" xChannelSelector="R" yChannelSelector="G" result="displacedImage" width="100%" height="100%" />
<feMerge result="effect1_texture_3060_22614">
<feMergeNode in="displacedImage"/>
</feMerge>
</filter>
<filter id="filter7_i_3060_22614" x="40.3906" y="180.688" width="88.2656" height="39.1786" filterUnits="userSpaceOnUse" color-interpolation-filters="sRGB">
<feFlood flood-opacity="0" result="BackgroundImageFix"/>
<feBlend mode="normal" in="SourceGraphic" in2="BackgroundImageFix" result="shape"/>
<feColorMatrix in="SourceAlpha" type="matrix" values="0 0 0 0 0 0 0 0 0 0 0 0 0 0 0 0 0 0 127 0" result="hardAlpha"/>
<feOffset dy="11.4278"/>
<feGaussianBlur stdDeviation="2.53952"/>
<feComposite in2="hardAlpha" operator="arithmetic" k2="-1" k3="1"/>
<feColorMatrix type="matrix" values="0 0 0 0 0.831731 0 0 0 0 0.567816 0 0 0 0 0.567816 0 0 0 0.25 0"/>
<feBlend mode="normal" in2="shape" result="effect1_innerShadow_3060_22614"/>
</filter>
<filter id="filter8_d_3060_22614" x="46.8214" y="162.893" width="100.111" height="44.235" filterUnits="userSpaceOnUse" color-interpolation-filters="sRGB">
<feFlood flood-opacity="0" result="BackgroundImageFix"/>
<feColorMatrix in="SourceAlpha" type="matrix" values="0 0 0 0 0 0 0 0 0 0 0 0 0 0 0 0 0 0 127 0" result="hardAlpha"/>
<feOffset dy="2.48646"/>
<feGaussianBlur stdDeviation="1.65764"/>
<feComposite in2="hardAlpha" operator="out"/>
<feColorMatrix type="matrix" values="0 0 0 0 0 0 0 0 0 0 0 0 0 0 0 0 0 0 0.25 0"/>
<feBlend mode="normal" in2="BackgroundImageFix" result="effect1_dropShadow_3060_22614"/>
<feBlend mode="normal" in="SourceGraphic" in2="effect1_dropShadow_3060_22614" result="shape"/>
</filter>
<filter id="filter9_i_3060_22614" x="48.0391" y="152.586" width="88.2773" height="31.8505" filterUnits="userSpaceOnUse" color-interpolation-filters="sRGB">
<feFlood flood-opacity="0" result="BackgroundImageFix"/>
<feBlend mode="normal" in="SourceGraphic" in2="BackgroundImageFix" result="shape"/>
<feColorMatrix in="SourceAlpha" type="matrix" values="0 0 0 0 0 0 0 0 0 0 0 0 0 0 0 0 0 0 127 0" result="hardAlpha"/>
<feOffset dy="5.07903"/>
<feGaussianBlur stdDeviation="6.72972"/>
<feComposite in2="hardAlpha" operator="arithmetic" k2="-1" k3="1"/>
<feColorMatrix type="matrix" values="0 0 0 0 0.501577 0 0 0 0 0.908623 0 0 0 0 1 0 0 0 0.25 0"/>
<feBlend mode="normal" in2="shape" result="effect1_innerShadow_3060_22614"/>
</filter>
<filter id="filter10_g_3060_22614" x="82.6355" y="156.522" width="11.2174" height="6.83163" filterUnits="userSpaceOnUse" color-interpolation-filters="sRGB">
<feFlood flood-opacity="0" result="BackgroundImageFix"/>
<feBlend mode="normal" in="SourceGraphic" in2="BackgroundImageFix" result="shape"/>
<feTurbulence type="fractalNoise" baseFrequency="5.7319545745849609 5.7319545745849609" numOctaves="3" seed="70" />
<feDisplacementMap in="shape" scale="0.69784224033355713" xChannelSelector="R" yChannelSelector="G" result="displacedImage" width="100%" height="100%" />
<feMerge result="effect1_texture_3060_22614">
<feMergeNode in="displacedImage"/>
</feMerge>
</filter>
<filter id="filter11_g_3060_22614" x="85.0261" y="163.784" width="6.14315" height="3.87167" filterUnits="userSpaceOnUse" color-interpolation-filters="sRGB">
<feFlood flood-opacity="0" result="BackgroundImageFix"/>
<feBlend mode="normal" in="SourceGraphic" in2="BackgroundImageFix" result="shape"/>
<feTurbulence type="fractalNoise" baseFrequency="5.7319545745849609 5.7319545745849609" numOctaves="3" seed="70" />
<feDisplacementMap in="shape" scale="0.69784224033355713" xChannelSelector="R" yChannelSelector="G" result="displacedImage" width="100%" height="100%" />
<feMerge result="effect1_texture_3060_22614">
<feMergeNode in="displacedImage"/>
</feMerge>
</filter>
<filter id="filter12_g_3060_22614" x="95.5769" y="160.351" width="6.14315" height="3.87167" filterUnits="userSpaceOnUse" color-interpolation-filters="sRGB">
<feFlood flood-opacity="0" result="BackgroundImageFix"/>
<feBlend mode="normal" in="SourceGraphic" in2="BackgroundImageFix" result="shape"/>
<feTurbulence type="fractalNoise" baseFrequency="5.7319545745849609 5.7319545745849609" numOctaves="3" seed="70" />
<feDisplacementMap in="shape" scale="0.69784224033355713" xChannelSelector="R" yChannelSelector="G" result="displacedImage" width="100%" height="100%" />
<feMerge result="effect1_texture_3060_22614">
<feMergeNode in="displacedImage"/>
</feMerge>
</filter>
<filter id="filter13_i_3060_22614" x="130.613" y="79.3848" width="153.438" height="140.747" filterUnits="userSpaceOnUse" color-interpolation-filters="sRGB">
<feFlood flood-opacity="0" result="BackgroundImageFix"/>
<feBlend mode="normal" in="SourceGraphic" in2="BackgroundImageFix" result="shape"/>
<feColorMatrix in="SourceAlpha" type="matrix" values="0 0 0 0 0 0 0 0 0 0 0 0 0 0 0 0 0 0 127 0" result="hardAlpha"/>
<feOffset dy="5.07903"/>
<feGaussianBlur stdDeviation="6.92018"/>
<feComposite in2="hardAlpha" operator="arithmetic" k2="-1" k3="1"/>
<feColorMatrix type="matrix" values="0 0 0 0 0.948387 0 0 0 0 1 0 0 0 0 0.483868 0 0 0 0.6 0"/>
<feBlend mode="normal" in2="shape" result="effect1_innerShadow_3060_22614"/>
</filter>
<linearGradient id="paint0_linear_3060_22614" x1="265.541" y1="75.7877" x2="61.407" y2="162.412" gradientUnits="userSpaceOnUse">
<stop stop-color="#B2E5FF" stop-opacity="0.2"/>
<stop offset="1" stop-color="white" stop-opacity="0"/>
</linearGradient>
<linearGradient id="paint1_linear_3060_22614" x1="42.7984" y1="35.3681" x2="125.307" y2="213.231" gradientUnits="userSpaceOnUse">
<stop stop-color="#3E4C8C"/>
<stop offset="0.586538" stop-color="#CECE84"/>
<stop offset="1" stop-color="#5B658F"/>
</linearGradient>
<linearGradient id="paint2_linear_3060_22614" x1="68.1776" y1="52.6992" x2="121.118" y2="124.977" gradientUnits="userSpaceOnUse">
<stop stop-color="#D9F9FF"/>
<stop offset="0.440397" stop-color="#D9F9FF" stop-opacity="0"/>
</linearGradient>
<linearGradient id="paint3_linear_3060_22614" x1="49.1445" y1="100.232" x2="69.6628" y2="104.424" gradientUnits="userSpaceOnUse">
<stop stop-color="#D9F9FF"/>
<stop offset="1" stop-color="#D9F9FF" stop-opacity="0"/>
</linearGradient>
<linearGradient id="paint4_linear_3060_22614" x1="28.6514" y1="134.152" x2="28.6514" y2="169.536" gradientUnits="userSpaceOnUse">
<stop stop-color="#FFFDF3"/>
<stop offset="1" stop-color="#16142D" stop-opacity="0"/>
</linearGradient>
<linearGradient id="paint5_linear_3060_22614" x1="88.7051" y1="208.268" x2="85.4969" y2="182.797" gradientUnits="userSpaceOnUse">
<stop stop-color="#FFC561"/>
<stop offset="1" stop-color="#EA7D0F"/>
</linearGradient>
<linearGradient id="paint6_linear_3060_22614" x1="148.174" y1="151.011" x2="124.79" y2="215.865" gradientUnits="userSpaceOnUse">
<stop stop-color="#1C4F78"/>
<stop offset="1" stop-color="#7B00C8"/>
</linearGradient>
<linearGradient id="paint7_linear_3060_22614" x1="145.672" y1="153.515" x2="131.588" y2="206.837" gradientUnits="userSpaceOnUse">
<stop stop-color="#AAE1FF"/>
<stop offset="1" stop-color="#8331FF"/>
</linearGradient>
<linearGradient id="paint8_linear_3060_22614" x1="88.6981" y1="106.828" x2="89.6088" y2="178.443" gradientUnits="userSpaceOnUse">
<stop stop-color="#7EC7CF"/>
<stop offset="1" stop-color="#3540B5"/>
</linearGradient>
<linearGradient id="paint9_linear_3060_22614" x1="130.612" y1="203.726" x2="291.324" y2="72.4774" gradientUnits="userSpaceOnUse">
<stop stop-color="#FFE659"/>
<stop offset="1" stop-color="#FF3B3B"/>
</linearGradient>
</defs>
</svg>
