<svg width="299" height="249" viewBox="0 0 299 249" fill="none" xmlns="http://www.w3.org/2000/svg">
<g filter="url(#filter0_ii_3052_45531)">
<path d="M113.35 67.8213C113.685 65.9224 115.542 64.7222 117.422 65.1504C134.328 69.0006 142.074 76.2879 144.957 81.7275C146.04 83.7731 144.162 85.6845 141.848 85.7256C138.738 85.7799 136.166 86.3458 134.197 87.0566C135.957 89.0098 139.148 92.9736 142.349 97.8828C153.911 98.8869 167.605 105.555 174.413 109.573C175.251 110.068 176.319 109.935 177.012 109.251C187.443 98.9449 196.936 95.3829 201.292 94.7324C201.896 94.6424 202.497 94.8795 202.867 95.3652C207.731 101.757 207.898 117.931 207.037 129.669C206.884 131.77 210.326 133.496 212.263 132.667C215.667 131.209 219.181 131.053 221.379 131.303C221.817 131.353 222.225 131.564 222.493 131.914C228.188 139.366 218.056 160.786 209.872 174.699C209.282 175.704 209.763 176.956 210.62 178.029L212.078 177.938C216.466 177.659 218.196 183.515 214.36 185.665L192.51 197.913C190.478 199.052 187.981 198.274 186.894 196.346C169.075 199.117 136.524 205.416 120.963 208.686C120.864 208.706 120.764 208.72 120.663 208.726C119.139 208.815 117.679 208.875 116.28 208.911L116.241 209.224C115.906 211.864 113.197 213.504 110.702 212.576L86.7285 203.665C82.6327 202.142 83.395 196.133 87.7412 195.682L89.2793 195.521C90.2574 194.388 90.3399 192.432 89.0557 191.54C72.1399 179.803 66.2316 164.265 65.207 156.232C65.0953 155.355 65.6166 154.53 66.459 154.261C70.1328 153.086 73.8706 153.084 76.873 153.498C78.7294 153.754 80.5643 151.69 79.877 149.947C73.3669 133.46 73.6437 120.033 74.9336 113.785C75.1322 112.824 76.0382 112.213 77.0107 112.345C87.8139 113.813 101.062 120.153 108.257 124.218C109.43 124.88 110.935 124.303 111.464 123.063C115.126 114.474 123.867 105.95 130.763 101.03C129.357 97.6312 127.733 94.0682 126.009 90.9453C123.6 92.1572 121.58 93.588 119.947 95.0068C117.686 96.9721 113.641 96.4952 113.056 93.5576C111.287 84.6604 112.189 74.3934 113.35 67.8213Z" fill="#F57979"/>
</g>
<g filter="url(#filter1_n_3052_45531)">
<ellipse cx="136.853" cy="138.645" rx="105.292" ry="93.8876" transform="rotate(-9.05149 136.853 138.645)" fill="url(#paint0_linear_3052_45531)" fill-opacity="0.9"/>
<path d="M122.21 46.7289C179.283 37.6369 231.958 71.5284 240.031 122.208C248.105 172.888 208.568 221.469 151.496 230.561C94.4231 239.653 41.7481 205.762 33.6745 155.082C25.601 104.402 65.1375 55.8209 122.21 46.7289Z" stroke="url(#paint1_linear_3052_45531)" stroke-width="1.62549"/>
</g>
<g filter="url(#filter2_ii_3052_45531)">
<path d="M126.499 243.492L119.911 233.74C118.364 231.452 119.215 228.32 121.759 227.244C146.264 216.879 175.23 213.824 189.802 213.464C192.421 213.4 194.424 215.667 194.175 218.275L193.163 228.907C192.967 230.968 191.39 232.63 189.346 232.954C161.405 237.389 140.893 242.851 131.3 245.327C129.469 245.8 127.558 245.058 126.499 243.492Z" fill="#8C3E3E"/>
</g>
<circle cx="158.516" cy="226.683" r="3.16068" fill="#CFD7F7"/>
<circle cx="138.657" cy="231.197" r="3.16068" fill="#CFD7F7"/>
<circle cx="178.387" cy="223.975" r="3.16068" fill="#CFD7F7"/>
<g filter="url(#filter3_g_3052_45531)">
<ellipse cx="131.321" cy="155.187" rx="15.5906" ry="13.7908" transform="rotate(-7.75815 131.321 155.187)" fill="white"/>
</g>
<g filter="url(#filter4_g_3052_45531)">
<ellipse cx="132.1" cy="154.917" rx="10.5668" ry="9.64695" transform="rotate(-7.75815 132.1 154.917)" fill="black"/>
</g>
<g filter="url(#filter5_g_3052_45531)">
<ellipse cx="174.314" cy="150.868" rx="14.0768" ry="13.7908" transform="rotate(-7.75815 174.314 150.868)" fill="white"/>
</g>
<ellipse cx="154.232" cy="162.289" rx="4.51526" ry="3.61221" transform="rotate(-3.98844 154.232 162.289)" fill="#FF581D"/>
<path d="M148.574 167.859L149.172 168.696C150.159 170.078 151.931 170.654 153.541 170.117V170.117" stroke="#852A0A" stroke-width="1.44488" stroke-linecap="round"/>
<g filter="url(#filter6_g_3052_45531)">
<ellipse cx="174.385" cy="150.502" rx="10.3871" ry="9.77847" transform="rotate(-7.75815 174.385 150.502)" fill="black"/>
</g>
<path opacity="0.8" d="M83.8762 91.7386L66.2247 118.26C62.3826 124.033 55.1956 130.42 49.9007 125.942C46.6346 123.18 46.6423 117.96 47.4349 114.555C49.1424 108.49 56.2285 93.7348 70.9129 83.2399C79.7584 76.9181 84.1946 77.3423 86.1996 79.8508C88.9273 83.2634 86.2968 88.1016 83.8762 91.7386Z" fill="url(#paint2_linear_3052_45531)"/>
<path opacity="0.89" d="M45.4625 134.145C54.1318 128.366 54.4931 141.37 53.59 148.594C52.5063 152.568 47.7201 150.25 45.4625 148.594C41.8503 146.186 36.7933 139.925 45.4625 134.145Z" fill="url(#paint3_linear_3052_45531)"/>
<g filter="url(#filter7_i_3052_45531)">
<path d="M241.074 215.12C255.049 216.846 260.585 220.133 262.198 223.062C263.641 225.683 260.392 227.88 257.481 228.57C234.085 234.115 214.151 229.549 206.768 226.338C198.92 222.926 213.543 211.72 241.074 215.12Z" fill="#FFC27A"/>
</g>
<mask id="mask0_3052_45531" style="mask-type:alpha" maskUnits="userSpaceOnUse" x="204" y="214" width="59" height="18">
<path d="M241.074 215.132C255.049 216.858 260.585 220.145 262.198 223.074C263.641 225.695 260.392 227.892 257.481 228.582C234.085 234.127 214.151 229.561 206.768 226.35C198.92 222.937 213.543 211.732 241.074 215.132Z" fill="#FFC27A"/>
</mask>
<g mask="url(#mask0_3052_45531)">
<path opacity="0.85" d="M262.856 226.992C255.784 223.9 240.081 225.178 232.711 224.708L241.958 217.923L259.992 220.118C263.908 223.845 269.929 230.084 262.856 226.992Z" fill="url(#paint4_linear_3052_45531)"/>
</g>
<g filter="url(#filter8_iii_3052_45531)">
<path d="M225.763 219.004C226.786 216.416 228.136 214.215 229.175 212.777C229.796 211.918 230.833 211.5 231.89 211.567L238.119 211.964C239.695 212.065 241.005 213.224 241.248 214.783C241.533 216.612 241.751 218.315 241.898 219.606C242.024 220.714 241.591 221.825 240.675 222.46C234.8 226.529 229.464 224.483 226.519 222.132C225.587 221.387 225.325 220.114 225.763 219.004Z" fill="#AC4146"/>
</g>
<g filter="url(#filter9_iii_3052_45531)">
<path d="M228.635 210.932L229.315 200.276C229.412 198.75 230.504 197.471 231.996 197.136L236.22 196.187C237.604 195.876 239.022 196.468 239.455 197.819C240.492 201.061 241.235 206.414 241.632 210.283C241.778 211.701 241.006 213.074 239.66 213.542C235.155 215.108 231.778 214.421 229.852 213.436C228.946 212.973 228.57 211.948 228.635 210.932Z" fill="#AC4146"/>
</g>
<g filter="url(#filter10_iii_3052_45531)">
<path d="M228.42 197.626C227.704 194.751 227.492 189.183 227.47 185.596C227.465 184.723 228.023 183.951 228.848 183.666L234.428 181.735C235.432 181.388 236.54 181.857 236.939 182.841C238.823 187.498 239.841 192.374 240.227 195.017C240.31 195.585 240.14 196.165 239.72 196.557C236.766 199.309 232.335 199.308 229.707 198.818C229.078 198.701 228.574 198.246 228.42 197.626Z" fill="#AC4146"/>
</g>
<g filter="url(#filter11_iii_3052_45531)">
<path d="M225.328 183.487C225.03 181.275 224.107 178.564 223.45 177.218L221.262 170.452L237.867 165.926C237.685 171.524 237.324 182.646 237.343 182.349C233.771 185.253 229.657 185.684 227.065 185.445C226.091 185.356 225.459 184.456 225.328 183.487Z" fill="#AC4146"/>
</g>
<g filter="url(#filter12_i_3052_45531)">
<path d="M202.624 158.917C215.334 146.35 224.591 151.651 227.935 156.201C228.129 156.466 228.258 156.769 228.328 157.09C229.559 162.743 229.916 172.077 222.092 167.626C214.509 163.311 204.695 165.918 200.007 168.059C199.477 168.301 198.819 168.47 198.411 168.053C197.521 167.143 197.647 164.586 202.624 158.917Z" fill="#A3C034"/>
</g>
<g filter="url(#filter13_d_3052_45531)">
<path d="M198.918 168.295C210.227 153.692 221.625 160.707 225.608 166.665C224.755 167.124 223.862 167.593 222.939 168.066C222.668 167.937 222.385 167.792 222.092 167.625C214.508 163.31 204.695 165.916 200.007 168.057C199.663 168.214 199.266 168.339 198.918 168.295Z" fill="url(#paint5_linear_3052_45531)"/>
</g>
<g filter="url(#filter14_ii_3052_45531)">
<path d="M234.323 146.531C220.599 148.126 223.129 160.989 225.978 167.544C226.06 167.733 226.222 167.87 226.422 167.919C228.156 168.344 231.185 168.69 233.025 166.878C242.243 155.835 249.149 154.726 252.916 156.109C253.596 156.358 254.548 155.653 254.199 155.02C251.772 150.616 245.779 145.199 234.323 146.531Z" fill="url(#paint6_linear_3052_45531)"/>
</g>
<g filter="url(#filter15_d_3052_45531)">
<path d="M227.157 167.759C229.097 158.992 237.21 144.418 254.244 155.132C254.432 155.733 253.553 156.341 252.914 156.107C249.222 154.753 242.52 155.791 233.581 166.219C233.215 166.364 232.868 166.5 232.547 166.628L227.157 167.759Z" fill="url(#paint7_linear_3052_45531)"/>
</g>
<g filter="url(#filter16_ii_3052_45531)">
<path d="M230.34 161.703C220.169 171.263 234.566 179.009 244.137 181.932L245.628 179.654C245.982 179.113 246.818 179.314 246.889 179.956L247.207 182.854L251.146 184.869L253.225 183.254C253.63 182.939 254.225 183.162 254.324 183.665L254.974 186.981L261.092 190.796C264.607 186.703 263.657 179.476 262.742 176.374C260.904 168.891 254.194 155.98 241.133 156.868C237.118 157.141 233.272 158.947 230.34 161.703Z" fill="#9CC440"/>
</g>
<g filter="url(#filter17_ii_3052_45531)">
<path d="M224.643 166.091C233.238 170.553 225.366 181.38 219.523 187.109C218.957 187.664 218.043 187.594 217.543 186.979L215.719 184.735C215.589 184.576 215.332 184.682 215.353 184.887L215.808 189.322C215.94 190.612 215.459 191.89 214.509 192.772L204.722 201.86C203.76 202.753 202.212 202.53 201.621 201.357C194.56 187.333 200.754 175.05 204.967 170.478C207.722 167.042 215.516 161.353 224.643 166.091Z" fill="#A0C746"/>
</g>
<path d="M262.14 187.308C261.62 176.547 254.671 156.546 231.032 162.63" stroke="url(#paint8_linear_3052_45531)" stroke-width="1.26762" stroke-linecap="round"/>
<path d="M202.546 201.724C200.839 191.095 204.243 170.298 224.279 165.99" stroke="url(#paint9_linear_3052_45531)" stroke-width="0.413211" stroke-linecap="round"/>
<g filter="url(#filter18_ii_3052_45531)">
<path d="M10.4134 56.6167L29.1204 11.7979C31.6147 5.82192 39.2533 8.52845 42.7608 10.6287C46.814 11.2523 75.1083 31.1544 88.7488 41.0275C92.1784 41.9629 98.2322 46.6137 100.83 48.8221L136.197 36.3508C139.626 35.4155 141.375 37.7374 138.535 40.4776C97.7336 79.8402 74.8114 97.8332 29.1204 119.085C25.379 120.02 26.652 117.036 27.5614 115.737L48.6067 88.9642C45.8007 88.9642 45.359 82.4687 45.4889 79.221C43.6182 77.0385 44.7095 72.8554 45.4889 71.0367L40.8122 41.0275L37.6943 37.9097C33.3294 40.7158 32.7578 37.52 33.0176 35.5713L27.5614 39.8584L13.1415 58.5653C9.4001 62.6185 9.76385 58.9551 10.4134 56.6167Z" fill="#5B40B4"/>
</g>
<g filter="url(#filter19_i_3052_45531)">
<path d="M89.1604 40.0557C81.6776 41.6146 56.9004 61.5497 45.4684 71.163C43.5977 73.9691 44.3447 78.2581 45.1242 79.4272C44.5006 85.5623 46.9241 88.4619 48.2232 89.4132C53.7327 82.182 85.4483 58.7838 100.908 48.7808C97.7897 44.7276 91.7586 41.0949 89.1604 40.0557Z" fill="#D9B1FF"/>
</g>
<g filter="url(#filter20_i_3052_45531)">
<path d="M57.895 42.8366C57.5681 41.5422 58.9863 40.5102 60.1175 41.2193L66.3736 45.141C66.8553 45.443 67.4673 45.4425 67.9486 45.1399L74.1983 41.2097C75.3282 40.4991 76.7477 41.5286 76.4232 42.8234L74.6281 49.9862C74.4899 50.5375 74.6795 51.1193 75.1159 51.4834L80.7864 56.2143C81.8115 57.0696 81.2707 58.7378 79.9388 58.829L72.5737 59.3332C72.0064 59.3721 71.5114 59.7322 71.3 60.2601L68.5551 67.1132C68.0587 68.3524 66.305 68.3539 65.8064 67.1155L63.0488 60.2648C62.8365 59.7376 62.3413 59.3783 61.7742 59.3402L54.4065 58.8454C53.0747 58.7559 52.5316 57.0886 53.5553 56.232L59.2171 51.4939C59.6531 51.1291 59.8417 50.5469 59.7025 49.9956L57.895 42.8366Z" fill="url(#paint10_linear_3052_45531)"/>
</g>
<defs>
<filter id="filter0_ii_3052_45531" x="57.0639" y="65.0635" width="167.088" height="149.581" filterUnits="userSpaceOnUse" color-interpolation-filters="sRGB">
<feFlood flood-opacity="0" result="BackgroundImageFix"/>
<feBlend mode="normal" in="SourceGraphic" in2="BackgroundImageFix" result="shape"/>
<feColorMatrix in="SourceAlpha" type="matrix" values="0 0 0 0 0 0 0 0 0 0 0 0 0 0 0 0 0 0 127 0" result="hardAlpha"/>
<feOffset dx="-8.12747" dy="1.8061"/>
<feGaussianBlur stdDeviation="6.72774"/>
<feComposite in2="hardAlpha" operator="arithmetic" k2="-1" k3="1"/>
<feColorMatrix type="matrix" values="0 0 0 0 1 0 0 0 0 0.912766 0 0 0 0 0.792818 0 0 0 0.8 0"/>
<feBlend mode="normal" in2="shape" result="effect1_innerShadow_3052_45531"/>
<feColorMatrix in="SourceAlpha" type="matrix" values="0 0 0 0 0 0 0 0 0 0 0 0 0 0 0 0 0 0 127 0" result="hardAlpha"/>
<feOffset dx="-0.903052" dy="0.903052"/>
<feGaussianBlur stdDeviation="0.451526"/>
<feComposite in2="hardAlpha" operator="arithmetic" k2="-1" k3="1"/>
<feColorMatrix type="matrix" values="0 0 0 0 0.871206 0 0 0 0 1 0 0 0 0 0.997853 0 0 0 0.5 0"/>
<feBlend mode="normal" in2="effect1_innerShadow_3052_45531" result="effect2_innerShadow_3052_45531"/>
</filter>
<filter id="filter1_n_3052_45531" x="31.8164" y="44.4424" width="210.074" height="188.405" filterUnits="userSpaceOnUse" color-interpolation-filters="sRGB">
<feFlood flood-opacity="0" result="BackgroundImageFix"/>
<feBlend mode="normal" in="SourceGraphic" in2="BackgroundImageFix" result="shape"/>
<feTurbulence type="fractalNoise" baseFrequency="0.11534957587718964 0.11534957587718964" stitchTiles="stitch" numOctaves="3" result="noise" seed="1999" />
<feColorMatrix in="noise" type="luminanceToAlpha" result="alphaNoise" />
<feComponentTransfer in="alphaNoise" result="coloredNoise1">
<feFuncA type="discrete" tableValues="1 1 1 1 1 1 1 1 1 1 1 1 1 1 1 1 1 1 1 1 1 1 1 1 1 1 1 1 1 1 1 1 1 1 1 1 1 1 1 1 1 1 1 1 1 1 1 1 1 1 1 0 0 0 0 0 0 0 0 0 0 0 0 0 0 0 0 0 0 0 0 0 0 0 0 0 0 0 0 0 0 0 0 0 0 0 0 0 0 0 0 0 0 0 0 0 0 0 0 0 "/>
</feComponentTransfer>
<feComposite operator="in" in2="shape" in="coloredNoise1" result="noise1Clipped" />
<feFlood flood-color="rgba(0, 0, 0, 0.08)" result="color1Flood" />
<feComposite operator="in" in2="noise1Clipped" in="color1Flood" result="color1" />
<feMerge result="effect1_noise_3052_45531">
<feMergeNode in="shape" />
<feMergeNode in="color1" />
</feMerge>
</filter>
<filter id="filter2_ii_3052_45531" x="109.564" y="213.463" width="84.6309" height="33.812" filterUnits="userSpaceOnUse" color-interpolation-filters="sRGB">
<feFlood flood-opacity="0" result="BackgroundImageFix"/>
<feBlend mode="normal" in="SourceGraphic" in2="BackgroundImageFix" result="shape"/>
<feColorMatrix in="SourceAlpha" type="matrix" values="0 0 0 0 0 0 0 0 0 0 0 0 0 0 0 0 0 0 127 0" result="hardAlpha"/>
<feOffset dx="-9.93357" dy="1.8061"/>
<feGaussianBlur stdDeviation="4.78617"/>
<feComposite in2="hardAlpha" operator="arithmetic" k2="-1" k3="1"/>
<feColorMatrix type="matrix" values="0 0 0 0 0.869328 0 0 0 0 0.719989 0 0 0 0 1 0 0 0 0.2 0"/>
<feBlend mode="normal" in2="shape" result="effect1_innerShadow_3052_45531"/>
<feColorMatrix in="SourceAlpha" type="matrix" values="0 0 0 0 0 0 0 0 0 0 0 0 0 0 0 0 0 0 127 0" result="hardAlpha"/>
<feOffset dx="-0.903052"/>
<feGaussianBlur stdDeviation="0.451526"/>
<feComposite in2="hardAlpha" operator="arithmetic" k2="-1" k3="1"/>
<feColorMatrix type="matrix" values="0 0 0 0 0.858824 0 0 0 0 0.976471 0 0 0 0 0.984314 0 0 0 0.2 0"/>
<feBlend mode="normal" in2="effect1_innerShadow_3052_45531" result="effect2_innerShadow_3052_45531"/>
</filter>
<filter id="filter3_g_3052_45531" x="115.31" y="140.908" width="32.0241" height="28.5583" filterUnits="userSpaceOnUse" color-interpolation-filters="sRGB">
<feFlood flood-opacity="0" result="BackgroundImageFix"/>
<feBlend mode="normal" in="SourceGraphic" in2="BackgroundImageFix" result="shape"/>
<feTurbulence type="fractalNoise" baseFrequency="1.2303956747055054 1.2303956747055054" numOctaves="3" seed="3511" />
<feDisplacementMap in="shape" scale="0.90305191278457642" xChannelSelector="R" yChannelSelector="G" result="displacedImage" width="100%" height="100%" />
<feMerge result="effect1_texture_3052_45531">
<feMergeNode in="displacedImage"/>
</feMerge>
</filter>
<filter id="filter4_g_3052_45531" x="121.25" y="144.955" width="21.6986" height="19.9242" filterUnits="userSpaceOnUse" color-interpolation-filters="sRGB">
<feFlood flood-opacity="0" result="BackgroundImageFix"/>
<feBlend mode="normal" in="SourceGraphic" in2="BackgroundImageFix" result="shape"/>
<feTurbulence type="fractalNoise" baseFrequency="1.8733748197555542 1.8733748197555542" numOctaves="3" seed="3511" />
<feDisplacementMap in="shape" scale="0.59310668706893921" xChannelSelector="R" yChannelSelector="G" result="displacedImage" width="100%" height="100%" />
<feMerge result="effect1_texture_3052_45531">
<feMergeNode in="displacedImage"/>
</feMerge>
</filter>
<filter id="filter5_g_3052_45531" x="159.791" y="136.619" width="29.0476" height="28.4988" filterUnits="userSpaceOnUse" color-interpolation-filters="sRGB">
<feFlood flood-opacity="0" result="BackgroundImageFix"/>
<feBlend mode="normal" in="SourceGraphic" in2="BackgroundImageFix" result="shape"/>
<feTurbulence type="fractalNoise" baseFrequency="1.2303956747055054 1.2303956747055054" numOctaves="3" seed="3511" />
<feDisplacementMap in="shape" scale="0.90305191278457642" xChannelSelector="R" yChannelSelector="G" result="displacedImage" width="100%" height="100%" />
<feMerge result="effect1_texture_3052_45531">
<feMergeNode in="displacedImage"/>
</feMerge>
</filter>
<filter id="filter6_g_3052_45531" x="163.711" y="140.414" width="21.347" height="20.1751" filterUnits="userSpaceOnUse" color-interpolation-filters="sRGB">
<feFlood flood-opacity="0" result="BackgroundImageFix"/>
<feBlend mode="normal" in="SourceGraphic" in2="BackgroundImageFix" result="shape"/>
<feTurbulence type="fractalNoise" baseFrequency="1.8733748197555542 1.8733748197555542" numOctaves="3" seed="3511" />
<feDisplacementMap in="shape" scale="0.59310668706893921" xChannelSelector="R" yChannelSelector="G" result="displacedImage" width="100%" height="100%" />
<feMerge result="effect1_texture_3052_45531">
<feMergeNode in="displacedImage"/>
</feMerge>
</filter>
<filter id="filter7_i_3052_45531" x="199.839" y="212.419" width="62.7114" height="18.7506" filterUnits="userSpaceOnUse" color-interpolation-filters="sRGB">
<feFlood flood-opacity="0" result="BackgroundImageFix"/>
<feBlend mode="normal" in="SourceGraphic" in2="BackgroundImageFix" result="shape"/>
<feColorMatrix in="SourceAlpha" type="matrix" values="0 0 0 0 0 0 0 0 0 0 0 0 0 0 0 0 0 0 127 0" result="hardAlpha"/>
<feOffset dx="-4.82079" dy="-2.06605"/>
<feGaussianBlur stdDeviation="5.19957"/>
<feComposite in2="hardAlpha" operator="arithmetic" k2="-1" k3="1"/>
<feColorMatrix type="matrix" values="0 0 0 0 0.913725 0 0 0 0 0.427451 0 0 0 0 0.290196 0 0 0 1 0"/>
<feBlend mode="normal" in2="shape" result="effect1_innerShadow_3052_45531"/>
</filter>
<filter id="filter8_iii_3052_45531" x="221.767" y="211.56" width="23.1124" height="15.9764" filterUnits="userSpaceOnUse" color-interpolation-filters="sRGB">
<feFlood flood-opacity="0" result="BackgroundImageFix"/>
<feBlend mode="normal" in="SourceGraphic" in2="BackgroundImageFix" result="shape"/>
<feColorMatrix in="SourceAlpha" type="matrix" values="0 0 0 0 0 0 0 0 0 0 0 0 0 0 0 0 0 0 127 0" result="hardAlpha"/>
<feOffset dx="-5.50948" dy="1.37737"/>
<feGaussianBlur stdDeviation="1.89388"/>
<feComposite in2="hardAlpha" operator="arithmetic" k2="-1" k3="1"/>
<feColorMatrix type="matrix" values="0 0 0 0 0.538462 0 0 0 0 0.160503 0 0 0 0 0.1885 0 0 0 1 0"/>
<feBlend mode="normal" in2="shape" result="effect1_innerShadow_3052_45531"/>
<feColorMatrix in="SourceAlpha" type="matrix" values="0 0 0 0 0 0 0 0 0 0 0 0 0 0 0 0 0 0 127 0" result="hardAlpha"/>
<feOffset dx="3.44342" dy="0.688684"/>
<feGaussianBlur stdDeviation="1.48067"/>
<feComposite in2="hardAlpha" operator="arithmetic" k2="-1" k3="1"/>
<feColorMatrix type="matrix" values="0 0 0 0 0.903846 0 0 0 0 0.386742 0 0 0 0 0.386742 0 0 0 1 0"/>
<feBlend mode="normal" in2="effect1_innerShadow_3052_45531" result="effect2_innerShadow_3052_45531"/>
<feColorMatrix in="SourceAlpha" type="matrix" values="0 0 0 0 0 0 0 0 0 0 0 0 0 0 0 0 0 0 127 0" result="hardAlpha"/>
<feOffset dy="3.44342"/>
<feGaussianBlur stdDeviation="1.37737"/>
<feComposite in2="hardAlpha" operator="arithmetic" k2="-1" k3="1"/>
<feColorMatrix type="matrix" values="0 0 0 0 0.394231 0 0 0 0 0 0 0 0 0 0 0 0 0 0.25 0"/>
<feBlend mode="normal" in2="effect2_innerShadow_3052_45531" result="effect3_innerShadow_3052_45531"/>
</filter>
<filter id="filter9_iii_3052_45531" x="224.841" y="196.105" width="19.7686" height="21.117" filterUnits="userSpaceOnUse" color-interpolation-filters="sRGB">
<feFlood flood-opacity="0" result="BackgroundImageFix"/>
<feBlend mode="normal" in="SourceGraphic" in2="BackgroundImageFix" result="shape"/>
<feColorMatrix in="SourceAlpha" type="matrix" values="0 0 0 0 0 0 0 0 0 0 0 0 0 0 0 0 0 0 127 0" result="hardAlpha"/>
<feOffset dx="-5.50948" dy="1.37737"/>
<feGaussianBlur stdDeviation="1.89388"/>
<feComposite in2="hardAlpha" operator="arithmetic" k2="-1" k3="1"/>
<feColorMatrix type="matrix" values="0 0 0 0 0.538462 0 0 0 0 0.160503 0 0 0 0 0.1885 0 0 0 1 0"/>
<feBlend mode="normal" in2="shape" result="effect1_innerShadow_3052_45531"/>
<feColorMatrix in="SourceAlpha" type="matrix" values="0 0 0 0 0 0 0 0 0 0 0 0 0 0 0 0 0 0 127 0" result="hardAlpha"/>
<feOffset dx="3.44342" dy="0.688684"/>
<feGaussianBlur stdDeviation="1.48067"/>
<feComposite in2="hardAlpha" operator="arithmetic" k2="-1" k3="1"/>
<feColorMatrix type="matrix" values="0 0 0 0 0.903846 0 0 0 0 0.386742 0 0 0 0 0.386742 0 0 0 1 0"/>
<feBlend mode="normal" in2="effect1_innerShadow_3052_45531" result="effect2_innerShadow_3052_45531"/>
<feColorMatrix in="SourceAlpha" type="matrix" values="0 0 0 0 0 0 0 0 0 0 0 0 0 0 0 0 0 0 127 0" result="hardAlpha"/>
<feOffset dy="3.44342"/>
<feGaussianBlur stdDeviation="1.37737"/>
<feComposite in2="hardAlpha" operator="arithmetic" k2="-1" k3="1"/>
<feColorMatrix type="matrix" values="0 0 0 0 0.394231 0 0 0 0 0 0 0 0 0 0 0 0 0 0.25 0"/>
<feBlend mode="normal" in2="effect2_innerShadow_3052_45531" result="effect3_innerShadow_3052_45531"/>
</filter>
<filter id="filter10_iii_3052_45531" x="223.681" y="181.621" width="19.5265" height="20.1991" filterUnits="userSpaceOnUse" color-interpolation-filters="sRGB">
<feFlood flood-opacity="0" result="BackgroundImageFix"/>
<feBlend mode="normal" in="SourceGraphic" in2="BackgroundImageFix" result="shape"/>
<feColorMatrix in="SourceAlpha" type="matrix" values="0 0 0 0 0 0 0 0 0 0 0 0 0 0 0 0 0 0 127 0" result="hardAlpha"/>
<feOffset dx="-5.50948" dy="1.37737"/>
<feGaussianBlur stdDeviation="1.89388"/>
<feComposite in2="hardAlpha" operator="arithmetic" k2="-1" k3="1"/>
<feColorMatrix type="matrix" values="0 0 0 0 0.538462 0 0 0 0 0.160503 0 0 0 0 0.1885 0 0 0 1 0"/>
<feBlend mode="normal" in2="shape" result="effect1_innerShadow_3052_45531"/>
<feColorMatrix in="SourceAlpha" type="matrix" values="0 0 0 0 0 0 0 0 0 0 0 0 0 0 0 0 0 0 127 0" result="hardAlpha"/>
<feOffset dx="3.44342" dy="0.688684"/>
<feGaussianBlur stdDeviation="1.48067"/>
<feComposite in2="hardAlpha" operator="arithmetic" k2="-1" k3="1"/>
<feColorMatrix type="matrix" values="0 0 0 0 0.903846 0 0 0 0 0.386742 0 0 0 0 0.386742 0 0 0 1 0"/>
<feBlend mode="normal" in2="effect1_innerShadow_3052_45531" result="effect2_innerShadow_3052_45531"/>
<feColorMatrix in="SourceAlpha" type="matrix" values="0 0 0 0 0 0 0 0 0 0 0 0 0 0 0 0 0 0 127 0" result="hardAlpha"/>
<feOffset dy="3.44342"/>
<feGaussianBlur stdDeviation="1.37737"/>
<feComposite in2="hardAlpha" operator="arithmetic" k2="-1" k3="1"/>
<feColorMatrix type="matrix" values="0 0 0 0 0.394231 0 0 0 0 0 0 0 0 0 0 0 0 0 0.25 0"/>
<feBlend mode="normal" in2="effect2_innerShadow_3052_45531" result="effect3_innerShadow_3052_45531"/>
</filter>
<filter id="filter11_iii_3052_45531" x="217.474" y="165.927" width="23.3546" height="22.3299" filterUnits="userSpaceOnUse" color-interpolation-filters="sRGB">
<feFlood flood-opacity="0" result="BackgroundImageFix"/>
<feBlend mode="normal" in="SourceGraphic" in2="BackgroundImageFix" result="shape"/>
<feColorMatrix in="SourceAlpha" type="matrix" values="0 0 0 0 0 0 0 0 0 0 0 0 0 0 0 0 0 0 127 0" result="hardAlpha"/>
<feOffset dx="-5.50948" dy="1.37737"/>
<feGaussianBlur stdDeviation="1.89388"/>
<feComposite in2="hardAlpha" operator="arithmetic" k2="-1" k3="1"/>
<feColorMatrix type="matrix" values="0 0 0 0 0.538462 0 0 0 0 0.160503 0 0 0 0 0.1885 0 0 0 1 0"/>
<feBlend mode="normal" in2="shape" result="effect1_innerShadow_3052_45531"/>
<feColorMatrix in="SourceAlpha" type="matrix" values="0 0 0 0 0 0 0 0 0 0 0 0 0 0 0 0 0 0 127 0" result="hardAlpha"/>
<feOffset dy="3.44342"/>
<feGaussianBlur stdDeviation="1.37737"/>
<feComposite in2="hardAlpha" operator="arithmetic" k2="-1" k3="1"/>
<feColorMatrix type="matrix" values="0 0 0 0 0.394231 0 0 0 0 0 0 0 0 0 0 0 0 0 0.25 0"/>
<feBlend mode="normal" in2="effect1_innerShadow_3052_45531" result="effect2_innerShadow_3052_45531"/>
<feColorMatrix in="SourceAlpha" type="matrix" values="0 0 0 0 0 0 0 0 0 0 0 0 0 0 0 0 0 0 127 0" result="hardAlpha"/>
<feOffset dx="3.44342" dy="0.688684"/>
<feGaussianBlur stdDeviation="1.48067"/>
<feComposite in2="hardAlpha" operator="arithmetic" k2="-1" k3="1"/>
<feColorMatrix type="matrix" values="0 0 0 0 0.903846 0 0 0 0 0.386742 0 0 0 0 0.386742 0 0 0 1 0"/>
<feBlend mode="normal" in2="effect2_innerShadow_3052_45531" result="effect3_innerShadow_3052_45531"/>
</filter>
<filter id="filter12_i_3052_45531" x="197.988" y="151.104" width="34.8185" height="18.9551" filterUnits="userSpaceOnUse" color-interpolation-filters="sRGB">
<feFlood flood-opacity="0" result="BackgroundImageFix"/>
<feBlend mode="normal" in="SourceGraphic" in2="BackgroundImageFix" result="shape"/>
<feColorMatrix in="SourceAlpha" type="matrix" values="0 0 0 0 0 0 0 0 0 0 0 0 0 0 0 0 0 0 127 0" result="hardAlpha"/>
<feOffset dx="3.80286" dy="1.26762"/>
<feGaussianBlur stdDeviation="2.85214"/>
<feComposite in2="hardAlpha" operator="arithmetic" k2="-1" k3="1"/>
<feColorMatrix type="matrix" values="0 0 0 0 1 0 0 0 0 0.710857 0 0 0 0 0.67873 0 0 0 0.5 0"/>
<feBlend mode="normal" in2="shape" result="effect1_innerShadow_3052_45531"/>
</filter>
<filter id="filter13_d_3052_45531" x="196.163" y="156.2" width="29.4461" height="12.1036" filterUnits="userSpaceOnUse" color-interpolation-filters="sRGB">
<feFlood flood-opacity="0" result="BackgroundImageFix"/>
<feColorMatrix in="SourceAlpha" type="matrix" values="0 0 0 0 0 0 0 0 0 0 0 0 0 0 0 0 0 0 127 0" result="hardAlpha"/>
<feOffset dx="-1.37737" dy="-2.06605"/>
<feGaussianBlur stdDeviation="0.688684"/>
<feComposite in2="hardAlpha" operator="out"/>
<feColorMatrix type="matrix" values="0 0 0 0 1 0 0 0 0 1 0 0 0 0 1 0 0 0 0.25 0"/>
<feBlend mode="normal" in2="BackgroundImageFix" result="effect1_dropShadow_3052_45531"/>
<feBlend mode="normal" in="SourceGraphic" in2="effect1_dropShadow_3052_45531" result="shape"/>
</filter>
<filter id="filter14_ii_3052_45531" x="223.73" y="143.79" width="34.3458" height="27.2236" filterUnits="userSpaceOnUse" color-interpolation-filters="sRGB">
<feFlood flood-opacity="0" result="BackgroundImageFix"/>
<feBlend mode="normal" in="SourceGraphic" in2="BackgroundImageFix" result="shape"/>
<feColorMatrix in="SourceAlpha" type="matrix" values="0 0 0 0 0 0 0 0 0 0 0 0 0 0 0 0 0 0 127 0" result="hardAlpha"/>
<feOffset dx="2.06605" dy="2.75474"/>
<feGaussianBlur stdDeviation="2.13492"/>
<feComposite in2="hardAlpha" operator="arithmetic" k2="-1" k3="1"/>
<feColorMatrix type="matrix" values="0 0 0 0 0.795072 0 0 0 0 0.908654 0 0 0 0 0.397536 0 0 0 0.7 0"/>
<feBlend mode="normal" in2="shape" result="effect1_innerShadow_3052_45531"/>
<feColorMatrix in="SourceAlpha" type="matrix" values="0 0 0 0 0 0 0 0 0 0 0 0 0 0 0 0 0 0 127 0" result="hardAlpha"/>
<feOffset dx="3.80286" dy="-2.53524"/>
<feGaussianBlur stdDeviation="3.67609"/>
<feComposite in2="hardAlpha" operator="arithmetic" k2="-1" k3="1"/>
<feColorMatrix type="matrix" values="0 0 0 0 1 0 0 0 0 0.710857 0 0 0 0 0.67873 0 0 0 0.5 0"/>
<feBlend mode="normal" in2="effect1_innerShadow_3052_45531" result="effect2_innerShadow_3052_45531"/>
</filter>
<filter id="filter15_d_3052_45531" x="225.779" y="148.598" width="29.868" height="19.161" filterUnits="userSpaceOnUse" color-interpolation-filters="sRGB">
<feFlood flood-opacity="0" result="BackgroundImageFix"/>
<feColorMatrix in="SourceAlpha" type="matrix" values="0 0 0 0 0 0 0 0 0 0 0 0 0 0 0 0 0 0 127 0" result="hardAlpha"/>
<feOffset dy="-1.37737"/>
<feGaussianBlur stdDeviation="0.688684"/>
<feComposite in2="hardAlpha" operator="out"/>
<feColorMatrix type="matrix" values="0 0 0 0 1 0 0 0 0 1 0 0 0 0 1 0 0 0 0.25 0"/>
<feBlend mode="normal" in2="BackgroundImageFix" result="effect1_dropShadow_3052_45531"/>
<feBlend mode="normal" in="SourceGraphic" in2="effect1_dropShadow_3052_45531" result="shape"/>
</filter>
<filter id="filter16_ii_3052_45531" x="219.28" y="144.428" width="44.3099" height="46.368" filterUnits="userSpaceOnUse" color-interpolation-filters="sRGB">
<feFlood flood-opacity="0" result="BackgroundImageFix"/>
<feBlend mode="normal" in="SourceGraphic" in2="BackgroundImageFix" result="shape"/>
<feColorMatrix in="SourceAlpha" type="matrix" values="0 0 0 0 0 0 0 0 0 0 0 0 0 0 0 0 0 0 127 0" result="hardAlpha"/>
<feOffset dx="-7.57553" dy="-2.75474"/>
<feGaussianBlur stdDeviation="5.19957"/>
<feComposite in2="hardAlpha" operator="arithmetic" k2="-1" k3="1"/>
<feColorMatrix type="matrix" values="0 0 0 0 0.219608 0 0 0 0 0.521569 0 0 0 0 0.109804 0 0 0 0.3 0"/>
<feBlend mode="normal" in2="shape" result="effect1_innerShadow_3052_45531"/>
<feColorMatrix in="SourceAlpha" type="matrix" values="0 0 0 0 0 0 0 0 0 0 0 0 0 0 0 0 0 0 127 0" result="hardAlpha"/>
<feOffset dx="-2.06605" dy="-12.3963"/>
<feGaussianBlur stdDeviation="6.4392"/>
<feComposite in2="hardAlpha" operator="arithmetic" k2="-1" k3="1"/>
<feColorMatrix type="matrix" values="0 0 0 0 0.219608 0 0 0 0 0.521569 0 0 0 0 0.109804 0 0 0 0.6 0"/>
<feBlend mode="normal" in2="effect1_innerShadow_3052_45531" result="effect2_innerShadow_3052_45531"/>
</filter>
<filter id="filter17_ii_3052_45531" x="190.839" y="161.529" width="41.4057" height="49.7511" filterUnits="userSpaceOnUse" color-interpolation-filters="sRGB">
<feFlood flood-opacity="0" result="BackgroundImageFix"/>
<feBlend mode="normal" in="SourceGraphic" in2="BackgroundImageFix" result="shape"/>
<feColorMatrix in="SourceAlpha" type="matrix" values="0 0 0 0 0 0 0 0 0 0 0 0 0 0 0 0 0 0 127 0" result="hardAlpha"/>
<feOffset dx="-7.57553" dy="-2.75474"/>
<feGaussianBlur stdDeviation="5.19957"/>
<feComposite in2="hardAlpha" operator="arithmetic" k2="-1" k3="1"/>
<feColorMatrix type="matrix" values="0 0 0 0 0.219608 0 0 0 0 0.521569 0 0 0 0 0.109804 0 0 0 1 0"/>
<feBlend mode="normal" in2="shape" result="effect1_innerShadow_3052_45531"/>
<feColorMatrix in="SourceAlpha" type="matrix" values="0 0 0 0 0 0 0 0 0 0 0 0 0 0 0 0 0 0 127 0" result="hardAlpha"/>
<feOffset dx="3.80286" dy="8.87333"/>
<feGaussianBlur stdDeviation="4.88033"/>
<feComposite in2="hardAlpha" operator="arithmetic" k2="-1" k3="1"/>
<feColorMatrix type="matrix" values="0 0 0 0 1 0 0 0 0 0.710857 0 0 0 0 0.67873 0 0 0 0.5 0"/>
<feBlend mode="normal" in2="effect1_innerShadow_3052_45531" result="effect2_innerShadow_3052_45531"/>
</filter>
<filter id="filter18_ii_3052_45531" x="-0.140947" y="4.35535" width="140.098" height="114.907" filterUnits="userSpaceOnUse" color-interpolation-filters="sRGB">
<feFlood flood-opacity="0" result="BackgroundImageFix"/>
<feBlend mode="normal" in="SourceGraphic" in2="BackgroundImageFix" result="shape"/>
<feColorMatrix in="SourceAlpha" type="matrix" values="0 0 0 0 0 0 0 0 0 0 0 0 0 0 0 0 0 0 127 0" result="hardAlpha"/>
<feOffset dy="-3.80286"/>
<feGaussianBlur stdDeviation="7.60571"/>
<feComposite in2="hardAlpha" operator="arithmetic" k2="-1" k3="1"/>
<feColorMatrix type="matrix" values="0 0 0 0 0.11751 0 0 0 0 0.0350767 0 0 0 0 0.390174 0 0 0 0.6 0"/>
<feBlend mode="normal" in2="shape" result="effect1_innerShadow_3052_45531"/>
<feColorMatrix in="SourceAlpha" type="matrix" values="0 0 0 0 0 0 0 0 0 0 0 0 0 0 0 0 0 0 127 0" result="hardAlpha"/>
<feOffset dx="-10.1409"/>
<feGaussianBlur stdDeviation="8.49304"/>
<feComposite in2="hardAlpha" operator="arithmetic" k2="-1" k3="1"/>
<feColorMatrix type="matrix" values="0 0 0 0 0.960784 0 0 0 0 0.494118 0 0 0 0 0.494118 0 0 0 0.3 0"/>
<feBlend mode="normal" in2="effect1_innerShadow_3052_45531" result="effect2_innerShadow_3052_45531"/>
</filter>
<filter id="filter19_i_3052_45531" x="44.2969" y="37.5204" width="65.863" height="51.8927" filterUnits="userSpaceOnUse" color-interpolation-filters="sRGB">
<feFlood flood-opacity="0" result="BackgroundImageFix"/>
<feBlend mode="normal" in="SourceGraphic" in2="BackgroundImageFix" result="shape"/>
<feColorMatrix in="SourceAlpha" type="matrix" values="0 0 0 0 0 0 0 0 0 0 0 0 0 0 0 0 0 0 127 0" result="hardAlpha"/>
<feOffset dx="10.1409" dy="-2.53524"/>
<feGaussianBlur stdDeviation="4.62681"/>
<feComposite in2="hardAlpha" operator="arithmetic" k2="-1" k3="1"/>
<feColorMatrix type="matrix" values="0 0 0 0 0.515209 0 0 0 0 0.299245 0 0 0 0 0.641188 0 0 0 0.4 0"/>
<feBlend mode="normal" in2="shape" result="effect1_innerShadow_3052_45531"/>
</filter>
<filter id="filter20_i_3052_45531" x="53.0234" y="38.7561" width="28.2969" height="29.2879" filterUnits="userSpaceOnUse" color-interpolation-filters="sRGB">
<feFlood flood-opacity="0" result="BackgroundImageFix"/>
<feBlend mode="normal" in="SourceGraphic" in2="BackgroundImageFix" result="shape"/>
<feColorMatrix in="SourceAlpha" type="matrix" values="0 0 0 0 0 0 0 0 0 0 0 0 0 0 0 0 0 0 127 0" result="hardAlpha"/>
<feOffset dy="-2.22145"/>
<feGaussianBlur stdDeviation="1.48097"/>
<feComposite in2="hardAlpha" operator="arithmetic" k2="-1" k3="1"/>
<feColorMatrix type="matrix" values="0 0 0 0 0.888954 0 0 0 0 0.518556 0 0 0 0 0 0 0 0 0.7 0"/>
<feBlend mode="normal" in2="shape" result="effect1_innerShadow_3052_45531"/>
</filter>
<linearGradient id="paint0_linear_3052_45531" x1="240.81" y1="111.756" x2="52.0181" y2="191.87" gradientUnits="userSpaceOnUse">
<stop stop-color="#FFB2B2" stop-opacity="0.2"/>
<stop offset="1" stop-color="white" stop-opacity="0"/>
</linearGradient>
<linearGradient id="paint1_linear_3052_45531" x1="34.808" y1="74.3741" x2="111.116" y2="238.87" gradientUnits="userSpaceOnUse">
<stop stop-color="#8C3E3E"/>
<stop offset="0.586538" stop-color="#CEB484"/>
<stop offset="1" stop-color="#8F5B5B"/>
</linearGradient>
<linearGradient id="paint2_linear_3052_45531" x1="58.2301" y1="143.806" x2="62.1412" y2="54.4717" gradientUnits="userSpaceOnUse">
<stop stop-color="#FFD9D9"/>
<stop offset="0.675784" stop-color="#FFD9D9" stop-opacity="0"/>
</linearGradient>
<linearGradient id="paint3_linear_3052_45531" x1="40.6758" y1="134.368" x2="59.6521" y2="138.246" gradientUnits="userSpaceOnUse">
<stop stop-color="#FFD9D9"/>
<stop offset="1" stop-color="#FFD9D9" stop-opacity="0"/>
</linearGradient>
<linearGradient id="paint4_linear_3052_45531" x1="239.141" y1="221.393" x2="263.255" y2="226.045" gradientUnits="userSpaceOnUse">
<stop stop-color="#C4543F"/>
<stop offset="1" stop-color="#C4543F" stop-opacity="0"/>
</linearGradient>
<linearGradient id="paint5_linear_3052_45531" x1="199.432" y1="168.33" x2="224.551" y2="165.68" gradientUnits="userSpaceOnUse">
<stop stop-color="#277C18"/>
<stop offset="1" stop-color="#538A13"/>
</linearGradient>
<linearGradient id="paint6_linear_3052_45531" x1="248.043" y1="148.781" x2="225.756" y2="168.259" gradientUnits="userSpaceOnUse">
<stop stop-color="#A1C338"/>
<stop offset="1" stop-color="#5D971E"/>
</linearGradient>
<linearGradient id="paint7_linear_3052_45531" x1="230.772" y1="165.038" x2="255.29" y2="155.96" gradientUnits="userSpaceOnUse">
<stop stop-color="#287C12"/>
<stop offset="1" stop-color="#3C8F1E"/>
</linearGradient>
<linearGradient id="paint8_linear_3052_45531" x1="231.004" y1="163.065" x2="261.985" y2="188.003" gradientUnits="userSpaceOnUse">
<stop stop-color="#89B839"/>
<stop offset="1" stop-color="#44901E"/>
</linearGradient>
<linearGradient id="paint9_linear_3052_45531" x1="203.711" y1="201.765" x2="196.77" y2="176.34" gradientUnits="userSpaceOnUse">
<stop stop-color="#408A20"/>
<stop offset="0.593136" stop-color="#99C343"/>
<stop offset="1" stop-color="#4B9124"/>
</linearGradient>
<linearGradient id="paint10_linear_3052_45531" x1="67.1162" y1="31.8923" x2="67.2095" y2="74.5954" gradientUnits="userSpaceOnUse">
<stop stop-color="#FFE096"/>
<stop offset="1" stop-color="#FFCA4E"/>
</linearGradient>
</defs>
</svg>
