<svg width="299" height="221" viewBox="0 0 299 221" fill="none" xmlns="http://www.w3.org/2000/svg">
<g clip-path="url(#clip0_3052_29613)" filter="url(#filter0_i_3052_29613)">
<path d="M125.612 157.176C128.167 152.884 133.935 151.857 137.813 155.004V155.004C141.598 158.075 141.88 163.752 138.418 167.183L124.417 181.062C122.409 183.052 119.244 183.264 116.989 181.561V181.561C114.676 179.814 114.048 176.608 115.53 174.117L125.612 157.176Z" fill="#D474C6"/>
<path d="M103.137 140.677C106.354 136.856 112.212 136.778 115.529 140.513V140.513C118.766 144.157 118.124 149.804 114.151 152.629L98.0846 164.053C95.7809 165.691 92.6236 165.388 90.674 163.341V163.341C88.6752 161.243 88.5749 157.976 90.4413 155.759L103.137 140.677Z" fill="#D474C6"/>
<g filter="url(#filter1_n_3052_29613)">
<ellipse cx="153.322" cy="104.83" rx="113.705" ry="101.389" transform="rotate(-9.05149 153.322 104.83)" fill="url(#paint0_linear_3052_29613)" fill-opacity="0.9"/>
<path d="M137.509 5.57049C199.142 -4.24794 256.025 32.3513 264.744 87.0804C273.463 141.809 230.768 194.272 169.135 204.091C107.502 213.909 50.6186 177.31 41.8998 122.581C33.1812 67.8516 75.8764 15.389 137.509 5.57049Z" stroke="url(#paint1_linear_3052_29613)" stroke-width="1.75537"/>
</g>
<g filter="url(#filter2_ii_3052_29613)">
<path d="M127.942 28.4053C128.305 26.3549 130.309 25.0583 132.339 25.5205C150.597 29.6781 158.962 37.5474 162.075 43.4219C163.246 45.6318 161.218 47.6954 158.718 47.7393C155.357 47.7978 152.579 48.4104 150.452 49.1787C153.036 52.0453 158.487 58.9365 162.929 66.9551C170.36 59.6505 179.879 56.5806 184.529 55.9346C196.395 53.1717 222.661 55.8382 232.803 88.6045C236.145 103.356 234.527 116.31 230.117 127.492L236.061 132.208C238.274 133.965 238.861 137.083 237.438 139.524C235.978 142.028 232.868 143.033 230.22 141.857L224.184 139.178C221.71 143.129 218.916 146.799 215.942 150.188L222.409 157.667C224.258 159.805 224.254 162.977 222.401 165.111C220.501 167.3 217.259 167.709 214.875 166.061L206.083 159.98C195.864 168.913 185.298 175.006 178.892 178.308C178.272 178.627 177.25 179.093 176.042 179.602L175.426 189.23C175.245 192.051 173.019 194.311 170.201 194.534C167.312 194.763 164.714 192.782 164.169 189.936L162.706 182.289C135.259 179.065 64.9424 149.716 79.6953 101.77C91.9564 61.9227 126.915 62.7876 149.004 70.0312C147.118 64.9488 144.491 58.5955 141.61 53.3779C139.01 54.6866 136.829 56.2317 135.066 57.7637C132.624 59.8862 128.255 59.3709 127.624 56.1973C125.714 46.5889 126.689 35.5023 127.942 28.4053Z" fill="#D474C6"/>
</g>
<g filter="url(#filter3_ii_3052_29613)">
<path d="M142.155 218.047L135.04 207.517C133.37 205.045 134.289 201.663 137.036 200.501C163.499 189.308 194.78 186.009 210.515 185.621C213.344 185.551 215.507 187.999 215.239 190.816L214.145 202.297C213.933 204.522 212.231 206.317 210.023 206.668C179.85 211.457 157.699 217.355 147.339 220.03C145.362 220.54 143.298 219.739 142.155 218.047Z" fill="#802A71"/>
</g>
<circle cx="176.73" cy="199.903" r="3.41323" fill="#F5C0EC"/>
<circle cx="155.273" cy="204.767" r="3.41323" fill="#F5C0EC"/>
<circle cx="198.179" cy="196.978" r="3.41323" fill="#F5C0EC"/>
<g filter="url(#filter4_g_3052_29613)">
<ellipse cx="143.247" cy="114.378" rx="16.8363" ry="14.8928" transform="rotate(-7.75815 143.247 114.378)" fill="white"/>
</g>
<g filter="url(#filter5_g_3052_29613)">
<ellipse cx="144.096" cy="114.091" rx="11.4111" ry="10.4178" transform="rotate(-7.75815 144.096 114.091)" fill="black"/>
</g>
<g filter="url(#filter6_g_3052_29613)">
<ellipse cx="189.674" cy="109.736" rx="15.2016" ry="14.8928" transform="rotate(-7.75815 189.674 109.736)" fill="white"/>
</g>
<ellipse cx="167.983" cy="122.074" rx="4.87604" ry="3.90083" transform="rotate(-3.98844 167.983 122.074)" fill="#FF581D"/>
<path d="M161.875 128.078L162.521 128.982C163.586 130.474 165.5 131.096 167.239 130.516V130.516" stroke="#852A0A" stroke-width="1.56033" stroke-linecap="round"/>
<g filter="url(#filter7_g_3052_29613)">
<ellipse cx="189.755" cy="109.334" rx="11.2171" ry="10.5598" transform="rotate(-7.75815 189.755 109.334)" fill="black"/>
</g>
<path opacity="0.8" d="M96.116 54.1661L77.0541 82.8068C72.905 89.0408 65.1438 95.9381 59.4258 91.1025C55.8987 88.1197 55.907 82.4826 56.7629 78.8059C58.6068 72.2556 66.2591 56.3218 82.1169 44.9884C91.6691 38.1615 96.4598 38.6196 98.6251 41.3285C101.571 45.0138 98.73 50.2386 96.116 54.1661Z" fill="url(#paint2_linear_3052_29613)"/>
<path opacity="0.89" d="M54.6302 99.9714C63.9922 93.73 64.3823 107.773 63.4071 115.575C62.2367 119.866 57.0682 117.363 54.6302 115.575C50.7293 112.974 45.2682 106.213 54.6302 99.9714Z" fill="url(#paint3_linear_3052_29613)"/>
<g filter="url(#filter8_ii_3052_29613)">
<path d="M274.796 137.36C284.268 134.846 293.451 139.951 295.307 148.763C297.162 157.575 290.987 166.757 281.514 169.272C272.042 171.786 262.858 166.68 261.003 157.868C259.148 149.056 265.323 139.875 274.796 137.36ZM288.237 150.669C287.168 145.591 281.875 142.649 276.416 144.098C270.958 145.547 267.399 150.838 268.468 155.916C269.538 160.995 274.83 163.937 280.289 162.488C285.748 161.039 289.307 155.747 288.237 150.669Z" fill="#F5F5F5"/>
</g>
<g filter="url(#filter9_iii_3052_29613)">
<path d="M270.649 127.178C277.65 125.743 279.361 135.974 279.342 141.269C279.802 145.395 280.437 156.868 279.644 171.886C279.494 174.728 278.739 177.589 276.786 179.659C268.373 188.575 252.035 189.516 244.397 185.094C243.215 184.41 242.304 183.37 241.527 182.248C231.623 167.95 222.824 143.901 227.072 139.764C232.269 133.923 244.654 130.279 251.809 128.84C253.178 128.564 254.576 128.514 255.972 128.529C259.382 128.566 265.047 128.326 270.649 127.178Z" fill="#EEEEEE"/>
</g>
<g filter="url(#filter10_i_3052_29613)">
<path d="M246.607 131.968C256.244 118.131 264.913 118.047 268.119 119.811C271.027 121.288 275.499 125.876 270.969 132.694C270.648 133.177 270.247 133.607 269.805 133.983C261.646 140.91 251.689 143.892 243.735 144.814C243.075 144.959 242.388 145.083 241.682 145.18C236.088 145.953 231.336 144.839 231.063 142.692C230.926 142.299 230.903 141.866 231.033 141.403C231.203 140.796 231.593 140.213 232.319 139.745C232.775 139.452 233.31 139.32 233.835 139.184C237.592 138.209 241.878 135.797 244.445 134.13C245.308 133.57 246.019 132.812 246.607 131.968Z" fill="#392929"/>
</g>
<g filter="url(#filter11_i_3052_29613)">
<circle cx="277.63" cy="108.678" r="5.55797" transform="rotate(-2.8247 277.63 108.678)" fill="#392929"/>
</g>
<g filter="url(#filter12_i_3052_29613)">
<path d="M58.1957 95.8153C55.5392 92.2653 48.8133 90.4811 45.73 91.435C45.1006 91.6297 44.6788 92.1514 44.3665 92.7316C33.3244 113.248 13.0539 154.627 16.777 162.759C20.0777 169.968 24.4798 173.995 26.9632 175.57C27.5649 175.951 28.2918 176.089 29.0034 176.052C65.093 174.178 83.0219 142.792 88.5098 123.142C89.3029 120.302 87.8687 117.386 85.2807 115.973C70.2843 107.783 63.0674 102.325 58.1957 95.8153Z" fill="url(#paint4_linear_3052_29613)"/>
</g>
<g filter="url(#filter13_ii_3052_29613)">
<path d="M79.9827 114.787C66.5444 107.829 58.607 100.189 54.5476 94.7093C52.5267 91.9815 48.814 90.4631 45.5716 91.469C35.3285 94.647 24.912 95.26 18.2783 95.0519C15.7123 94.9713 13.245 96.3292 12.2639 98.7016C-2.89559 135.36 12.1073 161.538 23.1462 171.637C24.1939 172.595 25.5975 173.048 27.0132 172.941C58.2412 170.561 76.3305 140.544 82.9999 121.839C83.9815 119.086 82.5783 116.131 79.9827 114.787Z" fill="url(#paint5_linear_3052_29613)"/>
</g>
<g filter="url(#filter14_i_3052_29613)">
<path d="M69.7071 116.365C59.5782 111.855 53.3243 104.902 50.1694 99.7704C49.1971 98.189 46.3039 97.7239 44.6588 98.584C38.6685 101.716 27.5105 102.877 20.7821 103.098C19.9774 103.125 19.239 103.577 18.8699 104.292C5.01608 131.145 17.3705 155.336 26.0383 165.001C26.5082 165.526 27.2133 165.772 27.9093 165.667C51.7823 162.066 66.7293 138.222 72.7817 123.047C73.8384 120.398 72.3128 117.525 69.7071 116.365Z" fill="url(#paint6_linear_3052_29613)"/>
</g>
<g filter="url(#filter15_i_3052_29613)">
<path d="M48.064 98.3484C48.9562 98.596 49.7459 99.0743 50.1701 99.7642C53.325 104.895 59.5788 111.849 69.7075 116.358C72.3131 117.518 73.8392 120.391 72.7827 123.04C66.7303 138.215 51.7831 162.059 27.9105 165.661C27.2146 165.766 26.5089 165.519 26.0389 164.996C25.6203 164.529 25.1939 164.027 24.7615 163.494C28.017 141.511 40.6448 112.743 48.064 98.3484Z" fill="url(#paint7_linear_3052_29613)"/>
</g>
<path d="M129.574 99.9648C134.01 103.309 147.289 109.606 164.916 108.035" stroke="#D474C6" stroke-width="5.20598"/>
<path d="M166.512 107.514C172.067 107.435 186.417 104.266 199.377 92.2164" stroke="url(#paint8_linear_3052_29613)" stroke-width="5.20598"/>
<ellipse cx="146.421" cy="102.225" rx="13.4422" ry="3.80211" transform="rotate(14.7556 146.421 102.225)" fill="#D474C6"/>
<ellipse cx="182.991" cy="97.9361" rx="11.8395" ry="3.80211" transform="rotate(-30.08 182.991 97.9361)" fill="#D474C6"/>
</g>
<defs>
<filter id="filter0_i_3052_29613" x="-2.23114" y="0.824219" width="301.231" height="220.744" filterUnits="userSpaceOnUse" color-interpolation-filters="sRGB">
<feFlood flood-opacity="0" result="BackgroundImageFix"/>
<feBlend mode="normal" in="SourceGraphic" in2="BackgroundImageFix" result="shape"/>
<feColorMatrix in="SourceAlpha" type="matrix" values="0 0 0 0 0 0 0 0 0 0 0 0 0 0 0 0 0 0 127 0" result="hardAlpha"/>
<feOffset dx="-2.23114" dy="0.743712"/>
<feGaussianBlur stdDeviation="1.45024"/>
<feComposite in2="hardAlpha" operator="arithmetic" k2="-1" k3="1"/>
<feColorMatrix type="matrix" values="0 0 0 0 0.259615 0 0 0 0 0.104845 0 0 0 0 0.104845 0 0 0 0.18 0"/>
<feBlend mode="normal" in2="shape" result="effect1_innerShadow_3052_29613"/>
</filter>
<filter id="filter1_n_3052_29613" x="39.8906" y="3.10156" width="226.863" height="203.459" filterUnits="userSpaceOnUse" color-interpolation-filters="sRGB">
<feFlood flood-opacity="0" result="BackgroundImageFix"/>
<feBlend mode="normal" in="SourceGraphic" in2="BackgroundImageFix" result="shape"/>
<feTurbulence type="fractalNoise" baseFrequency="0.10681484639644623 0.10681484639644623" stitchTiles="stitch" numOctaves="3" result="noise" seed="1999" />
<feColorMatrix in="noise" type="luminanceToAlpha" result="alphaNoise" />
<feComponentTransfer in="alphaNoise" result="coloredNoise1">
<feFuncA type="discrete" tableValues="1 1 1 1 1 1 1 1 1 1 1 1 1 1 1 1 1 1 1 1 1 1 1 1 1 1 1 1 1 1 1 1 1 1 1 1 1 1 1 1 1 1 1 1 1 1 1 1 1 1 1 0 0 0 0 0 0 0 0 0 0 0 0 0 0 0 0 0 0 0 0 0 0 0 0 0 0 0 0 0 0 0 0 0 0 0 0 0 0 0 0 0 0 0 0 0 0 0 0 0 "/>
</feComponentTransfer>
<feComposite operator="in" in2="shape" in="coloredNoise1" result="noise1Clipped" />
<feFlood flood-color="rgba(0, 0, 0, 0.08)" result="color1Flood" />
<feComposite operator="in" in2="noise1Clipped" in="color1Flood" result="color1" />
<feMerge result="effect1_noise_3052_29613">
<feMergeNode in="shape" />
<feMergeNode in="color1" />
</feMerge>
</filter>
<filter id="filter2_ii_3052_29613" x="68.9067" y="25.4277" width="169.304" height="171.075" filterUnits="userSpaceOnUse" color-interpolation-filters="sRGB">
<feFlood flood-opacity="0" result="BackgroundImageFix"/>
<feBlend mode="normal" in="SourceGraphic" in2="BackgroundImageFix" result="shape"/>
<feColorMatrix in="SourceAlpha" type="matrix" values="0 0 0 0 0 0 0 0 0 0 0 0 0 0 0 0 0 0 127 0" result="hardAlpha"/>
<feOffset dx="-8.77687" dy="1.95042"/>
<feGaussianBlur stdDeviation="7.2653"/>
<feComposite in2="hardAlpha" operator="arithmetic" k2="-1" k3="1"/>
<feColorMatrix type="matrix" values="0 0 0 0 1 0 0 0 0 0.912766 0 0 0 0 0.792818 0 0 0 0.8 0"/>
<feBlend mode="normal" in2="shape" result="effect1_innerShadow_3052_29613"/>
<feColorMatrix in="SourceAlpha" type="matrix" values="0 0 0 0 0 0 0 0 0 0 0 0 0 0 0 0 0 0 127 0" result="hardAlpha"/>
<feOffset dx="-0.975208" dy="0.975208"/>
<feGaussianBlur stdDeviation="0.487604"/>
<feComposite in2="hardAlpha" operator="arithmetic" k2="-1" k3="1"/>
<feColorMatrix type="matrix" values="0 0 0 0 0.871206 0 0 0 0 1 0 0 0 0 0.997853 0 0 0 0.5 0"/>
<feBlend mode="normal" in2="effect1_innerShadow_3052_29613" result="effect2_innerShadow_3052_29613"/>
</filter>
<filter id="filter3_ii_3052_29613" x="123.866" y="185.619" width="91.3958" height="36.5129" filterUnits="userSpaceOnUse" color-interpolation-filters="sRGB">
<feFlood flood-opacity="0" result="BackgroundImageFix"/>
<feBlend mode="normal" in="SourceGraphic" in2="BackgroundImageFix" result="shape"/>
<feColorMatrix in="SourceAlpha" type="matrix" values="0 0 0 0 0 0 0 0 0 0 0 0 0 0 0 0 0 0 127 0" result="hardAlpha"/>
<feOffset dx="-10.7273" dy="1.95042"/>
<feGaussianBlur stdDeviation="5.1686"/>
<feComposite in2="hardAlpha" operator="arithmetic" k2="-1" k3="1"/>
<feColorMatrix type="matrix" values="0 0 0 0 0.869328 0 0 0 0 0.719989 0 0 0 0 1 0 0 0 0.2 0"/>
<feBlend mode="normal" in2="shape" result="effect1_innerShadow_3052_29613"/>
<feColorMatrix in="SourceAlpha" type="matrix" values="0 0 0 0 0 0 0 0 0 0 0 0 0 0 0 0 0 0 127 0" result="hardAlpha"/>
<feOffset dx="-0.975208"/>
<feGaussianBlur stdDeviation="0.487604"/>
<feComposite in2="hardAlpha" operator="arithmetic" k2="-1" k3="1"/>
<feColorMatrix type="matrix" values="0 0 0 0 0.858824 0 0 0 0 0.976471 0 0 0 0 0.984314 0 0 0 0.2 0"/>
<feBlend mode="normal" in2="effect1_innerShadow_3052_29613" result="effect2_innerShadow_3052_29613"/>
</filter>
<filter id="filter4_g_3052_29613" x="125.954" y="98.9577" width="34.5846" height="30.8404" filterUnits="userSpaceOnUse" color-interpolation-filters="sRGB">
<feFlood flood-opacity="0" result="BackgroundImageFix"/>
<feBlend mode="normal" in="SourceGraphic" in2="BackgroundImageFix" result="shape"/>
<feTurbulence type="fractalNoise" baseFrequency="1.1393584012985229 1.1393584012985229" numOctaves="3" seed="3511" />
<feDisplacementMap in="shape" scale="0.97520768642425537" xChannelSelector="R" yChannelSelector="G" result="displacedImage" width="100%" height="100%" />
<feMerge result="effect1_texture_3052_29613">
<feMergeNode in="displacedImage"/>
</feMerge>
</filter>
<filter id="filter5_g_3052_29613" x="132.379" y="103.332" width="23.4335" height="21.5175" filterUnits="userSpaceOnUse" color-interpolation-filters="sRGB">
<feFlood flood-opacity="0" result="BackgroundImageFix"/>
<feBlend mode="normal" in="SourceGraphic" in2="BackgroundImageFix" result="shape"/>
<feTurbulence type="fractalNoise" baseFrequency="1.7347633838653564 1.7347633838653564" numOctaves="3" seed="3511" />
<feDisplacementMap in="shape" scale="0.64049732685089111" xChannelSelector="R" yChannelSelector="G" result="displacedImage" width="100%" height="100%" />
<feMerge result="effect1_texture_3052_29613">
<feMergeNode in="displacedImage"/>
</feMerge>
</filter>
<filter id="filter6_g_3052_29613" x="173.989" y="94.3483" width="31.3697" height="30.776" filterUnits="userSpaceOnUse" color-interpolation-filters="sRGB">
<feFlood flood-opacity="0" result="BackgroundImageFix"/>
<feBlend mode="normal" in="SourceGraphic" in2="BackgroundImageFix" result="shape"/>
<feTurbulence type="fractalNoise" baseFrequency="1.1393584012985229 1.1393584012985229" numOctaves="3" seed="3511" />
<feDisplacementMap in="shape" scale="0.97520768642425537" xChannelSelector="R" yChannelSelector="G" result="displacedImage" width="100%" height="100%" />
<feMerge result="effect1_texture_3052_29613">
<feMergeNode in="displacedImage"/>
</feMerge>
</filter>
<filter id="filter7_g_3052_29613" x="178.227" y="98.4395" width="23.0546" height="21.787" filterUnits="userSpaceOnUse" color-interpolation-filters="sRGB">
<feFlood flood-opacity="0" result="BackgroundImageFix"/>
<feBlend mode="normal" in="SourceGraphic" in2="BackgroundImageFix" result="shape"/>
<feTurbulence type="fractalNoise" baseFrequency="1.7347633838653564 1.7347633838653564" numOctaves="3" seed="3511" />
<feDisplacementMap in="shape" scale="0.64049732685089111" xChannelSelector="R" yChannelSelector="G" result="displacedImage" width="100%" height="100%" />
<feMerge result="effect1_texture_3052_29613">
<feMergeNode in="displacedImage"/>
</feMerge>
</filter>
<filter id="filter8_ii_3052_29613" x="256.04" y="136.719" width="39.5965" height="35.9723" filterUnits="userSpaceOnUse" color-interpolation-filters="sRGB">
<feFlood flood-opacity="0" result="BackgroundImageFix"/>
<feBlend mode="normal" in="SourceGraphic" in2="BackgroundImageFix" result="shape"/>
<feColorMatrix in="SourceAlpha" type="matrix" values="0 0 0 0 0 0 0 0 0 0 0 0 0 0 0 0 0 0 127 0" result="hardAlpha"/>
<feOffset dx="-4.63164" dy="2.77898"/>
<feGaussianBlur stdDeviation="2.8253"/>
<feComposite in2="hardAlpha" operator="arithmetic" k2="-1" k3="1"/>
<feColorMatrix type="matrix" values="0 0 0 0 0.949782 0 0 0 0 1 0 0 0 0 0.85652 0 0 0 0.77 0"/>
<feBlend mode="normal" in2="shape" result="effect1_innerShadow_3052_29613"/>
<feColorMatrix in="SourceAlpha" type="matrix" values="0 0 0 0 0 0 0 0 0 0 0 0 0 0 0 0 0 0 127 0" result="hardAlpha"/>
<feOffset dx="-0.926328" dy="0.926328"/>
<feGaussianBlur stdDeviation="0.463164"/>
<feComposite in2="hardAlpha" operator="arithmetic" k2="-1" k3="1"/>
<feColorMatrix type="matrix" values="0 0 0 0 0.980056 0 0 0 0 1 0 0 0 0 0.999668 0 0 0 0.7 0"/>
<feBlend mode="normal" in2="effect1_innerShadow_3052_29613" result="effect2_innerShadow_3052_29613"/>
</filter>
<filter id="filter9_iii_3052_29613" x="221.345" y="127.041" width="63.6768" height="64.3323" filterUnits="userSpaceOnUse" color-interpolation-filters="sRGB">
<feFlood flood-opacity="0" result="BackgroundImageFix"/>
<feBlend mode="normal" in="SourceGraphic" in2="BackgroundImageFix" result="shape"/>
<feColorMatrix in="SourceAlpha" type="matrix" values="0 0 0 0 0 0 0 0 0 0 0 0 0 0 0 0 0 0 127 0" result="hardAlpha"/>
<feOffset dx="-4.63164" dy="2.77898"/>
<feGaussianBlur stdDeviation="2.8253"/>
<feComposite in2="hardAlpha" operator="arithmetic" k2="-1" k3="1"/>
<feColorMatrix type="matrix" values="0 0 0 0 0.949782 0 0 0 0 1 0 0 0 0 0.85652 0 0 0 0.77 0"/>
<feBlend mode="normal" in2="shape" result="effect1_innerShadow_3052_29613"/>
<feColorMatrix in="SourceAlpha" type="matrix" values="0 0 0 0 0 0 0 0 0 0 0 0 0 0 0 0 0 0 127 0" result="hardAlpha"/>
<feOffset dx="5.55797" dy="3.70531"/>
<feGaussianBlur stdDeviation="2.50109"/>
<feComposite in2="hardAlpha" operator="arithmetic" k2="-1" k3="1"/>
<feColorMatrix type="matrix" values="0 0 0 0 1 0 0 0 0 0.602539 0 0 0 0 0.403809 0 0 0 0.25 0"/>
<feBlend mode="normal" in2="effect1_innerShadow_3052_29613" result="effect2_innerShadow_3052_29613"/>
<feColorMatrix in="SourceAlpha" type="matrix" values="0 0 0 0 0 0 0 0 0 0 0 0 0 0 0 0 0 0 127 0" result="hardAlpha"/>
<feOffset dx="-0.926328" dy="0.926328"/>
<feGaussianBlur stdDeviation="0.463164"/>
<feComposite in2="hardAlpha" operator="arithmetic" k2="-1" k3="1"/>
<feColorMatrix type="matrix" values="0 0 0 0 0.980056 0 0 0 0 1 0 0 0 0 0.999668 0 0 0 0.7 0"/>
<feBlend mode="normal" in2="effect2_innerShadow_3052_29613" result="effect3_innerShadow_3052_29613"/>
</filter>
<filter id="filter10_i_3052_29613" x="230.019" y="119.02" width="42.8834" height="28.2589" filterUnits="userSpaceOnUse" color-interpolation-filters="sRGB">
<feFlood flood-opacity="0" result="BackgroundImageFix"/>
<feBlend mode="normal" in="SourceGraphic" in2="BackgroundImageFix" result="shape"/>
<feColorMatrix in="SourceAlpha" type="matrix" values="0 0 0 0 0 0 0 0 0 0 0 0 0 0 0 0 0 0 127 0" result="hardAlpha"/>
<feOffset dx="-0.926328" dy="1.85266"/>
<feGaussianBlur stdDeviation="2.31582"/>
<feComposite in2="hardAlpha" operator="arithmetic" k2="-1" k3="1"/>
<feColorMatrix type="matrix" values="0 0 0 0 1 0 0 0 0 0.771221 0 0 0 0 0.942805 0 0 0 0.7 0"/>
<feBlend mode="normal" in2="shape" result="effect1_innerShadow_3052_29613"/>
</filter>
<filter id="filter11_i_3052_29613" x="269.291" y="103.119" width="13.8962" height="12.0435" filterUnits="userSpaceOnUse" color-interpolation-filters="sRGB">
<feFlood flood-opacity="0" result="BackgroundImageFix"/>
<feBlend mode="normal" in="SourceGraphic" in2="BackgroundImageFix" result="shape"/>
<feColorMatrix in="SourceAlpha" type="matrix" values="0 0 0 0 0 0 0 0 0 0 0 0 0 0 0 0 0 0 127 0" result="hardAlpha"/>
<feOffset dx="-2.77898" dy="0.926328"/>
<feGaussianBlur stdDeviation="2.31582"/>
<feComposite in2="hardAlpha" operator="arithmetic" k2="-1" k3="1"/>
<feColorMatrix type="matrix" values="0 0 0 0 1 0 0 0 0 0.772549 0 0 0 0 0.941176 0 0 0 0.4 0"/>
<feBlend mode="normal" in2="shape" result="effect1_innerShadow_3052_29613"/>
</filter>
<filter id="filter12_i_3052_29613" x="14.097" y="91.1797" width="74.6296" height="87.11" filterUnits="userSpaceOnUse" color-interpolation-filters="sRGB">
<feFlood flood-opacity="0" result="BackgroundImageFix"/>
<feBlend mode="normal" in="SourceGraphic" in2="BackgroundImageFix" result="shape"/>
<feColorMatrix in="SourceAlpha" type="matrix" values="0 0 0 0 0 0 0 0 0 0 0 0 0 0 0 0 0 0 127 0" result="hardAlpha"/>
<feOffset dx="-2.23114" dy="2.23114"/>
<feGaussianBlur stdDeviation="2.15676"/>
<feComposite in2="hardAlpha" operator="arithmetic" k2="-1" k3="1"/>
<feColorMatrix type="matrix" values="0 0 0 0 0.67451 0 0 0 0 0.623529 0 0 0 0 0.741176 0 0 0 1 0"/>
<feBlend mode="normal" in2="shape" result="effect1_innerShadow_3052_29613"/>
</filter>
<filter id="filter13_ii_3052_29613" x="4.87692" y="85.2066" width="82.1541" height="88.7173" filterUnits="userSpaceOnUse" color-interpolation-filters="sRGB">
<feFlood flood-opacity="0" result="BackgroundImageFix"/>
<feBlend mode="normal" in="SourceGraphic" in2="BackgroundImageFix" result="shape"/>
<feColorMatrix in="SourceAlpha" type="matrix" values="0 0 0 0 0 0 0 0 0 0 0 0 0 0 0 0 0 0 127 0" result="hardAlpha"/>
<feOffset dx="-1.48742" dy="1.48742"/>
<feGaussianBlur stdDeviation="0.483413"/>
<feComposite in2="hardAlpha" operator="arithmetic" k2="-1" k3="1"/>
<feColorMatrix type="matrix" values="0 0 0 0 0.968029 0 0 0 0 0.899038 0 0 0 0 1 0 0 0 0.6 0"/>
<feBlend mode="normal" in2="shape" result="effect1_innerShadow_3052_29613"/>
<feColorMatrix in="SourceAlpha" type="matrix" values="0 0 0 0 0 0 0 0 0 0 0 0 0 0 0 0 0 0 127 0" result="hardAlpha"/>
<feOffset dx="3.71856" dy="-5.9497"/>
<feGaussianBlur stdDeviation="7.7346"/>
<feComposite in2="hardAlpha" operator="arithmetic" k2="-1" k3="1"/>
<feColorMatrix type="matrix" values="0 0 0 0 0.501961 0 0 0 0 0.494118 0 0 0 0 0.980392 0 0 0 0.5 0"/>
<feBlend mode="normal" in2="effect1_innerShadow_3052_29613" result="effect2_innerShadow_3052_29613"/>
</filter>
<filter id="filter14_i_3052_29613" x="12.6406" y="98.1582" width="61.9679" height="68.2769" filterUnits="userSpaceOnUse" color-interpolation-filters="sRGB">
<feFlood flood-opacity="0" result="BackgroundImageFix"/>
<feBlend mode="normal" in="SourceGraphic" in2="BackgroundImageFix" result="shape"/>
<feColorMatrix in="SourceAlpha" type="matrix" values="0 0 0 0 0 0 0 0 0 0 0 0 0 0 0 0 0 0 127 0" result="hardAlpha"/>
<feOffset dx="1.48742" dy="0.743712"/>
<feGaussianBlur stdDeviation="1.45024"/>
<feComposite in2="hardAlpha" operator="arithmetic" k2="-1" k3="1"/>
<feColorMatrix type="matrix" values="0 0 0 0 0 0 0 0 0 0 0 0 0 0 0 0 0 0 0.18 0"/>
<feBlend mode="normal" in2="shape" result="effect1_innerShadow_3052_29613"/>
</filter>
<filter id="filter15_i_3052_29613" x="22.5306" y="98.3477" width="50.5905" height="68.0796" filterUnits="userSpaceOnUse" color-interpolation-filters="sRGB">
<feFlood flood-opacity="0" result="BackgroundImageFix"/>
<feBlend mode="normal" in="SourceGraphic" in2="BackgroundImageFix" result="shape"/>
<feColorMatrix in="SourceAlpha" type="matrix" values="0 0 0 0 0 0 0 0 0 0 0 0 0 0 0 0 0 0 127 0" result="hardAlpha"/>
<feOffset dx="-2.23114" dy="0.743712"/>
<feGaussianBlur stdDeviation="1.45024"/>
<feComposite in2="hardAlpha" operator="arithmetic" k2="-1" k3="1"/>
<feColorMatrix type="matrix" values="0 0 0 0 0.288462 0 0 0 0 0.0624075 0 0 0 0 0.0624075 0 0 0 0.18 0"/>
<feBlend mode="normal" in2="shape" result="effect1_innerShadow_3052_29613"/>
</filter>
<linearGradient id="paint0_linear_3052_29613" x1="265.586" y1="75.793" x2="61.7086" y2="162.309" gradientUnits="userSpaceOnUse">
<stop stop-color="#FFB2FF" stop-opacity="0.2"/>
<stop offset="1" stop-color="white" stop-opacity="0"/>
</linearGradient>
<linearGradient id="paint1_linear_3052_29613" x1="43.1234" y1="35.4242" x2="125.528" y2="213.063" gradientUnits="userSpaceOnUse">
<stop stop-color="#802A71"/>
<stop offset="0.586538" stop-color="#CEA184"/>
<stop offset="1" stop-color="#A3547F"/>
</linearGradient>
<linearGradient id="paint2_linear_3052_29613" x1="68.4709" y1="52.7313" x2="121.345" y2="124.918" gradientUnits="userSpaceOnUse">
<stop stop-color="#FFD9FF"/>
<stop offset="0.440397" stop-color="#FCD7FD" stop-opacity="0"/>
</linearGradient>
<linearGradient id="paint3_linear_3052_29613" x1="56.2874" y1="97.9933" x2="56.2961" y2="108.72" gradientUnits="userSpaceOnUse">
<stop stop-color="#FFD9FF"/>
<stop offset="1" stop-color="#FCD7FD" stop-opacity="0"/>
</linearGradient>
<linearGradient id="paint4_linear_3052_29613" x1="66.4781" y1="164.436" x2="56.3703" y2="94.3356" gradientUnits="userSpaceOnUse">
<stop stop-color="#7477F6"/>
<stop offset="1" stop-color="#7C71D9"/>
</linearGradient>
<linearGradient id="paint5_linear_3052_29613" x1="83.4384" y1="125.289" x2="6.2408" y2="139.564" gradientUnits="userSpaceOnUse">
<stop stop-color="#C6ABFE"/>
<stop offset="1" stop-color="#948EF8"/>
</linearGradient>
<linearGradient id="paint6_linear_3052_29613" x1="24.0938" y1="100.222" x2="40.6994" y2="162.757" gradientUnits="userSpaceOnUse">
<stop stop-color="#E9A6DD"/>
<stop offset="1" stop-color="#FCDDE3"/>
</linearGradient>
<linearGradient id="paint7_linear_3052_29613" x1="63.6957" y1="96.2386" x2="30.2944" y2="184.237" gradientUnits="userSpaceOnUse">
<stop stop-color="#E098CF"/>
<stop offset="1" stop-color="#F8D1E2"/>
</linearGradient>
<linearGradient id="paint8_linear_3052_29613" x1="169.062" y1="110.799" x2="196.978" y2="89.1265" gradientUnits="userSpaceOnUse">
<stop stop-color="#D474C6"/>
<stop offset="1" stop-color="#D474C6"/>
</linearGradient>
<clipPath id="clip0_3052_29613">
<rect width="298.999" height="220" fill="white" transform="translate(0 0.824219)"/>
</clipPath>
</defs>
</svg>
