<svg width="299" height="273" viewBox="0 0 299 273" fill="none" xmlns="http://www.w3.org/2000/svg">
<g clip-path="url(#clip0_3004_29239)">
<g filter="url(#filter0_d_3004_29239)">
<path d="M106.585 116.828L217.478 175.556L217.861 175.759L217.656 176.14L201.859 205.296L201.835 205.344L201.797 205.383L201.582 205.185L201.797 205.383L201.795 205.385C201.794 205.386 201.792 205.389 201.789 205.392C201.784 205.398 201.776 205.407 201.766 205.418C201.745 205.44 201.714 205.473 201.674 205.516C201.593 205.601 201.473 205.725 201.319 205.884C201.236 205.969 201.141 206.062 201.039 206.166L169.228 263.635C167.506 266.745 163.493 268.063 160.263 266.577C157.034 265.091 155.811 261.364 157.533 258.254L179.05 219.382C179.064 219.33 179.081 219.277 179.099 219.223C179.178 218.994 179.312 218.705 179.503 218.347C179.792 217.807 179.741 217.175 179.404 216.547C179.064 215.915 178.45 215.325 177.703 214.942C176.958 214.56 176.114 214.399 175.32 214.573C174.692 214.711 174.065 215.066 173.521 215.739L160.249 240.519C157.563 245.533 151.17 247.727 145.972 245.418C140.773 243.109 138.737 237.172 141.423 232.158L154.502 207.74L154.442 207.711L154.672 207.312C157.41 202.57 158.033 198.45 157.345 195.198C156.656 191.948 154.65 189.52 152.037 188.155C146.818 185.429 139.093 186.925 134.644 194.904L134.438 195.275L134.423 195.267L124.629 213.183C122.469 217.134 117.393 218.828 113.293 216.967C109.193 215.105 107.621 210.393 109.781 206.442L120.63 186.596C121.081 184.654 119.766 182.786 117.841 181.763C116.795 181.207 115.625 180.941 114.58 181.066C113.645 181.178 112.807 181.603 112.211 182.433L87.8527 226.437C85.0978 231.414 78.6743 233.52 73.5071 231.142C68.3406 228.764 66.3853 222.802 69.1397 217.826L92.5169 175.593L92.4364 175.563L92.6301 175.146C93.0595 174.225 93.2371 173.43 93.2431 172.825C93.2492 172.204 93.0778 171.857 92.9097 171.717C92.7813 171.61 92.5506 171.542 92.1463 171.78C91.7867 171.992 91.3445 172.424 90.8714 173.157L72.3212 204.78C70.4394 207.987 66.2172 209.264 62.8914 207.632C59.566 205.999 58.3964 202.075 60.2777 198.868L78.4999 167.804L78.4584 167.783L78.6683 167.396L106.008 117.001L106.21 116.628L106.585 116.828Z" fill="url(#paint0_linear_3004_29239)"/>
</g>
<g filter="url(#filter1_ii_3004_29239)">
<path d="M183.114 26.2976C184.356 24.6583 186.702 24.4205 188.279 25.7408C202.458 37.6162 206.269 48.3012 206.361 54.8674C206.395 57.3371 203.683 58.2388 201.465 57.1516C198.486 55.6909 195.769 54.9777 193.554 54.6955C194.463 58.1113 195.978 65.6647 196.43 73.9482C248.389 87.2622 244.205 115.414 238.764 133.83L244.87 136.74C247.866 138.167 248.27 142.268 245.609 144.252L234.516 152.524C234.217 152.747 233.903 152.921 233.582 153.057C232.184 160.253 231.163 167.987 230.478 174.573C229.765 181.421 223.55 186.285 217.315 183.366C212.597 181.156 207.59 181.245 203.109 183.903L199.409 186.098C194.672 188.908 188.979 189.62 183.695 188.067L131.276 172.653C126.197 171.159 121.926 167.696 119.413 163.036L118.529 161.395C115.378 155.549 109.408 151.954 103.074 149.956C92.021 146.47 84.7913 139.637 87.6185 133.868C90.6761 127.63 96.1404 119.935 101.045 112.169L96.5864 105.37C94.7667 102.595 96.5513 98.8794 99.8552 98.5653L108.675 97.7257C122.249 53.3704 159.857 57.9312 183.314 68.406C183.739 63.9186 184.028 58.9042 183.888 54.4062C181.013 54.3859 178.399 54.762 176.159 55.3152C173.057 56.0813 169.448 53.6619 170.322 50.5879C172.968 41.2806 178.817 31.9727 183.114 26.2976Z" fill="#AEC336"/>
</g>
<g filter="url(#filter2_n_3004_29239)">
<ellipse cx="171.266" cy="103.279" rx="112.31" ry="100.146" transform="rotate(18.066 171.266 103.279)" fill="url(#paint1_linear_3004_29239)" fill-opacity="0.9"/>
<path d="M202.054 8.89452C260.659 28.0113 294.19 85.7978 277.215 137.838C260.24 189.879 199.084 216.78 140.478 197.663C81.8729 178.547 48.3415 120.759 65.3169 68.7185C82.2924 16.6779 143.448 -10.2222 202.054 8.89452Z" stroke="url(#paint2_linear_3004_29239)" stroke-width="1.73384"/>
</g>
<g filter="url(#filter3_ii_3004_29239)">
<path d="M110.22 199.445L108.706 186.984C108.35 184.059 110.681 181.499 113.619 181.715C141.924 183.789 170.91 194.972 184.919 201.715C187.437 202.927 188.236 206.053 186.732 208.409L180.602 218.01C179.413 219.871 177.109 220.683 175.01 219.997C146.327 210.622 124.197 205.835 113.885 203.522C111.918 203.081 110.463 201.447 110.22 199.445Z" fill="#545B09"/>
</g>
<circle cx="148.782" cy="199.063" r="3.37089" transform="rotate(27.1175 148.782 199.063)" fill="#DBDFAB"/>
<circle cx="127.729" cy="193.686" r="3.37089" transform="rotate(27.1175 127.729 193.686)" fill="#DBDFAB"/>
<circle cx="168.962" cy="206.147" r="3.37089" transform="rotate(27.1175 168.962 206.147)" fill="#DBDFAB"/>
<g filter="url(#filter4_g_3004_29239)">
<ellipse cx="155.147" cy="113.322" rx="16.6298" ry="14.7101" transform="rotate(19.3593 155.147 113.322)" fill="white"/>
</g>
<g filter="url(#filter5_g_3004_29239)">
<ellipse cx="156.022" cy="113.443" rx="11.2711" ry="10.29" transform="rotate(19.3593 156.022 113.443)" fill="black"/>
</g>
<g filter="url(#filter6_g_3004_29239)">
<ellipse cx="198.057" cy="130.137" rx="15.0151" ry="14.7101" transform="rotate(19.3593 198.057 130.137)" fill="white"/>
</g>
<ellipse cx="173.433" cy="131.22" rx="4.81623" ry="3.85298" transform="rotate(23.129 173.433 131.22)" fill="#FF581D"/>
<path d="M168.419 137.791L167.404 137.646C166.636 137.537 166.01 136.975 165.818 136.223C165.372 134.475 162.978 134.255 162.221 135.892L161.938 136.504C161.74 136.932 161.678 137.416 161.815 137.867C162.315 139.522 163.43 141.281 166.324 141.123C167.798 141.043 168.859 140.456 169.534 139.808C170.432 138.946 169.652 137.967 168.419 137.791Z" fill="#852A0A" stroke="#852A0A" stroke-width="1.54119"/>
<g filter="url(#filter7_g_3004_29239)">
<ellipse cx="198.308" cy="129.816" rx="11.0795" ry="10.4303" transform="rotate(19.3593 198.308 129.816)" fill="black"/>
</g>
<path opacity="0.8" d="M143.524 34.6484L113.871 51.2459C107.417 54.8586 97.4882 57.428 94.6383 50.6024C92.8804 46.392 95.4257 41.4399 97.8335 38.5929C102.404 33.6644 116.305 23.1013 135.349 20.2771C146.821 18.5758 150.826 21.1354 151.51 24.4918C152.441 29.058 147.591 32.3724 143.524 34.6484Z" fill="url(#paint3_linear_3004_29239)"/>
<path opacity="0.89" d="M86.4361 56.2269C97.4768 54.9548 91.4972 67.4764 87.1273 73.8962C84.1665 77.1417 80.7495 72.6141 79.4111 69.9447C77.1525 65.9021 75.3955 57.499 86.4361 56.2269Z" fill="url(#paint4_linear_3004_29239)"/>
<path d="M149.525 90.1807C152.388 94.7291 170.182 110.512 179.188 109.822" stroke="#B0C648" stroke-width="9.10714"/>
<g filter="url(#filter8_ii_3004_29239)">
<path d="M95.4204 136.91C84.5441 164.278 60.2583 159.84 48.072 153.572C46.5633 152.796 45.9098 151.035 46.3916 149.409L62.7094 94.3053C63.2544 92.4649 65.0955 91.3156 66.9587 91.7763C82.8463 95.7041 106.49 109.056 95.4204 136.91Z" fill="#F8CB2B"/>
</g>
<ellipse cx="60.1689" cy="123.142" rx="28.0203" ry="32.4079" transform="rotate(22.9481 60.1689 123.142)" fill="url(#paint5_linear_3004_29239)"/>
<ellipse cx="60.0778" cy="123.112" rx="24.2341" ry="28.0174" transform="rotate(22.9481 60.0778 123.112)" fill="#EBFBFF"/>
<path d="M67.3272 104.989L58.6191 123.301" stroke="#192653" stroke-width="3.76836" stroke-linecap="round"/>
<path d="M53.6035 134.415L59.2885 122.645" stroke="#192653" stroke-width="3.76836" stroke-linecap="round"/>
<ellipse cx="59.2043" cy="122.374" rx="4.52203" ry="4.89887" transform="rotate(21.2356 59.2043 122.374)" fill="#192653"/>
<rect x="69.8516" y="98.21" width="2.26102" height="3.30804" rx="1.13051" transform="rotate(24.9649 69.8516 98.21)" fill="#192653"/>
<rect x="48.748" y="142.668" width="2.26102" height="3.30804" rx="1.13051" transform="rotate(24.9649 48.748 142.668)" fill="#192653"/>
<rect x="78.4922" y="131.691" width="2.26102" height="3.30804" rx="1.13051" transform="rotate(123.314 78.4922 131.691)" fill="#192653"/>
<rect x="43.8223" y="113.589" width="2.26102" height="3.30804" rx="1.13051" transform="rotate(123.314 43.8223 113.589)" fill="#192653"/>
</g>
<defs>
<filter id="filter0_d_3004_29239" x="46.5474" y="109.907" width="176.813" height="168.891" filterUnits="userSpaceOnUse" color-interpolation-filters="sRGB">
<feFlood flood-opacity="0" result="BackgroundImageFix"/>
<feColorMatrix in="SourceAlpha" type="matrix" values="0 0 0 0 0 0 0 0 0 0 0 0 0 0 0 0 0 0 127 0" result="hardAlpha"/>
<feOffset dx="-3.66613" dy="2.44409"/>
<feGaussianBlur stdDeviation="4.58266"/>
<feComposite in2="hardAlpha" operator="out"/>
<feColorMatrix type="matrix" values="0 0 0 0 1 0 0 0 0 1 0 0 0 0 1 0 0 0 0.4 0"/>
<feBlend mode="normal" in2="BackgroundImageFix" result="effect1_dropShadow_3004_29239"/>
<feBlend mode="normal" in="SourceGraphic" in2="effect1_dropShadow_3004_29239" result="shape"/>
</filter>
<filter id="filter1_ii_3004_29239" x="78.3347" y="24.8896" width="169.048" height="165.909" filterUnits="userSpaceOnUse" color-interpolation-filters="sRGB">
<feFlood flood-opacity="0" result="BackgroundImageFix"/>
<feBlend mode="normal" in="SourceGraphic" in2="BackgroundImageFix" result="shape"/>
<feColorMatrix in="SourceAlpha" type="matrix" values="0 0 0 0 0 0 0 0 0 0 0 0 0 0 0 0 0 0 127 0" result="hardAlpha"/>
<feOffset dx="-8.66921" dy="1.92649"/>
<feGaussianBlur stdDeviation="7.17618"/>
<feComposite in2="hardAlpha" operator="arithmetic" k2="-1" k3="1"/>
<feColorMatrix type="matrix" values="0 0 0 0 1 0 0 0 0 0.979808 0 0 0 0 0.913462 0 0 0 0.8 0"/>
<feBlend mode="normal" in2="shape" result="effect1_innerShadow_3004_29239"/>
<feColorMatrix in="SourceAlpha" type="matrix" values="0 0 0 0 0 0 0 0 0 0 0 0 0 0 0 0 0 0 127 0" result="hardAlpha"/>
<feOffset dx="-0.963245" dy="0.963245"/>
<feGaussianBlur stdDeviation="0.481623"/>
<feComposite in2="hardAlpha" operator="arithmetic" k2="-1" k3="1"/>
<feColorMatrix type="matrix" values="0 0 0 0 0.871206 0 0 0 0 1 0 0 0 0 0.997853 0 0 0 0.5 0"/>
<feBlend mode="normal" in2="effect1_innerShadow_3004_29239" result="effect2_innerShadow_3004_29239"/>
</filter>
<filter id="filter2_n_3004_29239" x="60.0391" y="1.87207" width="222.453" height="202.813" filterUnits="userSpaceOnUse" color-interpolation-filters="sRGB">
<feFlood flood-opacity="0" result="BackgroundImageFix"/>
<feBlend mode="normal" in="SourceGraphic" in2="BackgroundImageFix" result="shape"/>
<feTurbulence type="fractalNoise" baseFrequency="0.10814137756824493 0.10814137756824493" stitchTiles="stitch" numOctaves="3" result="noise" seed="1999" />
<feColorMatrix in="noise" type="luminanceToAlpha" result="alphaNoise" />
<feComponentTransfer in="alphaNoise" result="coloredNoise1">
<feFuncA type="discrete" tableValues="1 1 1 1 1 1 1 1 1 1 1 1 1 1 1 1 1 1 1 1 1 1 1 1 1 1 1 1 1 1 1 1 1 1 1 1 1 1 1 1 1 1 1 1 1 1 1 1 1 1 1 0 0 0 0 0 0 0 0 0 0 0 0 0 0 0 0 0 0 0 0 0 0 0 0 0 0 0 0 0 0 0 0 0 0 0 0 0 0 0 0 0 0 0 0 0 0 0 0 0 "/>
</feComponentTransfer>
<feComposite operator="in" in2="shape" in="coloredNoise1" result="noise1Clipped" />
<feFlood flood-color="rgba(0, 0, 0, 0.08)" result="color1Flood" />
<feComposite operator="in" in2="noise1Clipped" in="color1Flood" result="color1" />
<feMerge result="effect1_noise_3004_29239">
<feMergeNode in="shape" />
<feMergeNode in="color1" />
</feMerge>
</filter>
<filter id="filter3_ii_3004_29239" x="98.4595" y="181.702" width="89.0307" height="40.4626" filterUnits="userSpaceOnUse" color-interpolation-filters="sRGB">
<feFlood flood-opacity="0" result="BackgroundImageFix"/>
<feBlend mode="normal" in="SourceGraphic" in2="BackgroundImageFix" result="shape"/>
<feColorMatrix in="SourceAlpha" type="matrix" values="0 0 0 0 0 0 0 0 0 0 0 0 0 0 0 0 0 0 127 0" result="hardAlpha"/>
<feOffset dx="-10.5957" dy="1.92649"/>
<feGaussianBlur stdDeviation="5.1052"/>
<feComposite in2="hardAlpha" operator="arithmetic" k2="-1" k3="1"/>
<feColorMatrix type="matrix" values="0 0 0 0 0.869328 0 0 0 0 0.719989 0 0 0 0 1 0 0 0 0.2 0"/>
<feBlend mode="normal" in2="shape" result="effect1_innerShadow_3004_29239"/>
<feColorMatrix in="SourceAlpha" type="matrix" values="0 0 0 0 0 0 0 0 0 0 0 0 0 0 0 0 0 0 127 0" result="hardAlpha"/>
<feOffset dx="-0.963245"/>
<feGaussianBlur stdDeviation="0.481623"/>
<feComposite in2="hardAlpha" operator="arithmetic" k2="-1" k3="1"/>
<feColorMatrix type="matrix" values="0 0 0 0 0.858824 0 0 0 0 0.976471 0 0 0 0 0.984314 0 0 0 0.2 0"/>
<feBlend mode="normal" in2="effect1_innerShadow_3004_29239" result="effect2_innerShadow_3004_29239"/>
</filter>
<filter id="filter4_g_3004_29239" x="138.231" y="97.9031" width="33.8324" height="30.8373" filterUnits="userSpaceOnUse" color-interpolation-filters="sRGB">
<feFlood flood-opacity="0" result="BackgroundImageFix"/>
<feBlend mode="normal" in="SourceGraphic" in2="BackgroundImageFix" result="shape"/>
<feTurbulence type="fractalNoise" baseFrequency="1.1535080671310425 1.1535080671310425" numOctaves="3" seed="3511" />
<feDisplacementMap in="shape" scale="0.96324509382247925" xChannelSelector="R" yChannelSelector="G" result="displacedImage" width="100%" height="100%" />
<feMerge result="effect1_texture_3004_29239">
<feMergeNode in="displacedImage"/>
</feMerge>
</filter>
<filter id="filter5_g_3004_29239" x="144.535" y="102.722" width="22.9725" height="21.4432" filterUnits="userSpaceOnUse" color-interpolation-filters="sRGB">
<feFlood flood-opacity="0" result="BackgroundImageFix"/>
<feBlend mode="normal" in="SourceGraphic" in2="BackgroundImageFix" result="shape"/>
<feTurbulence type="fractalNoise" baseFrequency="1.7563073635101318 1.7563073635101318" numOctaves="3" seed="3511" />
<feDisplacementMap in="shape" scale="0.63264042139053345" xChannelSelector="R" yChannelSelector="G" result="displacedImage" width="100%" height="100%" />
<feMerge result="effect1_texture_3004_29239">
<feMergeNode in="displacedImage"/>
</feMerge>
</filter>
<filter id="filter6_g_3004_29239" x="182.591" y="114.907" width="30.9339" height="30.4593" filterUnits="userSpaceOnUse" color-interpolation-filters="sRGB">
<feFlood flood-opacity="0" result="BackgroundImageFix"/>
<feBlend mode="normal" in="SourceGraphic" in2="BackgroundImageFix" result="shape"/>
<feTurbulence type="fractalNoise" baseFrequency="1.1535080671310425 1.1535080671310425" numOctaves="3" seed="3511" />
<feDisplacementMap in="shape" scale="0.96324509382247925" xChannelSelector="R" yChannelSelector="G" result="displacedImage" width="100%" height="100%" />
<feMerge result="effect1_texture_3004_29239">
<feMergeNode in="displacedImage"/>
</feMerge>
</filter>
<filter id="filter7_g_3004_29239" x="186.979" y="118.993" width="22.658" height="21.6453" filterUnits="userSpaceOnUse" color-interpolation-filters="sRGB">
<feFlood flood-opacity="0" result="BackgroundImageFix"/>
<feBlend mode="normal" in="SourceGraphic" in2="BackgroundImageFix" result="shape"/>
<feTurbulence type="fractalNoise" baseFrequency="1.7563073635101318 1.7563073635101318" numOctaves="3" seed="3511" />
<feDisplacementMap in="shape" scale="0.63264042139053345" xChannelSelector="R" yChannelSelector="G" result="displacedImage" width="100%" height="100%" />
<feMerge result="effect1_texture_3004_29239">
<feMergeNode in="displacedImage"/>
</feMerge>
</filter>
<filter id="filter8_ii_3004_29239" x="31.4776" y="91.6748" width="66.7939" height="69.6368" filterUnits="userSpaceOnUse" color-interpolation-filters="sRGB">
<feFlood flood-opacity="0" result="BackgroundImageFix"/>
<feBlend mode="normal" in="SourceGraphic" in2="BackgroundImageFix" result="shape"/>
<feColorMatrix in="SourceAlpha" type="matrix" values="0 0 0 0 0 0 0 0 0 0 0 0 0 0 0 0 0 0 127 0" result="hardAlpha"/>
<feOffset dx="-1.50734" dy="3.01469"/>
<feGaussianBlur stdDeviation="5.8878"/>
<feComposite in2="hardAlpha" operator="arithmetic" k2="-1" k3="1"/>
<feColorMatrix type="matrix" values="0 0 0 0 0.820068 0 0 0 0 1 0 0 0 0 0.754639 0 0 0 0.6 0"/>
<feBlend mode="normal" in2="shape" result="effect1_innerShadow_3004_29239"/>
<feColorMatrix in="SourceAlpha" type="matrix" values="0 0 0 0 0 0 0 0 0 0 0 0 0 0 0 0 0 0 127 0" result="hardAlpha"/>
<feOffset dx="-14.7588"/>
<feGaussianBlur stdDeviation="9.79446"/>
<feComposite in2="hardAlpha" operator="arithmetic" k2="-1" k3="1"/>
<feColorMatrix type="matrix" values="0 0 0 0 1 0 0 0 0 0.339205 0 0 0 0 0.339205 0 0 0 0.3 0"/>
<feBlend mode="normal" in2="effect1_innerShadow_3004_29239" result="effect2_innerShadow_3004_29239"/>
</filter>
<linearGradient id="paint0_linear_3004_29239" x1="176.753" y1="141.17" x2="118.678" y2="270.82" gradientUnits="userSpaceOnUse">
<stop offset="0.158654" stop-color="#121938"/>
<stop offset="0.621738" stop-color="#B3C954"/>
<stop offset="0.938356" stop-color="#FFEF9D"/>
</linearGradient>
<linearGradient id="paint1_linear_3004_29239" x1="282.152" y1="74.5973" x2="80.7762" y2="160.052" gradientUnits="userSpaceOnUse">
<stop stop-color="#B2E5FF" stop-opacity="0.2"/>
<stop offset="1" stop-color="white" stop-opacity="0"/>
</linearGradient>
<linearGradient id="paint2_linear_3004_29239" x1="105.633" y1="-7.35445" x2="98.1017" y2="185.919" gradientUnits="userSpaceOnUse">
<stop stop-color="#718C3E"/>
<stop offset="0.586538" stop-color="#CECE84"/>
<stop offset="1" stop-color="#718C3E"/>
</linearGradient>
<linearGradient id="paint3_linear_3004_29239" x1="119.866" y1="20.9405" x2="133.85" y2="108.21" gradientUnits="userSpaceOnUse">
<stop stop-color="#EEFFD9"/>
<stop offset="0.440397" stop-color="#EEFFD9" stop-opacity="0"/>
</linearGradient>
<linearGradient id="paint4_linear_3004_29239" x1="81.7831" y1="54.1113" x2="97.9141" y2="67.0186" gradientUnits="userSpaceOnUse">
<stop stop-color="#EEFFD9"/>
<stop offset="1" stop-color="#EEFFD9" stop-opacity="0"/>
</linearGradient>
<linearGradient id="paint5_linear_3004_29239" x1="89.077" y1="114.1" x2="-34.3787" y2="127.783" gradientUnits="userSpaceOnUse">
<stop stop-color="#F6EF6B"/>
<stop offset="1" stop-color="#CACACA"/>
</linearGradient>
<clipPath id="clip0_3004_29239">
<rect width="299" height="272" fill="white" transform="translate(0 0.824219)"/>
</clipPath>
</defs>
</svg>
