<svg width="299" height="221" viewBox="0 0 299 221" fill="none" xmlns="http://www.w3.org/2000/svg">
<g clip-path="url(#clip0_3034_18582)">
<g filter="url(#filter0_ii_3034_18582)">
<path d="M117.652 28.2344C118.015 26.1839 120.019 24.8875 122.049 25.3496C140.307 29.5074 148.672 37.3775 151.785 43.252C152.955 45.4613 150.928 47.5243 148.428 47.5684C145.074 47.6268 142.301 48.2369 140.176 49.0029C142.084 51.1229 145.542 55.4204 149.005 60.7393C161.484 61.8331 176.253 69.0259 183.599 73.3613C184.504 73.8953 185.658 73.7511 186.405 73.0127C197.67 61.8828 207.922 58.0363 212.626 57.334C213.278 57.2368 213.927 57.493 214.326 58.0176C219.579 64.9201 219.758 82.3861 218.829 95.0625C218.663 97.3311 222.382 99.1962 224.473 98.3008C228.149 96.7264 231.944 96.5571 234.317 96.8271C234.791 96.8811 235.231 97.1086 235.521 97.4873C241.67 105.534 230.729 128.666 221.892 143.69C221.255 144.773 221.771 146.123 222.691 147.279L224.26 147.18C228.998 146.878 230.866 153.204 226.725 155.525L203.129 168.752C200.938 169.98 198.244 169.144 197.067 167.068C177.823 170.062 142.68 176.862 125.878 180.393C125.771 180.415 125.664 180.429 125.555 180.436C123.905 180.533 122.325 180.598 120.811 180.637L120.77 180.962C120.407 183.814 117.483 185.585 114.788 184.583L88.8984 174.959C84.4759 173.315 85.2992 166.826 89.9922 166.338L91.6768 166.162C92.7207 164.936 92.803 162.836 91.4219 161.877C73.1545 149.202 66.7735 132.423 65.667 123.749C65.5461 122.801 66.1094 121.91 67.0195 121.619C70.9872 120.35 75.0232 120.349 78.2656 120.796C80.2706 121.072 82.2526 118.843 81.5098 116.96C74.4796 99.1554 74.7779 84.656 76.1709 77.9092C76.3854 76.8712 77.3637 76.2108 78.4141 76.3535C90.0807 77.9389 104.388 84.7864 112.157 89.1758C113.425 89.8915 115.049 89.2675 115.62 87.9287C119.577 78.6472 129.026 69.4351 136.475 64.124C134.954 60.4445 133.197 56.5848 131.33 53.2021C128.726 54.5118 126.541 56.059 124.776 57.5928C122.334 59.7149 117.967 59.1992 117.335 56.0264C115.425 46.4182 116.399 35.3315 117.652 28.2344Z" fill="#F57979"/>
</g>
<g filter="url(#filter1_n_3034_18582)">
<ellipse cx="143.025" cy="104.717" rx="113.705" ry="101.389" transform="rotate(-9.05149 143.025 104.717)" fill="url(#paint0_linear_3034_18582)" fill-opacity="0.9"/>
<path d="M127.212 5.45721C188.845 -4.36103 245.728 32.2384 254.446 86.9673C263.165 141.696 220.47 194.158 158.838 203.976C97.2051 213.795 40.3218 177.196 31.603 122.467C22.8843 67.7385 65.5797 15.2757 127.212 5.45721Z" stroke="url(#paint1_linear_3034_18582)" stroke-width="1.75537"/>
</g>
<g filter="url(#filter2_ii_3034_18582)">
<path d="M131.858 217.932L124.743 207.402C123.073 204.93 123.992 201.548 126.739 200.386C153.202 189.193 184.483 185.894 200.218 185.505C203.047 185.436 205.21 187.884 204.942 190.701L203.848 202.182C203.636 204.407 201.934 206.202 199.726 206.552C169.553 211.342 147.402 217.24 137.042 219.914C135.066 220.425 133.001 219.624 131.858 217.932Z" fill="#8C3E3E"/>
</g>
<circle cx="166.431" cy="199.775" r="3.41322" fill="#CFD7F7"/>
<circle cx="144.974" cy="204.655" r="3.41322" fill="#CFD7F7"/>
<circle cx="187.884" cy="196.86" r="3.41322" fill="#CFD7F7"/>
<g filter="url(#filter3_g_3034_18582)">
<ellipse cx="137.062" cy="122.575" rx="16.8363" ry="14.8927" transform="rotate(-7.75815 137.062 122.575)" fill="white"/>
</g>
<g filter="url(#filter4_g_3034_18582)">
<ellipse cx="137.902" cy="122.27" rx="11.411" ry="10.4177" transform="rotate(-7.75815 137.902 122.27)" fill="black"/>
</g>
<g filter="url(#filter5_g_3034_18582)">
<ellipse cx="183.485" cy="117.915" rx="15.2015" ry="14.8927" transform="rotate(-7.75815 183.485 117.915)" fill="white"/>
</g>
<ellipse cx="161.798" cy="130.246" rx="4.87603" ry="3.90082" transform="rotate(-3.98844 161.798 130.246)" fill="#FF581D"/>
<path d="M155.686 136.248L156.331 137.152C157.397 138.643 159.31 139.266 161.049 138.686V138.686" stroke="#852A0A" stroke-width="1.56033" stroke-linecap="round"/>
<g filter="url(#filter6_g_3034_18582)">
<ellipse cx="183.565" cy="117.509" rx="11.217" ry="10.5598" transform="rotate(-7.75815 183.565 117.509)" fill="black"/>
</g>
<path opacity="0.8" d="M85.8171 54.0508L66.7552 82.6914C62.6062 88.9255 54.8449 95.8227 49.127 90.9871C45.5998 88.0043 45.6082 82.3672 46.4641 78.6905C48.308 72.1403 55.9603 56.2065 71.818 44.8731C81.3702 38.0462 86.1609 38.5043 88.3261 41.2132C91.2718 44.8986 88.431 50.1233 85.8171 54.0508Z" fill="url(#paint2_linear_3034_18582)"/>
<path opacity="0.89" d="M44.3333 99.8483C53.6953 93.607 54.0853 107.65 53.1101 115.452C51.9398 119.742 46.7713 117.239 44.3333 115.452C40.4325 112.851 34.9713 106.09 44.3333 99.8483Z" fill="url(#paint3_linear_3034_18582)"/>
<g filter="url(#filter7_ii_3034_18582)">
<path d="M269.421 112.303L260.499 113.903L260.495 119.278L267.553 118.12C268.508 117.963 269.402 118.631 269.523 119.592L270.724 129.148C271.164 132.648 268.267 135.665 264.751 135.368L259.987 134.965L261.611 144.722L265.415 143.835C272.34 142.22 276.975 135.695 276.22 128.625L274.918 116.426C274.629 113.717 272.103 111.823 269.421 112.303Z" fill="#FFD662"/>
</g>
<g filter="url(#filter8_iiii_3034_18582)">
<path d="M208.073 127.285L216.881 125.146L219.055 130.061L212.131 131.852C211.194 132.094 210.645 133.067 210.923 133.994L213.683 143.221C214.695 146.601 218.563 148.191 221.66 146.499L225.854 144.207L228.309 153.789L224.471 154.514C217.484 155.833 210.609 151.736 208.444 144.962L204.709 133.277C203.879 130.682 205.425 127.928 208.073 127.285Z" fill="#FFD662"/>
</g>
<g filter="url(#filter9_iii_3034_18582)">
<path d="M245.688 150.87L247.314 150.258L247.364 150.821L252.761 150.666C252.226 154.405 252.287 161.788 255.951 165.239C257.087 166.308 258.79 165.929 260.339 165.744C262.344 165.504 264.432 166.618 264.304 171.7L249.547 174.989L249.534 174.918L249.539 174.98L236.339 177.704C234.091 173.144 235.52 171.257 237.44 170.634C238.923 170.153 240.629 169.782 241.211 168.335C243.091 163.665 240.049 156.936 237.995 153.766L245.143 151.075L245.108 150.886L245.688 150.87Z" fill="#FFD150"/>
</g>
<g filter="url(#filter10_iii_3034_18582)">
<path d="M260.372 110.269C241.4 104.37 222.486 114.726 214.777 121.123C214.429 121.412 214.261 121.845 214.321 122.293C216.354 137.336 226.333 164.851 246.48 160.995C271.381 156.229 265.91 127.418 261.249 111.164C261.126 110.735 260.798 110.401 260.372 110.269Z" fill="#FFD150"/>
</g>
<mask id="mask0_3034_18582" style="mask-type:alpha" maskUnits="userSpaceOnUse" x="214" y="108" width="51" height="51">
<path d="M260.364 110.266C241.392 104.367 222.479 114.724 214.769 121.121C214.422 121.409 214.254 121.844 214.313 122.292C216.312 137.261 225.152 162.373 244.048 157.77C270.293 154.036 265.874 127.359 261.242 111.163C261.119 110.734 260.79 110.398 260.364 110.266Z" fill="#FFD662"/>
</mask>
<g mask="url(#mask0_3034_18582)">
<g filter="url(#filter11_f_3034_18582)">
<rect x="218.646" y="111.691" width="9.40655" height="28.6271" rx="4.70327" transform="rotate(-13.9097 218.646 111.691)" fill="#FFE4E4"/>
</g>
</g>
<g filter="url(#filter12_ii_3034_18582)">
<path d="M234.118 181.696C233.52 179.902 234.611 177.985 236.459 177.583L263.574 171.684C265.479 171.269 267.305 172.65 267.425 174.595L267.729 179.508C267.826 181.081 266.756 182.488 265.215 182.816L239.3 188.318C237.717 188.654 236.134 187.748 235.622 186.212L234.118 181.696Z" fill="#FFCA4B"/>
</g>
<g filter="url(#filter13_i_3034_18582)">
<path d="M15.0498 173.535L61.4664 170.217C61.8125 170.192 62.1577 170.224 62.4931 170.313C67.3594 171.599 105.84 181.803 106.581 182.923C107.136 183.762 106.912 189.371 106.729 192.64C106.65 194.038 105.641 195.197 104.273 195.493L57.4419 205.635C56.6922 205.797 55.9091 205.681 55.2389 205.308L16.6699 183.828C15.6698 183.271 15.0499 182.216 15.0499 181.071L15.0498 173.535Z" fill="#EAE0D5"/>
</g>
<path d="M15.0469 173.537L62.8218 168.87C63.2038 168.832 63.5895 168.865 63.9598 168.966L104.621 180.07C107.757 180.927 107.705 185.393 104.549 186.176L62.4164 196.63C61.6826 196.812 60.9077 196.725 60.2329 196.384L15.0469 173.537Z" fill="url(#paint4_linear_3034_18582)"/>
<path d="M57.8123 202.316L57.8123 195.13C57.8123 194.858 58.0029 194.623 58.2694 194.566L106.914 184.274L106.914 192.852C106.914 193.128 106.719 193.365 106.449 193.418L58.5004 202.882C58.1441 202.952 57.8123 202.679 57.8123 202.316Z" fill="white"/>
<g filter="url(#filter14_d_3034_18582)">
<path d="M122.439 169.707L88.5993 153.583C88.044 153.319 87.4036 153.243 86.6792 153.376C78.6883 154.85 28.6499 164.085 26.9833 164.592C25.7191 164.976 25.3229 168.29 25.1988 170.257C25.1393 171.201 25.492 171.972 26.1267 172.451L50.9272 191.179C51.5693 191.664 52.4617 191.814 53.4365 191.601L117.435 177.607C119.617 177.13 121.635 174.992 121.968 172.805L122.439 169.707Z" fill="url(#paint5_linear_3034_18582)"/>
<path d="M122.498 169.746L89.3033 153.235C88.4868 152.829 88.0786 152.626 87.5951 152.566C87.1116 152.506 86.5756 152.593 85.5035 152.765L44.394 159.383C33.1319 161.196 27.5009 162.103 26.1159 165.166C24.7309 168.229 28.9331 170.482 37.3375 174.988L51.2763 182.462C52.169 182.941 52.6153 183.18 53.1552 183.243C53.695 183.305 54.2971 183.186 55.5012 182.949L122.498 169.746Z" fill="url(#paint6_linear_3034_18582)"/>
<path d="M51.5947 187.815L51.5736 185.881C51.5711 185.645 51.4589 185.427 51.271 185.292L25.8521 167.125L25.3462 169.162C25.2736 169.455 25.3792 169.758 25.6144 169.934L50.4128 188.447C50.9006 188.811 51.6014 188.436 51.5947 187.815Z" fill="white"/>
</g>
<path d="M23.0049 145.633L69.4215 142.314C69.7676 142.29 70.1128 142.322 70.4482 142.41C75.3145 143.697 113.795 153.901 114.536 155.021C115.091 155.86 114.867 161.469 114.684 164.738C114.606 166.135 113.596 167.294 112.228 167.591L65.397 177.733C64.6473 177.895 63.8641 177.779 63.194 177.406L24.6249 155.925C23.6249 155.368 23.0049 154.313 23.0049 153.169L23.0049 145.633Z" fill="#F2CC8F"/>
<g filter="url(#filter15_i_3034_18582)">
<path d="M23.002 145.635L70.7769 140.967C71.1589 140.93 71.5446 140.963 71.9149 141.064L112.576 152.168C115.712 153.024 115.66 157.491 112.504 158.274L70.3715 168.728C69.6376 168.91 68.8628 168.823 68.188 168.481L23.002 145.635Z" fill="url(#paint7_linear_3034_18582)"/>
</g>
<path d="M65.7693 174.404L65.7693 167.218C65.7693 166.946 65.96 166.711 66.2265 166.654L114.871 156.362L114.871 164.94C114.871 165.216 114.676 165.453 114.406 165.506L66.4575 174.97C66.1011 175.04 65.7693 174.767 65.7693 174.404Z" fill="white"/>
<g filter="url(#filter16_g_3034_18582)">
<path d="M61.5158 145.844C61.371 145.477 61.97 145.277 62.469 145.526L64.7718 146.676C64.9985 146.789 65.2816 146.817 65.4898 146.748L67.7935 145.978C68.325 145.8 69.0477 146.253 68.7834 146.599L67.8592 147.805C67.7288 147.975 67.8457 148.211 68.131 148.353L70.0106 149.292C70.5462 149.559 70.3876 150.043 69.775 150.01L66.6752 149.843C66.4501 149.831 66.2577 149.895 66.1678 150.013L64.9294 151.629C64.6847 151.948 63.8598 151.793 63.7043 151.399L63.1589 150.015C63.0761 149.804 62.7676 149.633 62.4412 149.615L60.1277 149.491C59.4659 149.455 59.1137 148.878 59.6452 148.701L61.9488 147.931C62.1571 147.861 62.2498 147.707 62.184 147.54L61.5158 145.844Z" fill="white"/>
</g>
<g filter="url(#filter17_g_3034_18582)">
<path d="M62.9784 153.194C62.9045 153.006 63.21 152.904 63.4644 153.031L64.6636 153.63C64.7792 153.688 64.9235 153.702 65.0297 153.667L66.233 153.265C66.504 153.174 66.8726 153.405 66.7378 153.581L66.2532 154.213C66.1868 154.3 66.2463 154.42 66.3919 154.493L67.3752 154.984C67.6484 155.121 67.5675 155.367 67.2551 155.35L65.6413 155.263C65.5266 155.257 65.4285 155.29 65.3826 155.35L64.7379 156.191C64.6132 156.354 64.1925 156.275 64.1133 156.074L63.8279 155.35C63.7857 155.243 63.6284 155.155 63.462 155.146L62.2491 155.081C61.9117 155.063 61.7321 154.769 62.0031 154.678L63.2064 154.276C63.3126 154.241 63.3599 154.162 63.3264 154.077L62.9784 153.194Z" fill="white"/>
</g>
<g filter="url(#filter18_g_3034_18582)">
<path d="M73.9686 149.619C73.8948 149.432 74.2002 149.33 74.4546 149.457L75.6538 150.056C75.7694 150.114 75.9137 150.128 76.0199 150.093L77.2233 149.691C77.4943 149.6 77.8628 149.831 77.728 150.007L77.2435 150.639C77.177 150.726 77.2366 150.846 77.3821 150.919L78.3655 151.41C78.6386 151.546 78.5577 151.793 78.2454 151.776L76.6316 151.689C76.5168 151.683 76.4187 151.716 76.3729 151.776L75.7282 152.617C75.6034 152.78 75.1828 152.701 75.1035 152.5L74.8181 151.776C74.7759 151.668 74.6186 151.581 74.4522 151.572L73.2393 151.507C72.9019 151.489 72.7223 151.194 72.9933 151.104L74.1967 150.702C74.3029 150.666 74.3501 150.588 74.3166 150.503L73.9686 149.619Z" fill="white"/>
</g>
</g>
<defs>
<filter id="filter0_ii_3034_18582" x="56.8735" y="25.2559" width="180.439" height="161.56" filterUnits="userSpaceOnUse" color-interpolation-filters="sRGB">
<feFlood flood-opacity="0" result="BackgroundImageFix"/>
<feBlend mode="normal" in="SourceGraphic" in2="BackgroundImageFix" result="shape"/>
<feColorMatrix in="SourceAlpha" type="matrix" values="0 0 0 0 0 0 0 0 0 0 0 0 0 0 0 0 0 0 127 0" result="hardAlpha"/>
<feOffset dx="-8.77685" dy="1.95041"/>
<feGaussianBlur stdDeviation="7.26528"/>
<feComposite in2="hardAlpha" operator="arithmetic" k2="-1" k3="1"/>
<feColorMatrix type="matrix" values="0 0 0 0 1 0 0 0 0 0.912766 0 0 0 0 0.792818 0 0 0 0.8 0"/>
<feBlend mode="normal" in2="shape" result="effect1_innerShadow_3034_18582"/>
<feColorMatrix in="SourceAlpha" type="matrix" values="0 0 0 0 0 0 0 0 0 0 0 0 0 0 0 0 0 0 127 0" result="hardAlpha"/>
<feOffset dx="-0.975205" dy="0.975205"/>
<feGaussianBlur stdDeviation="0.487603"/>
<feComposite in2="hardAlpha" operator="arithmetic" k2="-1" k3="1"/>
<feColorMatrix type="matrix" values="0 0 0 0 0.871206 0 0 0 0 1 0 0 0 0 0.997853 0 0 0 0.5 0"/>
<feBlend mode="normal" in2="effect1_innerShadow_3034_18582" result="effect2_innerShadow_3034_18582"/>
</filter>
<filter id="filter1_n_3034_18582" x="29.5938" y="2.98828" width="226.861" height="203.457" filterUnits="userSpaceOnUse" color-interpolation-filters="sRGB">
<feFlood flood-opacity="0" result="BackgroundImageFix"/>
<feBlend mode="normal" in="SourceGraphic" in2="BackgroundImageFix" result="shape"/>
<feTurbulence type="fractalNoise" baseFrequency="0.10681510716676712 0.10681510716676712" stitchTiles="stitch" numOctaves="3" result="noise" seed="1999" />
<feColorMatrix in="noise" type="luminanceToAlpha" result="alphaNoise" />
<feComponentTransfer in="alphaNoise" result="coloredNoise1">
<feFuncA type="discrete" tableValues="1 1 1 1 1 1 1 1 1 1 1 1 1 1 1 1 1 1 1 1 1 1 1 1 1 1 1 1 1 1 1 1 1 1 1 1 1 1 1 1 1 1 1 1 1 1 1 1 1 1 1 0 0 0 0 0 0 0 0 0 0 0 0 0 0 0 0 0 0 0 0 0 0 0 0 0 0 0 0 0 0 0 0 0 0 0 0 0 0 0 0 0 0 0 0 0 0 0 0 0 "/>
</feComponentTransfer>
<feComposite operator="in" in2="shape" in="coloredNoise1" result="noise1Clipped" />
<feFlood flood-color="rgba(0, 0, 0, 0.08)" result="color1Flood" />
<feComposite operator="in" in2="noise1Clipped" in="color1Flood" result="color1" />
<feMerge result="effect1_noise_3034_18582">
<feMergeNode in="shape" />
<feMergeNode in="color1" />
</feMerge>
</filter>
<filter id="filter2_ii_3034_18582" x="113.571" y="185.504" width="91.3938" height="36.5129" filterUnits="userSpaceOnUse" color-interpolation-filters="sRGB">
<feFlood flood-opacity="0" result="BackgroundImageFix"/>
<feBlend mode="normal" in="SourceGraphic" in2="BackgroundImageFix" result="shape"/>
<feColorMatrix in="SourceAlpha" type="matrix" values="0 0 0 0 0 0 0 0 0 0 0 0 0 0 0 0 0 0 127 0" result="hardAlpha"/>
<feOffset dx="-10.7273" dy="1.95041"/>
<feGaussianBlur stdDeviation="5.16859"/>
<feComposite in2="hardAlpha" operator="arithmetic" k2="-1" k3="1"/>
<feColorMatrix type="matrix" values="0 0 0 0 0.869328 0 0 0 0 0.719989 0 0 0 0 1 0 0 0 0.2 0"/>
<feBlend mode="normal" in2="shape" result="effect1_innerShadow_3034_18582"/>
<feColorMatrix in="SourceAlpha" type="matrix" values="0 0 0 0 0 0 0 0 0 0 0 0 0 0 0 0 0 0 127 0" result="hardAlpha"/>
<feOffset dx="-0.975205"/>
<feGaussianBlur stdDeviation="0.487603"/>
<feComposite in2="hardAlpha" operator="arithmetic" k2="-1" k3="1"/>
<feColorMatrix type="matrix" values="0 0 0 0 0.858824 0 0 0 0 0.976471 0 0 0 0 0.984314 0 0 0 0.2 0"/>
<feBlend mode="normal" in2="effect1_innerShadow_3034_18582" result="effect2_innerShadow_3034_18582"/>
</filter>
<filter id="filter3_g_3034_18582" x="119.77" y="107.155" width="34.5846" height="30.8404" filterUnits="userSpaceOnUse" color-interpolation-filters="sRGB">
<feFlood flood-opacity="0" result="BackgroundImageFix"/>
<feBlend mode="normal" in="SourceGraphic" in2="BackgroundImageFix" result="shape"/>
<feTurbulence type="fractalNoise" baseFrequency="1.1393612623214722 1.1393612623214722" numOctaves="3" seed="3511" />
<feDisplacementMap in="shape" scale="0.9752051830291748" xChannelSelector="R" yChannelSelector="G" result="displacedImage" width="100%" height="100%" />
<feMerge result="effect1_texture_3034_18582">
<feMergeNode in="displacedImage"/>
</feMerge>
</filter>
<filter id="filter4_g_3034_18582" x="126.188" y="111.512" width="23.4296" height="21.5174" filterUnits="userSpaceOnUse" color-interpolation-filters="sRGB">
<feFlood flood-opacity="0" result="BackgroundImageFix"/>
<feBlend mode="normal" in="SourceGraphic" in2="BackgroundImageFix" result="shape"/>
<feTurbulence type="fractalNoise" baseFrequency="1.7347676753997803 1.7347676753997803" numOctaves="3" seed="3511" />
<feDisplacementMap in="shape" scale="0.6404956579208374" xChannelSelector="R" yChannelSelector="G" result="displacedImage" width="100%" height="100%" />
<feMerge result="effect1_texture_3034_18582">
<feMergeNode in="displacedImage"/>
</feMerge>
</filter>
<filter id="filter5_g_3034_18582" x="167.8" y="102.528" width="31.3717" height="30.776" filterUnits="userSpaceOnUse" color-interpolation-filters="sRGB">
<feFlood flood-opacity="0" result="BackgroundImageFix"/>
<feBlend mode="normal" in="SourceGraphic" in2="BackgroundImageFix" result="shape"/>
<feTurbulence type="fractalNoise" baseFrequency="1.1393612623214722 1.1393612623214722" numOctaves="3" seed="3511" />
<feDisplacementMap in="shape" scale="0.9752051830291748" xChannelSelector="R" yChannelSelector="G" result="displacedImage" width="100%" height="100%" />
<feMerge result="effect1_texture_3034_18582">
<feMergeNode in="displacedImage"/>
</feMerge>
</filter>
<filter id="filter6_g_3034_18582" x="172.039" y="106.615" width="23.0526" height="21.787" filterUnits="userSpaceOnUse" color-interpolation-filters="sRGB">
<feFlood flood-opacity="0" result="BackgroundImageFix"/>
<feBlend mode="normal" in="SourceGraphic" in2="BackgroundImageFix" result="shape"/>
<feTurbulence type="fractalNoise" baseFrequency="1.7347676753997803 1.7347676753997803" numOctaves="3" seed="3511" />
<feDisplacementMap in="shape" scale="0.6404956579208374" xChannelSelector="R" yChannelSelector="G" result="displacedImage" width="100%" height="100%" />
<feMerge result="effect1_texture_3034_18582">
<feMergeNode in="displacedImage"/>
</feMerge>
</filter>
<filter id="filter7_ii_3034_18582" x="255.988" y="110.228" width="21.3735" height="34.4945" filterUnits="userSpaceOnUse" color-interpolation-filters="sRGB">
<feFlood flood-opacity="0" result="BackgroundImageFix"/>
<feBlend mode="normal" in="SourceGraphic" in2="BackgroundImageFix" result="shape"/>
<feColorMatrix in="SourceAlpha" type="matrix" values="0 0 0 0 0 0 0 0 0 0 0 0 0 0 0 0 0 0 127 0" result="hardAlpha"/>
<feOffset dx="-4.00072" dy="-2.00036"/>
<feGaussianBlur stdDeviation="2.57546"/>
<feComposite in2="hardAlpha" operator="arithmetic" k2="-1" k3="1"/>
<feColorMatrix type="matrix" values="0 0 0 0 1 0 0 0 0 0.719161 0 0 0 0 0.234075 0 0 0 1 0"/>
<feBlend mode="normal" in2="shape" result="effect1_innerShadow_3034_18582"/>
<feColorMatrix in="SourceAlpha" type="matrix" values="0 0 0 0 0 0 0 0 0 0 0 0 0 0 0 0 0 0 127 0" result="hardAlpha"/>
<feOffset dx="1.06026" dy="-1.06026"/>
<feGaussianBlur stdDeviation="1.06026"/>
<feComposite in2="hardAlpha" operator="arithmetic" k2="-1" k3="1"/>
<feColorMatrix type="matrix" values="0 0 0 0 1 0 0 0 0 0.686276 0 0 0 0 0.127028 0 0 0 1 0"/>
<feBlend mode="normal" in2="effect1_innerShadow_3034_18582" result="effect2_innerShadow_3034_18582"/>
</filter>
<filter id="filter8_iiii_3034_18582" x="200.484" y="123.146" width="29.4153" height="33.204" filterUnits="userSpaceOnUse" color-interpolation-filters="sRGB">
<feFlood flood-opacity="0" result="BackgroundImageFix"/>
<feBlend mode="normal" in="SourceGraphic" in2="BackgroundImageFix" result="shape"/>
<feColorMatrix in="SourceAlpha" type="matrix" values="0 0 0 0 0 0 0 0 0 0 0 0 0 0 0 0 0 0 127 0" result="hardAlpha"/>
<feOffset dx="-4.00072" dy="-2.00036"/>
<feGaussianBlur stdDeviation="2.57546"/>
<feComposite in2="hardAlpha" operator="arithmetic" k2="-1" k3="1"/>
<feColorMatrix type="matrix" values="0 0 0 0 1 0 0 0 0 0.719161 0 0 0 0 0.234075 0 0 0 1 0"/>
<feBlend mode="normal" in2="shape" result="effect1_innerShadow_3034_18582"/>
<feColorMatrix in="SourceAlpha" type="matrix" values="0 0 0 0 0 0 0 0 0 0 0 0 0 0 0 0 0 0 127 0" result="hardAlpha"/>
<feOffset dx="1.5904" dy="1.5904"/>
<feGaussianBlur stdDeviation="1.90848"/>
<feComposite in2="hardAlpha" operator="arithmetic" k2="-1" k3="1"/>
<feColorMatrix type="matrix" values="0 0 0 0 1 0 0 0 0 0.666667 0 0 0 0 0 0 0 0 0.6 0"/>
<feBlend mode="normal" in2="effect1_innerShadow_3034_18582" result="effect2_innerShadow_3034_18582"/>
<feColorMatrix in="SourceAlpha" type="matrix" values="0 0 0 0 0 0 0 0 0 0 0 0 0 0 0 0 0 0 127 0" result="hardAlpha"/>
<feOffset dx="1.06026" dy="-1.06026"/>
<feGaussianBlur stdDeviation="1.06026"/>
<feComposite in2="hardAlpha" operator="arithmetic" k2="-1" k3="1"/>
<feColorMatrix type="matrix" values="0 0 0 0 1 0 0 0 0 0.686276 0 0 0 0 0.127028 0 0 0 1 0"/>
<feBlend mode="normal" in2="effect2_innerShadow_3034_18582" result="effect3_innerShadow_3034_18582"/>
<feColorMatrix in="SourceAlpha" type="matrix" values="0 0 0 0 0 0 0 0 0 0 0 0 0 0 0 0 0 0 127 0" result="hardAlpha"/>
<feOffset dx="0.530132" dy="0.530132"/>
<feGaussianBlur stdDeviation="0.530132"/>
<feComposite in2="hardAlpha" operator="arithmetic" k2="-1" k3="1"/>
<feColorMatrix type="matrix" values="0 0 0 0 1 0 0 0 0 1 0 0 0 0 1 0 0 0 0.6 0"/>
<feBlend mode="normal" in2="effect3_innerShadow_3034_18582" result="effect4_innerShadow_3034_18582"/>
</filter>
<filter id="filter9_iii_3034_18582" x="232.541" y="148.448" width="33.1251" height="29.255" filterUnits="userSpaceOnUse" color-interpolation-filters="sRGB">
<feFlood flood-opacity="0" result="BackgroundImageFix"/>
<feBlend mode="normal" in="SourceGraphic" in2="BackgroundImageFix" result="shape"/>
<feColorMatrix in="SourceAlpha" type="matrix" values="0 0 0 0 0 0 0 0 0 0 0 0 0 0 0 0 0 0 127 0" result="hardAlpha"/>
<feOffset dx="-1.80972" dy="-1.80972"/>
<feGaussianBlur stdDeviation="5.54227"/>
<feComposite in2="hardAlpha" operator="arithmetic" k2="-1" k3="1"/>
<feColorMatrix type="matrix" values="0 0 0 0 1 0 0 0 0 0.719161 0 0 0 0 0.234075 0 0 0 1 0"/>
<feBlend mode="normal" in2="shape" result="effect1_innerShadow_3034_18582"/>
<feColorMatrix in="SourceAlpha" type="matrix" values="0 0 0 0 0 0 0 0 0 0 0 0 0 0 0 0 0 0 127 0" result="hardAlpha"/>
<feOffset dx="1.35729" dy="-0.452431"/>
<feGaussianBlur stdDeviation="3.75517"/>
<feComposite in2="hardAlpha" operator="arithmetic" k2="-1" k3="1"/>
<feColorMatrix type="matrix" values="0 0 0 0 0.982536 0 0 0 0 1 0 0 0 0 0.790433 0 0 0 0.7 0"/>
<feBlend mode="normal" in2="effect1_innerShadow_3034_18582" result="effect2_innerShadow_3034_18582"/>
<feColorMatrix in="SourceAlpha" type="matrix" values="0 0 0 0 0 0 0 0 0 0 0 0 0 0 0 0 0 0 127 0" result="hardAlpha"/>
<feOffset dx="-2.65066" dy="-0.530132"/>
<feGaussianBlur stdDeviation="1.32533"/>
<feComposite in2="hardAlpha" operator="arithmetic" k2="-1" k3="1"/>
<feColorMatrix type="matrix" values="0 0 0 0 1 0 0 0 0 0.686276 0 0 0 0 0.127028 0 0 0 1 0"/>
<feBlend mode="normal" in2="effect2_innerShadow_3034_18582" result="effect3_innerShadow_3034_18582"/>
</filter>
<filter id="filter10_iii_3034_18582" x="202.998" y="106.706" width="63.8348" height="56.776" filterUnits="userSpaceOnUse" color-interpolation-filters="sRGB">
<feFlood flood-opacity="0" result="BackgroundImageFix"/>
<feBlend mode="normal" in="SourceGraphic" in2="BackgroundImageFix" result="shape"/>
<feColorMatrix in="SourceAlpha" type="matrix" values="0 0 0 0 0 0 0 0 0 0 0 0 0 0 0 0 0 0 127 0" result="hardAlpha"/>
<feOffset dx="-11.3108" dy="-1.80972"/>
<feGaussianBlur stdDeviation="6.44713"/>
<feComposite in2="hardAlpha" operator="arithmetic" k2="-1" k3="1"/>
<feColorMatrix type="matrix" values="0 0 0 0 1 0 0 0 0 0.719161 0 0 0 0 0.234075 0 0 0 1 0"/>
<feBlend mode="normal" in2="shape" result="effect1_innerShadow_3034_18582"/>
<feColorMatrix in="SourceAlpha" type="matrix" values="0 0 0 0 0 0 0 0 0 0 0 0 0 0 0 0 0 0 127 0" result="hardAlpha"/>
<feOffset dx="-2.65066" dy="-0.530132"/>
<feGaussianBlur stdDeviation="1.32533"/>
<feComposite in2="hardAlpha" operator="arithmetic" k2="-1" k3="1"/>
<feColorMatrix type="matrix" values="0 0 0 0 1 0 0 0 0 0.686276 0 0 0 0 0.127028 0 0 0 1 0"/>
<feBlend mode="normal" in2="effect1_innerShadow_3034_18582" result="effect2_innerShadow_3034_18582"/>
<feColorMatrix in="SourceAlpha" type="matrix" values="0 0 0 0 0 0 0 0 0 0 0 0 0 0 0 0 0 0 127 0" result="hardAlpha"/>
<feOffset dx="1.5904" dy="2.12053"/>
<feGaussianBlur stdDeviation="1.80245"/>
<feComposite in2="hardAlpha" operator="arithmetic" k2="-1" k3="1"/>
<feColorMatrix type="matrix" values="0 0 0 0 1 0 0 0 0 0.902907 0 0 0 0 0.902907 0 0 0 0.6 0"/>
<feBlend mode="normal" in2="effect2_innerShadow_3034_18582" result="effect3_innerShadow_3034_18582"/>
</filter>
<filter id="filter11_f_3034_18582" x="214.39" y="105.174" width="24.5259" height="38.563" filterUnits="userSpaceOnUse" color-interpolation-filters="sRGB">
<feFlood flood-opacity="0" result="BackgroundImageFix"/>
<feBlend mode="normal" in="SourceGraphic" in2="BackgroundImageFix" result="shape"/>
<feGaussianBlur stdDeviation="2.62415" result="effect1_foregroundBlur_3034_18582"/>
</filter>
<filter id="filter12_ii_3034_18582" x="227.645" y="166.308" width="41.1501" height="23.1409" filterUnits="userSpaceOnUse" color-interpolation-filters="sRGB">
<feFlood flood-opacity="0" result="BackgroundImageFix"/>
<feBlend mode="normal" in="SourceGraphic" in2="BackgroundImageFix" result="shape"/>
<feColorMatrix in="SourceAlpha" type="matrix" values="0 0 0 0 0 0 0 0 0 0 0 0 0 0 0 0 0 0 127 0" result="hardAlpha"/>
<feOffset dx="-7.95198" dy="-5.30132"/>
<feGaussianBlur stdDeviation="3.15429"/>
<feComposite in2="hardAlpha" operator="arithmetic" k2="-1" k3="1"/>
<feColorMatrix type="matrix" values="0 0 0 0 0.988235 0 0 0 0 0.647451 0 0 0 0 0.0588235 0 0 0 1 0"/>
<feBlend mode="normal" in2="shape" result="effect1_innerShadow_3034_18582"/>
<feColorMatrix in="SourceAlpha" type="matrix" values="0 0 0 0 0 0 0 0 0 0 0 0 0 0 0 0 0 0 127 0" result="hardAlpha"/>
<feOffset dx="1.06026" dy="1.06026"/>
<feGaussianBlur stdDeviation="0.530132"/>
<feComposite in2="hardAlpha" operator="arithmetic" k2="-1" k3="1"/>
<feColorMatrix type="matrix" values="0 0 0 0 1 0 0 0 0 1 0 0 0 0 1 0 0 0 0.5 0"/>
<feBlend mode="normal" in2="effect1_innerShadow_3034_18582" result="effect2_innerShadow_3034_18582"/>
</filter>
<filter id="filter13_i_3034_18582" x="15.0508" y="170.209" width="91.8809" height="40.7853" filterUnits="userSpaceOnUse" color-interpolation-filters="sRGB">
<feFlood flood-opacity="0" result="BackgroundImageFix"/>
<feBlend mode="normal" in="SourceGraphic" in2="BackgroundImageFix" result="shape"/>
<feColorMatrix in="SourceAlpha" type="matrix" values="0 0 0 0 0 0 0 0 0 0 0 0 0 0 0 0 0 0 127 0" result="hardAlpha"/>
<feOffset dy="11.8963"/>
<feGaussianBlur stdDeviation="2.64362"/>
<feComposite in2="hardAlpha" operator="arithmetic" k2="-1" k3="1"/>
<feColorMatrix type="matrix" values="0 0 0 0 0.831731 0 0 0 0 0.567816 0 0 0 0 0.567816 0 0 0 0.25 0"/>
<feBlend mode="normal" in2="shape" result="effect1_innerShadow_3034_18582"/>
</filter>
<filter id="filter14_d_3034_18582" x="21.7402" y="151.684" width="104.209" height="46.0508" filterUnits="userSpaceOnUse" color-interpolation-filters="sRGB">
<feFlood flood-opacity="0" result="BackgroundImageFix"/>
<feColorMatrix in="SourceAlpha" type="matrix" values="0 0 0 0 0 0 0 0 0 0 0 0 0 0 0 0 0 0 127 0" result="hardAlpha"/>
<feOffset dy="2.58839"/>
<feGaussianBlur stdDeviation="1.72559"/>
<feComposite in2="hardAlpha" operator="out"/>
<feColorMatrix type="matrix" values="0 0 0 0 0 0 0 0 0 0 0 0 0 0 0 0 0 0 0.25 0"/>
<feBlend mode="normal" in2="BackgroundImageFix" result="effect1_dropShadow_3034_18582"/>
<feBlend mode="normal" in="SourceGraphic" in2="effect1_dropShadow_3034_18582" result="shape"/>
</filter>
<filter id="filter15_i_3034_18582" x="23.002" y="140.953" width="91.8984" height="33.1544" filterUnits="userSpaceOnUse" color-interpolation-filters="sRGB">
<feFlood flood-opacity="0" result="BackgroundImageFix"/>
<feBlend mode="normal" in="SourceGraphic" in2="BackgroundImageFix" result="shape"/>
<feColorMatrix in="SourceAlpha" type="matrix" values="0 0 0 0 0 0 0 0 0 0 0 0 0 0 0 0 0 0 127 0" result="hardAlpha"/>
<feOffset dy="5.28725"/>
<feGaussianBlur stdDeviation="7.0056"/>
<feComposite in2="hardAlpha" operator="arithmetic" k2="-1" k3="1"/>
<feColorMatrix type="matrix" values="0 0 0 0 0.501577 0 0 0 0 0.908623 0 0 0 0 1 0 0 0 0.25 0"/>
<feBlend mode="normal" in2="shape" result="effect1_innerShadow_3034_18582"/>
</filter>
<filter id="filter16_g_3034_18582" x="59.0235" y="145.053" width="11.6757" height="7.11122" filterUnits="userSpaceOnUse" color-interpolation-filters="sRGB">
<feFlood flood-opacity="0" result="BackgroundImageFix"/>
<feBlend mode="normal" in="SourceGraphic" in2="BackgroundImageFix" result="shape"/>
<feTurbulence type="fractalNoise" baseFrequency="5.5062270164489746 5.5062270164489746" numOctaves="3" seed="70" />
<feDisplacementMap in="shape" scale="0.72645026445388794" xChannelSelector="R" yChannelSelector="G" result="displacedImage" width="100%" height="100%" />
<feMerge result="effect1_texture_3034_18582">
<feMergeNode in="displacedImage"/>
</feMerge>
</filter>
<filter id="filter17_g_3034_18582" x="61.5079" y="152.611" width="6.39637" height="4.03114" filterUnits="userSpaceOnUse" color-interpolation-filters="sRGB">
<feFlood flood-opacity="0" result="BackgroundImageFix"/>
<feBlend mode="normal" in="SourceGraphic" in2="BackgroundImageFix" result="shape"/>
<feTurbulence type="fractalNoise" baseFrequency="5.5062270164489746 5.5062270164489746" numOctaves="3" seed="70" />
<feDisplacementMap in="shape" scale="0.72645026445388794" xChannelSelector="R" yChannelSelector="G" result="displacedImage" width="100%" height="100%" />
<feMerge result="effect1_texture_3034_18582">
<feMergeNode in="displacedImage"/>
</feMerge>
</filter>
<filter id="filter18_g_3034_18582" x="72.4981" y="149.037" width="6.39637" height="4.03114" filterUnits="userSpaceOnUse" color-interpolation-filters="sRGB">
<feFlood flood-opacity="0" result="BackgroundImageFix"/>
<feBlend mode="normal" in="SourceGraphic" in2="BackgroundImageFix" result="shape"/>
<feTurbulence type="fractalNoise" baseFrequency="5.5062270164489746 5.5062270164489746" numOctaves="3" seed="70" />
<feDisplacementMap in="shape" scale="0.72645026445388794" xChannelSelector="R" yChannelSelector="G" result="displacedImage" width="100%" height="100%" />
<feMerge result="effect1_texture_3034_18582">
<feMergeNode in="displacedImage"/>
</feMerge>
</filter>
<linearGradient id="paint0_linear_3034_18582" x1="255.288" y1="75.6796" x2="51.4116" y2="162.195" gradientUnits="userSpaceOnUse">
<stop stop-color="#FFB2B2" stop-opacity="0.2"/>
<stop offset="1" stop-color="white" stop-opacity="0"/>
</linearGradient>
<linearGradient id="paint1_linear_3034_18582" x1="32.8265" y1="35.3109" x2="115.231" y2="212.95" gradientUnits="userSpaceOnUse">
<stop stop-color="#8C3E3E"/>
<stop offset="0.586538" stop-color="#CEB484"/>
<stop offset="1" stop-color="#8F5B5B"/>
</linearGradient>
<linearGradient id="paint2_linear_3034_18582" x1="58.172" y1="52.616" x2="111.046" y2="124.803" gradientUnits="userSpaceOnUse">
<stop stop-color="#FFD9D9"/>
<stop offset="0.440397" stop-color="#FFD9D9" stop-opacity="0"/>
</linearGradient>
<linearGradient id="paint3_linear_3034_18582" x1="39.1641" y1="100.089" x2="59.6565" y2="104.276" gradientUnits="userSpaceOnUse">
<stop stop-color="#FFD9D9"/>
<stop offset="1" stop-color="#FFD9D9" stop-opacity="0"/>
</linearGradient>
<linearGradient id="paint4_linear_3034_18582" x1="65.3461" y1="198.92" x2="62.0063" y2="172.405" gradientUnits="userSpaceOnUse">
<stop stop-color="#AAADC8"/>
<stop offset="1" stop-color="#3D405B"/>
</linearGradient>
<linearGradient id="paint5_linear_3034_18582" x1="127.25" y1="139.318" x2="102.907" y2="206.831" gradientUnits="userSpaceOnUse">
<stop stop-color="white"/>
<stop offset="1" stop-color="#F5E6CA"/>
</linearGradient>
<linearGradient id="paint6_linear_3034_18582" x1="124.637" y1="141.922" x2="109.976" y2="197.43" gradientUnits="userSpaceOnUse">
<stop stop-color="#EEC0B0"/>
<stop offset="1" stop-color="#8D6E63"/>
</linearGradient>
<linearGradient id="paint7_linear_3034_18582" x1="69.4114" y1="119.653" x2="66.8993" y2="167.788" gradientUnits="userSpaceOnUse">
<stop stop-color="#FFD2D0"/>
<stop offset="1" stop-color="#FFDA9F"/>
</linearGradient>
<clipPath id="clip0_3034_18582">
<rect width="298.999" height="219.999" fill="white" transform="translate(0 0.699219)"/>
</clipPath>
</defs>
</svg>
