<svg width="305" height="276" viewBox="0 0 305 276" fill="none" xmlns="http://www.w3.org/2000/svg">
<g clip-path="url(#clip0_3052_29996)">
<g filter="url(#filter0_ii_3052_29996)">
<path d="M154.555 67.2036C155.419 65.8167 157.258 65.4594 158.602 66.39C170.683 74.766 174.471 82.9485 175.019 88.1395C175.224 90.0923 173.143 91.0019 171.309 90.3011C168.844 89.3596 166.64 88.9917 164.866 88.9285C165.951 91.886 168.026 98.9444 168.855 106.428C181.414 105.199 223.65 116.682 209.413 163.361C196.987 204.1 179.745 199.741 172.677 192.47C162.692 202.546 152.514 193.943 148.673 188.381C131.446 199.253 119.64 186.802 115.892 179.217C115.831 183.21 78.3767 191.678 91.6948 134.876C103.268 85.517 140.05 94.5394 157.638 105.733C157.827 101.273 157.864 94.8205 157.197 89.3972C154.92 89.5888 152.878 90.0761 151.145 90.6758C148.744 91.5059 145.713 89.8514 146.182 87.3553C147.605 79.797 151.563 72.0062 154.555 67.2036Z" fill="#798ACD"/>
</g>
<g filter="url(#filter1_n_3052_29996)">
<ellipse cx="150.649" cy="130.337" rx="89.2703" ry="79.6013" transform="rotate(12.8535 150.649 130.337)" fill="url(#paint0_linear_3052_29996)" fill-opacity="0.9"/>
<path d="M168.204 53.4023C215.975 64.3026 246.69 107.623 237.011 150.043C227.332 192.462 180.865 218.172 133.095 207.272C85.3244 196.372 54.6093 153.051 64.2883 110.631C73.9675 68.2118 120.434 42.5022 168.204 53.4023Z" stroke="url(#paint1_linear_3052_29996)" stroke-width="1.37815"/>
</g>
<g filter="url(#filter2_ii_3052_29996)">
<path d="M109.352 209.538L107.253 199.784C106.761 197.494 108.421 195.3 110.762 195.258C133.317 194.856 157.068 201.615 168.644 205.94C170.725 206.718 171.584 209.135 170.563 211.108L166.404 219.151C165.598 220.71 163.832 221.519 162.121 221.127C138.74 215.778 120.876 213.587 112.547 212.501C110.958 212.293 109.689 211.105 109.352 209.538Z" fill="#3E4C8C"/>
</g>
<circle cx="139.85" cy="206.447" r="2.67974" transform="rotate(21.905 139.85 206.447)" fill="#CFD7F7"/>
<circle cx="122.799" cy="203.711" r="2.67974" transform="rotate(21.905 122.799 203.711)" fill="#CFD7F7"/>
<circle cx="156.338" cy="210.597" r="2.67974" transform="rotate(21.905 156.338 210.597)" fill="#CFD7F7"/>
<g filter="url(#filter3_g_3052_29996)">
<ellipse cx="141.073" cy="141.598" rx="13.2183" ry="11.6924" transform="rotate(14.1469 141.073 141.598)" fill="white"/>
</g>
<g filter="url(#filter4_g_3052_29996)">
<ellipse cx="142.829" cy="140.753" rx="8.95887" ry="8.17903" transform="rotate(14.1469 142.829 140.753)" fill="black"/>
</g>
<g filter="url(#filter5_g_3052_29996)">
<ellipse cx="176.258" cy="151.804" rx="11.9348" ry="11.6924" transform="rotate(14.1469 176.258 151.804)" fill="white"/>
</g>
<ellipse cx="156.845" cy="154.43" rx="3.8282" ry="3.06256" transform="rotate(17.9166 156.845 154.43)" fill="#FF581D"/>
<path d="M150.633 157.012L150.838 157.859C151.178 159.258 152.389 160.272 153.826 160.359V160.359" stroke="#852A0A" stroke-width="1.22502" stroke-linecap="round"/>
<g filter="url(#filter6_g_3052_29996)">
<ellipse cx="177.486" cy="150.666" rx="8.80657" ry="8.29054" transform="rotate(14.1469 177.486 150.666)" fill="black"/>
</g>
<path opacity="0.8" d="M123.818 76.6746L101.544 91.9539C96.6961 95.2797 89.0224 98.0305 86.2737 92.8334C84.5781 89.6275 86.2353 85.5238 87.9356 83.0963C91.1973 78.865 101.438 69.4998 116.309 65.889C125.267 63.7139 128.622 65.4508 129.406 68.0582C130.472 71.6055 126.873 74.5793 123.818 76.6746Z" fill="url(#paint2_linear_3052_29996)"/>
<path opacity="0.89" d="M80.1887 97.8814C88.8363 96.0772 85.0073 106.421 82.0118 111.818C79.9025 114.601 76.8708 111.264 75.6186 109.247C73.5388 106.21 71.5412 99.6856 80.1887 97.8814Z" fill="url(#paint3_linear_3052_29996)"/>
</g>
<g filter="url(#filter7_d_3052_29996)">
<path d="M90.7526 205.86L95.2535 205.2C95.3075 205.193 95.3627 205.2 95.414 205.22C95.4653 205.24 95.511 205.273 95.5468 205.316L98.5075 208.916C98.5529 208.971 98.6141 209.009 98.6818 209.025C98.7496 209.041 98.8202 209.035 98.8831 209.006C98.9459 208.978 98.9976 208.929 99.0302 208.868C99.0627 208.806 99.0745 208.735 99.0637 208.665L98.3202 204.063C98.3118 204.008 98.3172 203.952 98.336 203.9C98.3547 203.848 98.3862 203.802 98.4274 203.767L101.898 200.826C101.95 200.781 101.987 200.719 102.001 200.651C102.016 200.582 102.008 200.51 101.979 200.445C101.949 200.381 101.901 200.327 101.839 200.292C101.778 200.258 101.708 200.244 101.64 200.254L97.1386 200.913C97.0847 200.921 97.0295 200.914 96.9782 200.894C96.9269 200.874 96.8812 200.84 96.8454 200.798L93.8846 197.197C93.8393 197.143 93.7781 197.105 93.7103 197.089C93.6426 197.072 93.5719 197.079 93.5091 197.107C93.4462 197.136 93.3946 197.184 93.362 197.246C93.3294 197.307 93.3177 197.379 93.3285 197.449L94.072 202.05C94.0804 202.105 94.0749 202.162 94.0562 202.213C94.0374 202.265 94.006 202.311 93.9648 202.347L90.4941 205.287C90.4417 205.333 90.4055 205.394 90.391 205.463C90.3764 205.532 90.3844 205.604 90.4136 205.668C90.4428 205.733 90.4917 205.787 90.5528 205.821C90.614 205.856 90.6841 205.869 90.7526 205.86Z" fill="#00D0E8"/>
<path d="M249.991 115.961L254.492 115.302C254.546 115.294 254.601 115.301 254.652 115.321C254.704 115.342 254.749 115.375 254.785 115.417L257.746 119.018C257.791 119.072 257.852 119.11 257.92 119.127C257.988 119.143 258.059 119.136 258.121 119.108C258.184 119.08 258.236 119.031 258.268 118.969C258.301 118.908 258.313 118.836 258.302 118.767L257.558 114.165C257.55 114.11 257.556 114.054 257.574 114.002C257.593 113.95 257.624 113.904 257.666 113.868L261.136 110.928C261.189 110.883 261.225 110.821 261.239 110.752C261.254 110.684 261.246 110.611 261.217 110.547C261.188 110.482 261.139 110.428 261.078 110.394C261.016 110.359 260.946 110.346 260.878 110.355L256.377 111.015C256.323 111.022 256.268 111.016 256.216 110.995C256.165 110.975 256.119 110.942 256.084 110.899L253.123 107.299C253.078 107.245 253.016 107.206 252.949 107.19C252.881 107.174 252.81 107.18 252.747 107.209C252.685 107.237 252.633 107.286 252.6 107.347C252.568 107.409 252.556 107.48 252.567 107.55L253.31 112.152C253.319 112.207 253.313 112.263 253.294 112.315C253.276 112.367 253.244 112.413 253.203 112.448L249.732 115.389C249.68 115.434 249.644 115.496 249.629 115.564C249.615 115.633 249.623 115.705 249.652 115.77C249.681 115.835 249.73 115.888 249.791 115.923C249.852 115.957 249.922 115.971 249.991 115.961Z" fill="#00D0E8"/>
<path d="M197.371 46.6193L200.693 46.2774C200.733 46.2738 200.775 46.2818 200.814 46.3007C200.853 46.3197 200.888 46.3489 200.917 46.3857L203.282 49.4824C203.319 49.5292 203.366 49.5634 203.417 49.5799C203.468 49.5963 203.521 49.5941 203.566 49.5735C203.612 49.5529 203.648 49.5152 203.669 49.4659C203.691 49.4166 203.696 49.3586 203.685 49.3005L202.926 45.4783C202.917 45.4325 202.919 45.3866 202.93 45.3447C202.942 45.3029 202.963 45.2665 202.993 45.2391L205.445 42.9728C205.482 42.938 205.507 42.889 205.514 42.8331C205.522 42.7771 205.513 42.7174 205.488 42.6628C205.464 42.6083 205.425 42.5619 205.378 42.5307C205.331 42.4996 205.278 42.4853 205.227 42.4901L201.905 42.8319C201.866 42.8356 201.824 42.8276 201.785 42.8086C201.746 42.7897 201.71 42.7605 201.682 42.7237L199.316 39.6269C199.28 39.5801 199.233 39.5459 199.182 39.5295C199.131 39.5131 199.078 39.5153 199.033 39.5359C198.987 39.5564 198.951 39.5942 198.929 39.6435C198.908 39.6927 198.902 39.7508 198.914 39.8089L199.673 43.631C199.681 43.6768 199.68 43.7228 199.668 43.7646C199.657 43.8065 199.635 43.8428 199.606 43.8703L197.153 46.1366C197.116 46.1713 197.092 46.2204 197.084 46.2763C197.077 46.3322 197.086 46.392 197.11 46.4466C197.135 46.5011 197.174 46.5475 197.221 46.5786C197.268 46.6098 197.321 46.6241 197.371 46.6193Z" fill="#00D0E8"/>
<path d="M202.312 15.4518L206.156 14.5592C206.202 14.549 206.252 14.5521 206.3 14.5682C206.348 14.5843 206.394 14.6128 206.432 14.6512L209.61 17.8856C209.658 17.9344 209.718 17.967 209.78 17.9784C209.842 17.9898 209.903 17.9794 209.954 17.9487C210.004 17.9181 210.042 17.8689 210.061 17.8086C210.079 17.7483 210.078 17.6802 210.057 17.6146L208.664 13.2996C208.648 13.2478 208.643 13.1944 208.652 13.1441C208.66 13.0939 208.68 13.0486 208.71 13.0124L211.283 10.02C211.321 9.97424 211.343 9.91378 211.345 9.84782C211.347 9.78186 211.328 9.71398 211.292 9.65446C211.256 9.59494 211.204 9.54702 211.145 9.51794C211.086 9.48887 211.022 9.48024 210.964 9.49334L207.12 10.3859C207.074 10.3961 207.024 10.393 206.976 10.3769C206.928 10.3608 206.882 10.3323 206.844 10.2939L203.666 7.0595C203.617 7.01068 203.558 6.97811 203.496 6.96672C203.433 6.95533 203.373 6.96573 203.322 6.99636C203.271 7.02699 203.234 7.07618 203.215 7.13647C203.197 7.19677 203.198 7.2649 203.218 7.33054L204.612 11.6455C204.628 11.6972 204.632 11.7507 204.624 11.801C204.616 11.8512 204.596 11.8965 204.565 11.9327L201.993 14.9251C201.955 14.9709 201.933 15.0313 201.931 15.0973C201.929 15.1632 201.948 15.2311 201.984 15.2906C202.02 15.3502 202.072 15.3981 202.131 15.4272C202.19 15.4562 202.254 15.4649 202.312 15.4518Z" fill="#00D0E8"/>
<path d="M11.5291 174.84L15.0361 174.628C15.0781 174.626 15.1211 174.636 15.1611 174.657C15.2011 174.679 15.2367 174.711 15.2647 174.75L17.5736 178.062C17.609 178.112 17.6567 178.149 17.7095 178.169C17.7623 178.188 17.8174 178.188 17.8663 178.168C17.9153 178.149 17.9555 178.111 17.9808 178.061C18.0062 178.011 18.0153 177.951 18.0069 177.89L17.4251 173.895C17.4186 173.847 17.4228 173.8 17.4374 173.757C17.4519 173.714 17.4764 173.677 17.5085 173.65L20.2114 171.405C20.2523 171.371 20.2804 171.321 20.2917 171.264C20.303 171.206 20.2968 171.143 20.274 171.086C20.2512 171.028 20.2131 170.979 20.1654 170.944C20.1177 170.91 20.0631 170.893 20.0098 170.896L16.5028 171.108C16.4607 171.11 16.4177 171.1 16.3778 171.078C16.3378 171.057 16.3022 171.025 16.2742 170.986L13.9652 167.674C13.9299 167.624 13.8822 167.587 13.8294 167.567C13.7766 167.548 13.7215 167.548 13.6725 167.568C13.6236 167.587 13.5834 167.625 13.558 167.675C13.5327 167.725 13.5235 167.785 13.532 167.846L14.1137 171.841C14.1203 171.889 14.1161 171.936 14.1015 171.979C14.0869 172.022 14.0625 172.059 14.0304 172.086L11.3274 174.33C11.2866 174.365 11.2584 174.415 11.2471 174.472C11.2358 174.53 11.2421 174.592 11.2649 174.65C11.2876 174.708 11.3258 174.757 11.3734 174.792C11.4211 174.826 11.4758 174.843 11.5291 174.84Z" fill="#00D0E8"/>
<path d="M281.026 73.5276L283.585 73.8326C283.616 73.8366 283.646 73.8495 283.672 73.8701C283.698 73.8907 283.719 73.9183 283.734 73.9504L284.969 76.6426C284.988 76.6834 285.017 76.7167 285.053 76.7375C285.088 76.7583 285.128 76.7654 285.166 76.7578C285.204 76.7502 285.238 76.7283 285.263 76.6954C285.287 76.6625 285.302 76.6204 285.304 76.5755L285.406 73.6157C285.407 73.5803 285.416 73.5465 285.433 73.5174C285.449 73.4884 285.471 73.465 285.498 73.4495L287.742 72.1824C287.776 72.1629 287.803 72.1306 287.819 72.0905C287.834 72.0503 287.838 72.0045 287.829 71.9599C287.82 71.9154 287.799 71.8745 287.769 71.8435C287.739 71.8125 287.702 71.793 287.663 71.7881L285.104 71.4831C285.073 71.4791 285.044 71.4662 285.018 71.4456C284.991 71.425 284.97 71.3974 284.955 71.3653L283.721 68.6731C283.702 68.6323 283.672 68.599 283.637 68.5783C283.601 68.5575 283.561 68.5503 283.523 68.5579C283.486 68.5655 283.452 68.5874 283.427 68.6203C283.402 68.6532 283.387 68.6953 283.386 68.7402L283.284 71.7001C283.282 71.7355 283.273 71.7693 283.257 71.7983C283.241 71.8274 283.218 71.8507 283.192 71.8662L280.947 73.1333C280.913 73.1529 280.886 73.1851 280.871 73.2253C280.855 73.2654 280.851 73.3112 280.86 73.3558C280.869 73.4004 280.89 73.4412 280.92 73.4722C280.95 73.5033 280.987 73.5227 281.026 73.5276Z" fill="#00D0E8"/>
<path d="M101.642 210.571L103.845 210.248C103.872 210.244 103.899 210.248 103.924 210.258C103.949 210.267 103.971 210.284 103.989 210.305L105.438 212.067C105.46 212.094 105.49 212.112 105.523 212.12C105.557 212.128 105.591 212.125 105.622 212.111C105.653 212.097 105.678 212.074 105.694 212.043C105.71 212.013 105.716 211.978 105.71 211.944L105.346 209.691C105.342 209.664 105.345 209.637 105.354 209.612C105.363 209.586 105.379 209.564 105.399 209.546L107.098 208.107C107.124 208.085 107.141 208.054 107.148 208.021C107.156 207.987 107.152 207.952 107.137 207.92C107.123 207.888 107.099 207.862 107.069 207.845C107.039 207.828 107.005 207.822 106.971 207.826L104.768 208.149C104.742 208.153 104.715 208.15 104.689 208.14C104.664 208.13 104.642 208.114 104.624 208.093L103.175 206.33C103.153 206.303 103.123 206.285 103.09 206.277C103.056 206.269 103.022 206.272 102.991 206.286C102.96 206.3 102.935 206.324 102.919 206.354C102.903 206.384 102.897 206.419 102.903 206.453L103.267 208.706C103.271 208.733 103.268 208.76 103.259 208.786C103.25 208.811 103.234 208.834 103.214 208.851L101.515 210.291C101.489 210.313 101.472 210.343 101.465 210.377C101.457 210.41 101.461 210.445 101.476 210.477C101.49 210.509 101.514 210.535 101.544 210.552C101.574 210.569 101.608 210.576 101.642 210.571Z" fill="#00D0E8"/>
<g opacity="0.38" filter="url(#filter8_f_3052_29996)">
<path d="M236.21 68.9629C233.341 69.2817 227.125 73.0276 224.973 75.1794" stroke="#00EEF7" stroke-width="0.478196" stroke-linecap="round"/>
</g>
<g opacity="0.38" filter="url(#filter9_f_3052_29996)">
<path d="M237.403 70.6309C235.327 70.8516 230.83 73.4449 229.273 74.9346" stroke="#00EEF7" stroke-width="0.478196" stroke-linecap="round"/>
</g>
<g opacity="0.28" filter="url(#filter10_d_3052_29996)">
<path d="M24.8349 163.436C54.3459 88.0125 129.662 20.3244 208.89 9.84651M151.399 257.439C174.332 220.94 248.452 151.123 285.273 145.385" stroke="url(#paint4_linear_3052_29996)" stroke-width="1.56272" stroke-linecap="round"/>
</g>
<path opacity="0.38" d="M64.1647 122.029C61.7229 125.098 56.0666 133.354 52.9766 141.824" stroke="#00EEF7" stroke-width="2.52496" stroke-linecap="round"/>
<path opacity="0.38" d="M264.048 134.858C257.833 136.714 242.518 142.547 230.985 151.03" stroke="#00EEF7" stroke-width="3.15619" stroke-linecap="round"/>
<path opacity="0.38" d="M253.708 147.28C247.492 149.136 238.728 153.908 227.196 162.391" stroke="#00EEF7" stroke-width="1.26248" stroke-linecap="round"/>
<path opacity="0.38" d="M43.5237 172.495L42.9393 172.256L43.5237 172.495ZM44.8061 173.596L45.3905 173.835L45.3905 173.835L44.8061 173.596ZM52.8131 162.198L52.2352 161.944L52.2294 161.958L52.2242 161.971L52.8131 162.198ZM56.2957 163.852L55.728 163.576L55.7224 163.588L55.7173 163.599L56.2957 163.852ZM47.5096 183.943L48.0774 184.218L48.0829 184.207L48.088 184.196L47.5096 183.943ZM50.5515 186.11L51.1018 186.419L51.1098 186.405L51.1171 186.39L50.5515 186.11ZM55.0681 178.417C55.2229 178.105 55.0951 177.726 54.7828 177.572C54.4704 177.417 54.0917 177.544 53.9369 177.857L54.5025 178.137L55.0681 178.417ZM39.9868 170.126L39.4546 169.786C38.0667 171.962 38.3373 174.207 39.6565 175.185C40.3313 175.686 41.2105 175.774 42.0467 175.341C42.8552 174.922 43.5704 174.05 44.108 172.734L43.5237 172.495L42.9393 172.256C42.4659 173.415 41.912 173.989 41.466 174.22C41.0476 174.436 40.6868 174.378 40.4088 174.172C39.8222 173.736 39.3355 172.321 40.519 170.465L39.9868 170.126ZM43.5237 172.495L44.108 172.734C44.1564 172.615 44.2325 172.548 44.2954 172.517C44.3644 172.483 44.3932 172.5 44.379 172.494C44.3427 172.479 44.3681 172.458 44.3851 172.553C44.4059 172.671 44.3984 172.925 44.2218 173.358L44.8061 173.596L45.3905 173.835C45.6182 173.278 45.7057 172.77 45.6281 172.333C45.5467 171.874 45.2804 171.507 44.8754 171.334C44.1101 171.006 43.2528 171.488 42.9393 172.256L43.5237 172.495ZM44.8061 173.596L44.2218 173.358C44.0722 173.724 43.9871 174.097 43.9904 174.441C43.9935 174.771 44.0819 175.169 44.391 175.447C44.7304 175.753 45.1688 175.771 45.5487 175.654C45.9147 175.542 46.2924 175.293 46.6764 174.943C48.1975 173.56 50.495 169.965 53.4021 162.425L52.8131 162.198L52.2242 161.971C49.3212 169.501 47.1096 172.843 45.8269 174.009C45.51 174.298 45.2934 174.412 45.178 174.447C45.0764 174.479 45.1462 174.429 45.2362 174.51C45.296 174.564 45.2542 174.58 45.2528 174.429C45.2515 174.293 45.2873 174.088 45.3905 173.835L44.8061 173.596ZM52.8131 162.198L53.391 162.452C53.8763 161.348 54.7537 161.198 55.3081 161.438C55.5983 161.564 55.8302 161.802 55.9348 162.132C56.039 162.461 56.0353 162.944 55.728 163.576L56.2957 163.852L56.8634 164.128C57.2819 163.267 57.3593 162.448 57.1383 161.751C56.9178 161.055 56.4183 160.543 55.8097 160.279C54.5666 159.741 52.9768 160.257 52.2352 161.944L52.8131 162.198ZM56.2957 163.852L55.7173 163.599L46.9313 183.69L47.5096 183.943L48.088 184.196L56.874 164.105L56.2957 163.852ZM47.5096 183.943L46.9418 183.667C46.5305 184.514 46.4222 185.311 46.5788 185.999C46.7358 186.69 47.1513 187.226 47.6965 187.54C48.8048 188.176 50.3079 187.831 51.1018 186.419L50.5515 186.11L50.0013 185.8C49.5276 186.643 48.784 186.708 48.3253 186.445C48.087 186.308 47.889 186.067 47.8098 185.719C47.7301 185.368 47.7629 184.866 48.0774 184.218L47.5096 183.943ZM50.5515 186.11L51.1171 186.39L55.0681 178.417L54.5025 178.137L53.9369 177.857L49.9859 185.829L50.5515 186.11Z" fill="#00EEF7"/>
<path d="M58.2926 204.198C77.7741 213.499 97.3936 224.339 115.591 235.993C121.772 239.954 131.195 245.972 135.666 251.602C142.88 260.691 124.779 254.614 121.178 253.417C102.417 247.192 80.6729 235.144 63.4541 225.483C50.4484 218.191 27.3479 206.29 17.8772 195.421C9.03674 185.276 30.1567 192.491 34.0638 193.847C42.058 196.617 50.6525 200.543 58.2926 204.192V204.198Z" fill="url(#paint5_linear_3052_29996)"/>
<path d="M13.2654 188.737C10.7207 191.066 11.963 192.887 13.6435 195.286C19.123 203.12 34.2173 212.787 42.4756 218.057C47.427 221.216 52.6425 224.588 57.6659 227.482C64.1657 231.225 71.0496 234.396 77.6875 237.904C79.1279 237.992 78.0596 237.355 77.6035 237.025C76.7692 236.412 75.731 236.059 75.0048 235.281C75.0708 234.785 75.743 235.051 76.0911 235.169C81.0905 236.849 87.7283 241.228 92.7998 243.586C103.021 248.337 112.971 252.316 124.093 255.34C124.573 255.469 130.388 256.336 129.44 257.002C124.747 257.185 120.39 254.721 115.96 253.772C115.468 253.666 114.256 253.288 114.376 254.131C120.954 255.682 130.178 259.902 136.948 258.888C138.245 258.694 141.287 258.096 140.087 259.342C133.917 261.942 126.985 260.55 120.69 259.153C91.1073 252.599 47.9791 229.516 24.2245 210.677C20.0653 207.382 9.47831 197.638 8.52404 192.669C7.92988 189.563 10.3486 187.606 13.2714 188.731L13.2654 188.737Z" fill="url(#paint6_linear_3052_29996)"/>
<path d="M68.9843 204.196C91.6767 214.865 114.153 226.978 133.064 243.654C133.965 244.444 137.782 247.302 136.719 248.411C135.519 249.666 134.151 246.736 133.941 246.524C119.657 231.888 82.4822 212.507 63.4928 203.624C50.9553 197.759 37.6375 193.226 24.4758 188.935C24.4758 188.935 23.1719 188.756 23.1719 188.278C23.1719 187.8 23.9597 187.773 23.9597 187.773C39.4741 191.269 54.6343 197.44 68.9843 204.19V204.196Z" fill="url(#paint7_linear_3052_29996)"/>
<path d="M6.44041 190.658C7.1366 195.721 11.3438 199.635 14.7347 203.313C23.5332 212.851 34.9844 219.447 45.6494 226.856C47.4559 228.111 49.5986 229.243 51.183 230.752C48.7583 230.829 46.9698 228.748 45.0253 227.493C37.4992 222.63 29.2348 217.448 22.0688 211.848C11.2509 204.339 5 192.546 5 190.893C5 189.24 6.19549 189.242 6.44641 190.658C6.69733 192.073 6.44041 190.658 6.44041 190.658Z" fill="url(#paint8_linear_3052_29996)"/>
<path d="M132.68 263.599C132.919 263.36 134.993 263.922 136.109 264.064C141.349 264.724 149.895 264.795 147.572 258.051C147.265 257.144 145.831 254.992 146.696 254.627C148.461 254.037 151.378 260.692 151.33 262.525C151.288 263.922 150.236 266.537 147.651 267.023C143.161 267.866 137.196 265.19 132.838 264.164C132.619 264.039 132.441 263.838 132.68 263.599Z" fill="url(#paint9_linear_3052_29996)"/>
<path d="M21.3395 182.724C24.5624 183.95 28.3014 184.917 31.6324 186.231C32.3706 186.52 32.9715 186.611 32.6947 187.304C24.7784 185.3 9.53996 182.546 6.94141 185.872C7.34352 180.231 17.6064 181.304 21.3335 182.724H21.3395Z" fill="url(#paint10_linear_3052_29996)"/>
<path d="M59.732 225.696L74.5082 234.09C73.4999 234.208 72.6717 234.073 71.7234 233.731C68.6625 232.623 61.4965 228.32 58.3456 226.469C57.8955 226.203 57.7395 225.419 57.1993 225.101C50.0333 220.863 42.4352 217.102 36.1094 211.662C37.0276 211.514 37.5318 211.715 38.312 212.121C45.1419 215.652 52.3379 222.413 59.732 225.702V225.696Z" fill="url(#paint11_linear_3052_29996)"/>
<path d="M137.536 244.752C137.722 244.953 138.813 245.894 138.417 246.379C138.02 246.865 136.731 245.784 136.731 245.784L120.484 232.993C118.811 231.795 120.245 231.555 121.331 232.256C123.593 233.468 135.843 242.884 137.53 244.752H137.536Z" fill="url(#paint12_linear_3052_29996)"/>
<path d="M49.7182 194.459C49.0081 194.42 42.114 192.16 38.555 190.869C37.2947 190.415 34.4087 189.236 34.6599 188.735C34.8869 188.281 37.1987 189.219 38.435 189.56C40.7817 190.209 46.5553 192.018 48.5418 193.003C49.25 193.357 49.4719 193.302 50.1892 194.019C50.1892 194.019 50.4283 194.497 49.7182 194.459Z" fill="url(#paint13_linear_3052_29996)"/>
<path d="M119.958 259.885C122.16 261.064 125.986 262.157 129.915 262.979C129.273 263.946 127.908 263.512 126.942 263.353C125.382 263.094 120.763 261.93 119.724 261.064C118.962 260.433 119.291 259.766 119.958 259.885Z" fill="url(#paint14_linear_3052_29996)"/>
<path d="M43.1838 189.167C43.9739 189.477 43.7349 190.434 42.6799 190.169C41.8696 190.052 38.4307 188.867 37.5604 188.484C36.8162 188.153 35.8447 187.565 36.5942 187.311L43.3941 189.226L43.1838 189.167Z" fill="url(#paint15_linear_3052_29996)"/>
<path d="M141.101 254.139C140.669 254.551 139.967 254.221 139.522 253.538C138.874 252.547 138.256 251.858 137.704 251.038C137.266 250.39 137.32 249.865 137.944 249.859C138.964 249.842 141.941 253.337 141.107 254.145L141.101 254.139Z" fill="url(#paint16_linear_3052_29996)"/>
<g filter="url(#filter11_d_3052_29996)">
<path d="M48.484 203.308C51.568 205.23 60.8374 210.959 64.9818 213.828C67.3725 215.27 73.8283 218.14 75.7411 218.85C84.1094 221.009 87.6958 223.878 91.7605 228.421C96.7815 231.29 105.548 234.876 107.541 235.594C114.236 238.463 116.866 239.658 118.061 240.854C120.93 243.484 118.779 246.592 115.192 245.397C113.569 244.856 110.649 243.245 104.672 239.18C102.759 237.879 92.956 232.246 90.3261 230.573C83.3921 228.421 79.3274 225.312 73.8283 221.241C72.6327 220.356 65.9379 217.422 63.547 215.988C57.3304 213.119 49.3607 209.365 45.1367 206.655C39.8766 203.551 42.0282 199.283 48.484 203.308Z" fill="#D9E9FF"/>
</g>
<g filter="url(#filter12_d_3052_29996)">
<path d="M28.395 199.017L37.9596 205.464C39.1548 206.427 38.1984 207.622 37.2424 206.899L26.0047 199.247C15.7231 191.844 24.3304 190.41 31.2649 193.987C35.6643 196.474 32.3644 197.263 29.8296 196.148C27.677 195.201 25.5258 197.104 28.395 199.017Z" fill="#D9E9FF"/>
</g>
<g filter="url(#filter13_d_3052_29996)">
<path d="M129.296 250.883C113.012 246.979 104.286 243.756 89.3009 235.651C88.089 235.166 88.2752 236.271 88.6491 236.537C102.756 247.057 126.851 252.133 130.082 252.328C133.313 252.524 132.873 248.847 130.607 247.855C128.34 246.862 128.293 248.184 129.774 248.97C131.032 249.638 131.281 251.529 129.296 250.883Z" fill="#D9E9FF"/>
</g>
<g filter="url(#filter14_d_3052_29996)">
<ellipse cx="37.7521" cy="197.417" rx="2.39098" ry="1.19549" transform="rotate(21.5898 37.7521 197.417)" fill="#D9E9FF"/>
</g>
<g filter="url(#filter15_d_3052_29996)">
<path d="M53.9805 204.518C54.6978 204.996 56.5627 206 58.2842 206.191C59.1609 206.191 61.3925 206.813 63.3053 209.3C63.9429 210.097 65.8397 211.738 68.3263 211.93C69.9203 212.089 73.1083 212.743 73.1083 214.081" stroke="#D9E9FF" stroke-width="0.956391" stroke-linecap="round"/>
</g>
<g filter="url(#filter16_d_3052_29996)">
<path d="M70.7188 222.928C71.8345 223.007 74.5921 223.932 76.6962 226.992" stroke="#D9E9FF" stroke-width="0.956391" stroke-linecap="round"/>
</g>
<g filter="url(#filter17_d_3052_29996)">
<path d="M94.3906 226.754C95.4995 226.607 98.387 226.955 101.066 229.528" stroke="#D9E9FF" stroke-width="0.956391" stroke-linecap="round"/>
</g>
<g filter="url(#filter18_d_3052_29996)">
<path d="M92.4766 234.844C92.9832 235.299 95.4181 236.359 96.3021 236.506" stroke="#D9E9FF" stroke-width="0.956391" stroke-linecap="round"/>
</g>
<g filter="url(#filter19_d_3052_29996)">
<path d="M97.2539 237.139C97.5732 237.582 98.7284 238.106 99.0345 238.14" stroke="#D9E9FF" stroke-width="0.956391" stroke-linecap="round"/>
</g>
<g filter="url(#filter20_d_3052_29996)">
<path d="M125.468 245.873C126.584 246.989 127.716 249.077 123.316 248.503" stroke="#D9E9FF" stroke-width="0.956391" stroke-linecap="round"/>
</g>
<g filter="url(#filter21_d_3052_29996)">
<ellipse cx="123.795" cy="243.242" rx="1.67368" ry="0.956391" transform="rotate(40.5264 123.795 243.242)" fill="#D9E9FF"/>
</g>
<g filter="url(#filter22_d_3052_29996)">
<path d="M67.6676 224.147C67.1895 224.387 50.6916 214.822 49.9744 213.866C49.2571 212.91 55.5533 214.663 59.0601 217.214C66.3287 218.17 68.1457 223.908 67.6676 224.147Z" fill="#D9E9FF"/>
</g>
<g filter="url(#filter23_d_3052_29996)">
<path d="M93.0289 224.836C92.8963 225.03 85.3066 220.829 84.8854 220.316C84.4643 219.803 87.0402 220.246 88.7409 221.455C91.5344 221.313 93.1616 224.641 93.0289 224.836Z" fill="#D9E9FF"/>
</g>
<path d="M236.943 54.6662C246.191 74.3746 257.043 94.2595 268.779 112.743C272.768 119.022 278.829 128.592 284.601 133.203C293.922 140.642 288.007 122.394 286.844 118.764C280.792 99.8528 268.728 77.8137 259.05 60.3583C251.746 47.1741 239.869 23.7827 228.743 14.043C218.359 4.95143 225.389 26.2457 226.712 30.1856C229.414 38.2468 233.308 46.9369 236.936 54.6661L236.943 54.6662Z" fill="url(#paint17_linear_3052_29996)"/>
<path d="M221.875 9.26436C224.367 6.77858 226.24 8.06611 228.705 9.80607C236.756 15.4799 246.491 30.8115 251.798 39.1992C254.979 44.2281 258.376 49.5264 261.278 54.6207C265.032 61.2123 268.179 68.1735 271.684 74.8971C271.741 76.3394 271.102 75.2554 270.768 74.7912C270.148 73.9419 269.803 72.895 269.008 72.1496C268.489 72.2032 268.75 72.8818 268.865 73.2328C270.5 78.2728 274.916 85.0182 277.257 90.1471C281.974 100.484 285.892 110.531 288.784 121.725C288.908 122.208 289.674 128.044 290.392 127.112C290.695 122.425 288.226 118.007 287.341 113.556C287.242 113.061 286.877 111.84 287.754 111.981C289.216 118.595 293.403 127.923 292.182 134.665C291.948 135.957 291.251 138.983 292.581 137.815C295.444 131.712 294.157 124.747 292.848 118.418C286.71 88.6804 263.634 44.9876 244.526 20.7688C241.185 16.5284 231.261 5.70089 226.094 4.62267C222.864 3.95102 220.762 6.32008 221.868 9.27021L221.875 9.26436Z" fill="url(#paint18_linear_3052_29996)"/>
<path d="M236.688 65.3583C247.288 88.3109 259.402 111.084 276.366 130.406C277.169 131.326 280.064 135.214 281.247 134.179C282.587 133.011 279.56 131.569 279.343 131.354C264.399 116.708 245.046 79.06 236.223 59.8541C230.397 47.1735 225.981 33.7463 221.814 20.481C221.814 20.481 221.659 19.173 221.16 19.161C220.66 19.1491 220.614 19.936 220.614 19.936C223.893 35.5333 229.976 50.8435 236.682 65.3582L236.688 65.3583Z" fill="url(#paint19_linear_3052_29996)"/>
<path d="M224.042 2.48929C229.314 3.31187 233.301 7.61569 237.062 11.0976C246.812 20.132 253.427 31.7448 260.91 42.592C262.179 44.4294 263.309 46.5997 264.847 48.2214C264.985 45.7993 262.855 43.9593 261.59 41.9839C256.691 34.3384 251.478 25.9469 245.801 18.643C240.219 11.4614 226.049 1.09652 224.323 1.0552C222.596 1.01387 222.569 2.20906 224.042 2.49529C225.515 2.78153 224.042 2.48929 224.042 2.48929Z" fill="url(#paint20_linear_3052_29996)"/>
<path d="M297.204 130.507C296.948 130.74 297.486 132.827 297.607 133.947C298.171 139.201 298.041 147.747 291.053 145.256C290.112 144.927 287.899 143.439 287.497 144.295C286.839 146.044 293.72 149.126 295.636 149.124C297.096 149.117 299.852 148.132 300.421 145.559C301.409 141.092 298.757 135.061 297.79 130.679C297.665 130.457 297.459 130.274 297.204 130.507Z" fill="url(#paint21_linear_3052_29996)"/>
<path d="M215.399 17.1957C216.602 20.4484 217.522 24.2105 218.815 27.5734C219.099 28.3186 219.18 28.9216 219.911 28.6622C218.007 20.6981 215.495 5.39516 219.031 2.88048C213.129 3.14146 214.004 13.4282 215.399 17.1897L215.399 17.1957Z" fill="url(#paint22_linear_3052_29996)"/>
<path d="M259.366 56.6379L267.779 71.6196C267.927 70.6146 267.805 69.7832 267.47 68.8267C266.386 65.739 262.064 58.4674 260.206 55.2712C259.94 54.8146 259.125 54.639 258.805 54.091C254.55 46.8211 250.804 39.1311 245.273 32.6711C245.097 33.5854 245.294 34.0944 245.701 34.8846C249.225 41.8008 256.114 49.1638 259.372 56.638L259.366 56.6379Z" fill="url(#paint23_linear_3052_29996)"/>
<path d="M277.408 134.896C277.613 135.087 278.57 136.202 279.086 135.817C279.603 135.433 278.505 134.117 278.505 134.117L265.534 117.555C264.323 115.852 264.039 117.28 264.745 118.383C265.956 120.675 275.497 133.157 277.408 134.89L277.408 134.896Z" fill="url(#paint24_linear_3052_29996)"/>
<path d="M226.979 45.858C226.956 45.1472 224.76 38.1986 223.497 34.6084C223.053 33.337 221.89 30.4224 221.361 30.661C220.881 30.8766 221.805 33.2111 222.133 34.4556C222.754 36.8178 224.506 42.6351 225.486 44.6456C225.839 45.3625 225.776 45.5829 226.508 46.3179C226.508 46.3179 227.002 46.5689 226.979 45.858Z" fill="url(#paint25_linear_3052_29996)"/>
<path d="M293.639 117.697C294.817 119.927 295.868 123.779 296.633 127.728C297.658 127.11 297.237 125.735 297.094 124.765C296.86 123.199 295.756 118.552 294.876 117.492C294.235 116.715 293.531 117.027 293.639 117.697Z" fill="url(#paint26_linear_3052_29996)"/>
<path d="M221.607 39.1911C221.912 39.9888 222.917 39.7737 222.666 38.7124C222.562 37.8995 221.407 34.4319 221.028 33.5523C220.701 32.8 220.109 31.814 219.826 32.557L221.664 39.4028L221.607 39.1911Z" fill="url(#paint27_linear_3052_29996)"/>
<path d="M287.124 138.701C287.565 138.279 287.237 137.569 286.533 137.108C285.515 136.435 284.809 135.8 283.967 135.227C283.3 134.773 282.751 134.814 282.73 135.438C282.687 136.458 286.266 139.521 287.13 138.707L287.124 138.701Z" fill="url(#paint28_linear_3052_29996)"/>
<g filter="url(#filter24_d_3052_29996)">
<path d="M236.249 44.8338C238.183 47.9649 243.945 57.3749 246.842 61.5898C248.291 64.0159 251.134 70.5416 251.83 72.4716C253.884 80.8914 256.795 84.5486 261.442 88.7256C264.319 93.817 267.855 102.671 268.556 104.681C271.393 111.445 272.579 114.105 273.799 115.33C276.477 118.264 279.775 116.19 278.612 112.575C278.086 110.939 276.473 107.98 272.371 101.902C271.058 99.9574 265.409 90.0164 263.724 87.3454C261.643 80.3596 258.494 76.2184 254.373 70.6191C253.477 69.4017 250.573 62.6355 249.132 60.2094C246.284 53.9229 242.555 45.8616 239.825 41.571C236.709 36.2348 232.201 38.2791 236.249 44.8338Z" fill="#D9E9FF"/>
</g>
<g filter="url(#filter25_d_3052_29996)">
<path d="M232.243 24.6456L238.747 34.3687C239.724 35.5875 240.996 34.6613 240.264 33.6875L232.54 22.2618C225.054 11.798 223.35 20.367 226.921 27.3889C229.412 31.8492 230.316 28.5701 229.212 26.0081C228.274 23.8325 230.314 21.7295 232.243 24.6456Z" fill="#D9E9FF"/>
</g>
<g filter="url(#filter26_d_3052_29996)">
<path d="M284.008 126.823C280.321 110.447 277.163 101.643 269.057 86.4586C268.579 85.235 269.728 85.4488 269.998 85.8292C280.648 100.195 285.372 124.41 285.499 127.645C285.626 130.88 281.796 130.348 280.814 128.058C279.831 125.767 281.213 125.752 281.999 127.253C282.666 128.527 284.635 128.824 284.008 126.823Z" fill="#D9E9FF"/>
</g>
<g filter="url(#filter27_d_3052_29996)">
<ellipse cx="2.40573" cy="1.24185" rx="2.40573" ry="1.24185" transform="matrix(0.359835 0.933016 0.94337 -0.331742 228.316 32.1348)" fill="#D9E9FF"/>
</g>
<g filter="url(#filter28_d_3052_29996)">
<path d="M237.375 50.3652C237.857 51.0943 238.861 52.9838 239.02 54.7096C238.999 55.586 239.595 57.8325 242.146 59.8069C242.963 60.4643 244.633 62.4016 244.773 64.8923C244.901 66.4898 245.508 69.6932 246.906 69.7267" stroke="#D9E9FF" stroke-width="0.956391" stroke-linecap="round"/>
</g>
<g filter="url(#filter29_d_3052_29996)">
<path d="M256.203 67.5566C256.26 68.6741 257.159 71.454 260.305 73.634" stroke="#D9E9FF" stroke-width="0.956391" stroke-linecap="round"/>
</g>
<g filter="url(#filter30_d_3052_29996)">
<path d="M259.645 91.3223C259.464 92.4272 259.759 95.3225 262.382 98.0648" stroke="#D9E9FF" stroke-width="0.956391" stroke-linecap="round"/>
</g>
<g filter="url(#filter31_d_3052_29996)">
<path d="M268.137 89.6074C268.6 90.1253 269.648 92.586 269.782 93.4735" stroke="#D9E9FF" stroke-width="0.956391" stroke-linecap="round"/>
</g>
<g filter="url(#filter32_d_3052_29996)">
<path d="M270.418 94.4395C270.874 94.7697 271.393 95.9377 271.421 96.2446" stroke="#D9E9FF" stroke-width="0.956391" stroke-linecap="round"/>
</g>
<g filter="url(#filter33_d_3052_29996)">
<path d="M278.866 122.874C280.005 124.017 282.159 125.201 281.665 120.788" stroke="#D9E9FF" stroke-width="0.956391" stroke-linecap="round"/>
</g>
<g filter="url(#filter34_d_3052_29996)">
<ellipse cx="1.70569" cy="0.981332" rx="1.70569" ry="0.981332" transform="matrix(0.648084 0.761569 0.788852 -0.614583 274.277 120.43)" fill="#D9E9FF"/>
</g>
<g filter="url(#filter35_d_3052_29996)">
<path d="M257.551 64.5258C257.812 64.0538 248.217 47.3215 247.236 46.5806C246.255 45.8397 247.935 52.1778 250.515 55.7474C251.34 63.0378 257.289 64.9978 257.551 64.5258Z" fill="#D9E9FF"/>
</g>
<g filter="url(#filter36_d_3052_29996)">
<path d="M257.671 89.911C257.877 89.7833 253.672 82.0908 253.146 81.6569C252.62 81.223 253.021 83.8093 254.243 85.5397C254.028 88.3289 257.465 90.0388 257.671 89.911Z" fill="#D9E9FF"/>
</g>
</g>
<defs>
<filter id="filter0_ii_3052_29996" x="81.9413" y="65.873" width="130.367" height="132.885" filterUnits="userSpaceOnUse" color-interpolation-filters="sRGB">
<feFlood flood-opacity="0" result="BackgroundImageFix"/>
<feBlend mode="normal" in="SourceGraphic" in2="BackgroundImageFix" result="shape"/>
<feColorMatrix in="SourceAlpha" type="matrix" values="0 0 0 0 0 0 0 0 0 0 0 0 0 0 0 0 0 0 127 0" result="hardAlpha"/>
<feOffset dx="-6.89076" dy="1.53128"/>
<feGaussianBlur stdDeviation="5.70402"/>
<feComposite in2="hardAlpha" operator="arithmetic" k2="-1" k3="1"/>
<feColorMatrix type="matrix" values="0 0 0 0 1 0 0 0 0 0.912766 0 0 0 0 0.792818 0 0 0 0.8 0"/>
<feBlend mode="normal" in2="shape" result="effect1_innerShadow_3052_29996"/>
<feColorMatrix in="SourceAlpha" type="matrix" values="0 0 0 0 0 0 0 0 0 0 0 0 0 0 0 0 0 0 127 0" result="hardAlpha"/>
<feOffset dx="-0.76564" dy="0.76564"/>
<feGaussianBlur stdDeviation="0.38282"/>
<feComposite in2="hardAlpha" operator="arithmetic" k2="-1" k3="1"/>
<feColorMatrix type="matrix" values="0 0 0 0 0.871206 0 0 0 0 1 0 0 0 0 0.997853 0 0 0 0.5 0"/>
<feBlend mode="normal" in2="effect1_innerShadow_3052_29996" result="effect2_innerShadow_3052_29996"/>
</filter>
<filter id="filter1_n_3052_29996" x="61.8164" y="50.2109" width="177.668" height="160.252" filterUnits="userSpaceOnUse" color-interpolation-filters="sRGB">
<feFlood flood-opacity="0" result="BackgroundImageFix"/>
<feBlend mode="normal" in="SourceGraphic" in2="BackgroundImageFix" result="shape"/>
<feTurbulence type="fractalNoise" baseFrequency="0.13605174422264099 0.13605174422264099" stitchTiles="stitch" numOctaves="3" result="noise" seed="1999" />
<feColorMatrix in="noise" type="luminanceToAlpha" result="alphaNoise" />
<feComponentTransfer in="alphaNoise" result="coloredNoise1">
<feFuncA type="discrete" tableValues="1 1 1 1 1 1 1 1 1 1 1 1 1 1 1 1 1 1 1 1 1 1 1 1 1 1 1 1 1 1 1 1 1 1 1 1 1 1 1 1 1 1 1 1 1 1 1 1 1 1 1 0 0 0 0 0 0 0 0 0 0 0 0 0 0 0 0 0 0 0 0 0 0 0 0 0 0 0 0 0 0 0 0 0 0 0 0 0 0 0 0 0 0 0 0 0 0 0 0 0 "/>
</feComponentTransfer>
<feComposite operator="in" in2="shape" in="coloredNoise1" result="noise1Clipped" />
<feFlood flood-color="rgba(0, 0, 0, 0.08)" result="color1Flood" />
<feComposite operator="in" in2="noise1Clipped" in="color1Flood" result="color1" />
<feMerge result="effect1_noise_3052_29996">
<feMergeNode in="shape" />
<feMergeNode in="color1" />
</feMerge>
</filter>
<filter id="filter2_ii_3052_29996" x="99.0522" y="195.24" width="71.94" height="27.5157" filterUnits="userSpaceOnUse" color-interpolation-filters="sRGB">
<feFlood flood-opacity="0" result="BackgroundImageFix"/>
<feBlend mode="normal" in="SourceGraphic" in2="BackgroundImageFix" result="shape"/>
<feColorMatrix in="SourceAlpha" type="matrix" values="0 0 0 0 0 0 0 0 0 0 0 0 0 0 0 0 0 0 127 0" result="hardAlpha"/>
<feOffset dx="-8.42204" dy="1.53128"/>
<feGaussianBlur stdDeviation="4.05789"/>
<feComposite in2="hardAlpha" operator="arithmetic" k2="-1" k3="1"/>
<feColorMatrix type="matrix" values="0 0 0 0 0.869328 0 0 0 0 0.719989 0 0 0 0 1 0 0 0 0.2 0"/>
<feBlend mode="normal" in2="shape" result="effect1_innerShadow_3052_29996"/>
<feColorMatrix in="SourceAlpha" type="matrix" values="0 0 0 0 0 0 0 0 0 0 0 0 0 0 0 0 0 0 127 0" result="hardAlpha"/>
<feOffset dx="-0.76564"/>
<feGaussianBlur stdDeviation="0.38282"/>
<feComposite in2="hardAlpha" operator="arithmetic" k2="-1" k3="1"/>
<feColorMatrix type="matrix" values="0 0 0 0 0.858824 0 0 0 0 0.976471 0 0 0 0 0.984314 0 0 0 0.2 0"/>
<feBlend mode="normal" in2="effect1_innerShadow_3052_29996" result="effect2_innerShadow_3052_29996"/>
</filter>
<filter id="filter3_g_3052_29996" x="127.555" y="129.422" width="27.0352" height="24.3516" filterUnits="userSpaceOnUse" color-interpolation-filters="sRGB">
<feFlood flood-opacity="0" result="BackgroundImageFix"/>
<feBlend mode="normal" in="SourceGraphic" in2="BackgroundImageFix" result="shape"/>
<feTurbulence type="fractalNoise" baseFrequency="1.451218843460083 1.451218843460083" numOctaves="3" seed="3511" />
<feDisplacementMap in="shape" scale="0.76563990116119385" xChannelSelector="R" yChannelSelector="G" result="displacedImage" width="100%" height="100%" />
<feMerge result="effect1_texture_3052_29996">
<feMergeNode in="displacedImage"/>
</feMerge>
</filter>
<filter id="filter4_g_3052_29996" x="133.663" y="132.272" width="18.3349" height="16.9618" filterUnits="userSpaceOnUse" color-interpolation-filters="sRGB">
<feFlood flood-opacity="0" result="BackgroundImageFix"/>
<feBlend mode="normal" in="SourceGraphic" in2="BackgroundImageFix" result="shape"/>
<feTurbulence type="fractalNoise" baseFrequency="2.2095952033996582 2.2095952033996582" numOctaves="3" seed="3511" />
<feDisplacementMap in="shape" scale="0.5028572678565979" xChannelSelector="R" yChannelSelector="G" result="displacedImage" width="100%" height="100%" />
<feMerge result="effect1_texture_3052_29996">
<feMergeNode in="displacedImage"/>
</feMerge>
</filter>
<filter id="filter5_g_3052_29996" x="163.953" y="139.711" width="24.6094" height="24.1856" filterUnits="userSpaceOnUse" color-interpolation-filters="sRGB">
<feFlood flood-opacity="0" result="BackgroundImageFix"/>
<feBlend mode="normal" in="SourceGraphic" in2="BackgroundImageFix" result="shape"/>
<feTurbulence type="fractalNoise" baseFrequency="1.451218843460083 1.451218843460083" numOctaves="3" seed="3511" />
<feDisplacementMap in="shape" scale="0.76563990116119385" xChannelSelector="R" yChannelSelector="G" result="displacedImage" width="100%" height="100%" />
<feMerge result="effect1_texture_3052_29996">
<feMergeNode in="displacedImage"/>
</feMerge>
</filter>
<filter id="filter6_g_3052_29996" x="168.456" y="142.09" width="18.0615" height="17.1513" filterUnits="userSpaceOnUse" color-interpolation-filters="sRGB">
<feFlood flood-opacity="0" result="BackgroundImageFix"/>
<feBlend mode="normal" in="SourceGraphic" in2="BackgroundImageFix" result="shape"/>
<feTurbulence type="fractalNoise" baseFrequency="2.2095952033996582 2.2095952033996582" numOctaves="3" seed="3511" />
<feDisplacementMap in="shape" scale="0.5028572678565979" xChannelSelector="R" yChannelSelector="G" result="displacedImage" width="100%" height="100%" />
<feMerge result="effect1_texture_3052_29996">
<feMergeNode in="displacedImage"/>
</feMerge>
</filter>
<filter id="filter7_d_3052_29996" x="0.83275" y="1.05469" width="303.971" height="274.465" filterUnits="userSpaceOnUse" color-interpolation-filters="sRGB">
<feFlood flood-opacity="0" result="BackgroundImageFix"/>
<feColorMatrix in="SourceAlpha" type="matrix" values="0 0 0 0 0 0 0 0 0 0 0 0 0 0 0 0 0 0 127 0" result="hardAlpha"/>
<feOffset dy="4.16725"/>
<feGaussianBlur stdDeviation="2.08363"/>
<feComposite in2="hardAlpha" operator="out"/>
<feColorMatrix type="matrix" values="0 0 0 0 0 0 0 0 0 0 0 0 0 0 0 0 0 0 0.25 0"/>
<feBlend mode="normal" in2="BackgroundImageFix" result="effect1_dropShadow_3052_29996"/>
<feBlend mode="normal" in="SourceGraphic" in2="effect1_dropShadow_3052_29996" result="shape"/>
</filter>
<filter id="filter8_f_3052_29996" x="222.651" y="66.641" width="15.8821" height="10.8606" filterUnits="userSpaceOnUse" color-interpolation-filters="sRGB">
<feFlood flood-opacity="0" result="BackgroundImageFix"/>
<feBlend mode="normal" in="SourceGraphic" in2="BackgroundImageFix" result="shape"/>
<feGaussianBlur stdDeviation="1.04181" result="effect1_foregroundBlur_3052_29996"/>
</filter>
<filter id="filter9_f_3052_29996" x="226.952" y="68.309" width="12.7727" height="8.9485" filterUnits="userSpaceOnUse" color-interpolation-filters="sRGB">
<feFlood flood-opacity="0" result="BackgroundImageFix"/>
<feBlend mode="normal" in="SourceGraphic" in2="BackgroundImageFix" result="shape"/>
<feGaussianBlur stdDeviation="1.04181" result="effect1_foregroundBlur_3052_29996"/>
</filter>
<filter id="filter10_d_3052_29996" x="18.3735" y="8.43321" width="273.362" height="260.519" filterUnits="userSpaceOnUse" color-interpolation-filters="sRGB">
<feFlood flood-opacity="0" result="BackgroundImageFix"/>
<feColorMatrix in="SourceAlpha" type="matrix" values="0 0 0 0 0 0 0 0 0 0 0 0 0 0 0 0 0 0 127 0" result="hardAlpha"/>
<feOffset dy="5.04991"/>
<feGaussianBlur stdDeviation="2.84058"/>
<feComposite in2="hardAlpha" operator="out"/>
<feColorMatrix type="matrix" values="0 0 0 0 0.475962 0 0 0 0 0.947596 0 0 0 0 1 0 0 0 0.78 0"/>
<feBlend mode="normal" in2="BackgroundImageFix" result="effect1_dropShadow_3052_29996"/>
<feBlend mode="normal" in="SourceGraphic" in2="effect1_dropShadow_3052_29996" result="shape"/>
</filter>
<filter id="filter11_d_3052_29996" x="42.1319" y="201.668" width="77.3066" height="45.4746" filterUnits="userSpaceOnUse" color-interpolation-filters="sRGB">
<feFlood flood-opacity="0" result="BackgroundImageFix"/>
<feColorMatrix in="SourceAlpha" type="matrix" values="0 0 0 0 0 0 0 0 0 0 0 0 0 0 0 0 0 0 127 0" result="hardAlpha"/>
<feOffset dy="1.43459"/>
<feGaussianBlur stdDeviation="0.0239098"/>
<feComposite in2="hardAlpha" operator="out"/>
<feColorMatrix type="matrix" values="0 0 0 0 0 0 0 0 0 0.328572 0 0 0 0 0.758244 0 0 0 0.28 0"/>
<feBlend mode="normal" in2="BackgroundImageFix" result="effect1_dropShadow_3052_29996"/>
<feBlend mode="normal" in="SourceGraphic" in2="effect1_dropShadow_3052_29996" result="shape"/>
</filter>
<filter id="filter12_d_3052_29996" x="21.21" y="192.113" width="17.3535" height="16.012" filterUnits="userSpaceOnUse" color-interpolation-filters="sRGB">
<feFlood flood-opacity="0" result="BackgroundImageFix"/>
<feColorMatrix in="SourceAlpha" type="matrix" values="0 0 0 0 0 0 0 0 0 0 0 0 0 0 0 0 0 0 127 0" result="hardAlpha"/>
<feOffset dy="0.956391"/>
<feGaussianBlur stdDeviation="0.0239098"/>
<feComposite in2="hardAlpha" operator="out"/>
<feColorMatrix type="matrix" values="0 0 0 0 0 0 0 0 0 0.328572 0 0 0 0 0.758244 0 0 0 0.28 0"/>
<feBlend mode="normal" in2="BackgroundImageFix" result="effect1_dropShadow_3052_29996"/>
<feBlend mode="normal" in="SourceGraphic" in2="effect1_dropShadow_3052_29996" result="shape"/>
</filter>
<filter id="filter13_d_3052_29996" x="88.3194" y="235.529" width="44.1347" height="17.8109" filterUnits="userSpaceOnUse" color-interpolation-filters="sRGB">
<feFlood flood-opacity="0" result="BackgroundImageFix"/>
<feColorMatrix in="SourceAlpha" type="matrix" values="0 0 0 0 0 0 0 0 0 0 0 0 0 0 0 0 0 0 127 0" result="hardAlpha"/>
<feOffset dy="0.956391"/>
<feGaussianBlur stdDeviation="0.0239098"/>
<feComposite in2="hardAlpha" operator="out"/>
<feColorMatrix type="matrix" values="0 0 0 0 0 0 0 0 0 0.328572 0 0 0 0 0.758244 0 0 0 0.28 0"/>
<feBlend mode="normal" in2="BackgroundImageFix" result="effect1_dropShadow_3052_29996"/>
<feBlend mode="normal" in="SourceGraphic" in2="effect1_dropShadow_3052_29996" result="shape"/>
</filter>
<filter id="filter14_d_3052_29996" x="35.4366" y="196" width="4.6308" height="3.8382" filterUnits="userSpaceOnUse" color-interpolation-filters="sRGB">
<feFlood flood-opacity="0" result="BackgroundImageFix"/>
<feColorMatrix in="SourceAlpha" type="matrix" values="0 0 0 0 0 0 0 0 0 0 0 0 0 0 0 0 0 0 127 0" result="hardAlpha"/>
<feOffset dy="0.956391"/>
<feGaussianBlur stdDeviation="0.0239098"/>
<feComposite in2="hardAlpha" operator="out"/>
<feColorMatrix type="matrix" values="0 0 0 0 0 0 0 0 0 0.328572 0 0 0 0 0.758244 0 0 0 0.28 0"/>
<feBlend mode="normal" in2="BackgroundImageFix" result="effect1_dropShadow_3052_29996"/>
<feBlend mode="normal" in="SourceGraphic" in2="effect1_dropShadow_3052_29996" result="shape"/>
</filter>
<filter id="filter15_d_3052_29996" x="53.4561" y="204.039" width="20.1777" height="11.5257" filterUnits="userSpaceOnUse" color-interpolation-filters="sRGB">
<feFlood flood-opacity="0" result="BackgroundImageFix"/>
<feColorMatrix in="SourceAlpha" type="matrix" values="0 0 0 0 0 0 0 0 0 0 0 0 0 0 0 0 0 0 127 0" result="hardAlpha"/>
<feOffset dy="0.956391"/>
<feGaussianBlur stdDeviation="0.0239098"/>
<feComposite in2="hardAlpha" operator="out"/>
<feColorMatrix type="matrix" values="0 0 0 0 0 0 0 0 0 0.328572 0 0 0 0 0.758244 0 0 0 0.28 0"/>
<feBlend mode="normal" in2="BackgroundImageFix" result="effect1_dropShadow_3052_29996"/>
<feBlend mode="normal" in="SourceGraphic" in2="effect1_dropShadow_3052_29996" result="shape"/>
</filter>
<filter id="filter16_d_3052_29996" x="70.1944" y="222.449" width="7.02923" height="6.0257" filterUnits="userSpaceOnUse" color-interpolation-filters="sRGB">
<feFlood flood-opacity="0" result="BackgroundImageFix"/>
<feColorMatrix in="SourceAlpha" type="matrix" values="0 0 0 0 0 0 0 0 0 0 0 0 0 0 0 0 0 0 127 0" result="hardAlpha"/>
<feOffset dy="0.956391"/>
<feGaussianBlur stdDeviation="0.0239098"/>
<feComposite in2="hardAlpha" operator="out"/>
<feColorMatrix type="matrix" values="0 0 0 0 0 0 0 0 0 0.328572 0 0 0 0 0.758244 0 0 0 0.28 0"/>
<feBlend mode="normal" in2="BackgroundImageFix" result="effect1_dropShadow_3052_29996"/>
<feBlend mode="normal" in="SourceGraphic" in2="effect1_dropShadow_3052_29996" result="shape"/>
</filter>
<filter id="filter17_d_3052_29996" x="93.8662" y="226.248" width="7.72455" height="4.76202" filterUnits="userSpaceOnUse" color-interpolation-filters="sRGB">
<feFlood flood-opacity="0" result="BackgroundImageFix"/>
<feColorMatrix in="SourceAlpha" type="matrix" values="0 0 0 0 0 0 0 0 0 0 0 0 0 0 0 0 0 0 127 0" result="hardAlpha"/>
<feOffset dy="0.956391"/>
<feGaussianBlur stdDeviation="0.0239098"/>
<feComposite in2="hardAlpha" operator="out"/>
<feColorMatrix type="matrix" values="0 0 0 0 0 0 0 0 0 0.328572 0 0 0 0 0.758244 0 0 0 0.28 0"/>
<feBlend mode="normal" in2="BackgroundImageFix" result="effect1_dropShadow_3052_29996"/>
<feBlend mode="normal" in="SourceGraphic" in2="effect1_dropShadow_3052_29996" result="shape"/>
</filter>
<filter id="filter18_d_3052_29996" x="91.9522" y="234.365" width="4.87689" height="3.62335" filterUnits="userSpaceOnUse" color-interpolation-filters="sRGB">
<feFlood flood-opacity="0" result="BackgroundImageFix"/>
<feColorMatrix in="SourceAlpha" type="matrix" values="0 0 0 0 0 0 0 0 0 0 0 0 0 0 0 0 0 0 127 0" result="hardAlpha"/>
<feOffset dy="0.956391"/>
<feGaussianBlur stdDeviation="0.0239098"/>
<feComposite in2="hardAlpha" operator="out"/>
<feColorMatrix type="matrix" values="0 0 0 0 0 0 0 0 0 0.328572 0 0 0 0 0.758244 0 0 0 0.28 0"/>
<feBlend mode="normal" in2="BackgroundImageFix" result="effect1_dropShadow_3052_29996"/>
<feBlend mode="normal" in="SourceGraphic" in2="effect1_dropShadow_3052_29996" result="shape"/>
</filter>
<filter id="filter19_d_3052_29996" x="96.7295" y="236.66" width="2.83001" height="2.96124" filterUnits="userSpaceOnUse" color-interpolation-filters="sRGB">
<feFlood flood-opacity="0" result="BackgroundImageFix"/>
<feColorMatrix in="SourceAlpha" type="matrix" values="0 0 0 0 0 0 0 0 0 0 0 0 0 0 0 0 0 0 127 0" result="hardAlpha"/>
<feOffset dy="0.956391"/>
<feGaussianBlur stdDeviation="0.0239098"/>
<feComposite in2="hardAlpha" operator="out"/>
<feColorMatrix type="matrix" values="0 0 0 0 0 0 0 0 0 0.328572 0 0 0 0 0.758244 0 0 0 0.28 0"/>
<feBlend mode="normal" in2="BackgroundImageFix" result="effect1_dropShadow_3052_29996"/>
<feBlend mode="normal" in="SourceGraphic" in2="effect1_dropShadow_3052_29996" result="shape"/>
</filter>
<filter id="filter20_d_3052_29996" x="122.792" y="245.395" width="4.21283" height="4.68976" filterUnits="userSpaceOnUse" color-interpolation-filters="sRGB">
<feFlood flood-opacity="0" result="BackgroundImageFix"/>
<feColorMatrix in="SourceAlpha" type="matrix" values="0 0 0 0 0 0 0 0 0 0 0 0 0 0 0 0 0 0 127 0" result="hardAlpha"/>
<feOffset dy="0.956391"/>
<feGaussianBlur stdDeviation="0.0239098"/>
<feComposite in2="hardAlpha" operator="out"/>
<feColorMatrix type="matrix" values="0 0 0 0 0 0 0 0 0 0.328572 0 0 0 0 0.758244 0 0 0 0.28 0"/>
<feBlend mode="normal" in2="BackgroundImageFix" result="effect1_dropShadow_3052_29996"/>
<feBlend mode="normal" in="SourceGraphic" in2="effect1_dropShadow_3052_29996" result="shape"/>
</filter>
<filter id="filter21_d_3052_29996" x="122.331" y="241.934" width="2.92767" height="3.6214" filterUnits="userSpaceOnUse" color-interpolation-filters="sRGB">
<feFlood flood-opacity="0" result="BackgroundImageFix"/>
<feColorMatrix in="SourceAlpha" type="matrix" values="0 0 0 0 0 0 0 0 0 0 0 0 0 0 0 0 0 0 127 0" result="hardAlpha"/>
<feOffset dy="0.956391"/>
<feGaussianBlur stdDeviation="0.0239098"/>
<feComposite in2="hardAlpha" operator="out"/>
<feColorMatrix type="matrix" values="0 0 0 0 0 0 0 0 0 0.328572 0 0 0 0 0.758244 0 0 0 0.28 0"/>
<feBlend mode="normal" in2="BackgroundImageFix" result="effect1_dropShadow_3052_29996"/>
<feBlend mode="normal" in="SourceGraphic" in2="effect1_dropShadow_3052_29996" result="shape"/>
</filter>
<filter id="filter22_d_3052_29996" x="49.8701" y="213.602" width="17.916" height="11.555" filterUnits="userSpaceOnUse" color-interpolation-filters="sRGB">
<feFlood flood-opacity="0" result="BackgroundImageFix"/>
<feColorMatrix in="SourceAlpha" type="matrix" values="0 0 0 0 0 0 0 0 0 0 0 0 0 0 0 0 0 0 127 0" result="hardAlpha"/>
<feOffset dy="0.956391"/>
<feGaussianBlur stdDeviation="0.0239098"/>
<feComposite in2="hardAlpha" operator="out"/>
<feColorMatrix type="matrix" values="0 0 0 0 0 0 0 0 0 0.328572 0 0 0 0 0.758244 0 0 0 0.28 0"/>
<feBlend mode="normal" in2="BackgroundImageFix" result="effect1_dropShadow_3052_29996"/>
<feBlend mode="normal" in="SourceGraphic" in2="effect1_dropShadow_3052_29996" result="shape"/>
</filter>
<filter id="filter23_d_3052_29996" x="84.792" y="220.105" width="8.29095" height="5.74054" filterUnits="userSpaceOnUse" color-interpolation-filters="sRGB">
<feFlood flood-opacity="0" result="BackgroundImageFix"/>
<feColorMatrix in="SourceAlpha" type="matrix" values="0 0 0 0 0 0 0 0 0 0 0 0 0 0 0 0 0 0 127 0" result="hardAlpha"/>
<feOffset dy="0.956391"/>
<feGaussianBlur stdDeviation="0.0239098"/>
<feComposite in2="hardAlpha" operator="out"/>
<feColorMatrix type="matrix" values="0 0 0 0 0 0 0 0 0 0.328572 0 0 0 0 0.758244 0 0 0 0.28 0"/>
<feBlend mode="normal" in2="BackgroundImageFix" result="effect1_dropShadow_3052_29996"/>
<feBlend mode="normal" in="SourceGraphic" in2="effect1_dropShadow_3052_29996" result="shape"/>
</filter>
<filter id="filter24_d_3052_29996" x="234.593" y="38.5254" width="44.3066" height="79.6797" filterUnits="userSpaceOnUse" color-interpolation-filters="sRGB">
<feFlood flood-opacity="0" result="BackgroundImageFix"/>
<feColorMatrix in="SourceAlpha" type="matrix" values="0 0 0 0 0 0 0 0 0 0 0 0 0 0 0 0 0 0 127 0" result="hardAlpha"/>
<feOffset dy="1.43459"/>
<feGaussianBlur stdDeviation="0.0239098"/>
<feComposite in2="hardAlpha" operator="out"/>
<feColorMatrix type="matrix" values="0 0 0 0 0 0 0 0 0 0.328572 0 0 0 0 0.758244 0 0 0 0.28 0"/>
<feBlend mode="normal" in2="BackgroundImageFix" result="effect1_dropShadow_3052_29996"/>
<feBlend mode="normal" in="SourceGraphic" in2="effect1_dropShadow_3052_29996" result="shape"/>
</filter>
<filter id="filter25_d_3052_29996" x="225.081" y="17.3789" width="15.4472" height="18.5765" filterUnits="userSpaceOnUse" color-interpolation-filters="sRGB">
<feFlood flood-opacity="0" result="BackgroundImageFix"/>
<feColorMatrix in="SourceAlpha" type="matrix" values="0 0 0 0 0 0 0 0 0 0 0 0 0 0 0 0 0 0 127 0" result="hardAlpha"/>
<feOffset dy="0.956391"/>
<feGaussianBlur stdDeviation="0.0239098"/>
<feComposite in2="hardAlpha" operator="out"/>
<feColorMatrix type="matrix" values="0 0 0 0 0 0 0 0 0 0.328572 0 0 0 0 0.758244 0 0 0 0.28 0"/>
<feBlend mode="normal" in2="BackgroundImageFix" result="effect1_dropShadow_3052_29996"/>
<feBlend mode="normal" in="SourceGraphic" in2="effect1_dropShadow_3052_29996" result="shape"/>
</filter>
<filter id="filter26_d_3052_29996" x="268.894" y="85.5312" width="16.6581" height="45.3968" filterUnits="userSpaceOnUse" color-interpolation-filters="sRGB">
<feFlood flood-opacity="0" result="BackgroundImageFix"/>
<feColorMatrix in="SourceAlpha" type="matrix" values="0 0 0 0 0 0 0 0 0 0 0 0 0 0 0 0 0 0 127 0" result="hardAlpha"/>
<feOffset dy="0.956391"/>
<feGaussianBlur stdDeviation="0.0239098"/>
<feComposite in2="hardAlpha" operator="out"/>
<feColorMatrix type="matrix" values="0 0 0 0 0 0 0 0 0 0.328572 0 0 0 0 0.758244 0 0 0 0.28 0"/>
<feBlend mode="normal" in2="BackgroundImageFix" result="effect1_dropShadow_3052_29996"/>
<feBlend mode="normal" in="SourceGraphic" in2="effect1_dropShadow_3052_29996" result="shape"/>
</filter>
<filter id="filter27_d_3052_29996" x="228.851" y="31.6855" width="3.0058" height="5.56866" filterUnits="userSpaceOnUse" color-interpolation-filters="sRGB">
<feFlood flood-opacity="0" result="BackgroundImageFix"/>
<feColorMatrix in="SourceAlpha" type="matrix" values="0 0 0 0 0 0 0 0 0 0 0 0 0 0 0 0 0 0 127 0" result="hardAlpha"/>
<feOffset dy="0.956391"/>
<feGaussianBlur stdDeviation="0.0239098"/>
<feComposite in2="hardAlpha" operator="out"/>
<feColorMatrix type="matrix" values="0 0 0 0 0 0 0 0 0 0.328572 0 0 0 0 0.758244 0 0 0 0.28 0"/>
<feBlend mode="normal" in2="BackgroundImageFix" result="effect1_dropShadow_3052_29996"/>
<feBlend mode="normal" in="SourceGraphic" in2="effect1_dropShadow_3052_29996" result="shape"/>
</filter>
<filter id="filter28_d_3052_29996" x="236.851" y="49.8867" width="10.58" height="21.3226" filterUnits="userSpaceOnUse" color-interpolation-filters="sRGB">
<feFlood flood-opacity="0" result="BackgroundImageFix"/>
<feColorMatrix in="SourceAlpha" type="matrix" values="0 0 0 0 0 0 0 0 0 0 0 0 0 0 0 0 0 0 127 0" result="hardAlpha"/>
<feOffset dy="0.956391"/>
<feGaussianBlur stdDeviation="0.0239098"/>
<feComposite in2="hardAlpha" operator="out"/>
<feColorMatrix type="matrix" values="0 0 0 0 0 0 0 0 0 0.328572 0 0 0 0 0.758244 0 0 0 0.28 0"/>
<feBlend mode="normal" in2="BackgroundImageFix" result="effect1_dropShadow_3052_29996"/>
<feBlend mode="normal" in="SourceGraphic" in2="effect1_dropShadow_3052_29996" result="shape"/>
</filter>
<filter id="filter29_d_3052_29996" x="255.679" y="67.0781" width="5.15423" height="8.03741" filterUnits="userSpaceOnUse" color-interpolation-filters="sRGB">
<feFlood flood-opacity="0" result="BackgroundImageFix"/>
<feColorMatrix in="SourceAlpha" type="matrix" values="0 0 0 0 0 0 0 0 0 0 0 0 0 0 0 0 0 0 127 0" result="hardAlpha"/>
<feOffset dy="0.956391"/>
<feGaussianBlur stdDeviation="0.0239098"/>
<feComposite in2="hardAlpha" operator="out"/>
<feColorMatrix type="matrix" values="0 0 0 0 0 0 0 0 0 0.328572 0 0 0 0 0.758244 0 0 0 0.28 0"/>
<feBlend mode="normal" in2="BackgroundImageFix" result="effect1_dropShadow_3052_29996"/>
<feBlend mode="normal" in="SourceGraphic" in2="effect1_dropShadow_3052_29996" result="shape"/>
</filter>
<filter id="filter30_d_3052_29996" x="259.073" y="90.8457" width="3.83783" height="8.69952" filterUnits="userSpaceOnUse" color-interpolation-filters="sRGB">
<feFlood flood-opacity="0" result="BackgroundImageFix"/>
<feColorMatrix in="SourceAlpha" type="matrix" values="0 0 0 0 0 0 0 0 0 0 0 0 0 0 0 0 0 0 127 0" result="hardAlpha"/>
<feOffset dy="0.956391"/>
<feGaussianBlur stdDeviation="0.0239098"/>
<feComposite in2="hardAlpha" operator="out"/>
<feColorMatrix type="matrix" values="0 0 0 0 0 0 0 0 0 0.328572 0 0 0 0 0.758244 0 0 0 0.28 0"/>
<feBlend mode="normal" in2="BackgroundImageFix" result="effect1_dropShadow_3052_29996"/>
<feBlend mode="normal" in="SourceGraphic" in2="effect1_dropShadow_3052_29996" result="shape"/>
</filter>
<filter id="filter31_d_3052_29996" x="267.608" y="89.1309" width="2.70111" height="5.82257" filterUnits="userSpaceOnUse" color-interpolation-filters="sRGB">
<feFlood flood-opacity="0" result="BackgroundImageFix"/>
<feColorMatrix in="SourceAlpha" type="matrix" values="0 0 0 0 0 0 0 0 0 0 0 0 0 0 0 0 0 0 127 0" result="hardAlpha"/>
<feOffset dy="0.956391"/>
<feGaussianBlur stdDeviation="0.0239098"/>
<feComposite in2="hardAlpha" operator="out"/>
<feColorMatrix type="matrix" values="0 0 0 0 0 0 0 0 0 0.328572 0 0 0 0 0.758244 0 0 0 0.28 0"/>
<feBlend mode="normal" in2="BackgroundImageFix" result="effect1_dropShadow_3052_29996"/>
<feBlend mode="normal" in="SourceGraphic" in2="effect1_dropShadow_3052_29996" result="shape"/>
</filter>
<filter id="filter32_d_3052_29996" x="269.894" y="93.9609" width="2.05267" height="3.76593" filterUnits="userSpaceOnUse" color-interpolation-filters="sRGB">
<feFlood flood-opacity="0" result="BackgroundImageFix"/>
<feColorMatrix in="SourceAlpha" type="matrix" values="0 0 0 0 0 0 0 0 0 0 0 0 0 0 0 0 0 0 127 0" result="hardAlpha"/>
<feOffset dy="0.956391"/>
<feGaussianBlur stdDeviation="0.0239098"/>
<feComposite in2="hardAlpha" operator="out"/>
<feColorMatrix type="matrix" values="0 0 0 0 0 0 0 0 0 0.328572 0 0 0 0 0.758244 0 0 0 0.28 0"/>
<feBlend mode="normal" in2="BackgroundImageFix" result="effect1_dropShadow_3052_29996"/>
<feBlend mode="normal" in="SourceGraphic" in2="effect1_dropShadow_3052_29996" result="shape"/>
</filter>
<filter id="filter33_d_3052_29996" x="278.339" y="120.311" width="3.92376" height="5.09991" filterUnits="userSpaceOnUse" color-interpolation-filters="sRGB">
<feFlood flood-opacity="0" result="BackgroundImageFix"/>
<feColorMatrix in="SourceAlpha" type="matrix" values="0 0 0 0 0 0 0 0 0 0 0 0 0 0 0 0 0 0 127 0" result="hardAlpha"/>
<feOffset dy="0.956391"/>
<feGaussianBlur stdDeviation="0.0239098"/>
<feComposite in2="hardAlpha" operator="out"/>
<feColorMatrix type="matrix" values="0 0 0 0 0 0 0 0 0 0.328572 0 0 0 0 0.758244 0 0 0 0.28 0"/>
<feBlend mode="normal" in2="BackgroundImageFix" result="effect1_dropShadow_3052_29996"/>
<feBlend mode="normal" in="SourceGraphic" in2="effect1_dropShadow_3052_29996" result="shape"/>
</filter>
<filter id="filter34_d_3052_29996" x="274.761" y="119.693" width="2.79486" height="3.86945" filterUnits="userSpaceOnUse" color-interpolation-filters="sRGB">
<feFlood flood-opacity="0" result="BackgroundImageFix"/>
<feColorMatrix in="SourceAlpha" type="matrix" values="0 0 0 0 0 0 0 0 0 0 0 0 0 0 0 0 0 0 127 0" result="hardAlpha"/>
<feOffset dy="0.956391"/>
<feGaussianBlur stdDeviation="0.0239098"/>
<feComposite in2="hardAlpha" operator="out"/>
<feColorMatrix type="matrix" values="0 0 0 0 0 0 0 0 0 0.328572 0 0 0 0 0.758244 0 0 0 0.28 0"/>
<feBlend mode="normal" in2="BackgroundImageFix" result="effect1_dropShadow_3052_29996"/>
<feBlend mode="normal" in="SourceGraphic" in2="effect1_dropShadow_3052_29996" result="shape"/>
</filter>
<filter id="filter35_d_3052_29996" x="246.905" y="46.5215" width="10.6972" height="19.0745" filterUnits="userSpaceOnUse" color-interpolation-filters="sRGB">
<feFlood flood-opacity="0" result="BackgroundImageFix"/>
<feColorMatrix in="SourceAlpha" type="matrix" values="0 0 0 0 0 0 0 0 0 0 0 0 0 0 0 0 0 0 127 0" result="hardAlpha"/>
<feOffset dy="0.956391"/>
<feGaussianBlur stdDeviation="0.0239098"/>
<feComposite in2="hardAlpha" operator="out"/>
<feColorMatrix type="matrix" values="0 0 0 0 0 0 0 0 0 0.328572 0 0 0 0 0.758244 0 0 0 0.28 0"/>
<feBlend mode="normal" in2="BackgroundImageFix" result="effect1_dropShadow_3052_29996"/>
<feBlend mode="normal" in="SourceGraphic" in2="effect1_dropShadow_3052_29996" result="shape"/>
</filter>
<filter id="filter36_d_3052_29996" x="252.87" y="81.6094" width="4.85736" height="9.3128" filterUnits="userSpaceOnUse" color-interpolation-filters="sRGB">
<feFlood flood-opacity="0" result="BackgroundImageFix"/>
<feColorMatrix in="SourceAlpha" type="matrix" values="0 0 0 0 0 0 0 0 0 0 0 0 0 0 0 0 0 0 127 0" result="hardAlpha"/>
<feOffset dy="0.956391"/>
<feGaussianBlur stdDeviation="0.0239098"/>
<feComposite in2="hardAlpha" operator="out"/>
<feColorMatrix type="matrix" values="0 0 0 0 0 0 0 0 0 0.328572 0 0 0 0 0.758244 0 0 0 0.28 0"/>
<feBlend mode="normal" in2="BackgroundImageFix" result="effect1_dropShadow_3052_29996"/>
<feBlend mode="normal" in="SourceGraphic" in2="effect1_dropShadow_3052_29996" result="shape"/>
</filter>
<linearGradient id="paint0_linear_3052_29996" x1="238.788" y1="107.539" x2="78.7235" y2="175.463" gradientUnits="userSpaceOnUse">
<stop stop-color="#B2E5FF" stop-opacity="0.2"/>
<stop offset="1" stop-color="white" stop-opacity="0"/>
</linearGradient>
<linearGradient id="paint1_linear_3052_29996" x1="90.7074" y1="47.5028" x2="98.7029" y2="201.036" gradientUnits="userSpaceOnUse">
<stop stop-color="#3E4C8C"/>
<stop offset="0.586538" stop-color="#CECE84"/>
<stop offset="1" stop-color="#5B658F"/>
</linearGradient>
<linearGradient id="paint2_linear_3052_29996" x1="104.101" y1="67.5322" x2="121.472" y2="135.602" gradientUnits="userSpaceOnUse">
<stop stop-color="#D9F9FF"/>
<stop offset="0.440397" stop-color="#D9F9FF" stop-opacity="0"/>
</linearGradient>
<linearGradient id="paint3_linear_3052_29996" x1="76.3528" y1="96.5427" x2="90.0537" y2="105.595" gradientUnits="userSpaceOnUse">
<stop stop-color="#D9F9FF"/>
<stop offset="1" stop-color="#D9F9FF" stop-opacity="0"/>
</linearGradient>
<linearGradient id="paint4_linear_3052_29996" x1="280.99" y1="13.0048" x2="22.113" y2="240.523" gradientUnits="userSpaceOnUse">
<stop stop-color="#00E6EF"/>
<stop offset="0.508018" stop-color="#9BFBFF"/>
<stop offset="1" stop-color="#00CCD4"/>
</linearGradient>
<linearGradient id="paint5_linear_3052_29996" x1="67.9012" y1="239.149" x2="87.3241" y2="203.406" gradientUnits="userSpaceOnUse">
<stop stop-color="#2D89B4"/>
<stop offset="0.46454" stop-color="#7ECEFF"/>
<stop offset="0.887717" stop-color="#FFF789"/>
</linearGradient>
<linearGradient id="paint6_linear_3052_29996" x1="65.0245" y1="241.875" x2="86.2471" y2="203.002" gradientUnits="userSpaceOnUse">
<stop stop-color="#2D89B4"/>
<stop offset="0.46454" stop-color="#7ECEFF"/>
<stop offset="0.887717" stop-color="#FFF789"/>
</linearGradient>
<linearGradient id="paint7_linear_3052_29996" x1="71.9578" y1="232.787" x2="89.5953" y2="199.708" gradientUnits="userSpaceOnUse">
<stop stop-color="#2D89B4"/>
<stop offset="0.46454" stop-color="#7ECEFF"/>
<stop offset="0.887717" stop-color="#FFF789"/>
</linearGradient>
<linearGradient id="paint8_linear_3052_29996" x1="24.8103" y1="220" x2="39.041" y2="203.941" gradientUnits="userSpaceOnUse">
<stop stop-color="#2D89B4"/>
<stop offset="0.46454" stop-color="#7ECEFF"/>
<stop offset="0.887717" stop-color="#FFF789"/>
</linearGradient>
<linearGradient id="paint9_linear_3052_29996" x1="140.615" y1="263.892" x2="144.67" y2="257.821" gradientUnits="userSpaceOnUse">
<stop stop-color="#2D89B4"/>
<stop offset="0.46454" stop-color="#7ECEFF"/>
<stop offset="0.887717" stop-color="#FFF789"/>
</linearGradient>
<linearGradient id="paint10_linear_3052_29996" x1="18.0178" y1="185.81" x2="18.8543" y2="182.011" gradientUnits="userSpaceOnUse">
<stop stop-color="#2D89B4"/>
<stop offset="0.46454" stop-color="#7ECEFF"/>
<stop offset="0.887717" stop-color="#FFF789"/>
</linearGradient>
<linearGradient id="paint11_linear_3052_29996" x1="52.5807" y1="228.244" x2="59.4131" y2="216.535" gradientUnits="userSpaceOnUse">
<stop stop-color="#2D89B4"/>
<stop offset="0.46454" stop-color="#7ECEFF"/>
<stop offset="0.887717" stop-color="#FFF789"/>
</linearGradient>
<linearGradient id="paint12_linear_3052_29996" x1="127.776" y1="242.677" x2="132.718" y2="236.305" gradientUnits="userSpaceOnUse">
<stop stop-color="#2D89B4"/>
<stop offset="0.46454" stop-color="#7ECEFF"/>
<stop offset="0.887717" stop-color="#FFF789"/>
</linearGradient>
<linearGradient id="paint13_linear_3052_29996" x1="41.3291" y1="192.932" x2="42.6647" y2="189.355" gradientUnits="userSpaceOnUse">
<stop stop-color="#2D89B4"/>
<stop offset="0.46454" stop-color="#7ECEFF"/>
<stop offset="0.887717" stop-color="#FFF789"/>
</linearGradient>
<linearGradient id="paint14_linear_3052_29996" x1="123.845" y1="262.617" x2="124.649" y2="260.305" gradientUnits="userSpaceOnUse">
<stop stop-color="#2D89B4"/>
<stop offset="0.46454" stop-color="#7ECEFF"/>
<stop offset="0.887717" stop-color="#FFF789"/>
</linearGradient>
<linearGradient id="paint15_linear_3052_29996" x1="39.4673" y1="189.456" x2="40.1583" y2="187.704" gradientUnits="userSpaceOnUse">
<stop stop-color="#2D89B4"/>
<stop offset="0.46454" stop-color="#7ECEFF"/>
<stop offset="0.887717" stop-color="#FFF789"/>
</linearGradient>
<linearGradient id="paint16_linear_3052_29996" x1="139.063" y1="253.154" x2="140.601" y2="251.825" gradientUnits="userSpaceOnUse">
<stop stop-color="#2D89B4"/>
<stop offset="0.46454" stop-color="#7ECEFF"/>
<stop offset="0.887717" stop-color="#FFF789"/>
</linearGradient>
<linearGradient id="paint17_linear_3052_29996" x1="273.216" y1="65.1458" x2="236.151" y2="85.0308" gradientUnits="userSpaceOnUse">
<stop stop-color="#2D89B4"/>
<stop offset="0.46454" stop-color="#7CC4FF"/>
<stop offset="0.887717" stop-color="#FFF789"/>
</linearGradient>
<linearGradient id="paint18_linear_3052_29996" x1="276.134" y1="62.3371" x2="235.827" y2="84.0658" gradientUnits="userSpaceOnUse">
<stop stop-color="#2D89B4"/>
<stop offset="0.46454" stop-color="#7CC4FF"/>
<stop offset="0.887717" stop-color="#FFF789"/>
</linearGradient>
<linearGradient id="paint19_linear_3052_29996" x1="266.479" y1="69.0457" x2="232.165" y2="87.0983" gradientUnits="userSpaceOnUse">
<stop stop-color="#2D89B4"/>
<stop offset="0.46454" stop-color="#7CC4FF"/>
<stop offset="0.887717" stop-color="#FFF789"/>
</linearGradient>
<linearGradient id="paint20_linear_3052_29996" x1="254.249" y1="21.5875" x2="237.768" y2="36.1288" gradientUnits="userSpaceOnUse">
<stop stop-color="#2D89B4"/>
<stop offset="0.46454" stop-color="#7CC4FF"/>
<stop offset="0.887717" stop-color="#FFF789"/>
</linearGradient>
<linearGradient id="paint21_linear_3052_29996" x1="297.319" y1="138.447" x2="291.05" y2="142.602" gradientUnits="userSpaceOnUse">
<stop stop-color="#2D89B4"/>
<stop offset="0.46454" stop-color="#7CC4FF"/>
<stop offset="0.887717" stop-color="#FFF789"/>
</linearGradient>
<linearGradient id="paint22_linear_3052_29996" x1="218.701" y1="13.9522" x2="214.729" y2="14.7664" gradientUnits="userSpaceOnUse">
<stop stop-color="#2D89B4"/>
<stop offset="0.46454" stop-color="#7CC4FF"/>
<stop offset="0.887717" stop-color="#FFF789"/>
</linearGradient>
<linearGradient id="paint23_linear_3052_29996" x1="262.198" y1="49.5522" x2="250.072" y2="56.552" gradientUnits="userSpaceOnUse">
<stop stop-color="#2D89B4"/>
<stop offset="0.46454" stop-color="#7CC4FF"/>
<stop offset="0.887717" stop-color="#FFF789"/>
</linearGradient>
<linearGradient id="paint24_linear_3052_29996" x1="275.474" y1="125.087" x2="268.915" y2="130.146" gradientUnits="userSpaceOnUse">
<stop stop-color="#2D89B4"/>
<stop offset="0.46454" stop-color="#7CC4FF"/>
<stop offset="0.887717" stop-color="#FFF789"/>
</linearGradient>
<linearGradient id="paint25_linear_3052_29996" x1="225.585" y1="37.4332" x2="221.856" y2="38.786" gradientUnits="userSpaceOnUse">
<stop stop-color="#2D89B4"/>
<stop offset="0.46454" stop-color="#7CC4FF"/>
<stop offset="0.887717" stop-color="#FFF789"/>
</linearGradient>
<linearGradient id="paint26_linear_3052_29996" x1="296.399" y1="121.651" x2="293.988" y2="122.462" gradientUnits="userSpaceOnUse">
<stop stop-color="#2D89B4"/>
<stop offset="0.46454" stop-color="#7CC4FF"/>
<stop offset="0.887717" stop-color="#FFF789"/>
</linearGradient>
<linearGradient id="paint27_linear_3052_29996" x1="221.997" y1="35.4829" x2="220.172" y2="36.1845" gradientUnits="userSpaceOnUse">
<stop stop-color="#2D89B4"/>
<stop offset="0.46454" stop-color="#7CC4FF"/>
<stop offset="0.887717" stop-color="#FFF789"/>
</linearGradient>
<linearGradient id="paint28_linear_3052_29996" x1="286.144" y1="136.639" x2="284.787" y2="138.202" gradientUnits="userSpaceOnUse">
<stop stop-color="#2D89B4"/>
<stop offset="0.46454" stop-color="#7CC4FF"/>
<stop offset="0.887717" stop-color="#FFF789"/>
</linearGradient>
<clipPath id="clip0_3052_29996">
<rect width="234.746" height="172.723" fill="white" transform="translate(69.4375 9.66211) rotate(21.905)"/>
</clipPath>
</defs>
</svg>
