<svg width="299" height="260" viewBox="0 0 299 260" fill="none" xmlns="http://www.w3.org/2000/svg">
<g clip-path="url(#clip0_3060_20022)">
<g filter="url(#filter0_d_3060_20022)">
<path d="M101.56 108.445L210.136 165.576L210.534 165.785L210.315 166.177L194.76 193.967L194.718 194.041L194.651 194.094L194.651 194.095L194.65 194.096L194.649 194.097C194.647 194.098 194.645 194.1 194.643 194.102C194.637 194.107 194.628 194.113 194.617 194.122C194.595 194.139 194.563 194.165 194.521 194.198C194.436 194.265 194.311 194.363 194.148 194.488C193.823 194.739 193.348 195.099 192.751 195.536C192.555 195.68 192.345 195.83 192.124 195.989L162.637 247.56C160.836 250.709 156.688 252.068 153.373 250.596C150.058 249.124 148.831 245.377 150.631 242.228L171.59 205.573C171.606 205.5 171.627 205.424 171.655 205.348C171.734 205.128 171.866 204.852 172.055 204.51C172.73 203.291 172.368 202.268 171.845 201.972C171.591 201.829 171.213 201.791 170.715 202.053C170.207 202.32 169.591 202.896 168.95 203.941L168.737 204.289L168.375 204.099L166.843 203.298L154.498 225.602C151.688 230.679 145.084 232.943 139.749 230.658C134.415 228.373 132.368 222.404 135.179 217.327L150.833 189.046C151.788 186.395 151.965 184.116 151.592 182.249C151.033 179.459 149.237 177.528 146.841 176.593C142.033 174.715 134.704 176.843 130.308 184.478L130.104 184.831L129.735 184.651L128.566 184.079L119.663 199.843C117.403 203.843 112.159 205.591 107.951 203.748C103.743 201.904 102.163 197.167 104.422 193.166L113.674 176.787L113.6 176.751L113.771 176.366C114.253 175.276 114.262 174.393 114.029 173.745C113.795 173.098 113.302 172.633 112.672 172.402C111.413 171.94 109.543 172.401 108.304 174.421L108.093 174.765L107.733 174.583L106.211 173.814L84.0171 212.628C81.1363 217.666 74.5016 219.841 69.1977 217.485C63.8937 215.13 61.9293 209.136 64.8101 204.098L87.5234 164.373L87.4295 164.326L87.6166 163.94C88.0351 163.073 88.1535 162.361 88.0993 161.851C88.0452 161.343 87.829 161.063 87.5944 160.945C87.4621 160.878 87.2876 160.847 87.0747 160.877L68.0019 192.377C66.0352 195.625 61.674 196.945 58.2612 195.325C54.8487 193.705 53.6763 189.759 55.6428 186.512L78.1199 149.39L100.974 108.618L101.183 108.247L101.56 108.445Z" fill="url(#paint0_linear_3060_20022)"/>
</g>
<g clip-path="url(#clip1_3060_20022)" filter="url(#filter1_i_3060_20022)">
<path d="M122.623 132.283C126.589 129.742 131.886 131.311 133.828 135.603V135.603C135.722 139.79 133.564 144.696 129.196 146.128L111.531 151.92C108.998 152.75 106.24 151.593 105.057 149.205V149.205C103.844 146.756 104.668 143.786 106.969 142.312L122.623 132.283Z" fill="#D474C6"/>
<path d="M110.636 108.883C114.961 107.019 119.934 109.427 121.154 113.976V113.976C122.345 118.415 119.42 122.906 114.878 123.611L96.507 126.461C93.873 126.87 91.3388 125.282 90.5589 122.733V122.733C89.7592 120.119 91.0535 117.323 93.5633 116.241L110.636 108.883Z" fill="#D474C6"/>
<g filter="url(#filter2_n_3060_20022)">
<ellipse cx="168.086" cy="99.8417" rx="107.223" ry="95.6097" transform="rotate(17.543 168.086 99.8417)" fill="url(#paint1_linear_3060_20022)" fill-opacity="0.9"/>
<path d="M196.655 9.46847C252.77 27.2079 285.285 82.0822 269.533 131.911C253.781 181.741 195.632 207.955 139.517 190.216C83.4014 172.476 50.8866 117.601 66.6389 67.7717C82.3913 17.9424 140.54 -8.27085 196.655 9.46847Z" stroke="url(#paint2_linear_3060_20022)" stroke-width="1.65531"/>
</g>
<g filter="url(#filter3_ii_3060_20022)">
<path d="M178.938 24.683C180.109 23.1068 182.346 22.8606 183.863 24.1073C197.504 35.321 201.235 45.4874 201.38 51.7553C201.435 54.1131 198.854 54.9974 196.727 53.9785C193.87 52.6102 191.271 51.9534 189.154 51.7031C190.122 55.2106 191.811 63.3241 192.171 71.9621C201.523 68.9379 210.847 70.3677 215.042 71.7865C226.213 74.4655 247.235 87.8016 241.954 119.713C238.546 133.561 231.716 143.799 223.279 151.366L226.301 157.855C227.426 160.271 226.606 163.147 224.375 164.606C222.087 166.1 219.041 165.636 217.304 163.526L213.344 158.716C209.587 161.005 205.68 162.922 201.739 164.525L204.034 173.561C204.69 176.145 203.348 178.818 200.884 179.835C198.358 180.878 195.452 179.854 194.138 177.458L189.291 168.62C176.904 171.838 165.423 172.515 158.628 172.595C157.97 172.602 156.912 172.563 155.678 172.482L151.093 180.342C149.749 182.644 146.918 183.61 144.448 182.609C141.915 181.582 140.56 178.814 141.303 176.184L143.298 169.117C121.515 154.81 74.614 100.381 107.293 66.1798C134.451 37.7582 163.562 53.2392 179.131 68.6707C179.687 63.5893 180.152 57.1247 179.926 51.5106C177.179 51.516 174.686 51.8983 172.552 52.4462C169.597 53.2047 166.13 50.9267 166.938 47.9843C169.383 39.0757 174.885 30.1383 178.938 24.683Z" fill="#D474C6"/>
</g>
<g filter="url(#filter4_ii_3060_20022)">
<path d="M110.871 190.593L109.317 178.71C108.952 175.921 111.155 173.457 113.962 173.637C141.001 175.37 168.771 185.794 182.203 192.109C184.618 193.244 185.408 196.222 183.993 198.484L178.224 207.703C177.106 209.49 174.913 210.285 172.903 209.648C145.438 200.949 124.27 196.572 114.406 194.453C112.523 194.049 111.121 192.502 110.871 190.593Z" fill="#802A71"/>
</g>
<circle cx="147.687" cy="189.89" r="3.21865" transform="rotate(26.5945 147.687 189.89)" fill="#F5C0EC"/>
<circle cx="127.543" cy="184.933" r="3.21865" transform="rotate(26.5945 127.543 184.933)" fill="#F5C0EC"/>
<circle cx="167.011" cy="196.48" r="3.21865" transform="rotate(26.5945 167.011 196.48)" fill="#F5C0EC"/>
<g filter="url(#filter5_g_3060_20022)">
<ellipse cx="155.558" cy="103.638" rx="15.8765" ry="14.0438" transform="rotate(18.8363 155.558 103.638)" fill="white"/>
</g>
<g filter="url(#filter6_g_3060_20022)">
<ellipse cx="156.114" cy="103.216" rx="10.7606" ry="9.82389" transform="rotate(18.8363 156.114 103.216)" fill="black"/>
</g>
<g filter="url(#filter7_g_3060_20022)">
<ellipse cx="196.666" cy="119.323" rx="14.335" ry="14.0438" transform="rotate(18.8363 196.666 119.323)" fill="white"/>
</g>
<ellipse cx="173.171" cy="120.572" rx="4.59808" ry="3.67846" transform="rotate(22.606 173.171 120.572)" fill="#FF581D"/>
<path d="M165.48 123.054L165.643 124.088C165.912 125.796 167.263 127.128 168.974 127.374V127.374" stroke="#852A0A" stroke-width="1.47139" stroke-linecap="round"/>
<g filter="url(#filter8_g_3060_20022)">
<ellipse cx="196.905" cy="119.019" rx="10.5776" ry="9.95783" transform="rotate(18.8363 196.905 119.019)" fill="black"/>
</g>
<path opacity="0.8" d="M141.23 32.9704L113.066 49.0739C106.936 52.5791 97.4796 55.1185 94.6994 48.6272C92.9844 44.623 95.3712 39.8732 97.6451 37.1342C101.965 32.3893 115.144 22.184 133.3 19.3218C144.237 17.5977 148.083 20.0064 148.765 23.2047C149.693 27.5557 145.092 30.7622 141.23 32.9704Z" fill="url(#paint3_linear_3060_20022)"/>
<path opacity="0.89" d="M86.921 54.0826C97.45 52.7719 91.8507 64.778 87.7349 70.9448C84.9366 74.069 81.635 69.7764 80.334 67.2397C78.1426 63.4001 76.3919 55.3932 86.921 54.0826Z" fill="url(#paint4_linear_3060_20022)"/>
<path d="M146.695 84.1133C150.148 87.9356 169.548 99.9035 177.936 97.7676" stroke="#D474C6" stroke-width="8.72796"/>
</g>
</g>
<defs>
<filter id="filter0_d_3060_20022" x="41.5956" y="101.389" width="174.55" height="161.646" filterUnits="userSpaceOnUse" color-interpolation-filters="sRGB">
<feFlood flood-opacity="0" result="BackgroundImageFix"/>
<feColorMatrix in="SourceAlpha" type="matrix" values="0 0 0 0 0 0 0 0 0 0 0 0 0 0 0 0 0 0 127 0" result="hardAlpha"/>
<feOffset dx="-3.74056" dy="2.4937"/>
<feGaussianBlur stdDeviation="4.67569"/>
<feComposite in2="hardAlpha" operator="out"/>
<feColorMatrix type="matrix" values="0 0 0 0 1 0 0 0 0 1 0 0 0 0 1 0 0 0 0.4 0"/>
<feBlend mode="normal" in2="BackgroundImageFix" result="effect1_dropShadow_3060_20022"/>
<feBlend mode="normal" in="SourceGraphic" in2="effect1_dropShadow_3060_20022" result="shape"/>
</filter>
<filter id="filter1_i_3060_20022" x="-12.1039" y="-52.3516" width="347.104" height="312.434" filterUnits="userSpaceOnUse" color-interpolation-filters="sRGB">
<feFlood flood-opacity="0" result="BackgroundImageFix"/>
<feBlend mode="normal" in="SourceGraphic" in2="BackgroundImageFix" result="shape"/>
<feColorMatrix in="SourceAlpha" type="matrix" values="0 0 0 0 0 0 0 0 0 0 0 0 0 0 0 0 0 0 127 0" result="hardAlpha"/>
<feOffset dx="-2.10395" dy="0.701316"/>
<feGaussianBlur stdDeviation="1.36757"/>
<feComposite in2="hardAlpha" operator="arithmetic" k2="-1" k3="1"/>
<feColorMatrix type="matrix" values="0 0 0 0 0.259615 0 0 0 0 0.104845 0 0 0 0 0.104845 0 0 0 0.18 0"/>
<feBlend mode="normal" in2="shape" result="effect1_innerShadow_3060_20022"/>
</filter>
<filter id="filter2_n_3060_20022" x="61.8359" y="3.09277" width="212.496" height="193.498" filterUnits="userSpaceOnUse" color-interpolation-filters="sRGB">
<feFlood flood-opacity="0" result="BackgroundImageFix"/>
<feBlend mode="normal" in="SourceGraphic" in2="BackgroundImageFix" result="shape"/>
<feTurbulence type="fractalNoise" baseFrequency="0.11327195912599564 0.11327195912599564" stitchTiles="stitch" numOctaves="3" result="noise" seed="1999" />
<feColorMatrix in="noise" type="luminanceToAlpha" result="alphaNoise" />
<feComponentTransfer in="alphaNoise" result="coloredNoise1">
<feFuncA type="discrete" tableValues="1 1 1 1 1 1 1 1 1 1 1 1 1 1 1 1 1 1 1 1 1 1 1 1 1 1 1 1 1 1 1 1 1 1 1 1 1 1 1 1 1 1 1 1 1 1 1 1 1 1 1 0 0 0 0 0 0 0 0 0 0 0 0 0 0 0 0 0 0 0 0 0 0 0 0 0 0 0 0 0 0 0 0 0 0 0 0 0 0 0 0 0 0 0 0 0 0 0 0 0 "/>
</feComponentTransfer>
<feComposite operator="in" in2="shape" in="coloredNoise1" result="noise1Clipped" />
<feFlood flood-color="rgba(0, 0, 0, 0.08)" result="color1Flood" />
<feComposite operator="in" in2="noise1Clipped" in="color1Flood" result="color1" />
<feMerge result="effect1_noise_3060_20022">
<feMergeNode in="shape" />
<feMergeNode in="color1" />
</feMerge>
</filter>
<filter id="filter3_ii_3060_20022" x="87.7899" y="23.314" width="154.999" height="161.527" filterUnits="userSpaceOnUse" color-interpolation-filters="sRGB">
<feFlood flood-opacity="0" result="BackgroundImageFix"/>
<feBlend mode="normal" in="SourceGraphic" in2="BackgroundImageFix" result="shape"/>
<feColorMatrix in="SourceAlpha" type="matrix" values="0 0 0 0 0 0 0 0 0 0 0 0 0 0 0 0 0 0 127 0" result="hardAlpha"/>
<feOffset dx="-8.27654" dy="1.83923"/>
<feGaussianBlur stdDeviation="6.85114"/>
<feComposite in2="hardAlpha" operator="arithmetic" k2="-1" k3="1"/>
<feColorMatrix type="matrix" values="0 0 0 0 1 0 0 0 0 0.912766 0 0 0 0 0.792818 0 0 0 0.8 0"/>
<feBlend mode="normal" in2="shape" result="effect1_innerShadow_3060_20022"/>
<feColorMatrix in="SourceAlpha" type="matrix" values="0 0 0 0 0 0 0 0 0 0 0 0 0 0 0 0 0 0 127 0" result="hardAlpha"/>
<feOffset dx="-0.919616" dy="0.919616"/>
<feGaussianBlur stdDeviation="0.459808"/>
<feComposite in2="hardAlpha" operator="arithmetic" k2="-1" k3="1"/>
<feColorMatrix type="matrix" values="0 0 0 0 0.871206 0 0 0 0 1 0 0 0 0 0.997853 0 0 0 0.5 0"/>
<feBlend mode="normal" in2="effect1_innerShadow_3060_20022" result="effect2_innerShadow_3060_20022"/>
</filter>
<filter id="filter4_ii_3060_20022" x="99.5294" y="173.628" width="85.1659" height="38.0775" filterUnits="userSpaceOnUse" color-interpolation-filters="sRGB">
<feFlood flood-opacity="0" result="BackgroundImageFix"/>
<feBlend mode="normal" in="SourceGraphic" in2="BackgroundImageFix" result="shape"/>
<feColorMatrix in="SourceAlpha" type="matrix" values="0 0 0 0 0 0 0 0 0 0 0 0 0 0 0 0 0 0 127 0" result="hardAlpha"/>
<feOffset dx="-10.1158" dy="1.83923"/>
<feGaussianBlur stdDeviation="4.87396"/>
<feComposite in2="hardAlpha" operator="arithmetic" k2="-1" k3="1"/>
<feColorMatrix type="matrix" values="0 0 0 0 0.869328 0 0 0 0 0.719989 0 0 0 0 1 0 0 0 0.2 0"/>
<feBlend mode="normal" in2="shape" result="effect1_innerShadow_3060_20022"/>
<feColorMatrix in="SourceAlpha" type="matrix" values="0 0 0 0 0 0 0 0 0 0 0 0 0 0 0 0 0 0 127 0" result="hardAlpha"/>
<feOffset dx="-0.919616"/>
<feGaussianBlur stdDeviation="0.459808"/>
<feComposite in2="hardAlpha" operator="arithmetic" k2="-1" k3="1"/>
<feColorMatrix type="matrix" values="0 0 0 0 0.858824 0 0 0 0 0.976471 0 0 0 0 0.984314 0 0 0 0.2 0"/>
<feBlend mode="normal" in2="effect1_innerShadow_3060_20022" result="effect2_innerShadow_3060_20022"/>
</filter>
<filter id="filter5_g_3060_20022" x="139.4" y="88.9289" width="32.3181" height="29.4186" filterUnits="userSpaceOnUse" color-interpolation-filters="sRGB">
<feFlood flood-opacity="0" result="BackgroundImageFix"/>
<feBlend mode="normal" in="SourceGraphic" in2="BackgroundImageFix" result="shape"/>
<feTurbulence type="fractalNoise" baseFrequency="1.2082343101501465 1.2082343101501465" numOctaves="3" seed="3511" />
<feDisplacementMap in="shape" scale="0.91961550712585449" xChannelSelector="R" yChannelSelector="G" result="displacedImage" width="100%" height="100%" />
<feMerge result="effect1_texture_3060_20022">
<feMergeNode in="displacedImage"/>
</feMerge>
</filter>
<filter id="filter6_g_3060_20022" x="145.143" y="92.9861" width="21.9438" height="20.4604" filterUnits="userSpaceOnUse" color-interpolation-filters="sRGB">
<feFlood flood-opacity="0" result="BackgroundImageFix"/>
<feBlend mode="normal" in="SourceGraphic" in2="BackgroundImageFix" result="shape"/>
<feTurbulence type="fractalNoise" baseFrequency="1.8396326303482056 1.8396326303482056" numOctaves="3" seed="3511" />
<feDisplacementMap in="shape" scale="0.6039854884147644" xChannelSelector="R" yChannelSelector="G" result="displacedImage" width="100%" height="100%" />
<feMerge result="effect1_texture_3060_20022">
<feMergeNode in="displacedImage"/>
</feMerge>
</filter>
<filter id="filter7_g_3060_20022" x="181.896" y="104.785" width="29.5407" height="29.0759" filterUnits="userSpaceOnUse" color-interpolation-filters="sRGB">
<feFlood flood-opacity="0" result="BackgroundImageFix"/>
<feBlend mode="normal" in="SourceGraphic" in2="BackgroundImageFix" result="shape"/>
<feTurbulence type="fractalNoise" baseFrequency="1.2082343101501465 1.2082343101501465" numOctaves="3" seed="3511" />
<feDisplacementMap in="shape" scale="0.91961550712585449" xChannelSelector="R" yChannelSelector="G" result="displacedImage" width="100%" height="100%" />
<feMerge result="effect1_texture_3060_20022">
<feMergeNode in="displacedImage"/>
</feMerge>
</filter>
<filter id="filter8_g_3060_20022" x="186.085" y="108.69" width="21.6391" height="20.6577" filterUnits="userSpaceOnUse" color-interpolation-filters="sRGB">
<feFlood flood-opacity="0" result="BackgroundImageFix"/>
<feBlend mode="normal" in="SourceGraphic" in2="BackgroundImageFix" result="shape"/>
<feTurbulence type="fractalNoise" baseFrequency="1.8396326303482056 1.8396326303482056" numOctaves="3" seed="3511" />
<feDisplacementMap in="shape" scale="0.6039854884147644" xChannelSelector="R" yChannelSelector="G" result="displacedImage" width="100%" height="100%" />
<feMerge result="effect1_texture_3060_20022">
<feMergeNode in="displacedImage"/>
</feMerge>
</filter>
<linearGradient id="paint0_linear_3060_20022" x1="170.069" y1="131.197" x2="116.102" y2="256.606" gradientUnits="userSpaceOnUse">
<stop offset="0.158654" stop-color="#121938"/>
<stop offset="0.529097" stop-color="#FF89C4"/>
<stop offset="0.938356" stop-color="#FFEB81"/>
</linearGradient>
<linearGradient id="paint1_linear_3060_20022" x1="273.95" y1="72.4596" x2="81.6947" y2="154.043" gradientUnits="userSpaceOnUse">
<stop stop-color="#FFB2FF" stop-opacity="0.2"/>
<stop offset="1" stop-color="white" stop-opacity="0"/>
</linearGradient>
<linearGradient id="paint2_linear_3060_20022" x1="104.464" y1="-5.20384" x2="98.9585" y2="179.373" gradientUnits="userSpaceOnUse">
<stop stop-color="#802A71"/>
<stop offset="0.586538" stop-color="#CEA184"/>
<stop offset="1" stop-color="#A3547F"/>
</linearGradient>
<linearGradient id="paint3_linear_3060_20022" x1="118.525" y1="20.0901" x2="132.636" y2="103.281" gradientUnits="userSpaceOnUse">
<stop stop-color="#FFD9FF"/>
<stop offset="0.440397" stop-color="#FCD7FD" stop-opacity="0"/>
</linearGradient>
<linearGradient id="paint4_linear_3060_20022" x1="89.1534" y1="53.1142" x2="83.5891" y2="81.0919" gradientUnits="userSpaceOnUse">
<stop stop-color="#FFD9FF"/>
<stop offset="1" stop-color="#FCD7FD" stop-opacity="0"/>
</linearGradient>
<clipPath id="clip0_3060_20022">
<rect width="299" height="259" fill="white" transform="translate(0 0.824219)"/>
</clipPath>
<clipPath id="clip1_3060_20022">
<rect width="281.955" height="207.458" fill="white" transform="translate(82.875 -52.3516) rotate(26.5945)"/>
</clipPath>
</defs>
</svg>
