<svg width="286" height="216" viewBox="0 0 286 216" fill="none" xmlns="http://www.w3.org/2000/svg">
<g clip-path="url(#clip0_3060_20834)">
<g filter="url(#filter0_ii_3060_20834)">
<path d="M118.188 26.9551C118.543 24.9486 120.504 23.6805 122.491 24.1328C140.358 28.2014 148.543 35.9018 151.59 41.6504C152.735 43.8126 150.75 45.8323 148.304 45.875C145.018 45.9324 142.301 46.5312 140.221 47.2822C142.085 49.3515 145.465 53.5505 148.852 58.75C161.069 59.8133 175.535 66.8583 182.729 71.1035C183.614 71.6259 184.743 71.4851 185.475 70.7627C196.498 59.8715 206.529 56.1072 211.133 55.4199C211.771 55.3247 212.406 55.5754 212.797 56.0889C217.937 62.8435 218.114 79.9351 217.204 92.3398C217.042 94.5597 220.679 96.3838 222.726 95.5078C226.323 93.9672 230.037 93.8021 232.36 94.0664C232.823 94.1193 233.254 94.3417 233.537 94.7119C239.555 102.586 228.849 125.223 220.2 139.926C219.581 140.978 220.075 142.289 220.966 143.416L222.526 143.317C227.163 143.023 228.991 149.212 224.938 151.484L201.848 164.428C199.71 165.626 197.085 164.817 195.928 162.799C177.1 165.727 142.692 172.385 126.245 175.841C126.14 175.863 126.035 175.876 125.928 175.883C124.313 175.978 122.765 176.041 121.283 176.079L121.246 176.374C120.892 179.165 118.03 180.897 115.393 179.917L90.0576 170.5C85.73 168.891 86.5355 162.541 91.1279 162.063L92.7979 161.89C93.7993 160.686 93.8694 158.653 92.5273 157.722C74.6514 145.319 68.407 128.899 67.3242 120.411C67.2059 119.484 67.7569 118.612 68.6475 118.327C72.53 117.085 76.4794 117.084 79.6523 117.521C81.6143 117.792 83.5537 115.611 82.8271 113.769C75.9476 96.3457 76.2395 82.157 77.6025 75.5547C77.8123 74.5388 78.77 73.8917 79.7979 74.0312C91.2145 75.5827 105.215 82.2838 112.818 86.5791C114.059 87.2791 115.647 86.6684 116.206 85.3584C120.076 76.282 129.313 67.274 136.6 62.0752C135.111 58.4758 133.391 54.7008 131.565 51.3926C129.021 52.6733 126.885 54.1854 125.16 55.6846C122.77 57.7601 118.497 57.2559 117.878 54.1523C116.008 44.7505 116.962 33.9002 118.188 26.9551Z" fill="#F57979"/>
</g>
<g filter="url(#filter1_n_3060_20834)">
<ellipse cx="143.038" cy="101.79" rx="111.268" ry="99.2161" transform="rotate(-9.05149 143.038 101.79)" fill="url(#paint0_linear_3060_20834)" fill-opacity="0.9"/>
<path d="M127.564 4.65733C187.876 -4.95067 243.54 30.8644 252.072 84.4202C260.604 137.976 218.823 189.315 158.511 198.923C98.1997 208.531 42.5352 172.716 34.0034 119.16C25.4718 65.6039 67.2523 14.2653 127.564 4.65733Z" stroke="url(#paint1_linear_3060_20834)" stroke-width="1.71775"/>
</g>
<g filter="url(#filter2_ii_3060_20834)">
<path d="M132.103 212.576L125.14 202.271C123.506 199.853 124.405 196.543 127.093 195.406C152.989 184.453 183.599 181.225 198.998 180.844C201.766 180.776 203.882 183.172 203.619 185.928L202.55 197.163C202.342 199.341 200.676 201.097 198.516 201.44C168.989 206.127 147.313 211.899 137.176 214.516C135.241 215.015 133.221 214.231 132.103 212.576Z" fill="#8C3E3E"/>
</g>
<circle cx="165.934" cy="194.822" r="3.34006" fill="#CFD7F7"/>
<circle cx="144.946" cy="199.592" r="3.34006" fill="#CFD7F7"/>
<circle cx="186.926" cy="191.963" r="3.34006" fill="#CFD7F7"/>
<g filter="url(#filter3_g_3060_20834)">
<ellipse cx="137.198" cy="119.253" rx="16.4754" ry="14.5735" transform="rotate(-7.75815 137.198 119.253)" fill="white"/>
</g>
<g filter="url(#filter4_g_3060_20834)">
<ellipse cx="138.022" cy="118.979" rx="11.1665" ry="10.1944" transform="rotate(-7.75815 138.022 118.979)" fill="black"/>
</g>
<g filter="url(#filter5_g_3060_20834)">
<ellipse cx="182.629" cy="114.704" rx="14.8757" ry="14.5735" transform="rotate(-7.75815 182.629 114.704)" fill="white"/>
</g>
<ellipse cx="161.404" cy="126.775" rx="4.77152" ry="3.81721" transform="rotate(-3.98844 161.404 126.775)" fill="#FF581D"/>
<path d="M155.422 132.645L156.054 133.529C157.096 134.989 158.969 135.598 160.671 135.03V135.03" stroke="#852A0A" stroke-width="1.52689" stroke-linecap="round"/>
<g filter="url(#filter6_g_3060_20834)">
<ellipse cx="182.701" cy="114.308" rx="10.9766" ry="10.3334" transform="rotate(-7.75815 182.701 114.308)" fill="black"/>
</g>
<path opacity="0.8" d="M87.0513 52.2126L68.3981 80.2393C64.3379 86.3398 56.743 93.0892 51.1476 88.3572C47.6961 85.4383 47.7043 79.9221 48.5418 76.3242C50.3462 69.9144 57.8345 54.3221 73.3523 43.2316C82.6998 36.551 87.3878 36.9993 89.5066 39.6501C92.3891 43.2565 89.6093 48.3693 87.0513 52.2126Z" fill="url(#paint2_linear_3060_20834)"/>
<path opacity="0.89" d="M46.453 97.0318C55.6143 90.9242 55.996 104.666 55.0417 112.301C53.8964 116.5 48.8387 114.05 46.453 112.301C42.6358 109.756 37.2917 103.139 46.453 97.0318Z" fill="url(#paint3_linear_3060_20834)"/>
<circle cx="138.756" cy="118.809" r="1.22484" fill="white"/>
<circle cx="182.85" cy="113.91" r="1.22484" fill="white"/>
<g filter="url(#filter7_i_3060_20834)">
<path d="M35.4235 150.223C45.4998 143.056 47.357 131.387 46.853 123.648C46.7222 121.638 48.7086 119.975 50.4763 120.939C65.5818 129.175 68.1822 146.996 67.4566 155.515L70.3114 150.783C71.1796 149.344 73.1764 149.143 74.1636 150.504C79.9059 158.415 85.3757 173.633 72.2707 187.491C63.3795 196.892 53.5788 197.365 45.7155 194.85C36.7029 191.968 30.027 183.938 27.9236 174.713C26.0832 166.641 26.9042 157.2 35.4235 150.223Z" fill="url(#paint4_linear_3060_20834)"/>
</g>
<g filter="url(#filter8_i_3060_20834)">
<path d="M214.741 26.9052C221.381 21.3657 222.048 13.1287 221.28 7.75948C221.08 6.3656 222.376 5.09887 223.66 5.67575C234.636 10.6053 237.409 22.8916 237.361 28.8709L239.097 25.4179C239.625 24.3677 241.007 24.1203 241.768 25.0156C246.198 30.2228 250.831 40.5395 242.439 50.9077C236.746 57.9419 229.937 58.7987 224.319 57.4687C217.88 55.9444 212.792 50.7045 210.829 44.385C209.111 38.8554 209.176 32.2289 214.741 26.9052Z" fill="url(#paint5_linear_3060_20834)"/>
</g>
<path d="M43.5523 167.834C49.1322 163.865 50.1606 157.403 49.8815 153.117C49.8091 152.005 50.9091 151.084 51.888 151.618C60.2528 156.178 61.6928 166.047 61.291 170.764L62.8718 168.144C63.3526 167.347 64.4584 167.236 65.0051 167.989C68.1849 172.37 71.2139 180.797 63.9568 188.471C59.0333 193.677 53.606 193.939 49.2516 192.547C44.2608 190.951 40.5639 186.504 39.3992 181.395C38.3801 176.925 38.8347 171.698 43.5523 167.834Z" fill="url(#paint6_linear_3060_20834)"/>
<path d="M221.356 38.7493C225.034 35.6817 225.403 31.1204 224.978 28.1471C224.867 27.3753 225.585 26.6738 226.296 26.9933C232.374 29.7231 233.909 36.5267 233.883 39.8378L234.844 37.9256C235.137 37.3441 235.902 37.2071 236.323 37.7029C238.776 40.5864 241.342 46.2994 236.695 52.0409C233.542 55.9362 229.772 56.4106 226.661 55.6741C223.095 54.83 220.278 51.9284 219.19 48.4289C218.239 45.3668 218.275 41.6973 221.356 38.7493Z" fill="url(#paint7_linear_3060_20834)"/>
<path d="M177.558 113.8L181.241 114.744C181.285 114.756 181.325 114.779 181.358 114.811C181.391 114.843 181.416 114.883 181.43 114.928L182.55 118.658C182.568 118.715 182.603 118.764 182.65 118.798C182.697 118.833 182.753 118.851 182.811 118.849C182.868 118.847 182.924 118.826 182.969 118.789C183.014 118.753 183.046 118.701 183.06 118.644L183.972 114.857C183.983 114.812 184.005 114.77 184.037 114.736C184.068 114.702 184.107 114.677 184.15 114.663L187.774 113.516C187.829 113.498 187.877 113.462 187.91 113.414C187.944 113.365 187.961 113.307 187.959 113.248C187.958 113.189 187.937 113.132 187.901 113.085C187.865 113.039 187.816 113.006 187.76 112.991L184.077 112.047C184.033 112.036 183.993 112.013 183.96 111.98C183.927 111.948 183.902 111.908 183.888 111.864L182.768 108.133C182.75 108.076 182.715 108.027 182.668 107.993C182.621 107.958 182.565 107.941 182.507 107.942C182.45 107.944 182.394 107.965 182.349 108.002C182.304 108.039 182.272 108.09 182.258 108.147L181.346 111.934C181.335 111.98 181.313 112.021 181.282 112.055C181.25 112.089 181.211 112.114 181.168 112.128L177.544 113.276C177.489 113.293 177.441 113.329 177.408 113.377C177.374 113.426 177.357 113.484 177.359 113.543C177.361 113.602 177.381 113.66 177.417 113.706C177.453 113.752 177.503 113.785 177.558 113.8Z" fill="white"/>
<path d="M133.402 118.995L137.085 119.939C137.129 119.951 137.169 119.974 137.202 120.006C137.235 120.038 137.26 120.078 137.273 120.123L138.394 123.854C138.412 123.91 138.446 123.959 138.493 123.994C138.54 124.028 138.597 124.046 138.655 124.044C138.712 124.043 138.768 124.022 138.813 123.985C138.858 123.948 138.89 123.897 138.904 123.839L139.816 120.052C139.827 120.007 139.849 119.965 139.88 119.931C139.911 119.898 139.951 119.872 139.994 119.858L143.618 118.711C143.673 118.693 143.721 118.657 143.754 118.609C143.787 118.561 143.805 118.503 143.803 118.443C143.801 118.384 143.781 118.327 143.745 118.281C143.709 118.234 143.659 118.201 143.603 118.186L139.921 117.243C139.877 117.231 139.837 117.208 139.804 117.176C139.771 117.144 139.746 117.103 139.732 117.059L138.611 113.328C138.594 113.272 138.559 113.223 138.512 113.188C138.465 113.154 138.409 113.136 138.351 113.138C138.293 113.139 138.238 113.16 138.193 113.197C138.148 113.234 138.116 113.285 138.102 113.343L137.19 117.13C137.179 117.175 137.156 117.216 137.125 117.25C137.094 117.284 137.055 117.31 137.012 117.324L133.388 118.471C133.333 118.489 133.285 118.524 133.251 118.573C133.218 118.621 133.201 118.679 133.203 118.738C133.204 118.798 133.225 118.855 133.261 118.901C133.297 118.948 133.346 118.981 133.402 118.995Z" fill="white"/>
</g>
<defs>
<filter id="filter0_ii_3060_20834" x="58.7199" y="24.041" width="176.573" height="158.061" filterUnits="userSpaceOnUse" color-interpolation-filters="sRGB">
<feFlood flood-opacity="0" result="BackgroundImageFix"/>
<feBlend mode="normal" in="SourceGraphic" in2="BackgroundImageFix" result="shape"/>
<feColorMatrix in="SourceAlpha" type="matrix" values="0 0 0 0 0 0 0 0 0 0 0 0 0 0 0 0 0 0 127 0" result="hardAlpha"/>
<feOffset dx="-8.58873" dy="1.90861"/>
<feGaussianBlur stdDeviation="7.10956"/>
<feComposite in2="hardAlpha" operator="arithmetic" k2="-1" k3="1"/>
<feColorMatrix type="matrix" values="0 0 0 0 1 0 0 0 0 0.912766 0 0 0 0 0.792818 0 0 0 0.8 0"/>
<feBlend mode="normal" in2="shape" result="effect1_innerShadow_3060_20834"/>
<feColorMatrix in="SourceAlpha" type="matrix" values="0 0 0 0 0 0 0 0 0 0 0 0 0 0 0 0 0 0 127 0" result="hardAlpha"/>
<feOffset dx="-0.954304" dy="0.954304"/>
<feGaussianBlur stdDeviation="0.477152"/>
<feComposite in2="hardAlpha" operator="arithmetic" k2="-1" k3="1"/>
<feColorMatrix type="matrix" values="0 0 0 0 0.871206 0 0 0 0 1 0 0 0 0 0.997853 0 0 0 0.5 0"/>
<feBlend mode="normal" in2="effect1_innerShadow_3060_20834" result="effect2_innerShadow_3060_20834"/>
</filter>
<filter id="filter1_n_3060_20834" x="32.0391" y="2.24219" width="221.996" height="199.098" filterUnits="userSpaceOnUse" color-interpolation-filters="sRGB">
<feFlood flood-opacity="0" result="BackgroundImageFix"/>
<feBlend mode="normal" in="SourceGraphic" in2="BackgroundImageFix" result="shape"/>
<feTurbulence type="fractalNoise" baseFrequency="0.10915461182594299 0.10915461182594299" stitchTiles="stitch" numOctaves="3" result="noise" seed="1999" />
<feColorMatrix in="noise" type="luminanceToAlpha" result="alphaNoise" />
<feComponentTransfer in="alphaNoise" result="coloredNoise1">
<feFuncA type="discrete" tableValues="1 1 1 1 1 1 1 1 1 1 1 1 1 1 1 1 1 1 1 1 1 1 1 1 1 1 1 1 1 1 1 1 1 1 1 1 1 1 1 1 1 1 1 1 1 1 1 1 1 1 1 0 0 0 0 0 0 0 0 0 0 0 0 0 0 0 0 0 0 0 0 0 0 0 0 0 0 0 0 0 0 0 0 0 0 0 0 0 0 0 0 0 0 0 0 0 0 0 0 0 "/>
</feComponentTransfer>
<feComposite operator="in" in2="shape" in="coloredNoise1" result="noise1Clipped" />
<feFlood flood-color="rgba(0, 0, 0, 0.08)" result="color1Flood" />
<feComposite operator="in" in2="noise1Clipped" in="color1Flood" result="color1" />
<feMerge result="effect1_noise_3060_20834">
<feMergeNode in="shape" />
<feMergeNode in="color1" />
</feMerge>
</filter>
<filter id="filter2_ii_3060_20834" x="114.209" y="180.844" width="89.432" height="35.7289" filterUnits="userSpaceOnUse" color-interpolation-filters="sRGB">
<feFlood flood-opacity="0" result="BackgroundImageFix"/>
<feBlend mode="normal" in="SourceGraphic" in2="BackgroundImageFix" result="shape"/>
<feColorMatrix in="SourceAlpha" type="matrix" values="0 0 0 0 0 0 0 0 0 0 0 0 0 0 0 0 0 0 127 0" result="hardAlpha"/>
<feOffset dx="-10.4973" dy="1.90861"/>
<feGaussianBlur stdDeviation="5.05781"/>
<feComposite in2="hardAlpha" operator="arithmetic" k2="-1" k3="1"/>
<feColorMatrix type="matrix" values="0 0 0 0 0.869328 0 0 0 0 0.719989 0 0 0 0 1 0 0 0 0.2 0"/>
<feBlend mode="normal" in2="shape" result="effect1_innerShadow_3060_20834"/>
<feColorMatrix in="SourceAlpha" type="matrix" values="0 0 0 0 0 0 0 0 0 0 0 0 0 0 0 0 0 0 127 0" result="hardAlpha"/>
<feOffset dx="-0.954304"/>
<feGaussianBlur stdDeviation="0.477152"/>
<feComposite in2="hardAlpha" operator="arithmetic" k2="-1" k3="1"/>
<feColorMatrix type="matrix" values="0 0 0 0 0.858824 0 0 0 0 0.976471 0 0 0 0 0.984314 0 0 0 0.2 0"/>
<feBlend mode="normal" in2="effect1_innerShadow_3060_20834" result="effect2_innerShadow_3060_20834"/>
</filter>
<filter id="filter3_g_3060_20834" x="120.277" y="104.163" width="33.841" height="30.1789" filterUnits="userSpaceOnUse" color-interpolation-filters="sRGB">
<feFlood flood-opacity="0" result="BackgroundImageFix"/>
<feBlend mode="normal" in="SourceGraphic" in2="BackgroundImageFix" result="shape"/>
<feTurbulence type="fractalNoise" baseFrequency="1.164315938949585 1.164315938949585" numOctaves="3" seed="3511" />
<feDisplacementMap in="shape" scale="0.95430362224578857" xChannelSelector="R" yChannelSelector="G" result="displacedImage" width="100%" height="100%" />
<feMerge result="effect1_texture_3060_20834">
<feMergeNode in="displacedImage"/>
</feMerge>
</filter>
<filter id="filter4_g_3060_20834" x="126.558" y="108.45" width="22.9275" height="21.0565" filterUnits="userSpaceOnUse" color-interpolation-filters="sRGB">
<feFlood flood-opacity="0" result="BackgroundImageFix"/>
<feBlend mode="normal" in="SourceGraphic" in2="BackgroundImageFix" result="shape"/>
<feTurbulence type="fractalNoise" baseFrequency="1.7727633714675903 1.7727633714675903" numOctaves="3" seed="3511" />
<feDisplacementMap in="shape" scale="0.62676799297332764" xChannelSelector="R" yChannelSelector="G" result="displacedImage" width="100%" height="100%" />
<feMerge result="effect1_texture_3060_20834">
<feMergeNode in="displacedImage"/>
</feMerge>
</filter>
<filter id="filter5_g_3060_20834" x="167.281" y="99.6459" width="30.6965" height="30.1164" filterUnits="userSpaceOnUse" color-interpolation-filters="sRGB">
<feFlood flood-opacity="0" result="BackgroundImageFix"/>
<feBlend mode="normal" in="SourceGraphic" in2="BackgroundImageFix" result="shape"/>
<feTurbulence type="fractalNoise" baseFrequency="1.164315938949585 1.164315938949585" numOctaves="3" seed="3511" />
<feDisplacementMap in="shape" scale="0.95430362224578857" xChannelSelector="R" yChannelSelector="G" result="displacedImage" width="100%" height="100%" />
<feMerge result="effect1_texture_3060_20834">
<feMergeNode in="displacedImage"/>
</feMerge>
</filter>
<filter id="filter6_g_3060_20834" x="171.421" y="103.648" width="22.5604" height="21.3201" filterUnits="userSpaceOnUse" color-interpolation-filters="sRGB">
<feFlood flood-opacity="0" result="BackgroundImageFix"/>
<feBlend mode="normal" in="SourceGraphic" in2="BackgroundImageFix" result="shape"/>
<feTurbulence type="fractalNoise" baseFrequency="1.7727633714675903 1.7727633714675903" numOctaves="3" seed="3511" />
<feDisplacementMap in="shape" scale="0.62676799297332764" xChannelSelector="R" yChannelSelector="G" result="displacedImage" width="100%" height="100%" />
<feMerge result="effect1_texture_3060_20834">
<feMergeNode in="displacedImage"/>
</feMerge>
</filter>
<filter id="filter7_i_3060_20834" x="27.1133" y="120.658" width="53.2344" height="75.4941" filterUnits="userSpaceOnUse" color-interpolation-filters="sRGB">
<feFlood flood-opacity="0" result="BackgroundImageFix"/>
<feBlend mode="normal" in="SourceGraphic" in2="BackgroundImageFix" result="shape"/>
<feColorMatrix in="SourceAlpha" type="matrix" values="0 0 0 0 0 0 0 0 0 0 0 0 0 0 0 0 0 0 127 0" result="hardAlpha"/>
<feOffset/>
<feGaussianBlur stdDeviation="8.35913"/>
<feComposite in2="hardAlpha" operator="arithmetic" k2="-1" k3="1"/>
<feColorMatrix type="matrix" values="0 0 0 0 1 0 0 0 0 0.479511 0 0 0 0 0.479511 0 0 0 1 0"/>
<feBlend mode="normal" in2="shape" result="effect1_innerShadow_3060_20834"/>
</filter>
<filter id="filter8_i_3060_20834" x="209.84" y="5.5332" width="37.2656" height="52.4609" filterUnits="userSpaceOnUse" color-interpolation-filters="sRGB">
<feFlood flood-opacity="0" result="BackgroundImageFix"/>
<feBlend mode="normal" in="SourceGraphic" in2="BackgroundImageFix" result="shape"/>
<feColorMatrix in="SourceAlpha" type="matrix" values="0 0 0 0 0 0 0 0 0 0 0 0 0 0 0 0 0 0 127 0" result="hardAlpha"/>
<feOffset/>
<feGaussianBlur stdDeviation="5.84597"/>
<feComposite in2="hardAlpha" operator="arithmetic" k2="-1" k3="1"/>
<feColorMatrix type="matrix" values="0 0 0 0 1 0 0 0 0 0.479511 0 0 0 0 0.479511 0 0 0 1 0"/>
<feBlend mode="normal" in2="shape" result="effect1_innerShadow_3060_20834"/>
</filter>
<linearGradient id="paint0_linear_3060_20834" x1="252.895" y1="73.3752" x2="53.3883" y2="158.036" gradientUnits="userSpaceOnUse">
<stop stop-color="#FFB2B2" stop-opacity="0.2"/>
<stop offset="1" stop-color="white" stop-opacity="0"/>
</linearGradient>
<linearGradient id="paint1_linear_3060_20834" x1="35.2015" y1="33.8718" x2="115.84" y2="207.703" gradientUnits="userSpaceOnUse">
<stop stop-color="#8C3E3E"/>
<stop offset="0.586538" stop-color="#CEB484"/>
<stop offset="1" stop-color="#8F5B5B"/>
</linearGradient>
<linearGradient id="paint2_linear_3060_20834" x1="59.9988" y1="50.8086" x2="111.74" y2="121.448" gradientUnits="userSpaceOnUse">
<stop stop-color="#FFD9D9"/>
<stop offset="0.440397" stop-color="#FFD9D9" stop-opacity="0"/>
</linearGradient>
<linearGradient id="paint3_linear_3060_20834" x1="41.3945" y1="97.2674" x2="61.4478" y2="101.365" gradientUnits="userSpaceOnUse">
<stop stop-color="#FFD9D9"/>
<stop offset="1" stop-color="#FFD9D9" stop-opacity="0"/>
</linearGradient>
<linearGradient id="paint4_linear_3060_20834" x1="53.4499" y1="118.96" x2="53.8894" y2="196.151" gradientUnits="userSpaceOnUse">
<stop stop-color="#FD8A3C"/>
<stop offset="1" stop-color="#FDD85B"/>
</linearGradient>
<linearGradient id="paint5_linear_3060_20834" x1="225.627" y1="4.1357" x2="230.088" y2="57.9361" gradientUnits="userSpaceOnUse">
<stop stop-color="#FD8A3C"/>
<stop offset="1" stop-color="#FDD85B"/>
</linearGradient>
<linearGradient id="paint6_linear_3060_20834" x1="53.5346" y1="150.522" x2="50.8515" y2="205.763" gradientUnits="userSpaceOnUse">
<stop stop-color="#FFEAC5"/>
<stop offset="1" stop-color="#FEF973"/>
</linearGradient>
<linearGradient id="paint7_linear_3060_20834" x1="227.385" y1="26.1404" x2="228.487" y2="64.8036" gradientUnits="userSpaceOnUse">
<stop stop-color="#FFEAC5"/>
<stop offset="1" stop-color="#FEF973"/>
</linearGradient>
<clipPath id="clip0_3060_20834">
<rect width="292.59" height="215.284" fill="white" transform="translate(-7)"/>
</clipPath>
</defs>
</svg>
