<svg width="299" height="221" viewBox="0 0 299 221" fill="none" xmlns="http://www.w3.org/2000/svg">
<g clip-path="url(#clip0_3034_20374)">
<g filter="url(#filter0_ii_3034_20374)">
<path d="M117.319 28.2695C117.682 26.2187 119.685 24.9224 121.716 25.3848C139.974 29.5426 148.339 37.4117 151.452 43.2861C152.623 45.4958 150.594 47.5596 148.094 47.6035C144.738 47.6621 141.963 48.2724 139.838 49.0391C142.531 52.0288 148.324 59.3707 152.852 67.8037C167.114 60.3842 222.477 53.8922 227.833 115.816C232.507 169.864 210.061 172.907 198.253 167.673C191.241 184.326 175.124 178.995 167.941 174.247C152.75 195.281 132.884 186.176 124.85 178.994C126.675 183.742 85.7741 220.26 75.1836 138.093C66.929 74.0483 113.237 67.4346 139.266 72.3154C137.371 66.96 134.354 59.3281 130.993 53.2393C128.39 54.5485 126.207 56.094 124.443 57.627C122.001 59.7495 117.632 59.2349 117.001 56.0615C115.09 46.4531 116.066 35.3668 117.319 28.2695Z" fill="#798ACD"/>
</g>
<g filter="url(#filter1_n_3034_20374)">
<ellipse cx="142.701" cy="104.715" rx="113.705" ry="101.39" transform="rotate(-9.05149 142.701 104.715)" fill="url(#paint0_linear_3034_20374)" fill-opacity="0.9"/>
<path d="M126.888 5.45525C188.521 -4.36324 245.404 32.2359 254.123 86.9651C262.842 141.694 220.147 194.157 158.514 203.975C96.8806 213.794 39.9974 177.195 31.2788 122.466C22.5601 67.7363 65.2552 15.2738 126.888 5.45525Z" stroke="url(#paint1_linear_3034_20374)" stroke-width="1.75538"/>
</g>
<g filter="url(#filter2_ii_3034_20374)">
<path d="M131.534 217.928L124.419 207.398C122.749 204.926 123.668 201.544 126.415 200.382C152.878 189.189 184.159 185.89 199.895 185.502C202.723 185.432 204.886 187.88 204.618 190.697L203.524 202.178C203.312 204.403 201.61 206.198 199.402 206.549C169.229 211.338 147.077 217.236 136.718 219.911C134.741 220.421 132.677 219.62 131.534 217.928Z" fill="#3E4C8C"/>
</g>
<circle cx="166.107" cy="199.792" r="3.41323" fill="#CFD7F7"/>
<circle cx="144.65" cy="204.655" r="3.41323" fill="#CFD7F7"/>
<circle cx="187.56" cy="196.862" r="3.41323" fill="#CFD7F7"/>
<ellipse cx="161.473" cy="130.24" rx="4.87605" ry="3.90084" transform="rotate(-3.98844 161.473 130.24)" fill="#FF581D"/>
<path d="M155.359 136.256L156.005 137.16C157.07 138.651 158.984 139.274 160.723 138.694V138.694" stroke="#852A0A" stroke-width="1.56034" stroke-linecap="round"/>
<path opacity="0.8" d="M85.495 54.045L66.4331 82.6858C62.284 88.9198 54.5227 95.8171 48.8047 90.9815C45.2776 87.9986 45.2859 82.3616 46.1418 78.6849C47.9857 72.1346 55.6381 56.2008 71.4959 44.8673C81.0481 38.0404 85.8388 38.4985 88.004 41.2074C90.9497 44.8927 88.109 50.1175 85.495 54.045Z" fill="url(#paint2_linear_3034_20374)"/>
<path opacity="0.89" d="M44.011 99.8444C53.3731 93.6031 53.7631 107.646 52.7879 115.448C51.6176 119.739 46.449 117.236 44.011 115.448C40.1102 112.847 34.649 106.086 44.011 99.8444Z" fill="url(#paint3_linear_3034_20374)"/>
<g filter="url(#filter3_g_3034_20374)">
<path d="M196.797 121.662C194.011 123.055 186.224 127.601 181.989 130.107C181.45 130.426 180.957 130.817 180.431 131.157C177.773 132.875 172.784 133.224 169.28 123.522C165.413 112.812 173.618 105.673 178.204 103.441C180.931 102.45 187.724 101.508 193.079 105.673C199.772 110.879 200.516 119.803 196.797 121.662Z" fill="white"/>
</g>
<g filter="url(#filter4_g_3034_20374)">
<path d="M144.737 134.668C142.41 133.795 132.342 132.011 126.825 131.099C124.737 130.753 122.769 129.607 121.979 127.644C119.447 121.344 122.388 115.811 125.351 112.622C126.495 111.391 127.889 110.176 129.469 109.602C133.555 108.118 142.416 106.651 148.496 110.237C151.007 111.717 152.446 114.46 153.125 117.295C156.302 130.544 147.443 135.682 144.737 134.668Z" fill="white"/>
</g>
<g filter="url(#filter5_g_3034_20374)">
<path d="M141.681 129.94C138.347 129.411 134.743 128.698 131.709 128.047C128.417 127.341 125.242 124.936 126.074 121.673C126.912 118.387 129.558 115.458 131.639 113.75C132.178 113.307 132.78 112.948 133.447 112.744C135.577 112.094 139.525 111.654 144.175 113.214C145.304 113.592 146.333 114.235 147.141 115.109C150.989 119.269 150.807 123.442 149.442 126.566C148.178 129.46 144.8 130.436 141.681 129.94Z" fill="black"/>
</g>
<g filter="url(#filter6_g_3034_20374)">
<path d="M191.695 120.423C189.17 122.133 186.086 123.858 183.36 125.267C180.37 126.813 176.468 126.964 174.583 124.175C172.929 121.729 172.758 119.022 173.001 117.56C173.745 113.841 177.241 106.404 185.273 106.404C190.637 106.404 193.315 109.722 194.501 113.033C195.499 115.819 194.144 118.764 191.695 120.423Z" fill="black"/>
</g>
<g filter="url(#filter7_i_3034_20374)">
<rect x="22.752" y="102.596" width="82.2662" height="61.3832" rx="14.8743" transform="rotate(16.8106 22.752 102.596)" fill="url(#paint4_linear_3034_20374)"/>
</g>
<rect x="18.9727" y="145.729" width="31.008" height="7.5938" rx="3.7969" transform="rotate(16.8106 18.9727 145.729)" fill="white"/>
<circle cx="63.2738" cy="147.885" r="4.42972" transform="rotate(16.8106 63.2738 147.885)" fill="white"/>
<path d="M65.1445 136.215C68.7487 137.414 75.5038 142.187 73.6912 151.688" stroke="white" stroke-width="4.42972" stroke-linecap="round"/>
<path d="M68.707 127.713C74.5818 130.149 85.4571 138.789 81.9608 153.863" stroke="white" stroke-width="4.42972" stroke-linecap="round"/>
<g filter="url(#filter8_i_3034_20374)">
<path d="M237.159 20.0444C238.677 18.304 241.541 19.391 241.522 21.7003L241.312 46.9951C241.306 47.721 241.618 48.4135 242.165 48.8906L261.23 65.5151C262.971 67.0332 261.884 69.8973 259.574 69.8785L234.28 69.6684C233.554 69.6625 232.861 69.9739 232.384 70.521L215.76 89.5857C214.242 91.3267 211.377 90.2396 211.396 87.9298L211.606 62.636C211.612 61.91 211.301 61.2176 210.754 60.7404L191.689 44.1162C189.948 42.5982 191.035 39.7337 193.345 39.7529L218.639 39.9626C219.365 39.9686 220.057 39.6571 220.534 39.11L237.159 20.0444ZM228.487 48.5978C225.275 47.3792 221.684 48.9951 220.465 52.207C219.246 55.4188 220.861 59.0107 224.073 60.2298C227.285 61.4487 230.877 59.8329 232.096 56.6209C233.315 53.4089 231.699 49.8168 228.487 48.5978Z" fill="url(#paint5_linear_3034_20374)"/>
</g>
<g filter="url(#filter9_i_3034_20374)">
<path d="M244.318 76.2996C244.164 75.0469 245.651 74.2779 246.584 75.1283L256.8 84.444C257.094 84.7113 257.49 84.8374 257.883 84.7889L271.605 83.097C272.858 82.9425 273.627 84.43 272.776 85.363L263.461 95.579C263.194 95.8723 263.068 96.2681 263.116 96.662L264.809 110.384C264.963 111.637 263.475 112.405 262.543 111.555L252.325 102.24C252.032 101.973 251.637 101.846 251.243 101.895L237.521 103.587C236.268 103.742 235.499 102.254 236.35 101.321L245.665 91.1047C245.933 90.8114 246.058 90.4159 246.009 90.0221L244.318 76.2996ZM252.771 90.2404C251.103 91.1027 250.449 93.1544 251.312 94.8225C252.174 96.4905 254.226 97.144 255.894 96.2817C257.562 95.4194 258.215 93.3677 257.353 91.6996C256.491 90.0315 254.439 89.3782 252.771 90.2404Z" fill="url(#paint6_linear_3034_20374)"/>
</g>
<circle cx="254.514" cy="93.2896" r="4.09042" fill="#2D3B57"/>
</g>
<defs>
<filter id="filter0_ii_3034_20374" x="65.4341" y="25.291" width="163.029" height="167.818" filterUnits="userSpaceOnUse" color-interpolation-filters="sRGB">
<feFlood flood-opacity="0" result="BackgroundImageFix"/>
<feBlend mode="normal" in="SourceGraphic" in2="BackgroundImageFix" result="shape"/>
<feColorMatrix in="SourceAlpha" type="matrix" values="0 0 0 0 0 0 0 0 0 0 0 0 0 0 0 0 0 0 127 0" result="hardAlpha"/>
<feOffset dx="-8.77689" dy="1.95042"/>
<feGaussianBlur stdDeviation="7.26531"/>
<feComposite in2="hardAlpha" operator="arithmetic" k2="-1" k3="1"/>
<feColorMatrix type="matrix" values="0 0 0 0 1 0 0 0 0 0.912766 0 0 0 0 0.792818 0 0 0 0.8 0"/>
<feBlend mode="normal" in2="shape" result="effect1_innerShadow_3034_20374"/>
<feColorMatrix in="SourceAlpha" type="matrix" values="0 0 0 0 0 0 0 0 0 0 0 0 0 0 0 0 0 0 127 0" result="hardAlpha"/>
<feOffset dx="-0.97521" dy="0.97521"/>
<feGaussianBlur stdDeviation="0.487605"/>
<feComposite in2="hardAlpha" operator="arithmetic" k2="-1" k3="1"/>
<feColorMatrix type="matrix" values="0 0 0 0 0.871206 0 0 0 0 1 0 0 0 0 0.997853 0 0 0 0.5 0"/>
<feBlend mode="normal" in2="effect1_innerShadow_3034_20374" result="effect2_innerShadow_3034_20374"/>
</filter>
<filter id="filter1_n_3034_20374" x="29.2695" y="2.98633" width="226.863" height="203.459" filterUnits="userSpaceOnUse" color-interpolation-filters="sRGB">
<feFlood flood-opacity="0" result="BackgroundImageFix"/>
<feBlend mode="normal" in="SourceGraphic" in2="BackgroundImageFix" result="shape"/>
<feTurbulence type="fractalNoise" baseFrequency="0.10681460052728653 0.10681460052728653" stitchTiles="stitch" numOctaves="3" result="noise" seed="1999" />
<feColorMatrix in="noise" type="luminanceToAlpha" result="alphaNoise" />
<feComponentTransfer in="alphaNoise" result="coloredNoise1">
<feFuncA type="discrete" tableValues="1 1 1 1 1 1 1 1 1 1 1 1 1 1 1 1 1 1 1 1 1 1 1 1 1 1 1 1 1 1 1 1 1 1 1 1 1 1 1 1 1 1 1 1 1 1 1 1 1 1 1 0 0 0 0 0 0 0 0 0 0 0 0 0 0 0 0 0 0 0 0 0 0 0 0 0 0 0 0 0 0 0 0 0 0 0 0 0 0 0 0 0 0 0 0 0 0 0 0 0 "/>
</feComponentTransfer>
<feComposite operator="in" in2="shape" in="coloredNoise1" result="noise1Clipped" />
<feFlood flood-color="rgba(0, 0, 0, 0.08)" result="color1Flood" />
<feComposite operator="in" in2="noise1Clipped" in="color1Flood" result="color1" />
<feMerge result="effect1_noise_3034_20374">
<feMergeNode in="shape" />
<feMergeNode in="color1" />
</feMerge>
</filter>
<filter id="filter2_ii_3034_20374" x="113.247" y="185.5" width="91.3939" height="36.5129" filterUnits="userSpaceOnUse" color-interpolation-filters="sRGB">
<feFlood flood-opacity="0" result="BackgroundImageFix"/>
<feBlend mode="normal" in="SourceGraphic" in2="BackgroundImageFix" result="shape"/>
<feColorMatrix in="SourceAlpha" type="matrix" values="0 0 0 0 0 0 0 0 0 0 0 0 0 0 0 0 0 0 127 0" result="hardAlpha"/>
<feOffset dx="-10.7273" dy="1.95042"/>
<feGaussianBlur stdDeviation="5.16861"/>
<feComposite in2="hardAlpha" operator="arithmetic" k2="-1" k3="1"/>
<feColorMatrix type="matrix" values="0 0 0 0 0.869328 0 0 0 0 0.719989 0 0 0 0 1 0 0 0 0.2 0"/>
<feBlend mode="normal" in2="shape" result="effect1_innerShadow_3034_20374"/>
<feColorMatrix in="SourceAlpha" type="matrix" values="0 0 0 0 0 0 0 0 0 0 0 0 0 0 0 0 0 0 127 0" result="hardAlpha"/>
<feOffset dx="-0.97521"/>
<feGaussianBlur stdDeviation="0.487605"/>
<feComposite in2="hardAlpha" operator="arithmetic" k2="-1" k3="1"/>
<feColorMatrix type="matrix" values="0 0 0 0 0.858824 0 0 0 0 0.976471 0 0 0 0 0.984314 0 0 0 0.2 0"/>
<feBlend mode="normal" in2="effect1_innerShadow_3034_20374" result="effect2_innerShadow_3034_20374"/>
</filter>
<filter id="filter3_g_3034_20374" x="167.953" y="102.272" width="31.3905" height="30.1503" filterUnits="userSpaceOnUse" color-interpolation-filters="sRGB">
<feFlood flood-opacity="0" result="BackgroundImageFix"/>
<feBlend mode="normal" in="SourceGraphic" in2="BackgroundImageFix" result="shape"/>
<feTurbulence type="fractalNoise" baseFrequency="1.7347598075866699 1.7347598075866699" numOctaves="3" seed="3511" />
<feDisplacementMap in="shape" scale="0.6404985785484314" xChannelSelector="R" yChannelSelector="G" result="displacedImage" width="100%" height="100%" />
<feMerge result="effect1_texture_3034_20374">
<feMergeNode in="displacedImage"/>
</feMerge>
</filter>
<filter id="filter4_g_3034_20374" x="120.697" y="107.686" width="33.4276" height="27.4276" filterUnits="userSpaceOnUse" color-interpolation-filters="sRGB">
<feFlood flood-opacity="0" result="BackgroundImageFix"/>
<feBlend mode="normal" in="SourceGraphic" in2="BackgroundImageFix" result="shape"/>
<feTurbulence type="fractalNoise" baseFrequency="1.7347598075866699 1.7347598075866699" numOctaves="3" seed="3511" />
<feDisplacementMap in="shape" scale="0.6404985785484314" xChannelSelector="R" yChannelSelector="G" result="displacedImage" width="100%" height="100%" />
<feMerge result="effect1_texture_3034_20374">
<feMergeNode in="displacedImage"/>
</feMerge>
</filter>
<filter id="filter5_g_3034_20374" x="125.619" y="111.83" width="25.0311" height="18.5526" filterUnits="userSpaceOnUse" color-interpolation-filters="sRGB">
<feFlood flood-opacity="0" result="BackgroundImageFix"/>
<feBlend mode="normal" in="SourceGraphic" in2="BackgroundImageFix" result="shape"/>
<feTurbulence type="fractalNoise" baseFrequency="1.7347598075866699 1.7347598075866699" numOctaves="3" seed="3511" />
<feDisplacementMap in="shape" scale="0.6404985785484314" xChannelSelector="R" yChannelSelector="G" result="displacedImage" width="100%" height="100%" />
<feMerge result="effect1_texture_3034_20374">
<feMergeNode in="displacedImage"/>
</feMerge>
</filter>
<filter id="filter6_g_3034_20374" x="172.592" y="106.084" width="22.5604" height="20.6014" filterUnits="userSpaceOnUse" color-interpolation-filters="sRGB">
<feFlood flood-opacity="0" result="BackgroundImageFix"/>
<feBlend mode="normal" in="SourceGraphic" in2="BackgroundImageFix" result="shape"/>
<feTurbulence type="fractalNoise" baseFrequency="1.7347598075866699 1.7347598075866699" numOctaves="3" seed="3511" />
<feDisplacementMap in="shape" scale="0.6404985785484314" xChannelSelector="R" yChannelSelector="G" result="displacedImage" width="100%" height="100%" />
<feMerge result="effect1_texture_3034_20374">
<feMergeNode in="displacedImage"/>
</feMerge>
</filter>
<filter id="filter7_i_3034_20374" x="5.68726" y="104.027" width="92.1526" height="77.4597" filterUnits="userSpaceOnUse" color-interpolation-filters="sRGB">
<feFlood flood-opacity="0" result="BackgroundImageFix"/>
<feBlend mode="normal" in="SourceGraphic" in2="BackgroundImageFix" result="shape"/>
<feColorMatrix in="SourceAlpha" type="matrix" values="0 0 0 0 0 0 0 0 0 0 0 0 0 0 0 0 0 0 127 0" result="hardAlpha"/>
<feOffset dx="-2.97485" dy="-2.23114"/>
<feGaussianBlur stdDeviation="6.84216"/>
<feComposite in2="hardAlpha" operator="arithmetic" k2="-1" k3="1"/>
<feColorMatrix type="matrix" values="0 0 0 0 0.819608 0 0 0 0 0.807843 0 0 0 0 0.815686 0 0 0 1 0"/>
<feBlend mode="normal" in2="shape" result="effect1_innerShadow_3034_20374"/>
</filter>
<filter id="filter8_i_3034_20374" x="190.83" y="19.1875" width="71.2578" height="71.9996" filterUnits="userSpaceOnUse" color-interpolation-filters="sRGB">
<feFlood flood-opacity="0" result="BackgroundImageFix"/>
<feBlend mode="normal" in="SourceGraphic" in2="BackgroundImageFix" result="shape"/>
<feColorMatrix in="SourceAlpha" type="matrix" values="0 0 0 0 0 0 0 0 0 0 0 0 0 0 0 0 0 0 127 0" result="hardAlpha"/>
<feOffset dy="0.743713"/>
<feGaussianBlur stdDeviation="4.01605"/>
<feComposite in2="hardAlpha" operator="arithmetic" k2="-1" k3="1"/>
<feColorMatrix type="matrix" values="0 0 0 0 0.802268 0 0 0 0 0.78906 0 0 0 0 0.90794 0 0 0 1 0"/>
<feBlend mode="normal" in2="shape" result="effect1_innerShadow_3034_20374"/>
</filter>
<filter id="filter9_i_3034_20374" x="235.99" y="74.7695" width="37.1445" height="37.8882" filterUnits="userSpaceOnUse" color-interpolation-filters="sRGB">
<feFlood flood-opacity="0" result="BackgroundImageFix"/>
<feBlend mode="normal" in="SourceGraphic" in2="BackgroundImageFix" result="shape"/>
<feColorMatrix in="SourceAlpha" type="matrix" values="0 0 0 0 0 0 0 0 0 0 0 0 0 0 0 0 0 0 127 0" result="hardAlpha"/>
<feOffset dy="0.743713"/>
<feGaussianBlur stdDeviation="4.01605"/>
<feComposite in2="hardAlpha" operator="arithmetic" k2="-1" k3="1"/>
<feColorMatrix type="matrix" values="0 0 0 0 0.802268 0 0 0 0 0.78906 0 0 0 0 0.90794 0 0 0 1 0"/>
<feBlend mode="normal" in2="shape" result="effect1_innerShadow_3034_20374"/>
</filter>
<linearGradient id="paint0_linear_3034_20374" x1="254.965" y1="75.6779" x2="51.0876" y2="162.194" gradientUnits="userSpaceOnUse">
<stop stop-color="#B2E5FF" stop-opacity="0.2"/>
<stop offset="1" stop-color="white" stop-opacity="0"/>
</linearGradient>
<linearGradient id="paint1_linear_3034_20374" x1="32.5023" y1="35.309" x2="114.908" y2="212.949" gradientUnits="userSpaceOnUse">
<stop stop-color="#3E4C8C"/>
<stop offset="0.586538" stop-color="#CECE84"/>
<stop offset="1" stop-color="#5B658F"/>
</linearGradient>
<linearGradient id="paint2_linear_3034_20374" x1="57.8498" y1="52.6102" x2="110.724" y2="124.798" gradientUnits="userSpaceOnUse">
<stop stop-color="#D9F9FF"/>
<stop offset="0.440397" stop-color="#D9F9FF" stop-opacity="0"/>
</linearGradient>
<linearGradient id="paint3_linear_3034_20374" x1="39.21" y1="93.6583" x2="42.7112" y2="111.558" gradientUnits="userSpaceOnUse">
<stop stop-color="#D9F9FF"/>
<stop offset="1" stop-color="#D9F9FF" stop-opacity="0"/>
</linearGradient>
<linearGradient id="paint4_linear_3034_20374" x1="32.2442" y1="105.76" x2="99.3228" y2="162.713" gradientUnits="userSpaceOnUse">
<stop stop-color="#A5AAFF"/>
<stop offset="1" stop-color="#BE85FF"/>
</linearGradient>
<linearGradient id="paint5_linear_3034_20374" x1="239.917" y1="19.354" x2="213.002" y2="90.2773" gradientUnits="userSpaceOnUse">
<stop stop-color="#A2AFD0"/>
<stop offset="1" stop-color="#777E91"/>
</linearGradient>
<linearGradient id="paint6_linear_3034_20374" x1="245.043" y1="74.9255" x2="264.083" y2="111.758" gradientUnits="userSpaceOnUse">
<stop stop-color="#6577A6"/>
<stop offset="1" stop-color="#777E91"/>
</linearGradient>
<clipPath id="clip0_3034_20374">
<rect width="299" height="220" fill="white" transform="translate(0 0.699219)"/>
</clipPath>
</defs>
</svg>
