<svg width="299" height="221" viewBox="0 0 299 221" fill="none" xmlns="http://www.w3.org/2000/svg">
<g filter="url(#filter0_ii_3004_30849)">
<path d="M96.1201 27.8877C96.4812 25.8436 98.479 24.551 100.503 25.0117C118.703 29.1563 127.041 37.0007 130.145 42.8564C131.311 45.0591 129.29 47.1163 126.798 47.1602C123.451 47.2185 120.684 47.8281 118.565 48.5928C120.461 50.6967 123.901 54.9689 127.35 60.2607C139.797 61.3413 154.538 68.5202 161.867 72.8457C162.769 73.3779 163.92 73.2341 164.665 72.498C175.894 61.4035 186.112 57.5692 190.802 56.8691C191.452 56.7721 192.099 57.0268 192.497 57.5498C197.734 64.4303 197.912 81.8412 196.985 94.4775C196.82 96.739 200.527 98.5976 202.611 97.7051C206.276 96.1358 210.059 95.9671 212.425 96.2363C212.897 96.2901 213.335 96.517 213.624 96.8945C219.754 104.916 208.848 127.974 200.038 142.951C199.406 144.025 199.914 145.364 200.824 146.514L202.405 146.414C207.129 146.114 208.991 152.419 204.862 154.733L181.341 167.918C179.162 169.139 176.483 168.313 175.306 166.253C156.126 169.236 121.082 176.016 104.33 179.536C104.223 179.559 104.116 179.573 104.007 179.579C102.364 179.676 100.789 179.741 99.2812 179.779L99.2412 180.102C98.8802 182.944 95.9652 184.709 93.2793 183.711L67.4717 174.117C63.0626 172.478 63.8829 166.01 68.5615 165.523L70.2393 165.349C71.2776 164.126 71.3584 162.035 69.9824 161.08C51.7727 148.446 45.4124 131.719 44.3096 123.072C44.1893 122.128 44.7504 121.241 45.6572 120.95C49.6123 119.685 53.6359 119.683 56.8682 120.129C58.8669 120.405 60.8422 118.182 60.1016 116.306C53.0937 98.5575 53.3917 84.1042 54.7803 77.3789C54.9941 76.3441 55.9695 75.6858 57.0166 75.8281C68.6462 77.4085 82.9074 84.2339 90.6523 88.6094C91.9158 89.323 93.5343 88.7009 94.1035 87.3662C98.0447 78.1219 107.452 68.9467 114.874 63.6504C113.359 59.9864 111.608 56.1449 109.75 52.7783C107.156 54.0833 104.98 55.6244 103.222 57.1523C100.787 59.2677 96.433 58.7539 95.8037 55.5908C93.8994 46.0132 94.8707 34.9623 96.1201 27.8877Z" fill="#F57979"/>
</g>
<g filter="url(#filter1_n_3004_30849)">
<ellipse cx="120.768" cy="104.132" rx="113.344" ry="101.067" transform="rotate(-9.05149 120.768 104.132)" fill="url(#paint0_linear_3004_30849)" fill-opacity="0.9"/>
<path d="M105.006 5.18694C166.443 -4.60035 223.145 31.8826 231.836 86.4379C240.527 140.993 197.968 193.289 136.53 203.076C75.0933 212.864 18.3907 176.381 9.69977 121.825C1.00881 67.2702 43.5684 14.9742 105.006 5.18694Z" stroke="url(#paint1_linear_3004_30849)" stroke-width="1.7498"/>
</g>
<g filter="url(#filter2_ii_3004_30849)">
<path d="M109.638 216.985L102.546 206.488C100.881 204.025 101.797 200.653 104.535 199.495C130.914 188.337 162.096 185.049 177.781 184.662C180.601 184.592 182.757 187.032 182.489 189.84L181.399 201.285C181.188 203.503 179.491 205.292 177.29 205.642C147.213 210.416 125.132 216.295 114.806 218.961C112.835 219.47 110.778 218.671 109.638 216.985Z" fill="#8C3E3E"/>
</g>
<circle cx="144.1" cy="198.896" r="3.40238" fill="#CFD7F7"/>
<circle cx="122.713" cy="203.755" r="3.40238" fill="#CFD7F7"/>
<circle cx="164.272" cy="195.454" r="3.40238" fill="#CFD7F7"/>
<g filter="url(#filter3_g_3004_30849)">
<ellipse cx="114.821" cy="121.924" rx="16.7828" ry="14.8455" transform="rotate(-7.75815 114.821 121.924)" fill="white"/>
</g>
<g filter="url(#filter4_g_3004_30849)">
<ellipse cx="115.663" cy="121.637" rx="11.3748" ry="10.3847" transform="rotate(-7.75815 115.663 121.637)" fill="black"/>
</g>
<g filter="url(#filter5_g_3004_30849)">
<ellipse cx="161.099" cy="117.284" rx="15.1533" ry="14.8455" transform="rotate(-7.75815 161.099 117.284)" fill="white"/>
</g>
<ellipse cx="139.481" cy="129.58" rx="4.86055" ry="3.88844" transform="rotate(-3.98844 139.481 129.58)" fill="#FF581D"/>
<path d="M133.387 135.568L134.03 136.469C135.092 137.956 137 138.576 138.733 137.999V137.999" stroke="#852A0A" stroke-width="1.55538" stroke-linecap="round"/>
<g filter="url(#filter6_g_3004_30849)">
<ellipse cx="161.182" cy="116.889" rx="11.1814" ry="10.5262" transform="rotate(-7.75815 161.182 116.889)" fill="black"/>
</g>
<path opacity="0.8" d="M63.7414 53.6253L44.7401 82.175C40.6042 88.3892 32.8676 95.2646 27.1678 90.4443C23.6518 87.471 23.6602 81.8518 24.5134 78.1868C26.3514 71.6574 33.9794 55.7742 49.7868 44.4767C59.3087 37.6715 64.0842 38.1282 66.2425 40.8285C69.1788 44.5021 66.3471 49.7102 63.7414 53.6253Z" fill="url(#paint2_linear_3004_30849)"/>
<path opacity="0.89" d="M22.3931 99.2848C31.7253 93.0633 32.1142 107.062 31.142 114.839C29.9754 119.116 24.8233 116.621 22.3931 114.839C18.5046 112.246 13.0608 105.506 22.3931 99.2848Z" fill="url(#paint3_linear_3004_30849)"/>
<path d="M131.033 135.744C132.887 135.744 133.628 135.373 133.999 133.52" stroke="#852A0A" stroke-width="1.4827" stroke-linecap="round"/>
<g filter="url(#filter7_ii_3004_30849)">
<path d="M289.747 115.11L277.363 112.41L274.485 119.353L284.225 121.628C285.543 121.936 286.342 123.277 285.985 124.583L282.431 137.574C281.129 142.333 275.773 144.684 271.388 142.421L265.448 139.355L262.333 152.833L267.723 153.719C277.535 155.331 287.011 149.376 289.813 139.835L294.648 123.375C295.722 119.72 293.47 115.921 289.747 115.11Z" fill="#FFD662"/>
</g>
<g filter="url(#filter8_iiii_3004_30849)">
<path d="M202.45 101.682L214.975 103.624L215.16 111.137L205.254 109.752C203.914 109.565 202.685 110.528 202.549 111.875L201.186 125.274C200.687 130.183 204.837 134.305 209.742 133.773L216.388 133.051L214.441 146.747L209.094 145.632C199.359 143.603 192.664 134.635 193.485 124.725L194.901 107.628C195.216 103.832 198.685 101.099 202.45 101.682Z" fill="#FFD662"/>
</g>
<path d="M285.865 64.3626C287.699 64.3209 289.251 65.6216 289.583 67.3664C289.6 67.3658 289.618 67.3646 289.636 67.3642C291.679 67.3179 293.373 68.9361 293.42 70.979C293.466 73.0217 291.848 74.7158 289.805 74.7627C288.48 74.793 287.302 74.1214 286.625 73.0888L278.696 81.4829L276.333 79.2501L283.956 71.1794C282.954 70.5377 282.279 69.4255 282.25 68.1463C282.203 66.1034 283.822 64.4093 285.865 64.3626Z" fill="#E7DFDD"/>
<path d="M243.02 87.6825C256.822 82.2416 248.293 94.6604 242.269 101.586L230.193 98.8997C229.449 95.9161 228.408 89.4571 230.197 87.4896C231.987 85.5221 235.416 86.82 236.906 87.715C237.302 81.3818 239.249 79.0849 240.173 78.7281C247.13 75.5832 244.079 86.5026 243.02 87.6825Z" fill="#89E2C6"/>
<g filter="url(#filter9_i_3004_30849)">
<path d="M236.572 94.2828C240.686 98.0008 242.249 101.821 242.517 103.266L221.476 101.928C218.332 96.4538 212.417 84.5914 213.912 80.9335C215.406 77.2755 220.174 79.5285 222.371 81.1123C223.768 75.9413 227.251 77.8968 228.817 79.5209C228.061 76.929 227.863 71.5824 233.112 70.9321C238.361 70.2817 235.807 82.6763 233.873 88.9549C238.952 89.73 237.789 92.8298 236.572 94.2828Z" fill="#41C99C"/>
</g>
<g filter="url(#filter10_i_3004_30849)">
<path d="M225.531 89.5393C232.206 89.0596 230.726 97.0429 229.152 101.094C233.067 104.97 235.985 109.854 216.339 98.3816C196.693 86.9092 201.942 83.1709 207.022 82.7358C206.049 81.1835 204.648 76.099 209.651 74.7115C214.539 73.3557 218.442 81.7872 220.065 87.0086C225.383 82.5296 225.925 86.8295 225.531 89.5393Z" fill="#28A16F"/>
</g>
<g filter="url(#filter11_iii_3004_30849)">
<path d="M238.485 152.225L240.909 152.303L240.674 153.056L247.722 155.735C245.033 160.281 241.168 169.855 244.06 176.272C244.956 178.261 247.359 178.683 249.459 179.271C252.178 180.032 254.282 182.587 251.401 189.086L230.574 185.453L230.581 185.419L230.574 185.441L212.061 181.907C211.593 174.813 214.447 173.138 217.261 173.359C219.436 173.529 221.837 173.961 223.363 172.402C228.287 167.372 227.951 157.051 226.991 151.858L237.658 152.199L237.716 151.933L238.485 152.225Z" fill="#FFD150"/>
</g>
<g filter="url(#filter12_iii_3004_30849)">
<path d="M268.91 77.1998C271.811 73.4585 277.196 72.7773 280.937 75.678C284.678 78.5788 285.36 83.9633 282.46 87.7046L279.315 91.7593C280.442 94.2542 281.032 97.0388 280.938 99.96C280.611 110.172 272.067 118.186 261.854 117.859C251.642 117.532 243.628 108.987 243.955 98.7748C244.283 88.5622 252.827 80.5477 263.04 80.875C263.99 80.9054 264.921 81.0079 265.828 81.1754L268.91 77.1998Z" fill="#D36633"/>
</g>
<g filter="url(#filter13_iii_3004_30849)">
<path d="M279.14 107.636C257.774 89.8759 227.798 93.1544 214.417 97.3021C213.814 97.4892 213.364 97.9594 213.203 98.5703C207.793 119.097 205.987 159.987 234.083 165.768C268.811 172.915 277.135 132.758 279.796 109.261C279.866 108.641 279.62 108.035 279.14 107.636Z" fill="#FFD150"/>
</g>
<mask id="mask0_3004_30849" style="mask-type:alpha" maskUnits="userSpaceOnUse" x="209" y="94" width="71" height="68">
<path d="M279.14 107.627C257.773 89.8668 227.797 93.1453 214.417 97.293C213.813 97.4801 213.363 97.9528 213.202 98.5634C207.787 118.976 205.793 156.153 232.673 160.3C268.585 169.496 277.128 132.66 279.795 109.254C279.866 108.634 279.62 108.026 279.14 107.627Z" fill="#FFD662"/>
</mask>
<g mask="url(#mask0_3004_30849)">
<g filter="url(#filter14_f_3004_30849)">
<rect x="224.471" y="87.1807" width="13.1543" height="40.0329" rx="6.57717" transform="rotate(8.5525 224.471 87.1807)" fill="#FFE4E4"/>
</g>
</g>
<circle cx="257.428" cy="85.078" r="1.44523" fill="#AE4C00"/>
<circle cx="261.402" cy="89.0507" r="1.08392" fill="#AE4C00"/>
<circle cx="258.15" cy="93.745" r="1.44523" fill="#AE4C00"/>
<g filter="url(#filter15_ii_3004_30849)">
<path d="M207.028 185.93C207.214 183.291 209.649 181.397 212.252 181.865L250.446 188.729C253.128 189.211 254.751 191.971 253.866 194.55L251.634 201.061C250.919 203.146 248.785 204.393 246.618 203.992L210.188 197.257C207.962 196.845 206.4 194.828 206.56 192.57L207.028 185.93Z" fill="#FFCA4B"/>
</g>
<circle cx="273.564" cy="82.4111" r="1.08392" fill="#AE4C00"/>
<circle cx="268.146" cy="82.7724" r="1.44523" fill="#AE4C00"/>
<circle cx="274.65" cy="77.7109" r="1.44523" fill="#AE4C00"/>
<defs>
<filter id="filter0_ii_3004_30849" x="35.544" y="24.9189" width="179.868" height="161.017" filterUnits="userSpaceOnUse" color-interpolation-filters="sRGB">
<feFlood flood-opacity="0" result="BackgroundImageFix"/>
<feBlend mode="normal" in="SourceGraphic" in2="BackgroundImageFix" result="shape"/>
<feColorMatrix in="SourceAlpha" type="matrix" values="0 0 0 0 0 0 0 0 0 0 0 0 0 0 0 0 0 0 127 0" result="hardAlpha"/>
<feOffset dx="-8.74899" dy="1.94422"/>
<feGaussianBlur stdDeviation="7.24222"/>
<feComposite in2="hardAlpha" operator="arithmetic" k2="-1" k3="1"/>
<feColorMatrix type="matrix" values="0 0 0 0 1 0 0 0 0 0.912766 0 0 0 0 0.792818 0 0 0 0.8 0"/>
<feBlend mode="normal" in2="shape" result="effect1_innerShadow_3004_30849"/>
<feColorMatrix in="SourceAlpha" type="matrix" values="0 0 0 0 0 0 0 0 0 0 0 0 0 0 0 0 0 0 127 0" result="hardAlpha"/>
<feOffset dx="-0.97211" dy="0.97211"/>
<feGaussianBlur stdDeviation="0.486055"/>
<feComposite in2="hardAlpha" operator="arithmetic" k2="-1" k3="1"/>
<feColorMatrix type="matrix" values="0 0 0 0 0.871206 0 0 0 0 1 0 0 0 0 0.997853 0 0 0 0.5 0"/>
<feBlend mode="normal" in2="effect1_innerShadow_3004_30849" result="effect2_innerShadow_3004_30849"/>
</filter>
<filter id="filter1_n_3004_30849" x="7.69727" y="2.72559" width="226.141" height="202.812" filterUnits="userSpaceOnUse" color-interpolation-filters="sRGB">
<feFlood flood-opacity="0" result="BackgroundImageFix"/>
<feBlend mode="normal" in="SourceGraphic" in2="BackgroundImageFix" result="shape"/>
<feTurbulence type="fractalNoise" baseFrequency="0.10715523362159729 0.10715523362159729" stitchTiles="stitch" numOctaves="3" result="noise" seed="1999" />
<feColorMatrix in="noise" type="luminanceToAlpha" result="alphaNoise" />
<feComponentTransfer in="alphaNoise" result="coloredNoise1">
<feFuncA type="discrete" tableValues="1 1 1 1 1 1 1 1 1 1 1 1 1 1 1 1 1 1 1 1 1 1 1 1 1 1 1 1 1 1 1 1 1 1 1 1 1 1 1 1 1 1 1 1 1 1 1 1 1 1 1 0 0 0 0 0 0 0 0 0 0 0 0 0 0 0 0 0 0 0 0 0 0 0 0 0 0 0 0 0 0 0 0 0 0 0 0 0 0 0 0 0 0 0 0 0 0 0 0 0 "/>
</feComponentTransfer>
<feComposite operator="in" in2="shape" in="coloredNoise1" result="noise1Clipped" />
<feFlood flood-color="rgba(0, 0, 0, 0.08)" result="color1Flood" />
<feComposite operator="in" in2="noise1Clipped" in="color1Flood" result="color1" />
<feMerge result="effect1_noise_3004_30849">
<feMergeNode in="shape" />
<feMergeNode in="color1" />
</feMerge>
</filter>
<filter id="filter2_ii_3004_30849" x="91.4085" y="184.66" width="91.1032" height="36.3973" filterUnits="userSpaceOnUse" color-interpolation-filters="sRGB">
<feFlood flood-opacity="0" result="BackgroundImageFix"/>
<feBlend mode="normal" in="SourceGraphic" in2="BackgroundImageFix" result="shape"/>
<feColorMatrix in="SourceAlpha" type="matrix" values="0 0 0 0 0 0 0 0 0 0 0 0 0 0 0 0 0 0 127 0" result="hardAlpha"/>
<feOffset dx="-10.6932" dy="1.94422"/>
<feGaussianBlur stdDeviation="5.15218"/>
<feComposite in2="hardAlpha" operator="arithmetic" k2="-1" k3="1"/>
<feColorMatrix type="matrix" values="0 0 0 0 0.869328 0 0 0 0 0.719989 0 0 0 0 1 0 0 0 0.2 0"/>
<feBlend mode="normal" in2="shape" result="effect1_innerShadow_3004_30849"/>
<feColorMatrix in="SourceAlpha" type="matrix" values="0 0 0 0 0 0 0 0 0 0 0 0 0 0 0 0 0 0 127 0" result="hardAlpha"/>
<feOffset dx="-0.97211"/>
<feGaussianBlur stdDeviation="0.486055"/>
<feComposite in2="hardAlpha" operator="arithmetic" k2="-1" k3="1"/>
<feColorMatrix type="matrix" values="0 0 0 0 0.858824 0 0 0 0 0.976471 0 0 0 0 0.984314 0 0 0 0.2 0"/>
<feBlend mode="normal" in2="effect1_innerShadow_3004_30849" result="effect2_innerShadow_3004_30849"/>
</filter>
<filter id="filter3_g_3004_30849" x="97.5843" y="106.552" width="34.4741" height="30.7426" filterUnits="userSpaceOnUse" color-interpolation-filters="sRGB">
<feFlood flood-opacity="0" result="BackgroundImageFix"/>
<feBlend mode="normal" in="SourceGraphic" in2="BackgroundImageFix" result="shape"/>
<feTurbulence type="fractalNoise" baseFrequency="1.1429891586303711 1.1429891586303711" numOctaves="3" seed="3511" />
<feDisplacementMap in="shape" scale="0.97210973501205444" xChannelSelector="R" yChannelSelector="G" result="displacedImage" width="100%" height="100%" />
<feMerge result="effect1_texture_3004_30849">
<feMergeNode in="displacedImage"/>
</feMerge>
</filter>
<filter id="filter4_g_3004_30849" x="103.985" y="110.913" width="23.3553" height="21.448" filterUnits="userSpaceOnUse" color-interpolation-filters="sRGB">
<feFlood flood-opacity="0" result="BackgroundImageFix"/>
<feBlend mode="normal" in="SourceGraphic" in2="BackgroundImageFix" result="shape"/>
<feTurbulence type="fractalNoise" baseFrequency="1.7402914762496948 1.7402914762496948" numOctaves="3" seed="3511" />
<feDisplacementMap in="shape" scale="0.63846266269683838" xChannelSelector="R" yChannelSelector="G" result="displacedImage" width="100%" height="100%" />
<feMerge result="effect1_texture_3004_30849">
<feMergeNode in="displacedImage"/>
</feMerge>
</filter>
<filter id="filter5_g_3004_30849" x="145.463" y="101.946" width="31.2709" height="30.6772" filterUnits="userSpaceOnUse" color-interpolation-filters="sRGB">
<feFlood flood-opacity="0" result="BackgroundImageFix"/>
<feBlend mode="normal" in="SourceGraphic" in2="BackgroundImageFix" result="shape"/>
<feTurbulence type="fractalNoise" baseFrequency="1.1429891586303711 1.1429891586303711" numOctaves="3" seed="3511" />
<feDisplacementMap in="shape" scale="0.97210973501205444" xChannelSelector="R" yChannelSelector="G" result="displacedImage" width="100%" height="100%" />
<feMerge result="effect1_texture_3004_30849">
<feMergeNode in="displacedImage"/>
</feMerge>
</filter>
<filter id="filter6_g_3004_30849" x="149.691" y="106.03" width="22.9822" height="21.7176" filterUnits="userSpaceOnUse" color-interpolation-filters="sRGB">
<feFlood flood-opacity="0" result="BackgroundImageFix"/>
<feBlend mode="normal" in="SourceGraphic" in2="BackgroundImageFix" result="shape"/>
<feTurbulence type="fractalNoise" baseFrequency="1.7402914762496948 1.7402914762496948" numOctaves="3" seed="3511" />
<feDisplacementMap in="shape" scale="0.63846266269683838" xChannelSelector="R" yChannelSelector="G" result="displacedImage" width="100%" height="100%" />
<feMerge result="effect1_texture_3004_30849">
<feMergeNode in="displacedImage"/>
</feMerge>
</filter>
<filter id="filter7_ii_3004_30849" x="256.739" y="109.613" width="39.6594" height="44.3686" filterUnits="userSpaceOnUse" color-interpolation-filters="sRGB">
<feFlood flood-opacity="0" result="BackgroundImageFix"/>
<feBlend mode="normal" in="SourceGraphic" in2="BackgroundImageFix" result="shape"/>
<feColorMatrix in="SourceAlpha" type="matrix" values="0 0 0 0 0 0 0 0 0 0 0 0 0 0 0 0 0 0 127 0" result="hardAlpha"/>
<feOffset dx="-5.5947" dy="-2.79735"/>
<feGaussianBlur stdDeviation="3.60159"/>
<feComposite in2="hardAlpha" operator="arithmetic" k2="-1" k3="1"/>
<feColorMatrix type="matrix" values="0 0 0 0 1 0 0 0 0 0.719161 0 0 0 0 0.234075 0 0 0 1 0"/>
<feBlend mode="normal" in2="shape" result="effect1_innerShadow_3004_30849"/>
<feColorMatrix in="SourceAlpha" type="matrix" values="0 0 0 0 0 0 0 0 0 0 0 0 0 0 0 0 0 0 127 0" result="hardAlpha"/>
<feOffset dx="1.4827" dy="-1.4827"/>
<feGaussianBlur stdDeviation="1.4827"/>
<feComposite in2="hardAlpha" operator="arithmetic" k2="-1" k3="1"/>
<feColorMatrix type="matrix" values="0 0 0 0 1 0 0 0 0 0.686276 0 0 0 0 0.127028 0 0 0 1 0"/>
<feBlend mode="normal" in2="effect1_innerShadow_3004_30849" result="effect2_innerShadow_3004_30849"/>
</filter>
<filter id="filter8_iiii_3004_30849" x="187.821" y="98.8062" width="30.7914" height="50.165" filterUnits="userSpaceOnUse" color-interpolation-filters="sRGB">
<feFlood flood-opacity="0" result="BackgroundImageFix"/>
<feBlend mode="normal" in="SourceGraphic" in2="BackgroundImageFix" result="shape"/>
<feColorMatrix in="SourceAlpha" type="matrix" values="0 0 0 0 0 0 0 0 0 0 0 0 0 0 0 0 0 0 127 0" result="hardAlpha"/>
<feOffset dx="-5.5947" dy="-2.79735"/>
<feGaussianBlur stdDeviation="3.60159"/>
<feComposite in2="hardAlpha" operator="arithmetic" k2="-1" k3="1"/>
<feColorMatrix type="matrix" values="0 0 0 0 1 0 0 0 0 0.719161 0 0 0 0 0.234075 0 0 0 1 0"/>
<feBlend mode="normal" in2="shape" result="effect1_innerShadow_3004_30849"/>
<feColorMatrix in="SourceAlpha" type="matrix" values="0 0 0 0 0 0 0 0 0 0 0 0 0 0 0 0 0 0 127 0" result="hardAlpha"/>
<feOffset dx="2.22405" dy="2.22405"/>
<feGaussianBlur stdDeviation="2.66886"/>
<feComposite in2="hardAlpha" operator="arithmetic" k2="-1" k3="1"/>
<feColorMatrix type="matrix" values="0 0 0 0 1 0 0 0 0 0.666667 0 0 0 0 0 0 0 0 0.6 0"/>
<feBlend mode="normal" in2="effect1_innerShadow_3004_30849" result="effect2_innerShadow_3004_30849"/>
<feColorMatrix in="SourceAlpha" type="matrix" values="0 0 0 0 0 0 0 0 0 0 0 0 0 0 0 0 0 0 127 0" result="hardAlpha"/>
<feOffset dx="1.4827" dy="-1.4827"/>
<feGaussianBlur stdDeviation="1.4827"/>
<feComposite in2="hardAlpha" operator="arithmetic" k2="-1" k3="1"/>
<feColorMatrix type="matrix" values="0 0 0 0 1 0 0 0 0 0.686276 0 0 0 0 0.127028 0 0 0 1 0"/>
<feBlend mode="normal" in2="effect2_innerShadow_3004_30849" result="effect3_innerShadow_3004_30849"/>
<feColorMatrix in="SourceAlpha" type="matrix" values="0 0 0 0 0 0 0 0 0 0 0 0 0 0 0 0 0 0 127 0" result="hardAlpha"/>
<feOffset dx="0.741349" dy="0.741349"/>
<feGaussianBlur stdDeviation="0.741349"/>
<feComposite in2="hardAlpha" operator="arithmetic" k2="-1" k3="1"/>
<feColorMatrix type="matrix" values="0 0 0 0 1 0 0 0 0 1 0 0 0 0 1 0 0 0 0.6 0"/>
<feBlend mode="normal" in2="effect3_innerShadow_3004_30849" result="effect4_innerShadow_3004_30849"/>
</filter>
<filter id="filter9_i_3004_30849" x="213.674" y="70.9072" width="31.3159" height="34.8335" filterUnits="userSpaceOnUse" color-interpolation-filters="sRGB">
<feFlood flood-opacity="0" result="BackgroundImageFix"/>
<feBlend mode="normal" in="SourceGraphic" in2="BackgroundImageFix" result="shape"/>
<feColorMatrix in="SourceAlpha" type="matrix" values="0 0 0 0 0 0 0 0 0 0 0 0 0 0 0 0 0 0 127 0" result="hardAlpha"/>
<feOffset dx="2.47414" dy="2.47414"/>
<feGaussianBlur stdDeviation="2.96897"/>
<feComposite in2="hardAlpha" operator="arithmetic" k2="-1" k3="1"/>
<feColorMatrix type="matrix" values="0 0 0 0 0.872844 0 0 0 0 1 0 0 0 0 0.36422 0 0 0 0.6 0"/>
<feBlend mode="normal" in2="shape" result="effect1_innerShadow_3004_30849"/>
</filter>
<filter id="filter10_i_3004_30849" x="202.344" y="74.5664" width="34.1043" height="33.4292" filterUnits="userSpaceOnUse" color-interpolation-filters="sRGB">
<feFlood flood-opacity="0" result="BackgroundImageFix"/>
<feBlend mode="normal" in="SourceGraphic" in2="BackgroundImageFix" result="shape"/>
<feColorMatrix in="SourceAlpha" type="matrix" values="0 0 0 0 0 0 0 0 0 0 0 0 0 0 0 0 0 0 127 0" result="hardAlpha"/>
<feOffset dx="4.4481" dy="2.47414"/>
<feGaussianBlur stdDeviation="2.96897"/>
<feComposite in2="hardAlpha" operator="arithmetic" k2="-1" k3="1"/>
<feColorMatrix type="matrix" values="0 0 0 0 0.444937 0 0 0 0 0.944092 0 0 0 0 0.636279 0 0 0 0.6 0"/>
<feBlend mode="normal" in2="shape" result="effect1_innerShadow_3004_30849"/>
</filter>
<filter id="filter11_iii_3004_30849" x="208.303" y="149.327" width="46.3783" height="39.7593" filterUnits="userSpaceOnUse" color-interpolation-filters="sRGB">
<feFlood flood-opacity="0" result="BackgroundImageFix"/>
<feBlend mode="normal" in="SourceGraphic" in2="BackgroundImageFix" result="shape"/>
<feColorMatrix in="SourceAlpha" type="matrix" values="0 0 0 0 0 0 0 0 0 0 0 0 0 0 0 0 0 0 127 0" result="hardAlpha"/>
<feOffset dx="-2.53076" dy="-2.53076"/>
<feGaussianBlur stdDeviation="7.75045"/>
<feComposite in2="hardAlpha" operator="arithmetic" k2="-1" k3="1"/>
<feColorMatrix type="matrix" values="0 0 0 0 1 0 0 0 0 0.719161 0 0 0 0 0.234075 0 0 0 1 0"/>
<feBlend mode="normal" in2="shape" result="effect1_innerShadow_3004_30849"/>
<feColorMatrix in="SourceAlpha" type="matrix" values="0 0 0 0 0 0 0 0 0 0 0 0 0 0 0 0 0 0 127 0" result="hardAlpha"/>
<feOffset dx="1.89807" dy="-0.63269"/>
<feGaussianBlur stdDeviation="5.25132"/>
<feComposite in2="hardAlpha" operator="arithmetic" k2="-1" k3="1"/>
<feColorMatrix type="matrix" values="0 0 0 0 0.982536 0 0 0 0 1 0 0 0 0 0.790433 0 0 0 0.7 0"/>
<feBlend mode="normal" in2="effect1_innerShadow_3004_30849" result="effect2_innerShadow_3004_30849"/>
<feColorMatrix in="SourceAlpha" type="matrix" values="0 0 0 0 0 0 0 0 0 0 0 0 0 0 0 0 0 0 127 0" result="hardAlpha"/>
<feOffset dx="-3.70675" dy="-0.741349"/>
<feGaussianBlur stdDeviation="1.85337"/>
<feComposite in2="hardAlpha" operator="arithmetic" k2="-1" k3="1"/>
<feColorMatrix type="matrix" values="0 0 0 0 1 0 0 0 0 0.686276 0 0 0 0 0.127028 0 0 0 1 0"/>
<feBlend mode="normal" in2="effect2_innerShadow_3004_30849" result="effect3_innerShadow_3004_30849"/>
</filter>
<filter id="filter12_iii_3004_30849" x="240.245" y="72.6465" width="46.1806" height="47.6885" filterUnits="userSpaceOnUse" color-interpolation-filters="sRGB">
<feFlood flood-opacity="0" result="BackgroundImageFix"/>
<feBlend mode="normal" in="SourceGraphic" in2="BackgroundImageFix" result="shape"/>
<feColorMatrix in="SourceAlpha" type="matrix" values="0 0 0 0 0 0 0 0 0 0 0 0 0 0 0 0 0 0 127 0" result="hardAlpha"/>
<feOffset dy="2.46681"/>
<feGaussianBlur stdDeviation="4.16274"/>
<feComposite in2="hardAlpha" operator="arithmetic" k2="-1" k3="1"/>
<feColorMatrix type="matrix" values="0 0 0 0 0.94902 0 0 0 0 0.52549 0 0 0 0 0.309804 0 0 0 1 0"/>
<feBlend mode="normal" in2="shape" result="effect1_innerShadow_3004_30849"/>
<feColorMatrix in="SourceAlpha" type="matrix" values="0 0 0 0 0 0 0 0 0 0 0 0 0 0 0 0 0 0 127 0" result="hardAlpha"/>
<feOffset dx="-3.70021" dy="-1.2334"/>
<feGaussianBlur stdDeviation="2.16785"/>
<feComposite in2="hardAlpha" operator="arithmetic" k2="-1" k3="1"/>
<feColorMatrix type="matrix" values="0 0 0 0 0.67451 0 0 0 0 0.305882 0 0 0 0 0.027451 0 0 0 1 0"/>
<feBlend mode="normal" in2="effect1_innerShadow_3004_30849" result="effect2_innerShadow_3004_30849"/>
<feColorMatrix in="SourceAlpha" type="matrix" values="0 0 0 0 0 0 0 0 0 0 0 0 0 0 0 0 0 0 127 0" result="hardAlpha"/>
<feOffset dx="2.16785" dy="2.16785"/>
<feGaussianBlur stdDeviation="4.08278"/>
<feComposite in2="hardAlpha" operator="arithmetic" k2="-1" k3="1"/>
<feColorMatrix type="matrix" values="0 0 0 0 1 0 0 0 0 0.728835 0 0 0 0 0.728835 0 0 0 0.6 0"/>
<feBlend mode="normal" in2="effect2_innerShadow_3004_30849" result="effect3_innerShadow_3004_30849"/>
</filter>
<filter id="filter13_iii_3004_30849" x="194.152" y="91.4976" width="87.8811" height="78.0762" filterUnits="userSpaceOnUse" color-interpolation-filters="sRGB">
<feFlood flood-opacity="0" result="BackgroundImageFix"/>
<feBlend mode="normal" in="SourceGraphic" in2="BackgroundImageFix" result="shape"/>
<feColorMatrix in="SourceAlpha" type="matrix" values="0 0 0 0 0 0 0 0 0 0 0 0 0 0 0 0 0 0 127 0" result="hardAlpha"/>
<feOffset dx="-15.8172" dy="-2.53076"/>
<feGaussianBlur stdDeviation="9.01583"/>
<feComposite in2="hardAlpha" operator="arithmetic" k2="-1" k3="1"/>
<feColorMatrix type="matrix" values="0 0 0 0 1 0 0 0 0 0.719161 0 0 0 0 0.234075 0 0 0 1 0"/>
<feBlend mode="normal" in2="shape" result="effect1_innerShadow_3004_30849"/>
<feColorMatrix in="SourceAlpha" type="matrix" values="0 0 0 0 0 0 0 0 0 0 0 0 0 0 0 0 0 0 127 0" result="hardAlpha"/>
<feOffset dx="-3.70675" dy="-0.741349"/>
<feGaussianBlur stdDeviation="1.85337"/>
<feComposite in2="hardAlpha" operator="arithmetic" k2="-1" k3="1"/>
<feColorMatrix type="matrix" values="0 0 0 0 1 0 0 0 0 0.686276 0 0 0 0 0.127028 0 0 0 1 0"/>
<feBlend mode="normal" in2="effect1_innerShadow_3004_30849" result="effect2_innerShadow_3004_30849"/>
<feColorMatrix in="SourceAlpha" type="matrix" values="0 0 0 0 0 0 0 0 0 0 0 0 0 0 0 0 0 0 127 0" result="hardAlpha"/>
<feOffset dx="2.22405" dy="2.9654"/>
<feGaussianBlur stdDeviation="2.52059"/>
<feComposite in2="hardAlpha" operator="arithmetic" k2="-1" k3="1"/>
<feColorMatrix type="matrix" values="0 0 0 0 1 0 0 0 0 0.902907 0 0 0 0 0.902907 0 0 0 0.6 0"/>
<feBlend mode="normal" in2="effect2_innerShadow_3004_30849" result="effect3_innerShadow_3004_30849"/>
</filter>
<filter id="filter14_f_3004_30849" x="212.083" y="80.7456" width="31.8311" height="54.4141" filterUnits="userSpaceOnUse" color-interpolation-filters="sRGB">
<feFlood flood-opacity="0" result="BackgroundImageFix"/>
<feBlend mode="normal" in="SourceGraphic" in2="BackgroundImageFix" result="shape"/>
<feGaussianBlur stdDeviation="3.66968" result="effect1_foregroundBlur_3004_30849"/>
</filter>
<filter id="filter15_ii_3004_30849" x="197.727" y="174.38" width="57.8653" height="31.1687" filterUnits="userSpaceOnUse" color-interpolation-filters="sRGB">
<feFlood flood-opacity="0" result="BackgroundImageFix"/>
<feBlend mode="normal" in="SourceGraphic" in2="BackgroundImageFix" result="shape"/>
<feColorMatrix in="SourceAlpha" type="matrix" values="0 0 0 0 0 0 0 0 0 0 0 0 0 0 0 0 0 0 127 0" result="hardAlpha"/>
<feOffset dx="-11.1202" dy="-7.41349"/>
<feGaussianBlur stdDeviation="4.41103"/>
<feComposite in2="hardAlpha" operator="arithmetic" k2="-1" k3="1"/>
<feColorMatrix type="matrix" values="0 0 0 0 0.988235 0 0 0 0 0.647451 0 0 0 0 0.0588235 0 0 0 1 0"/>
<feBlend mode="normal" in2="shape" result="effect1_innerShadow_3004_30849"/>
<feColorMatrix in="SourceAlpha" type="matrix" values="0 0 0 0 0 0 0 0 0 0 0 0 0 0 0 0 0 0 127 0" result="hardAlpha"/>
<feOffset dx="1.4827" dy="1.4827"/>
<feGaussianBlur stdDeviation="0.741349"/>
<feComposite in2="hardAlpha" operator="arithmetic" k2="-1" k3="1"/>
<feColorMatrix type="matrix" values="0 0 0 0 1 0 0 0 0 1 0 0 0 0 1 0 0 0 0.5 0"/>
<feBlend mode="normal" in2="effect1_innerShadow_3004_30849" result="effect2_innerShadow_3004_30849"/>
</filter>
<linearGradient id="paint0_linear_3004_30849" x1="232.675" y1="75.1865" x2="29.4458" y2="161.427" gradientUnits="userSpaceOnUse">
<stop stop-color="#FFB2B2" stop-opacity="0.2"/>
<stop offset="1" stop-color="white" stop-opacity="0"/>
</linearGradient>
<linearGradient id="paint1_linear_3004_30849" x1="10.9196" y1="34.9459" x2="93.0629" y2="212.021" gradientUnits="userSpaceOnUse">
<stop stop-color="#8C3E3E"/>
<stop offset="0.586538" stop-color="#CEB484"/>
<stop offset="1" stop-color="#8F5B5B"/>
</linearGradient>
<linearGradient id="paint2_linear_3004_30849" x1="36.1841" y1="52.1951" x2="88.8904" y2="124.153" gradientUnits="userSpaceOnUse">
<stop stop-color="#FFD9D9"/>
<stop offset="0.440397" stop-color="#FFD9D9" stop-opacity="0"/>
</linearGradient>
<linearGradient id="paint3_linear_3004_30849" x1="17.2402" y1="99.5248" x2="37.6677" y2="103.699" gradientUnits="userSpaceOnUse">
<stop stop-color="#FFD9D9"/>
<stop offset="1" stop-color="#FFD9D9" stop-opacity="0"/>
</linearGradient>
</defs>
</svg>
