<svg width="24" height="24" viewBox="0 0 24 24" fill="none" xmlns="http://www.w3.org/2000/svg">
<path fill-rule="evenodd" clip-rule="evenodd" d="M11.0752 3.47461C13.1866 3.47461 14.9792 4.21251 16.4521 5.68848C17.9252 7.16474 18.662 8.95894 18.6621 11.0703C18.6621 11.9898 18.5113 12.8563 18.21 13.6689C17.9086 14.4816 17.4879 15.2172 16.9482 15.875L20.5205 19.4619L19.4766 20.5254L15.8789 16.9434C15.2213 17.4895 14.4864 17.9135 13.6738 18.2148C12.861 18.5162 11.9945 18.667 11.0752 18.667C8.96377 18.6669 7.17038 17.9283 5.69434 16.4521C4.218 14.9758 3.47949 13.1818 3.47949 11.0703C3.47956 8.95894 4.21807 7.16474 5.69434 5.68848C7.17033 4.21269 8.96391 3.47471 11.0752 3.47461ZM11.0742 4.97461C9.38305 4.97461 7.94381 5.56695 6.75781 6.75195C5.57209 7.93704 4.97955 9.37632 4.97949 11.0693C4.97949 12.7622 5.57181 14.2019 6.75684 15.3877C7.94197 16.5737 9.38128 17.167 11.0742 17.167C12.7674 17.167 14.205 16.5738 15.3877 15.3887C16.5703 14.2036 17.162 12.7651 17.1621 11.0723C17.1621 9.3791 16.5706 7.93876 15.3867 6.75293C14.203 5.5672 12.7652 4.97469 11.0742 4.97461Z" fill="black"/>
</svg>
