<svg width="21" height="19" viewBox="0 0 21 19" fill="none" xmlns="http://www.w3.org/2000/svg">
<path fill-rule="evenodd" clip-rule="evenodd" d="M13.1748 6.77832L20.0098 7.36523L14.8291 11.8496L16.377 18.5L10.5 14.9668L4.63281 18.5L6.18066 11.8496L1 7.36523L7.83496 6.77832L10.5 0.5L13.1748 6.77832ZM8.84766 8.17285L4.68848 8.53613L7.84766 11.2979L6.9082 15.3535L10.5 13.1943L14.1016 15.3887L13.1611 11.2979L16.3213 8.57129L12.1611 8.19824L10.5 4.33691L8.84766 8.17285Z" fill="white"/>
<path d="M4.0459 13.7002L1.39258 16.3535L0.347656 15.2998L2.99219 12.6553L4.0459 13.7002Z" fill="white"/>
<path d="M20.6523 15.2998L19.5977 16.3535L16.9541 13.7002L17.998 12.6553L20.6523 15.2998Z" fill="white"/>
<path d="M5.85352 3.49219L4.7998 4.5459L2.15625 1.89258L3.2002 0.847656L5.85352 3.49219Z" fill="white"/>
<path d="M18.8535 1.89258L16.2002 4.53613L15.1562 3.49219L17.7998 0.847656L18.8535 1.89258Z" fill="white"/>
</svg>
