<svg width="298" height="274" viewBox="0 0 298 274" fill="none" xmlns="http://www.w3.org/2000/svg">
<g clip-path="url(#clip0_2713_18459)">
<path d="M0.711832 19.1249L0.606378 19.2835L0.78968 19.3352L0.60696 19.3889L0.714159 19.5463L0.53967 19.47L0.520606 19.6595L0.435993 19.4889L0.299587 19.6218L0.344441 19.4367L0.154518 19.4508L0.307852 19.3379L0.15328 19.2266L0.343347 19.2386L0.296451 19.054L0.434317 19.1854L0.51704 19.0139L0.538196 19.2032L0.711832 19.1249Z" fill="white"/>
<path d="M63.4837 37.9531L63.3782 38.1116L63.5615 38.1633L63.3788 38.217L63.486 38.3744L63.3115 38.2981L63.2925 38.4876L63.2078 38.317L63.0714 38.4499L63.1163 38.2648L62.9264 38.2789L63.0797 38.166L62.9251 38.0547L63.1152 38.0668L63.0683 37.8822L63.2062 38.0136L63.2889 37.842L63.31 38.0313L63.4837 37.9531Z" fill="white"/>
<path d="M25.1145 59.5937L25.0091 59.7523L25.1924 59.8039L25.0097 59.8576L25.1169 60.0151L24.9424 59.9387L24.9233 60.1282L24.8387 59.9576L24.7023 60.0905L24.7472 59.9054L24.5572 59.9196L24.7106 59.8066L24.556 59.6953L24.7461 59.7074L24.6992 59.5228L24.837 59.6542L24.9198 59.4826L24.9409 59.6719L25.1145 59.5937Z" fill="white"/>
<path d="M31.016 25.164L30.9106 25.3226L31.0939 25.3743L30.9112 25.428L31.0184 25.5854L30.8439 25.5091L30.8248 25.6985L30.7402 25.5279L30.6038 25.6608L30.6486 25.4757L30.4587 25.4899L30.6121 25.3769L30.4575 25.2657L30.6475 25.2777L30.6007 25.0931L30.7385 25.2245L30.8212 25.053L30.8424 25.2422L31.016 25.164Z" fill="white"/>
<path d="M12.9792 33.3593L12.8737 33.5179L13.057 33.5696L12.8743 33.6233L12.9815 33.7807L12.807 33.7044L12.7879 33.8939L12.7033 33.7232L12.5669 33.8561L12.6118 33.6711L12.4219 33.6852L12.5752 33.5722L12.4206 33.461L12.6107 33.473L12.5638 33.2884L12.7017 33.4198L12.7844 33.2483L12.8055 33.4375L12.9792 33.3593Z" fill="white"/>
<path d="M127.104 54.0234L126.999 54.182L127.182 54.2336L126.999 54.2873L127.107 54.4447L126.932 54.3684L126.913 54.5579L126.828 54.3873L126.692 54.5202L126.737 54.3351L126.547 54.3492L126.7 54.2363L126.546 54.125L126.736 54.1371L126.689 53.9525L126.827 54.0839L126.909 53.9123L126.931 54.1016L127.104 54.0234Z" fill="white"/>
<path d="M69.7135 19.9218L69.6081 20.0804L69.7914 20.1321L69.6087 20.1858L69.7159 20.3432L69.5414 20.2669L69.5223 20.4564L69.4377 20.2857L69.3013 20.4186L69.3461 20.2336L69.1562 20.2477L69.3096 20.1347L69.155 20.0235L69.3451 20.0355L69.2982 19.8509L69.436 19.9823L69.5187 19.8108L69.5399 20L69.7135 19.9218Z" fill="white"/>
<path d="M208.761 38.9374L208.656 39.096L208.839 39.1477L208.657 39.2014L208.764 39.3588L208.589 39.2825L208.57 39.472L208.486 39.3014L208.349 39.4343L208.394 39.2492L208.204 39.2633L208.357 39.1504L208.203 39.0391L208.393 39.0511L208.346 38.8665L208.484 38.9979L208.567 38.8264L208.588 39.0157L208.761 38.9374Z" fill="white"/>
<path d="M132.68 92.7187L132.574 92.8773L132.757 92.9289L132.575 92.9826L132.682 93.1401L132.507 93.0637L132.488 93.2532L132.404 93.0826L132.267 93.2155L132.312 93.0304L132.122 93.0446L132.276 92.9316L132.121 92.8203L132.311 92.8324L132.264 92.6478L132.402 92.7792L132.485 92.6076L132.506 92.7969L132.68 92.7187Z" fill="white"/>
<path d="M69.3874 66.8124L69.2819 66.971L69.4652 67.0227L69.2825 67.0764L69.3897 67.2338L69.2152 67.1575L69.1961 67.347L69.1115 67.1764L68.9751 67.3093L69.02 67.1242L68.8301 67.1383L68.9834 67.0254L68.8288 66.9141L69.0189 66.9261L68.972 66.7415L69.1099 66.8729L69.1926 66.7014L69.2137 66.8907L69.3874 66.8124Z" fill="white"/>
<path d="M66.7636 117.641L66.6581 117.799L66.8414 117.851L66.6587 117.905L66.7659 118.062L66.5914 117.986L66.5724 118.175L66.4878 118.004L66.3513 118.137L66.3962 117.952L66.2063 117.966L66.3596 117.853L66.205 117.742L66.3951 117.754L66.3482 117.57L66.4861 117.701L66.5688 117.53L66.59 117.719L66.7636 117.641Z" fill="white"/>
<path d="M262.872 113.047L262.767 113.205L262.95 113.257L262.767 113.311L262.875 113.468L262.7 113.392L262.681 113.581L262.597 113.411L262.46 113.544L262.505 113.359L262.315 113.373L262.468 113.26L262.314 113.148L262.504 113.161L262.457 112.976L262.595 113.107L262.678 112.936L262.699 113.125L262.872 113.047Z" fill="white"/>
<path d="M199.252 273.75L199.146 273.909L199.33 273.96L199.147 274.014L199.254 274.171L199.08 274.095L199.061 274.284L198.976 274.114L198.84 274.247L198.884 274.062L198.694 274.076L198.848 273.963L198.693 273.852L198.883 273.864L198.836 273.679L198.974 273.81L199.057 273.639L199.078 273.828L199.252 273.75Z" fill="white"/>
<path d="M256.971 149.453L256.865 149.612L257.048 149.663L256.866 149.717L256.973 149.874L256.798 149.798L256.779 149.988L256.695 149.817L256.558 149.95L256.603 149.765L256.413 149.779L256.567 149.666L256.412 149.555L256.602 149.567L256.555 149.382L256.693 149.514L256.776 149.342L256.797 149.531L256.971 149.453Z" fill="white"/>
<path d="M167.769 123.547L167.663 123.705L167.847 123.757L167.664 123.811L167.771 123.968L167.597 123.892L167.578 124.081L167.493 123.911L167.357 124.044L167.401 123.859L167.212 123.873L167.365 123.76L167.21 123.648L167.4 123.661L167.353 123.476L167.491 123.607L167.574 123.436L167.595 123.625L167.769 123.547Z" fill="white"/>
<path d="M99.2292 247.508L99.1237 247.666L99.307 247.718L99.1243 247.772L99.2315 247.929L99.057 247.853L99.0379 248.042L98.9533 247.872L98.8169 248.005L98.8618 247.819L98.6719 247.834L98.8252 247.721L98.6706 247.609L98.8607 247.621L98.8138 247.437L98.9517 247.568L99.0344 247.397L99.0555 247.586L99.2292 247.508Z" fill="white"/>
<path d="M19.539 210.125L19.4335 210.284L19.6168 210.335L19.4341 210.389L19.5413 210.546L19.3668 210.47L19.3478 210.659L19.2631 210.489L19.1267 210.622L19.1716 210.437L18.9817 210.451L19.135 210.338L18.9804 210.227L19.1705 210.239L19.1236 210.054L19.2615 210.185L19.3442 210.014L19.3653 210.203L19.539 210.125Z" fill="white"/>
<path d="M20.5236 96.3281L20.4181 96.4866L20.6014 96.5383L20.4187 96.592L20.5259 96.7494L20.3514 96.6731L20.3324 96.8626L20.2478 96.692L20.1114 96.8249L20.1562 96.6398L19.9663 96.6539L20.1196 96.541L19.965 96.4297L20.1551 96.4418L20.1082 96.2572L20.2461 96.3886L20.3288 96.217L20.35 96.4063L20.5236 96.3281Z" fill="white"/>
<path d="M126.12 107.148L126.014 107.307L126.198 107.359L126.015 107.412L126.122 107.57L125.948 107.493L125.928 107.683L125.844 107.512L125.707 107.645L125.752 107.46L125.562 107.474L125.716 107.361L125.561 107.25L125.751 107.262L125.704 107.077L125.842 107.209L125.925 107.037L125.946 107.227L126.12 107.148Z" fill="white"/>
<path d="M276.318 185.203L276.213 185.362L276.396 185.413L276.214 185.467L276.321 185.624L276.146 185.548L276.127 185.738L276.043 185.567L275.906 185.7L275.951 185.515L275.761 185.529L275.914 185.416L275.76 185.305L275.95 185.317L275.903 185.132L276.041 185.264L276.124 185.092L276.145 185.281L276.318 185.203Z" fill="white"/>
<path d="M232.702 225.531L232.597 225.69L232.78 225.741L232.597 225.795L232.704 225.953L232.53 225.876L232.511 226.066L232.426 225.895L232.29 226.028L232.335 225.843L232.145 225.857L232.298 225.744L232.144 225.633L232.334 225.645L232.287 225.46L232.425 225.592L232.507 225.42L232.528 225.609L232.702 225.531Z" fill="white"/>
<path d="M172.36 134.367L172.254 134.526L172.438 134.577L172.255 134.631L172.362 134.788L172.188 134.712L172.169 134.902L172.084 134.731L171.948 134.864L171.992 134.679L171.802 134.693L171.956 134.58L171.801 134.469L171.991 134.481L171.944 134.296L172.082 134.428L172.165 134.256L172.186 134.445L172.36 134.367Z" fill="white"/>
<path d="M243.525 75.0077L243.419 75.1663L243.602 75.218L243.42 75.2717L243.527 75.4291L243.352 75.3528L243.333 75.5423L243.249 75.3717L243.112 75.5046L243.157 75.3195L242.967 75.3336L243.121 75.2207L242.966 75.1094L243.156 75.1214L243.109 74.9369L243.247 75.0682L243.33 74.8967L243.351 75.086L243.525 75.0077Z" fill="white"/>
<path d="M32.0007 243.906L31.8952 244.065L32.0785 244.116L31.8958 244.17L32.003 244.328L31.8285 244.251L31.8094 244.441L31.7248 244.27L31.5884 244.403L31.6333 244.218L31.4433 244.232L31.5967 244.119L31.4421 244.008L31.6322 244.02L31.5853 243.835L31.7231 243.967L31.8059 243.795L31.827 243.984L32.0007 243.906Z" fill="white"/>
<path d="M24.1299 144.859L24.0245 145.018L24.2078 145.07L24.0251 145.123L24.1322 145.281L23.9578 145.204L23.9387 145.394L23.8541 145.223L23.7177 145.356L23.7625 145.171L23.5726 145.185L23.7259 145.072L23.5714 144.961L23.7614 144.973L23.7145 144.788L23.8524 144.92L23.9351 144.748L23.9563 144.938L24.1299 144.859Z" fill="white"/>
<path d="M204.827 141.25L204.722 141.409L204.905 141.46L204.722 141.514L204.829 141.671L204.655 141.595L204.636 141.784L204.551 141.614L204.415 141.747L204.46 141.562L204.27 141.576L204.423 141.463L204.269 141.352L204.459 141.364L204.412 141.179L204.55 141.31L204.632 141.139L204.653 141.328L204.827 141.25Z" fill="white"/>
<path d="M152.355 188.484L152.25 188.643L152.433 188.695L152.251 188.748L152.358 188.906L152.183 188.829L152.164 189.019L152.08 188.848L151.943 188.981L151.988 188.796L151.798 188.81L151.951 188.697L151.797 188.586L151.987 188.598L151.94 188.413L152.078 188.545L152.161 188.373L152.182 188.563L152.355 188.484Z" fill="white"/>
<path d="M187.331 211.031L187.12 211.349L187.486 211.452L187.121 211.56L187.335 211.875L186.986 211.722L186.948 212.101L186.779 211.76L186.506 212.026L186.595 211.655L186.215 211.683L186.522 211.457L186.213 211.235L186.593 211.259L186.499 210.89L186.775 211.152L186.941 210.809L186.983 211.188L187.331 211.031Z" fill="white"/>
<path d="M106.173 155.281L105.962 155.599L106.329 155.702L105.963 155.81L106.178 156.125L105.829 155.972L105.79 156.351L105.621 156.01L105.348 156.276L105.438 155.905L105.058 155.933L105.365 155.707L105.055 155.485L105.436 155.509L105.342 155.14L105.618 155.402L105.783 155.059L105.826 155.438L106.173 155.281Z" fill="white"/>
<path d="M225.872 19.5157L225.661 19.8331L226.028 19.9365L225.662 20.0439L225.876 20.3589L225.527 20.2062L225.489 20.5854L225.32 20.244L225.047 20.5099L225.137 20.1395L224.757 20.1678L225.063 19.9418L224.754 19.7192L225.134 19.7432L225.041 19.3739L225.316 19.6368L225.482 19.2936L225.524 19.6723L225.872 19.5157Z" fill="white"/>
<path d="M154.38 20.4923L154.169 20.8096L154.536 20.913L154.17 21.0205L154.385 21.3355L154.036 21.1828L153.998 21.5619L153.828 21.2205L153.555 21.4865L153.645 21.1161L153.265 21.1444L153.572 20.9184L153.263 20.6957L153.643 20.7198L153.549 20.3505L153.825 20.6134L153.991 20.2701L154.033 20.6488L154.38 20.4923Z" fill="white"/>
<path d="M294.085 212.016L293.874 212.333L294.241 212.436L293.875 212.544L294.089 212.859L293.74 212.706L293.702 213.085L293.533 212.744L293.26 213.01L293.35 212.64L292.97 212.668L293.276 212.442L292.967 212.219L293.347 212.243L293.254 211.874L293.529 212.137L293.695 211.794L293.737 212.172L294.085 212.016Z" fill="white"/>
<path d="M65.1802 204.141L64.9692 204.458L65.336 204.561L64.9704 204.669L65.1849 204.984L64.8357 204.831L64.7976 205.21L64.6283 204.869L64.3553 205.135L64.4451 204.765L64.065 204.793L64.3719 204.567L64.0626 204.344L64.4429 204.368L64.349 203.999L64.6249 204.262L64.7904 203.919L64.8328 204.297L65.1802 204.141Z" fill="white"/>
<path d="M18.284 184.797L18.073 185.114L18.4398 185.218L18.0741 185.325L18.2886 185.64L17.9395 185.487L17.9013 185.867L17.732 185.525L17.4591 185.791L17.5488 185.421L17.1688 185.449L17.4756 185.223L17.1663 185L17.5466 185.024L17.4528 184.655L17.7287 184.918L17.8942 184.575L17.9365 184.954L18.284 184.797Z" fill="white"/>
<path d="M2.21428 108.383L2.00327 108.7L2.37006 108.804L2.00443 108.911L2.21894 109.226L1.86978 109.073L1.83164 109.453L1.66233 109.111L1.38938 109.377L1.47913 109.007L1.0991 109.035L1.40592 108.809L1.09662 108.586L1.47694 108.61L1.3831 108.241L1.65897 108.504L1.8245 108.161L1.86684 108.539L2.21428 108.383Z" fill="white"/>
<path d="M233.712 1.33817L233.481 1.33118L233.652 1.57479L233.407 1.40635L233.417 1.63875L233.274 1.38769L233.118 1.50014L233.143 1.28391L232.895 1.2238L233.077 1.14359L232.852 0.939043L233.105 1.03238L233.009 0.779104L233.216 1.00232L233.293 0.818821L233.356 1.06746L233.571 1.03961L233.461 1.19734L233.712 1.33817Z" fill="white"/>
<path d="M294.217 84.5647L293.986 84.5577L294.156 84.8013L293.912 84.6329L293.921 84.8653L293.778 84.6142L293.623 84.7267L293.648 84.5105L293.4 84.4504L293.581 84.3702L293.357 84.1656L293.61 84.2589L293.514 84.0057L293.72 84.2289L293.798 84.0454L293.86 84.294L294.075 84.2662L293.965 84.4239L294.217 84.5647Z" fill="white"/>
<path d="M273.153 118.229L272.921 118.222L273.092 118.465L272.848 118.297L272.857 118.529L272.714 118.278L272.559 118.391L272.584 118.175L272.336 118.114L272.517 118.034L272.293 117.83L272.546 117.923L272.45 117.67L272.656 117.893L272.734 117.709L272.796 117.958L273.011 117.93L272.901 118.088L273.153 118.229Z" fill="white"/>
<path d="M219.974 28.4163L219.743 28.4093L219.913 28.6529L219.669 28.4845L219.679 28.7169L219.535 28.4658L219.38 28.5783L219.405 28.362L219.157 28.3019L219.338 28.2217L219.114 28.0172L219.367 28.1105L219.271 27.8572L219.477 28.0804L219.555 27.8969L219.618 28.1456L219.832 28.1177L219.722 28.2755L219.974 28.4163Z" fill="white"/>
<path d="M181.067 61.3929L180.836 61.3859L181.006 61.6295L180.762 61.461L180.772 61.6934L180.629 61.4424L180.473 61.5548L180.498 61.3386L180.25 61.2785L180.432 61.1983L180.207 60.9937L180.46 61.0871L180.364 60.8338L180.57 61.057L180.648 60.8735L180.711 61.1222L180.925 61.0943L180.816 61.252L181.067 61.3929Z" fill="white"/>
<path d="M290.994 179.666L290.762 179.659L290.933 179.903L290.688 179.734L290.698 179.967L290.555 179.716L290.4 179.828L290.425 179.612L290.177 179.552L290.358 179.472L290.134 179.267L290.387 179.361L290.291 179.107L290.497 179.33L290.574 179.147L290.637 179.396L290.852 179.368L290.742 179.525L290.994 179.666Z" fill="white"/>
<path d="M125.913 189.893L125.682 189.886L125.852 190.129L125.608 189.961L125.618 190.193L125.475 189.942L125.319 190.055L125.344 189.839L125.096 189.778L125.278 189.698L125.053 189.494L125.306 189.587L125.21 189.334L125.416 189.557L125.494 189.374L125.557 189.622L125.772 189.594L125.662 189.752L125.913 189.893Z" fill="white"/>
<path d="M62.3285 73.4397L62.0972 73.4327L62.2677 73.6763L62.0233 73.5079L62.0331 73.7403L61.89 73.4892L61.7345 73.6017L61.7595 73.3855L61.5115 73.3254L61.693 73.2452L61.4685 73.0406L61.7216 73.1339L61.6256 72.8807L61.8318 73.1039L61.9094 72.9204L61.9722 73.169L62.1869 73.1412L62.077 73.2989L62.3285 73.4397Z" fill="white"/>
<path d="M255.54 121.026L255.309 121.019L255.48 121.262L255.235 121.094L255.245 121.326L255.102 121.075L254.946 121.188L254.971 120.971L254.723 120.911L254.905 120.831L254.68 120.627L254.933 120.72L254.837 120.467L255.044 120.69L255.121 120.506L255.184 120.755L255.399 120.727L255.289 120.885L255.54 121.026Z" fill="white"/>
<path d="M288.526 192.502L288.295 192.495L288.466 192.739L288.221 192.57L288.231 192.803L288.088 192.552L287.932 192.664L287.958 192.448L287.709 192.388L287.891 192.308L287.666 192.103L287.92 192.196L287.824 191.943L288.03 192.166L288.107 191.983L288.17 192.232L288.385 192.204L288.275 192.361L288.526 192.502Z" fill="white"/>
<path d="M52.5206 111.401L52.2893 111.394L52.4599 111.637L52.2155 111.469L52.2253 111.701L52.0821 111.45L51.9266 111.563L51.9517 111.346L51.7036 111.286L51.8851 111.206L51.6606 111.002L51.9137 111.095L51.8178 110.842L52.024 111.065L52.1015 110.881L52.1643 111.13L52.3791 111.102L52.2691 111.26L52.5206 111.401Z" fill="white"/>
<path d="M113.661 32.4788L113.43 32.4718L113.6 32.7154L113.356 32.547L113.366 32.7794L113.222 32.5283L113.067 32.6408L113.092 32.4245L112.844 32.3644L113.025 32.2842L112.801 32.0797L113.054 32.173L112.958 31.9197L113.164 32.1429L113.242 31.9594L113.305 32.2081L113.519 32.1802L113.409 32.338L113.661 32.4788Z" fill="white"/>
<path d="M227.667 208.166L227.436 208.159L227.606 208.403L227.362 208.234L227.372 208.467L227.229 208.216L227.073 208.328L227.098 208.112L226.85 208.052L227.032 207.972L226.807 207.767L227.06 207.861L226.964 207.607L227.171 207.83L227.248 207.647L227.311 207.896L227.526 207.868L227.416 208.025L227.667 208.166Z" fill="white"/>
<path d="M251.23 263.622L250.767 263.608L251.108 264.096L250.619 263.759L250.639 264.224L250.352 263.721L250.041 263.946L250.091 263.514L249.595 263.393L249.958 263.233L249.509 262.823L250.015 263.01L249.823 262.503L250.236 262.95L250.391 262.583L250.517 263.08L250.946 263.025L250.726 263.34L251.23 263.622Z" fill="white"/>
<path d="M198.973 132.52L198.51 132.507L198.851 132.994L198.362 132.657L198.382 133.122L198.095 132.62L197.784 132.845L197.834 132.412L197.338 132.292L197.701 132.131L197.252 131.722L197.758 131.909L197.566 131.402L197.979 131.848L198.134 131.481L198.26 131.979L198.689 131.923L198.469 132.239L198.973 132.52Z" fill="white"/>
<path d="M118.115 120.77L117.652 120.757L117.993 121.244L117.504 120.907L117.524 121.372L117.237 120.87L116.926 121.095L116.976 120.662L116.48 120.542L116.843 120.381L116.394 119.972L116.9 120.159L116.708 119.652L117.121 120.098L117.276 119.731L117.402 120.229L117.832 120.173L117.612 120.489L118.115 120.77Z" fill="white"/>
<path d="M32.6117 181.817L32.149 181.803L32.4902 182.291L32.0012 181.954L32.0208 182.419L31.7343 181.916L31.4231 182.141L31.4733 181.709L30.9769 181.589L31.3402 181.428L30.8909 181.019L31.3973 181.205L31.2053 180.699L31.6179 181.145L31.7731 180.778L31.8988 181.276L32.3285 181.22L32.1085 181.536L32.6117 181.817Z" fill="white"/>
<path d="M78.8213 54.1064L78.3586 54.0925L78.6998 54.5799L78.2108 54.2429L78.2303 54.7079L77.9439 54.2055L77.6327 54.4305L77.6829 53.9979L77.1865 53.8776L77.5498 53.7171L77.1005 53.3078L77.6069 53.4946L77.4149 52.9878L77.8275 53.4344L77.9827 53.0672L78.1084 53.5648L78.5381 53.509L78.3181 53.8247L78.8213 54.1064Z" fill="white"/>
<path d="M2.1642 122.614L1.70145 122.6L2.04266 123.088L1.55366 122.751L1.57324 123.216L1.28681 122.713L0.975602 122.938L1.02576 122.506L0.529376 122.385L0.892651 122.225L0.443359 121.816L0.949776 122.002L0.757801 121.496L1.1704 121.942L1.32557 121.575L1.45129 122.073L1.881 122.017L1.66102 122.332L2.1642 122.614Z" fill="white"/>
<path d="M248.827 84.7383C249.481 85.8464 248.216 87.0914 247.119 86.4188L232.443 77.4233C231.735 76.9893 230.809 77.364 230.602 78.1682L226.312 94.8385C225.992 96.0849 224.217 96.0704 223.916 94.8189L219.9 78.0807C219.706 77.2732 218.786 76.8835 218.071 77.3058L203.25 86.0602C202.142 86.7147 200.897 85.4492 201.57 84.352L210.565 69.6761C210.999 68.9682 210.625 68.0422 209.82 67.8353L193.15 63.5456C191.904 63.2249 191.918 61.4497 193.17 61.1494L209.908 57.1328C210.715 56.9391 211.105 56.0194 210.683 55.3044L201.928 40.4835C201.274 39.3754 202.539 38.1304 203.637 38.803L218.312 47.7985C219.02 48.2325 219.946 47.8578 220.153 47.0536L224.443 30.3833C224.764 29.1369 226.539 29.1514 226.839 30.4029L230.856 47.1411C231.049 47.9485 231.969 48.3383 232.684 47.916L247.505 39.1616C248.613 38.5071 249.858 39.7725 249.186 40.8698L240.19 55.5456C239.756 56.2536 240.131 57.1795 240.935 57.3865L257.605 61.6762C258.852 61.9969 258.837 63.772 257.586 64.0723L240.847 68.0889C240.04 68.2827 239.65 69.2024 240.073 69.9173L248.827 84.7383Z" fill="url(#paint0_linear_2713_18459)"/>
<path d="M56.3298 255.237C57.1181 256.572 55.5939 258.071 54.2723 257.261L36.596 246.427C35.7432 245.904 34.628 246.355 34.3788 247.324L29.212 267.402C28.8257 268.904 26.6877 268.886 26.326 267.379L21.4882 247.218C21.2548 246.246 20.1471 245.776 19.286 246.285L1.43483 256.829C0.100186 257.618 -1.39929 256.094 -0.589232 254.772L10.2454 237.096C10.7681 236.243 10.3168 235.128 9.34821 234.878L-10.7304 229.712C-12.2315 229.325 -12.2141 227.187 -10.7068 226.826L9.45359 221.988C10.4261 221.754 10.8956 220.647 10.3869 219.786L-0.157297 201.934C-0.945641 200.6 0.578545 199.1 1.90013 199.91L19.5765 210.745C20.4292 211.268 21.5444 210.816 21.7937 209.848L26.9604 189.769C27.3467 188.268 29.4848 188.286 29.8465 189.793L34.6843 209.953C34.9177 210.926 36.0253 211.395 36.8865 210.887L54.7376 200.342C56.0723 199.554 57.5718 201.078 56.7617 202.4L45.927 220.076C45.4044 220.929 45.8556 222.044 46.8243 222.293L66.9028 227.46C68.404 227.846 68.3865 229.984 66.8792 230.346L46.7189 235.184C45.7463 235.417 45.2769 236.525 45.7855 237.386L56.3298 255.237Z" fill="url(#paint1_linear_2713_18459)"/>
<g clip-path="url(#clip1_2713_18459)">
<g filter="url(#filter0_ii_2713_18459)">
<path d="M125.791 75.8242C126.065 74.2728 127.582 73.292 129.118 73.6416C142.93 76.7871 149.258 82.7404 151.614 87.1846C152.499 88.856 150.965 90.4179 149.074 90.4512C146.537 90.4955 144.438 90.9566 142.831 91.5361C144.275 93.1403 146.89 96.3927 149.51 100.417C158.952 101.244 170.126 106.686 175.684 109.966C176.369 110.37 177.242 110.261 177.808 109.702C186.33 101.282 194.085 98.3722 197.644 97.8408C198.137 97.7672 198.629 97.9607 198.931 98.3574C202.905 103.579 203.04 116.793 202.337 126.384C202.212 128.1 205.025 129.51 206.607 128.833C209.388 127.642 212.259 127.514 214.055 127.719C214.413 127.76 214.746 127.932 214.965 128.219C219.617 134.307 211.34 151.806 204.654 163.173C204.172 163.992 204.563 165.012 205.26 165.888L206.451 165.812C210.035 165.585 211.449 170.369 208.316 172.126L190.464 182.133C188.807 183.062 186.769 182.431 185.878 180.859C171.321 183.124 144.73 188.269 132.017 190.939C131.936 190.956 131.855 190.967 131.772 190.972C130.525 191.045 129.331 191.094 128.187 191.123L128.156 191.37C127.882 193.528 125.669 194.867 123.63 194.109L104.044 186.828C100.699 185.584 101.321 180.676 104.872 180.307L106.14 180.174C106.931 179.246 106.994 177.657 105.949 176.932C92.1287 167.343 87.3013 154.648 86.4644 148.086C86.3731 147.369 86.7995 146.695 87.4878 146.475C90.4894 145.514 93.5426 145.514 95.9956 145.853C97.5126 146.062 99.0119 144.375 98.4497 142.95C93.1313 129.481 93.3578 118.511 94.4116 113.407C94.5739 112.622 95.3134 112.122 96.1079 112.229C104.934 113.429 115.758 118.609 121.636 121.93C122.595 122.471 123.823 122 124.255 120.987C127.249 113.966 134.398 106.998 140.033 102.979C138.882 100.195 137.551 97.2732 136.138 94.7129C134.168 95.7035 132.516 96.8741 131.181 98.0342C129.334 99.639 126.029 99.2491 125.55 96.8496C124.105 89.5812 124.842 81.1936 125.791 75.8242Z" fill="#F57979"/>
</g>
<g filter="url(#filter1_n_2713_18459)">
<ellipse cx="144.992" cy="133.693" rx="86.0219" ry="76.7047" transform="rotate(-9.05149 144.992 133.693)" fill="url(#paint2_linear_2713_18459)" fill-opacity="0.9"/>
<path d="M133.029 58.5993C179.656 51.1713 222.691 78.8601 229.287 120.265C235.883 161.669 203.582 201.359 156.954 208.787C110.327 216.214 67.2931 188.526 60.6969 147.122C54.101 105.718 86.4012 66.0275 133.029 58.5993Z" stroke="url(#paint3_linear_2713_18459)" stroke-width="1.328"/>
</g>
<g filter="url(#filter2_ii_2713_18459)">
<path d="M136.543 219.344L131.16 211.377C129.897 209.507 130.592 206.949 132.671 206.07C152.691 197.602 176.356 195.106 188.26 194.812C190.4 194.759 192.036 196.611 191.833 198.742L191.006 207.428C190.846 209.112 189.558 210.47 187.888 210.735C165.061 214.358 148.302 218.82 140.465 220.844C138.97 221.23 137.408 220.624 136.543 219.344Z" fill="#8C3E3E"/>
</g>
<circle cx="162.699" cy="205.606" r="2.58223" fill="#CFD7F7"/>
<circle cx="146.467" cy="209.301" r="2.58223" fill="#CFD7F7"/>
<circle cx="178.929" cy="203.403" r="2.58223" fill="#CFD7F7"/>
<g filter="url(#filter3_g_2713_18459)">
<ellipse cx="140.479" cy="147.202" rx="12.7373" ry="11.2669" transform="rotate(-7.75815 140.479 147.202)" fill="white"/>
</g>
<g filter="url(#filter4_g_2713_18459)">
<ellipse cx="141.118" cy="146.972" rx="8.63287" ry="7.8814" transform="rotate(-7.75815 141.118 146.972)" fill="black"/>
</g>
<g filter="url(#filter5_g_2713_18459)">
<ellipse cx="175.602" cy="143.682" rx="11.5005" ry="11.2669" transform="rotate(-7.75815 175.602 143.682)" fill="white"/>
</g>
<ellipse cx="159.193" cy="153.008" rx="3.6889" ry="2.95112" transform="rotate(-3.98844 159.193 153.008)" fill="#FF581D"/>
<path d="M154.57 157.547L155.058 158.231C155.864 159.359 157.312 159.83 158.627 159.391V159.391" stroke="#852A0A" stroke-width="1.18045" stroke-linecap="round"/>
<g filter="url(#filter6_g_2713_18459)">
<ellipse cx="175.663" cy="143.372" rx="8.48611" ry="7.98886" transform="rotate(-7.75815 175.663 143.372)" fill="black"/>
</g>
<path opacity="0.8" d="M101.713 95.3617L87.2923 117.029C84.1533 121.746 78.2817 126.964 73.9558 123.305C71.2874 121.049 71.2937 116.784 71.9412 114.003C73.3362 109.047 79.1255 96.9926 91.1224 88.4184C98.349 83.2536 101.973 83.6002 103.611 85.6496C105.84 88.4376 103.691 92.3904 101.713 95.3617Z" fill="url(#paint4_linear_2713_18459)"/>
<path opacity="0.89" d="M70.3293 130.013C77.412 125.291 77.7071 135.915 76.9693 141.817C76.0839 145.063 72.1737 143.17 70.3293 141.817C67.3782 139.85 63.2466 134.734 70.3293 130.013Z" fill="url(#paint5_linear_2713_18459)"/>
<g filter="url(#filter7_ii_2713_18459)">
<path d="M240.316 139.439L233.566 140.65L233.563 144.715L238.903 143.839C239.625 143.721 240.302 144.226 240.393 144.953L241.301 152.182C241.634 154.831 239.443 157.113 236.783 156.888L233.179 156.583L234.408 163.965L237.285 163.294C242.524 162.072 246.031 157.136 245.46 151.787L244.475 142.558C244.256 140.509 242.345 139.075 240.316 139.439Z" fill="#FFD662"/>
</g>
<g filter="url(#filter8_iiii_2713_18459)">
<path d="M193.902 150.774L200.566 149.156L202.211 152.874L196.972 154.229C196.263 154.412 195.849 155.148 196.059 155.849L198.147 162.83C198.912 165.387 201.839 166.59 204.181 165.31L207.355 163.576L209.212 170.825L206.309 171.373C201.022 172.371 195.821 169.272 194.183 164.147L191.357 155.307C190.73 153.344 191.9 151.261 193.902 150.774Z" fill="#FFD662"/>
</g>
<g filter="url(#filter9_iii_2713_18459)">
<path d="M222.36 168.613L223.593 168.149L223.63 168.577L227.713 168.459C227.308 171.287 227.354 176.873 230.126 179.483C230.985 180.292 232.274 180.007 233.446 179.867C234.962 179.686 236.543 180.527 236.446 184.372L225.281 186.86L225.27 186.802L225.275 186.852L215.29 188.912C213.589 185.462 214.669 184.036 216.122 183.564C217.245 183.2 218.535 182.919 218.975 181.824C220.397 178.292 218.096 173.202 216.543 170.804L221.949 168.768L221.924 168.626L222.36 168.613Z" fill="#FFD150"/>
</g>
<g filter="url(#filter10_iii_2713_18459)">
<path d="M233.469 137.901C219.116 133.438 204.807 141.273 198.975 146.112C198.712 146.331 198.585 146.659 198.63 146.997C200.169 158.378 207.718 179.194 222.959 176.277C241.798 172.672 237.659 150.875 234.133 138.578C234.04 138.253 233.792 138.001 233.469 137.901Z" fill="#FFD150"/>
</g>
<mask id="mask0_2713_18459" style="mask-type:alpha" maskUnits="userSpaceOnUse" x="198" y="136" width="39" height="39">
<path d="M233.466 137.903C219.113 133.44 204.804 141.275 198.972 146.115C198.709 146.333 198.582 146.662 198.627 147.001C200.139 158.325 206.827 177.324 221.123 173.841C240.977 171.016 237.634 150.834 234.13 138.581C234.037 138.257 233.788 138.003 233.466 137.903Z" fill="#FFD662"/>
</mask>
<g mask="url(#mask0_2713_18459)">
<g filter="url(#filter11_f_2713_18459)">
<rect x="201.907" y="138.977" width="7.11641" height="21.6575" rx="3.5582" transform="rotate(-13.9097 201.907 138.977)" fill="#FFE4E4"/>
</g>
</g>
<g filter="url(#filter12_ii_2713_18459)">
<path d="M213.608 191.941C213.155 190.583 213.981 189.133 215.379 188.829L235.893 184.366C237.334 184.052 238.715 185.097 238.806 186.569L239.036 190.285C239.11 191.475 238.3 192.54 237.134 192.787L217.529 196.95C216.331 197.205 215.133 196.519 214.746 195.357L213.608 191.941Z" fill="#FFCA4B"/>
</g>
<g filter="url(#filter13_i_2713_18459)">
<path d="M47.8732 185.758L82.9891 183.247C83.2509 183.229 83.5121 183.253 83.7659 183.32C87.4474 184.293 116.559 192.013 117.12 192.86C117.54 193.495 117.37 197.739 117.232 200.211C117.173 201.269 116.409 202.146 115.374 202.37L79.9445 210.043C79.3773 210.165 78.7848 210.077 78.2778 209.795L49.0988 193.544C48.3423 193.123 47.8732 192.325 47.8732 191.459L47.8732 185.758Z" fill="#EAE0D5"/>
</g>
<path d="M47.8732 185.758L84.0167 182.227C84.3057 182.198 84.5975 182.223 84.8776 182.3L115.639 190.7C118.012 191.348 117.972 194.728 115.585 195.32L83.71 203.229C83.1548 203.367 82.5686 203.3 82.0581 203.042L47.8732 185.758Z" fill="url(#paint6_linear_2713_18459)"/>
<path d="M80.2263 207.527L80.2263 202.091C80.2263 201.885 80.3706 201.707 80.5722 201.664L117.374 193.877L117.374 200.367C117.374 200.576 117.226 200.755 117.022 200.795L80.747 207.955C80.4774 208.008 80.2263 207.802 80.2263 207.527Z" fill="white"/>
<g filter="url(#filter14_d_2713_18459)">
<path d="M129.118 182.854L103.517 170.656C103.097 170.456 102.612 170.399 102.064 170.5C96.0189 171.614 58.1629 178.601 56.9021 178.985C55.9456 179.275 55.6459 181.782 55.552 183.271C55.507 183.985 55.7738 184.568 56.254 184.931L75.0165 199.099C75.5023 199.466 76.1775 199.579 76.9149 199.418L125.332 188.831C126.983 188.47 128.51 186.853 128.761 185.198L129.118 182.854Z" fill="url(#paint7_linear_2713_18459)"/>
<path d="M129.163 182.883L104.05 170.392C103.433 170.084 103.124 169.931 102.758 169.886C102.392 169.84 101.987 169.906 101.176 170.036L70.0747 175.043C61.5545 176.415 57.2945 177.1 56.2466 179.418C55.1988 181.735 58.3779 183.44 64.7362 186.849L75.2814 192.503C75.9568 192.865 76.2945 193.046 76.7028 193.093C77.1112 193.14 77.5667 193.051 78.4777 192.871L129.163 182.883Z" fill="url(#paint8_linear_2713_18459)"/>
<path d="M75.522 196.555L75.5061 195.092C75.5042 194.913 75.4193 194.748 75.2771 194.647L56.0468 180.902L55.664 182.444C55.6091 182.665 55.689 182.895 55.8669 183.028L74.6279 197.033C74.9969 197.309 75.5271 197.025 75.522 196.555Z" fill="white"/>
</g>
<path d="M53.8932 164.648L89.0091 162.138C89.271 162.119 89.5321 162.143 89.7859 162.21C93.4674 163.184 122.579 170.904 123.14 171.751C123.56 172.385 123.39 176.629 123.252 179.102C123.193 180.159 122.429 181.036 121.394 181.26L85.9645 188.933C85.3973 189.056 84.8048 188.968 84.2978 188.686L55.1189 172.435C54.3623 172.014 53.8933 171.216 53.8933 170.35L53.8932 164.648Z" fill="#F2CC8F"/>
<g filter="url(#filter15_i_2713_18459)">
<path d="M53.8933 164.648L90.0368 161.117C90.3259 161.089 90.6176 161.114 90.8978 161.19L121.659 169.591C124.032 170.239 123.992 173.618 121.605 174.21L89.7302 182.119C89.175 182.257 88.5887 182.191 88.0782 181.933L53.8933 164.648Z" fill="url(#paint9_linear_2713_18459)"/>
</g>
<path d="M86.2465 186.418L86.2465 180.981C86.2465 180.775 86.3907 180.597 86.5924 180.555L123.394 172.768L123.394 179.258C123.394 179.466 123.246 179.646 123.042 179.686L86.7671 186.845C86.4975 186.899 86.2465 186.692 86.2465 186.418Z" fill="white"/>
<g filter="url(#filter16_g_2713_18459)">
<path d="M83.0287 164.806C82.9192 164.528 83.3724 164.377 83.7499 164.565L85.492 165.435C85.6635 165.521 85.8777 165.542 86.0352 165.49L87.778 164.907C88.1801 164.773 88.7269 165.116 88.5269 165.377L87.8277 166.289C87.7291 166.418 87.8175 166.596 88.0334 166.704L89.4553 167.414C89.8606 167.617 89.7406 167.982 89.2771 167.957L86.932 167.831C86.7617 167.822 86.6161 167.871 86.5481 167.959L85.6113 169.182C85.4261 169.424 84.802 169.307 84.6844 169.008L84.2718 167.961C84.2091 167.802 83.9757 167.672 83.7288 167.659L81.9786 167.565C81.4779 167.538 81.2114 167.101 81.6136 166.967L83.3563 166.385C83.5139 166.332 83.584 166.215 83.5343 166.089L83.0287 164.806Z" fill="white"/>
</g>
<g filter="url(#filter17_g_2713_18459)">
<path d="M84.1365 170.365C84.0807 170.223 84.3117 170.146 84.5042 170.242L85.4114 170.695C85.4989 170.739 85.6081 170.75 85.6884 170.723L86.5988 170.419C86.8038 170.35 87.0826 170.525 86.9806 170.658L86.6141 171.137C86.5638 171.202 86.6089 171.293 86.719 171.348L87.4629 171.72C87.6695 171.823 87.6084 172.009 87.3721 171.997L86.1512 171.931C86.0643 171.926 85.9901 171.951 85.9554 171.996L85.4677 172.633C85.3733 172.756 85.0551 172.696 84.9951 172.544L84.7792 171.996C84.7473 171.915 84.6283 171.849 84.5024 171.842L83.5848 171.793C83.3295 171.779 83.1937 171.557 83.3987 171.488L84.3091 171.184C84.3894 171.157 84.4252 171.098 84.3998 171.033L84.1365 170.365Z" fill="white"/>
</g>
<g filter="url(#filter18_g_2713_18459)">
<path d="M92.4496 167.662C92.3938 167.52 92.6248 167.443 92.8173 167.539L93.7245 167.992C93.812 168.036 93.9212 168.047 94.0015 168.02L94.9119 167.716C95.1169 167.647 95.3957 167.822 95.2938 167.955L94.9272 168.433C94.8769 168.499 94.922 168.59 95.0321 168.645L95.776 169.016C95.9827 169.12 95.9215 169.306 95.6852 169.293L94.4643 169.228C94.3775 169.223 94.3032 169.248 94.2685 169.293L93.7808 169.93C93.6864 170.053 93.3682 169.993 93.3082 169.841L93.0923 169.293C93.0604 169.212 92.9414 169.146 92.8155 169.139L91.8979 169.09C91.6427 169.076 91.5068 168.853 91.7118 168.785L92.6222 168.481C92.7025 168.454 92.7383 168.394 92.7129 168.33L92.4496 167.662Z" fill="white"/>
</g>
</g>
</g>
<defs>
<filter id="filter0_ii_2713_18459" x="79.8121" y="73.5703" width="136.509" height="122.226" filterUnits="userSpaceOnUse" color-interpolation-filters="sRGB">
<feFlood flood-opacity="0" result="BackgroundImageFix"/>
<feBlend mode="normal" in="SourceGraphic" in2="BackgroundImageFix" result="shape"/>
<feColorMatrix in="SourceAlpha" type="matrix" values="0 0 0 0 0 0 0 0 0 0 0 0 0 0 0 0 0 0 127 0" result="hardAlpha"/>
<feOffset dx="-6.64001" dy="1.47556"/>
<feGaussianBlur stdDeviation="5.49646"/>
<feComposite in2="hardAlpha" operator="arithmetic" k2="-1" k3="1"/>
<feColorMatrix type="matrix" values="0 0 0 0 1 0 0 0 0 0.912766 0 0 0 0 0.792818 0 0 0 0.8 0"/>
<feBlend mode="normal" in2="shape" result="effect1_innerShadow_2713_18459"/>
<feColorMatrix in="SourceAlpha" type="matrix" values="0 0 0 0 0 0 0 0 0 0 0 0 0 0 0 0 0 0 127 0" result="hardAlpha"/>
<feOffset dx="-0.737779" dy="0.737779"/>
<feGaussianBlur stdDeviation="0.36889"/>
<feComposite in2="hardAlpha" operator="arithmetic" k2="-1" k3="1"/>
<feColorMatrix type="matrix" values="0 0 0 0 0.871206 0 0 0 0 1 0 0 0 0 0.997853 0 0 0 0.5 0"/>
<feBlend mode="normal" in2="effect1_innerShadow_2713_18459" result="effect2_innerShadow_2713_18459"/>
</filter>
<filter id="filter1_n_2713_18459" x="59.1775" y="56.7344" width="171.629" height="153.922" filterUnits="userSpaceOnUse" color-interpolation-filters="sRGB">
<feFlood flood-opacity="0" result="BackgroundImageFix"/>
<feBlend mode="normal" in="SourceGraphic" in2="BackgroundImageFix" result="shape"/>
<feTurbulence type="fractalNoise" baseFrequency="0.14118942618370056 0.14118942618370056" stitchTiles="stitch" numOctaves="3" result="noise" seed="1999" />
<feColorMatrix in="noise" type="luminanceToAlpha" result="alphaNoise" />
<feComponentTransfer in="alphaNoise" result="coloredNoise1">
<feFuncA type="discrete" tableValues="1 1 1 1 1 1 1 1 1 1 1 1 1 1 1 1 1 1 1 1 1 1 1 1 1 1 1 1 1 1 1 1 1 1 1 1 1 1 1 1 1 1 1 1 1 1 1 1 1 1 1 0 0 0 0 0 0 0 0 0 0 0 0 0 0 0 0 0 0 0 0 0 0 0 0 0 0 0 0 0 0 0 0 0 0 0 0 0 0 0 0 0 0 0 0 0 0 0 0 0 "/>
</feComponentTransfer>
<feComposite operator="in" in2="shape" in="coloredNoise1" result="noise1Clipped" />
<feFlood flood-color="rgba(0, 0, 0, 0.08)" result="color1Flood" />
<feComposite operator="in" in2="noise1Clipped" in="color1Flood" result="color1" />
<feMerge result="effect1_noise_2713_18459">
<feMergeNode in="shape" />
<feMergeNode in="color1" />
</feMerge>
</filter>
<filter id="filter2_ii_2713_18459" x="122.708" y="194.812" width="69.1426" height="27.624" filterUnits="userSpaceOnUse" color-interpolation-filters="sRGB">
<feFlood flood-opacity="0" result="BackgroundImageFix"/>
<feBlend mode="normal" in="SourceGraphic" in2="BackgroundImageFix" result="shape"/>
<feColorMatrix in="SourceAlpha" type="matrix" values="0 0 0 0 0 0 0 0 0 0 0 0 0 0 0 0 0 0 127 0" result="hardAlpha"/>
<feOffset dx="-8.11557" dy="1.47556"/>
<feGaussianBlur stdDeviation="3.91023"/>
<feComposite in2="hardAlpha" operator="arithmetic" k2="-1" k3="1"/>
<feColorMatrix type="matrix" values="0 0 0 0 0.869328 0 0 0 0 0.719989 0 0 0 0 1 0 0 0 0.2 0"/>
<feBlend mode="normal" in2="shape" result="effect1_innerShadow_2713_18459"/>
<feColorMatrix in="SourceAlpha" type="matrix" values="0 0 0 0 0 0 0 0 0 0 0 0 0 0 0 0 0 0 127 0" result="hardAlpha"/>
<feOffset dx="-0.737779"/>
<feGaussianBlur stdDeviation="0.36889"/>
<feComposite in2="hardAlpha" operator="arithmetic" k2="-1" k3="1"/>
<feColorMatrix type="matrix" values="0 0 0 0 0.858824 0 0 0 0 0.976471 0 0 0 0 0.984314 0 0 0 0.2 0"/>
<feBlend mode="normal" in2="effect1_innerShadow_2713_18459" result="effect2_innerShadow_2713_18459"/>
</filter>
<filter id="filter3_g_2713_18459" x="127.397" y="135.537" width="26.1643" height="23.3315" filterUnits="userSpaceOnUse" color-interpolation-filters="sRGB">
<feFlood flood-opacity="0" result="BackgroundImageFix"/>
<feBlend mode="normal" in="SourceGraphic" in2="BackgroundImageFix" result="shape"/>
<feTurbulence type="fractalNoise" baseFrequency="1.5060207843780518 1.5060207843780518" numOctaves="3" seed="3511" />
<feDisplacementMap in="shape" scale="0.73777937889099121" xChannelSelector="R" yChannelSelector="G" result="displacedImage" width="100%" height="100%" />
<feMerge result="effect1_texture_2713_18459">
<feMergeNode in="displacedImage"/>
</feMerge>
</filter>
<filter id="filter4_g_2713_18459" x="132.255" y="138.836" width="17.7259" height="16.2736" filterUnits="userSpaceOnUse" color-interpolation-filters="sRGB">
<feFlood flood-opacity="0" result="BackgroundImageFix"/>
<feBlend mode="normal" in="SourceGraphic" in2="BackgroundImageFix" result="shape"/>
<feTurbulence type="fractalNoise" baseFrequency="2.2930357456207275 2.2930357456207275" numOctaves="3" seed="3511" />
<feDisplacementMap in="shape" scale="0.48455902934074402" xChannelSelector="R" yChannelSelector="G" result="displacedImage" width="100%" height="100%" />
<feMerge result="effect1_texture_2713_18459">
<feMergeNode in="displacedImage"/>
</feMerge>
</filter>
<filter id="filter5_g_2713_18459" x="163.735" y="132.037" width="23.733" height="23.2847" filterUnits="userSpaceOnUse" color-interpolation-filters="sRGB">
<feFlood flood-opacity="0" result="BackgroundImageFix"/>
<feBlend mode="normal" in="SourceGraphic" in2="BackgroundImageFix" result="shape"/>
<feTurbulence type="fractalNoise" baseFrequency="1.5060207843780518 1.5060207843780518" numOctaves="3" seed="3511" />
<feDisplacementMap in="shape" scale="0.73777937889099121" xChannelSelector="R" yChannelSelector="G" result="displacedImage" width="100%" height="100%" />
<feMerge result="effect1_texture_2713_18459">
<feMergeNode in="displacedImage"/>
</feMerge>
</filter>
<filter id="filter6_g_2713_18459" x="166.943" y="135.133" width="17.441" height="16.4767" filterUnits="userSpaceOnUse" color-interpolation-filters="sRGB">
<feFlood flood-opacity="0" result="BackgroundImageFix"/>
<feBlend mode="normal" in="SourceGraphic" in2="BackgroundImageFix" result="shape"/>
<feTurbulence type="fractalNoise" baseFrequency="2.2930357456207275 2.2930357456207275" numOctaves="3" seed="3511" />
<feDisplacementMap in="shape" scale="0.48455902934074402" xChannelSelector="R" yChannelSelector="G" result="displacedImage" width="100%" height="100%" />
<feMerge result="effect1_texture_2713_18459">
<feMergeNode in="displacedImage"/>
</feMerge>
</filter>
<filter id="filter7_ii_2713_18459" x="230.152" y="137.869" width="16.1703" height="26.0993" filterUnits="userSpaceOnUse" color-interpolation-filters="sRGB">
<feFlood flood-opacity="0" result="BackgroundImageFix"/>
<feBlend mode="normal" in="SourceGraphic" in2="BackgroundImageFix" result="shape"/>
<feColorMatrix in="SourceAlpha" type="matrix" values="0 0 0 0 0 0 0 0 0 0 0 0 0 0 0 0 0 0 127 0" result="hardAlpha"/>
<feOffset dx="-3.02669" dy="-1.51335"/>
<feGaussianBlur stdDeviation="1.94843"/>
<feComposite in2="hardAlpha" operator="arithmetic" k2="-1" k3="1"/>
<feColorMatrix type="matrix" values="0 0 0 0 1 0 0 0 0 0.719161 0 0 0 0 0.234075 0 0 0 1 0"/>
<feBlend mode="normal" in2="shape" result="effect1_innerShadow_2713_18459"/>
<feColorMatrix in="SourceAlpha" type="matrix" values="0 0 0 0 0 0 0 0 0 0 0 0 0 0 0 0 0 0 127 0" result="hardAlpha"/>
<feOffset dx="0.802129" dy="-0.802129"/>
<feGaussianBlur stdDeviation="0.802129"/>
<feComposite in2="hardAlpha" operator="arithmetic" k2="-1" k3="1"/>
<feColorMatrix type="matrix" values="0 0 0 0 1 0 0 0 0 0.686276 0 0 0 0 0.127028 0 0 0 1 0"/>
<feBlend mode="normal" in2="effect1_innerShadow_2713_18459" result="effect2_innerShadow_2713_18459"/>
</filter>
<filter id="filter8_iiii_2713_18459" x="188.161" y="147.643" width="22.2544" height="25.1228" filterUnits="userSpaceOnUse" color-interpolation-filters="sRGB">
<feFlood flood-opacity="0" result="BackgroundImageFix"/>
<feBlend mode="normal" in="SourceGraphic" in2="BackgroundImageFix" result="shape"/>
<feColorMatrix in="SourceAlpha" type="matrix" values="0 0 0 0 0 0 0 0 0 0 0 0 0 0 0 0 0 0 127 0" result="hardAlpha"/>
<feOffset dx="-3.02669" dy="-1.51335"/>
<feGaussianBlur stdDeviation="1.94843"/>
<feComposite in2="hardAlpha" operator="arithmetic" k2="-1" k3="1"/>
<feColorMatrix type="matrix" values="0 0 0 0 1 0 0 0 0 0.719161 0 0 0 0 0.234075 0 0 0 1 0"/>
<feBlend mode="normal" in2="shape" result="effect1_innerShadow_2713_18459"/>
<feColorMatrix in="SourceAlpha" type="matrix" values="0 0 0 0 0 0 0 0 0 0 0 0 0 0 0 0 0 0 127 0" result="hardAlpha"/>
<feOffset dx="1.20319" dy="1.20319"/>
<feGaussianBlur stdDeviation="1.44383"/>
<feComposite in2="hardAlpha" operator="arithmetic" k2="-1" k3="1"/>
<feColorMatrix type="matrix" values="0 0 0 0 1 0 0 0 0 0.666667 0 0 0 0 0 0 0 0 0.6 0"/>
<feBlend mode="normal" in2="effect1_innerShadow_2713_18459" result="effect2_innerShadow_2713_18459"/>
<feColorMatrix in="SourceAlpha" type="matrix" values="0 0 0 0 0 0 0 0 0 0 0 0 0 0 0 0 0 0 127 0" result="hardAlpha"/>
<feOffset dx="0.802129" dy="-0.802129"/>
<feGaussianBlur stdDeviation="0.802129"/>
<feComposite in2="hardAlpha" operator="arithmetic" k2="-1" k3="1"/>
<feColorMatrix type="matrix" values="0 0 0 0 1 0 0 0 0 0.686276 0 0 0 0 0.127028 0 0 0 1 0"/>
<feBlend mode="normal" in2="effect2_innerShadow_2713_18459" result="effect3_innerShadow_2713_18459"/>
<feColorMatrix in="SourceAlpha" type="matrix" values="0 0 0 0 0 0 0 0 0 0 0 0 0 0 0 0 0 0 127 0" result="hardAlpha"/>
<feOffset dx="0.401065" dy="0.401065"/>
<feGaussianBlur stdDeviation="0.401065"/>
<feComposite in2="hardAlpha" operator="arithmetic" k2="-1" k3="1"/>
<feColorMatrix type="matrix" values="0 0 0 0 1 0 0 0 0 1 0 0 0 0 1 0 0 0 0.6 0"/>
<feBlend mode="normal" in2="effect3_innerShadow_2713_18459" result="effect4_innerShadow_2713_18459"/>
</filter>
<filter id="filter9_iii_2713_18459" x="212.417" y="166.779" width="25.0605" height="22.1347" filterUnits="userSpaceOnUse" color-interpolation-filters="sRGB">
<feFlood flood-opacity="0" result="BackgroundImageFix"/>
<feBlend mode="normal" in="SourceGraphic" in2="BackgroundImageFix" result="shape"/>
<feColorMatrix in="SourceAlpha" type="matrix" values="0 0 0 0 0 0 0 0 0 0 0 0 0 0 0 0 0 0 127 0" result="hardAlpha"/>
<feOffset dx="-1.36912" dy="-1.36912"/>
<feGaussianBlur stdDeviation="4.19294"/>
<feComposite in2="hardAlpha" operator="arithmetic" k2="-1" k3="1"/>
<feColorMatrix type="matrix" values="0 0 0 0 1 0 0 0 0 0.719161 0 0 0 0 0.234075 0 0 0 1 0"/>
<feBlend mode="normal" in2="shape" result="effect1_innerShadow_2713_18459"/>
<feColorMatrix in="SourceAlpha" type="matrix" values="0 0 0 0 0 0 0 0 0 0 0 0 0 0 0 0 0 0 127 0" result="hardAlpha"/>
<feOffset dx="1.02684" dy="-0.342281"/>
<feGaussianBlur stdDeviation="2.84093"/>
<feComposite in2="hardAlpha" operator="arithmetic" k2="-1" k3="1"/>
<feColorMatrix type="matrix" values="0 0 0 0 0.982536 0 0 0 0 1 0 0 0 0 0.790433 0 0 0 0.7 0"/>
<feBlend mode="normal" in2="effect1_innerShadow_2713_18459" result="effect2_innerShadow_2713_18459"/>
<feColorMatrix in="SourceAlpha" type="matrix" values="0 0 0 0 0 0 0 0 0 0 0 0 0 0 0 0 0 0 127 0" result="hardAlpha"/>
<feOffset dx="-2.00532" dy="-0.401065"/>
<feGaussianBlur stdDeviation="1.00266"/>
<feComposite in2="hardAlpha" operator="arithmetic" k2="-1" k3="1"/>
<feColorMatrix type="matrix" values="0 0 0 0 1 0 0 0 0 0.686276 0 0 0 0 0.127028 0 0 0 1 0"/>
<feBlend mode="normal" in2="effect2_innerShadow_2713_18459" result="effect3_innerShadow_2713_18459"/>
</filter>
<filter id="filter10_iii_2713_18459" x="190.064" y="135.209" width="48.2928" height="42.9499" filterUnits="userSpaceOnUse" color-interpolation-filters="sRGB">
<feFlood flood-opacity="0" result="BackgroundImageFix"/>
<feBlend mode="normal" in="SourceGraphic" in2="BackgroundImageFix" result="shape"/>
<feColorMatrix in="SourceAlpha" type="matrix" values="0 0 0 0 0 0 0 0 0 0 0 0 0 0 0 0 0 0 127 0" result="hardAlpha"/>
<feOffset dx="-8.55702" dy="-1.36912"/>
<feGaussianBlur stdDeviation="4.8775"/>
<feComposite in2="hardAlpha" operator="arithmetic" k2="-1" k3="1"/>
<feColorMatrix type="matrix" values="0 0 0 0 1 0 0 0 0 0.719161 0 0 0 0 0.234075 0 0 0 1 0"/>
<feBlend mode="normal" in2="shape" result="effect1_innerShadow_2713_18459"/>
<feColorMatrix in="SourceAlpha" type="matrix" values="0 0 0 0 0 0 0 0 0 0 0 0 0 0 0 0 0 0 127 0" result="hardAlpha"/>
<feOffset dx="-2.00532" dy="-0.401065"/>
<feGaussianBlur stdDeviation="1.00266"/>
<feComposite in2="hardAlpha" operator="arithmetic" k2="-1" k3="1"/>
<feColorMatrix type="matrix" values="0 0 0 0 1 0 0 0 0 0.686276 0 0 0 0 0.127028 0 0 0 1 0"/>
<feBlend mode="normal" in2="effect1_innerShadow_2713_18459" result="effect2_innerShadow_2713_18459"/>
<feColorMatrix in="SourceAlpha" type="matrix" values="0 0 0 0 0 0 0 0 0 0 0 0 0 0 0 0 0 0 127 0" result="hardAlpha"/>
<feOffset dx="1.20319" dy="1.60426"/>
<feGaussianBlur stdDeviation="1.36362"/>
<feComposite in2="hardAlpha" operator="arithmetic" k2="-1" k3="1"/>
<feColorMatrix type="matrix" values="0 0 0 0 1 0 0 0 0 0.902907 0 0 0 0 0.902907 0 0 0 0.6 0"/>
<feBlend mode="normal" in2="effect2_innerShadow_2713_18459" result="effect3_innerShadow_2713_18459"/>
</filter>
<filter id="filter11_f_2713_18459" x="198.686" y="134.045" width="18.5547" height="29.1755" filterUnits="userSpaceOnUse" color-interpolation-filters="sRGB">
<feFlood flood-opacity="0" result="BackgroundImageFix"/>
<feBlend mode="normal" in="SourceGraphic" in2="BackgroundImageFix" result="shape"/>
<feGaussianBlur stdDeviation="1.98527" result="effect1_foregroundBlur_2713_18459"/>
</filter>
<filter id="filter12_ii_2713_18459" x="208.711" y="180.302" width="31.1318" height="17.5003" filterUnits="userSpaceOnUse" color-interpolation-filters="sRGB">
<feFlood flood-opacity="0" result="BackgroundImageFix"/>
<feBlend mode="normal" in="SourceGraphic" in2="BackgroundImageFix" result="shape"/>
<feColorMatrix in="SourceAlpha" type="matrix" values="0 0 0 0 0 0 0 0 0 0 0 0 0 0 0 0 0 0 127 0" result="hardAlpha"/>
<feOffset dx="-6.01597" dy="-4.01065"/>
<feGaussianBlur stdDeviation="2.38633"/>
<feComposite in2="hardAlpha" operator="arithmetic" k2="-1" k3="1"/>
<feColorMatrix type="matrix" values="0 0 0 0 0.988235 0 0 0 0 0.647451 0 0 0 0 0.0588235 0 0 0 1 0"/>
<feBlend mode="normal" in2="shape" result="effect1_innerShadow_2713_18459"/>
<feColorMatrix in="SourceAlpha" type="matrix" values="0 0 0 0 0 0 0 0 0 0 0 0 0 0 0 0 0 0 127 0" result="hardAlpha"/>
<feOffset dx="0.802129" dy="0.802129"/>
<feGaussianBlur stdDeviation="0.401065"/>
<feComposite in2="hardAlpha" operator="arithmetic" k2="-1" k3="1"/>
<feColorMatrix type="matrix" values="0 0 0 0 1 0 0 0 0 1 0 0 0 0 1 0 0 0 0.5 0"/>
<feBlend mode="normal" in2="effect1_innerShadow_2713_18459" result="effect2_innerShadow_2713_18459"/>
</filter>
<filter id="filter13_i_2713_18459" x="47.8732" y="183.242" width="69.5126" height="30.8516" filterUnits="userSpaceOnUse" color-interpolation-filters="sRGB">
<feFlood flood-opacity="0" result="BackgroundImageFix"/>
<feBlend mode="normal" in="SourceGraphic" in2="BackgroundImageFix" result="shape"/>
<feColorMatrix in="SourceAlpha" type="matrix" values="0 0 0 0 0 0 0 0 0 0 0 0 0 0 0 0 0 0 127 0" result="hardAlpha"/>
<feOffset dy="9"/>
<feGaussianBlur stdDeviation="2"/>
<feComposite in2="hardAlpha" operator="arithmetic" k2="-1" k3="1"/>
<feColorMatrix type="matrix" values="0 0 0 0 0.831731 0 0 0 0 0.567816 0 0 0 0 0.567816 0 0 0 0.25 0"/>
<feBlend mode="normal" in2="shape" result="effect1_innerShadow_2713_18459"/>
</filter>
<filter id="filter14_d_2713_18459" x="52.9362" y="169.222" width="78.8381" height="34.8391" filterUnits="userSpaceOnUse" color-interpolation-filters="sRGB">
<feFlood flood-opacity="0" result="BackgroundImageFix"/>
<feColorMatrix in="SourceAlpha" type="matrix" values="0 0 0 0 0 0 0 0 0 0 0 0 0 0 0 0 0 0 127 0" result="hardAlpha"/>
<feOffset dy="1.95821"/>
<feGaussianBlur stdDeviation="1.30548"/>
<feComposite in2="hardAlpha" operator="out"/>
<feColorMatrix type="matrix" values="0 0 0 0 0 0 0 0 0 0 0 0 0 0 0 0 0 0 0.25 0"/>
<feBlend mode="normal" in2="BackgroundImageFix" result="effect1_dropShadow_2713_18459"/>
<feBlend mode="normal" in="SourceGraphic" in2="effect1_dropShadow_2713_18459" result="shape"/>
</filter>
<filter id="filter15_i_2713_18459" x="53.8933" y="161.109" width="69.524" height="25.0781" filterUnits="userSpaceOnUse" color-interpolation-filters="sRGB">
<feFlood flood-opacity="0" result="BackgroundImageFix"/>
<feBlend mode="normal" in="SourceGraphic" in2="BackgroundImageFix" result="shape"/>
<feColorMatrix in="SourceAlpha" type="matrix" values="0 0 0 0 0 0 0 0 0 0 0 0 0 0 0 0 0 0 127 0" result="hardAlpha"/>
<feOffset dy="4"/>
<feGaussianBlur stdDeviation="5.3"/>
<feComposite in2="hardAlpha" operator="arithmetic" k2="-1" k3="1"/>
<feColorMatrix type="matrix" values="0 0 0 0 0.501577 0 0 0 0 0.908623 0 0 0 0 1 0 0 0 0.25 0"/>
<feBlend mode="normal" in2="shape" result="effect1_innerShadow_2713_18459"/>
</filter>
<filter id="filter16_g_2713_18459" x="81.1434" y="164.21" width="8.83291" height="5.37771" filterUnits="userSpaceOnUse" color-interpolation-filters="sRGB">
<feFlood flood-opacity="0" result="BackgroundImageFix"/>
<feBlend mode="normal" in="SourceGraphic" in2="BackgroundImageFix" result="shape"/>
<feTurbulence type="fractalNoise" baseFrequency="7.2781939506530762 7.2781939506530762" numOctaves="3" seed="70" />
<feDisplacementMap in="shape" scale="0.54958689212799072" xChannelSelector="R" yChannelSelector="G" result="displacedImage" width="100%" height="100%" />
<feMerge result="effect1_texture_2713_18459">
<feMergeNode in="displacedImage"/>
</feMerge>
</filter>
<filter id="filter17_g_2713_18459" x="83.0243" y="169.928" width="4.83889" height="3.04177" filterUnits="userSpaceOnUse" color-interpolation-filters="sRGB">
<feFlood flood-opacity="0" result="BackgroundImageFix"/>
<feBlend mode="normal" in="SourceGraphic" in2="BackgroundImageFix" result="shape"/>
<feTurbulence type="fractalNoise" baseFrequency="7.2781939506530762 7.2781939506530762" numOctaves="3" seed="70" />
<feDisplacementMap in="shape" scale="0.54958689212799072" xChannelSelector="R" yChannelSelector="G" result="displacedImage" width="100%" height="100%" />
<feMerge result="effect1_texture_2713_18459">
<feMergeNode in="displacedImage"/>
</feMerge>
</filter>
<filter id="filter18_g_2713_18459" x="91.3374" y="167.225" width="4.83889" height="3.04177" filterUnits="userSpaceOnUse" color-interpolation-filters="sRGB">
<feFlood flood-opacity="0" result="BackgroundImageFix"/>
<feBlend mode="normal" in="SourceGraphic" in2="BackgroundImageFix" result="shape"/>
<feTurbulence type="fractalNoise" baseFrequency="7.2781939506530762 7.2781939506530762" numOctaves="3" seed="70" />
<feDisplacementMap in="shape" scale="0.54958689212799072" xChannelSelector="R" yChannelSelector="G" result="displacedImage" width="100%" height="100%" />
<feMerge result="effect1_texture_2713_18459">
<feMergeNode in="displacedImage"/>
</feMerge>
</filter>
<linearGradient id="paint0_linear_2713_18459" x1="216.032" y1="4.4242" x2="229.106" y2="107.111" gradientUnits="userSpaceOnUse">
<stop stop-color="#9CCFFF"/>
<stop offset="1" stop-color="#A7B3FF" stop-opacity="0"/>
</linearGradient>
<linearGradient id="paint1_linear_2713_18459" x1="16.8297" y1="158.503" x2="32.577" y2="282.184" gradientUnits="userSpaceOnUse">
<stop stop-color="#9CCFFF"/>
<stop offset="1" stop-color="#A7B3FF" stop-opacity="0"/>
</linearGradient>
<linearGradient id="paint2_linear_2713_18459" x1="229.923" y1="111.725" x2="75.683" y2="177.177" gradientUnits="userSpaceOnUse">
<stop stop-color="#FFB2B2" stop-opacity="0.2"/>
<stop offset="1" stop-color="white" stop-opacity="0"/>
</linearGradient>
<linearGradient id="paint3_linear_2713_18459" x1="61.6227" y1="81.1847" x2="123.965" y2="215.575" gradientUnits="userSpaceOnUse">
<stop stop-color="#8C3E3E"/>
<stop offset="0.586538" stop-color="#CEB484"/>
<stop offset="1" stop-color="#8F5B5B"/>
</linearGradient>
<linearGradient id="paint4_linear_2713_18459" x1="80.7987" y1="94.2762" x2="120.8" y2="148.888" gradientUnits="userSpaceOnUse">
<stop stop-color="#FFD9D9"/>
<stop offset="0.440397" stop-color="#FFD9D9" stop-opacity="0"/>
</linearGradient>
<linearGradient id="paint5_linear_2713_18459" x1="66.4186" y1="130.195" x2="81.9219" y2="133.362" gradientUnits="userSpaceOnUse">
<stop stop-color="#FFD9D9"/>
<stop offset="1" stop-color="#FFD9D9" stop-opacity="0"/>
</linearGradient>
<linearGradient id="paint6_linear_2713_18459" x1="85.9264" y1="204.961" x2="83.3998" y2="184.901" gradientUnits="userSpaceOnUse">
<stop stop-color="#AAADC8"/>
<stop offset="1" stop-color="#3D405B"/>
</linearGradient>
<linearGradient id="paint7_linear_2713_18459" x1="132.757" y1="159.864" x2="114.341" y2="210.94" gradientUnits="userSpaceOnUse">
<stop stop-color="white"/>
<stop offset="1" stop-color="#F5E6CA"/>
</linearGradient>
<linearGradient id="paint8_linear_2713_18459" x1="130.782" y1="161.833" x2="119.69" y2="203.827" gradientUnits="userSpaceOnUse">
<stop stop-color="#EEC0B0"/>
<stop offset="1" stop-color="#8D6E63"/>
</linearGradient>
<linearGradient id="paint9_linear_2713_18459" x1="89.0038" y1="144.992" x2="87.1033" y2="181.408" gradientUnits="userSpaceOnUse">
<stop stop-color="#FFD2D0"/>
<stop offset="1" stop-color="#FFDA9F"/>
</linearGradient>
<clipPath id="clip0_2713_18459">
<rect width="298" height="274" fill="white"/>
</clipPath>
<clipPath id="clip1_2713_18459">
<rect width="226.204" height="166.438" fill="white" transform="translate(29 55)"/>
</clipPath>
</defs>
</svg>
