<svg width="298" height="274" viewBox="0 0 298 274" fill="none" xmlns="http://www.w3.org/2000/svg">
<g clip-path="url(#clip0_2876_43317)">
<path d="M56.3296 255.237C57.118 256.572 55.5938 258.071 54.2722 257.261L36.5959 246.427C35.7431 245.904 34.6279 246.355 34.3787 247.324L29.2119 267.402C28.8256 268.904 26.6876 268.886 26.3259 267.379L21.4881 247.218C21.2547 246.246 20.147 245.776 19.2858 246.285L1.43471 256.829C0.100064 257.618 -1.39942 256.094 -0.589354 254.772L10.2453 237.096C10.768 236.243 10.3167 235.128 9.34809 234.878L-10.7305 229.712C-12.2317 229.325 -12.2142 227.187 -10.7069 226.826L9.45347 221.988C10.426 221.754 10.8955 220.647 10.3868 219.786L-0.157419 201.934C-0.945763 200.6 0.578423 199.1 1.90001 199.91L19.5764 210.745C20.4291 211.268 21.5443 210.816 21.7936 209.848L26.9603 189.769C27.3466 188.268 29.4847 188.286 29.8464 189.793L34.6842 209.953C34.9175 210.926 36.0252 211.395 36.8864 210.887L54.7375 200.342C56.0722 199.554 57.5716 201.078 56.7616 202.4L45.9269 220.076C45.4042 220.929 45.8555 222.044 46.8241 222.293L66.9027 227.46C68.4039 227.846 68.3864 229.984 66.8791 230.346L46.7188 235.184C45.7462 235.417 45.2767 236.525 45.7854 237.386L56.3296 255.237Z" fill="url(#paint0_linear_2876_43317)"/>
<path d="M248.827 84.7383C249.482 85.8464 248.216 87.0914 247.119 86.4188L232.443 77.4233C231.735 76.9893 230.809 77.364 230.602 78.1682L226.312 94.8385C225.992 96.0849 224.217 96.0704 223.916 94.8189L219.9 78.0807C219.706 77.2732 218.786 76.8835 218.071 77.3058L203.25 86.0602C202.142 86.7147 200.897 85.4492 201.57 84.352L210.565 69.6761C210.999 68.9682 210.625 68.0422 209.82 67.8353L193.15 63.5456C191.904 63.2249 191.918 61.4497 193.17 61.1494L209.908 57.1328C210.715 56.9391 211.105 56.0194 210.683 55.3044L201.928 40.4835C201.274 39.3754 202.539 38.1304 203.637 38.803L218.313 47.7985C219.021 48.2325 219.946 47.8578 220.153 47.0536L224.443 30.3833C224.764 29.1369 226.539 29.1514 226.839 30.4029L230.856 47.1411C231.05 47.9485 231.969 48.3383 232.684 47.916L247.505 39.1616C248.613 38.5071 249.858 39.7725 249.186 40.8698L240.19 55.5456C239.756 56.2536 240.131 57.1795 240.935 57.3865L257.605 61.6762C258.852 61.9969 258.837 63.772 257.586 64.0723L240.848 68.0889C240.04 68.2827 239.65 69.2024 240.073 69.9173L248.827 84.7383Z" fill="url(#paint1_linear_2876_43317)"/>
<path d="M0.712076 19.1249L0.606622 19.2835L0.789924 19.3352L0.607204 19.3889L0.714403 19.5463L0.539914 19.47L0.52085 19.6595L0.436237 19.4889L0.299831 19.6218L0.344685 19.4367L0.154762 19.4508L0.308096 19.3379L0.153524 19.2266L0.343591 19.2386L0.296695 19.054L0.434561 19.1854L0.517285 19.0139L0.53844 19.2032L0.712076 19.1249Z" fill="white"/>
<path d="M63.4836 37.9531L63.3781 38.1116L63.5614 38.1633L63.3787 38.217L63.4859 38.3744L63.3114 38.2981L63.2923 38.4876L63.2077 38.317L63.0713 38.4499L63.1162 38.2648L62.9262 38.2789L63.0796 38.166L62.925 38.0547L63.1151 38.0668L63.0682 37.8822L63.206 38.0136L63.2888 37.842L63.3099 38.0313L63.4836 37.9531Z" fill="white"/>
<path d="M25.1144 59.5937L25.009 59.7523L25.1923 59.8039L25.0095 59.8576L25.1167 60.0151L24.9423 59.9387L24.9232 60.1282L24.8386 59.9576L24.7022 60.0905L24.747 59.9054L24.5571 59.9196L24.7104 59.8066L24.5559 59.6953L24.7459 59.7074L24.699 59.5228L24.8369 59.6542L24.9196 59.4826L24.9408 59.6719L25.1144 59.5937Z" fill="white"/>
<path d="M31.0163 25.164L30.9108 25.3226L31.0941 25.3743L30.9114 25.428L31.0186 25.5854L30.8441 25.5091L30.825 25.6985L30.7404 25.5279L30.604 25.6608L30.6489 25.4757L30.459 25.4899L30.6123 25.3769L30.4577 25.2657L30.6478 25.2777L30.6009 25.0931L30.7388 25.2245L30.8215 25.053L30.8426 25.2422L31.0163 25.164Z" fill="white"/>
<path d="M12.9792 33.3593L12.8737 33.5179L13.057 33.5696L12.8743 33.6233L12.9815 33.7807L12.807 33.7044L12.7879 33.8939L12.7033 33.7232L12.5669 33.8561L12.6118 33.6711L12.4219 33.6852L12.5752 33.5722L12.4206 33.461L12.6107 33.473L12.5638 33.2884L12.7017 33.4198L12.7844 33.2483L12.8055 33.4375L12.9792 33.3593Z" fill="white"/>
<path d="M127.104 54.0234L126.999 54.182L127.182 54.2336L126.999 54.2873L127.106 54.4447L126.932 54.3684L126.913 54.5579L126.828 54.3873L126.692 54.5202L126.737 54.3351L126.547 54.3492L126.7 54.2363L126.546 54.125L126.736 54.1371L126.689 53.9525L126.827 54.0839L126.909 53.9123L126.931 54.1016L127.104 54.0234Z" fill="white"/>
<path d="M69.7135 19.9218L69.6081 20.0804L69.7914 20.1321L69.6087 20.1858L69.7159 20.3432L69.5414 20.2669L69.5223 20.4564L69.4377 20.2857L69.3013 20.4186L69.3461 20.2336L69.1562 20.2477L69.3096 20.1347L69.155 20.0235L69.3451 20.0355L69.2982 19.8509L69.436 19.9823L69.5187 19.8108L69.5399 20L69.7135 19.9218Z" fill="white"/>
<path d="M208.761 38.9374L208.656 39.096L208.839 39.1477L208.657 39.2014L208.764 39.3588L208.589 39.2825L208.57 39.472L208.486 39.3014L208.349 39.4343L208.394 39.2492L208.204 39.2633L208.357 39.1504L208.203 39.0391L208.393 39.0511L208.346 38.8665L208.484 38.9979L208.567 38.8264L208.588 39.0157L208.761 38.9374Z" fill="white"/>
<path d="M132.68 92.7187L132.574 92.8773L132.758 92.9289L132.575 92.9826L132.682 93.1401L132.508 93.0637L132.489 93.2532L132.404 93.0826L132.268 93.2155L132.312 93.0304L132.123 93.0446L132.276 92.9316L132.121 92.8203L132.311 92.8324L132.264 92.6478L132.402 92.7792L132.485 92.6076L132.506 92.7969L132.68 92.7187Z" fill="white"/>
<path d="M69.3874 66.8124L69.2819 66.971L69.4652 67.0227L69.2825 67.0764L69.3897 67.2338L69.2152 67.1575L69.1961 67.347L69.1115 67.1764L68.9751 67.3093L69.02 67.1242L68.8301 67.1383L68.9834 67.0254L68.8288 66.9141L69.0189 66.9261L68.972 66.7415L69.1099 66.8729L69.1926 66.7014L69.2137 66.8907L69.3874 66.8124Z" fill="white"/>
<path d="M66.7638 117.641L66.6584 117.799L66.8417 117.851L66.659 117.905L66.7662 118.062L66.5917 117.986L66.5726 118.175L66.488 118.004L66.3516 118.137L66.3964 117.952L66.2065 117.966L66.3599 117.853L66.2053 117.742L66.3953 117.754L66.3485 117.57L66.4863 117.701L66.569 117.53L66.5902 117.719L66.7638 117.641Z" fill="white"/>
<path d="M262.872 113.047L262.767 113.205L262.95 113.257L262.767 113.311L262.875 113.468L262.7 113.392L262.681 113.581L262.596 113.411L262.46 113.544L262.505 113.359L262.315 113.373L262.468 113.26L262.314 113.148L262.504 113.161L262.457 112.976L262.595 113.107L262.677 112.936L262.699 113.125L262.872 113.047Z" fill="white"/>
<path d="M199.252 273.75L199.147 273.909L199.33 273.96L199.147 274.014L199.254 274.171L199.08 274.095L199.061 274.284L198.976 274.114L198.84 274.247L198.885 274.062L198.695 274.076L198.848 273.963L198.694 273.852L198.884 273.864L198.837 273.679L198.975 273.81L199.057 273.639L199.078 273.828L199.252 273.75Z" fill="white"/>
<path d="M256.971 149.453L256.865 149.612L257.049 149.663L256.866 149.717L256.973 149.874L256.799 149.798L256.78 149.988L256.695 149.817L256.559 149.95L256.603 149.765L256.414 149.779L256.567 149.666L256.412 149.555L256.602 149.567L256.555 149.382L256.693 149.514L256.776 149.342L256.797 149.531L256.971 149.453Z" fill="white"/>
<path d="M167.769 123.547L167.663 123.705L167.847 123.757L167.664 123.811L167.771 123.968L167.597 123.892L167.577 124.081L167.493 123.911L167.356 124.044L167.401 123.859L167.211 123.873L167.365 123.76L167.21 123.648L167.4 123.661L167.353 123.476L167.491 123.607L167.574 123.436L167.595 123.625L167.769 123.547Z" fill="white"/>
<path d="M99.2292 247.508L99.1237 247.666L99.307 247.718L99.1243 247.772L99.2315 247.929L99.057 247.853L99.0379 248.042L98.9533 247.872L98.8169 248.005L98.8618 247.819L98.6719 247.834L98.8252 247.721L98.6706 247.609L98.8607 247.621L98.8138 247.437L98.9517 247.568L99.0344 247.397L99.0555 247.586L99.2292 247.508Z" fill="white"/>
<path d="M19.5392 210.125L19.4338 210.284L19.6171 210.335L19.4344 210.389L19.5416 210.546L19.3671 210.47L19.348 210.659L19.2634 210.489L19.127 210.622L19.1718 210.437L18.9819 210.451L19.1352 210.338L18.9807 210.227L19.1707 210.239L19.1238 210.054L19.2617 210.185L19.3444 210.014L19.3656 210.203L19.5392 210.125Z" fill="white"/>
<path d="M20.5236 96.3281L20.4181 96.4866L20.6014 96.5383L20.4187 96.592L20.5259 96.7494L20.3514 96.6731L20.3324 96.8626L20.2478 96.692L20.1114 96.8249L20.1562 96.6398L19.9663 96.6539L20.1196 96.541L19.965 96.4297L20.1551 96.4418L20.1082 96.2572L20.2461 96.3886L20.3288 96.217L20.35 96.4063L20.5236 96.3281Z" fill="white"/>
<path d="M126.12 107.148L126.014 107.307L126.198 107.359L126.015 107.412L126.122 107.57L125.948 107.493L125.929 107.683L125.844 107.512L125.708 107.645L125.752 107.46L125.562 107.474L125.716 107.361L125.561 107.25L125.751 107.262L125.704 107.077L125.842 107.209L125.925 107.037L125.946 107.227L126.12 107.148Z" fill="white"/>
<path d="M276.319 185.203L276.213 185.362L276.396 185.413L276.214 185.467L276.321 185.624L276.146 185.548L276.127 185.738L276.043 185.567L275.906 185.7L275.951 185.515L275.761 185.529L275.915 185.416L275.76 185.305L275.95 185.317L275.903 185.132L276.041 185.264L276.124 185.092L276.145 185.281L276.319 185.203Z" fill="white"/>
<path d="M232.702 225.531L232.597 225.69L232.78 225.741L232.597 225.795L232.705 225.953L232.53 225.876L232.511 226.066L232.426 225.895L232.29 226.028L232.335 225.843L232.145 225.857L232.298 225.744L232.144 225.633L232.334 225.645L232.287 225.46L232.425 225.592L232.508 225.42L232.529 225.609L232.702 225.531Z" fill="white"/>
<path d="M172.36 134.367L172.255 134.526L172.438 134.577L172.255 134.631L172.362 134.788L172.188 134.712L172.169 134.902L172.084 134.731L171.948 134.864L171.993 134.679L171.803 134.693L171.956 134.58L171.801 134.469L171.992 134.481L171.945 134.296L172.083 134.428L172.165 134.256L172.186 134.445L172.36 134.367Z" fill="white"/>
<path d="M243.525 75.0077L243.419 75.1663L243.602 75.218L243.42 75.2717L243.527 75.4291L243.352 75.3528L243.333 75.5423L243.249 75.3717L243.112 75.5046L243.157 75.3195L242.967 75.3336L243.121 75.2207L242.966 75.1094L243.156 75.1214L243.109 74.9369L243.247 75.0682L243.33 74.8967L243.351 75.086L243.525 75.0077Z" fill="white"/>
<path d="M32.0007 243.906L31.8952 244.065L32.0785 244.116L31.8958 244.17L32.003 244.328L31.8285 244.251L31.8094 244.441L31.7248 244.27L31.5884 244.403L31.6333 244.218L31.4433 244.232L31.5967 244.119L31.4421 244.008L31.6322 244.02L31.5853 243.835L31.7231 243.967L31.8059 243.795L31.827 243.984L32.0007 243.906Z" fill="white"/>
<path d="M24.13 144.859L24.0246 145.018L24.2079 145.07L24.0252 145.123L24.1324 145.281L23.9579 145.204L23.9388 145.394L23.8542 145.223L23.7178 145.356L23.7627 145.171L23.5727 145.185L23.7261 145.072L23.5715 144.961L23.7616 144.973L23.7147 144.788L23.8525 144.92L23.9353 144.748L23.9564 144.938L24.13 144.859Z" fill="white"/>
<path d="M204.827 141.25L204.722 141.409L204.905 141.46L204.722 141.514L204.83 141.671L204.655 141.595L204.636 141.784L204.551 141.614L204.415 141.747L204.46 141.562L204.27 141.576L204.423 141.463L204.269 141.352L204.459 141.364L204.412 141.179L204.55 141.31L204.633 141.139L204.654 141.328L204.827 141.25Z" fill="white"/>
<path d="M152.356 188.484L152.25 188.643L152.433 188.695L152.251 188.748L152.358 188.906L152.183 188.829L152.164 189.019L152.08 188.848L151.943 188.981L151.988 188.796L151.798 188.81L151.952 188.697L151.797 188.586L151.987 188.598L151.94 188.413L152.078 188.545L152.161 188.373L152.182 188.563L152.356 188.484Z" fill="white"/>
<path d="M187.331 211.031L187.12 211.349L187.486 211.452L187.121 211.56L187.335 211.875L186.986 211.722L186.948 212.101L186.779 211.76L186.506 212.026L186.595 211.655L186.215 211.683L186.522 211.457L186.213 211.235L186.593 211.259L186.499 210.89L186.775 211.152L186.941 210.809L186.983 211.188L187.331 211.031Z" fill="white"/>
<path d="M106.173 155.281L105.962 155.599L106.329 155.702L105.964 155.81L106.178 156.125L105.829 155.972L105.791 156.351L105.621 156.01L105.348 156.276L105.438 155.905L105.058 155.933L105.365 155.707L105.056 155.485L105.436 155.509L105.342 155.14L105.618 155.402L105.784 155.059L105.826 155.438L106.173 155.281Z" fill="white"/>
<path d="M225.872 19.5157L225.661 19.8331L226.027 19.9365L225.662 20.0439L225.876 20.3589L225.527 20.2062L225.489 20.5854L225.32 20.244L225.047 20.5099L225.136 20.1395L224.756 20.1678L225.063 19.9418L224.754 19.7192L225.134 19.7432L225.04 19.3739L225.316 19.6368L225.482 19.2936L225.524 19.6723L225.872 19.5157Z" fill="white"/>
<path d="M154.38 20.4923L154.169 20.8096L154.536 20.913L154.171 21.0205L154.385 21.3355L154.036 21.1828L153.998 21.5619L153.828 21.2205L153.556 21.4865L153.645 21.1161L153.265 21.1444L153.572 20.9184L153.263 20.6957L153.643 20.7198L153.549 20.3505L153.825 20.6134L153.991 20.2701L154.033 20.6488L154.38 20.4923Z" fill="white"/>
<path d="M294.085 212.016L293.874 212.333L294.241 212.436L293.875 212.544L294.09 212.859L293.741 212.706L293.702 213.085L293.533 212.744L293.26 213.01L293.35 212.64L292.97 212.668L293.277 212.442L292.967 212.219L293.348 212.243L293.254 211.874L293.53 212.137L293.695 211.794L293.738 212.172L294.085 212.016Z" fill="white"/>
<path d="M65.1802 204.141L64.9692 204.458L65.336 204.561L64.9704 204.669L65.1849 204.984L64.8357 204.831L64.7976 205.21L64.6283 204.869L64.3553 205.135L64.4451 204.765L64.065 204.793L64.3719 204.567L64.0626 204.344L64.4429 204.368L64.349 203.999L64.6249 204.262L64.7904 203.919L64.8328 204.297L65.1802 204.141Z" fill="white"/>
<path d="M18.2842 184.797L18.0732 185.114L18.44 185.218L18.0744 185.325L18.2889 185.64L17.9397 185.487L17.9016 185.867L17.7323 185.525L17.4593 185.791L17.5491 185.421L17.169 185.449L17.4759 185.223L17.1666 185L17.5469 185.024L17.4531 184.655L17.7289 184.918L17.8944 184.575L17.9368 184.954L18.2842 184.797Z" fill="white"/>
<path d="M2.2144 108.383L2.00339 108.7L2.37018 108.804L2.00456 108.911L2.21906 109.226L1.86991 109.073L1.83176 109.453L1.66245 109.111L1.3895 109.377L1.47925 109.007L1.09922 109.035L1.40604 108.809L1.09674 108.586L1.47706 108.61L1.38323 108.241L1.6591 108.504L1.82463 108.161L1.86696 108.539L2.2144 108.383Z" fill="white"/>
<path d="M233.712 1.33817L233.481 1.33118L233.652 1.57479L233.407 1.40635L233.417 1.63875L233.274 1.38769L233.118 1.50014L233.143 1.28391L232.895 1.2238L233.077 1.14359L232.852 0.939043L233.105 1.03238L233.009 0.779104L233.216 1.00232L233.293 0.818821L233.356 1.06746L233.571 1.03961L233.461 1.19734L233.712 1.33817Z" fill="white"/>
<path d="M294.217 84.5647L293.985 84.5577L294.156 84.8013L293.912 84.6329L293.921 84.8653L293.778 84.6142L293.623 84.7267L293.648 84.5105L293.4 84.4504L293.581 84.3702L293.357 84.1656L293.61 84.2589L293.514 84.0057L293.72 84.2289L293.798 84.0454L293.86 84.294L294.075 84.2662L293.965 84.4239L294.217 84.5647Z" fill="white"/>
<path d="M273.153 118.229L272.921 118.222L273.092 118.465L272.848 118.297L272.857 118.529L272.714 118.278L272.559 118.391L272.584 118.175L272.336 118.114L272.517 118.034L272.293 117.83L272.546 117.923L272.45 117.67L272.656 117.893L272.734 117.709L272.796 117.958L273.011 117.93L272.901 118.088L273.153 118.229Z" fill="white"/>
<path d="M219.974 28.4163L219.743 28.4093L219.913 28.6529L219.669 28.4845L219.679 28.7169L219.535 28.4658L219.38 28.5783L219.405 28.362L219.157 28.3019L219.339 28.2217L219.114 28.0172L219.367 28.1105L219.271 27.8572L219.477 28.0804L219.555 27.8969L219.618 28.1456L219.832 28.1177L219.723 28.2755L219.974 28.4163Z" fill="white"/>
<path d="M181.067 61.3929L180.835 61.3859L181.006 61.6295L180.762 61.461L180.771 61.6934L180.628 61.4424L180.473 61.5548L180.498 61.3386L180.25 61.2785L180.431 61.1983L180.207 60.9937L180.46 61.0871L180.364 60.8338L180.57 61.057L180.648 60.8735L180.71 61.1222L180.925 61.0943L180.815 61.252L181.067 61.3929Z" fill="white"/>
<path d="M290.994 179.666L290.762 179.659L290.933 179.903L290.688 179.734L290.698 179.967L290.555 179.716L290.4 179.828L290.425 179.612L290.177 179.552L290.358 179.472L290.134 179.267L290.387 179.361L290.291 179.107L290.497 179.33L290.574 179.147L290.637 179.396L290.852 179.368L290.742 179.525L290.994 179.666Z" fill="white"/>
<path d="M125.913 189.893L125.682 189.886L125.852 190.129L125.608 189.961L125.618 190.193L125.474 189.942L125.319 190.055L125.344 189.839L125.096 189.778L125.277 189.698L125.053 189.494L125.306 189.587L125.21 189.334L125.416 189.557L125.494 189.374L125.557 189.622L125.771 189.594L125.661 189.752L125.913 189.893Z" fill="white"/>
<path d="M62.3285 73.4397L62.0972 73.4327L62.2677 73.6763L62.0233 73.5079L62.0331 73.7403L61.89 73.4892L61.7345 73.6017L61.7595 73.3855L61.5115 73.3254L61.693 73.2452L61.4685 73.0406L61.7216 73.1339L61.6256 72.8807L61.8318 73.1039L61.9094 72.9204L61.9722 73.169L62.1869 73.1412L62.077 73.2989L62.3285 73.4397Z" fill="white"/>
<path d="M255.54 121.026L255.309 121.019L255.48 121.262L255.235 121.094L255.245 121.326L255.102 121.075L254.946 121.188L254.971 120.971L254.723 120.911L254.905 120.831L254.68 120.627L254.933 120.72L254.838 120.467L255.044 120.69L255.121 120.506L255.184 120.755L255.399 120.727L255.289 120.885L255.54 121.026Z" fill="white"/>
<path d="M288.526 192.502L288.295 192.495L288.465 192.739L288.221 192.57L288.231 192.803L288.088 192.552L287.932 192.664L287.957 192.448L287.709 192.388L287.891 192.308L287.666 192.103L287.919 192.196L287.823 191.943L288.03 192.166L288.107 191.983L288.17 192.232L288.385 192.204L288.275 192.361L288.526 192.502Z" fill="white"/>
<path d="M52.5204 111.401L52.2891 111.394L52.4596 111.637L52.2152 111.469L52.225 111.701L52.0819 111.45L51.9264 111.563L51.9514 111.346L51.7034 111.286L51.8849 111.206L51.6604 111.002L51.9135 111.095L51.8175 110.842L52.0237 111.065L52.1013 110.881L52.1641 111.13L52.3788 111.102L52.2689 111.26L52.5204 111.401Z" fill="white"/>
<path d="M113.661 32.4788L113.43 32.4718L113.6 32.7154L113.356 32.547L113.366 32.7794L113.223 32.5283L113.067 32.6408L113.092 32.4245L112.844 32.3644L113.026 32.2842L112.801 32.0797L113.054 32.173L112.958 31.9197L113.164 32.1429L113.242 31.9594L113.305 32.2081L113.519 32.1802L113.41 32.338L113.661 32.4788Z" fill="white"/>
<path d="M227.667 208.166L227.436 208.159L227.607 208.403L227.362 208.234L227.372 208.467L227.229 208.216L227.073 208.328L227.098 208.112L226.85 208.052L227.032 207.972L226.807 207.767L227.06 207.861L226.964 207.607L227.171 207.83L227.248 207.647L227.311 207.896L227.526 207.868L227.416 208.025L227.667 208.166Z" fill="white"/>
<path d="M251.229 263.622L250.767 263.608L251.108 264.096L250.619 263.759L250.638 264.224L250.352 263.721L250.041 263.946L250.091 263.514L249.594 263.393L249.958 263.233L249.508 262.823L250.015 263.01L249.823 262.503L250.235 262.95L250.391 262.583L250.516 263.08L250.946 263.025L250.726 263.34L251.229 263.622Z" fill="white"/>
<path d="M198.972 132.52L198.51 132.507L198.851 132.994L198.362 132.657L198.381 133.122L198.095 132.62L197.784 132.845L197.834 132.412L197.338 132.292L197.701 132.131L197.252 131.722L197.758 131.909L197.566 131.402L197.979 131.848L198.134 131.481L198.26 131.979L198.689 131.923L198.469 132.239L198.972 132.52Z" fill="white"/>
<path d="M118.115 120.77L117.652 120.757L117.993 121.244L117.504 120.907L117.524 121.372L117.237 120.87L116.926 121.095L116.976 120.662L116.48 120.542L116.843 120.381L116.394 119.972L116.9 120.159L116.708 119.652L117.121 120.098L117.276 119.731L117.402 120.229L117.831 120.173L117.611 120.489L118.115 120.77Z" fill="white"/>
<path d="M32.6116 181.817L32.1488 181.803L32.49 182.291L32.001 181.954L32.0206 182.419L31.7342 181.916L31.423 182.141L31.4731 181.709L30.9768 181.589L31.34 181.428L30.8907 181.019L31.3972 181.205L31.2052 180.699L31.6178 181.145L31.773 180.778L31.8987 181.276L32.3284 181.22L32.1084 181.536L32.6116 181.817Z" fill="white"/>
<path d="M78.8211 54.1064L78.3583 54.0925L78.6995 54.5799L78.2105 54.2429L78.2301 54.7079L77.9437 54.2055L77.6325 54.4305L77.6826 53.9979L77.1862 53.8776L77.5495 53.7171L77.1002 53.3078L77.6066 53.4946L77.4147 52.9878L77.8273 53.4344L77.9824 53.0672L78.1082 53.5648L78.5379 53.509L78.3179 53.8247L78.8211 54.1064Z" fill="white"/>
<path d="M2.16383 122.614L1.70108 122.6L2.04229 123.088L1.55329 122.751L1.57288 123.216L1.28644 122.713L0.975235 122.938L1.02539 122.506L0.52901 122.385L0.892285 122.225L0.442993 121.816L0.94941 122.002L0.757435 121.496L1.17003 121.942L1.3252 121.575L1.45093 122.073L1.88063 122.017L1.66065 122.332L2.16383 122.614Z" fill="white"/>
<g filter="url(#filter0_ii_2876_43317)">
<path d="M131.887 76.7002C132.173 75.0835 133.753 74.0606 135.354 74.4248C149.751 77.7032 156.347 83.9088 158.802 88.541C159.726 90.2836 158.127 91.9109 156.155 91.9453C153.507 91.9915 151.317 92.4739 149.641 93.0791C151.767 95.4384 156.345 101.241 159.917 107.903C171.183 102.055 214.808 96.9558 219.03 145.768C222.716 188.387 205.016 190.787 195.705 186.659C190.176 199.79 177.467 195.586 171.803 191.843C159.824 208.429 144.158 201.249 137.823 195.586C139.263 199.33 107.533 221.255 98.6597 163.333C90.9475 112.988 128.624 107.623 149.205 111.469C147.711 107.243 145.326 101.204 142.668 96.3896C140.617 97.4218 138.896 98.6411 137.505 99.8496C135.58 101.523 132.134 101.117 131.636 98.6152C130.13 91.0389 130.899 82.2966 131.887 76.7002Z" fill="#798ACD"/>
</g>
<g filter="url(#filter1_n_2876_43317)">
<ellipse cx="151.899" cy="137.021" rx="89.6612" ry="79.9499" transform="rotate(-9.05149 151.899 137.021)" fill="url(#paint2_linear_2876_43317)" fill-opacity="0.9"/>
<path d="M139.43 58.75C188.031 51.0077 232.885 79.8678 239.76 123.024C246.635 166.18 212.968 207.549 164.368 215.292C115.768 223.034 70.9137 194.174 64.0385 151.018C57.1635 107.861 90.8302 66.4923 139.43 58.75Z" stroke="url(#paint3_linear_2876_43317)" stroke-width="1.38419"/>
</g>
<g filter="url(#filter2_ii_2876_43317)">
<path d="M143.093 226.297L137.482 217.993C136.166 216.045 136.89 213.378 139.056 212.461C159.924 203.635 184.59 201.034 196.998 200.727C199.228 200.672 200.934 202.603 200.722 204.824L199.86 213.877C199.693 215.632 198.351 217.047 196.61 217.324C172.817 221.1 155.35 225.752 147.181 227.86C145.622 228.263 143.994 227.631 143.093 226.297Z" fill="#3E4C8C"/>
</g>
<circle cx="170.356" cy="211.981" r="2.69148" fill="#CFD7F7"/>
<circle cx="153.437" cy="215.824" r="2.69148" fill="#CFD7F7"/>
<circle cx="187.272" cy="209.676" r="2.69148" fill="#CFD7F7"/>
<g filter="url(#filter3_g_2876_43317)">
<ellipse cx="147.195" cy="151.094" rx="13.2761" ry="11.7436" transform="rotate(-7.75815 147.195 151.094)" fill="white"/>
</g>
<g filter="url(#filter4_g_2876_43317)">
<ellipse cx="147.862" cy="150.87" rx="8.99811" ry="8.21485" transform="rotate(-7.75815 147.862 150.87)" fill="black"/>
</g>
<g filter="url(#filter5_g_2876_43317)">
<ellipse cx="183.804" cy="147.416" rx="11.9871" ry="11.7436" transform="rotate(-7.75815 183.804 147.416)" fill="white"/>
</g>
<ellipse cx="166.701" cy="157.153" rx="3.84496" ry="3.07597" transform="rotate(-3.98844 166.701 157.153)" fill="#FF581D"/>
<path d="M161.882 161.883L162.391 162.595C163.232 163.772 164.741 164.262 166.112 163.805V163.805" stroke="#852A0A" stroke-width="1.23039" stroke-linecap="round"/>
<g filter="url(#filter6_g_2876_43317)">
<ellipse cx="183.868" cy="147.103" rx="8.84513" ry="8.32685" transform="rotate(-7.75815 183.868 147.103)" fill="black"/>
</g>
<path opacity="0.8" d="M106.789 97.0662L91.7584 119.651C88.4867 124.566 82.3666 130.005 77.8577 126.192C75.0764 123.84 75.083 119.395 75.7579 116.496C77.2119 111.331 83.2461 98.766 95.7506 89.8291C103.283 84.4458 107.061 84.8071 108.768 86.9431C111.091 89.8492 108.851 93.9691 106.789 97.0662Z" fill="url(#paint4_linear_2876_43317)"/>
<path opacity="0.89" d="M74.0776 133.18C81.46 128.258 81.7676 139.332 80.9986 145.483C80.0757 148.867 76.0001 146.893 74.0776 145.483C71.0017 143.433 66.6953 138.101 74.0776 133.18Z" fill="url(#paint5_linear_2876_43317)"/>
<path d="M62.3271 175.822H58.124V187.953H50.0508V175.822H45.3896L53.8584 160.086L62.3271 175.822Z" fill="url(#paint6_linear_2876_43317)"/>
<g opacity="0.66">
<path d="M42.0313 157.639L43.9411 158.155C43.9639 158.161 43.9847 158.173 44.0015 158.19C44.0184 158.206 44.0308 158.227 44.0375 158.25L44.5823 160.151C44.5907 160.18 44.6084 160.205 44.6325 160.223C44.6566 160.241 44.6859 160.251 44.716 160.25C44.746 160.25 44.7752 160.24 44.799 160.222C44.8229 160.204 44.8401 160.178 44.8482 160.149L45.3636 158.239C45.37 158.217 45.382 158.196 45.3986 158.179C45.4153 158.162 45.4359 158.15 45.4586 158.143L47.3602 157.598C47.3891 157.59 47.4143 157.572 47.4323 157.548C47.4502 157.524 47.4597 157.495 47.4595 157.464C47.4593 157.434 47.4493 157.405 47.431 157.381C47.4127 157.358 47.3871 157.34 47.3582 157.332L45.4484 156.817C45.4256 156.81 45.4048 156.798 45.3879 156.782C45.371 156.765 45.3586 156.745 45.3519 156.722L44.8072 154.82C44.7987 154.791 44.7811 154.766 44.757 154.748C44.7328 154.73 44.7035 154.721 44.6735 154.721C44.6434 154.721 44.6143 154.731 44.5904 154.749C44.5666 154.768 44.5493 154.793 44.5413 154.822L44.0259 156.732C44.0195 156.755 44.0074 156.776 43.9908 156.793C43.9742 156.809 43.9536 156.822 43.9309 156.829L42.0292 157.373C42.0004 157.382 41.9751 157.399 41.9572 157.423C41.9393 157.448 41.9297 157.477 41.9299 157.507C41.9302 157.537 41.9402 157.566 41.9585 157.59C41.9768 157.614 42.0023 157.631 42.0313 157.639Z" fill="white" stroke="white" stroke-width="0.196308" stroke-linecap="round" stroke-linejoin="round"/>
</g>
<g filter="url(#filter7_i_2876_43317)">
<path d="M63.1081 199.242L98.224 196.732C98.4858 196.713 98.7469 196.737 99.0007 196.804C102.682 197.778 131.794 205.497 132.355 206.344C132.775 206.979 132.605 211.223 132.467 213.696C132.407 214.753 131.644 215.63 130.609 215.854L95.1793 223.527C94.6121 223.65 94.0196 223.562 93.5126 223.279L64.3337 207.029C63.5771 206.607 63.1081 205.809 63.1081 204.943L63.1081 199.242Z" fill="#F6CD74"/>
</g>
<path d="M63.1079 199.25L99.2514 195.719C99.5405 195.691 99.8322 195.715 100.112 195.792L130.874 204.193C133.247 204.841 133.207 208.22 130.82 208.812L98.9448 216.721C98.3896 216.859 97.8033 216.792 97.2928 216.534L63.1079 199.25Z" fill="url(#paint7_linear_2876_43317)"/>
<path d="M95.4613 221.019L95.4613 215.583C95.4613 215.377 95.6056 215.199 95.8072 215.156L132.609 207.369L132.609 213.86C132.609 214.068 132.461 214.247 132.257 214.287L95.982 221.447C95.7124 221.5 95.4613 221.294 95.4613 221.019Z" fill="white"/>
<g filter="url(#filter8_d_2876_43317)">
<path d="M144.353 196.354L118.752 184.156C118.332 183.956 117.847 183.899 117.299 184C111.254 185.114 73.398 192.101 72.1372 192.485C71.1808 192.775 70.881 195.282 70.7872 196.771C70.7421 197.485 71.0089 198.068 71.4891 198.431L90.2516 212.599C90.7374 212.966 91.4126 213.079 92.15 212.918L140.567 202.331C142.218 201.97 143.745 200.353 143.997 198.698L144.353 196.354Z" fill="url(#paint8_linear_2876_43317)"/>
<path d="M144.398 196.383L119.285 183.892C118.668 183.584 118.359 183.431 117.993 183.386C117.627 183.34 117.222 183.406 116.411 183.536L85.3098 188.543C76.7896 189.915 72.5296 190.6 71.4817 192.918C70.4339 195.235 73.613 196.94 79.9713 200.349L90.5165 206.003C91.1919 206.365 91.5296 206.546 91.938 206.593C92.3464 206.64 92.8018 206.551 93.7128 206.371L144.398 196.383Z" fill="url(#paint9_linear_2876_43317)"/>
<path d="M90.7569 210.047L90.741 208.584C90.739 208.405 90.6541 208.241 90.512 208.139L71.2817 194.395L70.8989 195.936C70.844 196.157 70.9239 196.387 71.1018 196.52L89.8628 210.525C90.2318 210.801 90.762 210.517 90.7569 210.047Z" fill="white"/>
</g>
<path d="M69.1281 178.148L104.244 175.638C104.506 175.619 104.767 175.643 105.021 175.711C108.702 176.684 137.814 184.404 138.375 185.251C138.795 185.886 138.625 190.129 138.487 192.602C138.427 193.659 137.664 194.536 136.629 194.76L101.199 202.433C100.632 202.556 100.04 202.468 99.5326 202.186L70.3537 185.935C69.5971 185.514 69.1281 184.716 69.1281 183.85L69.1281 178.148Z" fill="#253CA8"/>
<g filter="url(#filter9_i_2876_43317)">
<path d="M69.1279 178.148L105.271 174.617C105.56 174.589 105.852 174.614 106.132 174.69L136.894 183.091C139.267 183.739 139.227 187.118 136.84 187.71L104.965 195.619C104.41 195.757 103.823 195.691 103.313 195.433L69.1279 178.148Z" fill="url(#paint10_linear_2876_43317)"/>
</g>
<path d="M101.481 199.91L101.481 194.473C101.481 194.267 101.626 194.089 101.827 194.047L138.629 186.26L138.629 192.75C138.629 192.959 138.481 193.138 138.277 193.178L102.002 200.338C101.732 200.391 101.481 200.185 101.481 199.91Z" fill="white"/>
<g filter="url(#filter10_g_2876_43317)">
<path d="M98.2635 178.306C98.1539 178.028 98.6071 177.877 98.9846 178.065L100.727 178.935C100.898 179.021 101.112 179.042 101.27 178.99L103.013 178.407C103.415 178.273 103.962 178.616 103.762 178.877L103.062 179.789C102.964 179.918 103.052 180.096 103.268 180.204L104.69 180.914C105.095 181.117 104.975 181.482 104.512 181.457L102.167 181.331C101.996 181.322 101.851 181.371 101.783 181.459L100.846 182.682C100.661 182.924 100.037 182.807 99.9192 182.508L99.5065 181.461C99.4439 181.302 99.2105 181.172 98.9636 181.159L97.2133 181.065C96.7127 181.038 96.4462 180.601 96.8483 180.467L98.5911 179.885C98.7486 179.832 98.8188 179.715 98.769 179.589L98.2635 178.306Z" fill="#152A8D"/>
</g>
<g filter="url(#filter11_g_2876_43317)">
<path d="M99.3713 183.865C99.3154 183.723 99.5465 183.646 99.739 183.742L100.646 184.195C100.734 184.239 100.843 184.25 100.923 184.223L101.834 183.919C102.039 183.85 102.317 184.025 102.215 184.158L101.849 184.637C101.799 184.702 101.844 184.793 101.954 184.848L102.698 185.22C102.904 185.323 102.843 185.509 102.607 185.497L101.386 185.431C101.299 185.426 101.225 185.451 101.19 185.496L100.702 186.133C100.608 186.256 100.29 186.196 100.23 186.044L100.014 185.496C99.982 185.415 99.863 185.349 99.7371 185.342L98.8196 185.293C98.5643 185.279 98.4284 185.057 98.6334 184.988L99.5438 184.684C99.6241 184.657 99.6599 184.598 99.6345 184.533L99.3713 183.865Z" fill="#152A8D"/>
</g>
<g filter="url(#filter12_g_2876_43317)">
<path d="M107.684 181.162C107.628 181.02 107.859 180.943 108.052 181.039L108.959 181.492C109.047 181.536 109.156 181.547 109.236 181.52L110.147 181.216C110.352 181.147 110.63 181.322 110.528 181.455L110.162 181.933C110.112 181.999 110.157 182.09 110.267 182.145L111.011 182.516C111.217 182.62 111.156 182.806 110.92 182.793L109.699 182.728C109.612 182.723 109.538 182.748 109.503 182.793L109.015 183.43C108.921 183.553 108.603 183.493 108.543 183.341L108.327 182.793C108.295 182.712 108.176 182.646 108.05 182.639L107.133 182.59C106.877 182.576 106.741 182.353 106.946 182.285L107.857 181.981C107.937 181.954 107.973 181.894 107.948 181.83L107.684 181.162Z" fill="#152A8D"/>
</g>
<g filter="url(#filter13_i_2876_43317)">
<path d="M254.346 117.015C254.662 116.826 255.054 117.094 254.994 117.457L249.795 149.097C249.744 149.409 249.386 149.563 249.124 149.385L241.368 144.097L191.333 212.876C190.201 214.432 188.203 215.097 186.364 214.528L156.513 205.295L142.084 222.219C140.471 224.109 137.631 224.335 135.74 222.723C133.85 221.11 133.624 218.27 135.236 216.379L151.588 197.201L151.814 196.954C152.987 195.769 154.731 195.323 156.342 195.821L185.948 204.979L233.929 139.024L226.77 134.144C226.508 133.965 226.521 133.576 226.792 133.414L254.346 117.015Z" fill="url(#paint11_linear_2876_43317)"/>
</g>
</g>
<defs>
<filter id="filter0_ii_2876_43317" x="90.7138" y="74.3516" width="128.814" height="129.944" filterUnits="userSpaceOnUse" color-interpolation-filters="sRGB">
<feFlood flood-opacity="0" result="BackgroundImageFix"/>
<feBlend mode="normal" in="SourceGraphic" in2="BackgroundImageFix" result="shape"/>
<feColorMatrix in="SourceAlpha" type="matrix" values="0 0 0 0 0 0 0 0 0 0 0 0 0 0 0 0 0 0 127 0" result="hardAlpha"/>
<feOffset dx="-6.92094" dy="1.53799"/>
<feGaussianBlur stdDeviation="5.729"/>
<feComposite in2="hardAlpha" operator="arithmetic" k2="-1" k3="1"/>
<feColorMatrix type="matrix" values="0 0 0 0 1 0 0 0 0 0.912766 0 0 0 0 0.792818 0 0 0 0.8 0"/>
<feBlend mode="normal" in2="shape" result="effect1_innerShadow_2876_43317"/>
<feColorMatrix in="SourceAlpha" type="matrix" values="0 0 0 0 0 0 0 0 0 0 0 0 0 0 0 0 0 0 127 0" result="hardAlpha"/>
<feOffset dx="-0.768993" dy="0.768993"/>
<feGaussianBlur stdDeviation="0.384496"/>
<feComposite in2="hardAlpha" operator="arithmetic" k2="-1" k3="1"/>
<feColorMatrix type="matrix" values="0 0 0 0 0.871206 0 0 0 0 1 0 0 0 0 0.997853 0 0 0 0.5 0"/>
<feBlend mode="normal" in2="effect1_innerShadow_2876_43317" result="effect2_innerShadow_2876_43317"/>
</filter>
<filter id="filter1_n_2876_43317" x="62.4546" y="56.8047" width="178.89" height="160.438" filterUnits="userSpaceOnUse" color-interpolation-filters="sRGB">
<feFlood flood-opacity="0" result="BackgroundImageFix"/>
<feBlend mode="normal" in="SourceGraphic" in2="BackgroundImageFix" result="shape"/>
<feTurbulence type="fractalNoise" baseFrequency="0.13545851409435272 0.13545851409435272" stitchTiles="stitch" numOctaves="3" result="noise" seed="1999" />
<feColorMatrix in="noise" type="luminanceToAlpha" result="alphaNoise" />
<feComponentTransfer in="alphaNoise" result="coloredNoise1">
<feFuncA type="discrete" tableValues="1 1 1 1 1 1 1 1 1 1 1 1 1 1 1 1 1 1 1 1 1 1 1 1 1 1 1 1 1 1 1 1 1 1 1 1 1 1 1 1 1 1 1 1 1 1 1 1 1 1 1 0 0 0 0 0 0 0 0 0 0 0 0 0 0 0 0 0 0 0 0 0 0 0 0 0 0 0 0 0 0 0 0 0 0 0 0 0 0 0 0 0 0 0 0 0 0 0 0 0 "/>
</feComponentTransfer>
<feComposite operator="in" in2="shape" in="coloredNoise1" result="noise1Clipped" />
<feFlood flood-color="rgba(0, 0, 0, 0.08)" result="color1Flood" />
<feComposite operator="in" in2="noise1Clipped" in="color1Flood" result="color1" />
<feMerge result="effect1_noise_2876_43317">
<feMergeNode in="shape" />
<feMergeNode in="color1" />
</feMerge>
</filter>
<filter id="filter2_ii_2876_43317" x="128.672" y="200.727" width="72.0678" height="28.788" filterUnits="userSpaceOnUse" color-interpolation-filters="sRGB">
<feFlood flood-opacity="0" result="BackgroundImageFix"/>
<feBlend mode="normal" in="SourceGraphic" in2="BackgroundImageFix" result="shape"/>
<feColorMatrix in="SourceAlpha" type="matrix" values="0 0 0 0 0 0 0 0 0 0 0 0 0 0 0 0 0 0 127 0" result="hardAlpha"/>
<feOffset dx="-8.45892" dy="1.53799"/>
<feGaussianBlur stdDeviation="4.07566"/>
<feComposite in2="hardAlpha" operator="arithmetic" k2="-1" k3="1"/>
<feColorMatrix type="matrix" values="0 0 0 0 0.869328 0 0 0 0 0.719989 0 0 0 0 1 0 0 0 0.2 0"/>
<feBlend mode="normal" in2="shape" result="effect1_innerShadow_2876_43317"/>
<feColorMatrix in="SourceAlpha" type="matrix" values="0 0 0 0 0 0 0 0 0 0 0 0 0 0 0 0 0 0 127 0" result="hardAlpha"/>
<feOffset dx="-0.768993"/>
<feGaussianBlur stdDeviation="0.384496"/>
<feComposite in2="hardAlpha" operator="arithmetic" k2="-1" k3="1"/>
<feColorMatrix type="matrix" values="0 0 0 0 0.858824 0 0 0 0 0.976471 0 0 0 0 0.984314 0 0 0 0.2 0"/>
<feBlend mode="normal" in2="effect1_innerShadow_2876_43317" result="effect2_innerShadow_2876_43317"/>
</filter>
<filter id="filter3_g_2876_43317" x="133.56" y="138.936" width="27.2714" height="24.3159" filterUnits="userSpaceOnUse" color-interpolation-filters="sRGB">
<feFlood flood-opacity="0" result="BackgroundImageFix"/>
<feBlend mode="normal" in="SourceGraphic" in2="BackgroundImageFix" result="shape"/>
<feTurbulence type="fractalNoise" baseFrequency="1.4448909759521484 1.4448909759521484" numOctaves="3" seed="3511" />
<feDisplacementMap in="shape" scale="0.76899296045303345" xChannelSelector="R" yChannelSelector="G" result="displacedImage" width="100%" height="100%" />
<feMerge result="effect1_texture_2876_43317">
<feMergeNode in="displacedImage"/>
</feMerge>
</filter>
<filter id="filter4_g_2876_43317" x="138.623" y="142.388" width="18.4763" height="16.966" filterUnits="userSpaceOnUse" color-interpolation-filters="sRGB">
<feFlood flood-opacity="0" result="BackgroundImageFix"/>
<feBlend mode="normal" in="SourceGraphic" in2="BackgroundImageFix" result="shape"/>
<feTurbulence type="fractalNoise" baseFrequency="2.1999609470367432 2.1999609470367432" numOctaves="3" seed="3511" />
<feDisplacementMap in="shape" scale="0.50505948066711426" xChannelSelector="R" yChannelSelector="G" result="displacedImage" width="100%" height="100%" />
<feMerge result="effect1_texture_2876_43317">
<feMergeNode in="displacedImage"/>
</feMerge>
</filter>
<filter id="filter5_g_2876_43317" x="171.436" y="135.28" width="24.7373" height="24.269" filterUnits="userSpaceOnUse" color-interpolation-filters="sRGB">
<feFlood flood-opacity="0" result="BackgroundImageFix"/>
<feBlend mode="normal" in="SourceGraphic" in2="BackgroundImageFix" result="shape"/>
<feTurbulence type="fractalNoise" baseFrequency="1.4448909759521484 1.4448909759521484" numOctaves="3" seed="3511" />
<feDisplacementMap in="shape" scale="0.76899296045303345" xChannelSelector="R" yChannelSelector="G" result="displacedImage" width="100%" height="100%" />
<feMerge result="effect1_texture_2876_43317">
<feMergeNode in="displacedImage"/>
</feMerge>
</filter>
<filter id="filter6_g_2876_43317" x="174.779" y="138.513" width="18.1789" height="17.1769" filterUnits="userSpaceOnUse" color-interpolation-filters="sRGB">
<feFlood flood-opacity="0" result="BackgroundImageFix"/>
<feBlend mode="normal" in="SourceGraphic" in2="BackgroundImageFix" result="shape"/>
<feTurbulence type="fractalNoise" baseFrequency="2.1999609470367432 2.1999609470367432" numOctaves="3" seed="3511" />
<feDisplacementMap in="shape" scale="0.50505948066711426" xChannelSelector="R" yChannelSelector="G" result="displacedImage" width="100%" height="100%" />
<feMerge result="effect1_texture_2876_43317">
<feMergeNode in="displacedImage"/>
</feMerge>
</filter>
<filter id="filter7_i_2876_43317" x="63.1079" y="196.727" width="69.5127" height="30.8516" filterUnits="userSpaceOnUse" color-interpolation-filters="sRGB">
<feFlood flood-opacity="0" result="BackgroundImageFix"/>
<feBlend mode="normal" in="SourceGraphic" in2="BackgroundImageFix" result="shape"/>
<feColorMatrix in="SourceAlpha" type="matrix" values="0 0 0 0 0 0 0 0 0 0 0 0 0 0 0 0 0 0 127 0" result="hardAlpha"/>
<feOffset dy="9"/>
<feGaussianBlur stdDeviation="2"/>
<feComposite in2="hardAlpha" operator="arithmetic" k2="-1" k3="1"/>
<feColorMatrix type="matrix" values="0 0 0 0 0.831731 0 0 0 0 0.567816 0 0 0 0 0.567816 0 0 0 0.25 0"/>
<feBlend mode="normal" in2="shape" result="effect1_innerShadow_2876_43317"/>
</filter>
<filter id="filter8_d_2876_43317" x="68.1713" y="182.722" width="78.8381" height="34.8391" filterUnits="userSpaceOnUse" color-interpolation-filters="sRGB">
<feFlood flood-opacity="0" result="BackgroundImageFix"/>
<feColorMatrix in="SourceAlpha" type="matrix" values="0 0 0 0 0 0 0 0 0 0 0 0 0 0 0 0 0 0 127 0" result="hardAlpha"/>
<feOffset dy="1.95821"/>
<feGaussianBlur stdDeviation="1.30548"/>
<feComposite in2="hardAlpha" operator="out"/>
<feColorMatrix type="matrix" values="0 0 0 0 0 0 0 0 0 0 0 0 0 0 0 0 0 0 0.25 0"/>
<feBlend mode="normal" in2="BackgroundImageFix" result="effect1_dropShadow_2876_43317"/>
<feBlend mode="normal" in="SourceGraphic" in2="effect1_dropShadow_2876_43317" result="shape"/>
</filter>
<filter id="filter9_i_2876_43317" x="69.1279" y="174.609" width="69.5239" height="25.0781" filterUnits="userSpaceOnUse" color-interpolation-filters="sRGB">
<feFlood flood-opacity="0" result="BackgroundImageFix"/>
<feBlend mode="normal" in="SourceGraphic" in2="BackgroundImageFix" result="shape"/>
<feColorMatrix in="SourceAlpha" type="matrix" values="0 0 0 0 0 0 0 0 0 0 0 0 0 0 0 0 0 0 127 0" result="hardAlpha"/>
<feOffset dy="4"/>
<feGaussianBlur stdDeviation="5.3"/>
<feComposite in2="hardAlpha" operator="arithmetic" k2="-1" k3="1"/>
<feColorMatrix type="matrix" values="0 0 0 0 0.501577 0 0 0 0 0.908623 0 0 0 0 1 0 0 0 0.25 0"/>
<feBlend mode="normal" in2="shape" result="effect1_innerShadow_2876_43317"/>
</filter>
<filter id="filter10_g_2876_43317" x="96.378" y="177.71" width="8.83279" height="5.37771" filterUnits="userSpaceOnUse" color-interpolation-filters="sRGB">
<feFlood flood-opacity="0" result="BackgroundImageFix"/>
<feBlend mode="normal" in="SourceGraphic" in2="BackgroundImageFix" result="shape"/>
<feTurbulence type="fractalNoise" baseFrequency="7.2781939506530762 7.2781939506530762" numOctaves="3" seed="70" />
<feDisplacementMap in="shape" scale="0.54958689212799072" xChannelSelector="R" yChannelSelector="G" result="displacedImage" width="100%" height="100%" />
<feMerge result="effect1_texture_2876_43317">
<feMergeNode in="displacedImage"/>
</feMerge>
</filter>
<filter id="filter11_g_2876_43317" x="98.2589" y="183.428" width="4.83914" height="3.04177" filterUnits="userSpaceOnUse" color-interpolation-filters="sRGB">
<feFlood flood-opacity="0" result="BackgroundImageFix"/>
<feBlend mode="normal" in="SourceGraphic" in2="BackgroundImageFix" result="shape"/>
<feTurbulence type="fractalNoise" baseFrequency="7.2781939506530762 7.2781939506530762" numOctaves="3" seed="70" />
<feDisplacementMap in="shape" scale="0.54958689212799072" xChannelSelector="R" yChannelSelector="G" result="displacedImage" width="100%" height="100%" />
<feMerge result="effect1_texture_2876_43317">
<feMergeNode in="displacedImage"/>
</feMerge>
</filter>
<filter id="filter12_g_2876_43317" x="106.572" y="180.725" width="4.83914" height="3.04177" filterUnits="userSpaceOnUse" color-interpolation-filters="sRGB">
<feFlood flood-opacity="0" result="BackgroundImageFix"/>
<feBlend mode="normal" in="SourceGraphic" in2="BackgroundImageFix" result="shape"/>
<feTurbulence type="fractalNoise" baseFrequency="7.2781939506530762 7.2781939506530762" numOctaves="3" seed="70" />
<feDisplacementMap in="shape" scale="0.54958689212799072" xChannelSelector="R" yChannelSelector="G" result="displacedImage" width="100%" height="100%" />
<feMerge result="effect1_texture_2876_43317">
<feMergeNode in="displacedImage"/>
</feMerge>
</filter>
<filter id="filter13_i_2876_43317" x="134.161" y="116.953" width="120.839" height="110.844" filterUnits="userSpaceOnUse" color-interpolation-filters="sRGB">
<feFlood flood-opacity="0" result="BackgroundImageFix"/>
<feBlend mode="normal" in="SourceGraphic" in2="BackgroundImageFix" result="shape"/>
<feColorMatrix in="SourceAlpha" type="matrix" values="0 0 0 0 0 0 0 0 0 0 0 0 0 0 0 0 0 0 127 0" result="hardAlpha"/>
<feOffset dy="4"/>
<feGaussianBlur stdDeviation="5.45"/>
<feComposite in2="hardAlpha" operator="arithmetic" k2="-1" k3="1"/>
<feColorMatrix type="matrix" values="0 0 0 0 0.948387 0 0 0 0 1 0 0 0 0 0.483868 0 0 0 0.6 0"/>
<feBlend mode="normal" in2="shape" result="effect1_innerShadow_2876_43317"/>
</filter>
<linearGradient id="paint0_linear_2876_43317" x1="16.8296" y1="158.503" x2="32.5769" y2="282.184" gradientUnits="userSpaceOnUse">
<stop stop-color="#9CCFFF"/>
<stop offset="1" stop-color="#A7B3FF" stop-opacity="0"/>
</linearGradient>
<linearGradient id="paint1_linear_2876_43317" x1="216.032" y1="4.4242" x2="229.106" y2="107.111" gradientUnits="userSpaceOnUse">
<stop stop-color="#9CCFFF"/>
<stop offset="1" stop-color="#A7B3FF" stop-opacity="0"/>
</linearGradient>
<linearGradient id="paint2_linear_2876_43317" x1="240.424" y1="114.123" x2="79.6585" y2="182.344" gradientUnits="userSpaceOnUse">
<stop stop-color="#B2E5FF" stop-opacity="0.2"/>
<stop offset="1" stop-color="white" stop-opacity="0"/>
</linearGradient>
<linearGradient id="paint3_linear_2876_43317" x1="65.0032" y1="82.2908" x2="129.983" y2="222.367" gradientUnits="userSpaceOnUse">
<stop stop-color="#3E4C8C"/>
<stop offset="0.586538" stop-color="#CECE84"/>
<stop offset="1" stop-color="#5B658F"/>
</linearGradient>
<linearGradient id="paint4_linear_2876_43317" x1="84.9901" y1="95.9348" x2="126.684" y2="152.857" gradientUnits="userSpaceOnUse">
<stop stop-color="#D9F9FF"/>
<stop offset="0.440397" stop-color="#D9F9FF" stop-opacity="0"/>
</linearGradient>
<linearGradient id="paint5_linear_2876_43317" x1="70.0015" y1="133.369" x2="86.1607" y2="136.671" gradientUnits="userSpaceOnUse">
<stop stop-color="#D9F9FF"/>
<stop offset="1" stop-color="#D9F9FF" stop-opacity="0"/>
</linearGradient>
<linearGradient id="paint6_linear_2876_43317" x1="53.8584" y1="160.086" x2="53.8584" y2="187.953" gradientUnits="userSpaceOnUse">
<stop stop-color="#FFFDF3"/>
<stop offset="1" stop-color="#16142D" stop-opacity="0"/>
</linearGradient>
<linearGradient id="paint7_linear_2876_43317" x1="101.161" y1="218.453" x2="98.6345" y2="198.394" gradientUnits="userSpaceOnUse">
<stop stop-color="#FFC561"/>
<stop offset="1" stop-color="#EA7D0F"/>
</linearGradient>
<linearGradient id="paint8_linear_2876_43317" x1="147.992" y1="173.364" x2="129.576" y2="224.44" gradientUnits="userSpaceOnUse">
<stop stop-color="#1C4F78"/>
<stop offset="1" stop-color="#7B00C8"/>
</linearGradient>
<linearGradient id="paint9_linear_2876_43317" x1="146.017" y1="175.333" x2="134.925" y2="217.327" gradientUnits="userSpaceOnUse">
<stop stop-color="#AAE1FF"/>
<stop offset="1" stop-color="#8331FF"/>
</linearGradient>
<linearGradient id="paint10_linear_2876_43317" x1="101.149" y1="138.569" x2="101.866" y2="194.97" gradientUnits="userSpaceOnUse">
<stop stop-color="#7EC7CF"/>
<stop offset="1" stop-color="#3540B5"/>
</linearGradient>
<linearGradient id="paint11_linear_2876_43317" x1="134.16" y1="214.878" x2="260.729" y2="111.512" gradientUnits="userSpaceOnUse">
<stop stop-color="#FFE659"/>
<stop offset="1" stop-color="#FF3B3B"/>
</linearGradient>
<clipPath id="clip0_2876_43317">
<rect width="298" height="274" fill="white"/>
</clipPath>
</defs>
</svg>
