<svg width="422" height="376" viewBox="0 0 422 376" fill="none" xmlns="http://www.w3.org/2000/svg">
<g filter="url(#filter0_iii_2470_10862)">
<circle cx="216.999" cy="185.698" r="121.666" fill="url(#paint0_linear_2470_10862)"/>
</g>
<mask id="mask0_2470_10862" style="mask-type:alpha" maskUnits="userSpaceOnUse" x="95" y="64" width="244" height="244">
<circle cx="216.999" cy="185.698" r="121.666" fill="#579BC4"/>
</mask>
<g mask="url(#mask0_2470_10862)">
<g filter="url(#filter1_n_2470_10862)">
<path d="M342.401 138.805C357.764 140.15 364.343 158.063 355.426 170.873C344.319 186.827 330.233 203.049 312.527 218.279C302.879 226.578 294.408 234.848 286.986 242.962C267.075 264.729 230.507 262.773 233.345 232.835C233.804 227.99 235.542 223.274 238.202 219.281C263.195 181.751 291.139 176.229 315.952 154.487C318.358 152.379 320.701 150.096 322.95 147.689C328.136 142.139 334.891 138.148 342.401 138.805Z" fill="url(#paint1_linear_2470_10862)"/>
</g>
<g filter="url(#filter2_n_2470_10862)">
<path d="M167.471 134.283C149.735 132.538 143.52 111.755 154.695 97.4583C170.943 76.6729 193.679 55.1832 224.544 37.7451C232.437 33.2857 239.724 28.713 246.445 24.081C275.852 3.81282 318.258 15.8503 302.674 48.6486C300.445 53.3413 296.842 58.015 292.637 60.9187C270.119 76.4686 246.682 76.98 212.036 102.496C207.12 106.116 203.161 109.869 200.017 113.678C191.411 124.103 180.695 135.583 167.471 134.283Z" fill="url(#paint2_linear_2470_10862)"/>
</g>
<g filter="url(#filter3_n_2470_10862)">
<path d="M170.41 195.545C173.964 150.589 195.775 116.107 270.423 80.7207C303.502 65.0396 323.751 44.5298 335.776 22.925C349.947 -2.53772 397.44 -22.403 416.24 -0.174652C422.702 7.467 425.034 18.1298 421.109 27.384C407.15 60.2878 381.713 88.1398 338.423 119.22C322.98 130.307 254.549 140.767 232.199 193.554C223.872 213.221 200.34 229.132 182.388 218.195C174.628 213.467 169.677 204.814 170.41 195.545Z" fill="url(#paint3_linear_2470_10862)"/>
</g>
</g>
<path d="M287.489 86.5028C324.084 73.736 352.132 72.7598 361.624 86.6141C378.901 111.832 328.156 176.636 248.282 231.358C168.408 286.08 89.6515 309.997 72.3745 284.779C62.8719 270.908 73.9497 245.06 99.1343 215.501C99.7661 218.078 100.411 220.396 101.034 222.441C80.54 246.557 71.4507 266.736 78.6382 277.227C92.9643 298.137 166.523 272.649 242.937 220.298C319.351 167.946 369.684 108.556 355.359 87.6454C347.87 76.7153 324.198 78.4624 292.392 90.0975C290.229 88.3632 288.557 87.1807 287.489 86.5028Z" fill="url(#paint4_linear_2470_10862)"/>
<path d="M63.5079 156.612L64.6763 150.185L55.2063 115.384L24.4585 66.2148L22.8091 69.9521C35.4651 95.8525 54.6221 137.917 63.5079 156.612Z" fill="url(#paint5_linear_2470_10862)"/>
<path d="M140.041 126.816C121.93 135.24 82.5519 149.03 63.5078 156.612L64.676 150.185L100.41 134.656L141.209 121.558L140.041 126.816Z" fill="url(#paint6_linear_2470_10862)"/>
<path d="M24.1463 66.3493C40.3793 95.4265 61.1833 140.269 64.6761 150.185L141.209 121.558C129.394 84.5129 111.997 45.1349 106.674 35.7618L24.1463 66.3493Z" fill="url(#paint7_linear_2470_10862)"/>
<mask id="mask1_2470_10862" style="mask-type:alpha" maskUnits="userSpaceOnUse" x="22" y="32" width="114" height="102">
<path d="M22.9028 61.7606C42.0396 95.6363 53.8208 123.47 57.3192 133.152L135.528 104.855C123.683 68.6866 110.094 41.3285 104.78 32.1704L22.9028 61.7606Z" fill="url(#paint8_linear_2470_10862)"/>
</mask>
<g mask="url(#mask1_2470_10862)">
<g opacity="0.64" filter="url(#filter4_f_2470_10862)">
<path d="M16.1046 66.2644C27.7231 61.3165 61.5443 48.4289 103.881 36.4622C106.077 66.1392 91.5962 113.647 16.1046 66.2644Z" fill="#5C648D" fill-opacity="0.9"/>
</g>
</g>
<path d="M24.5604 66.5644L25.1096 63.1648L68.1921 59.3251L107.324 35.6773C111.998 105.784 57.2908 87.794 24.5604 66.5644Z" fill="url(#paint9_linear_2470_10862)"/>
<path d="M24.923 63.1195C36.1905 58.321 68.3176 45.383 107.325 35.6774C110.002 64.0685 98.1337 109.071 24.923 63.1195Z" fill="url(#paint10_linear_2470_10862)"/>
<path d="M93.3484 114.821C92.986 114.965 92.7328 114.856 92.589 114.493L91.824 112.566C91.3925 111.479 91.2933 110.412 91.5265 109.366C91.7795 108.275 92.1805 107.219 92.7295 106.2C93.2785 105.182 93.8276 104.163 94.3766 103.144C94.9585 102.112 95.3792 101.106 95.6385 100.126C95.8847 99.1133 95.8182 98.1291 95.439 97.1737C95.0467 96.1854 94.3901 95.5879 93.4691 95.3815C92.5811 95.1619 91.4288 95.3333 90.0122 95.8955C88.299 96.5755 87.2699 97.4416 86.9249 98.4938C86.5667 99.5131 86.6918 100.741 87.3001 102.178C87.4701 102.606 87.3739 102.892 87.0115 103.036L82.5639 104.801C82.3333 104.893 82.1424 104.892 81.9913 104.8C81.86 104.661 81.7552 104.493 81.6767 104.295C80.3487 101.238 80.224 98.6175 81.3027 96.4352C82.4012 94.2068 84.7131 92.393 88.2382 90.9938C91.6315 89.6469 94.3773 89.2625 96.4754 89.8408C98.6065 90.4059 100.13 91.8415 101.045 94.1477C101.647 95.6632 101.873 97.0987 101.725 98.4542C101.609 99.7966 101.31 101.06 100.826 102.243C100.329 103.394 99.7901 104.485 99.2081 105.517C98.6591 106.535 98.2123 107.475 97.8677 108.337C97.5561 109.185 97.5211 109.962 97.7628 110.667L98.3709 112.199C98.5147 112.561 98.389 112.821 97.9936 112.977L93.3484 114.821ZM100.371 125.019C99.1517 125.503 98.1181 125.589 97.2698 125.277C96.4414 124.92 95.818 124.214 95.3995 123.16L95.0857 122.369C94.6542 121.282 94.6238 120.34 94.9945 119.545C95.3851 118.704 96.1898 118.041 97.4088 117.557C98.6278 117.073 99.6514 117.01 100.48 117.368C101.295 117.692 101.919 118.398 102.35 119.486L102.664 120.276C103.082 121.33 103.113 122.272 102.755 123.1C102.384 123.896 101.59 124.535 100.371 125.019Z" fill="url(#paint11_linear_2470_10862)"/>
<path d="M359.765 368.382L358.983 364.084L365.317 340.807L385.882 307.921L386.986 310.421C378.521 327.744 365.708 355.878 359.765 368.382Z" fill="url(#paint12_linear_2470_10862)"/>
<path d="M308.577 348.454C320.691 354.087 347.028 363.311 359.766 368.382L358.984 364.084L335.084 353.697L307.796 344.937L308.577 348.454Z" fill="url(#paint13_linear_2470_10862)"/>
<path d="M386.091 308.011C375.234 327.459 361.319 357.451 358.983 364.084L307.795 344.937C315.697 320.159 327.333 293.822 330.893 287.553L386.091 308.011Z" fill="url(#paint14_linear_2470_10862)"/>
<mask id="mask2_2470_10862" style="mask-type:alpha" maskUnits="userSpaceOnUse" x="311" y="285" width="76" height="68">
<path d="M386.923 304.942C374.124 327.599 366.244 346.215 363.904 352.691L311.595 333.765C319.518 309.574 328.606 291.276 332.16 285.151L386.923 304.942Z" fill="url(#paint15_linear_2470_10862)"/>
</mask>
<g mask="url(#mask2_2470_10862)">
<g opacity="0.64" filter="url(#filter5_f_2470_10862)">
<path d="M391.47 307.954C383.699 304.645 361.078 296.025 332.761 288.021C331.292 307.87 340.978 339.646 391.47 307.954Z" fill="#5C648D" fill-opacity="0.9"/>
</g>
</g>
<path d="M385.815 308.155L385.447 305.881L356.632 303.313L330.459 287.496C327.333 334.387 363.923 322.354 385.815 308.155Z" fill="url(#paint16_linear_2470_10862)"/>
<path d="M385.571 305.851C378.035 302.641 356.547 293.988 330.457 287.496C328.667 306.485 336.605 336.585 385.571 305.851Z" fill="url(#paint17_linear_2470_10862)"/>
<path d="M336.574 338.683C336.335 338.577 336.269 338.404 336.375 338.165L336.941 336.892C337.26 336.174 337.726 335.626 338.337 335.246C338.98 334.855 339.675 334.552 340.422 334.337C341.169 334.122 341.916 333.907 342.663 333.692C343.432 333.487 344.112 333.216 344.705 332.88C345.307 332.522 345.748 332.028 346.028 331.397C346.319 330.745 346.297 330.149 345.964 329.61C345.652 329.08 345.028 328.608 344.093 328.192C342.962 327.689 342.063 327.602 341.395 327.93C340.738 328.237 340.207 328.874 339.803 329.841C339.677 330.123 339.495 330.212 339.256 330.105L336.319 328.799C336.167 328.732 336.077 328.64 336.051 328.524C336.056 328.396 336.087 328.266 336.145 328.136C336.989 326.062 338.188 324.771 339.743 324.264C341.329 323.745 343.285 324.003 345.613 325.038C347.853 326.034 349.328 327.172 350.036 328.45C350.765 329.739 350.792 331.145 350.115 332.667C349.67 333.668 349.087 334.451 348.366 335.016C347.668 335.592 346.921 336.041 346.125 336.365C345.34 336.667 344.563 336.921 343.794 337.126C343.047 337.341 342.386 337.568 341.81 337.807C341.257 338.056 340.867 338.404 340.643 338.851L340.193 339.863C340.086 340.102 339.903 340.163 339.642 340.047L336.574 338.683ZM334.977 346.845C334.172 346.487 333.646 346.031 333.397 345.478C333.179 344.912 333.225 344.281 333.535 343.585L333.767 343.063C334.086 342.345 334.524 341.888 335.08 341.693C335.667 341.485 336.363 341.56 337.168 341.918C337.973 342.276 338.484 342.738 338.702 343.303C338.929 343.847 338.883 344.478 338.564 345.196L338.331 345.718C338.022 346.414 337.584 346.871 337.019 347.088C336.463 347.284 335.782 347.203 334.977 346.845Z" fill="url(#paint18_linear_2470_10862)"/>
<g filter="url(#filter6_ii_2470_10862)">
<circle cx="384" cy="178.032" r="15" fill="url(#paint19_linear_2470_10862)"/>
</g>
<circle cx="384" cy="178.032" r="14.75" stroke="white" stroke-opacity="0.2" stroke-width="0.5"/>
<path d="M220.5 79.0316L321 1.03156" stroke="url(#paint20_linear_2470_10862)"/>
<g filter="url(#filter7_f_2470_10862)">
<circle cx="412.5" cy="202.532" r="5.5" fill="white"/>
</g>
<g filter="url(#filter8_f_2470_10862)">
<circle cx="15.5" cy="109.532" r="5.5" fill="white"/>
</g>
<circle cx="125" cy="186.032" r="4" fill="white"/>
<g filter="url(#filter9_f_2470_10862)">
<path d="M375.194 96.111C375.791 97.1224 374.636 98.2587 373.635 97.6449L355.832 86.7328C355.186 86.3368 354.341 86.6787 354.152 87.4128L348.948 107.635C348.656 108.772 347.035 108.759 346.761 107.617L341.889 87.3125C341.712 86.5755 340.873 86.2197 340.22 86.6052L322.241 97.2247C321.23 97.8222 320.094 96.6671 320.707 95.6656L331.619 77.863C332.016 77.2168 331.674 76.3717 330.94 76.1828L310.718 70.9791C309.58 70.6864 309.593 69.0661 310.736 68.792L331.04 63.9197C331.777 63.7428 332.133 62.9034 331.747 62.2508L321.128 44.2722C320.53 43.2608 321.685 42.1245 322.687 42.7384L340.489 53.6504C341.136 54.0465 341.981 53.7045 342.17 52.9704L347.373 32.7485C347.666 31.6109 349.286 31.6242 349.56 32.7664L354.433 53.0707C354.61 53.8077 355.449 54.1635 356.102 53.778L374.08 43.1585C375.092 42.5611 376.228 43.7161 375.614 44.7176L364.702 62.5202C364.306 63.1664 364.648 64.0115 365.382 64.2004L385.604 69.4041C386.741 69.6968 386.728 71.3171 385.586 71.5912L365.282 76.4635C364.545 76.6404 364.189 77.4798 364.574 78.1324L375.194 96.111Z" fill="url(#paint21_linear_2470_10862)"/>
</g>
<g filter="url(#filter10_f_2470_10862)">
<path d="M52.287 320.42C52.7127 321.141 51.8896 321.951 51.1759 321.513L43.4557 316.781C42.9951 316.499 42.3929 316.743 42.2583 317.266L40.0017 326.035C39.793 326.846 38.6384 326.836 38.4431 326.022L36.3301 317.217C36.2041 316.692 35.6059 316.439 35.1408 316.713L27.3443 321.318C26.6235 321.744 25.8137 320.921 26.2512 320.207L30.9833 312.487C31.2655 312.027 31.0218 311.424 30.4987 311.29L21.7293 309.033C20.9186 308.825 20.9281 307.67 21.7421 307.475L30.5472 305.362C31.0724 305.236 31.3259 304.637 31.0512 304.172L26.446 296.376C26.0203 295.655 26.8434 294.845 27.5571 295.283L35.2773 300.015C35.7378 300.297 36.3401 300.053 36.4747 299.53L38.7313 290.761C38.9399 289.95 40.0946 289.96 40.2899 290.774L42.4028 299.579C42.5289 300.104 43.1271 300.357 43.5922 300.083L51.3887 295.478C52.1095 295.052 52.9193 295.875 52.4818 296.589L47.7497 304.309C47.4674 304.769 47.7112 305.372 48.2343 305.506L57.0036 307.763C57.8144 307.971 57.8049 309.126 56.9909 309.321L48.1858 311.434C47.6606 311.56 47.407 312.159 47.6817 312.624L52.287 320.42Z" fill="url(#paint22_linear_2470_10862)"/>
</g>
<defs>
<filter id="filter0_iii_2470_10862" x="63.333" y="59.2187" width="292.98" height="250.145" filterUnits="userSpaceOnUse" color-interpolation-filters="sRGB">
<feFlood flood-opacity="0" result="BackgroundImageFix"/>
<feBlend mode="normal" in="SourceGraphic" in2="BackgroundImageFix" result="shape"/>
<feColorMatrix in="SourceAlpha" type="matrix" values="0 0 0 0 0 0 0 0 0 0 0 0 0 0 0 0 0 0 127 0" result="hardAlpha"/>
<feOffset dx="17.647" dy="-4.81282"/>
<feGaussianBlur stdDeviation="20"/>
<feComposite in2="hardAlpha" operator="arithmetic" k2="-1" k3="1"/>
<feColorMatrix type="matrix" values="0 0 0 0 0.919872 0 0 0 0 1 0 0 0 0 0.759615 0 0 0 0.5 0"/>
<feBlend mode="normal" in2="shape" result="effect1_innerShadow_2470_10862"/>
<feColorMatrix in="SourceAlpha" type="matrix" values="0 0 0 0 0 0 0 0 0 0 0 0 0 0 0 0 0 0 127 0" result="hardAlpha"/>
<feOffset dx="4" dy="2"/>
<feGaussianBlur stdDeviation="2"/>
<feComposite in2="hardAlpha" operator="arithmetic" k2="-1" k3="1"/>
<feColorMatrix type="matrix" values="0 0 0 0 1 0 0 0 0 1 0 0 0 0 1 0 0 0 0.5 0"/>
<feBlend mode="normal" in2="effect1_innerShadow_2470_10862" result="effect2_innerShadow_2470_10862"/>
<feColorMatrix in="SourceAlpha" type="matrix" values="0 0 0 0 0 0 0 0 0 0 0 0 0 0 0 0 0 0 127 0" result="hardAlpha"/>
<feOffset dx="-32" dy="-1"/>
<feGaussianBlur stdDeviation="17.4"/>
<feComposite in2="hardAlpha" operator="arithmetic" k2="-1" k3="1"/>
<feColorMatrix type="matrix" values="0 0 0 0 0.327894 0 0 0 0 0.411867 0 0 0 0 0.831731 0 0 0 0.5 0"/>
<feBlend mode="normal" in2="effect2_innerShadow_2470_10862" result="effect3_innerShadow_2470_10862"/>
</filter>
<filter id="filter1_n_2470_10862" x="233.189" y="138.734" width="126.262" height="118.819" filterUnits="userSpaceOnUse" color-interpolation-filters="sRGB">
<feFlood flood-opacity="0" result="BackgroundImageFix"/>
<feBlend mode="normal" in="SourceGraphic" in2="BackgroundImageFix" result="shape"/>
<feTurbulence type="fractalNoise" baseFrequency="3.1493282318115234 3.1493282318115234" stitchTiles="stitch" numOctaves="3" result="noise" seed="7497" />
<feColorMatrix in="noise" type="luminanceToAlpha" result="alphaNoise" />
<feComponentTransfer in="alphaNoise" result="coloredNoise1">
<feFuncA type="discrete" tableValues="1 1 1 1 1 1 1 1 1 1 1 1 1 1 1 1 1 1 1 1 1 1 1 1 1 1 1 1 1 1 1 1 1 1 1 1 1 1 1 1 1 1 1 1 1 1 1 1 1 1 1 0 0 0 0 0 0 0 0 0 0 0 0 0 0 0 0 0 0 0 0 0 0 0 0 0 0 0 0 0 0 0 0 0 0 0 0 0 0 0 0 0 0 0 0 0 0 0 0 0 "/>
</feComponentTransfer>
<feComposite operator="in" in2="shape" in="coloredNoise1" result="noise1Clipped" />
<feFlood flood-color="rgba(0, 0, 0, 0.25)" result="color1Flood" />
<feComposite operator="in" in2="noise1Clipped" in="color1Flood" result="color1" />
<feMerge result="effect1_noise_2470_10862">
<feMergeNode in="shape" />
<feMergeNode in="color1" />
</feMerge>
</filter>
<filter id="filter2_n_2470_10862" x="149.097" y="14.1538" width="156.917" height="120.23" filterUnits="userSpaceOnUse" color-interpolation-filters="sRGB">
<feFlood flood-opacity="0" result="BackgroundImageFix"/>
<feBlend mode="normal" in="SourceGraphic" in2="BackgroundImageFix" result="shape"/>
<feTurbulence type="fractalNoise" baseFrequency="2.4933412075042725 2.4933412075042725" stitchTiles="stitch" numOctaves="3" result="noise" seed="7704" />
<feColorMatrix in="noise" type="luminanceToAlpha" result="alphaNoise" />
<feComponentTransfer in="alphaNoise" result="coloredNoise1">
<feFuncA type="discrete" tableValues="1 1 1 1 1 1 1 1 1 1 1 1 1 1 1 1 1 1 1 1 1 1 1 1 1 1 1 1 1 1 1 1 1 1 1 1 1 1 1 1 1 1 1 1 1 1 1 1 1 1 1 0 0 0 0 0 0 0 0 0 0 0 0 0 0 0 0 0 0 0 0 0 0 0 0 0 0 0 0 0 0 0 0 0 0 0 0 0 0 0 0 0 0 0 0 0 0 0 0 0 "/>
</feComponentTransfer>
<feComposite operator="in" in2="shape" in="coloredNoise1" result="noise1Clipped" />
<feFlood flood-color="rgba(0, 0, 0, 0.25)" result="color1Flood" />
<feComposite operator="in" in2="noise1Clipped" in="color1Flood" result="color1" />
<feMerge result="effect1_noise_2470_10862">
<feMergeNode in="shape" />
<feMergeNode in="color1" />
</feMerge>
</filter>
<filter id="filter3_n_2470_10862" x="170.338" y="-9.80185" width="252.689" height="231.565" filterUnits="userSpaceOnUse" color-interpolation-filters="sRGB">
<feFlood flood-opacity="0" result="BackgroundImageFix"/>
<feBlend mode="normal" in="SourceGraphic" in2="BackgroundImageFix" result="shape"/>
<feTurbulence type="fractalNoise" baseFrequency="2.4933412075042725 2.4933412075042725" stitchTiles="stitch" numOctaves="3" result="noise" seed="5135" />
<feColorMatrix in="noise" type="luminanceToAlpha" result="alphaNoise" />
<feComponentTransfer in="alphaNoise" result="coloredNoise1">
<feFuncA type="discrete" tableValues="1 1 1 1 1 1 1 1 1 1 1 1 1 1 1 1 1 1 1 1 1 1 1 1 1 1 1 1 1 1 1 1 1 1 1 1 1 1 1 1 1 1 1 1 1 1 1 1 1 1 1 0 0 0 0 0 0 0 0 0 0 0 0 0 0 0 0 0 0 0 0 0 0 0 0 0 0 0 0 0 0 0 0 0 0 0 0 0 0 0 0 0 0 0 0 0 0 0 0 0 "/>
</feComponentTransfer>
<feComposite operator="in" in2="shape" in="coloredNoise1" result="noise1Clipped" />
<feFlood flood-color="rgba(0, 0, 0, 0.25)" result="color1Flood" />
<feComposite operator="in" in2="noise1Clipped" in="color1Flood" result="color1" />
<feMerge result="effect1_noise_2470_10862">
<feMergeNode in="shape" />
<feMergeNode in="color1" />
</feMerge>
</filter>
<filter id="filter4_f_2470_10862" x="8.75099" y="29.1087" width="102.689" height="64.5811" filterUnits="userSpaceOnUse" color-interpolation-filters="sRGB">
<feFlood flood-opacity="0" result="BackgroundImageFix"/>
<feBlend mode="normal" in="SourceGraphic" in2="BackgroundImageFix" result="shape"/>
<feGaussianBlur stdDeviation="3.67675" result="effect1_foregroundBlur_2470_10862"/>
</filter>
<filter id="filter5_f_2470_10862" x="327.705" y="283.103" width="68.6828" height="43.1944" filterUnits="userSpaceOnUse" color-interpolation-filters="sRGB">
<feFlood flood-opacity="0" result="BackgroundImageFix"/>
<feBlend mode="normal" in="SourceGraphic" in2="BackgroundImageFix" result="shape"/>
<feGaussianBlur stdDeviation="2.45915" result="effect1_foregroundBlur_2470_10862"/>
</filter>
<filter id="filter6_ii_2470_10862" x="366" y="159.032" width="35" height="38" filterUnits="userSpaceOnUse" color-interpolation-filters="sRGB">
<feFlood flood-opacity="0" result="BackgroundImageFix"/>
<feBlend mode="normal" in="SourceGraphic" in2="BackgroundImageFix" result="shape"/>
<feColorMatrix in="SourceAlpha" type="matrix" values="0 0 0 0 0 0 0 0 0 0 0 0 0 0 0 0 0 0 127 0" result="hardAlpha"/>
<feOffset dx="2" dy="4"/>
<feGaussianBlur stdDeviation="2"/>
<feComposite in2="hardAlpha" operator="arithmetic" k2="-1" k3="1"/>
<feColorMatrix type="matrix" values="0 0 0 0 0.972549 0 0 0 0 0.847059 0 0 0 0 0.992157 0 0 0 0.3 0"/>
<feBlend mode="normal" in2="shape" result="effect1_innerShadow_2470_10862"/>
<feColorMatrix in="SourceAlpha" type="matrix" values="0 0 0 0 0 0 0 0 0 0 0 0 0 0 0 0 0 0 127 0" result="hardAlpha"/>
<feOffset dx="-3" dy="-4"/>
<feGaussianBlur stdDeviation="2"/>
<feComposite in2="hardAlpha" operator="arithmetic" k2="-1" k3="1"/>
<feColorMatrix type="matrix" values="0 0 0 0 0.972549 0 0 0 0 0.847059 0 0 0 0 0.992157 0 0 0 0.2 0"/>
<feBlend mode="normal" in2="effect1_innerShadow_2470_10862" result="effect2_innerShadow_2470_10862"/>
</filter>
<filter id="filter7_f_2470_10862" x="403" y="193.032" width="19" height="19" filterUnits="userSpaceOnUse" color-interpolation-filters="sRGB">
<feFlood flood-opacity="0" result="BackgroundImageFix"/>
<feBlend mode="normal" in="SourceGraphic" in2="BackgroundImageFix" result="shape"/>
<feGaussianBlur stdDeviation="2" result="effect1_foregroundBlur_2470_10862"/>
</filter>
<filter id="filter8_f_2470_10862" x="6" y="100.032" width="19" height="19" filterUnits="userSpaceOnUse" color-interpolation-filters="sRGB">
<feFlood flood-opacity="0" result="BackgroundImageFix"/>
<feBlend mode="normal" in="SourceGraphic" in2="BackgroundImageFix" result="shape"/>
<feGaussianBlur stdDeviation="2" result="effect1_foregroundBlur_2470_10862"/>
</filter>
<filter id="filter9_f_2470_10862" x="304.96" y="26.9911" width="86.4008" height="86.401" filterUnits="userSpaceOnUse" color-interpolation-filters="sRGB">
<feFlood flood-opacity="0" result="BackgroundImageFix"/>
<feBlend mode="normal" in="SourceGraphic" in2="BackgroundImageFix" result="shape"/>
<feGaussianBlur stdDeviation="2.45567" result="effect1_foregroundBlur_2470_10862"/>
</filter>
<filter id="filter10_f_2470_10862" x="17.6265" y="286.658" width="43.48" height="43.4802" filterUnits="userSpaceOnUse" color-interpolation-filters="sRGB">
<feFlood flood-opacity="0" result="BackgroundImageFix"/>
<feBlend mode="normal" in="SourceGraphic" in2="BackgroundImageFix" result="shape"/>
<feGaussianBlur stdDeviation="1.75" result="effect1_foregroundBlur_2470_10862"/>
</filter>
<linearGradient id="paint0_linear_2470_10862" x1="339" y1="158.532" x2="105.5" y2="208.032" gradientUnits="userSpaceOnUse">
<stop stop-color="#64B8EB"/>
<stop offset="1" stop-color="#82D0FF"/>
</linearGradient>
<linearGradient id="paint1_linear_2470_10862" x1="344.342" y1="111.696" x2="235.536" y2="276.878" gradientUnits="userSpaceOnUse">
<stop stop-color="#439DC7"/>
<stop offset="1" stop-color="#38248E"/>
</linearGradient>
<linearGradient id="paint2_linear_2470_10862" x1="150.965" y1="162.711" x2="321.205" y2="-18.6508" gradientUnits="userSpaceOnUse">
<stop stop-color="#439DC7"/>
<stop offset="1" stop-color="#38248E"/>
</linearGradient>
<linearGradient id="paint3_linear_2470_10862" x1="129.915" y1="224.95" x2="456.469" y2="-6.73794" gradientUnits="userSpaceOnUse">
<stop offset="0.120192" stop-color="#373D99"/>
<stop offset="1" stop-color="#4193C1"/>
</linearGradient>
<linearGradient id="paint4_linear_2470_10862" x1="285.001" y1="354.032" x2="142" y2="162.532" gradientUnits="userSpaceOnUse">
<stop stop-color="#FFF6C5"/>
<stop offset="0.774038" stop-color="#FFE67D"/>
<stop offset="1" stop-color="#212740"/>
</linearGradient>
<linearGradient id="paint5_linear_2470_10862" x1="23.4395" y1="66.0502" x2="68.1802" y2="157.252" gradientUnits="userSpaceOnUse">
<stop stop-color="#C1C8ED"/>
<stop offset="1" stop-color="#7583B9"/>
</linearGradient>
<linearGradient id="paint6_linear_2470_10862" x1="169.252" y1="111.042" x2="62.8314" y2="157.187" gradientUnits="userSpaceOnUse">
<stop stop-color="#677593"/>
<stop offset="1" stop-color="#839DC0"/>
</linearGradient>
<linearGradient id="paint7_linear_2470_10862" x1="31.001" y1="36.0316" x2="120.209" y2="118.888" gradientUnits="userSpaceOnUse">
<stop stop-color="#E4D6F2"/>
<stop offset="1" stop-color="#F7F8FC"/>
</linearGradient>
<linearGradient id="paint8_linear_2470_10862" x1="45.9648" y1="54.1034" x2="117.46" y2="114.485" gradientUnits="userSpaceOnUse">
<stop stop-color="#D6DCF2"/>
<stop offset="1" stop-color="#F7F8FC"/>
</linearGradient>
<linearGradient id="paint9_linear_2470_10862" x1="113.486" y1="44.7389" x2="21.0379" y2="51.1876" gradientUnits="userSpaceOnUse">
<stop stop-color="#A4AED4"/>
<stop offset="0.4375" stop-color="#8B99CA"/>
<stop offset="0.919013" stop-color="#E1E6F7"/>
</linearGradient>
<linearGradient id="paint10_linear_2470_10862" x1="109.902" y1="47.5356" x2="37.0185" y2="68.068" gradientUnits="userSpaceOnUse">
<stop stop-color="#FAFBFD"/>
<stop offset="1" stop-color="#F0F4FD"/>
</linearGradient>
<linearGradient id="paint11_linear_2470_10862" x1="96.0806" y1="73.8871" x2="93.3246" y2="133.665" gradientUnits="userSpaceOnUse">
<stop stop-color="#7A51FF"/>
<stop offset="1" stop-color="#81BDE2"/>
</linearGradient>
<linearGradient id="paint12_linear_2470_10862" x1="386.564" y1="307.811" x2="356.64" y2="368.81" gradientUnits="userSpaceOnUse">
<stop stop-color="#C1C8ED"/>
<stop offset="1" stop-color="#7583B9"/>
</linearGradient>
<linearGradient id="paint13_linear_2470_10862" x1="289.04" y1="337.903" x2="360.218" y2="368.767" gradientUnits="userSpaceOnUse">
<stop stop-color="#677593"/>
<stop offset="1" stop-color="#839DC0"/>
</linearGradient>
<linearGradient id="paint14_linear_2470_10862" x1="381.506" y1="287.733" x2="321.84" y2="343.151" gradientUnits="userSpaceOnUse">
<stop stop-color="#E4D6F2"/>
<stop offset="1" stop-color="#F7F8FC"/>
</linearGradient>
<linearGradient id="paint15_linear_2470_10862" x1="371.498" y1="299.82" x2="323.679" y2="340.206" gradientUnits="userSpaceOnUse">
<stop stop-color="#D6DCF2"/>
<stop offset="1" stop-color="#F7F8FC"/>
</linearGradient>
<linearGradient id="paint16_linear_2470_10862" x1="326.338" y1="293.557" x2="388.171" y2="297.87" gradientUnits="userSpaceOnUse">
<stop stop-color="#A4AED4"/>
<stop offset="0.4375" stop-color="#8B99CA"/>
<stop offset="0.919013" stop-color="#E1E6F7"/>
</linearGradient>
<linearGradient id="paint17_linear_2470_10862" x1="328.734" y1="295.427" x2="377.481" y2="309.16" gradientUnits="userSpaceOnUse">
<stop stop-color="#FAFBFD"/>
<stop offset="1" stop-color="#F0F4FD"/>
</linearGradient>
<linearGradient id="paint18_linear_2470_10862" x1="357.509" y1="320.767" x2="327.517" y2="347.524" gradientUnits="userSpaceOnUse">
<stop stop-color="#7A51FF"/>
<stop offset="1" stop-color="#81BDE2"/>
</linearGradient>
<linearGradient id="paint19_linear_2470_10862" x1="399" y1="193.032" x2="376.5" y2="163.032" gradientUnits="userSpaceOnUse">
<stop stop-color="#6C61DB" stop-opacity="0.5"/>
<stop offset="1" stop-color="#C09DDF"/>
</linearGradient>
<linearGradient id="paint20_linear_2470_10862" x1="270.75" y1="1.03156" x2="270.75" y2="79.0316" gradientUnits="userSpaceOnUse">
<stop stop-color="white" stop-opacity="0"/>
<stop offset="1" stop-color="white"/>
</linearGradient>
<linearGradient id="paint21_linear_2470_10862" x1="337.605" y1="4.47023" x2="352.372" y2="120.454" gradientUnits="userSpaceOnUse">
<stop stop-color="#9CCFFF"/>
<stop offset="1" stop-color="#A7B3FF" stop-opacity="0"/>
</linearGradient>
<linearGradient id="paint22_linear_2470_10862" x1="34.1266" y1="275.775" x2="41.4569" y2="333.348" gradientUnits="userSpaceOnUse">
<stop stop-color="#9CCFFF"/>
<stop offset="1" stop-color="#A7B3FF" stop-opacity="0"/>
</linearGradient>
</defs>
</svg>
