<svg width="16" height="15" viewBox="0 0 16 15" fill="none" xmlns="http://www.w3.org/2000/svg">
<path fill-rule="evenodd" clip-rule="evenodd" d="M7.23362 0.623269C7.52228 -0.0496463 8.47635 -0.0494602 8.7652 0.623269L10.3668 4.36269C10.451 4.55936 10.608 4.71617 10.8046 4.80052L14.544 6.40208C15.2173 6.69071 15.2173 7.64502 14.544 7.93365L10.8046 9.53522C10.6079 9.61951 10.451 9.77637 10.3668 9.97304L8.7652 13.7125L8.70416 13.8305C8.38341 14.3466 7.61541 14.3466 7.29466 13.8305L7.23362 13.7125L5.63206 9.97304C5.55824 9.80097 5.4288 9.65931 5.26585 9.57021L5.19423 9.53522L1.45481 7.93365C0.782082 7.64481 0.781898 6.69074 1.45481 6.40208L5.19423 4.80052C5.39106 4.71622 5.54776 4.55951 5.63206 4.36269L7.23362 0.623269ZM6.78115 4.85504C6.57041 5.34696 6.1785 5.73887 5.68658 5.9496L2.84153 7.16787L5.68658 8.38613C6.17835 8.5968 6.57036 8.98899 6.78115 9.48069L7.99941 12.3249L9.21767 9.48069L9.30475 9.30165C9.52763 8.89406 9.88173 8.5706 10.3122 8.38613L13.1565 7.16787L10.3122 5.9496C9.82053 5.73882 9.42834 5.34681 9.21767 4.85504L7.99941 2.00999L6.78115 4.85504Z" fill="white"/>
</svg>
