<svg width="298" height="274" viewBox="0 0 298 274" fill="none" xmlns="http://www.w3.org/2000/svg">
<g clip-path="url(#clip0_2719_20087)">
<path d="M0.712076 19.1249L0.606622 19.2835L0.789924 19.3352L0.607204 19.3889L0.714403 19.5463L0.539914 19.47L0.52085 19.6595L0.436237 19.4889L0.299831 19.6218L0.344685 19.4367L0.154762 19.4508L0.308096 19.3379L0.153524 19.2266L0.343591 19.2386L0.296695 19.054L0.434561 19.1854L0.517285 19.0139L0.53844 19.2032L0.712076 19.1249Z" fill="white"/>
<path d="M63.4838 37.9531L63.3784 38.1116L63.5617 38.1633L63.3789 38.217L63.4861 38.3744L63.3116 38.2981L63.2926 38.4876L63.208 38.317L63.0716 38.4499L63.1164 38.2648L62.9265 38.2789L63.0798 38.166L62.9253 38.0547L63.1153 38.0668L63.0684 37.8822L63.2063 38.0136L63.289 37.842L63.3102 38.0313L63.4838 37.9531Z" fill="white"/>
<path d="M25.1147 59.5937L25.0092 59.7523L25.1925 59.8039L25.0098 59.8576L25.117 60.0151L24.9425 59.9387L24.9234 60.1282L24.8388 59.9576L24.7024 60.0905L24.7473 59.9054L24.5574 59.9196L24.7107 59.8066L24.5561 59.6953L24.7462 59.7074L24.6993 59.5228L24.8371 59.6542L24.9199 59.4826L24.941 59.6719L25.1147 59.5937Z" fill="white"/>
<path d="M31.0163 25.164L30.9108 25.3226L31.0941 25.3743L30.9114 25.428L31.0186 25.5854L30.8441 25.5091L30.825 25.6985L30.7404 25.5279L30.604 25.6608L30.6489 25.4757L30.459 25.4899L30.6123 25.3769L30.4577 25.2657L30.6478 25.2777L30.6009 25.0931L30.7388 25.2245L30.8215 25.053L30.8426 25.2422L31.0163 25.164Z" fill="white"/>
<path d="M12.9794 33.3593L12.874 33.5179L13.0573 33.5696L12.8745 33.6233L12.9817 33.7807L12.8072 33.7044L12.7882 33.8939L12.7036 33.7232L12.5672 33.8561L12.612 33.6711L12.4221 33.6852L12.5754 33.5722L12.4209 33.461L12.6109 33.473L12.564 33.2884L12.7019 33.4198L12.7846 33.2483L12.8058 33.4375L12.9794 33.3593Z" fill="white"/>
<path d="M127.104 54.0234L126.999 54.182L127.182 54.2336L127 54.2873L127.107 54.4447L126.932 54.3684L126.913 54.5579L126.829 54.3873L126.692 54.5202L126.737 54.3351L126.547 54.3492L126.7 54.2363L126.546 54.125L126.736 54.1371L126.689 53.9525L126.827 54.0839L126.91 53.9123L126.931 54.1016L127.104 54.0234Z" fill="white"/>
<path d="M69.7135 19.9218L69.6081 20.0804L69.7914 20.1321L69.6087 20.1858L69.7159 20.3432L69.5414 20.2669L69.5223 20.4564L69.4377 20.2857L69.3013 20.4186L69.3461 20.2336L69.1562 20.2477L69.3096 20.1347L69.155 20.0235L69.3451 20.0355L69.2982 19.8509L69.436 19.9823L69.5187 19.8108L69.5399 20L69.7135 19.9218Z" fill="white"/>
<path d="M208.761 38.9374L208.656 39.096L208.839 39.1477L208.657 39.2014L208.764 39.3588L208.589 39.2825L208.57 39.472L208.486 39.3014L208.349 39.4343L208.394 39.2492L208.204 39.2633L208.357 39.1504L208.203 39.0391L208.393 39.0511L208.346 38.8665L208.484 38.9979L208.567 38.8264L208.588 39.0157L208.761 38.9374Z" fill="white"/>
<path d="M132.68 92.7187L132.574 92.8773L132.757 92.9289L132.575 92.9826L132.682 93.1401L132.507 93.0637L132.488 93.2532L132.404 93.0826L132.267 93.2155L132.312 93.0304L132.122 93.0446L132.276 92.9316L132.121 92.8203L132.311 92.8324L132.264 92.6478L132.402 92.7792L132.485 92.6076L132.506 92.7969L132.68 92.7187Z" fill="white"/>
<path d="M69.3874 66.8124L69.2819 66.971L69.4652 67.0227L69.2825 67.0764L69.3897 67.2338L69.2152 67.1575L69.1961 67.347L69.1115 67.1764L68.9751 67.3093L69.02 67.1242L68.8301 67.1383L68.9834 67.0254L68.8288 66.9141L69.0189 66.9261L68.972 66.7415L69.1099 66.8729L69.1926 66.7014L69.2137 66.8907L69.3874 66.8124Z" fill="white"/>
<path d="M66.7638 117.641L66.6584 117.799L66.8417 117.851L66.659 117.905L66.7662 118.062L66.5917 117.986L66.5726 118.175L66.488 118.004L66.3516 118.137L66.3964 117.952L66.2065 117.966L66.3599 117.853L66.2053 117.742L66.3953 117.754L66.3485 117.57L66.4863 117.701L66.569 117.53L66.5902 117.719L66.7638 117.641Z" fill="white"/>
<path d="M262.872 113.047L262.767 113.205L262.95 113.257L262.768 113.311L262.875 113.468L262.7 113.392L262.681 113.581L262.597 113.411L262.46 113.544L262.505 113.359L262.315 113.373L262.468 113.26L262.314 113.148L262.504 113.161L262.457 112.976L262.595 113.107L262.678 112.936L262.699 113.125L262.872 113.047Z" fill="white"/>
<path d="M199.252 273.75L199.146 273.909L199.33 273.96L199.147 274.014L199.254 274.171L199.08 274.095L199.061 274.284L198.976 274.114L198.84 274.247L198.884 274.062L198.695 274.076L198.848 273.963L198.693 273.852L198.883 273.864L198.836 273.679L198.974 273.81L199.057 273.639L199.078 273.828L199.252 273.75Z" fill="white"/>
<path d="M256.971 149.453L256.865 149.612L257.049 149.663L256.866 149.717L256.973 149.874L256.799 149.798L256.78 149.988L256.695 149.817L256.559 149.95L256.603 149.765L256.414 149.779L256.567 149.666L256.412 149.555L256.602 149.567L256.555 149.382L256.693 149.514L256.776 149.342L256.797 149.531L256.971 149.453Z" fill="white"/>
<path d="M167.769 123.547L167.664 123.705L167.847 123.757L167.664 123.811L167.771 123.968L167.597 123.892L167.578 124.081L167.493 123.911L167.357 124.044L167.402 123.859L167.212 123.873L167.365 123.76L167.21 123.648L167.4 123.661L167.354 123.476L167.491 123.607L167.574 123.436L167.595 123.625L167.769 123.547Z" fill="white"/>
<path d="M99.2292 247.508L99.1237 247.666L99.307 247.718L99.1243 247.772L99.2315 247.929L99.057 247.853L99.0379 248.042L98.9533 247.872L98.8169 248.005L98.8618 247.819L98.6719 247.834L98.8252 247.721L98.6706 247.609L98.8607 247.621L98.8138 247.437L98.9517 247.568L99.0344 247.397L99.0555 247.586L99.2292 247.508Z" fill="white"/>
<path d="M19.5392 210.125L19.4338 210.284L19.6171 210.335L19.4344 210.389L19.5416 210.546L19.3671 210.47L19.348 210.659L19.2634 210.489L19.127 210.622L19.1718 210.437L18.9819 210.451L19.1352 210.338L18.9807 210.227L19.1707 210.239L19.1238 210.054L19.2617 210.185L19.3444 210.014L19.3656 210.203L19.5392 210.125Z" fill="white"/>
<path d="M20.5238 96.3281L20.4184 96.4866L20.6017 96.5383L20.419 96.592L20.5262 96.7494L20.3517 96.6731L20.3326 96.8626L20.248 96.692L20.1116 96.8249L20.1565 96.6398L19.9665 96.6539L20.1199 96.541L19.9653 96.4297L20.1554 96.4418L20.1085 96.2572L20.2463 96.3886L20.3291 96.217L20.3502 96.4063L20.5238 96.3281Z" fill="white"/>
<path d="M126.12 107.148L126.014 107.307L126.198 107.359L126.015 107.412L126.122 107.57L125.948 107.493L125.929 107.683L125.844 107.512L125.708 107.645L125.752 107.46L125.562 107.474L125.716 107.361L125.561 107.25L125.751 107.262L125.704 107.077L125.842 107.209L125.925 107.037L125.946 107.227L126.12 107.148Z" fill="white"/>
<path d="M276.319 185.203L276.213 185.362L276.396 185.413L276.214 185.467L276.321 185.624L276.146 185.548L276.127 185.738L276.043 185.567L275.906 185.7L275.951 185.515L275.761 185.529L275.915 185.416L275.76 185.305L275.95 185.317L275.903 185.132L276.041 185.264L276.124 185.092L276.145 185.281L276.319 185.203Z" fill="white"/>
<path d="M232.702 225.531L232.597 225.69L232.78 225.741L232.597 225.795L232.704 225.953L232.53 225.876L232.511 226.066L232.426 225.895L232.29 226.028L232.335 225.843L232.145 225.857L232.298 225.744L232.144 225.633L232.334 225.645L232.287 225.46L232.425 225.592L232.507 225.42L232.528 225.609L232.702 225.531Z" fill="white"/>
<path d="M172.36 134.367L172.255 134.526L172.438 134.577L172.255 134.631L172.362 134.788L172.188 134.712L172.169 134.902L172.084 134.731L171.948 134.864L171.993 134.679L171.803 134.693L171.956 134.58L171.801 134.469L171.992 134.481L171.945 134.296L172.083 134.428L172.165 134.256L172.186 134.445L172.36 134.367Z" fill="white"/>
<path d="M243.525 75.0077L243.419 75.1663L243.602 75.218L243.42 75.2717L243.527 75.4291L243.352 75.3528L243.333 75.5423L243.249 75.3717L243.112 75.5046L243.157 75.3195L242.967 75.3336L243.121 75.2207L242.966 75.1094L243.156 75.1214L243.109 74.9369L243.247 75.0682L243.33 74.8967L243.351 75.086L243.525 75.0077Z" fill="white"/>
<path d="M32.0007 243.906L31.8952 244.065L32.0785 244.116L31.8958 244.17L32.003 244.328L31.8285 244.251L31.8094 244.441L31.7248 244.27L31.5884 244.403L31.6333 244.218L31.4433 244.232L31.5967 244.119L31.4421 244.008L31.6322 244.02L31.5853 243.835L31.7231 243.967L31.8059 243.795L31.827 243.984L32.0007 243.906Z" fill="white"/>
<path d="M24.13 144.859L24.0246 145.018L24.2079 145.07L24.0252 145.123L24.1324 145.281L23.9579 145.204L23.9388 145.394L23.8542 145.223L23.7178 145.356L23.7627 145.171L23.5727 145.185L23.7261 145.072L23.5715 144.961L23.7616 144.973L23.7147 144.788L23.8525 144.92L23.9353 144.748L23.9564 144.938L24.13 144.859Z" fill="white"/>
<path d="M204.827 141.25L204.722 141.409L204.905 141.46L204.722 141.514L204.83 141.671L204.655 141.595L204.636 141.784L204.551 141.614L204.415 141.747L204.46 141.562L204.27 141.576L204.423 141.463L204.269 141.352L204.459 141.364L204.412 141.179L204.55 141.31L204.633 141.139L204.654 141.328L204.827 141.25Z" fill="white"/>
<path d="M152.356 188.484L152.25 188.643L152.433 188.695L152.251 188.748L152.358 188.906L152.183 188.829L152.164 189.019L152.08 188.848L151.943 188.981L151.988 188.796L151.798 188.81L151.952 188.697L151.797 188.586L151.987 188.598L151.94 188.413L152.078 188.545L152.161 188.373L152.182 188.563L152.356 188.484Z" fill="white"/>
<path d="M187.331 211.031L187.12 211.349L187.487 211.452L187.121 211.56L187.336 211.875L186.986 211.722L186.948 212.101L186.779 211.76L186.506 212.026L186.596 211.655L186.216 211.683L186.522 211.457L186.213 211.235L186.594 211.259L186.5 210.89L186.776 211.152L186.941 210.809L186.983 211.188L187.331 211.031Z" fill="white"/>
<path d="M106.173 155.281L105.962 155.599L106.329 155.702L105.963 155.81L106.178 156.125L105.829 155.972L105.791 156.351L105.621 156.01L105.348 156.276L105.438 155.905L105.058 155.933L105.365 155.707L105.055 155.485L105.436 155.509L105.342 155.14L105.618 155.402L105.783 155.059L105.826 155.438L106.173 155.281Z" fill="white"/>
<path d="M225.872 19.5157L225.661 19.8331L226.028 19.9365L225.662 20.0439L225.877 20.3589L225.527 20.2062L225.489 20.5854L225.32 20.244L225.047 20.5099L225.137 20.1395L224.757 20.1678L225.064 19.9418L224.754 19.7192L225.135 19.7432L225.041 19.3739L225.317 19.6368L225.482 19.2936L225.524 19.6723L225.872 19.5157Z" fill="white"/>
<path d="M154.38 20.4923L154.169 20.8096L154.536 20.913L154.171 21.0205L154.385 21.3355L154.036 21.1828L153.998 21.5619L153.828 21.2205L153.556 21.4865L153.645 21.1161L153.265 21.1444L153.572 20.9184L153.263 20.6957L153.643 20.7198L153.549 20.3505L153.825 20.6134L153.991 20.2701L154.033 20.6488L154.38 20.4923Z" fill="white"/>
<path d="M294.085 212.016L293.874 212.333L294.241 212.436L293.875 212.544L294.089 212.859L293.74 212.706L293.702 213.085L293.533 212.744L293.26 213.01L293.35 212.64L292.97 212.668L293.276 212.442L292.967 212.219L293.347 212.243L293.254 211.874L293.529 212.137L293.695 211.794L293.737 212.172L294.085 212.016Z" fill="white"/>
<path d="M65.1805 204.141L64.9695 204.458L65.3362 204.561L64.9706 204.669L65.1851 204.984L64.836 204.831L64.7978 205.21L64.6285 204.869L64.3556 205.135L64.4453 204.765L64.0653 204.793L64.3721 204.567L64.0628 204.344L64.4431 204.368L64.3493 203.999L64.6252 204.262L64.7907 203.919L64.833 204.297L65.1805 204.141Z" fill="white"/>
<path d="M18.2842 184.797L18.0732 185.114L18.44 185.218L18.0744 185.325L18.2889 185.64L17.9397 185.487L17.9016 185.867L17.7323 185.525L17.4593 185.791L17.5491 185.421L17.169 185.449L17.4759 185.223L17.1666 185L17.5469 185.024L17.4531 184.655L17.7289 184.918L17.8944 184.575L17.9368 184.954L18.2842 184.797Z" fill="white"/>
<path d="M2.2144 108.383L2.00339 108.7L2.37018 108.804L2.00456 108.911L2.21906 109.226L1.86991 109.073L1.83176 109.453L1.66245 109.111L1.3895 109.377L1.47925 109.007L1.09922 109.035L1.40604 108.809L1.09674 108.586L1.47706 108.61L1.38323 108.241L1.6591 108.504L1.82463 108.161L1.86696 108.539L2.2144 108.383Z" fill="white"/>
<path d="M233.712 1.33817L233.481 1.33118L233.652 1.57479L233.407 1.40635L233.417 1.63875L233.274 1.38769L233.118 1.50014L233.143 1.28391L232.895 1.2238L233.077 1.14359L232.852 0.939043L233.105 1.03238L233.009 0.779104L233.216 1.00232L233.293 0.818821L233.356 1.06746L233.571 1.03961L233.461 1.19734L233.712 1.33817Z" fill="white"/>
<path d="M294.217 84.5647L293.986 84.5577L294.156 84.8013L293.912 84.6329L293.922 84.8653L293.778 84.6142L293.623 84.7267L293.648 84.5105L293.4 84.4504L293.581 84.3702L293.357 84.1656L293.61 84.2589L293.514 84.0057L293.72 84.2289L293.798 84.0454L293.861 84.294L294.075 84.2662L293.965 84.4239L294.217 84.5647Z" fill="white"/>
<path d="M273.153 118.229L272.921 118.222L273.092 118.465L272.848 118.297L272.857 118.529L272.714 118.278L272.559 118.391L272.584 118.175L272.336 118.114L272.517 118.034L272.293 117.83L272.546 117.923L272.45 117.67L272.656 117.893L272.734 117.709L272.796 117.958L273.011 117.93L272.901 118.088L273.153 118.229Z" fill="white"/>
<path d="M219.974 28.4085L219.743 28.4015L219.913 28.6451L219.669 28.4767L219.679 28.7091L219.535 28.458L219.38 28.5705L219.405 28.3542L219.157 28.2941L219.339 28.2139L219.114 28.0094L219.367 28.1027L219.271 27.8494L219.477 28.0726L219.555 27.8891L219.618 28.1378L219.832 28.1099L219.723 28.2677L219.974 28.4085Z" fill="white"/>
<path d="M181.067 61.385L180.836 61.3781L181.006 61.6217L180.762 61.4532L180.772 61.6856L180.629 61.4346L180.473 61.547L180.498 61.3308L180.25 61.2707L180.432 61.1905L180.207 60.9859L180.46 61.0793L180.364 60.826L180.57 61.0492L180.648 60.8657L180.711 61.1143L180.925 61.0865L180.816 61.2442L181.067 61.385Z" fill="white"/>
<path d="M290.994 179.666L290.762 179.659L290.933 179.903L290.688 179.734L290.698 179.967L290.555 179.716L290.4 179.828L290.425 179.612L290.177 179.552L290.358 179.472L290.134 179.267L290.387 179.361L290.291 179.107L290.497 179.33L290.574 179.147L290.637 179.396L290.852 179.368L290.742 179.525L290.994 179.666Z" fill="white"/>
<path d="M125.913 189.893L125.682 189.886L125.852 190.129L125.608 189.961L125.618 190.193L125.475 189.942L125.319 190.055L125.344 189.839L125.096 189.778L125.278 189.698L125.053 189.494L125.306 189.587L125.21 189.334L125.417 189.557L125.494 189.374L125.557 189.622L125.772 189.594L125.662 189.752L125.913 189.893Z" fill="white"/>
<path d="M62.3285 73.4319L62.0972 73.4249L62.2677 73.6685L62.0233 73.5001L62.0331 73.7325L61.89 73.4814L61.7345 73.5939L61.7595 73.3777L61.5115 73.3176L61.693 73.2373L61.4685 73.0328L61.7216 73.1261L61.6256 72.8729L61.8318 73.0961L61.9094 72.9126L61.9722 73.1612L62.1869 73.1334L62.077 73.2911L62.3285 73.4319Z" fill="white"/>
<path d="M255.54 121.018L255.309 121.011L255.48 121.254L255.235 121.086L255.245 121.318L255.102 121.067L254.946 121.18L254.971 120.964L254.723 120.903L254.905 120.823L254.68 120.619L254.933 120.712L254.838 120.459L255.044 120.682L255.121 120.499L255.184 120.747L255.399 120.719L255.289 120.877L255.54 121.018Z" fill="white"/>
<path d="M288.526 192.502L288.295 192.495L288.466 192.739L288.221 192.57L288.231 192.803L288.088 192.552L287.932 192.664L287.958 192.448L287.709 192.388L287.891 192.308L287.666 192.103L287.92 192.196L287.824 191.943L288.03 192.166L288.107 191.983L288.17 192.232L288.385 192.204L288.275 192.361L288.526 192.502Z" fill="white"/>
<path d="M52.5206 111.401L52.2893 111.394L52.4599 111.637L52.2155 111.469L52.2253 111.701L52.0821 111.45L51.9266 111.563L51.9517 111.346L51.7036 111.286L51.8851 111.206L51.6606 111.002L51.9137 111.095L51.8178 110.842L52.024 111.065L52.1015 110.881L52.1643 111.13L52.3791 111.102L52.2691 111.26L52.5206 111.401Z" fill="white"/>
<path d="M113.661 32.4788L113.43 32.4718L113.6 32.7154L113.356 32.547L113.366 32.7794L113.223 32.5283L113.067 32.6408L113.092 32.4245L112.844 32.3644L113.026 32.2842L112.801 32.0797L113.054 32.173L112.958 31.9197L113.164 32.1429L113.242 31.9594L113.305 32.2081L113.519 32.1802L113.41 32.338L113.661 32.4788Z" fill="white"/>
<path d="M227.667 208.166L227.436 208.159L227.607 208.403L227.362 208.234L227.372 208.467L227.229 208.216L227.073 208.328L227.098 208.112L226.85 208.052L227.032 207.972L226.807 207.767L227.06 207.861L226.964 207.607L227.171 207.83L227.248 207.647L227.311 207.896L227.526 207.868L227.416 208.025L227.667 208.166Z" fill="white"/>
<path d="M251.23 263.622L250.767 263.608L251.108 264.096L250.619 263.759L250.639 264.224L250.352 263.721L250.041 263.946L250.091 263.514L249.595 263.393L249.958 263.233L249.509 262.823L250.015 263.01L249.823 262.503L250.236 262.95L250.391 262.583L250.517 263.08L250.946 263.025L250.726 263.34L251.23 263.622Z" fill="white"/>
<path d="M198.973 132.52L198.51 132.507L198.851 132.994L198.362 132.657L198.382 133.122L198.095 132.62L197.784 132.845L197.834 132.412L197.338 132.292L197.701 132.131L197.252 131.722L197.758 131.909L197.566 131.402L197.979 131.848L198.134 131.481L198.26 131.979L198.689 131.923L198.469 132.239L198.973 132.52Z" fill="white"/>
<path d="M118.115 120.763L117.652 120.749L117.993 121.236L117.504 120.899L117.524 121.364L117.237 120.862L116.926 121.087L116.976 120.654L116.48 120.534L116.843 120.373L116.394 119.964L116.9 120.151L116.708 119.644L117.121 120.091L117.276 119.723L117.402 120.221L117.832 120.165L117.612 120.481L118.115 120.763Z" fill="white"/>
<path d="M32.6116 181.817L32.1488 181.803L32.49 182.291L32.001 181.954L32.0206 182.419L31.7342 181.916L31.423 182.141L31.4731 181.709L30.9768 181.589L31.34 181.428L30.8907 181.019L31.3972 181.205L31.2052 180.699L31.6178 181.145L31.773 180.778L31.8987 181.276L32.3284 181.22L32.1084 181.536L32.6116 181.817Z" fill="white"/>
<path d="M78.8213 54.1064L78.3586 54.0925L78.6998 54.5799L78.2108 54.2429L78.2303 54.7079L77.9439 54.2055L77.6327 54.4305L77.6829 53.9979L77.1865 53.8776L77.5498 53.7171L77.1005 53.3078L77.6069 53.4946L77.4149 52.9878L77.8275 53.4344L77.9827 53.0672L78.1084 53.5648L78.5381 53.509L78.3181 53.8247L78.8213 54.1064Z" fill="white"/>
<path d="M2.16408 122.614L1.70132 122.6L2.04254 123.088L1.55354 122.751L1.57312 123.216L1.28669 122.713L0.97548 122.938L1.02563 122.506L0.529254 122.385L0.892529 122.225L0.443237 121.816L0.949654 122.002L0.757679 121.496L1.17028 121.942L1.32545 121.575L1.45117 122.073L1.88088 122.017L1.6609 122.332L2.16408 122.614Z" fill="white"/>
<path d="M248.827 84.7383C249.482 85.8464 248.216 87.0914 247.119 86.4188L232.443 77.4233C231.735 76.9893 230.809 77.364 230.602 78.1682L226.312 94.8385C225.992 96.0849 224.217 96.0704 223.916 94.8189L219.9 78.0807C219.706 77.2732 218.786 76.8835 218.071 77.3058L203.25 86.0602C202.142 86.7147 200.897 85.4492 201.57 84.352L210.565 69.6761C210.999 68.9682 210.625 68.0422 209.82 67.8353L193.15 63.5456C191.904 63.2249 191.918 61.4497 193.17 61.1494L209.908 57.1328C210.715 56.9391 211.105 56.0194 210.683 55.3044L201.928 40.4835C201.274 39.3754 202.539 38.1304 203.637 38.803L218.313 47.7985C219.021 48.2325 219.946 47.8578 220.153 47.0536L224.443 30.3833C224.764 29.1369 226.539 29.1514 226.839 30.4029L230.856 47.1411C231.05 47.9485 231.969 48.3383 232.684 47.916L247.505 39.1616C248.613 38.5071 249.858 39.7725 249.186 40.8698L240.19 55.5456C239.756 56.2536 240.131 57.1795 240.935 57.3865L257.605 61.6762C258.852 61.9969 258.837 63.772 257.586 64.0723L240.848 68.0889C240.04 68.2827 239.65 69.2024 240.073 69.9173L248.827 84.7383Z" fill="url(#paint0_linear_2719_20087)"/>
<path d="M56.3296 255.237C57.118 256.572 55.5938 258.071 54.2722 257.261L36.5959 246.427C35.7431 245.904 34.6279 246.355 34.3787 247.324L29.2119 267.402C28.8256 268.904 26.6876 268.886 26.3259 267.379L21.4881 247.218C21.2547 246.246 20.147 245.776 19.2858 246.285L1.43471 256.829C0.100064 257.618 -1.39942 256.094 -0.589354 254.772L10.2453 237.096C10.768 236.243 10.3167 235.128 9.34809 234.878L-10.7305 229.712C-12.2317 229.325 -12.2142 227.187 -10.7069 226.826L9.45347 221.988C10.426 221.754 10.8955 220.647 10.3868 219.786L-0.157419 201.934C-0.945763 200.6 0.578423 199.1 1.90001 199.91L19.5764 210.745C20.4291 211.268 21.5443 210.816 21.7936 209.848L26.9603 189.769C27.3466 188.268 29.4847 188.286 29.8464 189.793L34.6842 209.953C34.9175 210.926 36.0252 211.395 36.8864 210.887L54.7375 200.342C56.0722 199.554 57.5716 201.078 56.7616 202.4L45.9269 220.076C45.4042 220.929 45.8555 222.044 46.8241 222.293L66.9027 227.46C68.4039 227.846 68.3864 229.984 66.8791 230.346L46.7188 235.184C45.7462 235.417 45.2767 236.525 45.7854 237.386L56.3296 255.237Z" fill="url(#paint1_linear_2719_20087)"/>
<g clip-path="url(#clip1_2719_20087)" filter="url(#filter0_i_2719_20087)">
<g filter="url(#filter1_ii_2719_20087)">
<path d="M127.119 76.1963C127.392 74.6516 128.902 73.6753 130.431 74.0234C144.185 77.1556 150.487 83.0834 152.833 87.5088C153.715 89.1734 152.187 90.7284 150.303 90.7617C147.774 90.8058 145.682 91.2657 144.081 91.8438C146.155 94.1462 150.673 99.8797 154.116 106.415C156.496 104.044 159.448 101.84 162.732 100.234C165.926 98.5669 169.558 97.624 173.411 97.624C184.31 97.6241 193.445 105.17 195.88 115.322C204.795 118.526 211.171 127.054 211.171 137.072C211.171 142.98 208.952 148.368 205.305 152.453C204.869 153.049 204.403 153.649 203.907 154.255C204.234 155.802 204.408 157.406 204.408 159.051C204.408 171.812 194.062 182.158 181.301 182.158C180.42 182.158 179.552 182.107 178.697 182.011C174.362 188.528 166.675 192.863 157.912 192.863C152.37 192.863 147.257 191.129 143.151 188.206C139.579 190.443 135.369 191.737 130.86 191.737C119.037 191.737 109.264 182.858 107.693 171.329C98.9467 167.885 92.8182 159.9 92.8181 150.598C92.8181 142.042 98.0015 134.598 105.638 130.779C105.571 130.067 105.535 129.345 105.535 128.615C105.535 115.542 116.637 104.945 130.333 104.945C134.444 104.945 138.322 105.901 141.736 107.592C142.217 107.76 142.704 107.937 143.198 108.124C141.766 104.209 139.698 99.1371 137.419 95.0078C135.459 95.9938 133.814 97.1581 132.486 98.3125C130.646 99.9115 127.355 99.5243 126.88 97.1338C125.44 89.8953 126.175 81.5429 127.119 76.1963Z" fill="#FECA7A"/>
</g>
<g filter="url(#filter2_g_2719_20087)">
<ellipse cx="145.787" cy="140.897" rx="12.6835" ry="11.2194" transform="rotate(-8.01099 145.787 140.897)" fill="white"/>
</g>
<g filter="url(#filter3_g_2719_20087)">
<ellipse cx="146.422" cy="140.675" rx="8.59644" ry="7.84815" transform="rotate(-8.01099 146.422 140.675)" fill="black"/>
</g>
<g filter="url(#filter4_g_2719_20087)">
<ellipse cx="180.746" cy="137.233" rx="11.452" ry="11.2194" transform="rotate(-8.01099 180.746 137.233)" fill="white"/>
</g>
<ellipse cx="164.448" cy="146.596" rx="3.67333" ry="2.93866" transform="rotate(-4.24128 164.448 146.596)" fill="#FF581D"/>
<path d="M159.864 151.148L160.353 151.827C161.16 152.947 162.604 153.41 163.912 152.967V152.967" stroke="#852A0A" stroke-width="1.17547" stroke-linecap="round"/>
<g filter="url(#filter5_g_2719_20087)">
<ellipse cx="180.806" cy="136.934" rx="8.4503" ry="7.95515" transform="rotate(-8.01099 180.806 136.934)" fill="black"/>
</g>
<g filter="url(#filter6_n_2719_20087)">
<ellipse cx="145" cy="133.699" rx="85.6589" ry="76.3811" transform="rotate(-9.30433 145 133.699)" fill="url(#paint2_linear_2719_20087)" fill-opacity="0.9"/>
<path d="M132.758 58.9751C179.155 51.3738 222.129 78.7562 228.879 119.956C235.629 161.157 203.64 200.82 157.242 208.422C110.845 216.024 67.8705 188.641 61.1205 147.441C54.3706 106.241 86.3604 66.5766 132.758 58.9751Z" stroke="url(#paint3_linear_2719_20087)" stroke-width="1.3224"/>
</g>
<g filter="url(#filter7_ii_2719_20087)">
<path d="M136.964 219.034L131.569 211.125C130.303 209.268 130.984 206.717 133.05 205.833C152.948 197.313 176.502 194.724 188.355 194.378C190.486 194.316 192.123 196.154 191.93 198.277L191.145 206.929C190.992 208.607 189.716 209.964 188.054 210.236C165.339 213.944 148.671 218.461 140.876 220.51C139.389 220.901 137.831 220.304 136.964 219.034Z" fill="#C57C42"/>
</g>
<circle cx="162.948" cy="205.247" r="2.57133" transform="rotate(-0.252845 162.948 205.247)" fill="#F3F5C0"/>
<circle cx="146.802" cy="208.99" r="2.57133" transform="rotate(-0.252845 146.802 208.99)" fill="#F3F5C0"/>
<circle cx="179.1" cy="202.974" r="2.57133" transform="rotate(-0.252845 179.1 202.974)" fill="#F3F5C0"/>
<path opacity="0.8" d="M101.736 95.7214L87.4717 117.361C84.3667 122.071 78.5428 127.293 74.2192 123.669C71.5522 121.433 71.5397 117.187 72.1723 114.414C73.5396 109.474 79.2514 97.4446 91.1599 88.854C98.3333 83.6793 101.944 84.0084 103.584 86.042C105.815 88.8085 103.693 92.7539 101.736 95.7214Z" fill="url(#paint4_linear_2719_20087)"/>
<path opacity="0.89" d="M70.6374 130.358C77.6694 125.625 78.0099 136.202 77.3012 142.083C76.4338 145.319 72.5318 143.451 70.6893 142.112C67.742 140.166 63.6054 135.091 70.6374 130.358Z" fill="url(#paint5_linear_2719_20087)"/>
<g filter="url(#filter8_iii_2719_20087)">
<path d="M242.768 134.654C241.807 132.584 237.442 128.171 235.379 126.223L226.133 123.588C225.303 123.351 220.828 122.756 218.694 122.488C217.473 122.956 214.672 123.933 213.238 124.095C211.446 124.298 209.749 125.241 209.277 125.106C208.9 124.999 203.102 125.659 200.249 126.003C199.504 125.994 197.668 126.042 196.288 126.301C194.563 126.626 193.298 128.203 198.84 134.883C199.164 135.894 200.297 137.645 200.917 138.332C201.537 139.018 202.643 140.15 203.923 141.025C205.204 141.9 204.679 142.668 205.542 143.934C206.405 145.2 208.211 146.021 210.192 146.586C212.173 147.151 216.394 152.026 222.337 153.721C228.28 155.415 225.908 154.433 228.334 154.512C230.759 154.592 232.255 153.998 234.06 153.391C235.865 152.783 235.056 152.043 241.024 148.644C246.991 145.244 245.857 141.351 245.465 139.505C245.073 137.659 243.968 137.242 242.768 134.654Z" fill="#BEC2C9"/>
</g>
<mask id="mask0_2719_20087" style="mask-type:alpha" maskUnits="userSpaceOnUse" x="194" y="122" width="52" height="33">
<path d="M242.768 134.654C241.807 132.584 237.442 128.171 235.379 126.223L226.133 123.588C225.303 123.351 220.828 122.756 218.694 122.488C217.473 122.956 214.672 123.933 213.238 124.095C211.446 124.298 209.749 125.241 209.277 125.106C208.9 124.999 203.102 125.659 200.249 126.003C199.504 125.994 197.668 126.042 196.288 126.301C194.563 126.626 193.298 128.203 198.84 134.883C199.164 135.894 200.297 137.645 200.917 138.332C201.537 139.018 202.643 140.15 203.923 141.025C205.204 141.9 204.679 142.668 205.542 143.934C206.405 145.2 208.211 146.021 210.192 146.586C212.173 147.151 216.394 152.026 222.337 153.721C228.28 155.415 225.908 154.433 228.334 154.512C230.759 154.592 232.255 153.998 234.06 153.391C235.865 152.783 235.056 152.043 241.024 148.644C246.991 145.244 245.857 141.351 245.465 139.505C245.073 137.659 243.968 137.242 242.768 134.654Z" fill="#BEC2C9"/>
</mask>
<g mask="url(#mask0_2719_20087)">
<g opacity="0.93" filter="url(#filter9_f_2719_20087)">
<path d="M196.985 129.409L200.069 129.385L203.319 131.789L203.693 133.238L206.637 133.867L204.817 137.584L213.159 136.972L218.603 137.108L228.746 139.276L231.645 143.316L235.875 145.932L238.678 142.425C238.943 142.253 239.669 141.952 240.454 142.12L241.435 142.33L242.579 140.18L241.62 138.265L242.296 136.698L240.823 133.988L241.35 132.553C241.996 133.362 242.508 134.093 242.768 134.654C243.968 137.242 245.073 137.659 245.465 139.505C245.857 141.351 246.991 145.245 241.024 148.644C239.882 149.294 238.988 149.847 238.277 150.32L225.974 154.656C225.825 154.63 225.651 154.595 225.446 154.549L212.271 147.838C211.422 147.206 210.726 146.738 210.192 146.586C208.211 146.021 206.406 145.2 205.542 143.935C204.679 142.668 205.204 141.9 203.923 141.024C202.643 140.149 201.537 139.018 200.917 138.331C200.296 137.644 199.164 135.893 198.84 134.883C196.235 131.743 195.134 129.73 194.878 128.445L196.985 129.409Z" fill="#838383"/>
</g>
</g>
<mask id="mask1_2719_20087" style="mask-type:alpha" maskUnits="userSpaceOnUse" x="194" y="122" width="52" height="33">
<path d="M242.768 134.654C241.807 132.584 237.442 128.171 235.379 126.223L226.133 123.588C225.303 123.351 220.828 122.756 218.694 122.488C217.473 122.956 214.672 123.933 213.238 124.095C211.446 124.298 209.749 125.241 209.277 125.106C208.9 124.999 203.102 125.659 200.249 126.003C199.504 125.994 197.668 126.042 196.288 126.301C194.563 126.626 193.298 128.203 198.84 134.883C199.164 135.894 200.297 137.645 200.917 138.332C201.537 139.018 202.643 140.15 203.923 141.025C205.204 141.9 204.679 142.668 205.542 143.934C206.405 145.2 208.211 146.021 210.192 146.586C212.173 147.151 216.394 152.026 222.337 153.721C228.28 155.415 225.908 154.433 228.334 154.512C230.759 154.592 232.255 153.998 234.06 153.391C235.865 152.783 235.056 152.043 241.024 148.644C246.991 145.244 245.857 141.351 245.465 139.505C245.073 137.659 243.968 137.242 242.768 134.654Z" fill="#BEC2C9"/>
</mask>
<g mask="url(#mask1_2719_20087)">
<g opacity="0.54" filter="url(#filter10_f_2719_20087)">
<path d="M241.768 129.689C242.399 128.751 243.869 125.912 244.526 124.61C242.95 122.526 239.483 118.046 238.223 116.796C236.647 115.233 230.344 116.796 227.586 116.796C225.38 116.796 211.96 119.14 205.526 120.312C206.182 122.656 207.653 127.345 208.283 127.345C209.071 127.345 214.586 126.173 214.98 126.173C215.374 126.173 216.556 126.563 217.344 127.345L219.708 129.689C220.496 130.47 222.465 135.158 222.859 135.94C223.253 136.721 227.586 134.377 228.768 135.158C229.95 135.94 231.92 135.94 233.102 135.94C234.283 135.94 234.283 135.94 237.435 135.158C240.586 134.377 238.617 133.986 240.586 132.033C242.556 130.079 240.98 130.861 241.768 129.689Z" fill="#474747"/>
</g>
</g>
<g filter="url(#filter11_iiii_2719_20087)">
<path d="M236.126 116.573C233.483 116.103 230.562 115.582 228.334 115.177C226.364 114.819 224.344 116.133 223.899 118.085L216.253 151.616L212.497 170.76C209.885 178.974 205.498 189.568 203.494 196.242C203.05 197.721 203.729 199.299 205.176 199.84C208.005 200.899 211.322 201.437 213.92 201.674C215.665 201.833 217.148 200.535 217.39 198.799C218.478 190.965 220.258 178.868 221.054 176.074C222.191 172.086 223.029 169.643 225.475 160.568C227.23 154.055 234.4 133.571 238.814 121.196C239.542 119.154 238.26 116.952 236.126 116.573Z" fill="#DBA589"/>
</g>
<path d="M219.939 123.383C228.602 133.52 231.761 140.282 232.849 153.261" stroke="url(#paint6_linear_2719_20087)" stroke-width="3.62749" stroke-linecap="round"/>
<path d="M210.036 145.578C213.283 141.82 220.83 134.316 237.145 128.675" stroke="url(#paint7_linear_2719_20087)" stroke-width="3.62749" stroke-linecap="round"/>
<path d="M135.276 127C137.213 127.706 142.71 132.809 159.04 130.504" stroke="#FCCC81" stroke-width="8"/>
<mask id="mask2_2719_20087" style="mask-type:alpha" maskUnits="userSpaceOnUse" x="194" y="122" width="52" height="33">
<path d="M242.768 134.654C241.807 132.584 237.442 128.171 235.379 126.223L226.133 123.588C225.303 123.351 220.828 122.756 218.694 122.488C217.473 122.956 214.672 123.933 213.238 124.095C211.446 124.298 209.749 125.241 209.277 125.106C208.9 124.999 203.102 125.659 200.249 126.003C199.504 125.994 197.668 126.042 196.288 126.301C194.563 126.626 193.298 128.203 198.84 134.883C199.164 135.894 200.297 137.645 200.917 138.332C201.537 139.018 202.643 140.15 203.923 141.025C205.204 141.9 204.679 142.668 205.542 143.934C206.405 145.2 208.211 146.021 210.192 146.586C212.173 147.151 216.394 152.026 222.337 153.721C228.28 155.415 225.908 154.433 228.334 154.512C230.759 154.592 232.255 153.998 234.06 153.391C235.865 152.783 235.056 152.043 241.024 148.644C246.991 145.244 245.857 141.351 245.465 139.505C245.073 137.659 243.968 137.242 242.768 134.654Z" fill="#BEC2C9"/>
</mask>
<g mask="url(#mask2_2719_20087)">
<g opacity="0.61" filter="url(#filter12_f_2719_20087)">
<rect x="182" y="118" width="33" height="25" fill="#E3FFDE"/>
</g>
</g>
<path d="M126 146.5C126.5 149.333 129.5 155 137.5 155" stroke="#A77322" stroke-width="1.5" stroke-linecap="round"/>
<path d="M128.5 148.004L124.733 150.092" stroke="#A77322" stroke-width="1.5" stroke-linecap="round"/>
<path d="M134.759 153L133.536 157.13" stroke="#A77322" stroke-width="1.5" stroke-linecap="round"/>
<path d="M131.268 151L128.604 154.384" stroke="#A77322" stroke-width="1.5" stroke-linecap="round"/>
</g>
<g filter="url(#filter13_i_2719_20087)">
<path d="M89.4287 180.092C88.7096 177.897 90.0111 175.555 92.2544 175.007L98.7922 173.408C101.001 172.868 103.21 174.293 103.63 176.527L108.391 201.868C108.779 203.932 107.489 205.941 105.451 206.447L102.197 207.255C100.181 207.756 98.1208 206.616 97.474 204.642L89.4287 180.092Z" fill="#91533A"/>
</g>
<g filter="url(#filter14_i_2719_20087)">
<path d="M76.0309 146.269C81.2183 140.292 80.6147 132.753 79.1347 128.016C78.7505 126.786 79.7354 125.452 80.9802 125.785C91.6174 128.631 95.9209 139.324 96.7536 144.732L97.8162 141.359C98.1393 140.333 99.3511 139.907 100.17 140.604C104.934 144.66 110.63 153.301 104.568 163.896C100.454 171.084 94.4291 172.855 89.159 172.476C83.1186 172.042 77.7558 168.054 75.057 162.632C72.6955 157.888 71.7833 151.893 76.0309 146.269Z" fill="url(#paint8_linear_2719_20087)"/>
</g>
<path d="M83.7429 156.008C86.6155 152.698 86.2813 148.523 85.4617 145.9C85.2489 145.218 85.7944 144.48 86.4837 144.664C92.3741 146.24 94.7572 152.162 95.2184 155.157L95.8068 153.288C95.9857 152.72 96.6567 152.485 97.1103 152.871C99.7485 155.116 102.903 159.902 99.5454 165.769C97.2676 169.749 93.9311 170.73 91.0128 170.52C87.6678 170.28 84.6981 168.071 83.2036 165.069C81.8959 162.442 81.3908 159.122 83.7429 156.008Z" fill="url(#paint9_linear_2719_20087)"/>
<g filter="url(#filter15_i_2719_20087)">
<path d="M83.6 177.16C82.0502 174.877 83.2487 171.749 85.9271 171.086L102.863 166.893C105.425 166.259 107.88 168.257 107.777 170.895L107.591 175.689C107.523 177.452 106.298 178.957 104.586 179.382L90.6012 182.855C88.9893 183.256 87.2988 182.609 86.3659 181.235L83.6 177.16Z" fill="url(#paint10_linear_2719_20087)"/>
</g>
</g>
<defs>
<filter id="filter0_i_2719_20087" x="27.546" y="54.75" width="227.821" height="166.945" filterUnits="userSpaceOnUse" color-interpolation-filters="sRGB">
<feFlood flood-opacity="0" result="BackgroundImageFix"/>
<feBlend mode="normal" in="SourceGraphic" in2="BackgroundImageFix" result="shape"/>
<feColorMatrix in="SourceAlpha" type="matrix" values="0 0 0 0 0 0 0 0 0 0 0 0 0 0 0 0 0 0 127 0" result="hardAlpha"/>
<feOffset dx="-1.68741" dy="0.56247"/>
<feGaussianBlur stdDeviation="1.09682"/>
<feComposite in2="hardAlpha" operator="arithmetic" k2="-1" k3="1"/>
<feColorMatrix type="matrix" values="0 0 0 0 0.259615 0 0 0 0 0.104845 0 0 0 0 0.104845 0 0 0 0.18 0"/>
<feBlend mode="normal" in2="shape" result="effect1_innerShadow_2719_20087"/>
</filter>
<filter id="filter1_ii_2719_20087" x="84.5314" y="73.9531" width="126.639" height="121.92" filterUnits="userSpaceOnUse" color-interpolation-filters="sRGB">
<feFlood flood-opacity="0" result="BackgroundImageFix"/>
<feBlend mode="normal" in="SourceGraphic" in2="BackgroundImageFix" result="shape"/>
<feColorMatrix in="SourceAlpha" type="matrix" values="0 0 0 0 0 0 0 0 0 0 0 0 0 0 0 0 0 0 127 0" result="hardAlpha"/>
<feOffset dx="-8.28676" dy="3.01337"/>
<feGaussianBlur stdDeviation="11.0741"/>
<feComposite in2="hardAlpha" operator="arithmetic" k2="-1" k3="1"/>
<feColorMatrix type="matrix" values="0 0 0 0 0.933333 0 0 0 0 0.960784 0 0 0 0 0.682353 0 0 0 1 0"/>
<feBlend mode="normal" in2="shape" result="effect1_innerShadow_2719_20087"/>
<feColorMatrix in="SourceAlpha" type="matrix" values="0 0 0 0 0 0 0 0 0 0 0 0 0 0 0 0 0 0 127 0" result="hardAlpha"/>
<feOffset dx="-0.521711" dy="0.521711"/>
<feGaussianBlur stdDeviation="0.260855"/>
<feComposite in2="hardAlpha" operator="arithmetic" k2="-1" k3="1"/>
<feColorMatrix type="matrix" values="0 0 0 0 0.871206 0 0 0 0 1 0 0 0 0 0.997853 0 0 0 0.5 0"/>
<feBlend mode="normal" in2="effect1_innerShadow_2719_20087" result="effect2_innerShadow_2719_20087"/>
</filter>
<filter id="filter2_g_2719_20087" x="132.762" y="129.281" width="26.0506" height="23.2347" filterUnits="userSpaceOnUse" color-interpolation-filters="sRGB">
<feFlood flood-opacity="0" result="BackgroundImageFix"/>
<feBlend mode="normal" in="SourceGraphic" in2="BackgroundImageFix" result="shape"/>
<feTurbulence type="fractalNoise" baseFrequency="1.512403130531311 1.512403130531311" numOctaves="3" seed="3511" />
<feDisplacementMap in="shape" scale="0.73466598987579346" xChannelSelector="R" yChannelSelector="G" result="displacedImage" width="100%" height="100%" />
<feMerge result="effect1_texture_2719_20087">
<feMergeNode in="displacedImage"/>
</feMerge>
</filter>
<filter id="filter3_g_2719_20087" x="137.597" y="132.571" width="17.6495" height="16.2091" filterUnits="userSpaceOnUse" color-interpolation-filters="sRGB">
<feFlood flood-opacity="0" result="BackgroundImageFix"/>
<feBlend mode="normal" in="SourceGraphic" in2="BackgroundImageFix" result="shape"/>
<feTurbulence type="fractalNoise" baseFrequency="2.302753210067749 2.302753210067749" numOctaves="3" seed="3511" />
<feDisplacementMap in="shape" scale="0.4825141429901123" xChannelSelector="R" yChannelSelector="G" result="displacedImage" width="100%" height="100%" />
<feMerge result="effect1_texture_2719_20087">
<feMergeNode in="displacedImage"/>
</feMerge>
</filter>
<filter id="filter4_g_2719_20087" x="168.93" y="125.64" width="23.6326" height="23.1878" filterUnits="userSpaceOnUse" color-interpolation-filters="sRGB">
<feFlood flood-opacity="0" result="BackgroundImageFix"/>
<feBlend mode="normal" in="SourceGraphic" in2="BackgroundImageFix" result="shape"/>
<feTurbulence type="fractalNoise" baseFrequency="1.512403130531311 1.512403130531311" numOctaves="3" seed="3511" />
<feDisplacementMap in="shape" scale="0.73466598987579346" xChannelSelector="R" yChannelSelector="G" result="displacedImage" width="100%" height="100%" />
<feMerge result="effect1_texture_2719_20087">
<feMergeNode in="displacedImage"/>
</feMerge>
</filter>
<filter id="filter5_g_2719_20087" x="172.123" y="128.727" width="17.3663" height="16.4122" filterUnits="userSpaceOnUse" color-interpolation-filters="sRGB">
<feFlood flood-opacity="0" result="BackgroundImageFix"/>
<feBlend mode="normal" in="SourceGraphic" in2="BackgroundImageFix" result="shape"/>
<feTurbulence type="fractalNoise" baseFrequency="2.302753210067749 2.302753210067749" numOctaves="3" seed="3511" />
<feDisplacementMap in="shape" scale="0.4825141429901123" xChannelSelector="R" yChannelSelector="G" result="displacedImage" width="100%" height="100%" />
<feMerge result="effect1_texture_2719_20087">
<feMergeNode in="displacedImage"/>
</feMerge>
</filter>
<filter id="filter6_n_2719_20087" x="59.5596" y="57.0469" width="170.881" height="153.305" filterUnits="userSpaceOnUse" color-interpolation-filters="sRGB">
<feFlood flood-opacity="0" result="BackgroundImageFix"/>
<feBlend mode="normal" in="SourceGraphic" in2="BackgroundImageFix" result="shape"/>
<feTurbulence type="fractalNoise" baseFrequency="0.14178778231143951 0.14178778231143951" stitchTiles="stitch" numOctaves="3" result="noise" seed="1999" />
<feColorMatrix in="noise" type="luminanceToAlpha" result="alphaNoise" />
<feComponentTransfer in="alphaNoise" result="coloredNoise1">
<feFuncA type="discrete" tableValues="1 1 1 1 1 1 1 1 1 1 1 1 1 1 1 1 1 1 1 1 1 1 1 1 1 1 1 1 1 1 1 1 1 1 1 1 1 1 1 1 1 1 1 1 1 1 1 1 1 1 1 0 0 0 0 0 0 0 0 0 0 0 0 0 0 0 0 0 0 0 0 0 0 0 0 0 0 0 0 0 0 0 0 0 0 0 0 0 0 0 0 0 0 0 0 0 0 0 0 0 "/>
</feComponentTransfer>
<feComposite operator="in" in2="shape" in="coloredNoise1" result="noise1Clipped" />
<feFlood flood-color="rgba(0, 0, 0, 0.08)" result="color1Flood" />
<feComposite operator="in" in2="noise1Clipped" in="color1Flood" result="color1" />
<feMerge result="effect1_noise_2719_20087">
<feMergeNode in="shape" />
<feMergeNode in="color1" />
</feMerge>
</filter>
<filter id="filter7_ii_2719_20087" x="123.143" y="194.375" width="68.8024" height="27.7193" filterUnits="userSpaceOnUse" color-interpolation-filters="sRGB">
<feFlood flood-opacity="0" result="BackgroundImageFix"/>
<feBlend mode="normal" in="SourceGraphic" in2="BackgroundImageFix" result="shape"/>
<feColorMatrix in="SourceAlpha" type="matrix" values="0 0 0 0 0 0 0 0 0 0 0 0 0 0 0 0 0 0 127 0" result="hardAlpha"/>
<feOffset dx="-8.08133" dy="1.46933"/>
<feGaussianBlur stdDeviation="3.89373"/>
<feComposite in2="hardAlpha" operator="arithmetic" k2="-1" k3="1"/>
<feColorMatrix type="matrix" values="0 0 0 0 0.869328 0 0 0 0 0.719989 0 0 0 0 1 0 0 0 0.2 0"/>
<feBlend mode="normal" in2="shape" result="effect1_innerShadow_2719_20087"/>
<feColorMatrix in="SourceAlpha" type="matrix" values="0 0 0 0 0 0 0 0 0 0 0 0 0 0 0 0 0 0 127 0" result="hardAlpha"/>
<feOffset dx="-0.734666"/>
<feGaussianBlur stdDeviation="0.367333"/>
<feComposite in2="hardAlpha" operator="arithmetic" k2="-1" k3="1"/>
<feColorMatrix type="matrix" values="0 0 0 0 0.858824 0 0 0 0 0.976471 0 0 0 0 0.984314 0 0 0 0.2 0"/>
<feBlend mode="normal" in2="effect1_innerShadow_2719_20087" result="effect2_innerShadow_2719_20087"/>
</filter>
<filter id="filter8_iii_2719_20087" x="191.915" y="118.865" width="58.2516" height="38.7639" filterUnits="userSpaceOnUse" color-interpolation-filters="sRGB">
<feFlood flood-opacity="0" result="BackgroundImageFix"/>
<feBlend mode="normal" in="SourceGraphic" in2="BackgroundImageFix" result="shape"/>
<feColorMatrix in="SourceAlpha" type="matrix" values="0 0 0 0 0 0 0 0 0 0 0 0 0 0 0 0 0 0 127 0" result="hardAlpha"/>
<feOffset dx="-2.17649" dy="-3.62749"/>
<feGaussianBlur stdDeviation="3.55494"/>
<feComposite in2="hardAlpha" operator="arithmetic" k2="-1" k3="1"/>
<feColorMatrix type="matrix" values="0 0 0 0 0.533072 0 0 0 0 0.477082 0 0 0 0 0.253121 0 0 0 1 0"/>
<feBlend mode="normal" in2="shape" result="effect1_innerShadow_2719_20087"/>
<feColorMatrix in="SourceAlpha" type="matrix" values="0 0 0 0 0 0 0 0 0 0 0 0 0 0 0 0 0 0 127 0" result="hardAlpha"/>
<feOffset dx="4.35298" dy="2.90199"/>
<feGaussianBlur stdDeviation="2.53924"/>
<feComposite in2="hardAlpha" operator="arithmetic" k2="-1" k3="1"/>
<feColorMatrix type="matrix" values="0 0 0 0 0.991722 0 0 0 0 1 0 0 0 0 0.875826 0 0 0 0.25 0"/>
<feBlend mode="normal" in2="effect1_innerShadow_2719_20087" result="effect2_innerShadow_2719_20087"/>
<feColorMatrix in="SourceAlpha" type="matrix" values="0 0 0 0 0 0 0 0 0 0 0 0 0 0 0 0 0 0 127 0" result="hardAlpha"/>
<feOffset dx="-9.43147" dy="-16.6864"/>
<feGaussianBlur stdDeviation="1.45099"/>
<feComposite in2="hardAlpha" operator="arithmetic" k2="-1" k3="1"/>
<feColorMatrix type="matrix" values="0 0 0 0 1 0 0 0 0 0.348858 0 0 0 0 0.967443 0 0 0 0.06 0"/>
<feBlend mode="normal" in2="effect2_innerShadow_2719_20087" result="effect3_innerShadow_2719_20087"/>
</filter>
<filter id="filter9_f_2719_20087" x="193.178" y="126.745" width="54.3358" height="29.6109" filterUnits="userSpaceOnUse" color-interpolation-filters="sRGB">
<feFlood flood-opacity="0" result="BackgroundImageFix"/>
<feBlend mode="normal" in="SourceGraphic" in2="BackgroundImageFix" result="shape"/>
<feGaussianBlur stdDeviation="0.85" result="effect1_foregroundBlur_2719_20087"/>
</filter>
<filter id="filter10_f_2719_20087" x="201.526" y="112.102" width="47" height="28" filterUnits="userSpaceOnUse" color-interpolation-filters="sRGB">
<feFlood flood-opacity="0" result="BackgroundImageFix"/>
<feBlend mode="normal" in="SourceGraphic" in2="BackgroundImageFix" result="shape"/>
<feGaussianBlur stdDeviation="2" result="effect1_foregroundBlur_2719_20087"/>
</filter>
<filter id="filter11_iiii_2719_20087" x="199.165" y="110.817" width="41.9518" height="90.8703" filterUnits="userSpaceOnUse" color-interpolation-filters="sRGB">
<feFlood flood-opacity="0" result="BackgroundImageFix"/>
<feBlend mode="normal" in="SourceGraphic" in2="BackgroundImageFix" result="shape"/>
<feColorMatrix in="SourceAlpha" type="matrix" values="0 0 0 0 0 0 0 0 0 0 0 0 0 0 0 0 0 0 127 0" result="hardAlpha"/>
<feOffset dx="-4.19492"/>
<feGaussianBlur stdDeviation="2.76166"/>
<feComposite in2="hardAlpha" operator="arithmetic" k2="-1" k3="1"/>
<feColorMatrix type="matrix" values="0 0 0 0 0.745098 0 0 0 0 0.514118 0 0 0 0 0.39435 0 0 0 1 0"/>
<feBlend mode="normal" in2="shape" result="effect1_innerShadow_2719_20087"/>
<feColorMatrix in="SourceAlpha" type="matrix" values="0 0 0 0 0 0 0 0 0 0 0 0 0 0 0 0 0 0 127 0" result="hardAlpha"/>
<feOffset dx="2.09746"/>
<feGaussianBlur stdDeviation="2.16737"/>
<feComposite in2="hardAlpha" operator="arithmetic" k2="-1" k3="1"/>
<feColorMatrix type="matrix" values="0 0 0 0 1 0 0 0 0 0.9788 0 0 0 0 0.745605 0 0 0 0.6 0"/>
<feBlend mode="normal" in2="effect1_innerShadow_2719_20087" result="effect2_innerShadow_2719_20087"/>
<feColorMatrix in="SourceAlpha" type="matrix" values="0 0 0 0 0 0 0 0 0 0 0 0 0 0 0 0 0 0 127 0" result="hardAlpha"/>
<feOffset dx="-1"/>
<feGaussianBlur stdDeviation="2"/>
<feComposite in2="hardAlpha" operator="arithmetic" k2="-1" k3="1"/>
<feColorMatrix type="matrix" values="0 0 0 0 0.96783 0 0 0 0 0.91039 0 0 0 0 0.5849 0 0 0 0.8 0"/>
<feBlend mode="normal" in2="effect2_innerShadow_2719_20087" result="effect3_innerShadow_2719_20087"/>
<feColorMatrix in="SourceAlpha" type="matrix" values="0 0 0 0 0 0 0 0 0 0 0 0 0 0 0 0 0 0 127 0" result="hardAlpha"/>
<feOffset dx="-2" dy="-5"/>
<feGaussianBlur stdDeviation="2.15"/>
<feComposite in2="hardAlpha" operator="arithmetic" k2="-1" k3="1"/>
<feColorMatrix type="matrix" values="0 0 0 0 0.600962 0 0 0 0 0.120192 0 0 0 0 0 0 0 0 0.25 0"/>
<feBlend mode="normal" in2="effect3_innerShadow_2719_20087" result="effect4_innerShadow_2719_20087"/>
</filter>
<filter id="filter12_f_2719_20087" x="172.8" y="108.8" width="51.4" height="43.4" filterUnits="userSpaceOnUse" color-interpolation-filters="sRGB">
<feFlood flood-opacity="0" result="BackgroundImageFix"/>
<feBlend mode="normal" in="SourceGraphic" in2="BackgroundImageFix" result="shape"/>
<feGaussianBlur stdDeviation="4.6" result="effect1_foregroundBlur_2719_20087"/>
</filter>
<filter id="filter13_i_2719_20087" x="89.2302" y="173.297" width="19.2297" height="36.0602" filterUnits="userSpaceOnUse" color-interpolation-filters="sRGB">
<feFlood flood-opacity="0" result="BackgroundImageFix"/>
<feBlend mode="normal" in="SourceGraphic" in2="BackgroundImageFix" result="shape"/>
<feColorMatrix in="SourceAlpha" type="matrix" values="0 0 0 0 0 0 0 0 0 0 0 0 0 0 0 0 0 0 127 0" result="hardAlpha"/>
<feOffset dy="13.214"/>
<feGaussianBlur stdDeviation="0.99105"/>
<feComposite in2="hardAlpha" operator="arithmetic" k2="-1" k3="1"/>
<feColorMatrix type="matrix" values="0 0 0 0 0.498039 0 0 0 0 0.247059 0 0 0 0 0.129412 0 0 0 1 0"/>
<feBlend mode="normal" in2="shape" result="effect1_innerShadow_2719_20087"/>
</filter>
<filter id="filter14_i_2719_20087" x="73.0654" y="125.734" width="34.1287" height="46.7891" filterUnits="userSpaceOnUse" color-interpolation-filters="sRGB">
<feFlood flood-opacity="0" result="BackgroundImageFix"/>
<feBlend mode="normal" in="SourceGraphic" in2="BackgroundImageFix" result="shape"/>
<feColorMatrix in="SourceAlpha" type="matrix" values="0 0 0 0 0 0 0 0 0 0 0 0 0 0 0 0 0 0 127 0" result="hardAlpha"/>
<feOffset/>
<feGaussianBlur stdDeviation="5.35"/>
<feComposite in2="hardAlpha" operator="arithmetic" k2="-1" k3="1"/>
<feColorMatrix type="matrix" values="0 0 0 0 1 0 0 0 0 0.479511 0 0 0 0 0.479511 0 0 0 1 0"/>
<feBlend mode="normal" in2="shape" result="effect1_innerShadow_2719_20087"/>
</filter>
<filter id="filter15_i_2719_20087" x="82.9128" y="166.773" width="24.8677" height="18.8381" filterUnits="userSpaceOnUse" color-interpolation-filters="sRGB">
<feFlood flood-opacity="0" result="BackgroundImageFix"/>
<feBlend mode="normal" in="SourceGraphic" in2="BackgroundImageFix" result="shape"/>
<feColorMatrix in="SourceAlpha" type="matrix" values="0 0 0 0 0 0 0 0 0 0 0 0 0 0 0 0 0 0 127 0" result="hardAlpha"/>
<feOffset dy="2.6428"/>
<feGaussianBlur stdDeviation="3.76599"/>
<feComposite in2="hardAlpha" operator="arithmetic" k2="-1" k3="1"/>
<feColorMatrix type="matrix" values="0 0 0 0 0.992157 0 0 0 0 0.682353 0 0 0 0 0.27451 0 0 0 1 0"/>
<feBlend mode="normal" in2="shape" result="effect1_innerShadow_2719_20087"/>
</filter>
<linearGradient id="paint0_linear_2719_20087" x1="216.032" y1="4.4242" x2="229.106" y2="107.111" gradientUnits="userSpaceOnUse">
<stop stop-color="#9CCFFF"/>
<stop offset="1" stop-color="#A7B3FF" stop-opacity="0"/>
</linearGradient>
<linearGradient id="paint1_linear_2719_20087" x1="16.8296" y1="158.503" x2="32.5769" y2="282.184" gradientUnits="userSpaceOnUse">
<stop stop-color="#9CCFFF"/>
<stop offset="1" stop-color="#A7B3FF" stop-opacity="0"/>
</linearGradient>
<linearGradient id="paint2_linear_2719_20087" x1="229.573" y1="111.824" x2="75.9837" y2="177" gradientUnits="userSpaceOnUse">
<stop stop-color="#FFE7B2" stop-opacity="0.2"/>
<stop offset="1" stop-color="white" stop-opacity="0"/>
</linearGradient>
<linearGradient id="paint3_linear_2719_20087" x1="61.7527" y1="81.779" x2="124.422" y2="215.327" gradientUnits="userSpaceOnUse">
<stop stop-color="#C68250"/>
<stop offset="0.586538" stop-color="#CEA184"/>
<stop offset="1" stop-color="#CD885E"/>
</linearGradient>
<linearGradient id="paint4_linear_2719_20087" x1="80.9056" y1="94.7324" x2="120.978" y2="148.938" gradientUnits="userSpaceOnUse">
<stop stop-color="#FFEFD9"/>
<stop offset="0.440397" stop-color="#FDEBD7" stop-opacity="0"/>
</linearGradient>
<linearGradient id="paint5_linear_2719_20087" x1="66.746" y1="131.004" x2="79.1043" y2="132.61" gradientUnits="userSpaceOnUse">
<stop stop-color="#FFFCD9"/>
<stop offset="1" stop-color="#FDF1D7" stop-opacity="0"/>
</linearGradient>
<linearGradient id="paint6_linear_2719_20087" x1="216" y1="118" x2="235.3" y2="156.317" gradientUnits="userSpaceOnUse">
<stop stop-color="#F9FFA0"/>
<stop offset="0.240385" stop-color="#654C31"/>
<stop offset="0.512811" stop-color="#664D32"/>
<stop offset="1" stop-color="#936C43"/>
</linearGradient>
<linearGradient id="paint7_linear_2719_20087" x1="207" y1="146" x2="247" y2="123" gradientUnits="userSpaceOnUse">
<stop stop-color="#D4C674"/>
<stop offset="0.240385" stop-color="#9A6E44"/>
<stop offset="0.751499" stop-color="#543C24"/>
</linearGradient>
<linearGradient id="paint8_linear_2719_20087" x1="82.5315" y1="124.105" x2="94.4394" y2="172.054" gradientUnits="userSpaceOnUse">
<stop stop-color="#FD8A3C"/>
<stop offset="1" stop-color="#FDD85B"/>
</linearGradient>
<linearGradient id="paint9_linear_2719_20087" x1="87.3427" y1="143.734" x2="93.9999" y2="178.5" gradientUnits="userSpaceOnUse">
<stop stop-color="#FFEAC5"/>
<stop offset="1" stop-color="#FEF973"/>
</linearGradient>
<linearGradient id="paint10_linear_2719_20087" x1="94.1906" y1="169.029" x2="97.2162" y2="181.213" gradientUnits="userSpaceOnUse">
<stop stop-color="#B16433"/>
<stop offset="1" stop-color="#945637"/>
</linearGradient>
<clipPath id="clip0_2719_20087">
<rect width="298" height="274" fill="white"/>
</clipPath>
<clipPath id="clip1_2719_20087">
<rect width="226.133" height="166.386" fill="white" transform="translate(29.2334 54.75)"/>
</clipPath>
</defs>
</svg>
