<svg width="298" height="274" viewBox="0 0 298 274" fill="none" xmlns="http://www.w3.org/2000/svg">
<g clip-path="url(#clip0_2924_5426)">
<path d="M0.712076 19.1249L0.606622 19.2835L0.789924 19.3352L0.607204 19.3889L0.714403 19.5463L0.539914 19.47L0.52085 19.6595L0.436237 19.4889L0.299831 19.6218L0.344685 19.4367L0.154762 19.4508L0.308096 19.3379L0.153524 19.2266L0.343591 19.2386L0.296695 19.054L0.434561 19.1854L0.517285 19.0139L0.53844 19.2032L0.712076 19.1249Z" fill="white"/>
<path d="M63.4838 37.9531L63.3784 38.1116L63.5617 38.1633L63.3789 38.217L63.4861 38.3744L63.3116 38.2981L63.2926 38.4876L63.208 38.317L63.0716 38.4499L63.1164 38.2648L62.9265 38.2789L63.0798 38.166L62.9253 38.0547L63.1153 38.0668L63.0684 37.8822L63.2063 38.0136L63.289 37.842L63.3102 38.0313L63.4838 37.9531Z" fill="white"/>
<path d="M25.1147 59.5937L25.0092 59.7523L25.1925 59.8039L25.0098 59.8576L25.117 60.0151L24.9425 59.9387L24.9234 60.1282L24.8388 59.9576L24.7024 60.0905L24.7473 59.9054L24.5574 59.9196L24.7107 59.8066L24.5561 59.6953L24.7462 59.7074L24.6993 59.5228L24.8371 59.6542L24.9199 59.4826L24.941 59.6719L25.1147 59.5937Z" fill="white"/>
<path d="M31.0163 25.164L30.9108 25.3226L31.0941 25.3743L30.9114 25.428L31.0186 25.5854L30.8441 25.5091L30.825 25.6985L30.7404 25.5279L30.604 25.6608L30.6489 25.4757L30.459 25.4899L30.6123 25.3769L30.4577 25.2657L30.6478 25.2777L30.6009 25.0931L30.7388 25.2245L30.8215 25.053L30.8426 25.2422L31.0163 25.164Z" fill="white"/>
<path d="M12.9794 33.3593L12.874 33.5179L13.0573 33.5696L12.8745 33.6233L12.9817 33.7807L12.8072 33.7044L12.7882 33.8939L12.7036 33.7232L12.5672 33.8561L12.612 33.6711L12.4221 33.6852L12.5754 33.5722L12.4209 33.461L12.6109 33.473L12.564 33.2884L12.7019 33.4198L12.7846 33.2483L12.8058 33.4375L12.9794 33.3593Z" fill="white"/>
<path d="M127.104 54.0234L126.999 54.182L127.182 54.2336L127 54.2873L127.107 54.4447L126.932 54.3684L126.913 54.5579L126.829 54.3873L126.692 54.5202L126.737 54.3351L126.547 54.3492L126.7 54.2363L126.546 54.125L126.736 54.1371L126.689 53.9525L126.827 54.0839L126.91 53.9123L126.931 54.1016L127.104 54.0234Z" fill="white"/>
<path d="M69.7135 19.9218L69.6081 20.0804L69.7914 20.1321L69.6087 20.1858L69.7159 20.3432L69.5414 20.2669L69.5223 20.4564L69.4377 20.2857L69.3013 20.4186L69.3461 20.2336L69.1562 20.2477L69.3096 20.1347L69.155 20.0235L69.3451 20.0355L69.2982 19.8509L69.436 19.9823L69.5187 19.8108L69.5399 20L69.7135 19.9218Z" fill="white"/>
<path d="M208.761 38.9374L208.656 39.096L208.839 39.1477L208.657 39.2014L208.764 39.3588L208.589 39.2825L208.57 39.472L208.486 39.3014L208.349 39.4343L208.394 39.2492L208.204 39.2633L208.357 39.1504L208.203 39.0391L208.393 39.0511L208.346 38.8665L208.484 38.9979L208.567 38.8264L208.588 39.0157L208.761 38.9374Z" fill="white"/>
<path d="M132.68 92.7187L132.574 92.8773L132.757 92.9289L132.575 92.9826L132.682 93.1401L132.507 93.0637L132.488 93.2532L132.404 93.0826L132.267 93.2155L132.312 93.0304L132.122 93.0446L132.276 92.9316L132.121 92.8203L132.311 92.8324L132.264 92.6478L132.402 92.7792L132.485 92.6076L132.506 92.7969L132.68 92.7187Z" fill="white"/>
<path d="M69.3874 66.8124L69.2819 66.971L69.4652 67.0227L69.2825 67.0764L69.3897 67.2338L69.2152 67.1575L69.1961 67.347L69.1115 67.1764L68.9751 67.3093L69.02 67.1242L68.8301 67.1383L68.9834 67.0254L68.8288 66.9141L69.0189 66.9261L68.972 66.7415L69.1099 66.8729L69.1926 66.7014L69.2137 66.8907L69.3874 66.8124Z" fill="white"/>
<path d="M66.7638 117.641L66.6584 117.799L66.8417 117.851L66.659 117.905L66.7662 118.062L66.5917 117.986L66.5726 118.175L66.488 118.004L66.3516 118.137L66.3964 117.952L66.2065 117.966L66.3599 117.853L66.2053 117.742L66.3953 117.754L66.3485 117.57L66.4863 117.701L66.569 117.53L66.5902 117.719L66.7638 117.641Z" fill="white"/>
<path d="M262.872 113.047L262.767 113.205L262.95 113.257L262.768 113.311L262.875 113.468L262.7 113.392L262.681 113.581L262.597 113.411L262.46 113.544L262.505 113.359L262.315 113.373L262.468 113.26L262.314 113.148L262.504 113.161L262.457 112.976L262.595 113.107L262.678 112.936L262.699 113.125L262.872 113.047Z" fill="white"/>
<path d="M199.252 273.75L199.146 273.909L199.33 273.96L199.147 274.014L199.254 274.171L199.08 274.095L199.061 274.284L198.976 274.114L198.84 274.247L198.884 274.062L198.695 274.076L198.848 273.963L198.693 273.852L198.883 273.864L198.836 273.679L198.974 273.81L199.057 273.639L199.078 273.828L199.252 273.75Z" fill="white"/>
<path d="M256.971 149.453L256.865 149.612L257.049 149.663L256.866 149.717L256.973 149.874L256.799 149.798L256.78 149.988L256.695 149.817L256.559 149.95L256.603 149.765L256.414 149.779L256.567 149.666L256.412 149.555L256.602 149.567L256.555 149.382L256.693 149.514L256.776 149.342L256.797 149.531L256.971 149.453Z" fill="white"/>
<path d="M167.769 123.547L167.664 123.705L167.847 123.757L167.664 123.811L167.771 123.968L167.597 123.892L167.578 124.081L167.493 123.911L167.357 124.044L167.402 123.859L167.212 123.873L167.365 123.76L167.21 123.648L167.4 123.661L167.354 123.476L167.491 123.607L167.574 123.436L167.595 123.625L167.769 123.547Z" fill="white"/>
<path d="M99.2292 247.508L99.1237 247.666L99.307 247.718L99.1243 247.772L99.2315 247.929L99.057 247.853L99.0379 248.042L98.9533 247.872L98.8169 248.005L98.8618 247.819L98.6719 247.834L98.8252 247.721L98.6706 247.609L98.8607 247.621L98.8138 247.437L98.9517 247.568L99.0344 247.397L99.0555 247.586L99.2292 247.508Z" fill="white"/>
<path d="M19.5392 210.125L19.4338 210.284L19.6171 210.335L19.4344 210.389L19.5416 210.546L19.3671 210.47L19.348 210.659L19.2634 210.489L19.127 210.622L19.1718 210.437L18.9819 210.451L19.1352 210.338L18.9807 210.227L19.1707 210.239L19.1238 210.054L19.2617 210.185L19.3444 210.014L19.3656 210.203L19.5392 210.125Z" fill="white"/>
<path d="M20.5238 96.3281L20.4184 96.4866L20.6017 96.5383L20.419 96.592L20.5262 96.7494L20.3517 96.6731L20.3326 96.8626L20.248 96.692L20.1116 96.8249L20.1565 96.6398L19.9665 96.6539L20.1199 96.541L19.9653 96.4297L20.1554 96.4418L20.1085 96.2572L20.2463 96.3886L20.3291 96.217L20.3502 96.4063L20.5238 96.3281Z" fill="white"/>
<path d="M126.12 107.148L126.014 107.307L126.198 107.359L126.015 107.412L126.122 107.57L125.948 107.493L125.929 107.683L125.844 107.512L125.708 107.645L125.752 107.46L125.562 107.474L125.716 107.361L125.561 107.25L125.751 107.262L125.704 107.077L125.842 107.209L125.925 107.037L125.946 107.227L126.12 107.148Z" fill="white"/>
<path d="M276.319 185.203L276.213 185.362L276.396 185.413L276.214 185.467L276.321 185.624L276.146 185.548L276.127 185.738L276.043 185.567L275.906 185.7L275.951 185.515L275.761 185.529L275.915 185.416L275.76 185.305L275.95 185.317L275.903 185.132L276.041 185.264L276.124 185.092L276.145 185.281L276.319 185.203Z" fill="white"/>
<path d="M232.702 225.531L232.597 225.69L232.78 225.741L232.597 225.795L232.704 225.953L232.53 225.876L232.511 226.066L232.426 225.895L232.29 226.028L232.335 225.843L232.145 225.857L232.298 225.744L232.144 225.633L232.334 225.645L232.287 225.46L232.425 225.592L232.507 225.42L232.528 225.609L232.702 225.531Z" fill="white"/>
<path d="M172.36 134.367L172.255 134.526L172.438 134.577L172.255 134.631L172.362 134.788L172.188 134.712L172.169 134.902L172.084 134.731L171.948 134.864L171.993 134.679L171.803 134.693L171.956 134.58L171.801 134.469L171.992 134.481L171.945 134.296L172.083 134.428L172.165 134.256L172.186 134.445L172.36 134.367Z" fill="white"/>
<path d="M243.525 75.0077L243.419 75.1663L243.602 75.218L243.42 75.2717L243.527 75.4291L243.352 75.3528L243.333 75.5423L243.249 75.3717L243.112 75.5046L243.157 75.3195L242.967 75.3336L243.121 75.2207L242.966 75.1094L243.156 75.1214L243.109 74.9369L243.247 75.0682L243.33 74.8967L243.351 75.086L243.525 75.0077Z" fill="white"/>
<path d="M32.0007 243.906L31.8952 244.065L32.0785 244.116L31.8958 244.17L32.003 244.328L31.8285 244.251L31.8094 244.441L31.7248 244.27L31.5884 244.403L31.6333 244.218L31.4433 244.232L31.5967 244.119L31.4421 244.008L31.6322 244.02L31.5853 243.835L31.7231 243.967L31.8059 243.795L31.827 243.984L32.0007 243.906Z" fill="white"/>
<path d="M24.13 144.859L24.0246 145.018L24.2079 145.07L24.0252 145.123L24.1324 145.281L23.9579 145.204L23.9388 145.394L23.8542 145.223L23.7178 145.356L23.7627 145.171L23.5727 145.185L23.7261 145.072L23.5715 144.961L23.7616 144.973L23.7147 144.788L23.8525 144.92L23.9353 144.748L23.9564 144.938L24.13 144.859Z" fill="white"/>
<path d="M204.827 141.25L204.722 141.409L204.905 141.46L204.722 141.514L204.83 141.671L204.655 141.595L204.636 141.784L204.551 141.614L204.415 141.747L204.46 141.562L204.27 141.576L204.423 141.463L204.269 141.352L204.459 141.364L204.412 141.179L204.55 141.31L204.633 141.139L204.654 141.328L204.827 141.25Z" fill="white"/>
<path d="M152.356 188.484L152.25 188.643L152.433 188.695L152.251 188.748L152.358 188.906L152.183 188.829L152.164 189.019L152.08 188.848L151.943 188.981L151.988 188.796L151.798 188.81L151.952 188.697L151.797 188.586L151.987 188.598L151.94 188.413L152.078 188.545L152.161 188.373L152.182 188.563L152.356 188.484Z" fill="white"/>
<path d="M187.331 211.031L187.12 211.349L187.487 211.452L187.121 211.56L187.336 211.875L186.986 211.722L186.948 212.101L186.779 211.76L186.506 212.026L186.596 211.655L186.216 211.683L186.522 211.457L186.213 211.235L186.594 211.259L186.5 210.89L186.776 211.152L186.941 210.809L186.983 211.188L187.331 211.031Z" fill="white"/>
<path d="M106.173 155.281L105.962 155.599L106.329 155.702L105.963 155.81L106.178 156.125L105.829 155.972L105.791 156.351L105.621 156.01L105.348 156.276L105.438 155.905L105.058 155.933L105.365 155.707L105.055 155.485L105.436 155.509L105.342 155.14L105.618 155.402L105.783 155.059L105.826 155.438L106.173 155.281Z" fill="white"/>
<path d="M225.872 19.5157L225.661 19.8331L226.028 19.9365L225.662 20.0439L225.877 20.3589L225.527 20.2062L225.489 20.5854L225.32 20.244L225.047 20.5099L225.137 20.1395L224.757 20.1678L225.064 19.9418L224.754 19.7192L225.135 19.7432L225.041 19.3739L225.317 19.6368L225.482 19.2936L225.524 19.6723L225.872 19.5157Z" fill="white"/>
<path d="M154.38 20.4923L154.169 20.8096L154.536 20.913L154.171 21.0205L154.385 21.3355L154.036 21.1828L153.998 21.5619L153.828 21.2205L153.556 21.4865L153.645 21.1161L153.265 21.1444L153.572 20.9184L153.263 20.6957L153.643 20.7198L153.549 20.3505L153.825 20.6134L153.991 20.2701L154.033 20.6488L154.38 20.4923Z" fill="white"/>
<path d="M294.085 212.016L293.874 212.333L294.241 212.436L293.875 212.544L294.089 212.859L293.74 212.706L293.702 213.085L293.533 212.744L293.26 213.01L293.35 212.64L292.97 212.668L293.276 212.442L292.967 212.219L293.347 212.243L293.254 211.874L293.529 212.137L293.695 211.794L293.737 212.172L294.085 212.016Z" fill="white"/>
<path d="M65.1805 204.141L64.9695 204.458L65.3362 204.561L64.9706 204.669L65.1851 204.984L64.836 204.831L64.7978 205.21L64.6285 204.869L64.3556 205.135L64.4453 204.765L64.0653 204.793L64.3721 204.567L64.0628 204.344L64.4431 204.368L64.3493 203.999L64.6252 204.262L64.7907 203.919L64.833 204.297L65.1805 204.141Z" fill="white"/>
<path d="M18.2842 184.797L18.0732 185.114L18.44 185.218L18.0744 185.325L18.2889 185.64L17.9397 185.487L17.9016 185.867L17.7323 185.525L17.4593 185.791L17.5491 185.421L17.169 185.449L17.4759 185.223L17.1666 185L17.5469 185.024L17.4531 184.655L17.7289 184.918L17.8944 184.575L17.9368 184.954L18.2842 184.797Z" fill="white"/>
<path d="M2.2144 108.383L2.00339 108.7L2.37018 108.804L2.00456 108.911L2.21906 109.226L1.86991 109.073L1.83176 109.453L1.66245 109.111L1.3895 109.377L1.47925 109.007L1.09922 109.035L1.40604 108.809L1.09674 108.586L1.47706 108.61L1.38323 108.241L1.6591 108.504L1.82463 108.161L1.86696 108.539L2.2144 108.383Z" fill="white"/>
<path d="M233.712 1.33817L233.481 1.33118L233.652 1.57479L233.407 1.40635L233.417 1.63875L233.274 1.38769L233.118 1.50014L233.143 1.28391L232.895 1.2238L233.077 1.14359L232.852 0.939043L233.105 1.03238L233.009 0.779104L233.216 1.00232L233.293 0.818821L233.356 1.06746L233.571 1.03961L233.461 1.19734L233.712 1.33817Z" fill="white"/>
<path d="M294.217 84.5647L293.986 84.5577L294.156 84.8013L293.912 84.6329L293.922 84.8653L293.778 84.6142L293.623 84.7267L293.648 84.5105L293.4 84.4504L293.581 84.3702L293.357 84.1656L293.61 84.2589L293.514 84.0057L293.72 84.2289L293.798 84.0454L293.861 84.294L294.075 84.2662L293.965 84.4239L294.217 84.5647Z" fill="white"/>
<path d="M273.153 118.229L272.921 118.222L273.092 118.465L272.848 118.297L272.857 118.529L272.714 118.278L272.559 118.391L272.584 118.175L272.336 118.114L272.517 118.034L272.293 117.83L272.546 117.923L272.45 117.67L272.656 117.893L272.734 117.709L272.796 117.958L273.011 117.93L272.901 118.088L273.153 118.229Z" fill="white"/>
<path d="M219.974 28.4085L219.743 28.4015L219.913 28.6451L219.669 28.4767L219.679 28.7091L219.535 28.458L219.38 28.5705L219.405 28.3542L219.157 28.2941L219.339 28.2139L219.114 28.0094L219.367 28.1027L219.271 27.8494L219.477 28.0726L219.555 27.8891L219.618 28.1378L219.832 28.1099L219.723 28.2677L219.974 28.4085Z" fill="white"/>
<path d="M181.067 61.385L180.836 61.3781L181.006 61.6217L180.762 61.4532L180.772 61.6856L180.629 61.4346L180.473 61.547L180.498 61.3308L180.25 61.2707L180.432 61.1905L180.207 60.9859L180.46 61.0793L180.364 60.826L180.57 61.0492L180.648 60.8657L180.711 61.1143L180.925 61.0865L180.816 61.2442L181.067 61.385Z" fill="white"/>
<path d="M290.994 179.666L290.762 179.659L290.933 179.903L290.688 179.734L290.698 179.967L290.555 179.716L290.4 179.828L290.425 179.612L290.177 179.552L290.358 179.472L290.134 179.267L290.387 179.361L290.291 179.107L290.497 179.33L290.574 179.147L290.637 179.396L290.852 179.368L290.742 179.525L290.994 179.666Z" fill="white"/>
<path d="M125.913 189.893L125.682 189.886L125.852 190.129L125.608 189.961L125.618 190.193L125.474 189.942L125.319 190.055L125.344 189.839L125.096 189.778L125.277 189.698L125.053 189.494L125.306 189.587L125.21 189.334L125.416 189.557L125.494 189.374L125.557 189.622L125.771 189.594L125.661 189.752L125.913 189.893Z" fill="white"/>
<path d="M62.3285 73.4319L62.0972 73.4249L62.2677 73.6685L62.0233 73.5001L62.0331 73.7325L61.89 73.4814L61.7345 73.5939L61.7595 73.3777L61.5115 73.3176L61.693 73.2373L61.4685 73.0328L61.7216 73.1261L61.6256 72.8729L61.8318 73.0961L61.9094 72.9126L61.9722 73.1612L62.1869 73.1334L62.077 73.2911L62.3285 73.4319Z" fill="white"/>
<path d="M255.54 121.018L255.309 121.011L255.48 121.254L255.235 121.086L255.245 121.318L255.102 121.067L254.946 121.18L254.971 120.964L254.723 120.903L254.905 120.823L254.68 120.619L254.933 120.712L254.838 120.459L255.044 120.682L255.121 120.499L255.184 120.747L255.399 120.719L255.289 120.877L255.54 121.018Z" fill="white"/>
<path d="M288.526 192.502L288.295 192.495L288.466 192.739L288.221 192.57L288.231 192.803L288.088 192.552L287.932 192.664L287.958 192.448L287.709 192.388L287.891 192.308L287.666 192.103L287.92 192.196L287.824 191.943L288.03 192.166L288.107 191.983L288.17 192.232L288.385 192.204L288.275 192.361L288.526 192.502Z" fill="white"/>
<path d="M52.5206 111.401L52.2893 111.394L52.4599 111.637L52.2155 111.469L52.2253 111.701L52.0821 111.45L51.9266 111.563L51.9517 111.346L51.7036 111.286L51.8851 111.206L51.6606 111.002L51.9137 111.095L51.8178 110.842L52.024 111.065L52.1015 110.881L52.1643 111.13L52.3791 111.102L52.2691 111.26L52.5206 111.401Z" fill="white"/>
<path d="M113.661 32.4788L113.429 32.4718L113.6 32.7154L113.356 32.547L113.365 32.7794L113.222 32.5283L113.067 32.6408L113.092 32.4245L112.844 32.3644L113.025 32.2842L112.801 32.0797L113.054 32.173L112.958 31.9197L113.164 32.1429L113.242 31.9594L113.304 32.2081L113.519 32.1802L113.409 32.338L113.661 32.4788Z" fill="white"/>
<path d="M227.667 208.166L227.436 208.159L227.606 208.403L227.362 208.234L227.372 208.467L227.229 208.216L227.073 208.328L227.098 208.112L226.85 208.052L227.032 207.972L226.807 207.767L227.06 207.861L226.964 207.607L227.17 207.83L227.248 207.647L227.311 207.896L227.526 207.868L227.416 208.025L227.667 208.166Z" fill="white"/>
<path d="M251.23 263.622L250.767 263.608L251.108 264.096L250.619 263.759L250.639 264.224L250.352 263.721L250.041 263.946L250.091 263.514L249.595 263.393L249.958 263.233L249.509 262.823L250.015 263.01L249.823 262.503L250.236 262.95L250.391 262.583L250.517 263.08L250.946 263.025L250.726 263.34L251.23 263.622Z" fill="white"/>
<path d="M198.973 132.52L198.51 132.507L198.851 132.994L198.362 132.657L198.382 133.122L198.095 132.62L197.784 132.845L197.834 132.412L197.338 132.292L197.701 132.131L197.252 131.722L197.758 131.909L197.566 131.402L197.979 131.848L198.134 131.481L198.26 131.979L198.689 131.923L198.469 132.239L198.973 132.52Z" fill="white"/>
<path d="M118.115 120.763L117.652 120.749L117.993 121.236L117.504 120.899L117.524 121.364L117.237 120.862L116.926 121.087L116.976 120.654L116.48 120.534L116.843 120.373L116.394 119.964L116.9 120.151L116.708 119.644L117.121 120.091L117.276 119.723L117.402 120.221L117.832 120.165L117.612 120.481L118.115 120.763Z" fill="white"/>
<path d="M32.6116 181.817L32.1488 181.803L32.49 182.291L32.001 181.954L32.0206 182.419L31.7342 181.916L31.423 182.141L31.4731 181.709L30.9768 181.589L31.34 181.428L30.8907 181.019L31.3972 181.205L31.2052 180.699L31.6178 181.145L31.773 180.778L31.8987 181.276L32.3284 181.22L32.1084 181.536L32.6116 181.817Z" fill="white"/>
<path d="M78.8213 54.1064L78.3586 54.0925L78.6998 54.5799L78.2108 54.2429L78.2303 54.7079L77.9439 54.2055L77.6327 54.4305L77.6829 53.9979L77.1865 53.8776L77.5498 53.7171L77.1005 53.3078L77.6069 53.4946L77.4149 52.9878L77.8275 53.4344L77.9827 53.0672L78.1084 53.5648L78.5381 53.509L78.3181 53.8247L78.8213 54.1064Z" fill="white"/>
<path d="M2.16408 122.614L1.70132 122.6L2.04254 123.088L1.55354 122.751L1.57312 123.216L1.28669 122.713L0.97548 122.938L1.02563 122.506L0.529254 122.385L0.892529 122.225L0.443237 121.816L0.949654 122.002L0.757679 121.496L1.17028 121.942L1.32545 121.575L1.45117 122.073L1.88088 122.017L1.6609 122.332L2.16408 122.614Z" fill="white"/>
<path d="M248.827 84.7383C249.482 85.8464 248.216 87.0914 247.119 86.4188L232.443 77.4233C231.735 76.9893 230.809 77.364 230.602 78.1682L226.312 94.8385C225.992 96.0849 224.217 96.0704 223.916 94.8189L219.9 78.0807C219.706 77.2732 218.786 76.8835 218.071 77.3058L203.25 86.0602C202.142 86.7147 200.897 85.4492 201.57 84.352L210.565 69.6761C210.999 68.9682 210.625 68.0422 209.82 67.8353L193.15 63.5456C191.904 63.2249 191.918 61.4497 193.17 61.1494L209.908 57.1328C210.715 56.9391 211.105 56.0194 210.683 55.3044L201.928 40.4835C201.274 39.3754 202.539 38.1304 203.637 38.803L218.313 47.7985C219.021 48.2325 219.946 47.8578 220.153 47.0536L224.443 30.3833C224.764 29.1369 226.539 29.1514 226.839 30.4029L230.856 47.1411C231.05 47.9485 231.969 48.3383 232.684 47.916L247.505 39.1616C248.613 38.5071 249.858 39.7725 249.186 40.8698L240.19 55.5456C239.756 56.2536 240.131 57.1795 240.935 57.3865L257.605 61.6762C258.852 61.9969 258.837 63.772 257.586 64.0723L240.848 68.0889C240.04 68.2827 239.65 69.2024 240.073 69.9173L248.827 84.7383Z" fill="url(#paint0_linear_2924_5426)"/>
<path d="M56.3296 255.237C57.118 256.572 55.5938 258.071 54.2722 257.261L36.5959 246.427C35.7431 245.904 34.6279 246.355 34.3787 247.324L29.2119 267.402C28.8256 268.904 26.6876 268.886 26.3259 267.379L21.4881 247.218C21.2547 246.246 20.147 245.776 19.2858 246.285L1.43471 256.829C0.100064 257.618 -1.39942 256.094 -0.589354 254.772L10.2453 237.096C10.768 236.243 10.3167 235.128 9.34809 234.878L-10.7305 229.712C-12.2317 229.325 -12.2142 227.187 -10.7069 226.826L9.45347 221.988C10.426 221.754 10.8955 220.647 10.3868 219.786L-0.157419 201.934C-0.945763 200.6 0.578423 199.1 1.90001 199.91L19.5764 210.745C20.4291 211.268 21.5443 210.816 21.7936 209.848L26.9603 189.769C27.3466 188.268 29.4847 188.286 29.8464 189.793L34.6842 209.953C34.9175 210.926 36.0252 211.395 36.8864 210.887L54.7375 200.342C56.0722 199.554 57.5716 201.078 56.7616 202.4L45.9269 220.076C45.4042 220.929 45.8555 222.044 46.8241 222.293L66.9027 227.46C68.4039 227.846 68.3864 229.984 66.8791 230.346L46.7188 235.184C45.7462 235.417 45.2767 236.525 45.7854 237.386L56.3296 255.237Z" fill="url(#paint1_linear_2924_5426)"/>
<g clip-path="url(#clip1_2924_5426)">
<g filter="url(#filter0_ii_2924_5426)">
<path d="M146.757 84.757C147.441 83.658 148.899 83.375 149.963 84.1126C159.532 90.7474 162.532 97.2285 162.966 101.34C163.128 102.886 161.48 103.607 160.027 103.052C158.075 102.306 156.33 102.015 154.925 101.965C155.784 104.308 157.427 109.898 158.084 115.824C168.037 114.854 201.48 123.953 190.205 160.921C180.362 193.19 166.705 189.738 161.106 183.979C153.197 191.96 145.135 185.145 142.092 180.739C128.447 189.351 119.097 179.489 116.128 173.481C116.08 176.644 86.4119 183.352 96.9612 138.359C106.129 99.2591 135.267 106.409 149.198 115.276C149.346 111.744 149.375 106.633 148.847 102.337C147.044 102.489 145.427 102.874 144.056 103.348C142.154 104.006 139.753 102.695 140.125 100.718C141.252 94.7317 144.387 88.5611 146.757 84.757Z" fill="#798ACD"/>
</g>
<g filter="url(#filter1_n_2924_5426)">
<ellipse cx="143.661" cy="134.764" rx="70.7104" ry="63.0517" transform="rotate(12.8535 143.661 134.764)" fill="url(#paint2_linear_2924_5426)" fill-opacity="0.9"/>
<path d="M157.565 73.8248C195.404 82.4587 219.734 116.773 212.067 150.373C204.4 183.973 167.594 204.338 129.755 195.704C91.9167 187.07 67.5876 152.756 75.2543 119.156C82.9211 85.5556 119.727 65.1911 157.565 73.8248Z" stroke="url(#paint3_linear_2924_5426)" stroke-width="1.09162"/>
</g>
<g filter="url(#filter2_ii_2924_5426)">
<path d="M110.949 197.503L109.287 189.776C108.897 187.963 110.212 186.224 112.067 186.191C129.932 185.872 148.746 191.226 157.915 194.653C159.563 195.269 160.243 197.183 159.435 198.746L156.14 205.117C155.502 206.352 154.103 206.992 152.748 206.682C134.227 202.445 120.078 200.709 113.481 199.849C112.222 199.685 111.216 198.744 110.949 197.503Z" fill="#3E4C8C"/>
</g>
<circle cx="135.107" cy="195.05" r="2.1226" transform="rotate(21.905 135.107 195.05)" fill="#CFD7F7"/>
<circle cx="121.598" cy="192.886" r="2.1226" transform="rotate(21.905 121.598 192.886)" fill="#CFD7F7"/>
<circle cx="148.165" cy="198.339" r="2.1226" transform="rotate(21.905 148.165 198.339)" fill="#CFD7F7"/>
<g filter="url(#filter3_g_2924_5426)">
<ellipse cx="136.077" cy="143.688" rx="10.4701" ry="9.26145" transform="rotate(14.1469 136.077 143.688)" fill="white"/>
</g>
<g filter="url(#filter4_g_2924_5426)">
<ellipse cx="137.464" cy="143.016" rx="7.09626" ry="6.47855" transform="rotate(14.1469 137.464 143.016)" fill="black"/>
</g>
<g filter="url(#filter5_g_2924_5426)">
<ellipse cx="163.944" cy="151.768" rx="9.4535" ry="9.26145" transform="rotate(14.1469 163.944 151.768)" fill="white"/>
</g>
<ellipse cx="148.568" cy="153.85" rx="3.03229" ry="2.42583" transform="rotate(17.9166 148.568 153.85)" fill="#FF581D"/>
<path d="M143.649 155.898L143.811 156.57C144.08 157.677 145.04 158.481 146.178 158.55V158.55" stroke="#852A0A" stroke-width="0.970333" stroke-linecap="round"/>
<g filter="url(#filter6_g_2924_5426)">
<ellipse cx="164.915" cy="150.869" rx="6.97562" ry="6.56688" transform="rotate(14.1469 164.915 150.869)" fill="black"/>
</g>
<path opacity="0.8" d="M122.407 92.2612L104.764 104.364C100.924 106.998 94.8457 109.177 92.6684 105.061C91.3253 102.521 92.638 99.2707 93.9848 97.3478C96.5684 93.9963 104.68 86.5782 116.459 83.7181C123.555 81.9952 126.212 83.371 126.833 85.4363C127.678 88.2461 124.827 90.6016 122.407 92.2612Z" fill="url(#paint4_linear_2924_5426)"/>
<path opacity="0.89" d="M87.848 109.058C94.6977 107.629 91.6648 115.822 89.2921 120.097C87.6213 122.301 85.2199 119.658 84.228 118.06C82.5806 115.655 80.9983 110.487 87.848 109.058Z" fill="url(#paint5_linear_2924_5426)"/>
</g>
<g filter="url(#filter7_d_2924_5426)">
<path d="M95.9252 194.403L99.4904 193.881C99.5331 193.875 99.5768 193.88 99.6175 193.896C99.6581 193.912 99.6943 193.939 99.7227 193.972L102.068 196.824C102.104 196.867 102.152 196.898 102.206 196.91C102.26 196.923 102.316 196.918 102.365 196.896C102.415 196.873 102.456 196.835 102.482 196.786C102.508 196.737 102.517 196.681 102.508 196.625L101.919 192.98C101.913 192.937 101.917 192.892 101.932 192.851C101.947 192.81 101.972 192.774 102.004 192.746L104.753 190.416C104.795 190.38 104.824 190.332 104.835 190.277C104.847 190.223 104.84 190.166 104.817 190.114C104.794 190.063 104.755 190.021 104.707 189.993C104.659 189.966 104.603 189.955 104.549 189.963L100.984 190.485C100.941 190.491 100.897 190.486 100.856 190.47C100.816 190.454 100.78 190.428 100.751 190.394L98.4061 187.542C98.3702 187.499 98.3217 187.469 98.268 187.456C98.2144 187.443 98.1584 187.448 98.1086 187.47C98.0588 187.493 98.0179 187.532 97.9921 187.58C97.9663 187.629 97.957 187.685 97.9656 187.741L98.5545 191.386C98.5611 191.43 98.5568 191.474 98.542 191.515C98.5271 191.556 98.5022 191.592 98.4696 191.621L95.7205 193.95C95.679 193.986 95.6503 194.034 95.6388 194.089C95.6273 194.143 95.6336 194.2 95.6567 194.252C95.6798 194.303 95.7185 194.345 95.767 194.373C95.8154 194.4 95.871 194.411 95.9252 194.403Z" fill="#00D0E8"/>
<path d="M222.057 123.192L225.622 122.67C225.665 122.664 225.709 122.669 225.749 122.685C225.79 122.702 225.826 122.728 225.855 122.762L228.2 125.613C228.236 125.656 228.284 125.687 228.338 125.7C228.391 125.712 228.447 125.707 228.497 125.685C228.547 125.662 228.588 125.624 228.614 125.575C228.639 125.526 228.649 125.47 228.64 125.414L228.051 121.769C228.045 121.726 228.049 121.681 228.064 121.64C228.079 121.599 228.104 121.563 228.136 121.535L230.885 119.205C230.927 119.17 230.955 119.121 230.967 119.066C230.979 119.012 230.972 118.955 230.949 118.904C230.926 118.852 230.887 118.81 230.839 118.782C230.79 118.755 230.735 118.744 230.681 118.752L227.115 119.274C227.073 119.28 227.029 119.275 226.988 119.259C226.948 119.243 226.911 119.217 226.883 119.183L224.538 116.331C224.502 116.288 224.454 116.258 224.4 116.245C224.346 116.232 224.29 116.237 224.24 116.26C224.191 116.282 224.15 116.321 224.124 116.369C224.098 116.418 224.089 116.475 224.097 116.53L224.686 120.175C224.693 120.219 224.689 120.263 224.674 120.304C224.659 120.345 224.634 120.382 224.601 120.41L221.852 122.739C221.811 122.775 221.782 122.824 221.771 122.878C221.759 122.932 221.765 122.99 221.789 123.041C221.812 123.092 221.85 123.134 221.899 123.162C221.947 123.189 222.003 123.2 222.057 123.192Z" fill="#00D0E8"/>
<path d="M180.376 68.2684L183.008 67.9977C183.039 67.9948 183.072 68.0011 183.103 68.0161C183.134 68.0311 183.162 68.0543 183.185 68.0834L185.058 70.5363C185.087 70.5734 185.125 70.6005 185.165 70.6135C185.206 70.6265 185.247 70.6247 185.283 70.6085C185.319 70.5922 185.348 70.5623 185.365 70.5232C185.382 70.4842 185.386 70.4382 185.378 70.3922L184.776 67.3647C184.769 67.3284 184.77 67.292 184.78 67.2589C184.789 67.2257 184.806 67.1969 184.829 67.1752L186.772 65.3801C186.801 65.3526 186.82 65.3137 186.826 65.2694C186.833 65.2251 186.825 65.1778 186.806 65.1345C186.786 65.0913 186.756 65.0546 186.718 65.0299C186.681 65.0052 186.639 64.9939 186.599 64.9977L183.968 65.2685C183.936 65.2714 183.903 65.265 183.872 65.25C183.841 65.2351 183.813 65.2119 183.791 65.1827L181.917 62.7299C181.888 62.6928 181.851 62.6657 181.81 62.6527C181.77 62.6397 181.728 62.6414 181.692 62.6577C181.656 62.674 181.628 62.7039 181.611 62.7429C181.593 62.782 181.589 62.828 181.598 62.874L182.199 65.9015C182.206 65.9377 182.205 65.9741 182.196 66.0073C182.187 66.0404 182.17 66.0692 182.147 66.091L180.204 67.8861C180.174 67.9136 180.155 67.9525 180.149 67.9968C180.143 68.0411 180.15 68.0884 180.17 68.1316C180.189 68.1748 180.22 68.2116 180.257 68.2362C180.295 68.2609 180.336 68.2722 180.376 68.2684Z" fill="#00D0E8"/>
<path d="M184.291 43.5825L187.335 42.8754C187.372 42.8674 187.411 42.8698 187.449 42.8826C187.487 42.8953 187.523 42.918 187.554 42.9483L190.071 45.5103C190.109 45.549 190.157 45.5748 190.206 45.5838C190.255 45.5928 190.303 45.5846 190.344 45.5603C190.384 45.536 190.413 45.4971 190.428 45.4493C190.443 45.4016 190.442 45.3476 190.426 45.2956L189.322 41.8777C189.309 41.8368 189.306 41.7944 189.312 41.7546C189.318 41.7148 189.334 41.6789 189.359 41.6503L191.396 39.28C191.427 39.2438 191.444 39.1959 191.445 39.1436C191.447 39.0914 191.432 39.0376 191.403 38.9905C191.375 38.9433 191.334 38.9054 191.287 38.8823C191.24 38.8593 191.19 38.8525 191.143 38.8628L188.099 39.5699C188.062 39.5779 188.023 39.5755 187.985 39.5627C187.947 39.55 187.911 39.5273 187.88 39.497L185.363 36.935C185.325 36.8963 185.277 36.8705 185.228 36.8615C185.179 36.8525 185.131 36.8607 185.09 36.885C185.05 36.9093 185.021 36.9482 185.006 36.996C184.991 37.0437 184.992 37.0977 185.008 37.1497L186.112 40.5675C186.125 40.6085 186.128 40.6509 186.122 40.6907C186.116 40.7305 186.1 40.7664 186.075 40.795L184.038 43.1653C184.007 43.2015 183.99 43.2494 183.989 43.3017C183.987 43.3539 184.002 43.4077 184.031 43.4548C184.059 43.502 184.1 43.5399 184.147 43.563C184.194 43.586 184.244 43.5928 184.291 43.5825Z" fill="#00D0E8"/>
<path d="M33.171 169.833L35.9489 169.665C35.9822 169.664 36.0162 169.672 36.0479 169.689C36.0796 169.706 36.1078 169.731 36.1299 169.762L37.9588 172.385C37.9869 172.425 38.0246 172.455 38.0665 172.47C38.1083 172.485 38.1519 172.485 38.1907 172.47C38.2295 172.454 38.2613 172.424 38.2814 172.385C38.3015 172.345 38.3087 172.298 38.302 172.249L37.8412 169.085C37.836 169.047 37.8394 169.009 37.8509 168.975C37.8625 168.941 37.8818 168.912 37.9073 168.891L40.0482 167.113C40.0806 167.085 40.1029 167.046 40.1118 167C40.1208 166.955 40.1159 166.905 40.0978 166.86C40.0797 166.814 40.0496 166.775 40.0118 166.747C39.974 166.72 39.9307 166.707 39.8885 166.709L37.1106 166.877C37.0773 166.879 37.0433 166.871 37.0116 166.854C36.9799 166.837 36.9517 166.812 36.9296 166.781L35.1007 164.157C35.0727 164.118 35.0349 164.088 34.993 164.073C34.9512 164.057 34.9076 164.057 34.8688 164.073C34.83 164.088 34.7982 164.118 34.7781 164.158C34.758 164.197 34.7508 164.245 34.7575 164.293L35.2183 167.458C35.2235 167.495 35.2202 167.533 35.2086 167.567C35.1971 167.601 35.1777 167.63 35.1523 167.652L33.0113 169.43C32.9789 169.457 32.9566 169.496 32.9477 169.542C32.9387 169.588 32.9437 169.637 32.9617 169.683C32.9798 169.728 33.01 169.768 33.0477 169.795C33.0855 169.822 33.1288 169.836 33.171 169.833Z" fill="#00D0E8"/>
<path d="M246.638 89.579L248.665 89.8205C248.689 89.8237 248.713 89.8339 248.733 89.8502C248.754 89.8665 248.771 89.8884 248.783 89.9138L249.761 92.0463C249.776 92.0786 249.799 92.105 249.827 92.1214C249.855 92.1379 249.887 92.1436 249.917 92.1376C249.947 92.1315 249.974 92.1142 249.993 92.0881C250.013 92.0621 250.025 92.0287 250.026 91.9932L250.107 89.6487C250.108 89.6206 250.115 89.5939 250.128 89.5709C250.141 89.5478 250.159 89.5293 250.18 89.5171L251.958 88.5134C251.984 88.4979 252.006 88.4724 252.018 88.4406C252.031 88.4088 252.033 88.3725 252.026 88.3372C252.019 88.3019 252.003 88.2695 251.979 88.245C251.955 88.2204 251.926 88.205 251.895 88.2011L249.868 87.9595C249.844 87.9564 249.82 87.9461 249.799 87.9298C249.779 87.9135 249.762 87.8916 249.75 87.8662L248.772 85.7337C248.757 85.7014 248.734 85.675 248.706 85.6586C248.677 85.6421 248.646 85.6365 248.616 85.6425C248.586 85.6485 248.559 85.6658 248.539 85.6919C248.52 85.7179 248.508 85.7513 248.507 85.7869L248.426 88.1314C248.425 88.1594 248.417 88.1862 248.405 88.2092C248.392 88.2322 248.374 88.2507 248.353 88.2629L246.575 89.2666C246.548 89.2821 246.527 89.3077 246.515 89.3395C246.502 89.3713 246.499 89.4076 246.506 89.4428C246.514 89.4781 246.53 89.5105 246.554 89.5351C246.578 89.5596 246.607 89.575 246.638 89.579Z" fill="#00D0E8"/>
<path d="M104.55 198.131L106.295 197.876C106.316 197.873 106.338 197.875 106.357 197.883C106.377 197.891 106.395 197.904 106.409 197.92L107.557 199.317C107.575 199.338 107.598 199.352 107.625 199.359C107.651 199.365 107.678 199.363 107.703 199.352C107.727 199.341 107.747 199.322 107.76 199.298C107.772 199.274 107.777 199.246 107.773 199.219L107.484 197.435C107.481 197.413 107.483 197.392 107.491 197.371C107.498 197.351 107.51 197.334 107.526 197.32L108.872 196.179C108.892 196.162 108.906 196.138 108.912 196.111C108.918 196.085 108.914 196.057 108.903 196.032C108.892 196.007 108.873 195.986 108.849 195.972C108.825 195.959 108.798 195.954 108.772 195.957L107.026 196.213C107.005 196.216 106.984 196.213 106.964 196.206C106.944 196.198 106.926 196.185 106.913 196.168L105.764 194.772C105.747 194.751 105.723 194.736 105.697 194.73C105.671 194.724 105.643 194.726 105.619 194.737C105.594 194.748 105.574 194.767 105.562 194.791C105.549 194.815 105.545 194.843 105.549 194.87L105.837 196.654C105.84 196.676 105.838 196.697 105.831 196.717C105.824 196.737 105.812 196.755 105.796 196.769L104.45 197.909C104.429 197.927 104.415 197.951 104.41 197.977C104.404 198.004 104.407 198.032 104.418 198.057C104.43 198.082 104.449 198.103 104.472 198.116C104.496 198.13 104.523 198.135 104.55 198.131Z" fill="#00D0E8"/>
<g opacity="0.38" filter="url(#filter8_f_2924_5426)">
<path d="M211.138 85.9688C208.865 86.2213 203.941 89.1883 202.237 90.8928" stroke="#00EEF7" stroke-width="0.378775" stroke-linecap="round"/>
</g>
<g opacity="0.38" filter="url(#filter9_f_2924_5426)">
<path d="M212.084 87.2891C210.44 87.4639 206.878 89.518 205.645 90.698" stroke="#00EEF7" stroke-width="0.378775" stroke-linecap="round"/>
</g>
<g opacity="0.28" filter="url(#filter10_d_2924_5426)">
<path d="M43.7086 160.798C67.084 101.056 126.742 47.4404 189.497 39.1409M143.959 235.258C162.124 206.346 220.834 151.045 250 146.5" stroke="url(#paint6_linear_2924_5426)" stroke-width="1.23782" stroke-linecap="round"/>
</g>
<path opacity="0.38" d="M74.8621 128C72.9279 130.431 68.4476 136.97 66 143.679" stroke="#00EEF7" stroke-width="2" stroke-linecap="round"/>
<path opacity="0.38" d="M233.189 138.161C228.266 139.631 216.135 144.251 207 150.971" stroke="#00EEF7" stroke-width="2.5" stroke-linecap="round"/>
<path opacity="0.38" d="M225 148.004C220.076 149.474 213.135 153.254 204 159.973" stroke="#00EEF7" stroke-linecap="round"/>
<path opacity="0.38" d="M58.513 167.975L58.0502 167.786L58.513 167.975ZM59.5289 168.848L59.9917 169.037L59.5289 168.848ZM65.8712 159.819L65.4134 159.618L65.4088 159.629L65.4047 159.639L65.8712 159.819ZM68.6297 161.129L68.18 160.911L68.1756 160.92L68.1716 160.929L68.6297 161.129ZM61.6703 177.043L62.12 177.261L62.1244 177.252L62.1284 177.243L61.6703 177.043ZM64.0798 178.759L64.5156 179.004L64.522 178.993L64.5278 178.981L64.0798 178.759ZM67.6573 172.666C67.7799 172.419 67.6787 172.119 67.4313 171.996C67.1839 171.874 66.8839 171.975 66.7613 172.222L67.2093 172.444L67.6573 172.666ZM55.7116 166.098L55.29 165.829C54.1906 167.553 54.405 169.331 55.4499 170.106C55.9844 170.503 56.6808 170.572 57.3431 170.229C57.9836 169.897 58.5501 169.207 58.9759 168.164L58.513 167.975L58.0502 167.786C57.6752 168.704 57.2365 169.158 56.8832 169.341C56.5518 169.513 56.266 169.467 56.0458 169.303C55.5811 168.958 55.1956 167.837 56.1331 166.367L55.7116 166.098ZM58.513 167.975L58.9759 168.164C59.0143 168.07 59.0745 168.017 59.1243 167.993C59.179 167.966 59.2018 167.979 59.1905 167.975C59.1618 167.962 59.1819 167.946 59.1954 168.021C59.2119 168.114 59.2059 168.316 59.066 168.658L59.5289 168.848L59.9917 169.037C60.1722 168.595 60.2414 168.193 60.18 167.847C60.1155 167.483 59.9045 167.192 59.5838 167.055C58.9776 166.796 58.2985 167.178 58.0502 167.786L58.513 167.975ZM59.5289 168.848L59.066 168.658C58.9475 168.948 58.8801 169.244 58.8827 169.517C58.8852 169.778 58.9552 170.093 59.2001 170.314C59.4689 170.556 59.8161 170.57 60.117 170.478C60.407 170.388 60.7062 170.191 61.0103 169.914C62.2152 168.818 64.035 165.972 66.3377 159.999L65.8712 159.819L65.4047 159.639C63.1052 165.603 61.3535 168.25 60.3375 169.175C60.0864 169.403 59.9148 169.494 59.8234 169.522C59.743 169.546 59.7983 169.507 59.8696 169.571C59.9169 169.614 59.8838 169.627 59.8827 169.507C59.8816 169.399 59.91 169.237 59.9917 169.037L59.5289 168.848ZM65.8712 159.819L66.3289 160.02C66.7133 159.146 67.4083 159.027 67.8474 159.217C68.0773 159.316 68.2609 159.505 68.3438 159.767C68.4263 160.027 68.4235 160.41 68.18 160.911L68.6297 161.129L69.0793 161.348C69.4109 160.666 69.4721 160.017 69.2971 159.465C69.1224 158.913 68.7268 158.508 68.2448 158.299C67.2601 157.873 66.0008 158.281 65.4134 159.618L65.8712 159.819ZM68.6297 161.129L68.1716 160.929L61.2122 176.842L61.6703 177.043L62.1284 177.243L69.0878 161.33L68.6297 161.129ZM61.6703 177.043L61.2206 176.824C60.8947 177.495 60.809 178.126 60.933 178.671C61.0574 179.219 61.3865 179.644 61.8183 179.892C62.6962 180.396 63.8868 180.123 64.5156 179.004L64.0798 178.759L63.6439 178.514C63.2688 179.182 62.6797 179.233 62.3164 179.025C62.1276 178.916 61.9708 178.725 61.9081 178.45C61.8449 178.172 61.871 177.774 62.12 177.261L61.6703 177.043ZM64.0798 178.759L64.5278 178.981L67.6573 172.666L67.2093 172.444L66.7613 172.222L63.6318 178.537L64.0798 178.759Z" fill="#00EEF7"/>
<path d="M70.2145 193.078C85.6456 200.446 101.186 209.032 115.6 218.263C120.496 221.4 127.96 226.167 131.502 230.626C137.216 237.826 122.878 233.012 120.026 232.064C105.165 227.134 87.9417 217.59 74.3028 209.938C64.0011 204.162 45.7034 194.735 38.2017 186.126C31.1992 178.09 47.9282 183.805 51.023 184.879C57.3552 187.073 64.1628 190.183 70.2145 193.073V193.078Z" fill="url(#paint7_linear_2924_5426)"/>
<path d="M34.5462 180.837C32.5306 182.682 33.5146 184.124 34.8457 186.025C39.186 192.23 51.1421 199.887 57.6834 204.061C61.6054 206.564 65.7365 209.234 69.7155 211.527C74.864 214.492 80.3167 217.004 85.5745 219.782C86.7155 219.852 85.8693 219.347 85.508 219.086C84.8472 218.6 84.0248 218.32 83.4495 217.704C83.5018 217.312 84.0343 217.522 84.31 217.615C88.27 218.946 93.5278 222.415 97.5448 224.283C105.641 228.046 113.523 231.197 122.332 233.593C122.712 233.695 127.318 234.382 126.567 234.909C122.85 235.054 119.398 233.102 115.89 232.351C115.5 232.267 114.54 231.968 114.635 232.635C119.845 233.863 127.152 237.206 132.515 236.403C133.541 236.249 135.951 235.776 135.001 236.763C130.114 238.822 124.623 237.72 119.636 236.613C96.2042 231.421 62.0427 213.138 43.2268 198.215C39.9324 195.605 31.5465 187.888 30.7906 183.952C30.32 181.491 32.2358 179.941 34.551 180.833L34.5462 180.837Z" fill="url(#paint8_linear_2924_5426)"/>
<path d="M78.6815 193.078C96.656 201.529 114.459 211.124 129.439 224.333C130.152 224.958 133.175 227.223 132.334 228.101C131.383 229.095 130.299 226.775 130.133 226.606C118.819 215.013 89.3731 199.662 74.3317 192.625C64.4008 187.98 53.8519 184.389 43.4267 180.99C43.4267 180.99 42.3938 180.849 42.3938 180.47C42.3938 180.091 43.0178 180.07 43.0178 180.07C55.3066 182.839 67.315 187.728 78.6815 193.074V193.078Z" fill="url(#paint9_linear_2924_5426)"/>
<path d="M29.1409 182.359C29.6924 186.369 33.0249 189.469 35.7108 192.383C42.68 199.937 51.7505 205.162 60.1981 211.031C61.6291 212.025 63.3262 212.922 64.5812 214.117C62.6607 214.178 61.244 212.53 59.7037 211.535C53.7424 207.683 47.1962 203.579 41.5201 199.144C32.9513 193.195 28 183.855 28 182.545C28 181.236 28.9469 181.237 29.1457 182.359C29.3444 183.48 29.1409 182.359 29.1409 182.359Z" fill="url(#paint10_linear_2924_5426)"/>
<path d="M129.133 240.129C129.322 239.939 130.965 240.384 131.849 240.496C135.999 241.019 142.769 241.075 140.929 235.734C140.686 235.015 139.549 233.311 140.235 233.021C141.633 232.554 143.943 237.826 143.905 239.278C143.872 240.384 143.039 242.456 140.991 242.84C137.435 243.508 132.709 241.388 129.258 240.576C129.085 240.477 128.944 240.318 129.133 240.129Z" fill="url(#paint11_linear_2924_5426)"/>
<path d="M40.9446 176.07C43.4975 177.041 46.4592 177.807 49.0976 178.848C49.6823 179.077 50.1583 179.149 49.939 179.698C43.6686 178.111 31.5983 175.929 29.54 178.564C29.8586 174.095 37.9877 174.945 40.9399 176.07H40.9446Z" fill="url(#paint12_linear_2924_5426)"/>
<path d="M71.351 210.108L83.0551 216.757C82.2564 216.85 81.6004 216.743 80.8493 216.472C78.4248 215.594 72.7486 212.186 70.2528 210.72C69.8963 210.51 69.7727 209.889 69.3448 209.637C63.6687 206.28 57.6503 203.301 52.6396 198.991C53.367 198.875 53.7663 199.033 54.3843 199.356C59.7943 202.152 65.4942 207.508 71.351 210.113V210.108Z" fill="url(#paint13_linear_2924_5426)"/>
<path d="M132.98 225.2C133.128 225.359 133.992 226.104 133.678 226.489C133.364 226.873 132.343 226.017 132.343 226.017L119.474 215.885C118.148 214.936 119.285 214.747 120.145 215.302C121.936 216.262 131.64 223.72 132.975 225.2H132.98Z" fill="url(#paint14_linear_2924_5426)"/>
<path d="M63.4212 185.365C62.8587 185.334 57.398 183.544 54.5789 182.521C53.5806 182.162 51.2946 181.227 51.4937 180.831C51.6734 180.471 53.5046 181.214 54.4839 181.485C56.3426 181.998 60.9159 183.432 62.4894 184.211C63.0504 184.491 63.2261 184.448 63.7942 185.016C63.7942 185.016 63.9836 185.395 63.4212 185.365Z" fill="url(#paint15_linear_2924_5426)"/>
<path d="M119.056 237.191C120.8 238.124 123.83 238.991 126.943 239.642C126.434 240.408 125.353 240.064 124.588 239.938C123.352 239.732 119.693 238.811 118.871 238.124C118.267 237.625 118.527 237.097 119.056 237.191Z" fill="url(#paint16_linear_2924_5426)"/>
<path d="M58.2444 181.174C58.8703 181.419 58.6809 182.177 57.8453 181.968C57.2035 181.874 54.4795 180.936 53.7902 180.632C53.2007 180.371 52.4312 179.904 53.0249 179.703L58.411 181.221L58.2444 181.174Z" fill="url(#paint17_linear_2924_5426)"/>
<path d="M135.804 232.64C135.462 232.967 134.906 232.705 134.554 232.164C134.04 231.379 133.551 230.833 133.113 230.184C132.766 229.67 132.809 229.255 133.304 229.25C134.112 229.236 136.47 232.005 135.809 232.644L135.804 232.64Z" fill="url(#paint18_linear_2924_5426)"/>
<g filter="url(#filter11_d_2924_5426)">
<path d="M62.4404 192.377C64.8832 193.9 72.2254 198.437 75.5082 200.71C77.4018 201.853 82.5154 204.125 84.0306 204.688C90.659 206.398 93.4998 208.67 96.7194 212.269C100.697 214.541 107.641 217.382 109.219 217.95C114.522 220.223 116.605 221.17 117.552 222.117C119.825 224.2 118.12 226.662 115.279 225.715C113.994 225.287 111.681 224.011 106.946 220.791C105.431 219.761 97.6663 215.299 95.5832 213.973C90.0908 212.269 86.8712 209.807 82.5154 206.582C81.5684 205.881 76.2655 203.557 74.3716 202.421C69.4476 200.148 63.1348 197.175 59.789 195.028C55.6225 192.57 57.3268 189.189 62.4404 192.377Z" fill="#D9E9FF"/>
</g>
<g filter="url(#filter12_d_2924_5426)">
<path d="M46.5315 188.976L54.1076 194.082C55.0542 194.845 54.2967 195.792 53.5394 195.22L44.6382 189.159C36.4942 183.295 43.3119 182.158 48.8047 184.992C52.2894 186.962 49.6757 187.587 47.6678 186.704C45.9628 185.954 44.2589 187.461 46.5315 188.976Z" fill="#D9E9FF"/>
</g>
<g filter="url(#filter13_d_2924_5426)">
<path d="M126.453 230.063C113.555 226.971 106.643 224.418 94.773 217.998C93.8131 217.613 93.9606 218.488 94.2567 218.699C105.431 227.033 124.516 231.053 127.075 231.208C129.634 231.362 129.286 228.45 127.491 227.664C125.696 226.878 125.658 227.925 126.831 228.548C127.828 229.077 128.025 230.574 126.453 230.063Z" fill="#D9E9FF"/>
</g>
<g filter="url(#filter14_d_2924_5426)">
<ellipse cx="53.9438" cy="187.71" rx="1.89388" ry="0.946938" transform="rotate(21.5898 53.9438 187.71)" fill="#D9E9FF"/>
</g>
<g filter="url(#filter15_d_2924_5426)">
<path d="M66.7964 193.336C67.3645 193.715 68.8418 194.51 70.2054 194.662C70.8998 194.662 72.6674 195.154 74.1825 197.124C74.6875 197.755 76.19 199.055 78.1596 199.207C79.4222 199.333 81.9474 199.851 81.9474 200.911" stroke="#D9E9FF" stroke-width="0.757551" stroke-linecap="round"/>
</g>
<g filter="url(#filter16_d_2924_5426)">
<path d="M80.0532 207.914C80.937 207.977 83.1213 208.709 84.7879 211.134" stroke="#D9E9FF" stroke-width="0.757551" stroke-linecap="round"/>
</g>
<g filter="url(#filter17_d_2924_5426)">
<path d="M98.803 210.945C99.6813 210.829 101.968 211.105 104.09 213.143" stroke="#D9E9FF" stroke-width="0.757551" stroke-linecap="round"/>
</g>
<g filter="url(#filter18_d_2924_5426)">
<path d="M97.2876 217.359C97.6889 217.72 99.6176 218.559 100.318 218.676" stroke="#D9E9FF" stroke-width="0.757551" stroke-linecap="round"/>
</g>
<g filter="url(#filter19_d_2924_5426)">
<path d="M101.075 219.172C101.328 219.523 102.243 219.938 102.485 219.965" stroke="#D9E9FF" stroke-width="0.757551" stroke-linecap="round"/>
</g>
<g filter="url(#filter20_d_2924_5426)">
<path d="M123.423 226.094C124.307 226.978 125.203 228.632 121.719 228.177" stroke="#D9E9FF" stroke-width="0.757551" stroke-linecap="round"/>
</g>
<g filter="url(#filter21_d_2924_5426)">
<ellipse cx="122.097" cy="224.008" rx="1.32571" ry="0.757551" transform="rotate(40.5264 122.097 224.008)" fill="#D9E9FF"/>
</g>
<g filter="url(#filter22_d_2924_5426)">
<path d="M77.6358 208.885C77.2571 209.074 64.1892 201.498 63.6211 200.741C63.053 199.984 68.0401 201.372 70.8178 203.392C76.5752 204.15 78.0145 208.695 77.6358 208.885Z" fill="#D9E9FF"/>
</g>
<g filter="url(#filter23_d_2924_5426)">
<path d="M97.729 209.43C97.6239 209.584 91.6122 206.257 91.2786 205.85C90.945 205.444 92.9854 205.795 94.3325 206.752C96.5453 206.64 97.8341 209.276 97.729 209.43Z" fill="#D9E9FF"/>
</g>
<path d="M211.72 74.6438C219.046 90.2547 227.642 106.005 236.938 120.646C240.098 125.619 244.898 133.2 249.47 136.852C256.853 142.745 252.168 128.291 251.247 125.415C246.453 110.436 236.898 92.9788 229.231 79.1524C223.446 68.7093 214.038 50.1811 205.225 42.4664C197.001 35.265 202.569 52.1321 203.617 55.2528C205.757 61.6381 208.842 68.5214 211.716 74.6436L211.72 74.6438Z" fill="url(#paint19_linear_2924_5426)"/>
<path d="M199.786 38.6842C201.76 36.7152 203.243 37.735 205.196 39.1133C211.573 43.6074 219.285 55.7515 223.488 62.3953C226.008 66.3787 228.698 70.5754 230.997 74.6106C233.97 79.8317 236.464 85.3457 239.239 90.6714C239.285 91.8138 238.779 90.9552 238.514 90.5875C238.023 89.9148 237.75 89.0856 237.12 88.4951C236.709 88.5376 236.916 89.0751 237.007 89.3531C238.302 93.3452 241.799 98.6883 243.654 102.751C247.39 110.938 250.493 118.897 252.784 127.763C252.882 128.146 253.489 132.768 254.058 132.031C254.298 128.318 252.342 124.819 251.641 121.293C251.563 120.901 251.274 119.933 251.969 120.045C253.126 125.284 256.443 132.673 255.476 138.013C255.291 139.036 254.738 141.433 255.792 140.508C258.06 135.674 257.04 130.157 256.004 125.144C251.142 101.589 232.863 66.9803 217.728 47.7967C215.081 44.438 207.221 35.8616 203.128 35.0075C200.57 34.4755 198.905 36.352 199.781 38.6888L199.786 38.6842Z" fill="url(#paint20_linear_2924_5426)"/>
<path d="M211.519 83.1182C219.916 101.299 229.511 119.337 242.948 134.642C243.584 135.371 245.877 138.45 246.814 137.631C247.875 136.705 245.478 135.564 245.306 135.393C233.469 123.792 218.139 93.9712 211.151 78.7583C206.536 68.7141 203.039 58.0785 199.738 47.5712C199.738 47.5712 199.615 46.5351 199.219 46.5256C198.824 46.5161 198.787 47.1395 198.787 47.1395C201.385 59.494 206.203 71.6211 211.515 83.118L211.519 83.1182Z" fill="url(#paint21_linear_2924_5426)"/>
<path d="M201.499 33.3173C205.674 33.9689 208.833 37.3779 211.811 40.1359C219.535 47.292 224.774 56.4905 230.702 65.0824C231.706 66.5378 232.602 68.2569 233.82 69.5414C233.93 67.6229 232.242 66.1655 231.24 64.6008C227.36 58.5448 223.23 51.898 218.733 46.1126C214.312 40.4241 203.089 32.2141 201.721 32.1814C200.354 32.1487 200.332 33.0954 201.499 33.3221C202.665 33.5488 201.499 33.3173 201.499 33.3173Z" fill="url(#paint22_linear_2924_5426)"/>
<path d="M259.45 134.722C259.248 134.906 259.673 136.559 259.769 137.446C260.216 141.608 260.113 148.377 254.578 146.404C253.833 146.143 252.08 144.965 251.761 145.643C251.24 147.029 256.691 149.47 258.208 149.468C259.365 149.463 261.548 148.682 261.999 146.644C262.781 143.106 260.68 138.329 259.914 134.858C259.815 134.682 259.652 134.537 259.45 134.722Z" fill="url(#paint23_linear_2924_5426)"/>
<path d="M194.654 44.9629C195.607 47.5392 196.336 50.5192 197.36 53.1829C197.585 53.7732 197.649 54.2509 198.228 54.0453C196.72 47.7371 194.73 35.6157 197.531 33.6239C192.857 33.8306 193.55 41.9786 194.654 44.9581L194.654 44.9629Z" fill="url(#paint24_linear_2924_5426)"/>
<path d="M229.478 76.2036L236.142 88.0705C236.259 87.2745 236.163 86.6159 235.898 85.8583C235.039 83.4125 231.615 77.6528 230.144 75.121C229.933 74.7594 229.287 74.6203 229.034 74.1862C225.664 68.4278 222.696 62.3366 218.315 57.2197C218.176 57.9439 218.332 58.3471 218.654 58.973C221.445 64.4513 226.902 70.2835 229.483 76.2037L229.478 76.2036Z" fill="url(#paint25_linear_2924_5426)"/>
<path d="M243.772 138.2C243.934 138.351 244.692 139.234 245.101 138.93C245.51 138.625 244.64 137.583 244.64 137.583L234.366 124.465C233.407 123.116 233.182 124.247 233.741 125.12C234.7 126.935 242.258 136.822 243.772 138.195L243.772 138.2Z" fill="url(#paint26_linear_2924_5426)"/>
<path d="M203.827 67.6693C203.809 67.1062 202.07 61.6023 201.069 58.7585C200.718 57.7514 199.797 55.4428 199.378 55.6318C198.997 55.8025 199.729 57.6517 199.989 58.6375C200.481 60.5086 201.868 65.1163 202.645 66.7089C202.924 67.2767 202.875 67.4513 203.455 68.0335C203.455 68.0335 203.846 68.2323 203.827 67.6693Z" fill="url(#paint27_linear_2924_5426)"/>
<path d="M256.626 124.572C257.559 126.339 258.391 129.39 258.997 132.518C259.809 132.029 259.476 130.94 259.362 130.171C259.177 128.931 258.302 125.25 257.605 124.41C257.098 123.794 256.54 124.042 256.626 124.572Z" fill="url(#paint28_linear_2924_5426)"/>
<path d="M199.572 62.3905C199.814 63.0223 200.61 62.8519 200.411 62.0113C200.329 61.3674 199.414 58.6207 199.113 57.924C198.855 57.3282 198.386 56.5472 198.161 57.1356L199.617 62.5582L199.572 62.3905Z" fill="url(#paint29_linear_2924_5426)"/>
<path d="M251.468 141.212C251.818 140.878 251.558 140.315 251.001 139.95C250.194 139.417 249.635 138.914 248.967 138.461C248.439 138.101 248.004 138.133 247.988 138.628C247.954 139.435 250.789 141.862 251.473 141.217L251.468 141.212Z" fill="url(#paint30_linear_2924_5426)"/>
<g filter="url(#filter24_d_2924_5426)">
<path d="M211.17 66.8528C212.702 69.333 217.266 76.7865 219.561 80.1251C220.709 82.0468 222.96 87.2158 223.512 88.7445C225.139 95.4138 227.444 98.3106 231.125 101.619C233.404 105.652 236.205 112.665 236.76 114.257C239.007 119.615 239.946 121.722 240.913 122.692C243.034 125.016 245.646 123.374 244.725 120.51C244.309 119.214 243.031 116.87 239.782 112.056C238.742 110.516 234.268 102.642 232.933 100.526C231.284 94.9926 228.79 91.7123 225.526 87.2772C224.816 86.3129 222.516 80.9534 221.375 79.0317C219.119 74.0522 216.165 67.6669 214.003 64.2684C211.534 60.0416 207.963 61.6609 211.17 66.8528Z" fill="#D9E9FF"/>
</g>
<g filter="url(#filter25_d_2924_5426)">
<path d="M207.997 50.8587L213.149 58.5603C213.923 59.5257 214.93 58.7921 214.35 58.0207L208.232 48.9705C202.303 40.6822 200.953 47.4696 203.781 53.0317C205.755 56.5646 206.471 53.9673 205.596 51.9379C204.853 50.2146 206.469 48.5489 207.997 50.8587Z" fill="#D9E9FF"/>
</g>
<g filter="url(#filter26_d_2924_5426)">
<path d="M249 131.793C246.079 118.822 243.578 111.848 237.157 99.8208C236.778 98.8516 237.689 99.0209 237.902 99.3222C246.338 110.701 250.08 129.882 250.181 132.444C250.281 135.006 247.248 134.586 246.47 132.771C245.691 130.957 246.786 130.945 247.408 132.134C247.937 133.143 249.497 133.378 249 131.793Z" fill="#D9E9FF"/>
</g>
<g filter="url(#filter27_d_2924_5426)">
<ellipse cx="1.90557" cy="0.983663" rx="1.90557" ry="0.983663" transform="matrix(0.359835 0.933016 0.94337 -0.331742 204.886 56.7969)" fill="#D9E9FF"/>
</g>
<g filter="url(#filter28_d_2924_5426)">
<path d="M212.062 71.2344C212.444 71.8118 213.239 73.3085 213.365 74.6755C213.348 75.3697 213.82 77.1492 215.841 78.7131C216.488 79.2337 217.811 80.7683 217.922 82.7412C218.023 84.0065 218.504 86.5439 219.611 86.5704" stroke="#D9E9FF" stroke-width="0.757551" stroke-linecap="round"/>
</g>
<g filter="url(#filter29_d_2924_5426)">
<path d="M226.975 84.8516C227.02 85.7367 227.732 87.9386 230.224 89.6654" stroke="#D9E9FF" stroke-width="0.757551" stroke-linecap="round"/>
</g>
<g filter="url(#filter30_d_2924_5426)">
<path d="M229.7 103.68C229.558 104.555 229.791 106.848 231.869 109.02" stroke="#D9E9FF" stroke-width="0.757551" stroke-linecap="round"/>
</g>
<g filter="url(#filter31_d_2924_5426)">
<path d="M236.428 102.312C236.795 102.723 237.625 104.672 237.731 105.375" stroke="#D9E9FF" stroke-width="0.757551" stroke-linecap="round"/>
</g>
<g filter="url(#filter32_d_2924_5426)">
<path d="M238.235 106.148C238.596 106.41 239.007 107.335 239.029 107.578" stroke="#D9E9FF" stroke-width="0.757551" stroke-linecap="round"/>
</g>
<g filter="url(#filter33_d_2924_5426)">
<path d="M244.926 128.665C245.828 129.571 247.534 130.508 247.143 127.013" stroke="#D9E9FF" stroke-width="0.757551" stroke-linecap="round"/>
</g>
<g filter="url(#filter34_d_2924_5426)">
<ellipse cx="1.35107" cy="0.777307" rx="1.35107" ry="0.777307" transform="matrix(0.648084 0.761569 0.788852 -0.614583 241.292 126.727)" fill="#D9E9FF"/>
</g>
<g filter="url(#filter35_d_2924_5426)">
<path d="M228.043 82.4517C228.251 82.0778 220.65 68.8243 219.873 68.2374C219.096 67.6505 220.427 72.671 222.47 75.4984C223.124 81.273 227.836 82.8255 228.043 82.4517Z" fill="#D9E9FF"/>
</g>
<g filter="url(#filter36_d_2924_5426)">
<path d="M228.136 102.561C228.3 102.46 224.968 96.3671 224.552 96.0234C224.135 95.6797 224.453 97.7283 225.421 99.0989C225.251 101.308 227.973 102.663 228.136 102.561Z" fill="#D9E9FF"/>
</g>
</g>
</g>
<defs>
<filter id="filter0_ii_2924_5426" x="89.2347" y="83.7031" width="103.264" height="105.252" filterUnits="userSpaceOnUse" color-interpolation-filters="sRGB">
<feFlood flood-opacity="0" result="BackgroundImageFix"/>
<feBlend mode="normal" in="SourceGraphic" in2="BackgroundImageFix" result="shape"/>
<feColorMatrix in="SourceAlpha" type="matrix" values="0 0 0 0 0 0 0 0 0 0 0 0 0 0 0 0 0 0 127 0" result="hardAlpha"/>
<feOffset dx="-5.45812" dy="1.21292"/>
<feGaussianBlur stdDeviation="4.51811"/>
<feComposite in2="hardAlpha" operator="arithmetic" k2="-1" k3="1"/>
<feColorMatrix type="matrix" values="0 0 0 0 1 0 0 0 0 0.912766 0 0 0 0 0.792818 0 0 0 0.8 0"/>
<feBlend mode="normal" in2="shape" result="effect1_innerShadow_2924_5426"/>
<feColorMatrix in="SourceAlpha" type="matrix" values="0 0 0 0 0 0 0 0 0 0 0 0 0 0 0 0 0 0 127 0" result="hardAlpha"/>
<feOffset dx="-0.606458" dy="0.606458"/>
<feGaussianBlur stdDeviation="0.303229"/>
<feComposite in2="hardAlpha" operator="arithmetic" k2="-1" k3="1"/>
<feColorMatrix type="matrix" values="0 0 0 0 0.871206 0 0 0 0 1 0 0 0 0 0.997853 0 0 0 0.5 0"/>
<feBlend mode="normal" in2="effect1_innerShadow_2924_5426" result="effect2_innerShadow_2924_5426"/>
</filter>
<filter id="filter1_n_2924_5426" x="73.2959" y="71.2969" width="140.729" height="126.938" filterUnits="userSpaceOnUse" color-interpolation-filters="sRGB">
<feFlood flood-opacity="0" result="BackgroundImageFix"/>
<feBlend mode="normal" in="SourceGraphic" in2="BackgroundImageFix" result="shape"/>
<feTurbulence type="fractalNoise" baseFrequency="0.17176233232021332 0.17176233232021332" stitchTiles="stitch" numOctaves="3" result="noise" seed="1999" />
<feColorMatrix in="noise" type="luminanceToAlpha" result="alphaNoise" />
<feComponentTransfer in="alphaNoise" result="coloredNoise1">
<feFuncA type="discrete" tableValues="1 1 1 1 1 1 1 1 1 1 1 1 1 1 1 1 1 1 1 1 1 1 1 1 1 1 1 1 1 1 1 1 1 1 1 1 1 1 1 1 1 1 1 1 1 1 1 1 1 1 1 0 0 0 0 0 0 0 0 0 0 0 0 0 0 0 0 0 0 0 0 0 0 0 0 0 0 0 0 0 0 0 0 0 0 0 0 0 0 0 0 0 0 0 0 0 0 0 0 0 "/>
</feComponentTransfer>
<feComposite operator="in" in2="shape" in="coloredNoise1" result="noise1Clipped" />
<feFlood flood-color="rgba(0, 0, 0, 0.08)" result="color1Flood" />
<feComposite operator="in" in2="noise1Clipped" in="color1Flood" result="color1" />
<feMerge result="effect1_noise_2924_5426">
<feMergeNode in="shape" />
<feMergeNode in="color1" />
</feMerge>
</filter>
<filter id="filter2_ii_2924_5426" x="102.79" y="186.18" width="56.9853" height="21.791" filterUnits="userSpaceOnUse" color-interpolation-filters="sRGB">
<feFlood flood-opacity="0" result="BackgroundImageFix"/>
<feBlend mode="normal" in="SourceGraphic" in2="BackgroundImageFix" result="shape"/>
<feColorMatrix in="SourceAlpha" type="matrix" values="0 0 0 0 0 0 0 0 0 0 0 0 0 0 0 0 0 0 127 0" result="hardAlpha"/>
<feOffset dx="-6.67104" dy="1.21292"/>
<feGaussianBlur stdDeviation="3.21423"/>
<feComposite in2="hardAlpha" operator="arithmetic" k2="-1" k3="1"/>
<feColorMatrix type="matrix" values="0 0 0 0 0.869328 0 0 0 0 0.719989 0 0 0 0 1 0 0 0 0.2 0"/>
<feBlend mode="normal" in2="shape" result="effect1_innerShadow_2924_5426"/>
<feColorMatrix in="SourceAlpha" type="matrix" values="0 0 0 0 0 0 0 0 0 0 0 0 0 0 0 0 0 0 127 0" result="hardAlpha"/>
<feOffset dx="-0.606458"/>
<feGaussianBlur stdDeviation="0.303229"/>
<feComposite in2="hardAlpha" operator="arithmetic" k2="-1" k3="1"/>
<feColorMatrix type="matrix" values="0 0 0 0 0.858824 0 0 0 0 0.976471 0 0 0 0 0.984314 0 0 0 0.2 0"/>
<feBlend mode="normal" in2="effect1_innerShadow_2924_5426" result="effect2_innerShadow_2924_5426"/>
</filter>
<filter id="filter3_g_2924_5426" x="125.37" y="134.041" width="21.4146" height="19.294" filterUnits="userSpaceOnUse" color-interpolation-filters="sRGB">
<feFlood flood-opacity="0" result="BackgroundImageFix"/>
<feBlend mode="normal" in="SourceGraphic" in2="BackgroundImageFix" result="shape"/>
<feTurbulence type="fractalNoise" baseFrequency="1.8321318626403809 1.8321318626403809" numOctaves="3" seed="3511" />
<feDisplacementMap in="shape" scale="0.60645800828933716" xChannelSelector="R" yChannelSelector="G" result="displacedImage" width="100%" height="100%" />
<feMerge result="effect1_texture_2924_5426">
<feMergeNode in="displacedImage"/>
</feMerge>
</filter>
<filter id="filter4_g_2924_5426" x="130.203" y="136.301" width="14.5233" height="13.4374" filterUnits="userSpaceOnUse" color-interpolation-filters="sRGB">
<feFlood flood-opacity="0" result="BackgroundImageFix"/>
<feBlend mode="normal" in="SourceGraphic" in2="BackgroundImageFix" result="shape"/>
<feTurbulence type="fractalNoise" baseFrequency="2.7895653247833252 2.7895653247833252" numOctaves="3" seed="3511" />
<feDisplacementMap in="shape" scale="0.39830970764160156" xChannelSelector="R" yChannelSelector="G" result="displacedImage" width="100%" height="100%" />
<feMerge result="effect1_texture_2924_5426">
<feMergeNode in="displacedImage"/>
</feMerge>
</filter>
<filter id="filter5_g_2924_5426" x="154.197" y="142.189" width="19.4951" height="19.1533" filterUnits="userSpaceOnUse" color-interpolation-filters="sRGB">
<feFlood flood-opacity="0" result="BackgroundImageFix"/>
<feBlend mode="normal" in="SourceGraphic" in2="BackgroundImageFix" result="shape"/>
<feTurbulence type="fractalNoise" baseFrequency="1.8321318626403809 1.8321318626403809" numOctaves="3" seed="3511" />
<feDisplacementMap in="shape" scale="0.60645800828933716" xChannelSelector="R" yChannelSelector="G" result="displacedImage" width="100%" height="100%" />
<feMerge result="effect1_texture_2924_5426">
<feMergeNode in="displacedImage"/>
</feMerge>
</filter>
<filter id="filter6_g_2924_5426" x="157.763" y="144.074" width="14.3053" height="13.5858" filterUnits="userSpaceOnUse" color-interpolation-filters="sRGB">
<feFlood flood-opacity="0" result="BackgroundImageFix"/>
<feBlend mode="normal" in="SourceGraphic" in2="BackgroundImageFix" result="shape"/>
<feTurbulence type="fractalNoise" baseFrequency="2.7895653247833252 2.7895653247833252" numOctaves="3" seed="3511" />
<feDisplacementMap in="shape" scale="0.39830970764160156" xChannelSelector="R" yChannelSelector="G" result="displacedImage" width="100%" height="100%" />
<feMerge result="effect1_texture_2924_5426">
<feMergeNode in="displacedImage"/>
</feMerge>
</filter>
<filter id="filter7_d_2924_5426" x="24.6992" y="32.1797" width="240.772" height="217.391" filterUnits="userSpaceOnUse" color-interpolation-filters="sRGB">
<feFlood flood-opacity="0" result="BackgroundImageFix"/>
<feColorMatrix in="SourceAlpha" type="matrix" values="0 0 0 0 0 0 0 0 0 0 0 0 0 0 0 0 0 0 127 0" result="hardAlpha"/>
<feOffset dy="3.30085"/>
<feGaussianBlur stdDeviation="1.65042"/>
<feComposite in2="hardAlpha" operator="out"/>
<feColorMatrix type="matrix" values="0 0 0 0 0 0 0 0 0 0 0 0 0 0 0 0 0 0 0.25 0"/>
<feBlend mode="normal" in2="BackgroundImageFix" result="effect1_dropShadow_2924_5426"/>
<feBlend mode="normal" in="SourceGraphic" in2="effect1_dropShadow_2924_5426" result="shape"/>
</filter>
<filter id="filter8_f_2924_5426" x="200.397" y="84.1308" width="12.5809" height="8.60554" filterUnits="userSpaceOnUse" color-interpolation-filters="sRGB">
<feFlood flood-opacity="0" result="BackgroundImageFix"/>
<feBlend mode="normal" in="SourceGraphic" in2="BackgroundImageFix" result="shape"/>
<feGaussianBlur stdDeviation="0.825212" result="effect1_foregroundBlur_2924_5426"/>
</filter>
<filter id="filter9_f_2924_5426" x="203.805" y="85.4511" width="10.119" height="7.08991" filterUnits="userSpaceOnUse" color-interpolation-filters="sRGB">
<feFlood flood-opacity="0" result="BackgroundImageFix"/>
<feBlend mode="normal" in="SourceGraphic" in2="BackgroundImageFix" result="shape"/>
<feGaussianBlur stdDeviation="0.825212" result="effect1_foregroundBlur_2924_5426"/>
</filter>
<filter id="filter10_d_2924_5426" x="38.5896" y="38.0234" width="216.529" height="206.352" filterUnits="userSpaceOnUse" color-interpolation-filters="sRGB">
<feFlood flood-opacity="0" result="BackgroundImageFix"/>
<feColorMatrix in="SourceAlpha" type="matrix" values="0 0 0 0 0 0 0 0 0 0 0 0 0 0 0 0 0 0 127 0" result="hardAlpha"/>
<feOffset dy="4"/>
<feGaussianBlur stdDeviation="2.25"/>
<feComposite in2="hardAlpha" operator="out"/>
<feColorMatrix type="matrix" values="0 0 0 0 0.475962 0 0 0 0 0.947596 0 0 0 0 1 0 0 0 0.78 0"/>
<feBlend mode="normal" in2="BackgroundImageFix" result="effect1_dropShadow_2924_5426"/>
<feBlend mode="normal" in="SourceGraphic" in2="effect1_dropShadow_2924_5426" result="shape"/>
</filter>
<filter id="filter11_d_2924_5426" x="57.4089" y="191.078" width="61.2342" height="36.018" filterUnits="userSpaceOnUse" color-interpolation-filters="sRGB">
<feFlood flood-opacity="0" result="BackgroundImageFix"/>
<feColorMatrix in="SourceAlpha" type="matrix" values="0 0 0 0 0 0 0 0 0 0 0 0 0 0 0 0 0 0 127 0" result="hardAlpha"/>
<feOffset dy="1.13633"/>
<feGaussianBlur stdDeviation="0.0189388"/>
<feComposite in2="hardAlpha" operator="out"/>
<feColorMatrix type="matrix" values="0 0 0 0 0 0 0 0 0 0.328572 0 0 0 0 0.758244 0 0 0 0.28 0"/>
<feBlend mode="normal" in2="BackgroundImageFix" result="effect1_dropShadow_2924_5426"/>
<feBlend mode="normal" in="SourceGraphic" in2="effect1_dropShadow_2924_5426" result="shape"/>
</filter>
<filter id="filter12_d_2924_5426" x="40.8403" y="183.508" width="13.7469" height="12.6861" filterUnits="userSpaceOnUse" color-interpolation-filters="sRGB">
<feFlood flood-opacity="0" result="BackgroundImageFix"/>
<feColorMatrix in="SourceAlpha" type="matrix" values="0 0 0 0 0 0 0 0 0 0 0 0 0 0 0 0 0 0 127 0" result="hardAlpha"/>
<feOffset dy="0.757551"/>
<feGaussianBlur stdDeviation="0.0189388"/>
<feComposite in2="hardAlpha" operator="out"/>
<feColorMatrix type="matrix" values="0 0 0 0 0 0 0 0 0 0.328572 0 0 0 0 0.758244 0 0 0 0.28 0"/>
<feBlend mode="normal" in2="BackgroundImageFix" result="effect1_dropShadow_2924_5426"/>
<feBlend mode="normal" in="SourceGraphic" in2="effect1_dropShadow_2924_5426" result="shape"/>
</filter>
<filter id="filter13_d_2924_5426" x="93.9953" y="217.898" width="34.9588" height="14.1079" filterUnits="userSpaceOnUse" color-interpolation-filters="sRGB">
<feFlood flood-opacity="0" result="BackgroundImageFix"/>
<feColorMatrix in="SourceAlpha" type="matrix" values="0 0 0 0 0 0 0 0 0 0 0 0 0 0 0 0 0 0 127 0" result="hardAlpha"/>
<feOffset dy="0.757551"/>
<feGaussianBlur stdDeviation="0.0189388"/>
<feComposite in2="hardAlpha" operator="out"/>
<feColorMatrix type="matrix" values="0 0 0 0 0 0 0 0 0 0.328572 0 0 0 0 0.758244 0 0 0 0.28 0"/>
<feBlend mode="normal" in2="BackgroundImageFix" result="effect1_dropShadow_2924_5426"/>
<feBlend mode="normal" in="SourceGraphic" in2="effect1_dropShadow_2924_5426" result="shape"/>
</filter>
<filter id="filter14_d_2924_5426" x="52.1106" y="186.586" width="3.66658" height="3.04543" filterUnits="userSpaceOnUse" color-interpolation-filters="sRGB">
<feFlood flood-opacity="0" result="BackgroundImageFix"/>
<feColorMatrix in="SourceAlpha" type="matrix" values="0 0 0 0 0 0 0 0 0 0 0 0 0 0 0 0 0 0 127 0" result="hardAlpha"/>
<feOffset dy="0.757551"/>
<feGaussianBlur stdDeviation="0.0189388"/>
<feComposite in2="hardAlpha" operator="out"/>
<feColorMatrix type="matrix" values="0 0 0 0 0 0 0 0 0 0.328572 0 0 0 0 0.758244 0 0 0 0.28 0"/>
<feBlend mode="normal" in2="BackgroundImageFix" result="effect1_dropShadow_2924_5426"/>
<feBlend mode="normal" in="SourceGraphic" in2="effect1_dropShadow_2924_5426" result="shape"/>
</filter>
<filter id="filter15_d_2924_5426" x="66.3796" y="192.961" width="15.9844" height="9.12355" filterUnits="userSpaceOnUse" color-interpolation-filters="sRGB">
<feFlood flood-opacity="0" result="BackgroundImageFix"/>
<feColorMatrix in="SourceAlpha" type="matrix" values="0 0 0 0 0 0 0 0 0 0 0 0 0 0 0 0 0 0 127 0" result="hardAlpha"/>
<feOffset dy="0.757551"/>
<feGaussianBlur stdDeviation="0.0189388"/>
<feComposite in2="hardAlpha" operator="out"/>
<feColorMatrix type="matrix" values="0 0 0 0 0 0 0 0 0 0.328572 0 0 0 0 0.758244 0 0 0 0.28 0"/>
<feBlend mode="normal" in2="BackgroundImageFix" result="effect1_dropShadow_2924_5426"/>
<feBlend mode="normal" in="SourceGraphic" in2="effect1_dropShadow_2924_5426" result="shape"/>
</filter>
<filter id="filter16_d_2924_5426" x="79.6364" y="207.539" width="5.56819" height="4.77199" filterUnits="userSpaceOnUse" color-interpolation-filters="sRGB">
<feFlood flood-opacity="0" result="BackgroundImageFix"/>
<feColorMatrix in="SourceAlpha" type="matrix" values="0 0 0 0 0 0 0 0 0 0 0 0 0 0 0 0 0 0 127 0" result="hardAlpha"/>
<feOffset dy="0.757551"/>
<feGaussianBlur stdDeviation="0.0189388"/>
<feComposite in2="hardAlpha" operator="out"/>
<feColorMatrix type="matrix" values="0 0 0 0 0 0 0 0 0 0.328572 0 0 0 0 0.758244 0 0 0 0.28 0"/>
<feBlend mode="normal" in2="BackgroundImageFix" result="effect1_dropShadow_2924_5426"/>
<feBlend mode="normal" in="SourceGraphic" in2="effect1_dropShadow_2924_5426" result="shape"/>
</filter>
<filter id="filter17_d_2924_5426" x="98.3862" y="210.547" width="6.12068" height="3.77199" filterUnits="userSpaceOnUse" color-interpolation-filters="sRGB">
<feFlood flood-opacity="0" result="BackgroundImageFix"/>
<feColorMatrix in="SourceAlpha" type="matrix" values="0 0 0 0 0 0 0 0 0 0 0 0 0 0 0 0 0 0 127 0" result="hardAlpha"/>
<feOffset dy="0.757551"/>
<feGaussianBlur stdDeviation="0.0189388"/>
<feComposite in2="hardAlpha" operator="out"/>
<feColorMatrix type="matrix" values="0 0 0 0 0 0 0 0 0 0.328572 0 0 0 0 0.758244 0 0 0 0.28 0"/>
<feBlend mode="normal" in2="BackgroundImageFix" result="effect1_dropShadow_2924_5426"/>
<feBlend mode="normal" in="SourceGraphic" in2="effect1_dropShadow_2924_5426" result="shape"/>
</filter>
<filter id="filter18_d_2924_5426" x="96.8711" y="216.984" width="3.86335" height="2.86574" filterUnits="userSpaceOnUse" color-interpolation-filters="sRGB">
<feFlood flood-opacity="0" result="BackgroundImageFix"/>
<feColorMatrix in="SourceAlpha" type="matrix" values="0 0 0 0 0 0 0 0 0 0 0 0 0 0 0 0 0 0 127 0" result="hardAlpha"/>
<feOffset dy="0.757551"/>
<feGaussianBlur stdDeviation="0.0189388"/>
<feComposite in2="hardAlpha" operator="out"/>
<feColorMatrix type="matrix" values="0 0 0 0 0 0 0 0 0 0.328572 0 0 0 0 0.758244 0 0 0 0.28 0"/>
<feBlend mode="normal" in2="BackgroundImageFix" result="effect1_dropShadow_2924_5426"/>
<feBlend mode="normal" in="SourceGraphic" in2="effect1_dropShadow_2924_5426" result="shape"/>
</filter>
<filter id="filter19_d_2924_5426" x="100.658" y="218.797" width="2.24397" height="2.3423" filterUnits="userSpaceOnUse" color-interpolation-filters="sRGB">
<feFlood flood-opacity="0" result="BackgroundImageFix"/>
<feColorMatrix in="SourceAlpha" type="matrix" values="0 0 0 0 0 0 0 0 0 0 0 0 0 0 0 0 0 0 127 0" result="hardAlpha"/>
<feOffset dy="0.757551"/>
<feGaussianBlur stdDeviation="0.0189388"/>
<feComposite in2="hardAlpha" operator="out"/>
<feColorMatrix type="matrix" values="0 0 0 0 0 0 0 0 0 0.328572 0 0 0 0 0.758244 0 0 0 0.28 0"/>
<feBlend mode="normal" in2="BackgroundImageFix" result="effect1_dropShadow_2924_5426"/>
<feBlend mode="normal" in="SourceGraphic" in2="effect1_dropShadow_2924_5426" result="shape"/>
</filter>
<filter id="filter20_d_2924_5426" x="121.302" y="225.719" width="3.33845" height="3.70949" filterUnits="userSpaceOnUse" color-interpolation-filters="sRGB">
<feFlood flood-opacity="0" result="BackgroundImageFix"/>
<feColorMatrix in="SourceAlpha" type="matrix" values="0 0 0 0 0 0 0 0 0 0 0 0 0 0 0 0 0 0 127 0" result="hardAlpha"/>
<feOffset dy="0.757551"/>
<feGaussianBlur stdDeviation="0.0189388"/>
<feComposite in2="hardAlpha" operator="out"/>
<feColorMatrix type="matrix" values="0 0 0 0 0 0 0 0 0 0.328572 0 0 0 0 0.758244 0 0 0 0.28 0"/>
<feBlend mode="normal" in2="BackgroundImageFix" result="effect1_dropShadow_2924_5426"/>
<feBlend mode="normal" in="SourceGraphic" in2="effect1_dropShadow_2924_5426" result="shape"/>
</filter>
<filter id="filter21_d_2924_5426" x="120.938" y="222.969" width="2.31916" height="2.87355" filterUnits="userSpaceOnUse" color-interpolation-filters="sRGB">
<feFlood flood-opacity="0" result="BackgroundImageFix"/>
<feColorMatrix in="SourceAlpha" type="matrix" values="0 0 0 0 0 0 0 0 0 0 0 0 0 0 0 0 0 0 127 0" result="hardAlpha"/>
<feOffset dy="0.757551"/>
<feGaussianBlur stdDeviation="0.0189388"/>
<feComposite in2="hardAlpha" operator="out"/>
<feColorMatrix type="matrix" values="0 0 0 0 0 0 0 0 0 0.328572 0 0 0 0 0.758244 0 0 0 0.28 0"/>
<feBlend mode="normal" in2="BackgroundImageFix" result="effect1_dropShadow_2924_5426"/>
<feBlend mode="normal" in="SourceGraphic" in2="effect1_dropShadow_2924_5426" result="shape"/>
</filter>
<filter id="filter22_d_2924_5426" x="63.5385" y="200.531" width="14.1917" height="9.1548" filterUnits="userSpaceOnUse" color-interpolation-filters="sRGB">
<feFlood flood-opacity="0" result="BackgroundImageFix"/>
<feColorMatrix in="SourceAlpha" type="matrix" values="0 0 0 0 0 0 0 0 0 0 0 0 0 0 0 0 0 0 127 0" result="hardAlpha"/>
<feOffset dy="0.757551"/>
<feGaussianBlur stdDeviation="0.0189388"/>
<feComposite in2="hardAlpha" operator="out"/>
<feColorMatrix type="matrix" values="0 0 0 0 0 0 0 0 0 0.328572 0 0 0 0 0.758244 0 0 0 0.28 0"/>
<feBlend mode="normal" in2="BackgroundImageFix" result="effect1_dropShadow_2924_5426"/>
<feBlend mode="normal" in="SourceGraphic" in2="effect1_dropShadow_2924_5426" result="shape"/>
</filter>
<filter id="filter23_d_2924_5426" x="91.2046" y="205.688" width="6.56843" height="4.54543" filterUnits="userSpaceOnUse" color-interpolation-filters="sRGB">
<feFlood flood-opacity="0" result="BackgroundImageFix"/>
<feColorMatrix in="SourceAlpha" type="matrix" values="0 0 0 0 0 0 0 0 0 0 0 0 0 0 0 0 0 0 127 0" result="hardAlpha"/>
<feOffset dy="0.757551"/>
<feGaussianBlur stdDeviation="0.0189388"/>
<feComposite in2="hardAlpha" operator="out"/>
<feColorMatrix type="matrix" values="0 0 0 0 0 0 0 0 0 0.328572 0 0 0 0 0.758244 0 0 0 0.28 0"/>
<feBlend mode="normal" in2="BackgroundImageFix" result="effect1_dropShadow_2924_5426"/>
<feBlend mode="normal" in="SourceGraphic" in2="effect1_dropShadow_2924_5426" result="shape"/>
</filter>
<filter id="filter24_d_2924_5426" x="209.86" y="61.8594" width="35.0938" height="63.1117" filterUnits="userSpaceOnUse" color-interpolation-filters="sRGB">
<feFlood flood-opacity="0" result="BackgroundImageFix"/>
<feColorMatrix in="SourceAlpha" type="matrix" values="0 0 0 0 0 0 0 0 0 0 0 0 0 0 0 0 0 0 127 0" result="hardAlpha"/>
<feOffset dy="1.13633"/>
<feGaussianBlur stdDeviation="0.0189388"/>
<feComposite in2="hardAlpha" operator="out"/>
<feColorMatrix type="matrix" values="0 0 0 0 0 0 0 0 0 0.328572 0 0 0 0 0.758244 0 0 0 0.28 0"/>
<feBlend mode="normal" in2="BackgroundImageFix" result="effect1_dropShadow_2924_5426"/>
<feBlend mode="normal" in="SourceGraphic" in2="effect1_dropShadow_2924_5426" result="shape"/>
</filter>
<filter id="filter25_d_2924_5426" x="202.323" y="45.1016" width="12.2374" height="14.7173" filterUnits="userSpaceOnUse" color-interpolation-filters="sRGB">
<feFlood flood-opacity="0" result="BackgroundImageFix"/>
<feColorMatrix in="SourceAlpha" type="matrix" values="0 0 0 0 0 0 0 0 0 0 0 0 0 0 0 0 0 0 127 0" result="hardAlpha"/>
<feOffset dy="0.757551"/>
<feGaussianBlur stdDeviation="0.0189388"/>
<feComposite in2="hardAlpha" operator="out"/>
<feColorMatrix type="matrix" values="0 0 0 0 0 0 0 0 0 0.328572 0 0 0 0 0.758244 0 0 0 0.28 0"/>
<feBlend mode="normal" in2="BackgroundImageFix" result="effect1_dropShadow_2924_5426"/>
<feBlend mode="normal" in="SourceGraphic" in2="effect1_dropShadow_2924_5426" result="shape"/>
</filter>
<filter id="filter26_d_2924_5426" x="237.028" y="99.0859" width="13.1929" height="35.9595" filterUnits="userSpaceOnUse" color-interpolation-filters="sRGB">
<feFlood flood-opacity="0" result="BackgroundImageFix"/>
<feColorMatrix in="SourceAlpha" type="matrix" values="0 0 0 0 0 0 0 0 0 0 0 0 0 0 0 0 0 0 127 0" result="hardAlpha"/>
<feOffset dy="0.757551"/>
<feGaussianBlur stdDeviation="0.0189388"/>
<feComposite in2="hardAlpha" operator="out"/>
<feColorMatrix type="matrix" values="0 0 0 0 0 0 0 0 0 0.328572 0 0 0 0 0.758244 0 0 0 0.28 0"/>
<feBlend mode="normal" in2="BackgroundImageFix" result="effect1_dropShadow_2924_5426"/>
<feBlend mode="normal" in="SourceGraphic" in2="effect1_dropShadow_2924_5426" result="shape"/>
</filter>
<filter id="filter27_d_2924_5426" x="205.308" y="56.4375" width="2.38362" height="4.41262" filterUnits="userSpaceOnUse" color-interpolation-filters="sRGB">
<feFlood flood-opacity="0" result="BackgroundImageFix"/>
<feColorMatrix in="SourceAlpha" type="matrix" values="0 0 0 0 0 0 0 0 0 0 0 0 0 0 0 0 0 0 127 0" result="hardAlpha"/>
<feOffset dy="0.757551"/>
<feGaussianBlur stdDeviation="0.0189388"/>
<feComposite in2="hardAlpha" operator="out"/>
<feColorMatrix type="matrix" values="0 0 0 0 0 0 0 0 0 0.328572 0 0 0 0 0.758244 0 0 0 0.28 0"/>
<feBlend mode="normal" in2="BackgroundImageFix" result="effect1_dropShadow_2924_5426"/>
<feBlend mode="normal" in="SourceGraphic" in2="effect1_dropShadow_2924_5426" result="shape"/>
</filter>
<filter id="filter28_d_2924_5426" x="211.645" y="70.8594" width="8.38288" height="16.8814" filterUnits="userSpaceOnUse" color-interpolation-filters="sRGB">
<feFlood flood-opacity="0" result="BackgroundImageFix"/>
<feColorMatrix in="SourceAlpha" type="matrix" values="0 0 0 0 0 0 0 0 0 0 0 0 0 0 0 0 0 0 127 0" result="hardAlpha"/>
<feOffset dy="0.757551"/>
<feGaussianBlur stdDeviation="0.0189388"/>
<feComposite in2="hardAlpha" operator="out"/>
<feColorMatrix type="matrix" values="0 0 0 0 0 0 0 0 0 0.328572 0 0 0 0 0.758244 0 0 0 0.28 0"/>
<feBlend mode="normal" in2="BackgroundImageFix" result="effect1_dropShadow_2924_5426"/>
<feBlend mode="normal" in="SourceGraphic" in2="effect1_dropShadow_2924_5426" result="shape"/>
</filter>
<filter id="filter29_d_2924_5426" x="226.558" y="84.4766" width="4.08284" height="6.36574" filterUnits="userSpaceOnUse" color-interpolation-filters="sRGB">
<feFlood flood-opacity="0" result="BackgroundImageFix"/>
<feColorMatrix in="SourceAlpha" type="matrix" values="0 0 0 0 0 0 0 0 0 0 0 0 0 0 0 0 0 0 127 0" result="hardAlpha"/>
<feOffset dy="0.757551"/>
<feGaussianBlur stdDeviation="0.0189388"/>
<feComposite in2="hardAlpha" operator="out"/>
<feColorMatrix type="matrix" values="0 0 0 0 0 0 0 0 0 0.328572 0 0 0 0 0.758244 0 0 0 0.28 0"/>
<feBlend mode="normal" in2="BackgroundImageFix" result="effect1_dropShadow_2924_5426"/>
<feBlend mode="normal" in="SourceGraphic" in2="effect1_dropShadow_2924_5426" result="shape"/>
</filter>
<filter id="filter30_d_2924_5426" x="229.248" y="103.305" width="3.0384" height="6.88918" filterUnits="userSpaceOnUse" color-interpolation-filters="sRGB">
<feFlood flood-opacity="0" result="BackgroundImageFix"/>
<feColorMatrix in="SourceAlpha" type="matrix" values="0 0 0 0 0 0 0 0 0 0 0 0 0 0 0 0 0 0 127 0" result="hardAlpha"/>
<feOffset dy="0.757551"/>
<feGaussianBlur stdDeviation="0.0189388"/>
<feComposite in2="hardAlpha" operator="out"/>
<feColorMatrix type="matrix" values="0 0 0 0 0 0 0 0 0 0.328572 0 0 0 0 0.758244 0 0 0 0.28 0"/>
<feBlend mode="normal" in2="BackgroundImageFix" result="effect1_dropShadow_2924_5426"/>
<feBlend mode="normal" in="SourceGraphic" in2="effect1_dropShadow_2924_5426" result="shape"/>
</filter>
<filter id="filter31_d_2924_5426" x="236.01" y="101.938" width="2.13899" height="4.60793" filterUnits="userSpaceOnUse" color-interpolation-filters="sRGB">
<feFlood flood-opacity="0" result="BackgroundImageFix"/>
<feColorMatrix in="SourceAlpha" type="matrix" values="0 0 0 0 0 0 0 0 0 0 0 0 0 0 0 0 0 0 127 0" result="hardAlpha"/>
<feOffset dy="0.757551"/>
<feGaussianBlur stdDeviation="0.0189388"/>
<feComposite in2="hardAlpha" operator="out"/>
<feColorMatrix type="matrix" values="0 0 0 0 0 0 0 0 0 0.328572 0 0 0 0 0.758244 0 0 0 0.28 0"/>
<feBlend mode="normal" in2="BackgroundImageFix" result="effect1_dropShadow_2924_5426"/>
<feBlend mode="normal" in="SourceGraphic" in2="effect1_dropShadow_2924_5426" result="shape"/>
</filter>
<filter id="filter32_d_2924_5426" x="237.818" y="105.773" width="1.62825" height="2.97512" filterUnits="userSpaceOnUse" color-interpolation-filters="sRGB">
<feFlood flood-opacity="0" result="BackgroundImageFix"/>
<feColorMatrix in="SourceAlpha" type="matrix" values="0 0 0 0 0 0 0 0 0 0 0 0 0 0 0 0 0 0 127 0" result="hardAlpha"/>
<feOffset dy="0.757551"/>
<feGaussianBlur stdDeviation="0.0189388"/>
<feComposite in2="hardAlpha" operator="out"/>
<feColorMatrix type="matrix" values="0 0 0 0 0 0 0 0 0 0.328572 0 0 0 0 0.758244 0 0 0 0.28 0"/>
<feBlend mode="normal" in2="BackgroundImageFix" result="effect1_dropShadow_2924_5426"/>
<feBlend mode="normal" in="SourceGraphic" in2="effect1_dropShadow_2924_5426" result="shape"/>
</filter>
<filter id="filter33_d_2924_5426" x="244.509" y="126.633" width="3.10749" height="4.04543" filterUnits="userSpaceOnUse" color-interpolation-filters="sRGB">
<feFlood flood-opacity="0" result="BackgroundImageFix"/>
<feColorMatrix in="SourceAlpha" type="matrix" values="0 0 0 0 0 0 0 0 0 0 0 0 0 0 0 0 0 0 127 0" result="hardAlpha"/>
<feOffset dy="0.757551"/>
<feGaussianBlur stdDeviation="0.0189388"/>
<feComposite in2="hardAlpha" operator="out"/>
<feColorMatrix type="matrix" values="0 0 0 0 0 0 0 0 0 0.328572 0 0 0 0 0.758244 0 0 0 0.28 0"/>
<feBlend mode="normal" in2="BackgroundImageFix" result="effect1_dropShadow_2924_5426"/>
<feBlend mode="normal" in="SourceGraphic" in2="effect1_dropShadow_2924_5426" result="shape"/>
</filter>
<filter id="filter34_d_2924_5426" x="241.674" y="126.141" width="2.21394" height="3.06887" filterUnits="userSpaceOnUse" color-interpolation-filters="sRGB">
<feFlood flood-opacity="0" result="BackgroundImageFix"/>
<feColorMatrix in="SourceAlpha" type="matrix" values="0 0 0 0 0 0 0 0 0 0 0 0 0 0 0 0 0 0 127 0" result="hardAlpha"/>
<feOffset dy="0.757551"/>
<feGaussianBlur stdDeviation="0.0189388"/>
<feComposite in2="hardAlpha" operator="out"/>
<feColorMatrix type="matrix" values="0 0 0 0 0 0 0 0 0 0.328572 0 0 0 0 0.758244 0 0 0 0.28 0"/>
<feBlend mode="normal" in2="BackgroundImageFix" result="effect1_dropShadow_2924_5426"/>
<feBlend mode="normal" in="SourceGraphic" in2="effect1_dropShadow_2924_5426" result="shape"/>
</filter>
<filter id="filter35_d_2924_5426" x="219.611" y="68.1875" width="8.47468" height="15.1157" filterUnits="userSpaceOnUse" color-interpolation-filters="sRGB">
<feFlood flood-opacity="0" result="BackgroundImageFix"/>
<feColorMatrix in="SourceAlpha" type="matrix" values="0 0 0 0 0 0 0 0 0 0 0 0 0 0 0 0 0 0 127 0" result="hardAlpha"/>
<feOffset dy="0.757551"/>
<feGaussianBlur stdDeviation="0.0189388"/>
<feComposite in2="hardAlpha" operator="out"/>
<feColorMatrix type="matrix" values="0 0 0 0 0 0 0 0 0 0.328572 0 0 0 0 0.758244 0 0 0 0.28 0"/>
<feBlend mode="normal" in2="BackgroundImageFix" result="effect1_dropShadow_2924_5426"/>
<feBlend mode="normal" in="SourceGraphic" in2="effect1_dropShadow_2924_5426" result="shape"/>
</filter>
<filter id="filter36_d_2924_5426" x="224.335" y="95.9844" width="3.84529" height="7.38137" filterUnits="userSpaceOnUse" color-interpolation-filters="sRGB">
<feFlood flood-opacity="0" result="BackgroundImageFix"/>
<feColorMatrix in="SourceAlpha" type="matrix" values="0 0 0 0 0 0 0 0 0 0 0 0 0 0 0 0 0 0 127 0" result="hardAlpha"/>
<feOffset dy="0.757551"/>
<feGaussianBlur stdDeviation="0.0189388"/>
<feComposite in2="hardAlpha" operator="out"/>
<feColorMatrix type="matrix" values="0 0 0 0 0 0 0 0 0 0.328572 0 0 0 0 0.758244 0 0 0 0.28 0"/>
<feBlend mode="normal" in2="BackgroundImageFix" result="effect1_dropShadow_2924_5426"/>
<feBlend mode="normal" in="SourceGraphic" in2="effect1_dropShadow_2924_5426" result="shape"/>
</filter>
<linearGradient id="paint0_linear_2924_5426" x1="216.032" y1="4.4242" x2="229.106" y2="107.111" gradientUnits="userSpaceOnUse">
<stop stop-color="#9CCFFF"/>
<stop offset="1" stop-color="#A7B3FF" stop-opacity="0"/>
</linearGradient>
<linearGradient id="paint1_linear_2924_5426" x1="16.8296" y1="158.503" x2="32.5769" y2="282.184" gradientUnits="userSpaceOnUse">
<stop stop-color="#9CCFFF"/>
<stop offset="1" stop-color="#A7B3FF" stop-opacity="0"/>
</linearGradient>
<linearGradient id="paint2_linear_2924_5426" x1="213.475" y1="116.707" x2="86.6885" y2="170.509" gradientUnits="userSpaceOnUse">
<stop stop-color="#B2E5FF" stop-opacity="0.2"/>
<stop offset="1" stop-color="white" stop-opacity="0"/>
</linearGradient>
<linearGradient id="paint3_linear_2924_5426" x1="96.1809" y1="69.1522" x2="102.514" y2="190.764" gradientUnits="userSpaceOnUse">
<stop stop-color="#3E4C8C"/>
<stop offset="0.586538" stop-color="#CECE84"/>
<stop offset="1" stop-color="#5B658F"/>
</linearGradient>
<linearGradient id="paint4_linear_2924_5426" x1="106.789" y1="85.0197" x2="120.549" y2="138.937" gradientUnits="userSpaceOnUse">
<stop stop-color="#D9F9FF"/>
<stop offset="0.440397" stop-color="#D9F9FF" stop-opacity="0"/>
</linearGradient>
<linearGradient id="paint5_linear_2924_5426" x1="84.8096" y1="107.997" x2="95.662" y2="115.167" gradientUnits="userSpaceOnUse">
<stop stop-color="#D9F9FF"/>
<stop offset="1" stop-color="#D9F9FF" stop-opacity="0"/>
</linearGradient>
<linearGradient id="paint6_linear_2924_5426" x1="246.608" y1="41.6425" x2="41.5526" y2="221.858" gradientUnits="userSpaceOnUse">
<stop stop-color="#00E6EF"/>
<stop offset="0.508018" stop-color="#9BFBFF"/>
<stop offset="1" stop-color="#00CCD4"/>
</linearGradient>
<linearGradient id="paint7_linear_2924_5426" x1="77.8254" y1="220.762" x2="93.2101" y2="192.451" gradientUnits="userSpaceOnUse">
<stop stop-color="#2D89B4"/>
<stop offset="0.46454" stop-color="#7ECEFF"/>
<stop offset="0.887717" stop-color="#FFF789"/>
</linearGradient>
<linearGradient id="paint8_linear_2924_5426" x1="75.5443" y1="222.927" x2="92.3545" y2="192.137" gradientUnits="userSpaceOnUse">
<stop stop-color="#2D89B4"/>
<stop offset="0.46454" stop-color="#7ECEFF"/>
<stop offset="0.887717" stop-color="#FFF789"/>
</linearGradient>
<linearGradient id="paint9_linear_2924_5426" x1="81.0368" y1="215.725" x2="95.0073" y2="189.524" gradientUnits="userSpaceOnUse">
<stop stop-color="#2D89B4"/>
<stop offset="0.46454" stop-color="#7ECEFF"/>
<stop offset="0.887717" stop-color="#FFF789"/>
</linearGradient>
<linearGradient id="paint10_linear_2924_5426" x1="43.6916" y1="205.601" x2="54.9637" y2="192.88" gradientUnits="userSpaceOnUse">
<stop stop-color="#2D89B4"/>
<stop offset="0.46454" stop-color="#7ECEFF"/>
<stop offset="0.887717" stop-color="#FFF789"/>
</linearGradient>
<linearGradient id="paint11_linear_2924_5426" x1="135.418" y1="240.36" x2="138.63" y2="235.551" gradientUnits="userSpaceOnUse">
<stop stop-color="#2D89B4"/>
<stop offset="0.46454" stop-color="#7ECEFF"/>
<stop offset="0.887717" stop-color="#FFF789"/>
</linearGradient>
<linearGradient id="paint12_linear_2924_5426" x1="38.3136" y1="178.515" x2="38.9761" y2="175.506" gradientUnits="userSpaceOnUse">
<stop stop-color="#2D89B4"/>
<stop offset="0.46454" stop-color="#7ECEFF"/>
<stop offset="0.887717" stop-color="#FFF789"/>
</linearGradient>
<linearGradient id="paint13_linear_2924_5426" x1="65.6864" y1="212.127" x2="71.0983" y2="202.852" gradientUnits="userSpaceOnUse">
<stop stop-color="#2D89B4"/>
<stop offset="0.46454" stop-color="#7ECEFF"/>
<stop offset="0.887717" stop-color="#FFF789"/>
</linearGradient>
<linearGradient id="paint14_linear_2924_5426" x1="125.25" y1="223.556" x2="129.164" y2="218.509" gradientUnits="userSpaceOnUse">
<stop stop-color="#2D89B4"/>
<stop offset="0.46454" stop-color="#7ECEFF"/>
<stop offset="0.887717" stop-color="#FFF789"/>
</linearGradient>
<linearGradient id="paint15_linear_2924_5426" x1="56.7762" y1="184.155" x2="57.8342" y2="181.322" gradientUnits="userSpaceOnUse">
<stop stop-color="#2D89B4"/>
<stop offset="0.46454" stop-color="#7ECEFF"/>
<stop offset="0.887717" stop-color="#FFF789"/>
</linearGradient>
<linearGradient id="paint16_linear_2924_5426" x1="122.134" y1="239.354" x2="122.772" y2="237.524" gradientUnits="userSpaceOnUse">
<stop stop-color="#2D89B4"/>
<stop offset="0.46454" stop-color="#7ECEFF"/>
<stop offset="0.887717" stop-color="#FFF789"/>
</linearGradient>
<linearGradient id="paint17_linear_2924_5426" x1="55.3007" y1="181.402" x2="55.848" y2="180.015" gradientUnits="userSpaceOnUse">
<stop stop-color="#2D89B4"/>
<stop offset="0.46454" stop-color="#7ECEFF"/>
<stop offset="0.887717" stop-color="#FFF789"/>
</linearGradient>
<linearGradient id="paint18_linear_2924_5426" x1="134.19" y1="231.86" x2="135.408" y2="230.807" gradientUnits="userSpaceOnUse">
<stop stop-color="#2D89B4"/>
<stop offset="0.46454" stop-color="#7ECEFF"/>
<stop offset="0.887717" stop-color="#FFF789"/>
</linearGradient>
<linearGradient id="paint19_linear_2924_5426" x1="240.453" y1="82.9446" x2="211.094" y2="98.6953" gradientUnits="userSpaceOnUse">
<stop stop-color="#2D89B4"/>
<stop offset="0.46454" stop-color="#7CC4FF"/>
<stop offset="0.887717" stop-color="#FFF789"/>
</linearGradient>
<linearGradient id="paint20_linear_2924_5426" x1="242.764" y1="80.7227" x2="210.837" y2="97.9339" gradientUnits="userSpaceOnUse">
<stop stop-color="#2D89B4"/>
<stop offset="0.46454" stop-color="#7CC4FF"/>
<stop offset="0.887717" stop-color="#FFF789"/>
</linearGradient>
<linearGradient id="paint21_linear_2924_5426" x1="235.116" y1="86.0389" x2="207.936" y2="100.338" gradientUnits="userSpaceOnUse">
<stop stop-color="#2D89B4"/>
<stop offset="0.46454" stop-color="#7CC4FF"/>
<stop offset="0.887717" stop-color="#FFF789"/>
</linearGradient>
<linearGradient id="paint22_linear_2924_5426" x1="225.425" y1="48.4449" x2="212.37" y2="59.9629" gradientUnits="userSpaceOnUse">
<stop stop-color="#2D89B4"/>
<stop offset="0.46454" stop-color="#7CC4FF"/>
<stop offset="0.887717" stop-color="#FFF789"/>
</linearGradient>
<linearGradient id="paint23_linear_2924_5426" x1="259.541" y1="141.011" x2="254.575" y2="144.302" gradientUnits="userSpaceOnUse">
<stop stop-color="#2D89B4"/>
<stop offset="0.46454" stop-color="#7CC4FF"/>
<stop offset="0.887717" stop-color="#FFF789"/>
</linearGradient>
<linearGradient id="paint24_linear_2924_5426" x1="197.27" y1="42.3937" x2="194.123" y2="43.0386" gradientUnits="userSpaceOnUse">
<stop stop-color="#2D89B4"/>
<stop offset="0.46454" stop-color="#7CC4FF"/>
<stop offset="0.887717" stop-color="#FFF789"/>
</linearGradient>
<linearGradient id="paint25_linear_2924_5426" x1="231.722" y1="70.5911" x2="222.117" y2="76.1356" gradientUnits="userSpaceOnUse">
<stop stop-color="#2D89B4"/>
<stop offset="0.46454" stop-color="#7CC4FF"/>
<stop offset="0.887717" stop-color="#FFF789"/>
</linearGradient>
<linearGradient id="paint26_linear_2924_5426" x1="242.24" y1="130.43" x2="237.044" y2="134.437" gradientUnits="userSpaceOnUse">
<stop stop-color="#2D89B4"/>
<stop offset="0.46454" stop-color="#7CC4FF"/>
<stop offset="0.887717" stop-color="#FFF789"/>
</linearGradient>
<linearGradient id="paint27_linear_2924_5426" x1="202.723" y1="60.996" x2="199.769" y2="62.0675" gradientUnits="userSpaceOnUse">
<stop stop-color="#2D89B4"/>
<stop offset="0.46454" stop-color="#7CC4FF"/>
<stop offset="0.887717" stop-color="#FFF789"/>
</linearGradient>
<linearGradient id="paint28_linear_2924_5426" x1="258.812" y1="127.704" x2="256.902" y2="128.347" gradientUnits="userSpaceOnUse">
<stop stop-color="#2D89B4"/>
<stop offset="0.46454" stop-color="#7CC4FF"/>
<stop offset="0.887717" stop-color="#FFF789"/>
</linearGradient>
<linearGradient id="paint29_linear_2924_5426" x1="199.882" y1="59.4533" x2="198.436" y2="60.0089" gradientUnits="userSpaceOnUse">
<stop stop-color="#2D89B4"/>
<stop offset="0.46454" stop-color="#7CC4FF"/>
<stop offset="0.887717" stop-color="#FFF789"/>
</linearGradient>
<linearGradient id="paint30_linear_2924_5426" x1="250.692" y1="139.579" x2="249.617" y2="140.817" gradientUnits="userSpaceOnUse">
<stop stop-color="#2D89B4"/>
<stop offset="0.46454" stop-color="#7CC4FF"/>
<stop offset="0.887717" stop-color="#FFF789"/>
</linearGradient>
<clipPath id="clip0_2924_5426">
<rect width="298" height="274" fill="white"/>
</clipPath>
<clipPath id="clip1_2924_5426">
<rect width="185.94" height="136.812" fill="white" transform="translate(79.3311 39.1797) rotate(21.905)"/>
</clipPath>
</defs>
</svg>
