<svg width="298" height="274" viewBox="0 0 298 274" fill="none" xmlns="http://www.w3.org/2000/svg">
<g clip-path="url(#clip0_2703_17155)">
<path d="M0.712076 19.1249L0.606622 19.2835L0.789924 19.3352L0.607204 19.3889L0.714403 19.5463L0.539914 19.47L0.52085 19.6595L0.436237 19.4889L0.299831 19.6218L0.344685 19.4367L0.154762 19.4508L0.308096 19.3379L0.153524 19.2266L0.343591 19.2386L0.296695 19.054L0.434561 19.1854L0.517285 19.0139L0.53844 19.2032L0.712076 19.1249Z" fill="white"/>
<path d="M63.4838 37.9531L63.3784 38.1116L63.5617 38.1633L63.3789 38.217L63.4861 38.3744L63.3116 38.2981L63.2926 38.4876L63.208 38.317L63.0716 38.4499L63.1164 38.2648L62.9265 38.2789L63.0798 38.166L62.9253 38.0547L63.1153 38.0668L63.0684 37.8822L63.2063 38.0136L63.289 37.842L63.3102 38.0313L63.4838 37.9531Z" fill="white"/>
<path d="M25.1147 59.5937L25.0092 59.7523L25.1925 59.8039L25.0098 59.8576L25.117 60.0151L24.9425 59.9387L24.9234 60.1282L24.8388 59.9576L24.7024 60.0905L24.7473 59.9054L24.5574 59.9196L24.7107 59.8066L24.5561 59.6953L24.7462 59.7074L24.6993 59.5228L24.8371 59.6542L24.9199 59.4826L24.941 59.6719L25.1147 59.5937Z" fill="white"/>
<path d="M31.0163 25.164L30.9108 25.3226L31.0941 25.3743L30.9114 25.428L31.0186 25.5854L30.8441 25.5091L30.825 25.6985L30.7404 25.5279L30.604 25.6608L30.6489 25.4757L30.459 25.4899L30.6123 25.3769L30.4577 25.2657L30.6478 25.2777L30.6009 25.0931L30.7388 25.2245L30.8215 25.053L30.8426 25.2422L31.0163 25.164Z" fill="white"/>
<path d="M12.9794 33.3593L12.874 33.5179L13.0573 33.5696L12.8745 33.6233L12.9817 33.7807L12.8072 33.7044L12.7882 33.8939L12.7036 33.7232L12.5672 33.8561L12.612 33.6711L12.4221 33.6852L12.5754 33.5722L12.4209 33.461L12.6109 33.473L12.564 33.2884L12.7019 33.4198L12.7846 33.2483L12.8058 33.4375L12.9794 33.3593Z" fill="white"/>
<path d="M127.104 54.0234L126.999 54.182L127.182 54.2336L127 54.2873L127.107 54.4447L126.932 54.3684L126.913 54.5579L126.829 54.3873L126.692 54.5202L126.737 54.3351L126.547 54.3492L126.7 54.2363L126.546 54.125L126.736 54.1371L126.689 53.9525L126.827 54.0839L126.91 53.9123L126.931 54.1016L127.104 54.0234Z" fill="white"/>
<path d="M69.7135 19.9218L69.6081 20.0804L69.7914 20.1321L69.6087 20.1858L69.7159 20.3432L69.5414 20.2669L69.5223 20.4564L69.4377 20.2857L69.3013 20.4186L69.3461 20.2336L69.1562 20.2477L69.3096 20.1347L69.155 20.0235L69.3451 20.0355L69.2982 19.8509L69.436 19.9823L69.5187 19.8108L69.5399 20L69.7135 19.9218Z" fill="white"/>
<path d="M208.761 38.9374L208.656 39.096L208.839 39.1477L208.657 39.2014L208.764 39.3588L208.589 39.2825L208.57 39.472L208.486 39.3014L208.349 39.4343L208.394 39.2492L208.204 39.2633L208.357 39.1504L208.203 39.0391L208.393 39.0511L208.346 38.8665L208.484 38.9979L208.567 38.8264L208.588 39.0157L208.761 38.9374Z" fill="white"/>
<path d="M132.68 92.7187L132.574 92.8773L132.757 92.9289L132.575 92.9826L132.682 93.1401L132.507 93.0637L132.488 93.2532L132.404 93.0826L132.267 93.2155L132.312 93.0304L132.122 93.0446L132.276 92.9316L132.121 92.8203L132.311 92.8324L132.264 92.6478L132.402 92.7792L132.485 92.6076L132.506 92.7969L132.68 92.7187Z" fill="white"/>
<path d="M69.3874 66.8124L69.2819 66.971L69.4652 67.0227L69.2825 67.0764L69.3897 67.2338L69.2152 67.1575L69.1961 67.347L69.1115 67.1764L68.9751 67.3093L69.02 67.1242L68.8301 67.1383L68.9834 67.0254L68.8288 66.9141L69.0189 66.9261L68.972 66.7415L69.1099 66.8729L69.1926 66.7014L69.2137 66.8907L69.3874 66.8124Z" fill="white"/>
<path d="M66.7638 117.641L66.6584 117.799L66.8417 117.851L66.659 117.905L66.7662 118.062L66.5917 117.986L66.5726 118.175L66.488 118.004L66.3516 118.137L66.3964 117.952L66.2065 117.966L66.3599 117.853L66.2053 117.742L66.3953 117.754L66.3485 117.57L66.4863 117.701L66.569 117.53L66.5902 117.719L66.7638 117.641Z" fill="white"/>
<path d="M262.872 113.047L262.767 113.205L262.95 113.257L262.768 113.311L262.875 113.468L262.7 113.392L262.681 113.581L262.597 113.411L262.46 113.544L262.505 113.359L262.315 113.373L262.468 113.26L262.314 113.148L262.504 113.161L262.457 112.976L262.595 113.107L262.678 112.936L262.699 113.125L262.872 113.047Z" fill="white"/>
<path d="M199.252 273.75L199.146 273.909L199.33 273.96L199.147 274.014L199.254 274.171L199.08 274.095L199.061 274.284L198.976 274.114L198.84 274.247L198.884 274.062L198.695 274.076L198.848 273.963L198.693 273.852L198.883 273.864L198.836 273.679L198.974 273.81L199.057 273.639L199.078 273.828L199.252 273.75Z" fill="white"/>
<path d="M256.971 149.453L256.865 149.612L257.049 149.663L256.866 149.717L256.973 149.874L256.799 149.798L256.78 149.988L256.695 149.817L256.559 149.95L256.603 149.765L256.414 149.779L256.567 149.666L256.412 149.555L256.602 149.567L256.555 149.382L256.693 149.514L256.776 149.342L256.797 149.531L256.971 149.453Z" fill="white"/>
<path d="M167.769 123.547L167.664 123.705L167.847 123.757L167.664 123.811L167.771 123.968L167.597 123.892L167.578 124.081L167.493 123.911L167.357 124.044L167.402 123.859L167.212 123.873L167.365 123.76L167.21 123.648L167.4 123.661L167.354 123.476L167.491 123.607L167.574 123.436L167.595 123.625L167.769 123.547Z" fill="white"/>
<path d="M99.2292 247.508L99.1237 247.666L99.307 247.718L99.1243 247.772L99.2315 247.929L99.057 247.853L99.0379 248.042L98.9533 247.872L98.8169 248.005L98.8618 247.819L98.6719 247.834L98.8252 247.721L98.6706 247.609L98.8607 247.621L98.8138 247.437L98.9517 247.568L99.0344 247.397L99.0555 247.586L99.2292 247.508Z" fill="white"/>
<path d="M19.5392 210.125L19.4338 210.284L19.6171 210.335L19.4344 210.389L19.5416 210.546L19.3671 210.47L19.348 210.659L19.2634 210.489L19.127 210.622L19.1718 210.437L18.9819 210.451L19.1352 210.338L18.9807 210.227L19.1707 210.239L19.1238 210.054L19.2617 210.185L19.3444 210.014L19.3656 210.203L19.5392 210.125Z" fill="white"/>
<path d="M20.5238 96.3281L20.4184 96.4866L20.6017 96.5383L20.419 96.592L20.5262 96.7494L20.3517 96.6731L20.3326 96.8626L20.248 96.692L20.1116 96.8249L20.1565 96.6398L19.9665 96.6539L20.1199 96.541L19.9653 96.4297L20.1554 96.4418L20.1085 96.2572L20.2463 96.3886L20.3291 96.217L20.3502 96.4063L20.5238 96.3281Z" fill="white"/>
<path d="M126.12 107.148L126.014 107.307L126.198 107.359L126.015 107.412L126.122 107.57L125.948 107.493L125.929 107.683L125.844 107.512L125.708 107.645L125.752 107.46L125.562 107.474L125.716 107.361L125.561 107.25L125.751 107.262L125.704 107.077L125.842 107.209L125.925 107.037L125.946 107.227L126.12 107.148Z" fill="white"/>
<path d="M276.319 185.203L276.213 185.362L276.396 185.413L276.214 185.467L276.321 185.624L276.146 185.548L276.127 185.738L276.043 185.567L275.906 185.7L275.951 185.515L275.761 185.529L275.915 185.416L275.76 185.305L275.95 185.317L275.903 185.132L276.041 185.264L276.124 185.092L276.145 185.281L276.319 185.203Z" fill="white"/>
<path d="M232.702 225.531L232.597 225.69L232.78 225.741L232.597 225.795L232.704 225.953L232.53 225.876L232.511 226.066L232.426 225.895L232.29 226.028L232.335 225.843L232.145 225.857L232.298 225.744L232.144 225.633L232.334 225.645L232.287 225.46L232.425 225.592L232.507 225.42L232.528 225.609L232.702 225.531Z" fill="white"/>
<path d="M172.36 134.367L172.255 134.526L172.438 134.577L172.255 134.631L172.362 134.788L172.188 134.712L172.169 134.902L172.084 134.731L171.948 134.864L171.993 134.679L171.803 134.693L171.956 134.58L171.801 134.469L171.992 134.481L171.945 134.296L172.083 134.428L172.165 134.256L172.186 134.445L172.36 134.367Z" fill="white"/>
<path d="M243.525 75.0077L243.419 75.1663L243.602 75.218L243.42 75.2717L243.527 75.4291L243.352 75.3528L243.333 75.5423L243.249 75.3717L243.112 75.5046L243.157 75.3195L242.967 75.3336L243.121 75.2207L242.966 75.1094L243.156 75.1214L243.109 74.9369L243.247 75.0682L243.33 74.8967L243.351 75.086L243.525 75.0077Z" fill="white"/>
<path d="M32.0007 243.906L31.8952 244.065L32.0785 244.116L31.8958 244.17L32.003 244.328L31.8285 244.251L31.8094 244.441L31.7248 244.27L31.5884 244.403L31.6333 244.218L31.4433 244.232L31.5967 244.119L31.4421 244.008L31.6322 244.02L31.5853 243.835L31.7231 243.967L31.8059 243.795L31.827 243.984L32.0007 243.906Z" fill="white"/>
<path d="M24.13 144.859L24.0246 145.018L24.2079 145.07L24.0252 145.123L24.1324 145.281L23.9579 145.204L23.9388 145.394L23.8542 145.223L23.7178 145.356L23.7627 145.171L23.5727 145.185L23.7261 145.072L23.5715 144.961L23.7616 144.973L23.7147 144.788L23.8525 144.92L23.9353 144.748L23.9564 144.938L24.13 144.859Z" fill="white"/>
<path d="M204.827 141.25L204.722 141.409L204.905 141.46L204.722 141.514L204.83 141.671L204.655 141.595L204.636 141.784L204.551 141.614L204.415 141.747L204.46 141.562L204.27 141.576L204.423 141.463L204.269 141.352L204.459 141.364L204.412 141.179L204.55 141.31L204.633 141.139L204.654 141.328L204.827 141.25Z" fill="white"/>
<path d="M152.356 188.484L152.25 188.643L152.433 188.695L152.251 188.748L152.358 188.906L152.183 188.829L152.164 189.019L152.08 188.848L151.943 188.981L151.988 188.796L151.798 188.81L151.952 188.697L151.797 188.586L151.987 188.598L151.94 188.413L152.078 188.545L152.161 188.373L152.182 188.563L152.356 188.484Z" fill="white"/>
<path d="M187.331 211.031L187.12 211.349L187.487 211.452L187.121 211.56L187.336 211.875L186.986 211.722L186.948 212.101L186.779 211.76L186.506 212.026L186.596 211.655L186.216 211.683L186.522 211.457L186.213 211.235L186.594 211.259L186.5 210.89L186.776 211.152L186.941 210.809L186.983 211.188L187.331 211.031Z" fill="white"/>
<path d="M106.173 155.281L105.962 155.599L106.329 155.702L105.963 155.81L106.178 156.125L105.829 155.972L105.791 156.351L105.621 156.01L105.348 156.276L105.438 155.905L105.058 155.933L105.365 155.707L105.055 155.485L105.436 155.509L105.342 155.14L105.618 155.402L105.783 155.059L105.826 155.438L106.173 155.281Z" fill="white"/>
<path d="M225.872 19.5157L225.661 19.8331L226.028 19.9365L225.662 20.0439L225.877 20.3589L225.527 20.2062L225.489 20.5854L225.32 20.244L225.047 20.5099L225.137 20.1395L224.757 20.1678L225.064 19.9418L224.754 19.7192L225.135 19.7432L225.041 19.3739L225.317 19.6368L225.482 19.2936L225.524 19.6723L225.872 19.5157Z" fill="white"/>
<path d="M154.38 20.4923L154.169 20.8096L154.536 20.913L154.171 21.0205L154.385 21.3355L154.036 21.1828L153.998 21.5619L153.828 21.2205L153.556 21.4865L153.645 21.1161L153.265 21.1444L153.572 20.9184L153.263 20.6957L153.643 20.7198L153.549 20.3505L153.825 20.6134L153.991 20.2701L154.033 20.6488L154.38 20.4923Z" fill="white"/>
<path d="M294.085 212.016L293.874 212.333L294.241 212.436L293.875 212.544L294.089 212.859L293.74 212.706L293.702 213.085L293.533 212.744L293.26 213.01L293.35 212.64L292.97 212.668L293.276 212.442L292.967 212.219L293.347 212.243L293.254 211.874L293.529 212.137L293.695 211.794L293.737 212.172L294.085 212.016Z" fill="white"/>
<path d="M65.1805 204.141L64.9695 204.458L65.3362 204.561L64.9706 204.669L65.1851 204.984L64.836 204.831L64.7978 205.21L64.6285 204.869L64.3556 205.135L64.4453 204.765L64.0653 204.793L64.3721 204.567L64.0628 204.344L64.4431 204.368L64.3493 203.999L64.6252 204.262L64.7907 203.919L64.833 204.297L65.1805 204.141Z" fill="white"/>
<path d="M18.2842 184.797L18.0732 185.114L18.44 185.218L18.0744 185.325L18.2889 185.64L17.9397 185.487L17.9016 185.867L17.7323 185.525L17.4593 185.791L17.5491 185.421L17.169 185.449L17.4759 185.223L17.1666 185L17.5469 185.024L17.4531 184.655L17.7289 184.918L17.8944 184.575L17.9368 184.954L18.2842 184.797Z" fill="white"/>
<path d="M2.2144 108.383L2.00339 108.7L2.37018 108.804L2.00456 108.911L2.21906 109.226L1.86991 109.073L1.83176 109.453L1.66245 109.111L1.3895 109.377L1.47925 109.007L1.09922 109.035L1.40604 108.809L1.09674 108.586L1.47706 108.61L1.38323 108.241L1.6591 108.504L1.82463 108.161L1.86696 108.539L2.2144 108.383Z" fill="white"/>
<path d="M233.712 1.33817L233.481 1.33118L233.652 1.57479L233.407 1.40635L233.417 1.63875L233.274 1.38769L233.118 1.50014L233.143 1.28391L232.895 1.2238L233.077 1.14359L232.852 0.939043L233.105 1.03238L233.009 0.779104L233.216 1.00232L233.293 0.818821L233.356 1.06746L233.571 1.03961L233.461 1.19734L233.712 1.33817Z" fill="white"/>
<path d="M294.217 84.5647L293.986 84.5577L294.156 84.8013L293.912 84.6329L293.922 84.8653L293.778 84.6142L293.623 84.7267L293.648 84.5105L293.4 84.4504L293.581 84.3702L293.357 84.1656L293.61 84.2589L293.514 84.0057L293.72 84.2289L293.798 84.0454L293.861 84.294L294.075 84.2662L293.965 84.4239L294.217 84.5647Z" fill="white"/>
<path d="M273.153 118.229L272.921 118.222L273.092 118.465L272.848 118.297L272.857 118.529L272.714 118.278L272.559 118.391L272.584 118.175L272.336 118.114L272.517 118.034L272.293 117.83L272.546 117.923L272.45 117.67L272.656 117.893L272.734 117.709L272.796 117.958L273.011 117.93L272.901 118.088L273.153 118.229Z" fill="white"/>
<path d="M219.974 28.4085L219.743 28.4015L219.913 28.6451L219.669 28.4767L219.679 28.7091L219.535 28.458L219.38 28.5705L219.405 28.3542L219.157 28.2941L219.339 28.2139L219.114 28.0094L219.367 28.1027L219.271 27.8494L219.477 28.0726L219.555 27.8891L219.618 28.1378L219.832 28.1099L219.723 28.2677L219.974 28.4085Z" fill="white"/>
<path d="M181.067 61.385L180.836 61.3781L181.006 61.6217L180.762 61.4532L180.772 61.6856L180.629 61.4346L180.473 61.547L180.498 61.3308L180.25 61.2707L180.432 61.1905L180.207 60.9859L180.46 61.0793L180.364 60.826L180.57 61.0492L180.648 60.8657L180.711 61.1143L180.925 61.0865L180.816 61.2442L181.067 61.385Z" fill="white"/>
<path d="M290.994 179.666L290.762 179.659L290.933 179.903L290.688 179.734L290.698 179.967L290.555 179.716L290.4 179.828L290.425 179.612L290.177 179.552L290.358 179.472L290.134 179.267L290.387 179.361L290.291 179.107L290.497 179.33L290.574 179.147L290.637 179.396L290.852 179.368L290.742 179.525L290.994 179.666Z" fill="white"/>
<path d="M125.913 189.893L125.682 189.886L125.852 190.129L125.608 189.961L125.618 190.193L125.475 189.942L125.319 190.055L125.344 189.839L125.096 189.778L125.278 189.698L125.053 189.494L125.306 189.587L125.21 189.334L125.417 189.557L125.494 189.374L125.557 189.622L125.772 189.594L125.662 189.752L125.913 189.893Z" fill="white"/>
<path d="M62.3285 73.4319L62.0972 73.4249L62.2677 73.6685L62.0233 73.5001L62.0331 73.7325L61.89 73.4814L61.7345 73.5939L61.7595 73.3777L61.5115 73.3176L61.693 73.2373L61.4685 73.0328L61.7216 73.1261L61.6256 72.8729L61.8318 73.0961L61.9094 72.9126L61.9722 73.1612L62.1869 73.1334L62.077 73.2911L62.3285 73.4319Z" fill="white"/>
<path d="M255.54 121.018L255.309 121.011L255.48 121.254L255.235 121.086L255.245 121.318L255.102 121.067L254.946 121.18L254.971 120.964L254.723 120.903L254.905 120.823L254.68 120.619L254.933 120.712L254.838 120.459L255.044 120.682L255.121 120.499L255.184 120.747L255.399 120.719L255.289 120.877L255.54 121.018Z" fill="white"/>
<path d="M288.526 192.502L288.295 192.495L288.466 192.739L288.221 192.57L288.231 192.803L288.088 192.552L287.932 192.664L287.958 192.448L287.709 192.388L287.891 192.308L287.666 192.103L287.92 192.196L287.824 191.943L288.03 192.166L288.107 191.983L288.17 192.232L288.385 192.204L288.275 192.361L288.526 192.502Z" fill="white"/>
<path d="M52.5206 111.401L52.2893 111.394L52.4599 111.637L52.2155 111.469L52.2253 111.701L52.0821 111.45L51.9266 111.563L51.9517 111.346L51.7036 111.286L51.8851 111.206L51.6606 111.002L51.9137 111.095L51.8178 110.842L52.024 111.065L52.1015 110.881L52.1643 111.13L52.3791 111.102L52.2691 111.26L52.5206 111.401Z" fill="white"/>
<path d="M113.661 32.4788L113.43 32.4718L113.6 32.7154L113.356 32.547L113.366 32.7794L113.223 32.5283L113.067 32.6408L113.092 32.4245L112.844 32.3644L113.026 32.2842L112.801 32.0797L113.054 32.173L112.958 31.9197L113.164 32.1429L113.242 31.9594L113.305 32.2081L113.519 32.1802L113.41 32.338L113.661 32.4788Z" fill="white"/>
<path d="M227.667 208.166L227.436 208.159L227.607 208.403L227.362 208.234L227.372 208.467L227.229 208.216L227.073 208.328L227.098 208.112L226.85 208.052L227.032 207.972L226.807 207.767L227.06 207.861L226.964 207.607L227.171 207.83L227.248 207.647L227.311 207.896L227.526 207.868L227.416 208.025L227.667 208.166Z" fill="white"/>
<path d="M251.23 263.622L250.767 263.608L251.108 264.096L250.619 263.759L250.639 264.224L250.352 263.721L250.041 263.946L250.091 263.514L249.595 263.393L249.958 263.233L249.509 262.823L250.015 263.01L249.823 262.503L250.236 262.95L250.391 262.583L250.517 263.08L250.946 263.025L250.726 263.34L251.23 263.622Z" fill="white"/>
<path d="M198.973 132.52L198.51 132.507L198.851 132.994L198.362 132.657L198.382 133.122L198.095 132.62L197.784 132.845L197.834 132.412L197.338 132.292L197.701 132.131L197.252 131.722L197.758 131.909L197.566 131.402L197.979 131.848L198.134 131.481L198.26 131.979L198.689 131.923L198.469 132.239L198.973 132.52Z" fill="white"/>
<path d="M118.115 120.763L117.652 120.749L117.993 121.236L117.504 120.899L117.524 121.364L117.237 120.862L116.926 121.087L116.976 120.654L116.48 120.534L116.843 120.373L116.394 119.964L116.9 120.151L116.708 119.644L117.121 120.091L117.276 119.723L117.402 120.221L117.832 120.165L117.612 120.481L118.115 120.763Z" fill="white"/>
<path d="M32.6116 181.817L32.1488 181.803L32.49 182.291L32.001 181.954L32.0206 182.419L31.7342 181.916L31.423 182.141L31.4731 181.709L30.9768 181.589L31.34 181.428L30.8907 181.019L31.3972 181.205L31.2052 180.699L31.6178 181.145L31.773 180.778L31.8987 181.276L32.3284 181.22L32.1084 181.536L32.6116 181.817Z" fill="white"/>
<path d="M78.8213 54.1064L78.3586 54.0925L78.6998 54.5799L78.2108 54.2429L78.2303 54.7079L77.9439 54.2055L77.6327 54.4305L77.6829 53.9979L77.1865 53.8776L77.5498 53.7171L77.1005 53.3078L77.6069 53.4946L77.4149 52.9878L77.8275 53.4344L77.9827 53.0672L78.1084 53.5648L78.5381 53.509L78.3181 53.8247L78.8213 54.1064Z" fill="white"/>
<path d="M2.16408 122.614L1.70132 122.6L2.04254 123.088L1.55354 122.751L1.57312 123.216L1.28669 122.713L0.97548 122.938L1.02563 122.506L0.529254 122.385L0.892529 122.225L0.443237 121.816L0.949654 122.002L0.757679 121.496L1.17028 121.942L1.32545 121.575L1.45117 122.073L1.88088 122.017L1.6609 122.332L2.16408 122.614Z" fill="white"/>
<path d="M248.827 84.7383C249.482 85.8464 248.216 87.0914 247.119 86.4188L232.443 77.4233C231.735 76.9893 230.809 77.364 230.602 78.1682L226.312 94.8385C225.992 96.0849 224.217 96.0704 223.916 94.8189L219.9 78.0807C219.706 77.2732 218.786 76.8835 218.071 77.3058L203.25 86.0602C202.142 86.7147 200.897 85.4492 201.57 84.352L210.565 69.6761C210.999 68.9682 210.625 68.0422 209.82 67.8353L193.15 63.5456C191.904 63.2249 191.918 61.4497 193.17 61.1494L209.908 57.1328C210.715 56.9391 211.105 56.0194 210.683 55.3044L201.928 40.4835C201.274 39.3754 202.539 38.1304 203.637 38.803L218.313 47.7985C219.021 48.2325 219.946 47.8578 220.153 47.0536L224.443 30.3833C224.764 29.1369 226.539 29.1514 226.839 30.4029L230.856 47.1411C231.05 47.9485 231.969 48.3383 232.684 47.916L247.505 39.1616C248.613 38.5071 249.858 39.7725 249.186 40.8698L240.19 55.5456C239.756 56.2536 240.131 57.1795 240.935 57.3865L257.605 61.6762C258.852 61.9969 258.837 63.772 257.586 64.0723L240.848 68.0889C240.04 68.2827 239.65 69.2024 240.073 69.9173L248.827 84.7383Z" fill="url(#paint0_linear_2703_17155)"/>
<path d="M56.3296 255.237C57.118 256.572 55.5938 258.071 54.2722 257.261L36.5959 246.427C35.7431 245.904 34.6279 246.355 34.3787 247.324L29.2119 267.402C28.8256 268.904 26.6876 268.886 26.3259 267.379L21.4881 247.218C21.2547 246.246 20.147 245.776 19.2858 246.285L1.43471 256.829C0.100064 257.618 -1.39942 256.094 -0.589354 254.772L10.2453 237.096C10.768 236.243 10.3167 235.128 9.34809 234.878L-10.7305 229.712C-12.2317 229.325 -12.2142 227.187 -10.7069 226.826L9.45347 221.988C10.426 221.754 10.8955 220.647 10.3868 219.786L-0.157419 201.934C-0.945763 200.6 0.578423 199.1 1.90001 199.91L19.5764 210.745C20.4291 211.268 21.5443 210.816 21.7936 209.848L26.9603 189.769C27.3466 188.268 29.4847 188.286 29.8464 189.793L34.6842 209.953C34.9175 210.926 36.0252 211.395 36.8864 210.887L54.7375 200.342C56.0722 199.554 57.5716 201.078 56.7616 202.4L45.9269 220.076C45.4042 220.929 45.8555 222.044 46.8241 222.293L66.9027 227.46C68.4039 227.846 68.3864 229.984 66.8791 230.346L46.7188 235.184C45.7462 235.417 45.2767 236.525 45.7854 237.386L56.3296 255.237Z" fill="url(#paint1_linear_2703_17155)"/>
<g filter="url(#filter0_ii_2703_17155)">
<path d="M126.838 75.9854C127.112 74.4353 128.628 73.4554 130.163 73.8047C143.968 76.9484 150.293 82.899 152.647 87.3408C153.532 89.0117 151.999 90.5723 150.108 90.6055C147.568 90.6498 145.467 91.1116 143.859 91.6924C145.938 93.9995 150.474 99.7531 153.93 106.313C156.264 103.987 159.146 101.821 162.351 100.219C165.613 98.4685 169.342 97.4756 173.302 97.4756C184.242 97.4757 193.41 105.05 195.854 115.239C204.803 118.455 211.203 127.016 211.203 137.071C211.203 142.977 208.994 148.365 205.359 152.46C204.909 153.077 204.428 153.7 203.915 154.327C204.241 155.877 204.415 157.484 204.415 159.132C204.415 171.941 194.03 182.325 181.221 182.325C180.338 182.325 179.466 182.273 178.608 182.177C174.257 188.718 166.541 193.068 157.746 193.068C152.185 193.068 147.056 191.329 142.935 188.397C139.349 190.645 135.122 191.944 130.594 191.944C118.726 191.944 108.917 183.033 107.341 171.461C98.5615 168.005 92.4101 159.99 92.4099 150.652C92.4099 142.064 97.6126 134.593 105.278 130.76C105.21 130.045 105.175 129.322 105.175 128.591C105.175 115.469 116.318 104.832 130.064 104.832C134.196 104.832 138.093 105.793 141.522 107.494C141.999 107.661 142.482 107.836 142.97 108.021C141.533 104.093 139.459 99.0079 137.174 94.8682C135.207 95.8576 133.557 97.0263 132.224 98.1846C130.377 99.7891 127.075 99.3996 126.597 97C125.153 89.7349 125.89 81.3515 126.838 75.9854Z" fill="#FECA7A"/>
</g>
<g filter="url(#filter1_g_2703_17155)">
<ellipse cx="145.575" cy="140.9" rx="12.7306" ry="11.261" transform="rotate(-8.01099 145.575 140.9)" fill="white"/>
</g>
<g filter="url(#filter2_g_2703_17155)">
<ellipse cx="146.213" cy="140.692" rx="8.62837" ry="7.8773" transform="rotate(-8.01099 146.213 140.692)" fill="black"/>
</g>
<g filter="url(#filter3_g_2703_17155)">
<ellipse cx="180.664" cy="137.229" rx="11.4945" ry="11.261" transform="rotate(-8.01099 180.664 137.229)" fill="white"/>
</g>
<ellipse cx="164.306" cy="146.63" rx="3.68697" ry="2.94958" transform="rotate(-4.24128 164.306 146.63)" fill="#FF581D"/>
<path d="M159.705 151.195L160.196 151.877C161.006 153.001 162.455 153.465 163.768 153.021V153.021" stroke="#852A0A" stroke-width="1.17984" stroke-linecap="round"/>
<g filter="url(#filter4_g_2703_17155)">
<ellipse cx="180.724" cy="136.928" rx="8.48168" ry="7.9847" transform="rotate(-8.01099 180.724 136.928)" fill="black"/>
</g>
<g filter="url(#filter5_n_2703_17155)">
<ellipse cx="144.786" cy="133.686" rx="85.9775" ry="76.6652" transform="rotate(-9.30433 144.786 133.686)" fill="url(#paint2_linear_2703_17155)" fill-opacity="0.9"/>
<path d="M132.498 58.6843C179.068 51.0545 222.201 78.5384 228.977 119.892C235.752 161.246 203.644 201.058 157.074 208.687C110.503 216.317 67.3697 188.832 60.5946 147.479C53.8196 106.125 85.9277 66.3141 132.498 58.6843Z" stroke="url(#paint3_linear_2703_17155)" stroke-width="1.32732"/>
</g>
<g filter="url(#filter6_ii_2703_17155)">
<path d="M136.72 219.336L131.305 211.397C130.034 209.534 130.718 206.973 132.791 206.085C152.763 197.534 176.405 194.935 188.301 194.589C190.44 194.526 192.084 196.37 191.89 198.501L191.102 207.186C190.949 208.869 189.668 210.232 187.999 210.505C165.2 214.227 148.471 218.761 140.647 220.817C139.154 221.21 137.59 220.611 136.72 219.336Z" fill="#C57C42"/>
</g>
<circle cx="162.801" cy="205.484" r="2.58088" transform="rotate(-0.252845 162.801 205.484)" fill="#F3F5C0"/>
<circle cx="146.595" cy="209.257" r="2.58088" transform="rotate(-0.252845 146.595 209.257)" fill="#F3F5C0"/>
<circle cx="179.012" cy="203.218" r="2.58088" transform="rotate(-0.252845 179.012 203.218)" fill="#F3F5C0"/>
<path opacity="0.8" d="M101.361 95.5667L87.0435 117.286C83.927 122.014 78.0814 127.255 73.7418 123.618C71.0649 121.374 71.0524 117.112 71.6873 114.329C73.0597 109.37 78.7927 97.2963 90.7454 88.6738C97.9454 83.4799 101.569 83.8102 103.216 85.8513C105.455 88.628 103.325 92.5882 101.361 95.5667Z" fill="url(#paint4_linear_2703_17155)"/>
<path opacity="0.89" d="M70.1465 130.338C77.2046 125.588 77.5464 136.205 76.835 142.107C75.9644 145.356 72.048 143.48 70.1986 142.137C67.2403 140.183 63.0884 135.089 70.1465 130.338Z" fill="url(#paint5_linear_2703_17155)"/>
<ellipse cx="148.155" cy="132.419" rx="10.2656" ry="3.44906" transform="rotate(7.65684 148.155 132.419)" fill="#FDCB80"/>
<ellipse cx="176.129" cy="128.919" rx="7.40338" ry="2.53328" transform="rotate(-32.189 176.129 128.919)" fill="#F9D187"/>
<path d="M132.912 130.422C136.286 132.966 146.386 137.755 159.794 136.56" stroke="#FECD83" stroke-width="3.95977"/>
<path d="M161.01 136.164C165.235 136.104 176.149 133.694 186.007 124.529" stroke="url(#paint6_linear_2703_17155)" stroke-width="3.95977"/>
<path d="M241.103 144.161L242.642 145.52L240.354 147.79C236.203 145.809 227.797 141.705 227.389 141.133C226.98 140.561 220.794 138.785 217.752 137.968L196.761 151.24L195.842 176.457L212.79 199.019L217.203 203.841C217.568 204.24 217.188 204.854 216.668 204.707C189.525 197.061 186.048 166.379 187.87 149.879C188.014 148.569 188.873 147.465 190.076 146.926C204.313 140.543 211.355 136.504 214.06 134.604C214.848 134.051 215.775 133.672 216.738 133.672C217.404 133.672 218.059 133.835 218.649 134.142C228.391 139.213 237.529 142.92 241.103 144.161Z" fill="#8EAAC3"/>
<g filter="url(#filter7_i_2703_17155)">
<path d="M240.966 144.161L242.505 145.52L240.217 147.79C236.065 145.809 227.66 141.705 227.251 141.133C226.843 140.561 220.657 138.785 217.614 137.968L196.624 151.24L195.705 176.457L212.652 199.019L217.984 204.07C218.391 204.456 218.02 205.109 217.481 204.953C190.51 197.181 186.01 166.353 187.739 149.88C187.876 148.569 188.736 147.465 189.939 146.926C204.175 140.543 211.218 136.504 213.923 134.604C214.711 134.051 215.638 133.672 216.601 133.672C217.267 133.672 217.922 133.835 218.512 134.142C228.254 139.213 237.392 142.92 240.966 144.161Z" fill="#9E8EC3"/>
</g>
<g filter="url(#filter8_if_2703_17155)">
<path d="M188.897 147.742C191.532 149.131 193.657 149.29 194.266 149.29L195.424 158.165L196.44 160.08L195.843 176.456L212.79 199.019L214.742 201.152L215.194 204.26C189.4 195.935 186.082 166.074 187.87 149.879C187.961 149.056 188.334 148.314 188.897 147.742Z" fill="#565796"/>
</g>
<g filter="url(#filter9_iii_2703_17155)">
<path d="M217.057 135.823C206.611 142.535 199.024 145.787 195.042 147.039C193.71 147.457 192.617 148.55 192.41 149.93C187.186 184.642 206.068 200.56 217.319 204.662C218.004 204.911 218.77 204.835 219.406 204.48C243.412 191.084 245.619 161.744 243.556 147.113C243.415 146.118 242.709 145.31 241.76 144.977C233.205 141.973 224.387 137.922 219.822 135.668C218.937 135.231 217.888 135.289 217.057 135.823Z" fill="url(#paint7_linear_2703_17155)"/>
</g>
<g filter="url(#filter10_i_2703_17155)">
<path d="M218.892 196.733C230.269 189.463 235.18 177.775 236.892 167.403C238.566 157.258 229.445 148.909 220.68 143.536C219.469 142.794 218.965 143.369 217.713 144.039C210.211 148.059 203.657 151.156 200.243 152.682C199.41 153.054 198.798 153.814 198.651 154.714C194.77 178.544 209.408 192.461 217.847 196.791C218.18 196.962 218.576 196.935 218.892 196.733Z" fill="url(#paint8_linear_2703_17155)"/>
</g>
<g filter="url(#filter11_i_2703_17155)">
<path d="M219.167 143.247C219.529 143.056 219.966 143.079 220.312 143.299C222.741 144.841 228.52 147.909 236.474 150.494C236.868 150.622 237.161 150.951 237.219 151.361C238.748 162.117 237.109 185.085 218.892 196.726C218.577 196.927 218.181 196.954 217.848 196.783C217.751 196.733 217.653 196.68 217.554 196.628C221.033 176.378 220.197 153.958 219.167 143.247Z" fill="url(#paint9_linear_2703_17155)"/>
</g>
<path d="M78.9451 184.968C89.156 189.368 96.6886 194.665 95.7698 196.798C95.7547 196.833 95.736 196.867 95.7165 196.9C95.7059 196.937 95.6942 196.974 95.679 197.009C95.6644 197.043 95.6467 197.075 95.6282 197.107C95.6172 197.146 95.6052 197.185 95.5892 197.222C95.5729 197.26 95.5529 197.296 95.5315 197.331C95.521 197.368 95.5086 197.404 95.4935 197.439C95.4807 197.469 95.4649 197.497 95.449 197.526C95.4378 197.566 95.4257 197.607 95.409 197.645C95.3926 197.683 95.3724 197.72 95.3509 197.756C95.3404 197.792 95.328 197.829 95.3129 197.864C95.2966 197.901 95.2766 197.937 95.2552 197.973C95.2446 198.009 95.2323 198.046 95.2172 198.081C95.2027 198.114 95.1852 198.146 95.1667 198.178C95.1558 198.217 95.1438 198.256 95.1278 198.293C95.1106 198.333 95.0893 198.371 95.0665 198.408C95.0563 198.443 95.0444 198.477 95.0303 198.509C95.0158 198.543 94.9983 198.575 94.9798 198.607C94.9689 198.646 94.9569 198.685 94.9408 198.722C94.9264 198.756 94.9089 198.788 94.8904 198.819C94.8795 198.858 94.8675 198.897 94.8514 198.934C94.8363 198.969 94.8176 199.003 94.7981 199.036C94.7875 199.073 94.7756 199.11 94.7602 199.146C94.7457 199.18 94.7283 199.212 94.7098 199.243C94.6988 199.282 94.6869 199.321 94.6708 199.358C94.6524 199.401 94.6291 199.441 94.6043 199.481C94.5942 199.515 94.5828 199.548 94.5688 199.58C94.5537 199.615 94.535 199.649 94.5155 199.682C94.5049 199.719 94.4933 199.756 94.478 199.791C94.4634 199.825 94.4458 199.858 94.4272 199.889C94.4162 199.928 94.4042 199.967 94.3882 200.004C94.3737 200.038 94.3562 200.07 94.3377 200.102C94.3268 200.141 94.3148 200.18 94.2988 200.217C94.2837 200.252 94.265 200.285 94.2455 200.318C94.2349 200.355 94.2232 200.392 94.208 200.428C94.1916 200.466 94.1714 200.502 94.1499 200.538C94.1394 200.574 94.127 200.611 94.1119 200.646C94.0956 200.683 94.0756 200.719 94.0542 200.755C94.0436 200.792 94.0313 200.828 94.0162 200.863C94.0017 200.896 93.9842 200.928 93.9657 200.96C93.9548 200.999 93.9428 201.038 93.9268 201.075C93.9115 201.111 93.8927 201.144 93.8731 201.178C93.8625 201.215 93.8508 201.252 93.8356 201.287C93.8192 201.325 93.7993 201.361 93.7779 201.396C93.7673 201.433 93.755 201.469 93.7399 201.504C93.7254 201.538 93.7079 201.57 93.6894 201.601C93.6785 201.641 93.6665 201.679 93.6504 201.716C93.6353 201.752 93.6166 201.785 93.5972 201.818C93.5865 201.855 93.5746 201.893 93.5592 201.928C93.5447 201.962 93.5273 201.994 93.5088 202.025C93.4979 202.065 93.4859 202.103 93.4698 202.141C92.5502 204.274 83.5272 202.436 73.3161 198.036C63.105 193.636 55.5725 188.339 56.4914 186.206C56.506 186.172 56.5227 186.139 56.5413 186.107C56.5522 186.068 56.5649 186.03 56.5808 185.993C56.5961 185.958 56.6142 185.923 56.634 185.89C56.6445 185.853 56.6569 185.817 56.672 185.782C56.6866 185.748 56.7033 185.715 56.722 185.683C56.7328 185.644 56.7455 185.606 56.7614 185.569C56.778 185.531 56.7972 185.494 56.819 185.458C56.8294 185.422 56.8423 185.387 56.8571 185.352C56.8723 185.317 56.8903 185.283 56.9099 185.249C56.9205 185.212 56.9331 185.176 56.9483 185.14C56.9629 185.107 56.9796 185.074 56.9983 185.042C57.0092 185.003 57.0218 184.965 57.0377 184.928C57.0543 184.89 57.0735 184.853 57.0953 184.817C57.1057 184.781 57.1186 184.745 57.1335 184.711C57.15 184.673 57.1693 184.635 57.191 184.6C57.2015 184.563 57.2146 184.527 57.2295 184.493C57.2448 184.457 57.2626 184.423 57.2823 184.39C57.2929 184.353 57.3052 184.317 57.3204 184.282C57.335 184.248 57.3516 184.215 57.3703 184.183C57.3812 184.145 57.3939 184.107 57.4098 184.07C57.4243 184.036 57.4411 184.003 57.4597 183.971C57.4706 183.932 57.4836 183.893 57.4996 183.856C57.5148 183.821 57.5326 183.787 57.5523 183.754C57.5629 183.717 57.5753 183.681 57.5904 183.646C57.6084 183.604 57.6307 183.564 57.6549 183.526C57.6651 183.491 57.6781 183.457 57.6924 183.424C57.7073 183.389 57.7234 183.355 57.7426 183.322C57.7533 183.284 57.7663 183.247 57.7818 183.211C57.7971 183.176 57.8152 183.141 57.835 183.108C57.8455 183.071 57.8579 183.035 57.873 183C57.8876 182.966 57.9043 182.933 57.923 182.901C57.9338 182.862 57.9465 182.824 57.9624 182.787C57.977 182.753 57.9937 182.72 58.0124 182.689C58.0232 182.65 58.0359 182.612 58.0518 182.575C58.0687 182.536 58.0891 182.498 58.1114 182.461C58.1217 182.426 58.1349 182.392 58.1493 182.358C58.1643 182.324 58.1803 182.289 58.1995 182.257C58.2103 182.219 58.2232 182.182 58.2387 182.146C58.2549 182.108 58.274 182.072 58.2951 182.037C58.3057 182 58.3192 181.964 58.3344 181.929C58.3508 181.891 58.3692 181.853 58.3907 181.818C58.4012 181.781 58.4155 181.746 58.4305 181.711C58.4439 181.68 58.4581 181.649 58.4748 181.62C58.4858 181.581 58.4989 181.542 58.5151 181.505C58.5312 181.467 58.5503 181.431 58.5714 181.396C58.5821 181.359 58.5955 181.323 58.6108 181.288C58.6253 181.254 58.6412 181.22 58.6598 181.189C58.6707 181.15 58.6846 181.111 58.7006 181.074C58.7158 181.039 58.7328 181.004 58.7524 180.971C58.763 180.934 58.7763 180.898 58.7914 180.863C59.7111 178.73 68.7341 180.568 78.9451 184.968Z" fill="url(#paint10_linear_2703_17155)"/>
<g filter="url(#filter12_i_2703_17155)">
<path d="M95.86 196.587C94.9407 198.72 85.9176 196.882 75.7063 192.482C65.495 188.082 57.9623 182.785 58.8816 180.652C59.8009 178.518 68.824 180.356 79.0354 184.756C89.2467 189.157 96.7793 194.453 95.86 196.587Z" fill="url(#paint11_linear_2703_17155)"/>
</g>
<path d="M95.9826 146.238L111.013 152.715C110.109 156.775 106.268 164.423 97.8545 165.705C95.9153 166 92.8419 167.154 91.9312 168.892C89.8347 172.891 93.3747 176.327 94.0866 180.786C94.7915 185.201 94.8185 190.205 92.6608 193.22C92.4571 193.505 92.1747 193.703 91.8568 193.82L91.8993 193.892C86.4819 194.619 81.0842 193.175 76.3758 190.934C71.644 189.103 67.0133 186.279 63.8252 182.042C63.7727 181.98 63.7241 181.916 63.6821 181.848C63.6407 181.792 63.5979 181.736 63.557 181.679L63.5894 181.671C63.4817 181.431 63.4383 181.166 63.4808 180.899C64.0742 177.172 67.8084 173.661 71.5817 171.087C75.3118 168.542 80.2404 168.755 81.7076 164.485C82.3447 162.63 81.0724 159.604 79.9554 157.992C75.1088 150.996 78.0294 142.95 80.3601 139.505L95.983 146.237L95.9826 146.238Z" fill="url(#paint12_linear_2703_17155)"/>
<path d="M99.1082 138.179C109.319 142.579 116.851 147.876 115.933 150.009C115.918 150.044 115.899 150.078 115.879 150.111C115.869 150.149 115.857 150.185 115.842 150.221C115.827 150.254 115.81 150.286 115.791 150.318C115.78 150.357 115.768 150.396 115.752 150.433C115.736 150.47 115.716 150.506 115.695 150.541C115.685 150.578 115.672 150.615 115.657 150.65C115.643 150.681 115.628 150.711 115.612 150.74C115.601 150.78 115.588 150.819 115.572 150.857C115.554 150.899 115.531 150.938 115.507 150.976C115.496 151.011 115.484 151.046 115.47 151.079C115.455 151.113 115.439 151.145 115.42 151.177C115.409 151.216 115.396 151.254 115.38 151.292C115.366 151.325 115.349 151.358 115.331 151.389C115.32 151.429 115.307 151.468 115.29 151.505C115.273 151.544 115.253 151.582 115.231 151.619C115.221 151.653 115.208 151.687 115.193 151.72C115.179 151.754 115.162 151.787 115.144 151.818C115.133 151.857 115.12 151.896 115.104 151.933C115.089 151.966 115.073 151.999 115.054 152.031C115.043 152.07 115.031 152.108 115.015 152.145C114.999 152.181 114.981 152.215 114.962 152.248C114.951 152.285 114.939 152.322 114.923 152.357C114.908 152.391 114.892 152.425 114.873 152.457C114.862 152.496 114.85 152.533 114.834 152.569C114.816 152.611 114.793 152.65 114.769 152.688C114.759 152.723 114.746 152.758 114.732 152.791C114.717 152.826 114.699 152.86 114.68 152.893C114.669 152.93 114.656 152.967 114.641 153.003C114.626 153.037 114.61 153.069 114.591 153.101C114.58 153.14 114.567 153.178 114.551 153.215C114.537 153.249 114.52 153.281 114.502 153.313C114.491 153.352 114.478 153.391 114.462 153.428C114.447 153.463 114.429 153.497 114.409 153.53C114.399 153.567 114.386 153.604 114.371 153.639C114.354 153.677 114.335 153.714 114.314 153.749C114.303 153.786 114.29 153.822 114.275 153.857C114.259 153.894 114.24 153.931 114.218 153.966C114.208 154.003 114.195 154.039 114.18 154.074C114.166 154.108 114.148 154.14 114.13 154.171C114.119 154.211 114.106 154.25 114.09 154.287C114.075 154.323 114.057 154.356 114.037 154.389C114.026 154.426 114.014 154.462 113.999 154.498C113.982 154.536 113.963 154.572 113.942 154.607C113.931 154.644 113.919 154.68 113.904 154.715C113.889 154.749 113.872 154.781 113.853 154.813C113.842 154.852 113.83 154.891 113.814 154.928C113.799 154.963 113.78 154.997 113.761 155.03C113.75 155.067 113.738 155.104 113.723 155.139C113.709 155.173 113.691 155.205 113.673 155.237C113.662 155.276 113.649 155.314 113.633 155.351C112.714 157.485 103.69 155.647 93.4792 151.247C83.2681 146.847 75.7361 141.55 76.6554 139.417C76.67 139.383 76.6858 139.35 76.7044 139.318C76.7153 139.279 76.7289 139.242 76.7448 139.205C76.76 139.169 76.7771 139.135 76.7967 139.102C76.8073 139.065 76.8208 139.028 76.836 138.993C76.8506 138.959 76.8664 138.926 76.885 138.894C76.8959 138.855 76.9095 138.817 76.9254 138.781C76.9419 138.742 76.9603 138.705 76.982 138.669C76.9925 138.633 77.0063 138.598 77.0211 138.563C77.0363 138.528 77.0534 138.493 77.073 138.46C77.0835 138.424 77.0968 138.388 77.1119 138.353C77.1266 138.319 77.1426 138.285 77.1614 138.253C77.1722 138.214 77.1858 138.176 77.2017 138.139C77.2183 138.101 77.2366 138.063 77.2584 138.028C77.2688 137.992 77.2817 137.956 77.2965 137.922C77.3131 137.883 77.3324 137.846 77.3541 137.811C77.3645 137.774 77.3774 137.739 77.3922 137.705C77.4076 137.669 77.4256 137.634 77.4454 137.601C77.456 137.564 77.4684 137.528 77.4834 137.493C77.4981 137.459 77.5147 137.426 77.5334 137.394C77.5443 137.356 77.557 137.317 77.5729 137.281C77.5874 137.247 77.6042 137.214 77.6228 137.182C77.6337 137.143 77.6464 137.105 77.6623 137.068C77.6776 137.033 77.6956 136.998 77.7154 136.965C77.726 136.928 77.7384 136.892 77.7535 136.857C77.772 136.814 77.7945 136.773 77.8195 136.733C77.8295 136.699 77.8417 136.667 77.8555 136.635C77.8701 136.601 77.8868 136.568 77.9054 136.536C77.9163 136.497 77.929 136.459 77.9449 136.422C77.9601 136.387 77.978 136.353 77.9977 136.319C78.0083 136.282 78.0209 136.246 78.0361 136.211C78.0507 136.177 78.0674 136.144 78.086 136.112C78.0969 136.073 78.1096 136.035 78.1255 135.998C78.1401 135.964 78.1568 135.931 78.1755 135.899C78.1863 135.861 78.199 135.823 78.2149 135.786C78.2321 135.746 78.2525 135.707 78.2753 135.67C78.2854 135.636 78.298 135.603 78.312 135.57C78.3267 135.536 78.3436 135.503 78.3624 135.471C78.3732 135.432 78.3859 135.394 78.4018 135.357C78.4164 135.323 78.4331 135.29 78.4518 135.258C78.4626 135.219 78.4753 135.181 78.4912 135.144C78.5097 135.102 78.5323 135.061 78.5573 135.021C78.5673 134.987 78.5794 134.955 78.5932 134.923C78.6061 134.893 78.6212 134.864 78.6373 134.835C78.6484 134.794 78.6615 134.754 78.6782 134.716C78.6946 134.678 78.7137 134.641 78.7353 134.605C78.7458 134.569 78.7589 134.533 78.7739 134.498C78.7884 134.465 78.8052 134.432 78.8238 134.4C78.8347 134.361 78.8474 134.323 78.8633 134.286C78.8785 134.251 78.8964 134.216 78.916 134.183C78.9267 134.146 78.9393 134.11 78.9545 134.074C79.8745 131.942 88.8975 133.779 99.1082 138.179Z" fill="url(#paint13_linear_2703_17155)"/>
<g filter="url(#filter13_i_2703_17155)">
<path d="M116.023 149.798C115.104 151.931 106.08 150.093 95.8691 145.693C85.6578 141.293 78.1251 135.996 79.0444 133.863C79.9637 131.729 88.9869 133.567 99.1982 137.967C109.41 142.368 116.942 147.664 116.023 149.798Z" fill="url(#paint14_linear_2703_17155)"/>
</g>
<g filter="url(#filter14_ii_2703_17155)">
<path d="M92.34 152.767C97.7449 155.027 101.644 157.745 103.407 159.346C103.413 159.351 103.407 159.361 103.399 159.359C103.396 159.358 103.393 159.359 103.391 159.361C102.436 160.551 99.4845 162.878 94.5055 164.112C92.4486 164.622 90.2968 165.141 88.8297 166.67C86.4657 169.134 85.173 172.687 85.2922 176.822C85.851 180.499 89.0072 184.566 90.5155 186.14C91.6513 187.291 93.2643 190.114 90.6317 192.195C88.6945 193.725 82.2439 191.353 76.9149 188.869C71.4873 186.705 65.4419 183.679 65.2258 181.242C64.9295 177.9 68.0896 177.134 69.7068 177.168C71.8867 177.184 77.0103 176.685 80.0669 174.566C83.1591 171.808 84.854 168.421 85.0164 165.005C85.1165 162.899 84.0227 160.99 82.9852 159.155C80.4598 154.689 80.1193 150.944 80.3261 149.427C80.3266 149.423 80.325 149.42 80.3222 149.419C80.3148 149.414 80.3177 149.403 80.3264 149.403C82.6466 149.582 87.1417 150.509 92.34 152.767Z" fill="#FBB463"/>
</g>
<mask id="mask0_2703_17155" style="mask-type:alpha" maskUnits="userSpaceOnUse" x="65" y="149" width="39" height="44">
<path d="M92.3495 152.76C97.7538 155.02 101.653 157.737 103.416 159.338C103.422 159.343 103.416 159.353 103.408 159.351C103.405 159.35 103.402 159.351 103.4 159.353C102.445 160.543 99.4935 162.87 94.5145 164.105C92.4579 164.615 90.3064 165.133 88.8393 166.662C86.4749 169.126 85.1816 172.679 85.3007 176.814C85.8595 180.491 89.0157 184.558 90.524 186.132C91.6599 187.283 93.2731 190.107 90.6398 192.188C88.7024 193.718 82.2523 191.345 76.9235 188.861C71.4958 186.697 65.4504 183.672 65.2343 181.235C64.9382 177.892 68.0982 177.126 69.7153 177.161C71.8953 177.176 77.0189 176.677 80.0755 174.558C83.1677 171.8 84.8626 168.414 85.0249 164.997C85.125 162.892 84.0313 160.982 82.9938 159.147C80.4683 154.682 80.1278 150.936 80.3347 149.419C80.3351 149.416 80.3336 149.413 80.3308 149.411C80.3233 149.406 80.3262 149.395 80.335 149.395C82.6552 149.574 87.1508 150.501 92.3495 152.76Z" fill="#9292FF"/>
</mask>
<g mask="url(#mask0_2703_17155)">
<g filter="url(#filter15_f_2703_17155)">
<path d="M86.694 159.073C86.0066 153.839 86.9115 152.601 87.4499 152.637C87.9963 151.369 88.1607 149.335 84.4475 151.343C80.7343 153.351 83.1384 162.092 84.8046 166.212C83.4506 165.866 80.6304 165.434 80.1819 166.475C79.6212 167.776 74.909 169.899 73.1058 169.952C71.3026 170.006 65.4363 176.734 65.0205 177.149C64.6047 177.563 66.4256 182.976 66.9261 183.191C67.4265 183.407 71.9237 188.668 73.6251 189.401C74.9863 189.987 81.4859 191.997 84.5655 192.928C84.5476 192.327 84.4176 191.014 84.0407 190.566C83.5696 190.007 80.0406 187.181 78.3977 185.761C76.7549 184.341 73.692 184.564 75.8297 181.806C77.9675 179.049 78.8251 179.537 81.1751 177.939C83.5251 176.341 82.4364 176.94 84.015 174.653C85.5937 172.367 85.0932 172.151 87.2066 167.247C89.3199 162.343 87.5532 165.616 86.694 159.073Z" fill="#FFAA60"/>
</g>
</g>
<g filter="url(#filter16_i_2703_17155)">
<ellipse cx="91.8574" cy="154.405" rx="12.5556" ry="1.98958" transform="rotate(23.3122 91.8574 154.405)" fill="#FFD39C"/>
</g>
</g>
<defs>
<filter id="filter0_ii_2703_17155" x="84.0923" y="73.7344" width="127.111" height="122.361" filterUnits="userSpaceOnUse" color-interpolation-filters="sRGB">
<feFlood flood-opacity="0" result="BackgroundImageFix"/>
<feBlend mode="normal" in="SourceGraphic" in2="BackgroundImageFix" result="shape"/>
<feColorMatrix in="SourceAlpha" type="matrix" values="0 0 0 0 0 0 0 0 0 0 0 0 0 0 0 0 0 0 127 0" result="hardAlpha"/>
<feOffset dx="-8.31758" dy="3.02458"/>
<feGaussianBlur stdDeviation="11.1153"/>
<feComposite in2="hardAlpha" operator="arithmetic" k2="-1" k3="1"/>
<feColorMatrix type="matrix" values="0 0 0 0 0.933333 0 0 0 0 0.960784 0 0 0 0 0.682353 0 0 0 1 0"/>
<feBlend mode="normal" in2="shape" result="effect1_innerShadow_2703_17155"/>
<feColorMatrix in="SourceAlpha" type="matrix" values="0 0 0 0 0 0 0 0 0 0 0 0 0 0 0 0 0 0 127 0" result="hardAlpha"/>
<feOffset dx="-0.523651" dy="0.523651"/>
<feGaussianBlur stdDeviation="0.261826"/>
<feComposite in2="hardAlpha" operator="arithmetic" k2="-1" k3="1"/>
<feColorMatrix type="matrix" values="0 0 0 0 0.871206 0 0 0 0 1 0 0 0 0 0.997853 0 0 0 0.5 0"/>
<feBlend mode="normal" in2="effect1_innerShadow_2703_17155" result="effect2_innerShadow_2703_17155"/>
</filter>
<filter id="filter1_g_2703_17155" x="132.502" y="129.241" width="26.1476" height="23.3233" filterUnits="userSpaceOnUse" color-interpolation-filters="sRGB">
<feFlood flood-opacity="0" result="BackgroundImageFix"/>
<feBlend mode="normal" in="SourceGraphic" in2="BackgroundImageFix" result="shape"/>
<feTurbulence type="fractalNoise" baseFrequency="1.5067980289459229 1.5067980289459229" numOctaves="3" seed="3511" />
<feDisplacementMap in="shape" scale="0.73739892244338989" xChannelSelector="R" yChannelSelector="G" result="displacedImage" width="100%" height="100%" />
<feMerge result="effect1_texture_2703_17155">
<feMergeNode in="displacedImage"/>
</feMerge>
</filter>
<filter id="filter2_g_2703_17155" x="137.356" y="132.555" width="17.715" height="16.2734" filterUnits="userSpaceOnUse" color-interpolation-filters="sRGB">
<feFlood flood-opacity="0" result="BackgroundImageFix"/>
<feBlend mode="normal" in="SourceGraphic" in2="BackgroundImageFix" result="shape"/>
<feTurbulence type="fractalNoise" baseFrequency="2.2942190170288086 2.2942190170288086" numOctaves="3" seed="3511" />
<feDisplacementMap in="shape" scale="0.48430907726287842" xChannelSelector="R" yChannelSelector="G" result="displacedImage" width="100%" height="100%" />
<feMerge result="effect1_texture_2703_17155">
<feMergeNode in="displacedImage"/>
</feMerge>
</filter>
<filter id="filter3_g_2703_17155" x="168.804" y="125.592" width="23.7203" height="23.2686" filterUnits="userSpaceOnUse" color-interpolation-filters="sRGB">
<feFlood flood-opacity="0" result="BackgroundImageFix"/>
<feBlend mode="normal" in="SourceGraphic" in2="BackgroundImageFix" result="shape"/>
<feTurbulence type="fractalNoise" baseFrequency="1.5067980289459229 1.5067980289459229" numOctaves="3" seed="3511" />
<feDisplacementMap in="shape" scale="0.73739892244338989" xChannelSelector="R" yChannelSelector="G" result="displacedImage" width="100%" height="100%" />
<feMerge result="effect1_texture_2703_17155">
<feMergeNode in="displacedImage"/>
</feMerge>
</filter>
<filter id="filter4_g_2703_17155" x="172.009" y="128.688" width="17.4308" height="16.4765" filterUnits="userSpaceOnUse" color-interpolation-filters="sRGB">
<feFlood flood-opacity="0" result="BackgroundImageFix"/>
<feBlend mode="normal" in="SourceGraphic" in2="BackgroundImageFix" result="shape"/>
<feTurbulence type="fractalNoise" baseFrequency="2.2942190170288086 2.2942190170288086" numOctaves="3" seed="3511" />
<feDisplacementMap in="shape" scale="0.48430907726287842" xChannelSelector="R" yChannelSelector="G" result="displacedImage" width="100%" height="100%" />
<feMerge result="effect1_texture_2703_17155">
<feMergeNode in="displacedImage"/>
</feMerge>
</filter>
<filter id="filter5_n_2703_17155" x="59.0273" y="56.75" width="171.517" height="153.875" filterUnits="userSpaceOnUse" color-interpolation-filters="sRGB">
<feFlood flood-opacity="0" result="BackgroundImageFix"/>
<feBlend mode="normal" in="SourceGraphic" in2="BackgroundImageFix" result="shape"/>
<feTurbulence type="fractalNoise" baseFrequency="0.14126230776309967 0.14126230776309967" stitchTiles="stitch" numOctaves="3" result="noise" seed="1999" />
<feColorMatrix in="noise" type="luminanceToAlpha" result="alphaNoise" />
<feComponentTransfer in="alphaNoise" result="coloredNoise1">
<feFuncA type="discrete" tableValues="1 1 1 1 1 1 1 1 1 1 1 1 1 1 1 1 1 1 1 1 1 1 1 1 1 1 1 1 1 1 1 1 1 1 1 1 1 1 1 1 1 1 1 1 1 1 1 1 1 1 1 0 0 0 0 0 0 0 0 0 0 0 0 0 0 0 0 0 0 0 0 0 0 0 0 0 0 0 0 0 0 0 0 0 0 0 0 0 0 0 0 0 0 0 0 0 0 0 0 0 "/>
</feComponentTransfer>
<feComposite operator="in" in2="shape" in="coloredNoise1" result="noise1Clipped" />
<feFlood flood-color="rgba(0, 0, 0, 0.08)" result="color1Flood" />
<feComposite operator="in" in2="noise1Clipped" in="color1Flood" result="color1" />
<feMerge result="effect1_noise_2703_17155">
<feMergeNode in="shape" />
<feMergeNode in="color1" />
</feMerge>
</filter>
<filter id="filter6_ii_2703_17155" x="122.848" y="194.586" width="69.0579" height="27.8264" filterUnits="userSpaceOnUse" color-interpolation-filters="sRGB">
<feFlood flood-opacity="0" result="BackgroundImageFix"/>
<feBlend mode="normal" in="SourceGraphic" in2="BackgroundImageFix" result="shape"/>
<feColorMatrix in="SourceAlpha" type="matrix" values="0 0 0 0 0 0 0 0 0 0 0 0 0 0 0 0 0 0 127 0" result="hardAlpha"/>
<feOffset dx="-8.11139" dy="1.4748"/>
<feGaussianBlur stdDeviation="3.90821"/>
<feComposite in2="hardAlpha" operator="arithmetic" k2="-1" k3="1"/>
<feColorMatrix type="matrix" values="0 0 0 0 0.869328 0 0 0 0 0.719989 0 0 0 0 1 0 0 0 0.2 0"/>
<feBlend mode="normal" in2="shape" result="effect1_innerShadow_2703_17155"/>
<feColorMatrix in="SourceAlpha" type="matrix" values="0 0 0 0 0 0 0 0 0 0 0 0 0 0 0 0 0 0 127 0" result="hardAlpha"/>
<feOffset dx="-0.737399"/>
<feGaussianBlur stdDeviation="0.368699"/>
<feComposite in2="hardAlpha" operator="arithmetic" k2="-1" k3="1"/>
<feColorMatrix type="matrix" values="0 0 0 0 0.858824 0 0 0 0 0.976471 0 0 0 0 0.984314 0 0 0 0.2 0"/>
<feBlend mode="normal" in2="effect1_innerShadow_2703_17155" result="effect2_innerShadow_2703_17155"/>
</filter>
<filter id="filter7_i_2703_17155" x="187.414" y="133.672" width="57.2887" height="73.5019" filterUnits="userSpaceOnUse" color-interpolation-filters="sRGB">
<feFlood flood-opacity="0" result="BackgroundImageFix"/>
<feBlend mode="normal" in="SourceGraphic" in2="BackgroundImageFix" result="shape"/>
<feColorMatrix in="SourceAlpha" type="matrix" values="0 0 0 0 0 0 0 0 0 0 0 0 0 0 0 0 0 0 127 0" result="hardAlpha"/>
<feOffset dx="2.19717" dy="2.19717"/>
<feGaussianBlur stdDeviation="1.09858"/>
<feComposite in2="hardAlpha" operator="arithmetic" k2="-1" k3="1"/>
<feColorMatrix type="matrix" values="0 0 0 0 0.968627 0 0 0 0 0.878431 0 0 0 0 0.603922 0 0 0 0.5 0"/>
<feBlend mode="normal" in2="shape" result="effect1_innerShadow_2703_17155"/>
</filter>
<filter id="filter8_if_2703_17155" x="186.369" y="146.644" width="29.9235" height="58.7128" filterUnits="userSpaceOnUse" color-interpolation-filters="sRGB">
<feFlood flood-opacity="0" result="BackgroundImageFix"/>
<feBlend mode="normal" in="SourceGraphic" in2="BackgroundImageFix" result="shape"/>
<feColorMatrix in="SourceAlpha" type="matrix" values="0 0 0 0 0 0 0 0 0 0 0 0 0 0 0 0 0 0 127 0" result="hardAlpha"/>
<feOffset dx="0.549292"/>
<feGaussianBlur stdDeviation="2.11477"/>
<feComposite in2="hardAlpha" operator="arithmetic" k2="-1" k3="1"/>
<feColorMatrix type="matrix" values="0 0 0 0 0.964706 0 0 0 0 0.901961 0 0 0 0 0.635294 0 0 0 1 0"/>
<feBlend mode="normal" in2="shape" result="effect1_innerShadow_2703_17155"/>
<feGaussianBlur stdDeviation="0.549292" result="effect2_foregroundBlur_2703_17155"/>
</filter>
<filter id="filter9_iii_2703_17155" x="186.737" y="130.596" width="58.5146" height="74.7578" filterUnits="userSpaceOnUse" color-interpolation-filters="sRGB">
<feFlood flood-opacity="0" result="BackgroundImageFix"/>
<feBlend mode="normal" in="SourceGraphic" in2="BackgroundImageFix" result="shape"/>
<feColorMatrix in="SourceAlpha" type="matrix" values="0 0 0 0 0 0 0 0 0 0 0 0 0 0 0 0 0 0 127 0" result="hardAlpha"/>
<feOffset dx="1.64788" dy="0.549292"/>
<feGaussianBlur stdDeviation="0.549292"/>
<feComposite in2="hardAlpha" operator="arithmetic" k2="-1" k3="1"/>
<feColorMatrix type="matrix" values="0 0 0 0 1 0 0 0 0 1 0 0 0 0 1 0 0 0 0.25 0"/>
<feBlend mode="normal" in2="shape" result="effect1_innerShadow_2703_17155"/>
<feColorMatrix in="SourceAlpha" type="matrix" values="0 0 0 0 0 0 0 0 0 0 0 0 0 0 0 0 0 0 127 0" result="hardAlpha"/>
<feOffset dx="-6.04221" dy="-12.6337"/>
<feGaussianBlur stdDeviation="2.38942"/>
<feComposite in2="hardAlpha" operator="arithmetic" k2="-1" k3="1"/>
<feColorMatrix type="matrix" values="0 0 0 0 1 0 0 0 0 1 0 0 0 0 1 0 0 0 0.25 0"/>
<feBlend mode="normal" in2="effect1_innerShadow_2703_17155" result="effect2_innerShadow_2703_17155"/>
<feColorMatrix in="SourceAlpha" type="matrix" values="0 0 0 0 0 0 0 0 0 0 0 0 0 0 0 0 0 0 127 0" result="hardAlpha"/>
<feOffset dx="0.549292" dy="0.549292"/>
<feGaussianBlur stdDeviation="0.274646"/>
<feComposite in2="hardAlpha" operator="arithmetic" k2="-1" k3="1"/>
<feColorMatrix type="matrix" values="0 0 0 0 1 0 0 0 0 1 0 0 0 0 1 0 0 0 0.5 0"/>
<feBlend mode="normal" in2="effect2_innerShadow_2703_17155" result="effect3_innerShadow_2703_17155"/>
</filter>
<filter id="filter10_i_2703_17155" x="196.911" y="143.188" width="40.1811" height="54.8173" filterUnits="userSpaceOnUse" color-interpolation-filters="sRGB">
<feFlood flood-opacity="0" result="BackgroundImageFix"/>
<feBlend mode="normal" in="SourceGraphic" in2="BackgroundImageFix" result="shape"/>
<feColorMatrix in="SourceAlpha" type="matrix" values="0 0 0 0 0 0 0 0 0 0 0 0 0 0 0 0 0 0 127 0" result="hardAlpha"/>
<feOffset dx="-1.09858" dy="1.09858"/>
<feGaussianBlur stdDeviation="1.04365"/>
<feComposite in2="hardAlpha" operator="arithmetic" k2="-1" k3="1"/>
<feColorMatrix type="matrix" values="0 0 0 0 0.231373 0 0 0 0 0.313726 0 0 0 0 0.447059 0 0 0 1 0"/>
<feBlend mode="normal" in2="shape" result="effect1_innerShadow_2703_17155"/>
</filter>
<filter id="filter11_i_2703_17155" x="216.236" y="143.117" width="21.4233" height="55.0996" filterUnits="userSpaceOnUse" color-interpolation-filters="sRGB">
<feFlood flood-opacity="0" result="BackgroundImageFix"/>
<feBlend mode="normal" in="SourceGraphic" in2="BackgroundImageFix" result="shape"/>
<feColorMatrix in="SourceAlpha" type="matrix" values="0 0 0 0 0 0 0 0 0 0 0 0 0 0 0 0 0 0 127 0" result="hardAlpha"/>
<feOffset dx="-1.64788" dy="1.64788"/>
<feGaussianBlur stdDeviation="0.659151"/>
<feComposite in2="hardAlpha" operator="arithmetic" k2="-1" k3="1"/>
<feColorMatrix type="matrix" values="0 0 0 0 0.286275 0 0 0 0 0.368627 0 0 0 0 0.490196 0 0 0 1 0"/>
<feBlend mode="normal" in2="shape" result="effect1_innerShadow_2703_17155"/>
</filter>
<filter id="filter12_i_2703_17155" x="58.24" y="179.2" width="37.6961" height="18.2766" filterUnits="userSpaceOnUse" color-interpolation-filters="sRGB">
<feFlood flood-opacity="0" result="BackgroundImageFix"/>
<feBlend mode="normal" in="SourceGraphic" in2="BackgroundImageFix" result="shape"/>
<feColorMatrix in="SourceAlpha" type="matrix" values="0 0 0 0 0 0 0 0 0 0 0 0 0 0 0 0 0 0 127 0" result="hardAlpha"/>
<feOffset dx="-4" dy="-1.13136"/>
<feGaussianBlur stdDeviation="0.282841"/>
<feComposite in2="hardAlpha" operator="arithmetic" k2="-1" k3="1"/>
<feColorMatrix type="matrix" values="0 0 0 0 1 0 0 0 0 0.778846 0 0 0 0 0.859936 0 0 0 0.25 0"/>
<feBlend mode="normal" in2="shape" result="effect1_innerShadow_2703_17155"/>
</filter>
<filter id="filter13_i_2703_17155" x="78.9685" y="132.411" width="37.1304" height="18.2766" filterUnits="userSpaceOnUse" color-interpolation-filters="sRGB">
<feFlood flood-opacity="0" result="BackgroundImageFix"/>
<feBlend mode="normal" in="SourceGraphic" in2="BackgroundImageFix" result="shape"/>
<feColorMatrix in="SourceAlpha" type="matrix" values="0 0 0 0 0 0 0 0 0 0 0 0 0 0 0 0 0 0 127 0" result="hardAlpha"/>
<feOffset dy="-1.13136"/>
<feGaussianBlur stdDeviation="0.282841"/>
<feComposite in2="hardAlpha" operator="arithmetic" k2="-1" k3="1"/>
<feColorMatrix type="matrix" values="0 0 0 0 1 0 0 0 0 0.778846 0 0 0 0 0.859936 0 0 0 0.25 0"/>
<feBlend mode="normal" in2="shape" result="effect1_innerShadow_2703_17155"/>
</filter>
<filter id="filter14_ii_2703_17155" x="61.5793" y="149.406" width="43.3851" height="45.346" filterUnits="userSpaceOnUse" color-interpolation-filters="sRGB">
<feFlood flood-opacity="0" result="BackgroundImageFix"/>
<feBlend mode="normal" in="SourceGraphic" in2="BackgroundImageFix" result="shape"/>
<feColorMatrix in="SourceAlpha" type="matrix" values="0 0 0 0 0 0 0 0 0 0 0 0 0 0 0 0 0 0 127 0" result="hardAlpha"/>
<feOffset dx="-3.62701" dy="2.07257"/>
<feGaussianBlur stdDeviation="4.11924"/>
<feComposite in2="hardAlpha" operator="arithmetic" k2="-1" k3="1"/>
<feColorMatrix type="matrix" values="0 0 0 0 1 0 0 0 0 0.928205 0 0 0 0 0.730769 0 0 0 0.45 0"/>
<feBlend mode="normal" in2="shape" result="effect1_innerShadow_2703_17155"/>
<feColorMatrix in="SourceAlpha" type="matrix" values="0 0 0 0 0 0 0 0 0 0 0 0 0 0 0 0 0 0 127 0" result="hardAlpha"/>
<feOffset dx="1.55443" dy="0.518144"/>
<feGaussianBlur stdDeviation="2"/>
<feComposite in2="hardAlpha" operator="arithmetic" k2="-1" k3="1"/>
<feColorMatrix type="matrix" values="0 0 0 0 0.819712 0 0 0 0 1 0 0 0 0 0.639423 0 0 0 1 0"/>
<feBlend mode="normal" in2="effect1_innerShadow_2703_17155" result="effect2_innerShadow_2703_17155"/>
</filter>
<filter id="filter15_f_2703_17155" x="62.4592" y="148" width="28.2458" height="47.4297" filterUnits="userSpaceOnUse" color-interpolation-filters="sRGB">
<feFlood flood-opacity="0" result="BackgroundImageFix"/>
<feBlend mode="normal" in="SourceGraphic" in2="BackgroundImageFix" result="shape"/>
<feGaussianBlur stdDeviation="1.25" result="effect1_foregroundBlur_2703_17155"/>
</filter>
<filter id="filter16_i_2703_17155" x="74.2532" y="149.109" width="29.1621" height="10.5938" filterUnits="userSpaceOnUse" color-interpolation-filters="sRGB">
<feFlood flood-opacity="0" result="BackgroundImageFix"/>
<feBlend mode="normal" in="SourceGraphic" in2="BackgroundImageFix" result="shape"/>
<feColorMatrix in="SourceAlpha" type="matrix" values="0 0 0 0 0 0 0 0 0 0 0 0 0 0 0 0 0 0 127 0" result="hardAlpha"/>
<feOffset dx="-7"/>
<feGaussianBlur stdDeviation="3.02317"/>
<feComposite in2="hardAlpha" operator="arithmetic" k2="-1" k3="1"/>
<feColorMatrix type="matrix" values="0 0 0 0 1 0 0 0 0 0.935163 0 0 0 0 0.756863 0 0 0 1 0"/>
<feBlend mode="normal" in2="shape" result="effect1_innerShadow_2703_17155"/>
</filter>
<linearGradient id="paint0_linear_2703_17155" x1="216.032" y1="4.4242" x2="229.106" y2="107.111" gradientUnits="userSpaceOnUse">
<stop stop-color="#9CCFFF"/>
<stop offset="1" stop-color="#A7B3FF" stop-opacity="0"/>
</linearGradient>
<linearGradient id="paint1_linear_2703_17155" x1="16.8296" y1="158.503" x2="32.5769" y2="282.184" gradientUnits="userSpaceOnUse">
<stop stop-color="#9CCFFF"/>
<stop offset="1" stop-color="#A7B3FF" stop-opacity="0"/>
</linearGradient>
<linearGradient id="paint2_linear_2703_17155" x1="229.673" y1="111.729" x2="75.5127" y2="177.147" gradientUnits="userSpaceOnUse">
<stop stop-color="#FFE7B2" stop-opacity="0.2"/>
<stop offset="1" stop-color="white" stop-opacity="0"/>
</linearGradient>
<linearGradient id="paint3_linear_2703_17155" x1="61.2288" y1="81.5725" x2="124.131" y2="215.617" gradientUnits="userSpaceOnUse">
<stop stop-color="#C68250"/>
<stop offset="0.586538" stop-color="#CEA184"/>
<stop offset="1" stop-color="#CD885E"/>
</linearGradient>
<linearGradient id="paint4_linear_2703_17155" x1="80.453" y1="94.574" x2="120.674" y2="148.981" gradientUnits="userSpaceOnUse">
<stop stop-color="#FFEFD9"/>
<stop offset="0.440397" stop-color="#FDEBD7" stop-opacity="0"/>
</linearGradient>
<linearGradient id="paint5_linear_2703_17155" x1="66.2406" y1="130.987" x2="78.6449" y2="132.599" gradientUnits="userSpaceOnUse">
<stop stop-color="#FFFCD9"/>
<stop offset="1" stop-color="#FDF1D7" stop-opacity="0"/>
</linearGradient>
<linearGradient id="paint6_linear_2703_17155" x1="162.949" y1="138.663" x2="184.183" y2="122.179" gradientUnits="userSpaceOnUse">
<stop stop-color="#FCCC82"/>
<stop offset="1" stop-color="#FBD990"/>
</linearGradient>
<linearGradient id="paint7_linear_2703_17155" x1="194.586" y1="147.958" x2="249.518" y2="191.481" gradientUnits="userSpaceOnUse">
<stop stop-color="#D0C1DE"/>
<stop offset="0.721964" stop-color="#99A4C1"/>
<stop offset="1" stop-color="#E19494"/>
</linearGradient>
<linearGradient id="paint8_linear_2703_17155" x1="217.834" y1="142.938" x2="208.754" y2="191.708" gradientUnits="userSpaceOnUse">
<stop stop-color="#938FBB"/>
<stop offset="1" stop-color="#505C8B"/>
</linearGradient>
<linearGradient id="paint9_linear_2703_17155" x1="228.886" y1="141.053" x2="232.192" y2="192.218" gradientUnits="userSpaceOnUse">
<stop stop-color="#8785B3"/>
<stop offset="1" stop-color="#545C8E"/>
</linearGradient>
<linearGradient id="paint10_linear_2703_17155" x1="106.33" y1="199.766" x2="50.536" y2="175.381" gradientUnits="userSpaceOnUse">
<stop stop-color="#FCCD81"/>
<stop offset="0.129808" stop-color="#9592FF"/>
<stop offset="0.36693" stop-color="#AEAFFF"/>
<stop offset="0.843693" stop-color="#526FD7"/>
<stop offset="1" stop-color="#FCCE81"/>
</linearGradient>
<linearGradient id="paint11_linear_2703_17155" x1="58.8816" y1="180.652" x2="95.86" y2="196.587" gradientUnits="userSpaceOnUse">
<stop stop-color="#97A5FF"/>
<stop offset="1" stop-color="#BEB5FF"/>
</linearGradient>
<linearGradient id="paint12_linear_2703_17155" x1="65.6889" y1="154.234" x2="109.586" y2="163.081" gradientUnits="userSpaceOnUse">
<stop stop-color="#CAE9FF"/>
<stop offset="0.192308" stop-color="#CAE1FF"/>
<stop offset="0.432692" stop-color="white" stop-opacity="0.4"/>
<stop offset="1" stop-color="white" stop-opacity="0.5"/>
</linearGradient>
<linearGradient id="paint13_linear_2703_17155" x1="116.818" y1="150.892" x2="75.1882" y2="135.078" gradientUnits="userSpaceOnUse">
<stop stop-color="#FDCB7F"/>
<stop offset="0.158002" stop-color="#9592FF"/>
<stop offset="0.4232" stop-color="#AEAFFF"/>
<stop offset="0.875784" stop-color="#526FD7"/>
<stop offset="1" stop-color="#FCCE81"/>
</linearGradient>
<linearGradient id="paint14_linear_2703_17155" x1="60.0234" y1="126.621" x2="135.518" y2="155.339" gradientUnits="userSpaceOnUse">
<stop stop-color="#BEB5FF"/>
<stop offset="1" stop-color="#6D81FF"/>
</linearGradient>
<clipPath id="clip0_2703_17155">
<rect width="298" height="274" fill="white"/>
</clipPath>
</defs>
</svg>
