<svg width="298" height="274" viewBox="0 0 298 274" fill="none" xmlns="http://www.w3.org/2000/svg">
<g clip-path="url(#clip0_2978_18173)">
<path d="M0.712076 19.1249L0.606622 19.2835L0.789924 19.3352L0.607204 19.3889L0.714403 19.5463L0.539914 19.47L0.52085 19.6595L0.436237 19.4889L0.299831 19.6218L0.344685 19.4367L0.154762 19.4508L0.308096 19.3379L0.153524 19.2266L0.343591 19.2386L0.296695 19.054L0.434561 19.1854L0.517285 19.0139L0.53844 19.2032L0.712076 19.1249Z" fill="white"/>
<path d="M63.4836 37.9531L63.3781 38.1116L63.5614 38.1633L63.3787 38.217L63.4859 38.3744L63.3114 38.2981L63.2923 38.4876L63.2077 38.317L63.0713 38.4499L63.1162 38.2648L62.9262 38.2789L63.0796 38.166L62.925 38.0547L63.1151 38.0668L63.0682 37.8822L63.206 38.0136L63.2888 37.842L63.3099 38.0313L63.4836 37.9531Z" fill="white"/>
<path d="M25.1144 59.5937L25.009 59.7523L25.1923 59.8039L25.0095 59.8576L25.1167 60.0151L24.9423 59.9387L24.9232 60.1282L24.8386 59.9576L24.7022 60.0905L24.747 59.9054L24.5571 59.9196L24.7104 59.8066L24.5559 59.6953L24.7459 59.7074L24.699 59.5228L24.8369 59.6542L24.9196 59.4826L24.9408 59.6719L25.1144 59.5937Z" fill="white"/>
<path d="M31.0163 25.164L30.9108 25.3226L31.0941 25.3743L30.9114 25.428L31.0186 25.5854L30.8441 25.5091L30.825 25.6985L30.7404 25.5279L30.604 25.6608L30.6489 25.4757L30.459 25.4899L30.6123 25.3769L30.4577 25.2657L30.6478 25.2777L30.6009 25.0931L30.7388 25.2245L30.8215 25.053L30.8426 25.2422L31.0163 25.164Z" fill="white"/>
<path d="M12.9792 33.3593L12.8737 33.5179L13.057 33.5696L12.8743 33.6233L12.9815 33.7807L12.807 33.7044L12.7879 33.8939L12.7033 33.7232L12.5669 33.8561L12.6118 33.6711L12.4219 33.6852L12.5752 33.5722L12.4206 33.461L12.6107 33.473L12.5638 33.2884L12.7017 33.4198L12.7844 33.2483L12.8055 33.4375L12.9792 33.3593Z" fill="white"/>
<path d="M127.104 54.0234L126.999 54.182L127.182 54.2336L126.999 54.2873L127.106 54.4447L126.932 54.3684L126.913 54.5579L126.828 54.3873L126.692 54.5202L126.737 54.3351L126.547 54.3492L126.7 54.2363L126.546 54.125L126.736 54.1371L126.689 53.9525L126.827 54.0839L126.909 53.9123L126.931 54.1016L127.104 54.0234Z" fill="white"/>
<path d="M69.7135 19.9218L69.6081 20.0804L69.7914 20.1321L69.6087 20.1858L69.7159 20.3432L69.5414 20.2669L69.5223 20.4564L69.4377 20.2857L69.3013 20.4186L69.3461 20.2336L69.1562 20.2477L69.3096 20.1347L69.155 20.0235L69.3451 20.0355L69.2982 19.8509L69.436 19.9823L69.5187 19.8108L69.5399 20L69.7135 19.9218Z" fill="white"/>
<path d="M208.761 38.9374L208.656 39.096L208.839 39.1477L208.657 39.2014L208.764 39.3588L208.589 39.2825L208.57 39.472L208.486 39.3014L208.349 39.4343L208.394 39.2492L208.204 39.2633L208.357 39.1504L208.203 39.0391L208.393 39.0511L208.346 38.8665L208.484 38.9979L208.567 38.8264L208.588 39.0157L208.761 38.9374Z" fill="white"/>
<path d="M132.68 92.7187L132.574 92.8773L132.758 92.9289L132.575 92.9826L132.682 93.1401L132.508 93.0637L132.489 93.2532L132.404 93.0826L132.268 93.2155L132.312 93.0304L132.123 93.0446L132.276 92.9316L132.121 92.8203L132.311 92.8324L132.264 92.6478L132.402 92.7792L132.485 92.6076L132.506 92.7969L132.68 92.7187Z" fill="white"/>
<path d="M69.3874 66.8124L69.2819 66.971L69.4652 67.0227L69.2825 67.0764L69.3897 67.2338L69.2152 67.1575L69.1961 67.347L69.1115 67.1764L68.9751 67.3093L69.02 67.1242L68.8301 67.1383L68.9834 67.0254L68.8288 66.9141L69.0189 66.9261L68.972 66.7415L69.1099 66.8729L69.1926 66.7014L69.2137 66.8907L69.3874 66.8124Z" fill="white"/>
<path d="M66.7638 117.641L66.6584 117.799L66.8417 117.851L66.659 117.905L66.7662 118.062L66.5917 117.986L66.5726 118.175L66.488 118.004L66.3516 118.137L66.3964 117.952L66.2065 117.966L66.3599 117.853L66.2053 117.742L66.3953 117.754L66.3485 117.57L66.4863 117.701L66.569 117.53L66.5902 117.719L66.7638 117.641Z" fill="white"/>
<path d="M262.872 113.047L262.767 113.205L262.95 113.257L262.767 113.311L262.875 113.468L262.7 113.392L262.681 113.581L262.596 113.411L262.46 113.544L262.505 113.359L262.315 113.373L262.468 113.26L262.314 113.148L262.504 113.161L262.457 112.976L262.595 113.107L262.677 112.936L262.699 113.125L262.872 113.047Z" fill="white"/>
<path d="M199.252 273.75L199.147 273.909L199.33 273.96L199.147 274.014L199.254 274.171L199.08 274.095L199.061 274.284L198.976 274.114L198.84 274.247L198.885 274.062L198.695 274.076L198.848 273.963L198.694 273.852L198.884 273.864L198.837 273.679L198.975 273.81L199.057 273.639L199.078 273.828L199.252 273.75Z" fill="white"/>
<path d="M256.971 149.453L256.865 149.612L257.049 149.663L256.866 149.717L256.973 149.874L256.799 149.798L256.78 149.988L256.695 149.817L256.559 149.95L256.603 149.765L256.414 149.779L256.567 149.666L256.412 149.555L256.602 149.567L256.555 149.382L256.693 149.514L256.776 149.342L256.797 149.531L256.971 149.453Z" fill="white"/>
<path d="M167.769 123.547L167.663 123.705L167.847 123.757L167.664 123.811L167.771 123.968L167.597 123.892L167.577 124.081L167.493 123.911L167.356 124.044L167.401 123.859L167.211 123.873L167.365 123.76L167.21 123.648L167.4 123.661L167.353 123.476L167.491 123.607L167.574 123.436L167.595 123.625L167.769 123.547Z" fill="white"/>
<path d="M99.2292 247.508L99.1237 247.666L99.307 247.718L99.1243 247.772L99.2315 247.929L99.057 247.853L99.0379 248.042L98.9533 247.872L98.8169 248.005L98.8618 247.819L98.6719 247.834L98.8252 247.721L98.6706 247.609L98.8607 247.621L98.8138 247.437L98.9517 247.568L99.0344 247.397L99.0555 247.586L99.2292 247.508Z" fill="white"/>
<path d="M19.5392 210.125L19.4338 210.284L19.6171 210.335L19.4344 210.389L19.5416 210.546L19.3671 210.47L19.348 210.659L19.2634 210.489L19.127 210.622L19.1718 210.437L18.9819 210.451L19.1352 210.338L18.9807 210.227L19.1707 210.239L19.1238 210.054L19.2617 210.185L19.3444 210.014L19.3656 210.203L19.5392 210.125Z" fill="white"/>
<path d="M20.5236 96.3281L20.4181 96.4866L20.6014 96.5383L20.4187 96.592L20.5259 96.7494L20.3514 96.6731L20.3324 96.8626L20.2478 96.692L20.1114 96.8249L20.1562 96.6398L19.9663 96.6539L20.1196 96.541L19.965 96.4297L20.1551 96.4418L20.1082 96.2572L20.2461 96.3886L20.3288 96.217L20.35 96.4063L20.5236 96.3281Z" fill="white"/>
<path d="M126.12 107.148L126.014 107.307L126.198 107.359L126.015 107.412L126.122 107.57L125.948 107.493L125.929 107.683L125.844 107.512L125.708 107.645L125.752 107.46L125.562 107.474L125.716 107.361L125.561 107.25L125.751 107.262L125.704 107.077L125.842 107.209L125.925 107.037L125.946 107.227L126.12 107.148Z" fill="white"/>
<path d="M276.319 185.203L276.213 185.362L276.396 185.413L276.214 185.467L276.321 185.624L276.146 185.548L276.127 185.738L276.043 185.567L275.906 185.7L275.951 185.515L275.761 185.529L275.915 185.416L275.76 185.305L275.95 185.317L275.903 185.132L276.041 185.264L276.124 185.092L276.145 185.281L276.319 185.203Z" fill="white"/>
<path d="M232.702 225.531L232.597 225.69L232.78 225.741L232.597 225.795L232.705 225.953L232.53 225.876L232.511 226.066L232.426 225.895L232.29 226.028L232.335 225.843L232.145 225.857L232.298 225.744L232.144 225.633L232.334 225.645L232.287 225.46L232.425 225.592L232.508 225.42L232.529 225.609L232.702 225.531Z" fill="white"/>
<path d="M172.36 134.367L172.255 134.526L172.438 134.577L172.255 134.631L172.362 134.788L172.188 134.712L172.169 134.902L172.084 134.731L171.948 134.864L171.993 134.679L171.803 134.693L171.956 134.58L171.801 134.469L171.992 134.481L171.945 134.296L172.083 134.428L172.165 134.256L172.186 134.445L172.36 134.367Z" fill="white"/>
<path d="M243.525 75.0077L243.419 75.1663L243.602 75.218L243.42 75.2717L243.527 75.4291L243.352 75.3528L243.333 75.5423L243.249 75.3717L243.112 75.5046L243.157 75.3195L242.967 75.3336L243.121 75.2207L242.966 75.1094L243.156 75.1214L243.109 74.9369L243.247 75.0682L243.33 74.8967L243.351 75.086L243.525 75.0077Z" fill="white"/>
<path d="M32.0007 243.906L31.8952 244.065L32.0785 244.116L31.8958 244.17L32.003 244.328L31.8285 244.251L31.8094 244.441L31.7248 244.27L31.5884 244.403L31.6333 244.218L31.4433 244.232L31.5967 244.119L31.4421 244.008L31.6322 244.02L31.5853 243.835L31.7231 243.967L31.8059 243.795L31.827 243.984L32.0007 243.906Z" fill="white"/>
<path d="M24.13 144.859L24.0246 145.018L24.2079 145.07L24.0252 145.123L24.1324 145.281L23.9579 145.204L23.9388 145.394L23.8542 145.223L23.7178 145.356L23.7627 145.171L23.5727 145.185L23.7261 145.072L23.5715 144.961L23.7616 144.973L23.7147 144.788L23.8525 144.92L23.9353 144.748L23.9564 144.938L24.13 144.859Z" fill="white"/>
<path d="M204.827 141.25L204.722 141.409L204.905 141.46L204.722 141.514L204.83 141.671L204.655 141.595L204.636 141.784L204.551 141.614L204.415 141.747L204.46 141.562L204.27 141.576L204.423 141.463L204.269 141.352L204.459 141.364L204.412 141.179L204.55 141.31L204.633 141.139L204.654 141.328L204.827 141.25Z" fill="white"/>
<path d="M152.356 188.484L152.25 188.643L152.433 188.695L152.251 188.748L152.358 188.906L152.183 188.829L152.164 189.019L152.08 188.848L151.943 188.981L151.988 188.796L151.798 188.81L151.952 188.697L151.797 188.586L151.987 188.598L151.94 188.413L152.078 188.545L152.161 188.373L152.182 188.563L152.356 188.484Z" fill="white"/>
<path d="M187.331 211.031L187.12 211.349L187.486 211.452L187.121 211.56L187.335 211.875L186.986 211.722L186.948 212.101L186.779 211.76L186.506 212.026L186.595 211.655L186.215 211.683L186.522 211.457L186.213 211.235L186.593 211.259L186.499 210.89L186.775 211.152L186.941 210.809L186.983 211.188L187.331 211.031Z" fill="white"/>
<path d="M106.173 155.281L105.962 155.599L106.329 155.702L105.964 155.81L106.178 156.125L105.829 155.972L105.791 156.351L105.621 156.01L105.348 156.276L105.438 155.905L105.058 155.933L105.365 155.707L105.056 155.485L105.436 155.509L105.342 155.14L105.618 155.402L105.784 155.059L105.826 155.438L106.173 155.281Z" fill="white"/>
<path d="M225.872 19.5157L225.661 19.8331L226.027 19.9365L225.662 20.0439L225.876 20.3589L225.527 20.2062L225.489 20.5854L225.32 20.244L225.047 20.5099L225.136 20.1395L224.756 20.1678L225.063 19.9418L224.754 19.7192L225.134 19.7432L225.04 19.3739L225.316 19.6368L225.482 19.2936L225.524 19.6723L225.872 19.5157Z" fill="white"/>
<path d="M154.38 20.4923L154.169 20.8096L154.536 20.913L154.171 21.0205L154.385 21.3355L154.036 21.1828L153.998 21.5619L153.828 21.2205L153.556 21.4865L153.645 21.1161L153.265 21.1444L153.572 20.9184L153.263 20.6957L153.643 20.7198L153.549 20.3505L153.825 20.6134L153.991 20.2701L154.033 20.6488L154.38 20.4923Z" fill="white"/>
<path d="M294.085 212.016L293.874 212.333L294.241 212.436L293.875 212.544L294.09 212.859L293.741 212.706L293.702 213.085L293.533 212.744L293.26 213.01L293.35 212.64L292.97 212.668L293.277 212.442L292.967 212.219L293.348 212.243L293.254 211.874L293.53 212.137L293.695 211.794L293.738 212.172L294.085 212.016Z" fill="white"/>
<path d="M65.1802 204.141L64.9692 204.458L65.336 204.561L64.9704 204.669L65.1849 204.984L64.8357 204.831L64.7976 205.21L64.6283 204.869L64.3553 205.135L64.4451 204.765L64.065 204.793L64.3719 204.567L64.0626 204.344L64.4429 204.368L64.349 203.999L64.6249 204.262L64.7904 203.919L64.8328 204.297L65.1802 204.141Z" fill="white"/>
<path d="M18.2842 184.797L18.0732 185.114L18.44 185.218L18.0744 185.325L18.2889 185.64L17.9397 185.487L17.9016 185.867L17.7323 185.525L17.4593 185.791L17.5491 185.421L17.169 185.449L17.4759 185.223L17.1666 185L17.5469 185.024L17.4531 184.655L17.7289 184.918L17.8944 184.575L17.9368 184.954L18.2842 184.797Z" fill="white"/>
<path d="M2.2144 108.383L2.00339 108.7L2.37018 108.804L2.00456 108.911L2.21906 109.226L1.86991 109.073L1.83176 109.453L1.66245 109.111L1.3895 109.377L1.47925 109.007L1.09922 109.035L1.40604 108.809L1.09674 108.586L1.47706 108.61L1.38323 108.241L1.6591 108.504L1.82463 108.161L1.86696 108.539L2.2144 108.383Z" fill="white"/>
<path d="M233.712 1.33817L233.481 1.33118L233.652 1.57479L233.407 1.40635L233.417 1.63875L233.274 1.38769L233.118 1.50014L233.143 1.28391L232.895 1.2238L233.077 1.14359L232.852 0.939043L233.105 1.03238L233.009 0.779104L233.216 1.00232L233.293 0.818821L233.356 1.06746L233.571 1.03961L233.461 1.19734L233.712 1.33817Z" fill="white"/>
<path d="M294.217 84.5647L293.986 84.5577L294.156 84.8013L293.912 84.6329L293.922 84.8653L293.779 84.6142L293.623 84.7267L293.648 84.5105L293.4 84.4504L293.582 84.3702L293.357 84.1656L293.61 84.2589L293.514 84.0057L293.72 84.2289L293.798 84.0454L293.861 84.294L294.076 84.2662L293.966 84.4239L294.217 84.5647Z" fill="white"/>
<path d="M273.153 118.229L272.921 118.222L273.092 118.465L272.848 118.297L272.857 118.529L272.714 118.278L272.559 118.391L272.584 118.175L272.336 118.114L272.517 118.034L272.293 117.83L272.546 117.923L272.45 117.67L272.656 117.893L272.734 117.709L272.796 117.958L273.011 117.93L272.901 118.088L273.153 118.229Z" fill="white"/>
<path d="M219.974 28.4163L219.743 28.4093L219.913 28.6529L219.669 28.4845L219.679 28.7169L219.535 28.4658L219.38 28.5783L219.405 28.362L219.157 28.3019L219.339 28.2217L219.114 28.0172L219.367 28.1105L219.271 27.8572L219.477 28.0804L219.555 27.8969L219.618 28.1456L219.832 28.1177L219.723 28.2755L219.974 28.4163Z" fill="white"/>
<path d="M181.067 61.3929L180.836 61.3859L181.006 61.6295L180.762 61.461L180.772 61.6934L180.629 61.4424L180.473 61.5548L180.498 61.3386L180.25 61.2785L180.432 61.1983L180.207 60.9937L180.46 61.0871L180.364 60.8338L180.571 61.057L180.648 60.8735L180.711 61.1222L180.926 61.0943L180.816 61.252L181.067 61.3929Z" fill="white"/>
<path d="M290.994 179.666L290.762 179.659L290.933 179.903L290.688 179.734L290.698 179.967L290.555 179.716L290.4 179.828L290.425 179.612L290.177 179.552L290.358 179.472L290.134 179.267L290.387 179.361L290.291 179.107L290.497 179.33L290.574 179.147L290.637 179.396L290.852 179.368L290.742 179.525L290.994 179.666Z" fill="white"/>
<path d="M125.913 189.893L125.682 189.886L125.853 190.129L125.608 189.961L125.618 190.193L125.475 189.942L125.319 190.055L125.344 189.839L125.096 189.778L125.278 189.698L125.053 189.494L125.307 189.587L125.211 189.334L125.417 189.557L125.494 189.374L125.557 189.622L125.772 189.594L125.662 189.752L125.913 189.893Z" fill="white"/>
<path d="M62.3285 73.4397L62.0972 73.4327L62.2677 73.6763L62.0233 73.5079L62.0331 73.7403L61.89 73.4892L61.7345 73.6017L61.7595 73.3855L61.5115 73.3254L61.693 73.2452L61.4685 73.0406L61.7216 73.1339L61.6256 72.8807L61.8318 73.1039L61.9094 72.9204L61.9722 73.169L62.1869 73.1412L62.077 73.2989L62.3285 73.4397Z" fill="white"/>
<path d="M255.54 121.026L255.309 121.019L255.48 121.262L255.235 121.094L255.245 121.326L255.102 121.075L254.946 121.188L254.971 120.971L254.723 120.911L254.905 120.831L254.68 120.627L254.933 120.72L254.838 120.467L255.044 120.69L255.121 120.506L255.184 120.755L255.399 120.727L255.289 120.885L255.54 121.026Z" fill="white"/>
<path d="M288.527 192.502L288.295 192.495L288.466 192.739L288.222 192.57L288.231 192.803L288.088 192.552L287.933 192.664L287.958 192.448L287.71 192.388L287.891 192.308L287.667 192.103L287.92 192.196L287.824 191.943L288.03 192.166L288.108 191.983L288.17 192.232L288.385 192.204L288.275 192.361L288.527 192.502Z" fill="white"/>
<path d="M52.5209 111.401L52.2896 111.394L52.4601 111.637L52.2157 111.469L52.2255 111.701L52.0824 111.45L51.9268 111.563L51.9519 111.346L51.7038 111.286L51.8854 111.206L51.6609 111.002L51.9139 111.095L51.818 110.842L52.0242 111.065L52.1017 110.881L52.1646 111.13L52.3793 111.102L52.2694 111.26L52.5209 111.401Z" fill="white"/>
<path d="M113.661 32.4788L113.43 32.4718L113.6 32.7154L113.356 32.547L113.366 32.7794L113.223 32.5283L113.067 32.6408L113.092 32.4245L112.844 32.3644L113.026 32.2842L112.801 32.0797L113.054 32.173L112.958 31.9197L113.164 32.1429L113.242 31.9594L113.305 32.2081L113.519 32.1802L113.41 32.338L113.661 32.4788Z" fill="white"/>
<path d="M227.667 208.166L227.436 208.159L227.607 208.403L227.362 208.234L227.372 208.467L227.229 208.216L227.073 208.328L227.098 208.112L226.85 208.052L227.032 207.972L226.807 207.767L227.06 207.861L226.964 207.607L227.171 207.83L227.248 207.647L227.311 207.896L227.526 207.868L227.416 208.025L227.667 208.166Z" fill="white"/>
<path d="M251.23 263.622L250.767 263.608L251.108 264.096L250.619 263.759L250.639 264.224L250.352 263.721L250.041 263.946L250.091 263.514L249.595 263.393L249.958 263.233L249.509 262.823L250.015 263.01L249.823 262.503L250.236 262.95L250.391 262.583L250.517 263.08L250.947 263.025L250.727 263.34L251.23 263.622Z" fill="white"/>
<path d="M198.973 132.52L198.51 132.507L198.851 132.994L198.362 132.657L198.382 133.122L198.096 132.62L197.784 132.845L197.834 132.412L197.338 132.292L197.701 132.131L197.252 131.722L197.758 131.909L197.567 131.402L197.979 131.848L198.134 131.481L198.26 131.979L198.69 131.923L198.47 132.239L198.973 132.52Z" fill="white"/>
<path d="M118.115 120.77L117.652 120.757L117.993 121.244L117.504 120.907L117.524 121.372L117.238 120.87L116.926 121.095L116.977 120.662L116.48 120.542L116.843 120.381L116.394 119.972L116.901 120.159L116.709 119.652L117.121 120.098L117.276 119.731L117.402 120.229L117.832 120.173L117.612 120.489L118.115 120.77Z" fill="white"/>
<path d="M32.6116 181.817L32.1488 181.803L32.49 182.291L32.001 181.954L32.0206 182.419L31.7342 181.916L31.423 182.141L31.4731 181.709L30.9768 181.589L31.34 181.428L30.8907 181.019L31.3972 181.205L31.2052 180.699L31.6178 181.145L31.773 180.778L31.8987 181.276L32.3284 181.22L32.1084 181.536L32.6116 181.817Z" fill="white"/>
<path d="M78.8215 54.1064L78.3588 54.0925L78.7 54.5799L78.211 54.2429L78.2306 54.7079L77.9442 54.2055L77.633 54.4305L77.6831 53.9979L77.1867 53.8776L77.55 53.7171L77.1007 53.3078L77.6071 53.4946L77.4151 52.9878L77.8277 53.4344L77.9829 53.0672L78.1086 53.5648L78.5383 53.509L78.3184 53.8247L78.8215 54.1064Z" fill="white"/>
<path d="M2.16432 122.614L1.70157 122.6L2.04278 123.088L1.55378 122.751L1.57337 123.216L1.28693 122.713L0.975724 122.938L1.02588 122.506L0.529498 122.385L0.892773 122.225L0.443482 121.816L0.949898 122.002L0.757923 121.496L1.17052 121.942L1.32569 121.575L1.45141 122.073L1.88112 122.017L1.66114 122.332L2.16432 122.614Z" fill="white"/>
<path d="M248.827 84.7383C249.482 85.8464 248.216 87.0914 247.119 86.4188L232.443 77.4233C231.735 76.9893 230.809 77.364 230.602 78.1682L226.312 94.8385C225.992 96.0849 224.217 96.0704 223.916 94.8189L219.9 78.0807C219.706 77.2732 218.786 76.8835 218.071 77.3058L203.25 86.0602C202.142 86.7147 200.897 85.4492 201.57 84.352L210.565 69.6761C210.999 68.9682 210.625 68.0422 209.82 67.8353L193.15 63.5456C191.904 63.2249 191.918 61.4497 193.17 61.1494L209.908 57.1328C210.715 56.9391 211.105 56.0194 210.683 55.3044L201.928 40.4835C201.274 39.3754 202.539 38.1304 203.637 38.803L218.313 47.7985C219.021 48.2325 219.946 47.8578 220.153 47.0536L224.443 30.3833C224.764 29.1369 226.539 29.1514 226.839 30.4029L230.856 47.1411C231.05 47.9485 231.969 48.3383 232.684 47.916L247.505 39.1616C248.613 38.5071 249.858 39.7725 249.186 40.8698L240.19 55.5456C239.756 56.2536 240.131 57.1795 240.935 57.3865L257.605 61.6762C258.852 61.9969 258.837 63.772 257.586 64.0723L240.848 68.0889C240.04 68.2827 239.65 69.2024 240.073 69.9173L248.827 84.7383Z" fill="url(#paint0_linear_2978_18173)"/>
<path d="M56.3296 255.237C57.118 256.572 55.5938 258.071 54.2722 257.261L36.5959 246.427C35.7431 245.904 34.6279 246.355 34.3787 247.324L29.2119 267.402C28.8256 268.904 26.6876 268.886 26.3259 267.379L21.4881 247.218C21.2547 246.246 20.147 245.776 19.2858 246.285L1.43471 256.829C0.100064 257.618 -1.39942 256.094 -0.589354 254.772L10.2453 237.096C10.768 236.243 10.3167 235.128 9.34809 234.878L-10.7305 229.712C-12.2317 229.325 -12.2142 227.187 -10.7069 226.826L9.45347 221.988C10.426 221.754 10.8955 220.647 10.3868 219.786L-0.157419 201.934C-0.945763 200.6 0.578423 199.1 1.90001 199.91L19.5764 210.745C20.4291 211.268 21.5443 210.816 21.7936 209.848L26.9603 189.769C27.3466 188.268 29.4847 188.286 29.8464 189.793L34.6842 209.953C34.9175 210.926 36.0252 211.395 36.8864 210.887L54.7375 200.342C56.0722 199.554 57.5716 201.078 56.7616 202.4L45.9269 220.076C45.4042 220.929 45.8555 222.044 46.8241 222.293L66.9027 227.46C68.4039 227.846 68.3864 229.984 66.8791 230.346L46.7188 235.184C45.7462 235.417 45.2767 236.525 45.7854 237.386L56.3296 255.237Z" fill="url(#paint1_linear_2978_18173)"/>
<g filter="url(#filter0_d_2978_18173)">
<path d="M101.225 130.482L186.461 175.623L186.756 175.779L186.596 176.071L174.456 198.482L174.436 198.519L174.408 198.548L174.406 198.55C174.405 198.551 174.403 198.553 174.401 198.555C174.397 198.559 174.392 198.567 174.384 198.576C174.368 198.593 174.343 198.617 174.312 198.65C174.25 198.715 174.159 198.811 174.041 198.933C173.977 198.999 173.904 199.07 173.825 199.15L149.375 243.324C148.051 245.714 144.966 246.726 142.484 245.583C140.002 244.441 139.062 241.578 140.385 239.187L156.922 209.312C156.933 209.271 156.946 209.229 156.961 209.186C157.022 209.01 157.124 208.788 157.272 208.513C157.494 208.098 157.455 207.613 157.195 207.13C156.934 206.644 156.462 206.19 155.888 205.896C155.316 205.602 154.667 205.479 154.056 205.613C153.572 205.72 153.09 205.996 152.67 206.518L142.473 225.555C140.409 229.409 135.495 231.094 131.5 229.32C127.504 227.545 125.939 222.983 128.003 219.129L138.055 200.361L138.008 200.338L138.187 200.031C140.291 196.387 140.77 193.22 140.24 190.72C139.711 188.222 138.169 186.356 136.16 185.307C132.149 183.212 126.212 184.361 122.792 190.494L122.633 190.779L122.623 190.773L115.095 204.544C113.435 207.581 109.533 208.882 106.382 207.452C103.231 206.021 102.022 202.399 103.682 199.363L112.022 184.108C112.367 182.616 111.356 181.18 109.877 180.394C109.073 179.966 108.173 179.762 107.37 179.858C106.654 179.944 106.012 180.268 105.554 180.9L86.8264 214.732C84.709 218.557 79.7719 220.175 75.8002 218.348C71.8291 216.52 70.3259 211.938 72.4432 208.113L90.4119 175.651L90.3499 175.628L90.4992 175.307C90.8293 174.599 90.9655 173.988 90.9701 173.523C90.9747 173.046 90.8427 172.78 90.7136 172.672C90.6149 172.59 90.4376 172.538 90.1268 172.721C89.8502 172.883 89.5096 173.215 89.1456 173.78L74.889 198.086C73.4427 200.551 70.1983 201.532 67.6421 200.278C65.0857 199.023 64.1857 196.007 65.6318 193.541L79.6375 169.664L79.6061 169.648L79.7673 169.351L100.781 130.616L100.936 130.329L101.225 130.482Z" fill="url(#paint2_linear_2978_18173)"/>
</g>
<g filter="url(#filter1_ii_2978_18173)">
<path d="M160.044 60.8977C160.998 59.638 162.801 59.4555 164.013 60.4695C174.911 69.5968 177.841 77.8098 177.912 82.8569C177.939 84.7551 175.854 85.4485 174.15 84.613C171.86 83.4908 169.772 82.9424 168.07 82.7253C168.769 85.3506 169.934 91.1557 170.282 97.522C210.219 107.756 206.998 129.396 202.815 143.551L207.513 145.789C209.816 146.886 210.126 150.039 208.081 151.563L199.554 157.92C199.323 158.092 199.081 158.227 198.834 158.332C197.76 163.86 196.976 169.803 196.449 174.864C195.902 180.128 191.124 183.867 186.332 181.623C182.705 179.925 178.857 179.993 175.413 182.036L172.568 183.723C168.927 185.882 164.552 186.431 160.49 185.236L120.2 173.388C116.296 172.24 113.013 169.579 111.082 165.996L110.402 164.736C107.98 160.242 103.391 157.479 98.5229 155.943C90.0274 153.264 84.4706 148.012 86.6432 143.578C88.9936 138.783 93.194 132.867 96.9638 126.898L93.5376 121.674C92.1389 119.541 93.511 116.685 96.0505 116.444L102.828 115.798C113.261 81.7037 142.17 85.2111 160.2 93.2629C160.526 89.814 160.748 85.96 160.641 82.503C158.43 82.4873 156.42 82.7768 154.698 83.2022C152.314 83.7907 149.54 81.9304 150.211 79.5679C152.245 72.4145 156.741 65.2596 160.044 60.8977Z" fill="#AEC336"/>
</g>
<g filter="url(#filter2_n_2978_18173)">
<ellipse cx="150.938" cy="120.067" rx="86.3247" ry="76.9748" transform="rotate(18.066 150.938 120.067)" fill="url(#paint3_linear_2978_18173)" fill-opacity="0.9"/>
<path d="M174.602 47.5206C219.648 62.2142 245.422 106.631 232.374 146.631C219.326 186.631 172.319 207.307 127.274 192.614C82.2282 177.92 56.455 133.503 69.5026 93.5035C82.5504 53.5038 129.557 32.8272 174.602 47.5206Z" stroke="url(#paint4_linear_2978_18173)" stroke-width="1.33268"/>
</g>
<g filter="url(#filter3_ii_2978_18173)">
<path d="M104.016 193.984L102.852 184.406C102.579 182.158 104.37 180.191 106.629 180.356C128.384 181.95 150.664 190.546 161.431 195.728C163.367 196.66 163.981 199.063 162.825 200.874L158.113 208.253C157.2 209.684 155.428 210.308 153.815 209.78C131.768 202.575 114.759 198.895 106.833 197.118C105.321 196.778 104.203 195.523 104.016 193.984Z" fill="#545B09"/>
</g>
<circle cx="133.656" cy="193.69" r="2.59096" transform="rotate(27.1175 133.656 193.69)" fill="#DBDFAB"/>
<circle cx="117.474" cy="189.557" r="2.59096" transform="rotate(27.1175 117.474 189.557)" fill="#DBDFAB"/>
<circle cx="149.167" cy="199.136" r="2.59096" transform="rotate(27.1175 149.167 199.136)" fill="#DBDFAB"/>
<g filter="url(#filter4_g_2978_18173)">
<ellipse cx="138.548" cy="127.787" rx="12.7821" ry="11.3066" transform="rotate(19.3593 138.548 127.787)" fill="white"/>
</g>
<g filter="url(#filter5_g_2978_18173)">
<ellipse cx="139.221" cy="127.881" rx="8.66326" ry="7.90915" transform="rotate(19.3593 139.221 127.881)" fill="black"/>
</g>
<g filter="url(#filter6_g_2978_18173)">
<ellipse cx="171.531" cy="140.712" rx="11.541" ry="11.3066" transform="rotate(19.3593 171.531 140.712)" fill="white"/>
</g>
<ellipse cx="152.603" cy="141.545" rx="3.70188" ry="2.96151" transform="rotate(23.129 152.603 141.545)" fill="#FF581D"/>
<path d="M148.621 146.876L147.841 146.765C147.251 146.681 146.769 146.249 146.622 145.671C146.279 144.327 144.439 144.158 143.857 145.417L143.639 145.887C143.487 146.216 143.44 146.588 143.545 146.934C143.93 148.206 144.786 149.558 147.01 149.437C148.143 149.376 148.959 148.925 149.478 148.426C150.168 147.764 149.568 147.012 148.621 146.876Z" fill="#852A0A" stroke="#852A0A" stroke-width="1.1846"/>
<g filter="url(#filter7_g_2978_18173)">
<ellipse cx="171.725" cy="140.465" rx="8.51598" ry="8.01698" transform="rotate(19.3593 171.725 140.465)" fill="black"/>
</g>
<path opacity="0.8" d="M129.615 67.3167L106.823 80.074C101.861 82.8508 94.23 84.8258 92.0395 79.5794C90.6883 76.3432 92.6447 72.5369 94.4954 70.3485C98.0082 66.5604 108.693 58.4413 123.331 56.2705C132.148 54.9629 135.227 56.9303 135.753 59.5101C136.468 63.0198 132.74 65.5673 129.615 67.3167Z" fill="url(#paint5_linear_2978_18173)"/>
<path opacity="0.89" d="M85.7356 83.9024C94.2218 82.9246 89.6257 92.549 86.2669 97.4835C83.9912 99.978 81.3647 96.498 80.336 94.4462C78.6 91.339 77.2495 84.8801 85.7356 83.9024Z" fill="url(#paint6_linear_2978_18173)"/>
<path d="M135.659 108.312C137.271 112.116 148.828 126.281 155.746 126.866" stroke="#B0C648" stroke-width="7"/>
<g filter="url(#filter8_i_2978_18173)">
<rect x="217.784" y="65.6484" width="52.5372" height="39.2008" rx="9.49906" transform="rotate(28.9499 217.784 65.6484)" fill="url(#paint7_linear_2978_18173)"/>
</g>
<rect x="209.632" y="92.0625" width="19.8025" height="4.84958" rx="2.42479" transform="rotate(28.9499 209.632 92.0625)" fill="white"/>
<circle cx="237.002" cy="99.3682" r="2.82892" transform="rotate(28.9499 237.002 99.3682)" fill="white"/>
<path d="M239.738 92.3281C241.827 93.5608 245.403 97.4481 242.996 103.136" stroke="white" stroke-width="2.82892" stroke-linecap="round"/>
<path d="M243.104 87.4922C246.445 89.802 252.074 96.657 247.867 105.599" stroke="white" stroke-width="2.82892" stroke-linecap="round"/>
</g>
<defs>
<filter id="filter0_d_2978_18173" x="55.0788" y="125.162" width="135.903" height="129.816" filterUnits="userSpaceOnUse" color-interpolation-filters="sRGB">
<feFlood flood-opacity="0" result="BackgroundImageFix"/>
<feColorMatrix in="SourceAlpha" type="matrix" values="0 0 0 0 0 0 0 0 0 0 0 0 0 0 0 0 0 0 127 0" result="hardAlpha"/>
<feOffset dx="-2.81789" dy="1.87859"/>
<feGaussianBlur stdDeviation="3.52236"/>
<feComposite in2="hardAlpha" operator="out"/>
<feColorMatrix type="matrix" values="0 0 0 0 1 0 0 0 0 1 0 0 0 0 1 0 0 0 0.4 0"/>
<feBlend mode="normal" in2="BackgroundImageFix" result="effect1_dropShadow_2978_18173"/>
<feBlend mode="normal" in="SourceGraphic" in2="effect1_dropShadow_2978_18173" result="shape"/>
</filter>
<filter id="filter1_ii_2978_18173" x="79.5075" y="59.8125" width="129.936" height="127.528" filterUnits="userSpaceOnUse" color-interpolation-filters="sRGB">
<feFlood flood-opacity="0" result="BackgroundImageFix"/>
<feBlend mode="normal" in="SourceGraphic" in2="BackgroundImageFix" result="shape"/>
<feColorMatrix in="SourceAlpha" type="matrix" values="0 0 0 0 0 0 0 0 0 0 0 0 0 0 0 0 0 0 127 0" result="hardAlpha"/>
<feOffset dx="-6.66339" dy="1.48075"/>
<feGaussianBlur stdDeviation="5.51581"/>
<feComposite in2="hardAlpha" operator="arithmetic" k2="-1" k3="1"/>
<feColorMatrix type="matrix" values="0 0 0 0 1 0 0 0 0 0.979808 0 0 0 0 0.913462 0 0 0 0.8 0"/>
<feBlend mode="normal" in2="shape" result="effect1_innerShadow_2978_18173"/>
<feColorMatrix in="SourceAlpha" type="matrix" values="0 0 0 0 0 0 0 0 0 0 0 0 0 0 0 0 0 0 127 0" result="hardAlpha"/>
<feOffset dx="-0.740377" dy="0.740377"/>
<feGaussianBlur stdDeviation="0.370188"/>
<feComposite in2="hardAlpha" operator="arithmetic" k2="-1" k3="1"/>
<feColorMatrix type="matrix" values="0 0 0 0 0.871206 0 0 0 0 1 0 0 0 0 0.997853 0 0 0 0.5 0"/>
<feBlend mode="normal" in2="effect1_innerShadow_2978_18173" result="effect2_innerShadow_2978_18173"/>
</filter>
<filter id="filter2_n_2978_18173" x="65.4463" y="42.125" width="170.984" height="155.883" filterUnits="userSpaceOnUse" color-interpolation-filters="sRGB">
<feFlood flood-opacity="0" result="BackgroundImageFix"/>
<feBlend mode="normal" in="SourceGraphic" in2="BackgroundImageFix" result="shape"/>
<feTurbulence type="fractalNoise" baseFrequency="0.14069412648677826 0.14069412648677826" stitchTiles="stitch" numOctaves="3" result="noise" seed="1999" />
<feColorMatrix in="noise" type="luminanceToAlpha" result="alphaNoise" />
<feComponentTransfer in="alphaNoise" result="coloredNoise1">
<feFuncA type="discrete" tableValues="1 1 1 1 1 1 1 1 1 1 1 1 1 1 1 1 1 1 1 1 1 1 1 1 1 1 1 1 1 1 1 1 1 1 1 1 1 1 1 1 1 1 1 1 1 1 1 1 1 1 1 0 0 0 0 0 0 0 0 0 0 0 0 0 0 0 0 0 0 0 0 0 0 0 0 0 0 0 0 0 0 0 0 0 0 0 0 0 0 0 0 0 0 0 0 0 0 0 0 0 "/>
</feComponentTransfer>
<feComposite operator="in" in2="shape" in="coloredNoise1" result="noise1Clipped" />
<feFlood flood-color="rgba(0, 0, 0, 0.08)" result="color1Flood" />
<feComposite operator="in" in2="noise1Clipped" in="color1Flood" result="color1" />
<feMerge result="effect1_noise_2978_18173">
<feMergeNode in="shape" />
<feMergeNode in="color1" />
</feMerge>
</filter>
<filter id="filter3_ii_2978_18173" x="94.9762" y="180.344" width="68.432" height="31.1058" filterUnits="userSpaceOnUse" color-interpolation-filters="sRGB">
<feFlood flood-opacity="0" result="BackgroundImageFix"/>
<feBlend mode="normal" in="SourceGraphic" in2="BackgroundImageFix" result="shape"/>
<feColorMatrix in="SourceAlpha" type="matrix" values="0 0 0 0 0 0 0 0 0 0 0 0 0 0 0 0 0 0 127 0" result="hardAlpha"/>
<feOffset dx="-8.14414" dy="1.48075"/>
<feGaussianBlur stdDeviation="3.924"/>
<feComposite in2="hardAlpha" operator="arithmetic" k2="-1" k3="1"/>
<feColorMatrix type="matrix" values="0 0 0 0 0.869328 0 0 0 0 0.719989 0 0 0 0 1 0 0 0 0.2 0"/>
<feBlend mode="normal" in2="shape" result="effect1_innerShadow_2978_18173"/>
<feColorMatrix in="SourceAlpha" type="matrix" values="0 0 0 0 0 0 0 0 0 0 0 0 0 0 0 0 0 0 127 0" result="hardAlpha"/>
<feOffset dx="-0.740377"/>
<feGaussianBlur stdDeviation="0.370188"/>
<feComposite in2="hardAlpha" operator="arithmetic" k2="-1" k3="1"/>
<feColorMatrix type="matrix" values="0 0 0 0 0.858824 0 0 0 0 0.976471 0 0 0 0 0.984314 0 0 0 0.2 0"/>
<feBlend mode="normal" in2="effect1_innerShadow_2978_18173" result="effect2_innerShadow_2978_18173"/>
</filter>
<filter id="filter4_g_2978_18173" x="125.546" y="115.934" width="26.0036" height="23.7013" filterUnits="userSpaceOnUse" color-interpolation-filters="sRGB">
<feFlood flood-opacity="0" result="BackgroundImageFix"/>
<feBlend mode="normal" in="SourceGraphic" in2="BackgroundImageFix" result="shape"/>
<feTurbulence type="fractalNoise" baseFrequency="1.5007375478744507 1.5007375478744507" numOctaves="3" seed="3511" />
<feDisplacementMap in="shape" scale="0.74037665128707886" xChannelSelector="R" yChannelSelector="G" result="displacedImage" width="100%" height="100%" />
<feMerge result="effect1_texture_2978_18173">
<feMergeNode in="displacedImage"/>
</feMerge>
</filter>
<filter id="filter5_g_2978_18173" x="130.392" y="119.64" width="17.6581" height="16.4785" filterUnits="userSpaceOnUse" color-interpolation-filters="sRGB">
<feFlood flood-opacity="0" result="BackgroundImageFix"/>
<feBlend mode="normal" in="SourceGraphic" in2="BackgroundImageFix" result="shape"/>
<feTurbulence type="fractalNoise" baseFrequency="2.2849917411804199 2.2849917411804199" numOctaves="3" seed="3511" />
<feDisplacementMap in="shape" scale="0.48626482486724854" xChannelSelector="R" yChannelSelector="G" result="displacedImage" width="100%" height="100%" />
<feMerge result="effect1_texture_2978_18173">
<feMergeNode in="displacedImage"/>
</feMerge>
</filter>
<filter id="filter6_g_2978_18173" x="159.642" y="129.005" width="23.778" height="23.4123" filterUnits="userSpaceOnUse" color-interpolation-filters="sRGB">
<feFlood flood-opacity="0" result="BackgroundImageFix"/>
<feBlend mode="normal" in="SourceGraphic" in2="BackgroundImageFix" result="shape"/>
<feTurbulence type="fractalNoise" baseFrequency="1.5007375478744507 1.5007375478744507" numOctaves="3" seed="3511" />
<feDisplacementMap in="shape" scale="0.74037665128707886" xChannelSelector="R" yChannelSelector="G" result="displacedImage" width="100%" height="100%" />
<feMerge result="effect1_texture_2978_18173">
<feMergeNode in="displacedImage"/>
</feMerge>
</filter>
<filter id="filter7_g_2978_18173" x="163.017" y="132.147" width="17.416" height="16.6347" filterUnits="userSpaceOnUse" color-interpolation-filters="sRGB">
<feFlood flood-opacity="0" result="BackgroundImageFix"/>
<feBlend mode="normal" in="SourceGraphic" in2="BackgroundImageFix" result="shape"/>
<feTurbulence type="fractalNoise" baseFrequency="2.2849917411804199 2.2849917411804199" numOctaves="3" seed="3511" />
<feDisplacementMap in="shape" scale="0.48626482486724854" xChannelSelector="R" yChannelSelector="G" result="displacedImage" width="100%" height="100%" />
<feMerge result="effect1_texture_2978_18173">
<feMergeNode in="displacedImage"/>
</feMerge>
</filter>
<filter id="filter8_i_2978_18173" x="200.319" y="67.6298" width="60.0282" height="54.3389" filterUnits="userSpaceOnUse" color-interpolation-filters="sRGB">
<feFlood flood-opacity="0" result="BackgroundImageFix"/>
<feBlend mode="normal" in="SourceGraphic" in2="BackgroundImageFix" result="shape"/>
<feColorMatrix in="SourceAlpha" type="matrix" values="0 0 0 0 0 0 0 0 0 0 0 0 0 0 0 0 0 0 127 0" result="hardAlpha"/>
<feOffset dx="-1.89981" dy="-1.42486"/>
<feGaussianBlur stdDeviation="4.36957"/>
<feComposite in2="hardAlpha" operator="arithmetic" k2="-1" k3="1"/>
<feColorMatrix type="matrix" values="0 0 0 0 0.819608 0 0 0 0 0.807843 0 0 0 0 0.815686 0 0 0 1 0"/>
<feBlend mode="normal" in2="shape" result="effect1_innerShadow_2978_18173"/>
</filter>
<linearGradient id="paint0_linear_2978_18173" x1="216.032" y1="4.4242" x2="229.106" y2="107.111" gradientUnits="userSpaceOnUse">
<stop stop-color="#9CCFFF"/>
<stop offset="1" stop-color="#A7B3FF" stop-opacity="0"/>
</linearGradient>
<linearGradient id="paint1_linear_2978_18173" x1="16.8296" y1="158.503" x2="32.5769" y2="282.184" gradientUnits="userSpaceOnUse">
<stop stop-color="#9CCFFF"/>
<stop offset="1" stop-color="#A7B3FF" stop-opacity="0"/>
</linearGradient>
<linearGradient id="paint2_linear_2978_18173" x1="155.158" y1="149.192" x2="110.52" y2="248.846" gradientUnits="userSpaceOnUse">
<stop offset="0.158654" stop-color="#121938"/>
<stop offset="0.621738" stop-color="#B3C954"/>
<stop offset="0.938356" stop-color="#FFEF9D"/>
</linearGradient>
<linearGradient id="paint3_linear_2978_18173" x1="236.169" y1="98.0223" x2="81.3856" y2="163.705" gradientUnits="userSpaceOnUse">
<stop stop-color="#B2E5FF" stop-opacity="0.2"/>
<stop offset="1" stop-color="white" stop-opacity="0"/>
</linearGradient>
<linearGradient id="paint4_linear_2978_18173" x1="100.491" y1="35.0319" x2="94.7024" y2="183.587" gradientUnits="userSpaceOnUse">
<stop stop-color="#718C3E"/>
<stop offset="0.586538" stop-color="#CECE84"/>
<stop offset="1" stop-color="#718C3E"/>
</linearGradient>
<linearGradient id="paint5_linear_2978_18173" x1="111.43" y1="56.7804" x2="122.179" y2="123.858" gradientUnits="userSpaceOnUse">
<stop stop-color="#EEFFD9"/>
<stop offset="0.440397" stop-color="#EEFFD9" stop-opacity="0"/>
</linearGradient>
<linearGradient id="paint6_linear_2978_18173" x1="82.1592" y1="82.2762" x2="94.5579" y2="92.1971" gradientUnits="userSpaceOnUse">
<stop stop-color="#EEFFD9"/>
<stop offset="1" stop-color="#EEFFD9" stop-opacity="0"/>
</linearGradient>
<linearGradient id="paint7_linear_2978_18173" x1="223.846" y1="67.6691" x2="266.684" y2="104.041" gradientUnits="userSpaceOnUse">
<stop stop-color="#A5AAFF"/>
<stop offset="1" stop-color="#BE85FF"/>
</linearGradient>
<clipPath id="clip0_2978_18173">
<rect width="298" height="274" fill="white"/>
</clipPath>
</defs>
</svg>
