<svg width="298" height="274" viewBox="0 0 298 274" fill="none" xmlns="http://www.w3.org/2000/svg">
<g clip-path="url(#clip0_2729_21050)">
<path d="M0.712076 19.1249L0.606622 19.2835L0.789924 19.3352L0.607204 19.3889L0.714403 19.5463L0.539914 19.47L0.52085 19.6595L0.436237 19.4889L0.299831 19.6218L0.344685 19.4367L0.154762 19.4508L0.308096 19.3379L0.153524 19.2266L0.343591 19.2386L0.296695 19.054L0.434561 19.1854L0.517285 19.0139L0.53844 19.2032L0.712076 19.1249Z" fill="white"/>
<path d="M63.4836 37.9531L63.3781 38.1116L63.5614 38.1633L63.3787 38.217L63.4859 38.3744L63.3114 38.2981L63.2923 38.4876L63.2077 38.317L63.0713 38.4499L63.1162 38.2648L62.9262 38.2789L63.0796 38.166L62.925 38.0547L63.1151 38.0668L63.0682 37.8822L63.206 38.0136L63.2888 37.842L63.3099 38.0313L63.4836 37.9531Z" fill="white"/>
<path d="M25.1144 59.5937L25.009 59.7523L25.1923 59.8039L25.0095 59.8576L25.1167 60.0151L24.9423 59.9387L24.9232 60.1282L24.8386 59.9576L24.7022 60.0905L24.747 59.9054L24.5571 59.9196L24.7104 59.8066L24.5559 59.6953L24.7459 59.7074L24.699 59.5228L24.8369 59.6542L24.9196 59.4826L24.9408 59.6719L25.1144 59.5937Z" fill="white"/>
<path d="M31.0163 25.164L30.9108 25.3226L31.0941 25.3743L30.9114 25.428L31.0186 25.5854L30.8441 25.5091L30.825 25.6985L30.7404 25.5279L30.604 25.6608L30.6489 25.4757L30.459 25.4899L30.6123 25.3769L30.4577 25.2657L30.6478 25.2777L30.6009 25.0931L30.7388 25.2245L30.8215 25.053L30.8426 25.2422L31.0163 25.164Z" fill="white"/>
<path d="M12.9792 33.3593L12.8737 33.5179L13.057 33.5696L12.8743 33.6233L12.9815 33.7807L12.807 33.7044L12.7879 33.8939L12.7033 33.7232L12.5669 33.8561L12.6118 33.6711L12.4219 33.6852L12.5752 33.5722L12.4206 33.461L12.6107 33.473L12.5638 33.2884L12.7017 33.4198L12.7844 33.2483L12.8055 33.4375L12.9792 33.3593Z" fill="white"/>
<path d="M127.104 54.0234L126.999 54.182L127.182 54.2336L126.999 54.2873L127.106 54.4447L126.932 54.3684L126.913 54.5579L126.828 54.3873L126.692 54.5202L126.737 54.3351L126.547 54.3492L126.7 54.2363L126.546 54.125L126.736 54.1371L126.689 53.9525L126.827 54.0839L126.909 53.9123L126.931 54.1016L127.104 54.0234Z" fill="white"/>
<path d="M69.7135 19.9218L69.6081 20.0804L69.7914 20.1321L69.6087 20.1858L69.7159 20.3432L69.5414 20.2669L69.5223 20.4564L69.4377 20.2857L69.3013 20.4186L69.3461 20.2336L69.1562 20.2477L69.3096 20.1347L69.155 20.0235L69.3451 20.0355L69.2982 19.8509L69.436 19.9823L69.5187 19.8108L69.5399 20L69.7135 19.9218Z" fill="white"/>
<path d="M208.761 38.9374L208.656 39.096L208.839 39.1477L208.657 39.2014L208.764 39.3588L208.589 39.2825L208.57 39.472L208.486 39.3014L208.349 39.4343L208.394 39.2492L208.204 39.2633L208.357 39.1504L208.203 39.0391L208.393 39.0511L208.346 38.8665L208.484 38.9979L208.567 38.8264L208.588 39.0157L208.761 38.9374Z" fill="white"/>
<path d="M132.68 92.7187L132.574 92.8773L132.758 92.9289L132.575 92.9826L132.682 93.1401L132.508 93.0637L132.489 93.2532L132.404 93.0826L132.268 93.2155L132.312 93.0304L132.123 93.0446L132.276 92.9316L132.121 92.8203L132.311 92.8324L132.264 92.6478L132.402 92.7792L132.485 92.6076L132.506 92.7969L132.68 92.7187Z" fill="white"/>
<path d="M69.3874 66.8124L69.2819 66.971L69.4652 67.0227L69.2825 67.0764L69.3897 67.2338L69.2152 67.1575L69.1961 67.347L69.1115 67.1764L68.9751 67.3093L69.02 67.1242L68.8301 67.1383L68.9834 67.0254L68.8288 66.9141L69.0189 66.9261L68.972 66.7415L69.1099 66.8729L69.1926 66.7014L69.2137 66.8907L69.3874 66.8124Z" fill="white"/>
<path d="M66.7638 117.641L66.6584 117.799L66.8417 117.851L66.659 117.905L66.7662 118.062L66.5917 117.986L66.5726 118.175L66.488 118.004L66.3516 118.137L66.3964 117.952L66.2065 117.966L66.3599 117.853L66.2053 117.742L66.3953 117.754L66.3485 117.57L66.4863 117.701L66.569 117.53L66.5902 117.719L66.7638 117.641Z" fill="white"/>
<path d="M262.872 113.047L262.767 113.205L262.95 113.257L262.767 113.311L262.875 113.468L262.7 113.392L262.681 113.581L262.596 113.411L262.46 113.544L262.505 113.359L262.315 113.373L262.468 113.26L262.314 113.148L262.504 113.161L262.457 112.976L262.595 113.107L262.677 112.936L262.699 113.125L262.872 113.047Z" fill="white"/>
<path d="M199.252 273.75L199.147 273.909L199.33 273.96L199.147 274.014L199.254 274.171L199.08 274.095L199.061 274.284L198.976 274.114L198.84 274.247L198.885 274.062L198.695 274.076L198.848 273.963L198.694 273.852L198.884 273.864L198.837 273.679L198.975 273.81L199.057 273.639L199.078 273.828L199.252 273.75Z" fill="white"/>
<path d="M256.971 149.453L256.865 149.612L257.049 149.663L256.866 149.717L256.973 149.874L256.799 149.798L256.78 149.988L256.695 149.817L256.559 149.95L256.603 149.765L256.414 149.779L256.567 149.666L256.412 149.555L256.602 149.567L256.555 149.382L256.693 149.514L256.776 149.342L256.797 149.531L256.971 149.453Z" fill="white"/>
<path d="M167.769 123.547L167.663 123.705L167.847 123.757L167.664 123.811L167.771 123.968L167.597 123.892L167.577 124.081L167.493 123.911L167.356 124.044L167.401 123.859L167.211 123.873L167.365 123.76L167.21 123.648L167.4 123.661L167.353 123.476L167.491 123.607L167.574 123.436L167.595 123.625L167.769 123.547Z" fill="white"/>
<path d="M99.2292 247.508L99.1237 247.666L99.307 247.718L99.1243 247.772L99.2315 247.929L99.057 247.853L99.0379 248.042L98.9533 247.872L98.8169 248.005L98.8618 247.819L98.6719 247.834L98.8252 247.721L98.6706 247.609L98.8607 247.621L98.8138 247.437L98.9517 247.568L99.0344 247.397L99.0555 247.586L99.2292 247.508Z" fill="white"/>
<path d="M19.5392 210.125L19.4338 210.284L19.6171 210.335L19.4344 210.389L19.5416 210.546L19.3671 210.47L19.348 210.659L19.2634 210.489L19.127 210.622L19.1718 210.437L18.9819 210.451L19.1352 210.338L18.9807 210.227L19.1707 210.239L19.1238 210.054L19.2617 210.185L19.3444 210.014L19.3656 210.203L19.5392 210.125Z" fill="white"/>
<path d="M20.5236 96.3281L20.4181 96.4866L20.6014 96.5383L20.4187 96.592L20.5259 96.7494L20.3514 96.6731L20.3324 96.8626L20.2478 96.692L20.1114 96.8249L20.1562 96.6398L19.9663 96.6539L20.1196 96.541L19.965 96.4297L20.1551 96.4418L20.1082 96.2572L20.2461 96.3886L20.3288 96.217L20.35 96.4063L20.5236 96.3281Z" fill="white"/>
<path d="M126.12 107.148L126.014 107.307L126.198 107.359L126.015 107.412L126.122 107.57L125.948 107.493L125.929 107.683L125.844 107.512L125.708 107.645L125.752 107.46L125.562 107.474L125.716 107.361L125.561 107.25L125.751 107.262L125.704 107.077L125.842 107.209L125.925 107.037L125.946 107.227L126.12 107.148Z" fill="white"/>
<path d="M276.319 185.203L276.213 185.362L276.396 185.413L276.214 185.467L276.321 185.624L276.146 185.548L276.127 185.738L276.043 185.567L275.906 185.7L275.951 185.515L275.761 185.529L275.915 185.416L275.76 185.305L275.95 185.317L275.903 185.132L276.041 185.264L276.124 185.092L276.145 185.281L276.319 185.203Z" fill="white"/>
<path d="M232.702 225.531L232.597 225.69L232.78 225.741L232.597 225.795L232.705 225.953L232.53 225.876L232.511 226.066L232.426 225.895L232.29 226.028L232.335 225.843L232.145 225.857L232.298 225.744L232.144 225.633L232.334 225.645L232.287 225.46L232.425 225.592L232.508 225.42L232.529 225.609L232.702 225.531Z" fill="white"/>
<path d="M172.36 134.367L172.255 134.526L172.438 134.577L172.255 134.631L172.362 134.788L172.188 134.712L172.169 134.902L172.084 134.731L171.948 134.864L171.993 134.679L171.803 134.693L171.956 134.58L171.801 134.469L171.992 134.481L171.945 134.296L172.083 134.428L172.165 134.256L172.186 134.445L172.36 134.367Z" fill="white"/>
<path d="M243.525 75.0077L243.419 75.1663L243.602 75.218L243.42 75.2717L243.527 75.4291L243.352 75.3528L243.333 75.5423L243.249 75.3717L243.112 75.5046L243.157 75.3195L242.967 75.3336L243.121 75.2207L242.966 75.1094L243.156 75.1214L243.109 74.9369L243.247 75.0682L243.33 74.8967L243.351 75.086L243.525 75.0077Z" fill="white"/>
<path d="M32.0007 243.906L31.8952 244.065L32.0785 244.116L31.8958 244.17L32.003 244.328L31.8285 244.251L31.8094 244.441L31.7248 244.27L31.5884 244.403L31.6333 244.218L31.4433 244.232L31.5967 244.119L31.4421 244.008L31.6322 244.02L31.5853 243.835L31.7231 243.967L31.8059 243.795L31.827 243.984L32.0007 243.906Z" fill="white"/>
<path d="M24.13 144.859L24.0246 145.018L24.2079 145.07L24.0252 145.123L24.1324 145.281L23.9579 145.204L23.9388 145.394L23.8542 145.223L23.7178 145.356L23.7627 145.171L23.5727 145.185L23.7261 145.072L23.5715 144.961L23.7616 144.973L23.7147 144.788L23.8525 144.92L23.9353 144.748L23.9564 144.938L24.13 144.859Z" fill="white"/>
<path d="M204.827 141.25L204.722 141.409L204.905 141.46L204.722 141.514L204.83 141.671L204.655 141.595L204.636 141.784L204.551 141.614L204.415 141.747L204.46 141.562L204.27 141.576L204.423 141.463L204.269 141.352L204.459 141.364L204.412 141.179L204.55 141.31L204.633 141.139L204.654 141.328L204.827 141.25Z" fill="white"/>
<path d="M152.356 188.484L152.25 188.643L152.433 188.695L152.251 188.748L152.358 188.906L152.183 188.829L152.164 189.019L152.08 188.848L151.943 188.981L151.988 188.796L151.798 188.81L151.952 188.697L151.797 188.586L151.987 188.598L151.94 188.413L152.078 188.545L152.161 188.373L152.182 188.563L152.356 188.484Z" fill="white"/>
<path d="M187.331 211.031L187.12 211.349L187.486 211.452L187.121 211.56L187.335 211.875L186.986 211.722L186.948 212.101L186.779 211.76L186.506 212.026L186.595 211.655L186.215 211.683L186.522 211.457L186.213 211.235L186.593 211.259L186.499 210.89L186.775 211.152L186.941 210.809L186.983 211.188L187.331 211.031Z" fill="white"/>
<path d="M106.173 155.281L105.962 155.599L106.329 155.702L105.964 155.81L106.178 156.125L105.829 155.972L105.791 156.351L105.621 156.01L105.348 156.276L105.438 155.905L105.058 155.933L105.365 155.707L105.056 155.485L105.436 155.509L105.342 155.14L105.618 155.402L105.784 155.059L105.826 155.438L106.173 155.281Z" fill="white"/>
<path d="M225.872 19.5157L225.661 19.8331L226.027 19.9365L225.662 20.0439L225.876 20.3589L225.527 20.2062L225.489 20.5854L225.32 20.244L225.047 20.5099L225.136 20.1395L224.756 20.1678L225.063 19.9418L224.754 19.7192L225.134 19.7432L225.04 19.3739L225.316 19.6368L225.482 19.2936L225.524 19.6723L225.872 19.5157Z" fill="white"/>
<path d="M154.38 20.4923L154.169 20.8096L154.536 20.913L154.171 21.0205L154.385 21.3355L154.036 21.1828L153.998 21.5619L153.828 21.2205L153.556 21.4865L153.645 21.1161L153.265 21.1444L153.572 20.9184L153.263 20.6957L153.643 20.7198L153.549 20.3505L153.825 20.6134L153.991 20.2701L154.033 20.6488L154.38 20.4923Z" fill="white"/>
<path d="M294.085 212.016L293.874 212.333L294.241 212.436L293.875 212.544L294.09 212.859L293.741 212.706L293.702 213.085L293.533 212.744L293.26 213.01L293.35 212.64L292.97 212.668L293.277 212.442L292.967 212.219L293.348 212.243L293.254 211.874L293.53 212.137L293.695 211.794L293.738 212.172L294.085 212.016Z" fill="white"/>
<path d="M65.1802 204.141L64.9692 204.458L65.336 204.561L64.9704 204.669L65.1849 204.984L64.8357 204.831L64.7976 205.21L64.6283 204.869L64.3553 205.135L64.4451 204.765L64.065 204.793L64.3719 204.567L64.0626 204.344L64.4429 204.368L64.349 203.999L64.6249 204.262L64.7904 203.919L64.8328 204.297L65.1802 204.141Z" fill="white"/>
<path d="M18.2842 184.797L18.0732 185.114L18.44 185.218L18.0744 185.325L18.2889 185.64L17.9397 185.487L17.9016 185.867L17.7323 185.525L17.4593 185.791L17.5491 185.421L17.169 185.449L17.4759 185.223L17.1666 185L17.5469 185.024L17.4531 184.655L17.7289 184.918L17.8944 184.575L17.9368 184.954L18.2842 184.797Z" fill="white"/>
<path d="M2.2144 108.383L2.00339 108.7L2.37018 108.804L2.00456 108.911L2.21906 109.226L1.86991 109.073L1.83176 109.453L1.66245 109.111L1.3895 109.377L1.47925 109.007L1.09922 109.035L1.40604 108.809L1.09674 108.586L1.47706 108.61L1.38323 108.241L1.6591 108.504L1.82463 108.161L1.86696 108.539L2.2144 108.383Z" fill="white"/>
<path d="M233.713 1.33817L233.481 1.33118L233.652 1.57479L233.408 1.40635L233.417 1.63875L233.274 1.38769L233.119 1.50014L233.144 1.28391L232.896 1.2238L233.077 1.14359L232.853 0.939043L233.106 1.03238L233.01 0.779104L233.216 1.00232L233.294 0.818821L233.356 1.06746L233.571 1.03961L233.461 1.19734L233.713 1.33817Z" fill="white"/>
<path d="M294.217 84.5647L293.986 84.5577L294.156 84.8013L293.912 84.6329L293.922 84.8653L293.779 84.6142L293.623 84.7267L293.648 84.5105L293.4 84.4504L293.582 84.3702L293.357 84.1656L293.61 84.2589L293.514 84.0057L293.72 84.2289L293.798 84.0454L293.861 84.294L294.076 84.2662L293.966 84.4239L294.217 84.5647Z" fill="white"/>
<path d="M273.153 118.229L272.921 118.222L273.092 118.465L272.848 118.297L272.857 118.529L272.714 118.278L272.559 118.391L272.584 118.175L272.336 118.114L272.517 118.034L272.293 117.83L272.546 117.923L272.45 117.67L272.656 117.893L272.734 117.709L272.796 117.958L273.011 117.93L272.901 118.088L273.153 118.229Z" fill="white"/>
<path d="M219.974 28.4085L219.743 28.4015L219.913 28.6451L219.669 28.4767L219.679 28.7091L219.535 28.458L219.38 28.5705L219.405 28.3542L219.157 28.2941L219.339 28.2139L219.114 28.0094L219.367 28.1027L219.271 27.8494L219.477 28.0726L219.555 27.8891L219.618 28.1378L219.832 28.1099L219.723 28.2677L219.974 28.4085Z" fill="white"/>
<path d="M181.067 61.385L180.836 61.3781L181.006 61.6217L180.762 61.4532L180.772 61.6856L180.629 61.4346L180.473 61.547L180.498 61.3308L180.25 61.2707L180.432 61.1905L180.207 60.9859L180.46 61.0793L180.364 60.826L180.571 61.0492L180.648 60.8657L180.711 61.1143L180.926 61.0865L180.816 61.2442L181.067 61.385Z" fill="white"/>
<path d="M290.994 179.666L290.762 179.659L290.933 179.903L290.688 179.734L290.698 179.967L290.555 179.716L290.4 179.828L290.425 179.612L290.177 179.552L290.358 179.472L290.134 179.267L290.387 179.361L290.291 179.107L290.497 179.33L290.574 179.147L290.637 179.396L290.852 179.368L290.742 179.525L290.994 179.666Z" fill="white"/>
<path d="M125.913 189.893L125.682 189.886L125.853 190.129L125.608 189.961L125.618 190.193L125.475 189.942L125.319 190.055L125.344 189.839L125.096 189.778L125.278 189.698L125.053 189.494L125.307 189.587L125.211 189.334L125.417 189.557L125.494 189.374L125.557 189.622L125.772 189.594L125.662 189.752L125.913 189.893Z" fill="white"/>
<path d="M62.3285 73.4319L62.0972 73.4249L62.2677 73.6685L62.0233 73.5001L62.0331 73.7325L61.89 73.4814L61.7345 73.5939L61.7595 73.3777L61.5115 73.3176L61.693 73.2373L61.4685 73.0328L61.7216 73.1261L61.6256 72.8729L61.8318 73.0961L61.9094 72.9126L61.9722 73.1612L62.1869 73.1334L62.077 73.2911L62.3285 73.4319Z" fill="white"/>
<path d="M255.54 121.018L255.309 121.011L255.48 121.254L255.235 121.086L255.245 121.318L255.102 121.067L254.946 121.18L254.971 120.964L254.723 120.903L254.905 120.823L254.68 120.619L254.933 120.712L254.838 120.459L255.044 120.682L255.121 120.499L255.184 120.747L255.399 120.719L255.289 120.877L255.54 121.018Z" fill="white"/>
<path d="M288.527 192.502L288.295 192.495L288.466 192.739L288.222 192.57L288.231 192.803L288.088 192.552L287.933 192.664L287.958 192.448L287.71 192.388L287.891 192.308L287.667 192.103L287.92 192.196L287.824 191.943L288.03 192.166L288.108 191.983L288.17 192.232L288.385 192.204L288.275 192.361L288.527 192.502Z" fill="white"/>
<path d="M52.5209 111.401L52.2896 111.394L52.4601 111.637L52.2157 111.469L52.2255 111.701L52.0824 111.45L51.9268 111.563L51.9519 111.346L51.7038 111.286L51.8854 111.206L51.6609 111.002L51.9139 111.095L51.818 110.842L52.0242 111.065L52.1017 110.881L52.1646 111.13L52.3793 111.102L52.2694 111.26L52.5209 111.401Z" fill="white"/>
<path d="M113.661 32.4788L113.43 32.4718L113.6 32.7154L113.356 32.547L113.366 32.7794L113.223 32.5283L113.067 32.6408L113.092 32.4245L112.844 32.3644L113.026 32.2842L112.801 32.0797L113.054 32.173L112.958 31.9197L113.164 32.1429L113.242 31.9594L113.305 32.2081L113.519 32.1802L113.41 32.338L113.661 32.4788Z" fill="white"/>
<path d="M227.667 208.166L227.436 208.159L227.607 208.403L227.362 208.234L227.372 208.467L227.229 208.216L227.073 208.328L227.098 208.112L226.85 208.052L227.032 207.972L226.807 207.767L227.06 207.861L226.964 207.607L227.171 207.83L227.248 207.647L227.311 207.896L227.526 207.868L227.416 208.025L227.667 208.166Z" fill="white"/>
<path d="M251.23 263.622L250.767 263.608L251.108 264.096L250.619 263.759L250.639 264.224L250.352 263.721L250.041 263.946L250.091 263.514L249.595 263.393L249.958 263.233L249.509 262.823L250.015 263.01L249.823 262.503L250.236 262.95L250.391 262.583L250.517 263.08L250.947 263.025L250.727 263.34L251.23 263.622Z" fill="white"/>
<path d="M198.973 132.52L198.51 132.507L198.851 132.994L198.362 132.657L198.382 133.122L198.096 132.62L197.784 132.845L197.834 132.412L197.338 132.292L197.701 132.131L197.252 131.722L197.758 131.909L197.567 131.402L197.979 131.848L198.134 131.481L198.26 131.979L198.69 131.923L198.47 132.239L198.973 132.52Z" fill="white"/>
<path d="M118.115 120.763L117.652 120.749L117.993 121.236L117.504 120.899L117.524 121.364L117.238 120.862L116.926 121.087L116.977 120.654L116.48 120.534L116.843 120.373L116.394 119.964L116.901 120.151L116.709 119.644L117.121 120.091L117.276 119.723L117.402 120.221L117.832 120.165L117.612 120.481L118.115 120.763Z" fill="white"/>
<path d="M32.6121 181.817L32.1493 181.803L32.4905 182.291L32.0015 181.954L32.0211 182.419L31.7347 181.916L31.4235 182.141L31.4736 181.709L30.9773 181.589L31.3405 181.428L30.8912 181.019L31.3977 181.205L31.2057 180.699L31.6183 181.145L31.7734 180.778L31.8992 181.276L32.3289 181.22L32.1089 181.536L32.6121 181.817Z" fill="white"/>
<path d="M78.8215 54.1064L78.3588 54.0925L78.7 54.5799L78.211 54.2429L78.2306 54.7079L77.9442 54.2055L77.633 54.4305L77.6831 53.9979L77.1867 53.8776L77.55 53.7171L77.1007 53.3078L77.6071 53.4946L77.4151 52.9878L77.8277 53.4344L77.9829 53.0672L78.1086 53.5648L78.5383 53.509L78.3184 53.8247L78.8215 54.1064Z" fill="white"/>
<path d="M2.16432 122.614L1.70157 122.6L2.04278 123.088L1.55378 122.751L1.57337 123.216L1.28693 122.713L0.975724 122.938L1.02588 122.506L0.529498 122.385L0.892773 122.225L0.443482 121.816L0.949898 122.002L0.757923 121.496L1.17052 121.942L1.32569 121.575L1.45141 122.073L1.88112 122.017L1.66114 122.332L2.16432 122.614Z" fill="white"/>
<g filter="url(#filter0_ii_2729_21050)">
<path d="M126.481 84.5664C126.746 83.0687 128.21 82.1216 129.693 82.459C143.03 85.4963 149.141 91.2448 151.416 95.5361C152.271 97.1502 150.79 98.6579 148.963 98.6904C146.511 98.7332 144.481 99.1787 142.928 99.7393C144.316 101.279 146.831 104.406 149.355 108.277C158.478 109.067 169.286 114.33 174.659 117.501C175.32 117.891 176.163 117.786 176.709 117.246C184.938 109.116 192.426 106.306 195.863 105.793C196.339 105.722 196.814 105.909 197.106 106.292C200.943 111.334 201.074 124.094 200.395 133.354C200.274 135.011 202.99 136.373 204.517 135.72C207.203 134.57 209.975 134.446 211.709 134.644C212.055 134.683 212.377 134.849 212.588 135.126C217.08 141.005 209.088 157.902 202.632 168.878C202.167 169.669 202.545 170.655 203.218 171.5L204.366 171.428C207.827 171.208 209.192 175.828 206.167 177.524L188.929 187.187C187.329 188.083 185.361 187.473 184.501 185.956C170.444 188.143 144.768 193.109 132.493 195.688C132.414 195.705 132.336 195.715 132.256 195.72C131.053 195.791 129.9 195.838 128.795 195.866L128.765 196.108C128.501 198.192 126.363 199.486 124.395 198.754L105.482 191.724C102.251 190.522 102.853 185.783 106.281 185.426L107.504 185.298C108.271 184.403 108.333 182.865 107.322 182.163C93.9772 172.904 89.3165 160.646 88.5083 154.31C88.4201 153.617 88.831 152.967 89.4956 152.754C92.394 151.827 95.3428 151.826 97.7114 152.152C99.1761 152.354 100.624 150.726 100.082 149.351C94.946 136.344 95.1636 125.753 96.1812 120.824C96.3378 120.066 97.0525 119.582 97.8198 119.687C106.342 120.845 116.794 125.847 122.47 129.054C123.396 129.576 124.582 129.12 125 128.143C127.888 121.369 134.78 114.645 140.218 110.764C139.109 108.082 137.828 105.272 136.468 102.809C134.568 103.765 132.974 104.893 131.686 106.013C129.902 107.563 126.71 107.187 126.25 104.868C124.854 97.8493 125.565 89.7509 126.481 84.5664Z" fill="#F57979"/>
</g>
<g filter="url(#filter1_n_2729_21050)">
<ellipse cx="145.021" cy="140.428" rx="83.0628" ry="74.0662" transform="rotate(-9.05149 145.021 140.428)" fill="url(#paint0_linear_2729_21050)" fill-opacity="0.9"/>
<path d="M133.47 67.9176C178.493 60.7451 220.048 87.4811 226.417 127.461C232.786 167.441 201.596 205.766 156.573 212.939C111.549 220.111 69.9959 193.375 63.6267 153.395C57.2576 113.415 88.4465 75.0902 133.47 67.9176Z" stroke="url(#paint1_linear_2729_21050)" stroke-width="1.28232"/>
</g>
<g filter="url(#filter2_ii_2729_21050)">
<path d="M136.863 223.14L131.665 215.447C130.446 213.641 131.117 211.171 133.124 210.322C152.455 202.145 175.306 199.736 186.801 199.452C188.867 199.4 190.447 201.189 190.251 203.247L189.453 211.634C189.298 213.259 188.054 214.571 186.441 214.827C164.4 218.325 148.218 222.634 140.65 224.588C139.206 224.96 137.698 224.375 136.863 223.14Z" fill="#8C3E3E"/>
</g>
<circle cx="162.12" cy="209.876" r="2.4934" fill="#CFD7F7"/>
<circle cx="146.446" cy="213.439" r="2.4934" fill="#CFD7F7"/>
<circle cx="177.791" cy="207.743" r="2.4934" fill="#CFD7F7"/>
<g filter="url(#filter3_g_2729_21050)">
<ellipse cx="140.664" cy="153.479" rx="12.2991" ry="10.8793" transform="rotate(-7.75815 140.664 153.479)" fill="white"/>
</g>
<g filter="url(#filter4_g_2729_21050)">
<ellipse cx="141.281" cy="153.259" rx="8.33591" ry="7.61029" transform="rotate(-7.75815 141.281 153.259)" fill="black"/>
</g>
<g filter="url(#filter5_g_2729_21050)">
<ellipse cx="174.579" cy="150.07" rx="11.1049" ry="10.8793" transform="rotate(-7.75815 174.579 150.07)" fill="white"/>
</g>
<ellipse cx="158.734" cy="159.079" rx="3.562" ry="2.8496" transform="rotate(-3.98844 158.734 159.079)" fill="#FF581D"/>
<path d="M154.27 163.477L154.742 164.137C155.52 165.226 156.918 165.681 158.188 165.258V165.258" stroke="#852A0A" stroke-width="1.13984" stroke-linecap="round"/>
<g filter="url(#filter6_g_2729_21050)">
<ellipse cx="174.638" cy="149.779" rx="8.19419" ry="7.71405" transform="rotate(-7.75815 174.638 149.779)" fill="black"/>
</g>
<path opacity="0.8" d="M103.232 103.425L89.3068 124.347C86.2759 128.901 80.6062 133.94 76.4291 130.407C73.8525 128.228 73.8586 124.11 74.4838 121.424C75.8309 116.639 81.4209 105 93.0052 96.7203C99.9832 91.7332 103.483 92.0678 105.065 94.0467C107.216 96.7389 105.141 100.556 103.232 103.425Z" fill="url(#paint2_linear_2729_21050)"/>
<path opacity="0.89" d="M72.9271 136.878C79.7661 132.319 80.0511 142.578 79.3387 148.277C78.4837 151.411 74.708 149.583 72.9271 148.277C70.0775 146.377 66.088 141.438 72.9271 136.878Z" fill="url(#paint3_linear_2729_21050)"/>
<g filter="url(#filter7_i_2729_21050)">
<path d="M227.24 200.761C238.265 202.122 242.632 204.716 243.904 207.026C245.043 209.094 242.48 210.827 240.183 211.371C221.726 215.745 206.001 212.143 200.177 209.611C193.985 206.918 205.521 198.079 227.24 200.761Z" fill="#FFC27A"/>
</g>
<mask id="mask0_2729_21050" style="mask-type:alpha" maskUnits="userSpaceOnUse" x="198" y="200" width="47" height="14">
<path d="M227.24 200.769C238.265 202.13 242.632 204.723 243.904 207.034C245.043 209.102 242.48 210.835 240.183 211.379C221.726 215.753 206.001 212.151 200.177 209.618C193.985 206.926 205.521 198.087 227.24 200.769Z" fill="#FFC27A"/>
</mask>
<g mask="url(#mask0_2729_21050)">
<path opacity="0.85" d="M244.42 210.12C238.841 207.68 226.453 208.688 220.639 208.318L227.934 202.965L242.161 204.697C245.25 207.637 249.999 212.559 244.42 210.12Z" fill="url(#paint4_linear_2729_21050)"/>
</g>
<g filter="url(#filter8_iii_2729_21050)">
<path d="M215.167 203.825C215.974 201.783 217.039 200.047 217.859 198.912C218.348 198.234 219.166 197.905 220.001 197.958L224.915 198.271C226.157 198.351 227.191 199.265 227.383 200.495C227.607 201.938 227.779 203.281 227.895 204.3C227.995 205.174 227.653 206.05 226.93 206.551C222.296 209.761 218.086 208.147 215.763 206.292C215.028 205.705 214.821 204.7 215.167 203.825Z" fill="#AC4146"/>
</g>
<g filter="url(#filter9_iii_2729_21050)">
<path d="M217.429 197.454L217.965 189.048C218.042 187.844 218.904 186.835 220.081 186.571L223.413 185.822C224.505 185.577 225.623 186.044 225.965 187.109C226.783 189.667 227.369 193.89 227.683 196.942C227.797 198.061 227.189 199.144 226.127 199.513C222.573 200.748 219.908 200.206 218.39 199.43C217.675 199.064 217.378 198.255 217.429 197.454Z" fill="#AC4146"/>
</g>
<g filter="url(#filter10_iii_2729_21050)">
<path d="M217.258 186.954C216.694 184.686 216.526 180.293 216.509 177.464C216.505 176.775 216.945 176.166 217.596 175.941L221.998 174.418C222.79 174.144 223.664 174.514 223.979 175.291C225.465 178.965 226.269 182.811 226.573 184.896C226.638 185.344 226.504 185.802 226.173 186.111C223.843 188.282 220.347 188.281 218.274 187.895C217.778 187.802 217.38 187.444 217.258 186.954Z" fill="#AC4146"/>
</g>
<g filter="url(#filter11_iii_2729_21050)">
<path d="M214.821 175.804C214.586 174.059 213.858 171.92 213.339 170.859L211.614 165.521L224.713 161.951C224.569 166.367 224.285 175.14 224.3 174.906C221.482 177.197 218.236 177.537 216.192 177.349C215.423 177.278 214.924 176.569 214.821 175.804Z" fill="#AC4146"/>
</g>
<g filter="url(#filter12_i_2729_21050)">
<path d="M196.908 156.425C206.935 146.511 214.237 150.693 216.875 154.283C217.028 154.492 217.13 154.731 217.185 154.984C218.156 159.443 218.438 166.807 212.266 163.296C206.284 159.892 198.542 161.948 194.843 163.637C194.425 163.829 193.906 163.962 193.584 163.633C192.882 162.915 192.982 160.898 196.908 156.425Z" fill="#A3C034"/>
</g>
<g filter="url(#filter13_d_2729_21050)">
<path d="M193.985 163.824C202.906 152.304 211.898 157.838 215.04 162.537C214.367 162.9 213.662 163.269 212.934 163.643C212.721 163.541 212.498 163.427 212.266 163.295C206.284 159.891 198.541 161.947 194.843 163.637C194.572 163.76 194.259 163.858 193.985 163.824Z" fill="url(#paint5_linear_2729_21050)"/>
</g>
<g filter="url(#filter14_ii_2729_21050)">
<path d="M221.919 146.653C211.092 147.911 213.088 158.058 215.336 163.23C215.4 163.379 215.528 163.487 215.686 163.525C217.054 163.861 219.444 164.134 220.895 162.704C228.167 153.993 233.614 153.118 236.587 154.209C237.123 154.405 237.874 153.85 237.598 153.35C235.684 149.875 230.956 145.603 221.919 146.653Z" fill="url(#paint6_linear_2729_21050)"/>
</g>
<g filter="url(#filter15_d_2729_21050)">
<path d="M216.266 163.399C217.797 156.483 224.198 144.985 237.637 153.438C237.785 153.912 237.091 154.392 236.587 154.207C233.675 153.139 228.388 153.958 221.337 162.183C221.047 162.298 220.773 162.406 220.519 162.507L216.266 163.399Z" fill="url(#paint7_linear_2729_21050)"/>
</g>
<g filter="url(#filter16_ii_2729_21050)">
<path d="M219.005 158.511C210.981 166.053 222.339 172.164 229.889 174.469L231.065 172.672C231.344 172.246 232.004 172.404 232.06 172.911L232.311 175.197L235.418 176.787L237.058 175.512C237.378 175.264 237.847 175.44 237.925 175.837L238.438 178.453L243.265 181.462C246.038 178.234 245.288 172.532 244.566 170.085C243.116 164.182 237.823 153.996 227.519 154.697C224.352 154.912 221.318 156.337 219.005 158.511Z" fill="#9CC440"/>
</g>
<g filter="url(#filter17_ii_2729_21050)">
<path d="M214.28 162.084C221.06 165.603 214.85 174.145 210.24 178.665C209.794 179.102 209.073 179.047 208.679 178.562L207.239 176.792C207.137 176.666 206.934 176.75 206.951 176.911L207.31 180.41C207.414 181.428 207.035 182.436 206.285 183.132L198.564 190.301C197.805 191.006 196.584 190.83 196.118 189.904C190.548 178.841 195.434 169.151 198.757 165.545C200.931 162.834 207.079 158.346 214.28 162.084Z" fill="#A0C746"/>
</g>
<path d="M243.861 178.817C243.451 170.328 237.969 154.55 219.321 159.35" stroke="url(#paint8_linear_2729_21050)" stroke-linecap="round"/>
<path d="M196.854 190.197C195.508 181.811 198.193 165.405 214 162.007" stroke="url(#paint9_linear_2729_21050)" stroke-width="0.325974" stroke-linecap="round"/>
<g filter="url(#filter18_ii_2729_21050)">
<path d="M45.2783 75.7202L60.0358 40.3635C62.0036 35.6491 68.0295 37.7843 70.7965 39.4411C73.994 39.933 96.3148 55.6335 107.076 63.4222C109.781 64.1601 114.557 67.829 116.607 69.5712L144.506 59.7328C147.212 58.9949 148.592 60.8266 146.351 62.9883C114.164 94.0407 96.0806 108.235 60.0358 125C57.0843 125.738 58.0886 123.384 58.806 122.359L75.4083 101.238C73.1946 101.238 72.8462 96.1143 72.9487 93.5522C71.4729 91.8305 72.3338 88.5306 72.9487 87.0958L69.2593 63.4222L66.7997 60.9626C63.3562 63.1762 62.9053 60.6551 63.1103 59.1179L58.806 62.4998L47.4304 77.2574C44.4789 80.4549 44.7659 77.5649 45.2783 75.7202Z" fill="#5B40B4"/>
</g>
<g filter="url(#filter19_i_2729_21050)">
<path d="M107.399 62.6562C101.496 63.886 81.95 79.6125 72.9315 87.1963C71.4558 89.4099 72.0451 92.7934 72.66 93.7157C72.1681 98.5556 74.0799 100.843 75.1047 101.593C79.451 95.8889 104.471 77.4305 116.666 69.5393C114.207 66.3419 109.449 63.4761 107.399 62.6562Z" fill="#D9B1FF"/>
</g>
<g filter="url(#filter20_i_2729_21050)">
<path d="M82.7411 64.8505C82.4833 63.8293 83.602 63.0152 84.4944 63.5746L89.4297 66.6683C89.8097 66.9065 90.2926 66.9062 90.6722 66.6675L95.6025 63.567C96.4939 63.0064 97.6137 63.8186 97.3577 64.84L95.9415 70.4906C95.8326 70.9255 95.9821 71.3845 96.3264 71.6717L100.8 75.4039C101.608 76.0786 101.182 77.3946 100.131 77.4666L94.3209 77.8643C93.8733 77.895 93.4829 78.1791 93.3161 78.5955L91.1507 84.0018C90.7591 84.9794 89.3756 84.9806 88.9823 84.0036L86.8069 78.5992C86.6394 78.1833 86.2487 77.8999 85.8014 77.8698L79.9891 77.4795C78.9385 77.4089 78.5101 76.0936 79.3176 75.4178L83.7841 71.6801C84.128 71.3922 84.2769 70.9329 84.1671 70.4981L82.7411 64.8505Z" fill="url(#paint10_linear_2729_21050)"/>
</g>
<path d="M248.827 84.7383C249.482 85.8464 248.216 87.0914 247.119 86.4188L232.443 77.4233C231.735 76.9893 230.809 77.364 230.602 78.1682L226.312 94.8385C225.992 96.0849 224.217 96.0704 223.916 94.8189L219.9 78.0807C219.706 77.2732 218.786 76.8835 218.071 77.3058L203.25 86.0602C202.142 86.7147 200.897 85.4492 201.57 84.352L210.565 69.6761C210.999 68.9682 210.625 68.0422 209.82 67.8353L193.15 63.5456C191.904 63.2249 191.918 61.4497 193.17 61.1494L209.908 57.1328C210.715 56.9391 211.105 56.0194 210.683 55.3044L201.928 40.4835C201.274 39.3754 202.539 38.1304 203.637 38.803L218.313 47.7985C219.021 48.2325 219.946 47.8578 220.153 47.0536L224.443 30.3833C224.764 29.1369 226.539 29.1514 226.839 30.4029L230.856 47.1411C231.05 47.9485 231.969 48.3383 232.684 47.916L247.505 39.1616C248.613 38.5071 249.858 39.7725 249.186 40.8698L240.19 55.5456C239.756 56.2536 240.131 57.1795 240.935 57.3865L257.605 61.6762C258.852 61.9969 258.837 63.772 257.586 64.0723L240.848 68.0889C240.04 68.2827 239.65 69.2024 240.073 69.9173L248.827 84.7383Z" fill="url(#paint11_linear_2729_21050)"/>
<path d="M56.3296 255.237C57.118 256.572 55.5938 258.071 54.2722 257.261L36.5959 246.427C35.7431 245.904 34.6279 246.355 34.3787 247.324L29.2119 267.402C28.8256 268.904 26.6876 268.886 26.3259 267.379L21.4881 247.218C21.2547 246.246 20.147 245.776 19.2858 246.285L1.43471 256.829C0.100064 257.618 -1.39942 256.094 -0.589354 254.772L10.2453 237.096C10.768 236.243 10.3167 235.128 9.34809 234.878L-10.7305 229.712C-12.2317 229.325 -12.2142 227.187 -10.7069 226.826L9.45347 221.988C10.426 221.754 10.8955 220.647 10.3868 219.786L-0.157419 201.934C-0.945763 200.6 0.578423 199.1 1.90001 199.91L19.5764 210.745C20.4291 211.268 21.5443 210.816 21.7936 209.848L26.9603 189.769C27.3466 188.268 29.4847 188.286 29.8464 189.793L34.6842 209.953C34.9175 210.926 36.0252 211.395 36.8864 210.887L54.7375 200.342C56.0722 199.554 57.5716 201.078 56.7616 202.4L45.9269 220.076C45.4042 220.929 45.8555 222.044 46.8241 222.293L66.9027 227.46C68.4039 227.846 68.3864 229.984 66.8791 230.346L46.7188 235.184C45.7462 235.417 45.2767 236.525 45.7854 237.386L56.3296 255.237Z" fill="url(#paint12_linear_2729_21050)"/>
</g>
<defs>
<filter id="filter0_ii_2729_21050" x="82.085" y="82.3906" width="131.813" height="117.995" filterUnits="userSpaceOnUse" color-interpolation-filters="sRGB">
<feFlood flood-opacity="0" result="BackgroundImageFix"/>
<feBlend mode="normal" in="SourceGraphic" in2="BackgroundImageFix" result="shape"/>
<feColorMatrix in="SourceAlpha" type="matrix" values="0 0 0 0 0 0 0 0 0 0 0 0 0 0 0 0 0 0 127 0" result="hardAlpha"/>
<feOffset dx="-6.4116" dy="1.4248"/>
<feGaussianBlur stdDeviation="5.30738"/>
<feComposite in2="hardAlpha" operator="arithmetic" k2="-1" k3="1"/>
<feColorMatrix type="matrix" values="0 0 0 0 1 0 0 0 0 0.912766 0 0 0 0 0.792818 0 0 0 0.8 0"/>
<feBlend mode="normal" in2="shape" result="effect1_innerShadow_2729_21050"/>
<feColorMatrix in="SourceAlpha" type="matrix" values="0 0 0 0 0 0 0 0 0 0 0 0 0 0 0 0 0 0 127 0" result="hardAlpha"/>
<feOffset dx="-0.7124" dy="0.7124"/>
<feGaussianBlur stdDeviation="0.3562"/>
<feComposite in2="hardAlpha" operator="arithmetic" k2="-1" k3="1"/>
<feColorMatrix type="matrix" values="0 0 0 0 0.871206 0 0 0 0 1 0 0 0 0 0.997853 0 0 0 0.5 0"/>
<feBlend mode="normal" in2="effect1_innerShadow_2729_21050" result="effect2_innerShadow_2729_21050"/>
</filter>
<filter id="filter1_n_2729_21050" x="62.1592" y="66.1094" width="165.725" height="148.633" filterUnits="userSpaceOnUse" color-interpolation-filters="sRGB">
<feFlood flood-opacity="0" result="BackgroundImageFix"/>
<feBlend mode="normal" in="SourceGraphic" in2="BackgroundImageFix" result="shape"/>
<feTurbulence type="fractalNoise" baseFrequency="0.14621925354003906 0.14621925354003906" stitchTiles="stitch" numOctaves="3" result="noise" seed="1999" />
<feColorMatrix in="noise" type="luminanceToAlpha" result="alphaNoise" />
<feComponentTransfer in="alphaNoise" result="coloredNoise1">
<feFuncA type="discrete" tableValues="1 1 1 1 1 1 1 1 1 1 1 1 1 1 1 1 1 1 1 1 1 1 1 1 1 1 1 1 1 1 1 1 1 1 1 1 1 1 1 1 1 1 1 1 1 1 1 1 1 1 1 0 0 0 0 0 0 0 0 0 0 0 0 0 0 0 0 0 0 0 0 0 0 0 0 0 0 0 0 0 0 0 0 0 0 0 0 0 0 0 0 0 0 0 0 0 0 0 0 0 "/>
</feComponentTransfer>
<feComposite operator="in" in2="shape" in="coloredNoise1" result="noise1Clipped" />
<feFlood flood-color="rgba(0, 0, 0, 0.08)" result="color1Flood" />
<feComposite operator="in" in2="noise1Clipped" in="color1Flood" result="color1" />
<feMerge result="effect1_noise_2729_21050">
<feMergeNode in="shape" />
<feMergeNode in="color1" />
</feMerge>
</filter>
<filter id="filter2_ii_2729_21050" x="123.504" y="199.453" width="66.7643" height="26.667" filterUnits="userSpaceOnUse" color-interpolation-filters="sRGB">
<feFlood flood-opacity="0" result="BackgroundImageFix"/>
<feBlend mode="normal" in="SourceGraphic" in2="BackgroundImageFix" result="shape"/>
<feColorMatrix in="SourceAlpha" type="matrix" values="0 0 0 0 0 0 0 0 0 0 0 0 0 0 0 0 0 0 127 0" result="hardAlpha"/>
<feOffset dx="-7.8364" dy="1.4248"/>
<feGaussianBlur stdDeviation="3.77572"/>
<feComposite in2="hardAlpha" operator="arithmetic" k2="-1" k3="1"/>
<feColorMatrix type="matrix" values="0 0 0 0 0.869328 0 0 0 0 0.719989 0 0 0 0 1 0 0 0 0.2 0"/>
<feBlend mode="normal" in2="shape" result="effect1_innerShadow_2729_21050"/>
<feColorMatrix in="SourceAlpha" type="matrix" values="0 0 0 0 0 0 0 0 0 0 0 0 0 0 0 0 0 0 127 0" result="hardAlpha"/>
<feOffset dx="-0.7124"/>
<feGaussianBlur stdDeviation="0.3562"/>
<feComposite in2="hardAlpha" operator="arithmetic" k2="-1" k3="1"/>
<feColorMatrix type="matrix" values="0 0 0 0 0.858824 0 0 0 0 0.976471 0 0 0 0 0.984314 0 0 0 0.2 0"/>
<feBlend mode="normal" in2="effect1_innerShadow_2729_21050" result="effect2_innerShadow_2729_21050"/>
</filter>
<filter id="filter3_g_2729_21050" x="128.032" y="142.214" width="25.2642" height="22.5327" filterUnits="userSpaceOnUse" color-interpolation-filters="sRGB">
<feFlood flood-opacity="0" result="BackgroundImageFix"/>
<feBlend mode="normal" in="SourceGraphic" in2="BackgroundImageFix" result="shape"/>
<feTurbulence type="fractalNoise" baseFrequency="1.5596723556518555 1.5596723556518555" numOctaves="3" seed="3511" />
<feDisplacementMap in="shape" scale="0.71240037679672241" xChannelSelector="R" yChannelSelector="G" result="displacedImage" width="100%" height="100%" />
<feMerge result="effect1_texture_2729_21050">
<feMergeNode in="displacedImage"/>
</feMerge>
</filter>
<filter id="filter4_g_2729_21050" x="132.723" y="145.399" width="17.1158" height="15.7179" filterUnits="userSpaceOnUse" color-interpolation-filters="sRGB">
<feFlood flood-opacity="0" result="BackgroundImageFix"/>
<feBlend mode="normal" in="SourceGraphic" in2="BackgroundImageFix" result="shape"/>
<feTurbulence type="fractalNoise" baseFrequency="2.3747243881225586 2.3747243881225586" numOctaves="3" seed="3511" />
<feDisplacementMap in="shape" scale="0.46789056062698364" xChannelSelector="R" yChannelSelector="G" result="displacedImage" width="100%" height="100%" />
<feMerge result="effect1_texture_2729_21050">
<feMergeNode in="displacedImage"/>
</feMerge>
</filter>
<filter id="filter5_g_2729_21050" x="163.12" y="138.831" width="22.917" height="22.478" filterUnits="userSpaceOnUse" color-interpolation-filters="sRGB">
<feFlood flood-opacity="0" result="BackgroundImageFix"/>
<feBlend mode="normal" in="SourceGraphic" in2="BackgroundImageFix" result="shape"/>
<feTurbulence type="fractalNoise" baseFrequency="1.5596723556518555 1.5596723556518555" numOctaves="3" seed="3511" />
<feDisplacementMap in="shape" scale="0.71240037679672241" xChannelSelector="R" yChannelSelector="G" result="displacedImage" width="100%" height="100%" />
<feMerge result="effect1_texture_2729_21050">
<feMergeNode in="displacedImage"/>
</feMerge>
</filter>
<filter id="filter6_g_2729_21050" x="166.218" y="141.821" width="16.8409" height="15.9132" filterUnits="userSpaceOnUse" color-interpolation-filters="sRGB">
<feFlood flood-opacity="0" result="BackgroundImageFix"/>
<feBlend mode="normal" in="SourceGraphic" in2="BackgroundImageFix" result="shape"/>
<feTurbulence type="fractalNoise" baseFrequency="2.3747243881225586 2.3747243881225586" numOctaves="3" seed="3511" />
<feDisplacementMap in="shape" scale="0.46789056062698364" xChannelSelector="R" yChannelSelector="G" result="displacedImage" width="100%" height="100%" />
<feMerge result="effect1_texture_2729_21050">
<feMergeNode in="displacedImage"/>
</feMerge>
</filter>
<filter id="filter7_i_2729_21050" x="194.709" y="198.628" width="49.4744" height="14.7939" filterUnits="userSpaceOnUse" color-interpolation-filters="sRGB">
<feFlood flood-opacity="0" result="BackgroundImageFix"/>
<feBlend mode="normal" in="SourceGraphic" in2="BackgroundImageFix" result="shape"/>
<feColorMatrix in="SourceAlpha" type="matrix" values="0 0 0 0 0 0 0 0 0 0 0 0 0 0 0 0 0 0 127 0" result="hardAlpha"/>
<feOffset dx="-3.80303" dy="-1.62987"/>
<feGaussianBlur stdDeviation="4.10184"/>
<feComposite in2="hardAlpha" operator="arithmetic" k2="-1" k3="1"/>
<feColorMatrix type="matrix" values="0 0 0 0 0.913725 0 0 0 0 0.427451 0 0 0 0 0.290196 0 0 0 1 0"/>
<feBlend mode="normal" in2="shape" result="effect1_innerShadow_2729_21050"/>
</filter>
<filter id="filter8_iii_2729_21050" x="212.016" y="197.953" width="18.2329" height="12.6028" filterUnits="userSpaceOnUse" color-interpolation-filters="sRGB">
<feFlood flood-opacity="0" result="BackgroundImageFix"/>
<feBlend mode="normal" in="SourceGraphic" in2="BackgroundImageFix" result="shape"/>
<feColorMatrix in="SourceAlpha" type="matrix" values="0 0 0 0 0 0 0 0 0 0 0 0 0 0 0 0 0 0 127 0" result="hardAlpha"/>
<feOffset dx="-4.34632" dy="1.08658"/>
<feGaussianBlur stdDeviation="1.49405"/>
<feComposite in2="hardAlpha" operator="arithmetic" k2="-1" k3="1"/>
<feColorMatrix type="matrix" values="0 0 0 0 0.538462 0 0 0 0 0.160503 0 0 0 0 0.1885 0 0 0 1 0"/>
<feBlend mode="normal" in2="shape" result="effect1_innerShadow_2729_21050"/>
<feColorMatrix in="SourceAlpha" type="matrix" values="0 0 0 0 0 0 0 0 0 0 0 0 0 0 0 0 0 0 127 0" result="hardAlpha"/>
<feOffset dx="2.71645" dy="0.54329"/>
<feGaussianBlur stdDeviation="1.16807"/>
<feComposite in2="hardAlpha" operator="arithmetic" k2="-1" k3="1"/>
<feColorMatrix type="matrix" values="0 0 0 0 0.903846 0 0 0 0 0.386742 0 0 0 0 0.386742 0 0 0 1 0"/>
<feBlend mode="normal" in2="effect1_innerShadow_2729_21050" result="effect2_innerShadow_2729_21050"/>
<feColorMatrix in="SourceAlpha" type="matrix" values="0 0 0 0 0 0 0 0 0 0 0 0 0 0 0 0 0 0 127 0" result="hardAlpha"/>
<feOffset dy="2.71645"/>
<feGaussianBlur stdDeviation="1.08658"/>
<feComposite in2="hardAlpha" operator="arithmetic" k2="-1" k3="1"/>
<feColorMatrix type="matrix" values="0 0 0 0 0.394231 0 0 0 0 0 0 0 0 0 0 0 0 0 0.25 0"/>
<feBlend mode="normal" in2="effect2_innerShadow_2729_21050" result="effect3_innerShadow_2729_21050"/>
</filter>
<filter id="filter9_iii_2729_21050" x="214.435" y="185.758" width="15.5972" height="16.6575" filterUnits="userSpaceOnUse" color-interpolation-filters="sRGB">
<feFlood flood-opacity="0" result="BackgroundImageFix"/>
<feBlend mode="normal" in="SourceGraphic" in2="BackgroundImageFix" result="shape"/>
<feColorMatrix in="SourceAlpha" type="matrix" values="0 0 0 0 0 0 0 0 0 0 0 0 0 0 0 0 0 0 127 0" result="hardAlpha"/>
<feOffset dx="-4.34632" dy="1.08658"/>
<feGaussianBlur stdDeviation="1.49405"/>
<feComposite in2="hardAlpha" operator="arithmetic" k2="-1" k3="1"/>
<feColorMatrix type="matrix" values="0 0 0 0 0.538462 0 0 0 0 0.160503 0 0 0 0 0.1885 0 0 0 1 0"/>
<feBlend mode="normal" in2="shape" result="effect1_innerShadow_2729_21050"/>
<feColorMatrix in="SourceAlpha" type="matrix" values="0 0 0 0 0 0 0 0 0 0 0 0 0 0 0 0 0 0 127 0" result="hardAlpha"/>
<feOffset dx="2.71645" dy="0.54329"/>
<feGaussianBlur stdDeviation="1.16807"/>
<feComposite in2="hardAlpha" operator="arithmetic" k2="-1" k3="1"/>
<feColorMatrix type="matrix" values="0 0 0 0 0.903846 0 0 0 0 0.386742 0 0 0 0 0.386742 0 0 0 1 0"/>
<feBlend mode="normal" in2="effect1_innerShadow_2729_21050" result="effect2_innerShadow_2729_21050"/>
<feColorMatrix in="SourceAlpha" type="matrix" values="0 0 0 0 0 0 0 0 0 0 0 0 0 0 0 0 0 0 127 0" result="hardAlpha"/>
<feOffset dy="2.71645"/>
<feGaussianBlur stdDeviation="1.08658"/>
<feComposite in2="hardAlpha" operator="arithmetic" k2="-1" k3="1"/>
<feColorMatrix type="matrix" values="0 0 0 0 0.394231 0 0 0 0 0 0 0 0 0 0 0 0 0 0.25 0"/>
<feBlend mode="normal" in2="effect2_innerShadow_2729_21050" result="effect3_innerShadow_2729_21050"/>
</filter>
<filter id="filter10_iii_2729_21050" x="213.521" y="174.328" width="15.4038" height="15.9388" filterUnits="userSpaceOnUse" color-interpolation-filters="sRGB">
<feFlood flood-opacity="0" result="BackgroundImageFix"/>
<feBlend mode="normal" in="SourceGraphic" in2="BackgroundImageFix" result="shape"/>
<feColorMatrix in="SourceAlpha" type="matrix" values="0 0 0 0 0 0 0 0 0 0 0 0 0 0 0 0 0 0 127 0" result="hardAlpha"/>
<feOffset dx="-4.34632" dy="1.08658"/>
<feGaussianBlur stdDeviation="1.49405"/>
<feComposite in2="hardAlpha" operator="arithmetic" k2="-1" k3="1"/>
<feColorMatrix type="matrix" values="0 0 0 0 0.538462 0 0 0 0 0.160503 0 0 0 0 0.1885 0 0 0 1 0"/>
<feBlend mode="normal" in2="shape" result="effect1_innerShadow_2729_21050"/>
<feColorMatrix in="SourceAlpha" type="matrix" values="0 0 0 0 0 0 0 0 0 0 0 0 0 0 0 0 0 0 127 0" result="hardAlpha"/>
<feOffset dx="2.71645" dy="0.54329"/>
<feGaussianBlur stdDeviation="1.16807"/>
<feComposite in2="hardAlpha" operator="arithmetic" k2="-1" k3="1"/>
<feColorMatrix type="matrix" values="0 0 0 0 0.903846 0 0 0 0 0.386742 0 0 0 0 0.386742 0 0 0 1 0"/>
<feBlend mode="normal" in2="effect1_innerShadow_2729_21050" result="effect2_innerShadow_2729_21050"/>
<feColorMatrix in="SourceAlpha" type="matrix" values="0 0 0 0 0 0 0 0 0 0 0 0 0 0 0 0 0 0 127 0" result="hardAlpha"/>
<feOffset dy="2.71645"/>
<feGaussianBlur stdDeviation="1.08658"/>
<feComposite in2="hardAlpha" operator="arithmetic" k2="-1" k3="1"/>
<feColorMatrix type="matrix" values="0 0 0 0 0.394231 0 0 0 0 0 0 0 0 0 0 0 0 0 0.25 0"/>
<feBlend mode="normal" in2="effect2_innerShadow_2729_21050" result="effect3_innerShadow_2729_21050"/>
</filter>
<filter id="filter11_iii_2729_21050" x="208.626" y="161.953" width="18.4234" height="17.6107" filterUnits="userSpaceOnUse" color-interpolation-filters="sRGB">
<feFlood flood-opacity="0" result="BackgroundImageFix"/>
<feBlend mode="normal" in="SourceGraphic" in2="BackgroundImageFix" result="shape"/>
<feColorMatrix in="SourceAlpha" type="matrix" values="0 0 0 0 0 0 0 0 0 0 0 0 0 0 0 0 0 0 127 0" result="hardAlpha"/>
<feOffset dx="-4.34632" dy="1.08658"/>
<feGaussianBlur stdDeviation="1.49405"/>
<feComposite in2="hardAlpha" operator="arithmetic" k2="-1" k3="1"/>
<feColorMatrix type="matrix" values="0 0 0 0 0.538462 0 0 0 0 0.160503 0 0 0 0 0.1885 0 0 0 1 0"/>
<feBlend mode="normal" in2="shape" result="effect1_innerShadow_2729_21050"/>
<feColorMatrix in="SourceAlpha" type="matrix" values="0 0 0 0 0 0 0 0 0 0 0 0 0 0 0 0 0 0 127 0" result="hardAlpha"/>
<feOffset dy="2.71645"/>
<feGaussianBlur stdDeviation="1.08658"/>
<feComposite in2="hardAlpha" operator="arithmetic" k2="-1" k3="1"/>
<feColorMatrix type="matrix" values="0 0 0 0 0.394231 0 0 0 0 0 0 0 0 0 0 0 0 0 0.25 0"/>
<feBlend mode="normal" in2="effect1_innerShadow_2729_21050" result="effect2_innerShadow_2729_21050"/>
<feColorMatrix in="SourceAlpha" type="matrix" values="0 0 0 0 0 0 0 0 0 0 0 0 0 0 0 0 0 0 127 0" result="hardAlpha"/>
<feOffset dx="2.71645" dy="0.54329"/>
<feGaussianBlur stdDeviation="1.16807"/>
<feComposite in2="hardAlpha" operator="arithmetic" k2="-1" k3="1"/>
<feColorMatrix type="matrix" values="0 0 0 0 0.903846 0 0 0 0 0.386742 0 0 0 0 0.386742 0 0 0 1 0"/>
<feBlend mode="normal" in2="effect2_innerShadow_2729_21050" result="effect3_innerShadow_2729_21050"/>
</filter>
<filter id="filter12_i_2729_21050" x="193.249" y="150.266" width="27.4688" height="14.9531" filterUnits="userSpaceOnUse" color-interpolation-filters="sRGB">
<feFlood flood-opacity="0" result="BackgroundImageFix"/>
<feBlend mode="normal" in="SourceGraphic" in2="BackgroundImageFix" result="shape"/>
<feColorMatrix in="SourceAlpha" type="matrix" values="0 0 0 0 0 0 0 0 0 0 0 0 0 0 0 0 0 0 127 0" result="hardAlpha"/>
<feOffset dx="3" dy="1"/>
<feGaussianBlur stdDeviation="2.25"/>
<feComposite in2="hardAlpha" operator="arithmetic" k2="-1" k3="1"/>
<feColorMatrix type="matrix" values="0 0 0 0 1 0 0 0 0 0.710857 0 0 0 0 0.67873 0 0 0 0.5 0"/>
<feBlend mode="normal" in2="shape" result="effect1_innerShadow_2729_21050"/>
</filter>
<filter id="filter13_d_2729_21050" x="191.812" y="154.284" width="23.2283" height="9.54458" filterUnits="userSpaceOnUse" color-interpolation-filters="sRGB">
<feFlood flood-opacity="0" result="BackgroundImageFix"/>
<feColorMatrix in="SourceAlpha" type="matrix" values="0 0 0 0 0 0 0 0 0 0 0 0 0 0 0 0 0 0 127 0" result="hardAlpha"/>
<feOffset dx="-1.08658" dy="-1.62987"/>
<feGaussianBlur stdDeviation="0.54329"/>
<feComposite in2="hardAlpha" operator="out"/>
<feColorMatrix type="matrix" values="0 0 0 0 1 0 0 0 0 1 0 0 0 0 1 0 0 0 0.25 0"/>
<feBlend mode="normal" in2="BackgroundImageFix" result="effect1_dropShadow_2729_21050"/>
<feBlend mode="normal" in="SourceGraphic" in2="effect1_dropShadow_2729_21050" result="shape"/>
</filter>
<filter id="filter14_ii_2729_21050" x="213.563" y="144.492" width="27.0938" height="21.4778" filterUnits="userSpaceOnUse" color-interpolation-filters="sRGB">
<feFlood flood-opacity="0" result="BackgroundImageFix"/>
<feBlend mode="normal" in="SourceGraphic" in2="BackgroundImageFix" result="shape"/>
<feColorMatrix in="SourceAlpha" type="matrix" values="0 0 0 0 0 0 0 0 0 0 0 0 0 0 0 0 0 0 127 0" result="hardAlpha"/>
<feOffset dx="1.62987" dy="2.17316"/>
<feGaussianBlur stdDeviation="1.6842"/>
<feComposite in2="hardAlpha" operator="arithmetic" k2="-1" k3="1"/>
<feColorMatrix type="matrix" values="0 0 0 0 0.795072 0 0 0 0 0.908654 0 0 0 0 0.397536 0 0 0 0.7 0"/>
<feBlend mode="normal" in2="shape" result="effect1_innerShadow_2729_21050"/>
<feColorMatrix in="SourceAlpha" type="matrix" values="0 0 0 0 0 0 0 0 0 0 0 0 0 0 0 0 0 0 127 0" result="hardAlpha"/>
<feOffset dx="3" dy="-2"/>
<feGaussianBlur stdDeviation="2.9"/>
<feComposite in2="hardAlpha" operator="arithmetic" k2="-1" k3="1"/>
<feColorMatrix type="matrix" values="0 0 0 0 1 0 0 0 0 0.710857 0 0 0 0 0.67873 0 0 0 0.5 0"/>
<feBlend mode="normal" in2="effect1_innerShadow_2729_21050" result="effect2_innerShadow_2729_21050"/>
</filter>
<filter id="filter15_d_2729_21050" x="215.18" y="148.28" width="23.5643" height="15.1185" filterUnits="userSpaceOnUse" color-interpolation-filters="sRGB">
<feFlood flood-opacity="0" result="BackgroundImageFix"/>
<feColorMatrix in="SourceAlpha" type="matrix" values="0 0 0 0 0 0 0 0 0 0 0 0 0 0 0 0 0 0 127 0" result="hardAlpha"/>
<feOffset dy="-1.08658"/>
<feGaussianBlur stdDeviation="0.54329"/>
<feComposite in2="hardAlpha" operator="out"/>
<feColorMatrix type="matrix" values="0 0 0 0 1 0 0 0 0 1 0 0 0 0 1 0 0 0 0.25 0"/>
<feBlend mode="normal" in2="BackgroundImageFix" result="effect1_dropShadow_2729_21050"/>
<feBlend mode="normal" in="SourceGraphic" in2="effect1_dropShadow_2729_21050" result="shape"/>
</filter>
<filter id="filter16_ii_2729_21050" x="210.28" y="144.885" width="34.9542" height="36.5761" filterUnits="userSpaceOnUse" color-interpolation-filters="sRGB">
<feFlood flood-opacity="0" result="BackgroundImageFix"/>
<feBlend mode="normal" in="SourceGraphic" in2="BackgroundImageFix" result="shape"/>
<feColorMatrix in="SourceAlpha" type="matrix" values="0 0 0 0 0 0 0 0 0 0 0 0 0 0 0 0 0 0 127 0" result="hardAlpha"/>
<feOffset dx="-5.97619" dy="-2.17316"/>
<feGaussianBlur stdDeviation="4.10184"/>
<feComposite in2="hardAlpha" operator="arithmetic" k2="-1" k3="1"/>
<feColorMatrix type="matrix" values="0 0 0 0 0.219608 0 0 0 0 0.521569 0 0 0 0 0.109804 0 0 0 0.3 0"/>
<feBlend mode="normal" in2="shape" result="effect1_innerShadow_2729_21050"/>
<feColorMatrix in="SourceAlpha" type="matrix" values="0 0 0 0 0 0 0 0 0 0 0 0 0 0 0 0 0 0 127 0" result="hardAlpha"/>
<feOffset dx="-1.62987" dy="-9.77922"/>
<feGaussianBlur stdDeviation="5.07976"/>
<feComposite in2="hardAlpha" operator="arithmetic" k2="-1" k3="1"/>
<feColorMatrix type="matrix" values="0 0 0 0 0.219608 0 0 0 0 0.521569 0 0 0 0 0.109804 0 0 0 0.6 0"/>
<feBlend mode="normal" in2="effect1_innerShadow_2729_21050" result="effect2_innerShadow_2729_21050"/>
</filter>
<filter id="filter17_ii_2729_21050" x="187.612" y="158.483" width="32.6652" height="39.2513" filterUnits="userSpaceOnUse" color-interpolation-filters="sRGB">
<feFlood flood-opacity="0" result="BackgroundImageFix"/>
<feBlend mode="normal" in="SourceGraphic" in2="BackgroundImageFix" result="shape"/>
<feColorMatrix in="SourceAlpha" type="matrix" values="0 0 0 0 0 0 0 0 0 0 0 0 0 0 0 0 0 0 127 0" result="hardAlpha"/>
<feOffset dx="-5.97619" dy="-2.17316"/>
<feGaussianBlur stdDeviation="4.10184"/>
<feComposite in2="hardAlpha" operator="arithmetic" k2="-1" k3="1"/>
<feColorMatrix type="matrix" values="0 0 0 0 0.219608 0 0 0 0 0.521569 0 0 0 0 0.109804 0 0 0 1 0"/>
<feBlend mode="normal" in2="shape" result="effect1_innerShadow_2729_21050"/>
<feColorMatrix in="SourceAlpha" type="matrix" values="0 0 0 0 0 0 0 0 0 0 0 0 0 0 0 0 0 0 127 0" result="hardAlpha"/>
<feOffset dx="3" dy="7"/>
<feGaussianBlur stdDeviation="3.85"/>
<feComposite in2="hardAlpha" operator="arithmetic" k2="-1" k3="1"/>
<feColorMatrix type="matrix" values="0 0 0 0 1 0 0 0 0 0.710857 0 0 0 0 0.67873 0 0 0 0.5 0"/>
<feBlend mode="normal" in2="effect1_innerShadow_2729_21050" result="effect2_innerShadow_2729_21050"/>
</filter>
<filter id="filter18_ii_2729_21050" x="36.9521" y="34.4922" width="110.52" height="90.6484" filterUnits="userSpaceOnUse" color-interpolation-filters="sRGB">
<feFlood flood-opacity="0" result="BackgroundImageFix"/>
<feBlend mode="normal" in="SourceGraphic" in2="BackgroundImageFix" result="shape"/>
<feColorMatrix in="SourceAlpha" type="matrix" values="0 0 0 0 0 0 0 0 0 0 0 0 0 0 0 0 0 0 127 0" result="hardAlpha"/>
<feOffset dy="-3"/>
<feGaussianBlur stdDeviation="6"/>
<feComposite in2="hardAlpha" operator="arithmetic" k2="-1" k3="1"/>
<feColorMatrix type="matrix" values="0 0 0 0 0.11751 0 0 0 0 0.0350767 0 0 0 0 0.390174 0 0 0 0.6 0"/>
<feBlend mode="normal" in2="shape" result="effect1_innerShadow_2729_21050"/>
<feColorMatrix in="SourceAlpha" type="matrix" values="0 0 0 0 0 0 0 0 0 0 0 0 0 0 0 0 0 0 127 0" result="hardAlpha"/>
<feOffset dx="-8"/>
<feGaussianBlur stdDeviation="6.7"/>
<feComposite in2="hardAlpha" operator="arithmetic" k2="-1" k3="1"/>
<feColorMatrix type="matrix" values="0 0 0 0 0.960784 0 0 0 0 0.494118 0 0 0 0 0.494118 0 0 0 0.3 0"/>
<feBlend mode="normal" in2="effect1_innerShadow_2729_21050" result="effect2_innerShadow_2729_21050"/>
</filter>
<filter id="filter19_i_2729_21050" x="72.0073" y="60.6562" width="51.9592" height="40.9375" filterUnits="userSpaceOnUse" color-interpolation-filters="sRGB">
<feFlood flood-opacity="0" result="BackgroundImageFix"/>
<feBlend mode="normal" in="SourceGraphic" in2="BackgroundImageFix" result="shape"/>
<feColorMatrix in="SourceAlpha" type="matrix" values="0 0 0 0 0 0 0 0 0 0 0 0 0 0 0 0 0 0 127 0" result="hardAlpha"/>
<feOffset dx="8" dy="-2"/>
<feGaussianBlur stdDeviation="3.65"/>
<feComposite in2="hardAlpha" operator="arithmetic" k2="-1" k3="1"/>
<feColorMatrix type="matrix" values="0 0 0 0 0.515209 0 0 0 0 0.299245 0 0 0 0 0.641188 0 0 0 0.4 0"/>
<feBlend mode="normal" in2="shape" result="effect1_innerShadow_2729_21050"/>
</filter>
<filter id="filter20_i_2729_21050" x="78.8975" y="61.6304" width="22.3237" height="23.104" filterUnits="userSpaceOnUse" color-interpolation-filters="sRGB">
<feFlood flood-opacity="0" result="BackgroundImageFix"/>
<feBlend mode="normal" in="SourceGraphic" in2="BackgroundImageFix" result="shape"/>
<feColorMatrix in="SourceAlpha" type="matrix" values="0 0 0 0 0 0 0 0 0 0 0 0 0 0 0 0 0 0 127 0" result="hardAlpha"/>
<feOffset dy="-1.75246"/>
<feGaussianBlur stdDeviation="1.16831"/>
<feComposite in2="hardAlpha" operator="arithmetic" k2="-1" k3="1"/>
<feColorMatrix type="matrix" values="0 0 0 0 0.888954 0 0 0 0 0.518556 0 0 0 0 0 0 0 0 0.7 0"/>
<feBlend mode="normal" in2="shape" result="effect1_innerShadow_2729_21050"/>
</filter>
<linearGradient id="paint0_linear_2729_21050" x1="227.032" y1="119.216" x2="78.0969" y2="182.416" gradientUnits="userSpaceOnUse">
<stop stop-color="#FFB2B2" stop-opacity="0.2"/>
<stop offset="1" stop-color="white" stop-opacity="0"/>
</linearGradient>
<linearGradient id="paint1_linear_2729_21050" x1="64.5202" y1="89.7258" x2="124.718" y2="219.493" gradientUnits="userSpaceOnUse">
<stop stop-color="#8C3E3E"/>
<stop offset="0.586538" stop-color="#CEB484"/>
<stop offset="1" stop-color="#8F5B5B"/>
</linearGradient>
<linearGradient id="paint2_linear_2729_21050" x1="83" y1="144.5" x2="86.0854" y2="74.0256" gradientUnits="userSpaceOnUse">
<stop stop-color="#FFD9D9"/>
<stop offset="0.675784" stop-color="#FFD9D9" stop-opacity="0"/>
</linearGradient>
<linearGradient id="paint3_linear_2729_21050" x1="69.1509" y1="137.054" x2="84.1209" y2="140.113" gradientUnits="userSpaceOnUse">
<stop stop-color="#FFD9D9"/>
<stop offset="1" stop-color="#FFD9D9" stop-opacity="0"/>
</linearGradient>
<linearGradient id="paint4_linear_2729_21050" x1="225.712" y1="205.702" x2="244.735" y2="209.372" gradientUnits="userSpaceOnUse">
<stop stop-color="#C4543F"/>
<stop offset="1" stop-color="#C4543F" stop-opacity="0"/>
</linearGradient>
<linearGradient id="paint5_linear_2729_21050" x1="194.39" y1="163.85" x2="214.206" y2="161.76" gradientUnits="userSpaceOnUse">
<stop stop-color="#277C18"/>
<stop offset="1" stop-color="#538A13"/>
</linearGradient>
<linearGradient id="paint6_linear_2729_21050" x1="232.742" y1="148.428" x2="215.16" y2="163.794" gradientUnits="userSpaceOnUse">
<stop stop-color="#A1C338"/>
<stop offset="1" stop-color="#5D971E"/>
</linearGradient>
<linearGradient id="paint7_linear_2729_21050" x1="219.118" y1="161.253" x2="238.461" y2="154.09" gradientUnits="userSpaceOnUse">
<stop stop-color="#287C12"/>
<stop offset="1" stop-color="#3C8F1E"/>
</linearGradient>
<linearGradient id="paint8_linear_2729_21050" x1="219.299" y1="159.692" x2="243.739" y2="179.365" gradientUnits="userSpaceOnUse">
<stop stop-color="#89B839"/>
<stop offset="1" stop-color="#44901E"/>
</linearGradient>
<linearGradient id="paint9_linear_2729_21050" x1="197.774" y1="190.229" x2="192.298" y2="170.172" gradientUnits="userSpaceOnUse">
<stop stop-color="#408A20"/>
<stop offset="0.593136" stop-color="#99C343"/>
<stop offset="1" stop-color="#4B9124"/>
</linearGradient>
<linearGradient id="paint10_linear_2729_21050" x1="90.0156" y1="56.2167" x2="90.0892" y2="89.9044" gradientUnits="userSpaceOnUse">
<stop stop-color="#FFE096"/>
<stop offset="1" stop-color="#FFCA4E"/>
</linearGradient>
<linearGradient id="paint11_linear_2729_21050" x1="216.032" y1="4.4242" x2="229.106" y2="107.111" gradientUnits="userSpaceOnUse">
<stop stop-color="#9CCFFF"/>
<stop offset="1" stop-color="#A7B3FF" stop-opacity="0"/>
</linearGradient>
<linearGradient id="paint12_linear_2729_21050" x1="16.8296" y1="158.503" x2="32.5769" y2="282.184" gradientUnits="userSpaceOnUse">
<stop stop-color="#9CCFFF"/>
<stop offset="1" stop-color="#A7B3FF" stop-opacity="0"/>
</linearGradient>
<clipPath id="clip0_2729_21050">
<rect width="298" height="274" fill="white"/>
</clipPath>
</defs>
</svg>
