<svg width="298" height="256" viewBox="0 0 298 256" fill="none" xmlns="http://www.w3.org/2000/svg">
<g clip-path="url(#clip0_1511_6981)">
<path d="M0.711893 9.62493L0.606439 9.78351L0.789741 9.83519L0.607021 9.88889L0.71422 10.0463L0.539731 9.96999L0.520667 10.1595L0.436054 9.98886L0.299648 10.1218L0.344502 9.93668L0.154579 9.95081L0.307913 9.83785L0.153341 9.7266L0.343408 9.73863L0.296512 9.55405L0.434378 9.68544L0.517101 9.51389L0.538257 9.70316L0.711893 9.62493Z" fill="white"/>
<path d="M63.4837 28.457L63.3782 28.6155L63.5615 28.6672L63.3788 28.7209L63.486 28.8783L63.3115 28.802L63.2925 28.9915L63.2078 28.8209L63.0714 28.9538L63.1163 28.7687L62.9264 28.7828L63.0797 28.6699L62.9251 28.5586L63.1152 28.5707L63.0683 28.3861L63.2062 28.5175L63.2889 28.3459L63.31 28.5352L63.4837 28.457Z" fill="white"/>
<path d="M25.1145 50.0976L25.0091 50.2562L25.1924 50.3078L25.0096 50.3615L25.1168 50.519L24.9423 50.4426L24.9233 50.6321L24.8387 50.4615L24.7023 50.5944L24.7471 50.4093L24.5572 50.4235L24.7105 50.3105L24.556 50.1993L24.746 50.2113L24.6991 50.0267L24.837 50.1581L24.9197 49.9865L24.9409 50.1758L25.1145 50.0976Z" fill="white"/>
<path d="M31.016 15.664L30.9106 15.8226L31.0939 15.8743L30.9112 15.928L31.0184 16.0854L30.8439 16.0091L30.8248 16.1985L30.7402 16.0279L30.6038 16.1608L30.6486 15.9757L30.4587 15.9899L30.6121 15.8769L30.4575 15.7657L30.6475 15.7777L30.6007 15.5931L30.7385 15.7245L30.8212 15.553L30.8424 15.7422L31.016 15.664Z" fill="white"/>
<path d="M12.9792 23.8632L12.8737 24.0218L13.057 24.0735L12.8743 24.1272L12.9815 24.2846L12.807 24.2083L12.788 24.3978L12.7034 24.2271L12.567 24.36L12.6118 24.175L12.4219 24.1891L12.5752 24.0761L12.4206 23.9649L12.6107 23.9769L12.5638 23.7923L12.7017 23.9237L12.7844 23.7522L12.8056 23.9414L12.9792 23.8632Z" fill="white"/>
<path d="M127.104 44.5234L126.999 44.682L127.182 44.7336L126.999 44.7873L127.107 44.9447L126.932 44.8684L126.913 45.0579L126.828 44.8873L126.692 45.0202L126.737 44.8351L126.547 44.8492L126.7 44.7363L126.546 44.625L126.736 44.6371L126.689 44.4525L126.827 44.5839L126.909 44.4123L126.931 44.6016L127.104 44.5234Z" fill="white"/>
<path d="M69.7135 10.4179L69.608 10.5765L69.7913 10.6282L69.6086 10.6819L69.7158 10.8393L69.5413 10.763L69.5223 10.9525L69.4376 10.7818L69.3012 10.9147L69.3461 10.7296L69.1562 10.7438L69.3095 10.6308L69.1549 10.5196L69.345 10.5316L69.2981 10.347L69.436 10.4784L69.5187 10.3069L69.5398 10.4961L69.7135 10.4179Z" fill="white"/>
<path d="M208.761 29.4374L208.656 29.596L208.839 29.6477L208.657 29.7014L208.764 29.8588L208.589 29.7825L208.57 29.972L208.486 29.8014L208.349 29.9343L208.394 29.7492L208.204 29.7633L208.357 29.6504L208.203 29.5391L208.393 29.5511L208.346 29.3665L208.484 29.4979L208.567 29.3264L208.588 29.5157L208.761 29.4374Z" fill="white"/>
<path d="M132.68 83.2187L132.574 83.3773L132.757 83.4289L132.575 83.4826L132.682 83.6401L132.507 83.5637L132.488 83.7532L132.404 83.5826L132.267 83.7155L132.312 83.5304L132.122 83.5446L132.276 83.4316L132.121 83.3203L132.311 83.3324L132.264 83.1478L132.402 83.2792L132.485 83.1076L132.506 83.2969L132.68 83.2187Z" fill="white"/>
<path d="M69.3873 57.3123L69.2819 57.4709L69.4652 57.5226L69.2824 57.5763L69.3896 57.7337L69.2151 57.6574L69.1961 57.8469L69.1115 57.6763L68.9751 57.8092L69.0199 57.6241L68.83 57.6382L68.9833 57.5253L68.8288 57.414L69.0188 57.4261L68.9719 57.2415L69.1098 57.3729L69.1925 57.2013L69.2137 57.3906L69.3873 57.3123Z" fill="white"/>
<path d="M66.7636 108.144L66.6582 108.303L66.8415 108.355L66.6587 108.408L66.7659 108.566L66.5915 108.49L66.5724 108.679L66.4878 108.508L66.3514 108.641L66.3962 108.456L66.2063 108.47L66.3596 108.357L66.2051 108.246L66.3951 108.258L66.3482 108.074L66.4861 108.205L66.5688 108.033L66.59 108.223L66.7636 108.144Z" fill="white"/>
<path d="M262.872 103.551L262.767 103.709L262.95 103.761L262.767 103.815L262.875 103.972L262.7 103.896L262.681 104.085L262.597 103.915L262.46 104.048L262.505 103.862L262.315 103.877L262.468 103.764L262.314 103.652L262.504 103.664L262.457 103.48L262.595 103.611L262.678 103.44L262.699 103.629L262.872 103.551Z" fill="white"/>
<path d="M256.971 139.949L256.865 140.108L257.048 140.159L256.866 140.213L256.973 140.371L256.798 140.294L256.779 140.484L256.695 140.313L256.558 140.446L256.603 140.261L256.413 140.275L256.567 140.162L256.412 140.051L256.602 140.063L256.555 139.878L256.693 140.01L256.776 139.838L256.797 140.027L256.971 139.949Z" fill="white"/>
<path d="M167.769 114.043L167.663 114.201L167.847 114.253L167.664 114.307L167.771 114.464L167.597 114.388L167.578 114.577L167.493 114.407L167.357 114.54L167.401 114.355L167.212 114.369L167.365 114.256L167.21 114.145L167.4 114.157L167.353 113.972L167.491 114.103L167.574 113.932L167.595 114.121L167.769 114.043Z" fill="white"/>
<path d="M99.2291 238.008L99.1237 238.166L99.307 238.218L99.1242 238.272L99.2314 238.429L99.0569 238.353L99.0379 238.542L98.9533 238.372L98.8169 238.505L98.8617 238.319L98.6718 238.334L98.8251 238.221L98.6706 238.109L98.8606 238.121L98.8137 237.937L98.9516 238.068L99.0343 237.897L99.0555 238.086L99.2291 238.008Z" fill="white"/>
<path d="M19.539 200.621L19.4336 200.78L19.6169 200.831L19.4342 200.885L19.5414 201.042L19.3669 200.966L19.3478 201.156L19.2632 200.985L19.1268 201.118L19.1717 200.933L18.9817 200.947L19.1351 200.834L18.9805 200.723L19.1706 200.735L19.1237 200.55L19.2615 200.682L19.3442 200.51L19.3654 200.699L19.539 200.621Z" fill="white"/>
<path d="M20.5237 86.8281L20.4182 86.9866L20.6015 87.0383L20.4188 87.092L20.526 87.2494L20.3515 87.1731L20.3324 87.3626L20.2478 87.192L20.1114 87.3249L20.1563 87.1398L19.9663 87.1539L20.1197 87.041L19.9651 86.9297L20.1552 86.9418L20.1083 86.7572L20.2461 86.8886L20.3289 86.717L20.35 86.9063L20.5237 86.8281Z" fill="white"/>
<path d="M126.12 97.6484L126.014 97.807L126.198 97.8586L126.015 97.9123L126.122 98.0697L125.948 97.9934L125.928 98.1829L125.844 98.0123L125.707 98.1452L125.752 97.9601L125.562 97.9742L125.716 97.8613L125.561 97.75L125.751 97.7621L125.704 97.5775L125.842 97.7089L125.925 97.5373L125.946 97.7266L126.12 97.6484Z" fill="white"/>
<path d="M276.318 175.699L276.213 175.858L276.396 175.909L276.214 175.963L276.321 176.121L276.146 176.044L276.127 176.234L276.043 176.063L275.906 176.196L275.951 176.011L275.761 176.025L275.914 175.912L275.76 175.801L275.95 175.813L275.903 175.628L276.041 175.76L276.124 175.588L276.145 175.777L276.318 175.699Z" fill="white"/>
<path d="M232.702 216.035L232.597 216.194L232.78 216.245L232.597 216.299L232.704 216.456L232.53 216.38L232.511 216.57L232.426 216.399L232.29 216.532L232.335 216.347L232.145 216.361L232.298 216.248L232.143 216.137L232.334 216.149L232.287 215.964L232.424 216.096L232.507 215.924L232.528 216.113L232.702 216.035Z" fill="white"/>
<path d="M172.36 124.867L172.254 125.026L172.438 125.077L172.255 125.131L172.362 125.288L172.188 125.212L172.169 125.402L172.084 125.231L171.948 125.364L171.992 125.179L171.802 125.193L171.956 125.08L171.801 124.969L171.991 124.981L171.944 124.796L172.082 124.928L172.165 124.756L172.186 124.945L172.36 124.867Z" fill="white"/>
<path d="M243.525 65.5077L243.419 65.6663L243.602 65.718L243.42 65.7717L243.527 65.9291L243.352 65.8528L243.333 66.0423L243.249 65.8717L243.112 66.0046L243.157 65.8195L242.967 65.8336L243.121 65.7207L242.966 65.6094L243.156 65.6214L243.109 65.4369L243.247 65.5682L243.33 65.3967L243.351 65.586L243.525 65.5077Z" fill="white"/>
<path d="M32.0007 234.402L31.8952 234.561L32.0785 234.613L31.8958 234.666L32.003 234.824L31.8285 234.747L31.8094 234.937L31.7248 234.766L31.5884 234.899L31.6333 234.714L31.4433 234.728L31.5967 234.615L31.4421 234.504L31.6322 234.516L31.5853 234.331L31.7231 234.463L31.8059 234.291L31.827 234.481L32.0007 234.402Z" fill="white"/>
<path d="M24.1299 135.363L24.0245 135.522L24.2078 135.573L24.0251 135.627L24.1322 135.785L23.9578 135.708L23.9387 135.898L23.8541 135.727L23.7177 135.86L23.7625 135.675L23.5726 135.689L23.7259 135.576L23.5714 135.465L23.7614 135.477L23.7145 135.292L23.8524 135.424L23.9351 135.252L23.9563 135.441L24.1299 135.363Z" fill="white"/>
<path d="M204.827 131.754L204.722 131.912L204.905 131.964L204.722 132.018L204.829 132.175L204.655 132.099L204.636 132.288L204.551 132.118L204.415 132.251L204.46 132.066L204.27 132.08L204.423 131.967L204.269 131.856L204.459 131.868L204.412 131.683L204.55 131.814L204.632 131.643L204.653 131.832L204.827 131.754Z" fill="white"/>
<path d="M152.355 178.98L152.25 179.139L152.433 179.191L152.251 179.244L152.358 179.402L152.183 179.325L152.164 179.515L152.08 179.344L151.943 179.477L151.988 179.292L151.798 179.306L151.951 179.193L151.797 179.082L151.987 179.094L151.94 178.91L152.078 179.041L152.161 178.869L152.182 179.059L152.355 178.98Z" fill="white"/>
<path d="M187.331 201.527L187.12 201.845L187.486 201.948L187.121 202.056L187.335 202.371L186.986 202.218L186.948 202.597L186.779 202.256L186.506 202.522L186.596 202.151L186.215 202.18L186.522 201.954L186.213 201.731L186.593 201.755L186.499 201.386L186.775 201.649L186.941 201.305L186.983 201.684L187.331 201.527Z" fill="white"/>
<path d="M106.173 145.777L105.962 146.095L106.329 146.198L105.963 146.306L106.178 146.621L105.829 146.468L105.79 146.847L105.621 146.506L105.348 146.772L105.438 146.401L105.058 146.43L105.365 146.204L105.055 145.981L105.436 146.005L105.342 145.636L105.618 145.899L105.783 145.555L105.826 145.934L106.173 145.777Z" fill="white"/>
<path d="M225.872 10.0118L225.661 10.3292L226.028 10.4326L225.662 10.54L225.876 10.855L225.527 10.7023L225.489 11.0815L225.32 10.7401L225.047 11.006L225.137 10.6356L224.757 10.6639L225.063 10.4379L224.754 10.2153L225.134 10.2393L225.041 9.86999L225.316 10.1329L225.482 9.78964L225.524 10.1684L225.872 10.0118Z" fill="white"/>
<path d="M154.38 10.9923L154.169 11.3096L154.536 11.413L154.17 11.5205L154.385 11.8355L154.036 11.6828L153.998 12.0619L153.828 11.7205L153.555 11.9865L153.645 11.6161L153.265 11.6444L153.572 11.4184L153.263 11.1957L153.643 11.2198L153.549 10.8505L153.825 11.1134L153.991 10.7701L154.033 11.1488L154.38 10.9923Z" fill="white"/>
<path d="M294.085 202.512L293.874 202.829L294.24 202.933L293.875 203.04L294.089 203.355L293.74 203.202L293.702 203.581L293.533 203.24L293.26 203.506L293.35 203.136L292.97 203.164L293.276 202.938L292.967 202.715L293.347 202.739L293.254 202.37L293.529 202.633L293.695 202.29L293.737 202.668L294.085 202.512Z" fill="white"/>
<path d="M65.1803 194.641L64.9693 194.958L65.3361 195.061L64.9704 195.169L65.1849 195.484L64.8358 195.331L64.7976 195.71L64.6283 195.369L64.3554 195.635L64.4451 195.265L64.0651 195.293L64.3719 195.067L64.0626 194.844L64.4429 194.868L64.3491 194.499L64.625 194.762L64.7905 194.419L64.8328 194.797L65.1803 194.641Z" fill="white"/>
<path d="M18.284 175.297L18.073 175.614L18.4398 175.718L18.0741 175.825L18.2886 176.14L17.9395 175.987L17.9013 176.367L17.732 176.025L17.4591 176.291L17.5488 175.921L17.1688 175.949L17.4756 175.723L17.1663 175.5L17.5466 175.524L17.4528 175.155L17.7287 175.418L17.8942 175.075L17.9365 175.454L18.284 175.297Z" fill="white"/>
<path d="M2.21431 98.8831L2.0033 99.2004L2.37009 99.3039L2.00446 99.4113L2.21897 99.7263L1.86982 99.5736L1.83167 99.9528L1.66236 99.6114L1.38941 99.8773L1.47916 99.5069L1.09913 99.5352L1.40595 99.3092L1.09665 99.0866L1.47697 99.1106L1.38313 98.7413L1.659 99.0042L1.82453 98.6609L1.86687 99.0397L2.21431 98.8831Z" fill="white"/>
<path d="M294.217 75.0647L293.986 75.0577L294.156 75.3013L293.912 75.1329L293.922 75.3653L293.779 75.1142L293.623 75.2267L293.648 75.0105L293.4 74.9504L293.582 74.8702L293.357 74.6656L293.61 74.7589L293.514 74.5057L293.72 74.7289L293.798 74.5454L293.861 74.794L294.076 74.7662L293.966 74.9239L294.217 75.0647Z" fill="white"/>
<path d="M273.153 108.729L272.922 108.722L273.092 108.965L272.848 108.797L272.858 109.029L272.715 108.778L272.559 108.891L272.584 108.675L272.336 108.614L272.518 108.534L272.293 108.33L272.546 108.423L272.45 108.17L272.656 108.393L272.734 108.209L272.797 108.458L273.011 108.43L272.902 108.588L273.153 108.729Z" fill="white"/>
<path d="M219.974 18.9124L219.743 18.9054L219.913 19.149L219.669 18.9806L219.679 19.213L219.536 18.9619L219.38 19.0744L219.405 18.8581L219.157 18.798L219.339 18.7178L219.114 18.5133L219.367 18.6066L219.271 18.3533L219.478 18.5765L219.555 18.393L219.618 18.6417L219.833 18.6138L219.723 18.7716L219.974 18.9124Z" fill="white"/>
<path d="M181.067 51.8889L180.836 51.882L181.007 52.1256L180.762 51.9571L180.772 52.1895L180.629 51.9385L180.473 52.0509L180.498 51.8347L180.25 51.7746L180.432 51.6944L180.207 51.4898L180.46 51.5832L180.365 51.3299L180.571 51.5531L180.648 51.3696L180.711 51.6182L180.926 51.5904L180.816 51.7481L181.067 51.8889Z" fill="white"/>
<path d="M290.994 170.166L290.763 170.159L290.933 170.403L290.689 170.234L290.698 170.467L290.555 170.216L290.4 170.328L290.425 170.112L290.177 170.052L290.358 169.972L290.134 169.767L290.387 169.861L290.291 169.607L290.497 169.83L290.575 169.647L290.638 169.896L290.852 169.868L290.742 170.025L290.994 170.166Z" fill="white"/>
<path d="M125.913 180.393L125.682 180.386L125.853 180.629L125.608 180.461L125.618 180.693L125.475 180.442L125.319 180.555L125.344 180.339L125.096 180.279L125.278 180.198L125.053 179.994L125.307 180.087L125.211 179.834L125.417 180.057L125.494 179.874L125.557 180.122L125.772 180.094L125.662 180.252L125.913 180.393Z" fill="white"/>
<path d="M62.3288 63.9358L62.0975 63.9288L62.268 64.1724L62.0237 64.004L62.0334 64.2364L61.8903 63.9853L61.7348 64.0978L61.7598 63.8816L61.5118 63.8215L61.6933 63.7412L61.4688 63.5367L61.7219 63.63L61.6259 63.3768L61.8321 63.6L61.9097 63.4165L61.9725 63.6651L62.1872 63.6373L62.0773 63.795L62.3288 63.9358Z" fill="white"/>
<path d="M255.541 111.522L255.309 111.515L255.48 111.758L255.236 111.59L255.245 111.822L255.102 111.571L254.947 111.684L254.972 111.468L254.724 111.407L254.905 111.327L254.681 111.123L254.934 111.216L254.838 110.963L255.044 111.186L255.122 111.002L255.184 111.251L255.399 111.223L255.289 111.381L255.541 111.522Z" fill="white"/>
<path d="M288.527 183.002L288.296 182.995L288.466 183.239L288.222 183.07L288.231 183.303L288.088 183.052L287.933 183.164L287.958 182.948L287.71 182.888L287.891 182.808L287.667 182.603L287.92 182.696L287.824 182.443L288.03 182.666L288.108 182.483L288.17 182.732L288.385 182.704L288.275 182.861L288.527 183.002Z" fill="white"/>
<path d="M52.521 101.901L52.2897 101.894L52.4602 102.137L52.2159 101.969L52.2256 102.201L52.0825 101.95L51.927 102.063L51.952 101.846L51.704 101.786L51.8855 101.706L51.661 101.502L51.9141 101.595L51.8181 101.342L52.0243 101.565L52.1019 101.381L52.1647 101.63L52.3794 101.602L52.2695 101.76L52.521 101.901Z" fill="white"/>
<path d="M113.661 22.9788L113.43 22.9718L113.6 23.2154L113.356 23.047L113.366 23.2794L113.223 23.0283L113.067 23.1408L113.092 22.9245L112.844 22.8644L113.026 22.7842L112.801 22.5797L113.054 22.673L112.958 22.4197L113.165 22.6429L113.242 22.4595L113.305 22.7081L113.52 22.6802L113.41 22.838L113.661 22.9788Z" fill="white"/>
<path d="M227.668 198.666L227.436 198.659L227.607 198.903L227.362 198.734L227.372 198.967L227.229 198.716L227.074 198.828L227.099 198.612L226.851 198.552L227.032 198.472L226.808 198.267L227.061 198.361L226.965 198.107L227.171 198.33L227.248 198.147L227.311 198.396L227.526 198.368L227.416 198.525L227.668 198.666Z" fill="white"/>
<path d="M251.23 254.122L250.767 254.108L251.108 254.596L250.619 254.259L250.639 254.724L250.352 254.221L250.041 254.446L250.091 254.014L249.595 253.893L249.958 253.733L249.509 253.323L250.015 253.51L249.823 253.003L250.236 253.45L250.391 253.083L250.517 253.58L250.947 253.525L250.727 253.84L251.23 254.122Z" fill="white"/>
<path d="M198.973 123.02L198.51 123.007L198.851 123.494L198.362 123.157L198.382 123.622L198.096 123.12L197.784 123.345L197.835 122.912L197.338 122.792L197.701 122.631L197.252 122.222L197.759 122.409L197.567 121.902L197.979 122.348L198.134 121.981L198.26 122.479L198.69 122.423L198.47 122.739L198.973 123.02Z" fill="white"/>
<path d="M118.115 111.267L117.652 111.253L117.994 111.74L117.505 111.403L117.524 111.868L117.238 111.366L116.926 111.591L116.977 111.158L116.48 111.038L116.844 110.877L116.394 110.468L116.901 110.655L116.709 110.148L117.121 110.595L117.276 110.227L117.402 110.725L117.832 110.669L117.612 110.985L118.115 111.267Z" fill="white"/>
<path d="M32.612 172.317L32.1492 172.303L32.4904 172.791L32.0014 172.454L32.021 172.919L31.7346 172.416L31.4234 172.641L31.4735 172.209L30.9771 172.089L31.3404 171.928L30.8911 171.519L31.3975 171.705L31.2056 171.199L31.6182 171.645L31.7733 171.278L31.899 171.776L32.3288 171.72L32.1088 172.036L32.612 172.317Z" fill="white"/>
<path d="M78.8216 44.6064L78.3588 44.5925L78.7 45.0799L78.211 44.7429L78.2306 45.2079L77.9442 44.7055L77.633 44.9305L77.6831 44.4979L77.1868 44.3776L77.55 44.2171L77.1007 43.8078L77.6072 43.9946L77.4152 43.4878L77.8278 43.9344L77.9829 43.5672L78.1087 44.0648L78.5384 44.009L78.3184 44.3247L78.8216 44.6064Z" fill="white"/>
<path d="M2.16447 113.114L1.70172 113.1L2.04293 113.588L1.55393 113.251L1.57352 113.716L1.28708 113.213L0.975876 113.438L1.02603 113.006L0.52965 112.885L0.892926 112.725L0.443634 112.316L0.950051 112.502L0.758075 111.996L1.17068 112.442L1.32584 112.075L1.45157 112.573L1.88127 112.517L1.66129 112.832L2.16447 113.114Z" fill="white"/>
<g clip-path="url(#clip1_1511_6981)">
<path d="M124.892 165.121C126.821 161.879 131.179 161.103 134.109 163.481C136.968 165.801 137.181 170.089 134.566 172.681L123.989 183.166C122.472 184.669 120.081 184.829 118.377 183.542C116.63 182.223 116.155 179.801 117.275 177.919L124.892 165.121Z" fill="#D474C6"/>
<path d="M107.914 152.659C110.344 149.772 114.769 149.714 117.275 152.535C119.72 155.288 119.235 159.554 116.234 161.687L104.096 170.318C102.356 171.555 99.971 171.326 98.4983 169.78C96.9882 168.195 96.9125 165.727 98.3224 164.053L107.914 152.659Z" fill="#D474C6"/>
<g filter="url(#filter0_n_1511_6981)">
<ellipse cx="145.823" cy="125.577" rx="85.8969" ry="76.5933" transform="rotate(-9.05149 145.823 125.577)" fill="url(#paint0_linear_1511_6981)" fill-opacity="0.9"/>
<path d="M133.877 50.5922C180.437 43.175 223.41 70.8238 229.996 112.168C236.582 153.512 204.328 193.144 157.768 200.562C111.209 207.979 68.2376 180.33 61.651 138.986C55.0646 97.6422 87.3179 58.0096 133.877 50.5922Z" stroke="url(#paint1_linear_1511_6981)" stroke-width="1.32607"/>
</g>
<g filter="url(#filter1_ii_1511_6981)">
<path d="M126.649 67.8133C126.923 66.2642 128.438 65.2846 129.971 65.6336C143.764 68.7745 150.082 74.7193 152.434 79.1571C153.319 80.8266 151.787 82.3859 149.898 82.4188C147.361 82.4631 145.263 82.9248 143.657 83.5047C145.611 85.6733 149.73 90.8804 153.085 96.9383C158.698 91.4221 165.886 89.104 169.399 88.6161C178.363 86.5289 198.204 88.5427 205.866 113.296C208.391 124.441 207.169 134.228 203.837 142.676L208.33 146.241C210.002 147.568 210.446 149.923 209.371 151.767C208.268 153.659 205.919 154.418 203.918 153.53L199.353 151.504C197.486 154.486 195.375 157.254 193.131 159.812L198.015 165.463C199.411 167.078 199.409 169.474 198.009 171.087C196.574 172.74 194.125 173.048 192.324 171.804L185.685 167.213C177.964 173.963 169.98 178.566 165.139 181.06C164.671 181.302 163.9 181.653 162.988 182.037L162.523 189.308C162.386 191.439 160.704 193.147 158.576 193.315C156.394 193.488 154.431 191.991 154.019 189.841L152.915 184.067C132.182 181.633 79.058 159.463 90.2028 123.241C99.4656 93.1373 125.877 93.7925 142.564 99.2655C141.14 95.4255 139.154 90.6223 136.976 86.6776C135.011 87.6663 133.363 88.8336 132.031 89.9911C130.186 91.5939 126.887 91.2054 126.41 88.8084C124.967 81.5501 125.702 73.1748 126.649 67.8133Z" fill="#D474C6"/>
</g>
<g filter="url(#filter2_ii_1511_6981)">
<path d="M137.387 211.107L132.012 203.152C130.751 201.285 131.445 198.73 133.52 197.852C153.511 189.396 177.142 186.904 189.029 186.611C191.166 186.558 192.8 188.408 192.597 190.535L191.771 199.209C191.611 200.89 190.325 202.246 188.657 202.51C165.863 206.129 149.129 210.584 141.304 212.605C139.81 212.99 138.251 212.385 137.387 211.107Z" fill="#802A71"/>
</g>
<circle cx="163.505" cy="197.394" r="2.57848" fill="#F5C0EC"/>
<circle cx="147.297" cy="201.078" r="2.57848" fill="#F5C0EC"/>
<circle cx="179.711" cy="195.184" r="2.57848" fill="#F5C0EC"/>
<g filter="url(#filter3_g_1511_6981)">
<ellipse cx="138.212" cy="132.79" rx="12.7188" ry="11.2505" transform="rotate(-7.75815 138.212 132.79)" fill="white"/>
</g>
<g filter="url(#filter4_g_1511_6981)">
<ellipse cx="138.851" cy="132.571" rx="8.62033" ry="7.86995" transform="rotate(-7.75815 138.851 132.571)" fill="black"/>
</g>
<g filter="url(#filter5_g_1511_6981)">
<ellipse cx="173.285" cy="129.273" rx="11.4838" ry="11.2505" transform="rotate(-7.75815 173.285 129.273)" fill="white"/>
</g>
<ellipse cx="156.9" cy="138.593" rx="3.68354" ry="2.94683" transform="rotate(-3.98844 156.9 138.593)" fill="#FF581D"/>
<path d="M152.283 143.132L152.771 143.815C153.576 144.942 155.021 145.412 156.335 144.974V144.974" stroke="#852A0A" stroke-width="1.17873" stroke-linecap="round"/>
<g filter="url(#filter6_g_1511_6981)">
<ellipse cx="173.346" cy="128.974" rx="8.47378" ry="7.97725" transform="rotate(-7.75815 173.346 128.974)" fill="black"/>
</g>
<path opacity="0.8" d="M102.608 87.3016L88.2081 108.938C85.0737 113.647 79.2106 118.858 74.891 115.205C72.2265 112.951 72.2328 108.693 72.8794 105.915C74.2723 100.967 80.0531 88.9301 92.0327 80.3685C99.2488 75.2112 102.868 75.5572 104.504 77.6036C106.729 80.3877 104.583 84.3346 102.608 87.3016Z" fill="url(#paint2_linear_1511_6981)"/>
<path opacity="0.89" d="M71.2695 121.903C78.3419 117.188 78.6366 127.796 77.8999 133.69C77.0158 136.932 73.1113 135.041 71.2695 133.69C68.3227 131.726 64.1971 126.618 71.2695 121.903Z" fill="url(#paint3_linear_1511_6981)"/>
<g filter="url(#filter7_i_1511_6981)">
<path d="M93.7229 159.713C83.0915 186.465 59.3523 182.127 47.4404 176C45.9656 175.241 45.3269 173.52 45.7978 171.93L61.7483 118.067C62.281 116.268 64.0806 115.145 65.902 115.595C81.4319 119.435 104.543 132.486 93.7229 159.713Z" fill="#602D9B"/>
</g>
<ellipse cx="59.2644" cy="146.262" rx="27.3896" ry="31.6784" transform="rotate(22.9481 59.2644 146.262)" fill="url(#paint4_linear_1511_6981)"/>
<ellipse cx="59.1778" cy="146.226" rx="23.6886" ry="27.3867" transform="rotate(22.9481 59.1778 146.226)" fill="#FCDDE3"/>
<path d="M66.262 128.512L51.1595 160.191" stroke="#341953" stroke-width="3.68354" stroke-linecap="round"/>
<ellipse cx="58.3227" cy="145.518" rx="4.42024" ry="4.7886" transform="rotate(21.2356 58.3227 145.518)" fill="#341953"/>
<rect x="68.7293" y="121.882" width="2.21012" height="3.23358" rx="1.10506" transform="rotate(24.9649 68.7293 121.882)" fill="#3F2169"/>
<rect x="48.1024" y="165.348" width="2.21012" height="3.23358" rx="1.10506" transform="rotate(24.9649 48.1024 165.348)" fill="#3F2169"/>
<rect x="77.1763" y="154.6" width="2.21012" height="3.23358" rx="1.10506" transform="rotate(123.314 77.1763 154.6)" fill="#3F2169"/>
<rect x="43.288" y="136.919" width="2.21012" height="3.23358" rx="1.10506" transform="rotate(123.314 43.288 136.919)" fill="#3F2169"/>
<g filter="url(#filter8_ii_1511_6981)">
<path d="M237.594 150.152C244.749 148.253 251.687 152.109 253.089 158.766C254.49 165.422 249.826 172.359 242.67 174.259C235.514 176.158 228.576 172.301 227.175 165.644C225.773 158.988 230.438 152.051 237.594 150.152ZM247.748 160.211C246.94 156.375 242.943 154.153 238.819 155.247C234.695 156.342 232.007 160.339 232.814 164.175C233.622 168.011 237.62 170.234 241.743 169.139C245.867 168.044 248.555 164.048 247.748 160.211Z" fill="#F5F5F5"/>
</g>
<g filter="url(#filter9_iii_1511_6981)">
<path d="M234.46 142.456C239.749 141.372 241.042 149.101 241.027 153.101C241.375 156.217 241.854 164.885 241.256 176.23C241.142 178.377 240.572 180.538 239.097 182.102C232.741 188.837 220.399 189.548 214.629 186.208C213.736 185.691 213.048 184.905 212.461 184.057C204.979 173.256 198.332 155.089 201.541 151.964C205.467 147.551 214.823 144.798 220.228 143.711C221.262 143.503 222.318 143.465 223.373 143.476C225.949 143.504 230.229 143.323 234.46 142.456Z" fill="#EEEEEE"/>
</g>
<g filter="url(#filter10_i_1511_6981)">
<path d="M216.294 146.081C223.574 135.628 230.123 135.564 232.545 136.897C234.742 138.013 238.12 141.479 234.698 146.629C234.455 146.994 234.152 147.318 233.818 147.602C227.633 152.853 220.081 155.103 214.062 155.792C213.583 155.895 213.086 155.985 212.574 156.056C208.366 156.637 204.789 155.805 204.556 154.196C204.448 153.895 204.429 153.564 204.528 153.208C204.657 152.749 204.951 152.309 205.5 151.956C205.845 151.735 206.249 151.635 206.646 151.532C209.484 150.796 212.721 148.973 214.661 147.714C215.312 147.291 215.85 146.719 216.294 146.081Z" fill="#392929"/>
</g>
<g filter="url(#filter11_i_1511_6981)">
<circle cx="239.733" cy="128.493" r="4.19869" transform="rotate(-2.8247 239.733 128.493)" fill="#392929"/>
</g>
</g>
<path d="M248.827 77.5078C249.481 78.6159 248.216 79.8609 247.119 79.1883L232.443 70.1928C231.735 69.7589 230.809 70.1335 230.602 70.9377L226.312 87.608C225.992 88.8544 224.217 88.8399 223.916 87.5884L219.9 70.8502C219.706 70.0428 218.786 69.653 218.071 70.0753L203.25 78.8297C202.142 79.4842 200.897 78.2188 201.57 77.1215L210.565 62.4457C210.999 61.7377 210.625 60.8118 209.82 60.6048L193.15 56.3151C191.904 55.9944 191.918 54.2193 193.17 53.919L209.908 49.9024C210.715 49.7086 211.105 48.7889 210.683 48.074L201.928 33.253C201.274 32.1449 202.539 30.8999 203.637 31.5725L218.312 40.568C219.02 41.002 219.946 40.6273 220.153 39.8231L224.443 23.1528C224.764 21.9064 226.539 21.9209 226.839 23.1724L230.856 39.9106C231.049 40.7181 231.969 41.1078 232.684 40.6855L247.505 31.9311C248.613 31.2766 249.858 32.5421 249.186 33.6393L240.19 48.3152C239.756 49.0232 240.131 49.9491 240.935 50.156L257.605 54.4457C258.852 54.7664 258.837 56.5416 257.586 56.8419L240.847 60.8585C240.04 61.0522 239.65 61.9719 240.073 62.6869L248.827 77.5078Z" fill="url(#paint5_linear_1511_6981)"/>
<path d="M56.3298 245.737C57.1181 247.072 55.5939 248.571 54.2723 247.761L36.596 236.927C35.7432 236.404 34.628 236.855 34.3788 237.824L29.212 257.902C28.8257 259.404 26.6877 259.386 26.326 257.879L21.4882 237.718C21.2548 236.746 20.1471 236.276 19.286 236.785L1.43483 247.329C0.100186 248.118 -1.39929 246.594 -0.589232 245.272L10.2454 227.596C10.7681 226.743 10.3168 225.628 9.34821 225.378L-10.7304 220.212C-12.2315 219.825 -12.2141 217.687 -10.7068 217.326L9.45359 212.488C10.4261 212.254 10.8956 211.147 10.3869 210.286L-0.157297 192.434C-0.945641 191.1 0.578545 189.6 1.90013 190.41L19.5765 201.245C20.4292 201.768 21.5444 201.316 21.7937 200.348L26.9604 180.269C27.3467 178.768 29.4848 178.786 29.8465 180.293L34.6843 200.453C34.9177 201.426 36.0253 201.895 36.8865 201.387L54.7376 190.842C56.0723 190.054 57.5718 191.578 56.7617 192.9L45.927 210.576C45.4044 211.429 45.8556 212.544 46.8243 212.793L66.9028 217.96C68.404 218.346 68.3865 220.484 66.8792 220.846L46.7189 225.684C45.7463 225.917 45.2769 227.025 45.7855 227.886L56.3298 245.737Z" fill="url(#paint6_linear_1511_6981)"/>
</g>
<defs>
<filter id="filter0_n_1511_6981" x="60.1337" y="48.7267" width="171.379" height="153.7" filterUnits="userSpaceOnUse" color-interpolation-filters="sRGB">
<feFlood flood-opacity="0" result="BackgroundImageFix"/>
<feBlend mode="normal" in="SourceGraphic" in2="BackgroundImageFix" result="shape"/>
<feTurbulence type="fractalNoise" baseFrequency="0.14139488339424133 0.14139488339424133" stitchTiles="stitch" numOctaves="3" result="noise" seed="1999" />
<feColorMatrix in="noise" type="luminanceToAlpha" result="alphaNoise" />
<feComponentTransfer in="alphaNoise" result="coloredNoise1">
<feFuncA type="discrete" tableValues="1 1 1 1 1 1 1 1 1 1 1 1 1 1 1 1 1 1 1 1 1 1 1 1 1 1 1 1 1 1 1 1 1 1 1 1 1 1 1 1 1 1 1 1 1 1 1 1 1 1 1 0 0 0 0 0 0 0 0 0 0 0 0 0 0 0 0 0 0 0 0 0 0 0 0 0 0 0 0 0 0 0 0 0 0 0 0 0 0 0 0 0 0 0 0 0 0 0 0 0 "/>
</feComponentTransfer>
<feComposite operator="in" in2="shape" in="coloredNoise1" result="noise1Clipped" />
<feFlood flood-color="rgba(0, 0, 0, 0.08)" result="color1Flood" />
<feComposite operator="in" in2="noise1Clipped" in="color1Flood" result="color1" />
<feMerge result="effect1_noise_1511_6981">
<feMergeNode in="shape" />
<feMergeNode in="color1" />
</feMerge>
</filter>
<filter id="filter1_ii_1511_6981" x="82.0528" y="65.563" width="127.902" height="129.239" filterUnits="userSpaceOnUse" color-interpolation-filters="sRGB">
<feFlood flood-opacity="0" result="BackgroundImageFix"/>
<feBlend mode="normal" in="SourceGraphic" in2="BackgroundImageFix" result="shape"/>
<feColorMatrix in="SourceAlpha" type="matrix" values="0 0 0 0 0 0 0 0 0 0 0 0 0 0 0 0 0 0 127 0" result="hardAlpha"/>
<feOffset dx="-6.63037" dy="1.47341"/>
<feGaussianBlur stdDeviation="5.48847"/>
<feComposite in2="hardAlpha" operator="arithmetic" k2="-1" k3="1"/>
<feColorMatrix type="matrix" values="0 0 0 0 1 0 0 0 0 0.912766 0 0 0 0 0.792818 0 0 0 0.8 0"/>
<feBlend mode="normal" in2="shape" result="effect1_innerShadow_1511_6981"/>
<feColorMatrix in="SourceAlpha" type="matrix" values="0 0 0 0 0 0 0 0 0 0 0 0 0 0 0 0 0 0 127 0" result="hardAlpha"/>
<feOffset dx="-0.736707" dy="0.736707"/>
<feGaussianBlur stdDeviation="0.368354"/>
<feComposite in2="hardAlpha" operator="arithmetic" k2="-1" k3="1"/>
<feColorMatrix type="matrix" values="0 0 0 0 0.871206 0 0 0 0 1 0 0 0 0 0.997853 0 0 0 0.5 0"/>
<feBlend mode="normal" in2="effect1_innerShadow_1511_6981" result="effect2_innerShadow_1511_6981"/>
</filter>
<filter id="filter2_ii_1511_6981" x="123.572" y="186.61" width="69.0422" height="27.5833" filterUnits="userSpaceOnUse" color-interpolation-filters="sRGB">
<feFlood flood-opacity="0" result="BackgroundImageFix"/>
<feBlend mode="normal" in="SourceGraphic" in2="BackgroundImageFix" result="shape"/>
<feColorMatrix in="SourceAlpha" type="matrix" values="0 0 0 0 0 0 0 0 0 0 0 0 0 0 0 0 0 0 127 0" result="hardAlpha"/>
<feOffset dx="-8.10378" dy="1.47341"/>
<feGaussianBlur stdDeviation="3.90455"/>
<feComposite in2="hardAlpha" operator="arithmetic" k2="-1" k3="1"/>
<feColorMatrix type="matrix" values="0 0 0 0 0.869328 0 0 0 0 0.719989 0 0 0 0 1 0 0 0 0.2 0"/>
<feBlend mode="normal" in2="shape" result="effect1_innerShadow_1511_6981"/>
<feColorMatrix in="SourceAlpha" type="matrix" values="0 0 0 0 0 0 0 0 0 0 0 0 0 0 0 0 0 0 127 0" result="hardAlpha"/>
<feOffset dx="-0.736707"/>
<feGaussianBlur stdDeviation="0.368354"/>
<feComposite in2="hardAlpha" operator="arithmetic" k2="-1" k3="1"/>
<feColorMatrix type="matrix" values="0 0 0 0 0.858824 0 0 0 0 0.976471 0 0 0 0 0.984314 0 0 0 0.2 0"/>
<feBlend mode="normal" in2="effect1_innerShadow_1511_6981" result="effect2_innerShadow_1511_6981"/>
</filter>
<filter id="filter3_g_1511_6981" x="125.149" y="121.141" width="26.1263" height="23.2979" filterUnits="userSpaceOnUse" color-interpolation-filters="sRGB">
<feFlood flood-opacity="0" result="BackgroundImageFix"/>
<feBlend mode="normal" in="SourceGraphic" in2="BackgroundImageFix" result="shape"/>
<feTurbulence type="fractalNoise" baseFrequency="1.5082124471664429 1.5082124471664429" numOctaves="3" seed="3511" />
<feDisplacementMap in="shape" scale="0.73670732975006104" xChannelSelector="R" yChannelSelector="G" result="displacedImage" width="100%" height="100%" />
<feMerge result="effect1_texture_1511_6981">
<feMergeNode in="displacedImage"/>
</feMerge>
</filter>
<filter id="filter4_g_1511_6981" x="130" y="124.444" width="17.7001" height="16.2545" filterUnits="userSpaceOnUse" color-interpolation-filters="sRGB">
<feFlood flood-opacity="0" result="BackgroundImageFix"/>
<feBlend mode="normal" in="SourceGraphic" in2="BackgroundImageFix" result="shape"/>
<feTurbulence type="fractalNoise" baseFrequency="2.2963728904724121 2.2963728904724121" numOctaves="3" seed="3511" />
<feDisplacementMap in="shape" scale="0.48385488986968994" xChannelSelector="R" yChannelSelector="G" result="displacedImage" width="100%" height="100%" />
<feMerge result="effect1_texture_1511_6981">
<feMergeNode in="displacedImage"/>
</feMerge>
</filter>
<filter id="filter5_g_1511_6981" x="161.436" y="117.649" width="23.6986" height="23.2491" filterUnits="userSpaceOnUse" color-interpolation-filters="sRGB">
<feFlood flood-opacity="0" result="BackgroundImageFix"/>
<feBlend mode="normal" in="SourceGraphic" in2="BackgroundImageFix" result="shape"/>
<feTurbulence type="fractalNoise" baseFrequency="1.5082124471664429 1.5082124471664429" numOctaves="3" seed="3511" />
<feDisplacementMap in="shape" scale="0.73670732975006104" xChannelSelector="R" yChannelSelector="G" result="displacedImage" width="100%" height="100%" />
<feMerge result="effect1_texture_1511_6981">
<feMergeNode in="displacedImage"/>
</feMerge>
</filter>
<filter id="filter6_g_1511_6981" x="164.638" y="120.744" width="17.4157" height="16.4591" filterUnits="userSpaceOnUse" color-interpolation-filters="sRGB">
<feFlood flood-opacity="0" result="BackgroundImageFix"/>
<feBlend mode="normal" in="SourceGraphic" in2="BackgroundImageFix" result="shape"/>
<feTurbulence type="fractalNoise" baseFrequency="2.2963728904724121 2.2963728904724121" numOctaves="3" seed="3511" />
<feDisplacementMap in="shape" scale="0.48385488986968994" xChannelSelector="R" yChannelSelector="G" result="displacedImage" width="100%" height="100%" />
<feMerge result="effect1_texture_1511_6981">
<feMergeNode in="displacedImage"/>
</feMerge>
</filter>
<filter id="filter7_i_1511_6981" x="44.1718" y="115.496" width="52.3381" height="68.0694" filterUnits="userSpaceOnUse" color-interpolation-filters="sRGB">
<feFlood flood-opacity="0" result="BackgroundImageFix"/>
<feBlend mode="normal" in="SourceGraphic" in2="BackgroundImageFix" result="shape"/>
<feColorMatrix in="SourceAlpha" type="matrix" values="0 0 0 0 0 0 0 0 0 0 0 0 0 0 0 0 0 0 127 0" result="hardAlpha"/>
<feOffset dx="-1.47341" dy="2.94683"/>
<feGaussianBlur stdDeviation="2.57848"/>
<feComposite in2="hardAlpha" operator="arithmetic" k2="-1" k3="1"/>
<feColorMatrix type="matrix" values="0 0 0 0 0.924917 0 0 0 0 1 0 0 0 0 0.849835 0 0 0 0.6 0"/>
<feBlend mode="normal" in2="shape" result="effect1_innerShadow_1511_6981"/>
</filter>
<filter id="filter8_ii_1511_6981" x="223.427" y="149.668" width="29.9103" height="27.1749" filterUnits="userSpaceOnUse" color-interpolation-filters="sRGB">
<feFlood flood-opacity="0" result="BackgroundImageFix"/>
<feBlend mode="normal" in="SourceGraphic" in2="BackgroundImageFix" result="shape"/>
<feColorMatrix in="SourceAlpha" type="matrix" values="0 0 0 0 0 0 0 0 0 0 0 0 0 0 0 0 0 0 127 0" result="hardAlpha"/>
<feOffset dx="-3.49891" dy="2.09935"/>
<feGaussianBlur stdDeviation="2.13434"/>
<feComposite in2="hardAlpha" operator="arithmetic" k2="-1" k3="1"/>
<feColorMatrix type="matrix" values="0 0 0 0 0.949782 0 0 0 0 1 0 0 0 0 0.85652 0 0 0 0.77 0"/>
<feBlend mode="normal" in2="shape" result="effect1_innerShadow_1511_6981"/>
<feColorMatrix in="SourceAlpha" type="matrix" values="0 0 0 0 0 0 0 0 0 0 0 0 0 0 0 0 0 0 127 0" result="hardAlpha"/>
<feOffset dx="-0.699782" dy="0.699782"/>
<feGaussianBlur stdDeviation="0.349891"/>
<feComposite in2="hardAlpha" operator="arithmetic" k2="-1" k3="1"/>
<feColorMatrix type="matrix" values="0 0 0 0 0.980056 0 0 0 0 1 0 0 0 0 0.999668 0 0 0 0.7 0"/>
<feBlend mode="normal" in2="effect1_innerShadow_1511_6981" result="effect2_innerShadow_1511_6981"/>
</filter>
<filter id="filter9_iii_1511_6981" x="197.214" y="142.353" width="48.1046" height="48.599" filterUnits="userSpaceOnUse" color-interpolation-filters="sRGB">
<feFlood flood-opacity="0" result="BackgroundImageFix"/>
<feBlend mode="normal" in="SourceGraphic" in2="BackgroundImageFix" result="shape"/>
<feColorMatrix in="SourceAlpha" type="matrix" values="0 0 0 0 0 0 0 0 0 0 0 0 0 0 0 0 0 0 127 0" result="hardAlpha"/>
<feOffset dx="-3.49891" dy="2.09935"/>
<feGaussianBlur stdDeviation="2.13434"/>
<feComposite in2="hardAlpha" operator="arithmetic" k2="-1" k3="1"/>
<feColorMatrix type="matrix" values="0 0 0 0 0.949782 0 0 0 0 1 0 0 0 0 0.85652 0 0 0 0.77 0"/>
<feBlend mode="normal" in2="shape" result="effect1_innerShadow_1511_6981"/>
<feColorMatrix in="SourceAlpha" type="matrix" values="0 0 0 0 0 0 0 0 0 0 0 0 0 0 0 0 0 0 127 0" result="hardAlpha"/>
<feOffset dx="4.19869" dy="2.79913"/>
<feGaussianBlur stdDeviation="1.88941"/>
<feComposite in2="hardAlpha" operator="arithmetic" k2="-1" k3="1"/>
<feColorMatrix type="matrix" values="0 0 0 0 1 0 0 0 0 0.602539 0 0 0 0 0.403809 0 0 0 0.25 0"/>
<feBlend mode="normal" in2="effect1_innerShadow_1511_6981" result="effect2_innerShadow_1511_6981"/>
<feColorMatrix in="SourceAlpha" type="matrix" values="0 0 0 0 0 0 0 0 0 0 0 0 0 0 0 0 0 0 127 0" result="hardAlpha"/>
<feOffset dx="-0.699782" dy="0.699782"/>
<feGaussianBlur stdDeviation="0.349891"/>
<feComposite in2="hardAlpha" operator="arithmetic" k2="-1" k3="1"/>
<feColorMatrix type="matrix" values="0 0 0 0 0.980056 0 0 0 0 1 0 0 0 0 0.999668 0 0 0 0.7 0"/>
<feBlend mode="normal" in2="effect2_innerShadow_1511_6981" result="effect3_innerShadow_1511_6981"/>
</filter>
<filter id="filter10_i_1511_6981" x="203.764" y="136.299" width="32.3942" height="21.3422" filterUnits="userSpaceOnUse" color-interpolation-filters="sRGB">
<feFlood flood-opacity="0" result="BackgroundImageFix"/>
<feBlend mode="normal" in="SourceGraphic" in2="BackgroundImageFix" result="shape"/>
<feColorMatrix in="SourceAlpha" type="matrix" values="0 0 0 0 0 0 0 0 0 0 0 0 0 0 0 0 0 0 127 0" result="hardAlpha"/>
<feOffset dx="-0.699782" dy="1.39956"/>
<feGaussianBlur stdDeviation="1.74945"/>
<feComposite in2="hardAlpha" operator="arithmetic" k2="-1" k3="1"/>
<feColorMatrix type="matrix" values="0 0 0 0 1 0 0 0 0 0.771221 0 0 0 0 0.942805 0 0 0 0.7 0"/>
<feBlend mode="normal" in2="shape" result="effect1_innerShadow_1511_6981"/>
</filter>
<filter id="filter11_i_1511_6981" x="233.435" y="124.294" width="10.4969" height="9.09737" filterUnits="userSpaceOnUse" color-interpolation-filters="sRGB">
<feFlood flood-opacity="0" result="BackgroundImageFix"/>
<feBlend mode="normal" in="SourceGraphic" in2="BackgroundImageFix" result="shape"/>
<feColorMatrix in="SourceAlpha" type="matrix" values="0 0 0 0 0 0 0 0 0 0 0 0 0 0 0 0 0 0 127 0" result="hardAlpha"/>
<feOffset dx="-2.09935" dy="0.699782"/>
<feGaussianBlur stdDeviation="1.74945"/>
<feComposite in2="hardAlpha" operator="arithmetic" k2="-1" k3="1"/>
<feColorMatrix type="matrix" values="0 0 0 0 1 0 0 0 0 0.772549 0 0 0 0 0.941176 0 0 0 0.4 0"/>
<feBlend mode="normal" in2="shape" result="effect1_innerShadow_1511_6981"/>
</filter>
<linearGradient id="paint0_linear_1511_6981" x1="230.631" y1="103.641" x2="76.6153" y2="168.998" gradientUnits="userSpaceOnUse">
<stop stop-color="#FFB2FF" stop-opacity="0.2"/>
<stop offset="1" stop-color="white" stop-opacity="0"/>
</linearGradient>
<linearGradient id="paint1_linear_1511_6981" x1="62.5753" y1="73.1449" x2="124.827" y2="207.34" gradientUnits="userSpaceOnUse">
<stop stop-color="#802A71"/>
<stop offset="0.586538" stop-color="#CEA184"/>
<stop offset="1" stop-color="#A3547F"/>
</linearGradient>
<linearGradient id="paint2_linear_1511_6981" x1="81.724" y1="86.2177" x2="121.667" y2="140.751" gradientUnits="userSpaceOnUse">
<stop stop-color="#FFD9FF"/>
<stop offset="0.440397" stop-color="#FCD7FD" stop-opacity="0"/>
</linearGradient>
<linearGradient id="paint3_linear_1511_6981" x1="72.5215" y1="120.409" x2="72.528" y2="128.512" gradientUnits="userSpaceOnUse">
<stop stop-color="#FFD9FF"/>
<stop offset="1" stop-color="#FCD7FD" stop-opacity="0"/>
</linearGradient>
<linearGradient id="paint4_linear_1511_6981" x1="87.5217" y1="137.423" x2="29.3869" y2="158.838" gradientUnits="userSpaceOnUse">
<stop stop-color="#AC79E8"/>
<stop offset="1" stop-color="#5E4080"/>
</linearGradient>
<linearGradient id="paint5_linear_1511_6981" x1="216.032" y1="-2.80627" x2="229.106" y2="99.8803" gradientUnits="userSpaceOnUse">
<stop stop-color="#9CCFFF"/>
<stop offset="1" stop-color="#A7B3FF" stop-opacity="0"/>
</linearGradient>
<linearGradient id="paint6_linear_1511_6981" x1="16.8297" y1="149.003" x2="32.577" y2="272.684" gradientUnits="userSpaceOnUse">
<stop stop-color="#9CCFFF"/>
<stop offset="1" stop-color="#A7B3FF" stop-opacity="0"/>
</linearGradient>
<clipPath id="clip0_1511_6981">
<rect width="298" height="256" fill="white"/>
</clipPath>
<clipPath id="clip1_1511_6981">
<rect width="225.875" height="166.196" fill="white" transform="translate(30 47)"/>
</clipPath>
</defs>
</svg>
