<svg width="298" height="275" viewBox="0 0 298 275" fill="none" xmlns="http://www.w3.org/2000/svg">
<g clip-path="url(#clip0_2719_19532)">
<path d="M0.712076 20.0781L0.606622 20.2366L0.789924 20.2883L0.607204 20.342L0.714403 20.4994L0.539914 20.4231L0.52085 20.6126L0.436237 20.442L0.299831 20.5749L0.344685 20.3898L0.154762 20.4039L0.308096 20.291L0.153524 20.1797L0.343591 20.1918L0.296695 20.0072L0.434561 20.1386L0.517285 19.967L0.53844 20.1563L0.712076 20.0781Z" fill="white"/>
<path d="M63.4838 38.9062L63.3784 39.0648L63.5617 39.1164L63.3789 39.1701L63.4861 39.3276L63.3116 39.2512L63.2926 39.4407L63.208 39.2701L63.0716 39.403L63.1164 39.2179L62.9265 39.2321L63.0798 39.1191L62.9253 39.0078L63.1153 39.0199L63.0684 38.8353L63.2063 38.9667L63.289 38.7951L63.3102 38.9844L63.4838 38.9062Z" fill="white"/>
<path d="M25.1147 60.5468L25.0092 60.7054L25.1925 60.7571L25.0098 60.8108L25.117 60.9682L24.9425 60.8919L24.9234 61.0814L24.8388 60.9107L24.7024 61.0436L24.7473 60.8586L24.5574 60.8727L24.7107 60.7597L24.5561 60.6485L24.7462 60.6605L24.6993 60.4759L24.8371 60.6073L24.9199 60.4358L24.941 60.625L25.1147 60.5468Z" fill="white"/>
<path d="M31.0163 26.1171L30.9108 26.2757L31.0941 26.3274L30.9114 26.3811L31.0186 26.5385L30.8441 26.4622L30.825 26.6517L30.7404 26.4811L30.604 26.614L30.6489 26.4289L30.459 26.443L30.6123 26.33L30.4577 26.2188L30.6478 26.2308L30.6009 26.0462L30.7388 26.1776L30.8215 26.0061L30.8426 26.1953L31.0163 26.1171Z" fill="white"/>
<path d="M12.9794 34.3124L12.874 34.471L13.0573 34.5227L12.8745 34.5764L12.9817 34.7338L12.8072 34.6575L12.7882 34.847L12.7036 34.6764L12.5672 34.8093L12.612 34.6242L12.4221 34.6383L12.5754 34.5254L12.4209 34.4141L12.6109 34.4261L12.564 34.2415L12.7019 34.3729L12.7846 34.2014L12.8058 34.3907L12.9794 34.3124Z" fill="white"/>
<path d="M127.104 54.9765L126.999 55.1351L127.182 55.1868L127 55.2405L127.107 55.3979L126.932 55.3216L126.913 55.511L126.829 55.3404L126.692 55.4733L126.737 55.2882L126.547 55.3024L126.7 55.1894L126.546 55.0782L126.736 55.0902L126.689 54.9056L126.827 55.037L126.91 54.8655L126.931 55.0547L127.104 54.9765Z" fill="white"/>
<path d="M69.7135 20.8749L69.6081 21.0335L69.7914 21.0852L69.6087 21.1389L69.7159 21.2963L69.5414 21.22L69.5223 21.4095L69.4377 21.2389L69.3013 21.3718L69.3461 21.1867L69.1562 21.2008L69.3096 21.0879L69.155 20.9766L69.3451 20.9886L69.2982 20.804L69.436 20.9354L69.5187 20.7639L69.5399 20.9532L69.7135 20.8749Z" fill="white"/>
<path d="M208.761 39.8906L208.656 40.0491L208.839 40.1008L208.657 40.1545L208.764 40.3119L208.589 40.2356L208.57 40.4251L208.486 40.2545L208.349 40.3874L208.394 40.2023L208.204 40.2164L208.357 40.1035L208.203 39.9922L208.393 40.0043L208.346 39.8197L208.484 39.9511L208.567 39.7795L208.588 39.9688L208.761 39.8906Z" fill="white"/>
<path d="M132.68 93.6718L132.574 93.8304L132.757 93.8821L132.575 93.9358L132.682 94.0932L132.507 94.0169L132.488 94.2064L132.404 94.0357L132.267 94.1686L132.312 93.9836L132.122 93.9977L132.276 93.8847L132.121 93.7735L132.311 93.7855L132.264 93.6009L132.402 93.7323L132.485 93.5608L132.506 93.75L132.68 93.6718Z" fill="white"/>
<path d="M69.3874 67.7656L69.2819 67.9241L69.4652 67.9758L69.2825 68.0295L69.3897 68.1869L69.2152 68.1106L69.1961 68.3001L69.1115 68.1295L68.9751 68.2624L69.02 68.0773L68.8301 68.0914L68.9834 67.9785L68.8288 67.8672L69.0189 67.8793L68.972 67.6947L69.1099 67.8261L69.1926 67.6545L69.2137 67.8438L69.3874 67.7656Z" fill="white"/>
<path d="M66.7638 118.594L66.6584 118.752L66.8417 118.804L66.659 118.858L66.7662 119.015L66.5917 118.939L66.5726 119.128L66.488 118.958L66.3516 119.091L66.3964 118.905L66.2065 118.92L66.3599 118.807L66.2053 118.695L66.3953 118.707L66.3485 118.523L66.4863 118.654L66.569 118.483L66.5902 118.672L66.7638 118.594Z" fill="white"/>
<path d="M262.872 114L262.767 114.159L262.95 114.21L262.768 114.264L262.875 114.421L262.7 114.345L262.681 114.534L262.597 114.364L262.46 114.497L262.505 114.312L262.315 114.326L262.468 114.213L262.314 114.102L262.504 114.114L262.457 113.929L262.595 114.06L262.678 113.889L262.699 114.078L262.872 114Z" fill="white"/>
<path d="M199.252 274.703L199.146 274.862L199.33 274.913L199.147 274.967L199.254 275.124L199.08 275.048L199.061 275.238L198.976 275.067L198.84 275.2L198.884 275.015L198.695 275.029L198.848 274.916L198.693 274.805L198.883 274.817L198.836 274.632L198.974 274.764L199.057 274.592L199.078 274.781L199.252 274.703Z" fill="white"/>
<path d="M256.971 150.406L256.865 150.565L257.049 150.616L256.866 150.67L256.973 150.828L256.799 150.751L256.78 150.941L256.695 150.77L256.559 150.903L256.603 150.718L256.414 150.732L256.567 150.619L256.412 150.508L256.602 150.52L256.555 150.335L256.693 150.467L256.776 150.295L256.797 150.484L256.971 150.406Z" fill="white"/>
<path d="M167.769 124.5L167.664 124.659L167.847 124.71L167.664 124.764L167.771 124.921L167.597 124.845L167.578 125.034L167.493 124.864L167.357 124.997L167.402 124.812L167.212 124.826L167.365 124.713L167.21 124.602L167.4 124.614L167.354 124.429L167.491 124.56L167.574 124.389L167.595 124.578L167.769 124.5Z" fill="white"/>
<path d="M99.2292 248.461L99.1237 248.619L99.307 248.671L99.1243 248.725L99.2315 248.882L99.057 248.806L99.0379 248.995L98.9533 248.825L98.8169 248.958L98.8618 248.773L98.6719 248.787L98.8252 248.674L98.6706 248.563L98.8607 248.575L98.8138 248.39L98.9517 248.521L99.0344 248.35L99.0555 248.539L99.2292 248.461Z" fill="white"/>
<path d="M19.5392 211.078L19.4338 211.237L19.6171 211.288L19.4344 211.342L19.5416 211.499L19.3671 211.423L19.348 211.613L19.2634 211.442L19.127 211.575L19.1718 211.39L18.9819 211.404L19.1352 211.291L18.9807 211.18L19.1707 211.192L19.1238 211.007L19.2617 211.139L19.3444 210.967L19.3656 211.156L19.5392 211.078Z" fill="white"/>
<path d="M20.5238 97.2812L20.4184 97.4398L20.6017 97.4914L20.419 97.5451L20.5262 97.7026L20.3517 97.6262L20.3326 97.8157L20.248 97.6451L20.1116 97.778L20.1565 97.5929L19.9665 97.6071L20.1199 97.4941L19.9653 97.3828L20.1554 97.3949L20.1085 97.2103L20.2463 97.3417L20.3291 97.1701L20.3502 97.3594L20.5238 97.2812Z" fill="white"/>
<path d="M126.12 108.101L126.014 108.26L126.198 108.312L126.015 108.365L126.122 108.523L125.948 108.447L125.929 108.636L125.844 108.465L125.708 108.598L125.752 108.413L125.562 108.427L125.716 108.314L125.561 108.203L125.751 108.215L125.704 108.031L125.842 108.162L125.925 107.99L125.946 108.18L126.12 108.101Z" fill="white"/>
<path d="M276.319 186.156L276.213 186.315L276.396 186.366L276.214 186.42L276.321 186.578L276.146 186.501L276.127 186.691L276.043 186.52L275.906 186.653L275.951 186.468L275.761 186.482L275.915 186.369L275.76 186.258L275.95 186.27L275.903 186.085L276.041 186.217L276.124 186.045L276.145 186.234L276.319 186.156Z" fill="white"/>
<path d="M232.702 226.484L232.597 226.643L232.78 226.695L232.597 226.748L232.704 226.906L232.53 226.829L232.511 227.019L232.426 226.848L232.29 226.981L232.335 226.796L232.145 226.81L232.298 226.697L232.144 226.586L232.334 226.598L232.287 226.413L232.425 226.545L232.507 226.373L232.528 226.563L232.702 226.484Z" fill="white"/>
<path d="M172.36 135.32L172.255 135.479L172.438 135.531L172.255 135.584L172.362 135.742L172.188 135.665L172.169 135.855L172.084 135.684L171.948 135.817L171.993 135.632L171.803 135.646L171.956 135.533L171.801 135.422L171.992 135.434L171.945 135.249L172.083 135.381L172.165 135.209L172.186 135.398L172.36 135.32Z" fill="white"/>
<path d="M243.525 75.9609L243.419 76.1195L243.602 76.1711L243.42 76.2248L243.527 76.3822L243.352 76.3059L243.333 76.4954L243.249 76.3248L243.112 76.4577L243.157 76.2726L242.967 76.2867L243.121 76.1738L242.966 76.0625L243.156 76.0746L243.109 75.89L243.247 76.0214L243.33 75.8498L243.351 76.0391L243.525 75.9609Z" fill="white"/>
<path d="M32.0007 244.859L31.8952 245.018L32.0785 245.07L31.8958 245.123L32.003 245.281L31.8285 245.204L31.8094 245.394L31.7248 245.223L31.5884 245.356L31.6333 245.171L31.4433 245.185L31.5967 245.072L31.4421 244.961L31.6322 244.973L31.5853 244.788L31.7231 244.92L31.8059 244.748L31.827 244.938L32.0007 244.859Z" fill="white"/>
<path d="M24.13 145.812L24.0246 145.971L24.2079 146.023L24.0252 146.076L24.1324 146.234L23.9579 146.157L23.9388 146.347L23.8542 146.176L23.7178 146.309L23.7627 146.124L23.5727 146.138L23.7261 146.025L23.5715 145.914L23.7616 145.926L23.7147 145.742L23.8525 145.873L23.9353 145.701L23.9564 145.891L24.13 145.812Z" fill="white"/>
<path d="M204.827 142.203L204.722 142.362L204.905 142.413L204.722 142.467L204.83 142.624L204.655 142.548L204.636 142.738L204.551 142.567L204.415 142.7L204.46 142.515L204.27 142.529L204.423 142.416L204.269 142.305L204.459 142.317L204.412 142.132L204.55 142.264L204.633 142.092L204.654 142.281L204.827 142.203Z" fill="white"/>
<path d="M152.356 189.437L152.25 189.596L152.433 189.648L152.251 189.701L152.358 189.859L152.183 189.782L152.164 189.972L152.08 189.801L151.943 189.934L151.988 189.749L151.798 189.763L151.952 189.65L151.797 189.539L151.987 189.551L151.94 189.367L152.078 189.498L152.161 189.326L152.182 189.516L152.356 189.437Z" fill="white"/>
<path d="M187.331 211.984L187.12 212.302L187.487 212.405L187.121 212.513L187.336 212.828L186.986 212.675L186.948 213.054L186.779 212.713L186.506 212.979L186.596 212.608L186.216 212.637L186.522 212.411L186.213 212.188L186.594 212.212L186.5 211.843L186.776 212.106L186.941 211.762L186.983 212.141L187.331 211.984Z" fill="white"/>
<path d="M106.173 156.234L105.962 156.552L106.329 156.655L105.963 156.763L106.178 157.078L105.829 156.925L105.791 157.304L105.621 156.963L105.348 157.229L105.438 156.858L105.058 156.887L105.365 156.661L105.055 156.438L105.436 156.462L105.342 156.093L105.618 156.356L105.783 156.012L105.826 156.391L106.173 156.234Z" fill="white"/>
<path d="M225.872 20.4689L225.661 20.7862L226.028 20.8896L225.662 20.997L225.877 21.312L225.527 21.1593L225.489 21.5385L225.32 21.1971L225.047 21.463L225.137 21.0927L224.757 21.1209L225.064 20.8949L224.754 20.6723L225.135 20.6964L225.041 20.327L225.317 20.5899L225.482 20.2467L225.524 20.6254L225.872 20.4689Z" fill="white"/>
<path d="M154.38 21.4454L154.169 21.7627L154.536 21.8662L154.171 21.9736L154.385 22.2886L154.036 22.1359L153.998 22.5151L153.828 22.1737L153.556 22.4396L153.645 22.0692L153.265 22.0975L153.572 21.8715L153.263 21.6489L153.643 21.6729L153.549 21.3036L153.825 21.5665L153.991 21.2232L154.033 21.602L154.38 21.4454Z" fill="white"/>
<path d="M294.085 212.969L293.874 213.286L294.241 213.39L293.875 213.497L294.089 213.812L293.74 213.659L293.702 214.038L293.533 213.697L293.26 213.963L293.35 213.593L292.97 213.621L293.276 213.395L292.967 213.172L293.347 213.196L293.254 212.827L293.529 213.09L293.695 212.747L293.737 213.125L294.085 212.969Z" fill="white"/>
<path d="M65.1805 205.094L64.9695 205.411L65.3362 205.515L64.9706 205.622L65.1851 205.937L64.836 205.784L64.7978 206.163L64.6285 205.822L64.3556 206.088L64.4453 205.718L64.0653 205.746L64.3721 205.52L64.0628 205.297L64.4431 205.321L64.3493 204.952L64.6252 205.215L64.7907 204.872L64.833 205.25L65.1805 205.094Z" fill="white"/>
<path d="M18.2842 185.75L18.0732 186.067L18.44 186.171L18.0744 186.278L18.2889 186.593L17.9397 186.441L17.9016 186.82L17.7323 186.478L17.4593 186.744L17.5491 186.374L17.169 186.402L17.4759 186.176L17.1666 185.954L17.5469 185.978L17.4531 185.608L17.7289 185.871L17.8944 185.528L17.9368 185.907L18.2842 185.75Z" fill="white"/>
<path d="M2.2144 109.336L2.00339 109.653L2.37018 109.757L2.00456 109.864L2.21906 110.179L1.86991 110.027L1.83176 110.406L1.66245 110.064L1.3895 110.33L1.47925 109.96L1.09922 109.988L1.40604 109.762L1.09674 109.539L1.47706 109.564L1.38323 109.194L1.6591 109.457L1.82463 109.114L1.86696 109.493L2.2144 109.336Z" fill="white"/>
<path d="M233.712 2.29129L233.481 2.28431L233.652 2.52791L233.407 2.35948L233.417 2.59188L233.274 2.34081L233.118 2.45327L233.143 2.23704L232.895 2.17693L233.077 2.09672L232.852 1.89217L233.105 1.98551L233.009 1.73223L233.216 1.95544L233.293 1.77195L233.356 2.02059L233.571 1.99274L233.461 2.15047L233.712 2.29129Z" fill="white"/>
<path d="M294.217 85.5179L293.986 85.5109L294.156 85.7545L293.912 85.586L293.922 85.8184L293.778 85.5674L293.623 85.6798L293.648 85.4636L293.4 85.4035L293.581 85.3233L293.357 85.1187L293.61 85.2121L293.514 84.9588L293.72 85.182L293.798 84.9985L293.861 85.2472L294.075 85.2193L293.965 85.377L294.217 85.5179Z" fill="white"/>
<path d="M273.153 119.182L272.921 119.175L273.092 119.419L272.848 119.25L272.857 119.483L272.714 119.231L272.559 119.344L272.584 119.128L272.336 119.068L272.517 118.987L272.293 118.783L272.546 118.876L272.45 118.623L272.656 118.846L272.734 118.663L272.796 118.911L273.011 118.883L272.901 119.041L273.153 119.182Z" fill="white"/>
<path d="M219.974 29.3694L219.743 29.3624L219.913 29.606L219.669 29.4376L219.679 29.67L219.535 29.4189L219.38 29.5314L219.405 29.3152L219.157 29.2551L219.339 29.1748L219.114 28.9703L219.367 29.0636L219.271 28.8104L219.477 29.0336L219.555 28.8501L219.618 29.0987L219.832 29.0709L219.723 29.2286L219.974 29.3694Z" fill="white"/>
<path d="M181.067 62.346L180.836 62.339L181.006 62.5826L180.762 62.4142L180.772 62.6466L180.629 62.3955L180.473 62.508L180.498 62.2917L180.25 62.2316L180.432 62.1514L180.207 61.9469L180.46 62.0402L180.364 61.7869L180.57 62.0101L180.648 61.8266L180.711 62.0753L180.925 62.0474L180.816 62.2052L181.067 62.346Z" fill="white"/>
<path d="M290.994 180.619L290.762 180.612L290.933 180.856L290.688 180.688L290.698 180.92L290.555 180.669L290.4 180.781L290.425 180.565L290.177 180.505L290.358 180.425L290.134 180.22L290.387 180.314L290.291 180.06L290.497 180.284L290.574 180.1L290.637 180.349L290.852 180.321L290.742 180.479L290.994 180.619Z" fill="white"/>
<path d="M125.913 190.846L125.682 190.839L125.852 191.083L125.608 190.914L125.618 191.147L125.475 190.895L125.319 191.008L125.344 190.792L125.096 190.732L125.278 190.651L125.053 190.447L125.306 190.54L125.21 190.287L125.417 190.51L125.494 190.327L125.557 190.575L125.772 190.547L125.662 190.705L125.913 190.846Z" fill="white"/>
<path d="M62.3285 74.3929L62.0972 74.3859L62.2677 74.6295L62.0233 74.461L62.0331 74.6934L61.89 74.4424L61.7345 74.5548L61.7595 74.3386L61.5115 74.2785L61.693 74.1983L61.4685 73.9937L61.7216 74.0871L61.6256 73.8338L61.8318 74.057L61.9094 73.8735L61.9722 74.1222L62.1869 74.0943L62.077 74.252L62.3285 74.3929Z" fill="white"/>
<path d="M255.54 121.979L255.309 121.972L255.48 122.215L255.235 122.047L255.245 122.279L255.102 122.028L254.946 122.141L254.971 121.925L254.723 121.864L254.905 121.784L254.68 121.58L254.933 121.673L254.838 121.42L255.044 121.643L255.121 121.459L255.184 121.708L255.399 121.68L255.289 121.838L255.54 121.979Z" fill="white"/>
<path d="M288.526 193.455L288.295 193.448L288.466 193.692L288.221 193.524L288.231 193.756L288.088 193.505L287.932 193.617L287.958 193.401L287.709 193.341L287.891 193.261L287.666 193.056L287.92 193.15L287.824 192.896L288.03 193.12L288.107 192.936L288.17 193.185L288.385 193.157L288.275 193.315L288.526 193.455Z" fill="white"/>
<path d="M52.5206 112.354L52.2893 112.347L52.4599 112.59L52.2155 112.422L52.2253 112.654L52.0821 112.403L51.9266 112.516L51.9517 112.3L51.7036 112.239L51.8851 112.159L51.6606 111.955L51.9137 112.048L51.8178 111.795L52.024 112.018L52.1015 111.834L52.1643 112.083L52.3791 112.055L52.2691 112.213L52.5206 112.354Z" fill="white"/>
<path d="M113.661 33.4319L113.43 33.4249L113.6 33.6685L113.356 33.5001L113.366 33.7325L113.223 33.4814L113.067 33.5939L113.092 33.3777L112.844 33.3176L113.026 33.2373L112.801 33.0328L113.054 33.1261L112.958 32.8729L113.164 33.0961L113.242 32.9126L113.305 33.1612L113.519 33.1334L113.41 33.2911L113.661 33.4319Z" fill="white"/>
<path d="M227.667 209.119L227.436 209.112L227.607 209.356L227.362 209.188L227.372 209.42L227.229 209.169L227.073 209.281L227.098 209.065L226.85 209.005L227.032 208.925L226.807 208.72L227.06 208.814L226.964 208.56L227.171 208.784L227.248 208.6L227.311 208.849L227.526 208.821L227.416 208.979L227.667 209.119Z" fill="white"/>
<path d="M251.23 264.575L250.767 264.561L251.108 265.049L250.619 264.712L250.639 265.177L250.352 264.674L250.041 264.899L250.091 264.467L249.595 264.346L249.958 264.186L249.509 263.777L250.015 263.963L249.823 263.457L250.236 263.903L250.391 263.536L250.517 264.034L250.946 263.978L250.726 264.293L251.23 264.575Z" fill="white"/>
<path d="M198.973 133.474L198.51 133.46L198.851 133.947L198.362 133.61L198.382 134.075L198.095 133.573L197.784 133.798L197.834 133.365L197.338 133.245L197.701 133.084L197.252 132.675L197.758 132.862L197.566 132.355L197.979 132.802L198.134 132.434L198.26 132.932L198.689 132.876L198.469 133.192L198.973 133.474Z" fill="white"/>
<path d="M118.115 121.724L117.652 121.71L117.993 122.197L117.504 121.86L117.524 122.325L117.237 121.823L116.926 122.048L116.976 121.615L116.48 121.495L116.843 121.334L116.394 120.925L116.9 121.112L116.708 120.605L117.121 121.052L117.276 120.684L117.402 121.182L117.832 121.126L117.612 121.442L118.115 121.724Z" fill="white"/>
<path d="M32.6116 182.77L32.1488 182.757L32.49 183.244L32.001 182.907L32.0206 183.372L31.7342 182.87L31.423 183.095L31.4731 182.662L30.9768 182.542L31.34 182.381L30.8907 181.972L31.3972 182.159L31.2052 181.652L31.6178 182.098L31.773 181.731L31.8987 182.229L32.3284 182.173L32.1084 182.489L32.6116 182.77Z" fill="white"/>
<path d="M78.8213 55.0596L78.3586 55.0456L78.6998 55.533L78.2108 55.196L78.2303 55.661L77.9439 55.1586L77.6327 55.3837L77.6829 54.951L77.1865 54.8307L77.5498 54.6702L77.1005 54.2609L77.6069 54.4477L77.4149 53.9409L77.8275 54.3875L77.9827 54.0204L78.1084 54.5179L78.5381 54.4622L78.3181 54.7778L78.8213 55.0596Z" fill="white"/>
<path d="M2.16408 123.567L1.70132 123.553L2.04254 124.041L1.55354 123.704L1.57312 124.169L1.28669 123.666L0.97548 123.891L1.02563 123.459L0.529254 123.339L0.892529 123.178L0.443237 122.769L0.949654 122.955L0.757679 122.449L1.17028 122.895L1.32545 122.528L1.45117 123.026L1.88088 122.97L1.6609 123.286L2.16408 123.567Z" fill="white"/>
<path d="M248.827 85.6914C249.482 86.7995 248.216 88.0445 247.119 87.3719L232.443 78.3764C231.735 77.9424 230.809 78.3171 230.602 79.1213L226.312 95.7916C225.992 97.038 224.217 97.0235 223.916 95.772L219.9 79.0338C219.706 78.2264 218.786 77.8366 218.071 78.2589L203.25 87.0133C202.142 87.6678 200.897 86.4024 201.57 85.3051L210.565 70.6293C210.999 69.9213 210.625 68.9954 209.82 68.7884L193.15 64.4987C191.904 64.178 191.918 62.4029 193.17 62.1026L209.908 58.086C210.715 57.8922 211.105 56.9725 210.683 56.2576L201.928 41.4366C201.274 40.3285 202.539 39.0835 203.637 39.7561L218.313 48.7516C219.021 49.1856 219.946 48.8109 220.153 48.0067L224.443 31.3364C224.764 30.09 226.539 30.1045 226.839 31.356L230.856 48.0942C231.05 48.9017 231.969 49.2914 232.684 48.8691L247.505 40.1147C248.613 39.4602 249.858 40.7256 249.186 41.8229L240.19 56.4988C239.756 57.2067 240.131 58.1327 240.935 58.3396L257.605 62.6293C258.852 62.95 258.837 64.7252 257.586 65.0255L240.848 69.0421C240.04 69.2358 239.65 70.1555 240.073 70.8705L248.827 85.6914Z" fill="url(#paint0_linear_2719_19532)"/>
<path d="M56.3296 256.19C57.118 257.525 55.5938 259.024 54.2722 258.214L36.5959 247.38C35.7431 246.857 34.6279 247.308 34.3787 248.277L29.2119 268.356C28.8256 269.857 26.6876 269.839 26.3259 268.332L21.4881 248.172C21.2547 247.199 20.147 246.73 19.2858 247.238L1.43471 257.783C0.100064 258.571 -1.39942 257.047 -0.589354 255.725L10.2453 238.049C10.768 237.196 10.3167 236.081 9.34809 235.832L-10.7305 230.665C-12.2317 230.278 -12.2142 228.14 -10.7069 227.779L9.45347 222.941C10.426 222.708 10.8955 221.6 10.3868 220.739L-0.157419 202.888C-0.945763 201.553 0.578423 200.053 1.90001 200.864L19.5764 211.698C20.4291 212.221 21.5443 211.77 21.7936 210.801L26.9603 190.722C27.3466 189.221 29.4847 189.239 29.8464 190.746L34.6842 210.906C34.9175 211.879 36.0252 212.348 36.8864 211.84L54.7375 201.295C56.0722 200.507 57.5716 202.031 56.7616 203.353L45.9269 221.029C45.4042 221.882 45.8555 222.997 46.8241 223.246L66.9027 228.413C68.4039 228.799 68.3864 230.938 66.8791 231.299L46.7188 236.137C45.7462 236.37 45.2767 237.478 45.7854 238.339L56.3296 256.19Z" fill="url(#paint1_linear_2719_19532)"/>
<g clip-path="url(#clip1_2719_19532)" filter="url(#filter0_i_2719_19532)">
<path d="M124.234 173.954C126.166 170.708 130.528 169.931 133.461 172.311C136.324 174.634 136.537 178.927 133.919 181.522L123.33 192.019C121.811 193.524 119.418 193.685 117.712 192.396C115.963 191.075 115.487 188.65 116.608 186.766L124.234 173.954Z" fill="#D474C6"/>
<path d="M107.236 161.473C109.669 158.583 114.1 158.525 116.608 161.349C119.056 164.105 118.57 168.376 115.566 170.512L103.415 179.153C101.673 180.392 99.2847 180.162 97.8102 178.614C96.2984 177.027 96.2226 174.557 97.6342 172.88L107.236 161.473Z" fill="#D474C6"/>
<g filter="url(#filter1_n_2719_19532)">
<ellipse cx="145.189" cy="134.361" rx="85.9951" ry="76.6809" transform="rotate(-9.05149 145.189 134.361)" fill="url(#paint2_linear_2719_19532)" fill-opacity="0.9"/>
<path d="M133.23 59.2909C179.843 51.8652 222.863 79.545 229.457 120.936C236.051 162.328 203.761 202.006 157.148 209.432C110.535 216.858 67.5144 189.177 60.9205 147.785C54.3268 106.394 86.617 66.7166 133.23 59.2909Z" stroke="url(#paint3_linear_2719_19532)" stroke-width="1.32759"/>
</g>
<g filter="url(#filter2_ii_2719_19532)">
<path d="M125.994 76.5576C126.268 75.0067 127.783 74.0264 129.319 74.376C143.128 77.5205 149.454 83.4721 151.808 87.915C152.693 89.5863 151.16 91.1467 149.269 91.1797C146.727 91.224 144.626 91.6874 143.018 92.2686C144.972 94.4365 149.095 99.6494 152.455 105.715C158.075 100.189 165.274 97.8665 168.792 97.3779C177.765 95.2883 197.63 97.3048 205.3 122.086C207.828 133.242 206.606 143.039 203.271 151.495L207.766 155.062C209.441 156.391 209.885 158.749 208.808 160.596C207.704 162.489 205.352 163.249 203.349 162.359L198.783 160.332C196.911 163.321 194.797 166.096 192.547 168.659L197.44 174.318C198.838 175.936 198.835 178.335 197.434 179.949C195.997 181.604 193.545 181.913 191.743 180.667L185.092 176.068C177.364 182.824 169.373 187.431 164.528 189.928C164.059 190.169 163.287 190.521 162.374 190.905L161.908 198.189C161.771 200.323 160.087 202.031 157.957 202.2C155.772 202.373 153.806 200.875 153.394 198.723L152.288 192.938C131.53 190.501 78.3479 168.306 89.5054 132.043C98.7783 101.907 125.217 102.561 141.923 108.039C140.497 104.195 138.509 99.3904 136.331 95.4443C134.364 96.4341 132.714 97.6022 131.381 98.7607C129.534 100.366 126.231 99.9766 125.753 97.5771C124.309 90.3104 125.046 81.9253 125.994 76.5576Z" fill="#D474C6"/>
</g>
<g filter="url(#filter3_ii_2719_19532)">
<path d="M136.743 219.985L131.362 212.021C130.099 210.151 130.794 207.593 132.872 206.715C152.886 198.249 176.543 195.754 188.444 195.46C190.583 195.408 192.219 197.259 192.016 199.39L191.189 208.073C191.029 209.756 189.742 211.113 188.072 211.378C165.252 215.001 148.499 219.461 140.664 221.484C139.169 221.87 137.608 221.264 136.743 219.985Z" fill="#802A71"/>
</g>
<circle cx="162.891" cy="206.261" r="2.58143" fill="#F5C0EC"/>
<circle cx="146.665" cy="209.941" r="2.58143" fill="#F5C0EC"/>
<circle cx="179.116" cy="204.05" r="2.58143" fill="#F5C0EC"/>
<g filter="url(#filter4_g_2719_19532)">
<ellipse cx="137.57" cy="141.582" rx="12.7333" ry="11.2634" transform="rotate(-7.75815 137.57 141.582)" fill="white"/>
</g>
<g filter="url(#filter5_g_2719_19532)">
<ellipse cx="138.209" cy="141.361" rx="8.63019" ry="7.87896" transform="rotate(-7.75815 138.209 141.361)" fill="black"/>
</g>
<g filter="url(#filter6_g_2719_19532)">
<ellipse cx="172.682" cy="138.069" rx="11.497" ry="11.2634" transform="rotate(-7.75815 172.682 138.069)" fill="white"/>
</g>
<ellipse cx="156.279" cy="147.397" rx="3.68775" ry="2.9502" transform="rotate(-3.98844 156.279 147.397)" fill="#FF581D"/>
<path d="M151.657 151.945L152.145 152.629C152.951 153.757 154.398 154.228 155.713 153.789V153.789" stroke="#852A0A" stroke-width="1.18008" stroke-linecap="round"/>
<g filter="url(#filter7_g_2719_19532)">
<ellipse cx="172.743" cy="137.768" rx="8.48347" ry="7.98638" transform="rotate(-7.75815 172.743 137.768)" fill="black"/>
</g>
<path opacity="0.8" d="M101.924 96.0457L87.5076 117.707C84.3696 122.422 78.4998 127.638 74.1753 123.981C71.5077 121.725 71.5141 117.461 72.1613 114.681C73.5559 109.727 79.3433 97.6761 91.3366 89.1046C98.5609 83.9414 102.184 84.2879 103.822 86.3366C106.05 89.1238 103.901 93.0753 101.924 96.0457Z" fill="url(#paint4_linear_2719_19532)"/>
<path opacity="0.89" d="M70.5499 130.684C77.6304 125.964 77.9254 136.585 77.1878 142.485C76.3027 145.73 72.3937 143.837 70.5499 142.485C67.5997 140.518 63.4694 135.404 70.5499 130.684Z" fill="url(#paint5_linear_2719_19532)"/>
<g filter="url(#filter8_ii_2719_19532)">
<path d="M237.064 158.966C244.228 157.064 251.174 160.926 252.577 167.59C253.98 174.255 249.31 181.199 242.145 183.101C234.982 185.002 228.037 181.141 226.633 174.477C225.23 167.812 229.9 160.867 237.064 158.966ZM247.23 169.033C246.422 165.192 242.419 162.967 238.29 164.063C234.161 165.159 231.47 169.161 232.278 173.002C233.087 176.842 237.09 179.067 241.219 177.971C245.347 176.875 248.039 172.874 247.23 169.033Z" fill="#F5F5F5"/>
</g>
<g filter="url(#filter9_iii_2719_19532)">
<path d="M233.927 151.265C239.222 150.18 240.516 157.918 240.502 161.922C240.85 165.042 241.33 173.72 240.73 185.077C240.617 187.227 240.046 189.391 238.569 190.957C232.206 197.699 219.849 198.411 214.073 195.067C213.179 194.549 212.49 193.763 211.902 192.914C204.412 182.101 197.757 163.912 200.97 160.784C204.901 156.366 214.268 153.61 219.679 152.522C220.714 152.313 221.771 152.275 222.827 152.287C225.406 152.315 229.69 152.133 233.927 151.265Z" fill="#EEEEEE"/>
</g>
<g filter="url(#filter10_i_2719_19532)">
<path d="M215.74 154.891C223.028 144.426 229.585 144.362 232.01 145.697C234.209 146.813 237.591 150.283 234.165 155.439C233.922 155.805 233.619 156.13 233.284 156.414C227.118 161.65 219.593 163.906 213.579 164.605C213.077 164.716 212.554 164.81 212.016 164.885C207.791 165.469 204.201 164.629 203.986 163.009C203.881 162.709 203.863 162.38 203.962 162.026C204.091 161.567 204.385 161.126 204.935 160.773C205.279 160.551 205.683 160.452 206.08 160.349C208.922 159.612 212.163 157.786 214.105 156.526C214.757 156.102 215.295 155.529 215.74 154.891Z" fill="#392929"/>
</g>
<g filter="url(#filter11_i_2719_19532)">
<circle cx="239.206" cy="137.272" r="4.2035" transform="rotate(-2.8247 239.206 137.272)" fill="#392929"/>
</g>
<g filter="url(#filter12_i_2719_19532)">
<path d="M73.2438 127.547C71.2347 124.863 66.1479 123.513 63.816 124.235C63.34 124.382 63.021 124.776 62.7848 125.215C54.4337 140.732 39.1031 172.027 41.9188 178.177C44.4152 183.629 47.7445 186.675 49.6227 187.866C50.0777 188.154 50.6275 188.259 51.1657 188.231C78.4603 186.813 92.0199 163.076 96.1704 148.214C96.7702 146.066 95.6855 143.862 93.7283 142.793C82.3864 136.599 76.9283 132.471 73.2438 127.547Z" fill="url(#paint6_linear_2719_19532)"/>
</g>
<g filter="url(#filter13_ii_2719_19532)">
<path d="M89.7233 141.894C79.5599 136.631 73.5569 130.853 70.4867 126.709C68.9583 124.646 66.1504 123.497 63.6981 124.258C55.9513 126.662 48.0733 127.125 43.0562 126.968C41.1155 126.907 39.2495 127.934 38.5076 129.728C27.0424 157.453 38.3891 177.252 46.7378 184.889C47.5302 185.614 48.5917 185.957 49.6624 185.875C73.2802 184.075 86.9612 161.374 92.0052 147.227C92.7476 145.145 91.6863 142.91 89.7233 141.894Z" fill="url(#paint7_linear_2719_19532)"/>
</g>
<g filter="url(#filter14_i_2719_19532)">
<path d="M81.949 143.085C74.2885 139.675 69.5587 134.416 67.1727 130.535C66.4373 129.339 64.2492 128.987 63.0049 129.638C58.4745 132.006 50.0357 132.885 44.947 133.052C44.3384 133.072 43.78 133.414 43.5008 133.955C33.0232 154.264 42.3668 172.559 48.9223 179.869C49.2777 180.266 49.8109 180.452 50.3373 180.373C68.3925 177.649 79.6969 159.616 84.2744 148.139C85.0735 146.136 83.9197 143.963 81.949 143.085Z" fill="url(#paint8_linear_2719_19532)"/>
</g>
<g filter="url(#filter15_i_2719_19532)">
<path d="M65.5799 129.458C66.2548 129.645 66.852 130.006 67.173 130.528C69.559 134.409 74.2895 139.669 81.95 143.079C83.9205 143.956 85.0741 146.129 84.275 148.133C79.6975 159.61 68.3932 177.642 50.3383 180.366C49.8119 180.446 49.2783 180.259 48.9228 179.863C48.6065 179.51 48.284 179.132 47.9573 178.729C50.419 162.103 59.9686 140.345 65.5799 129.458Z" fill="url(#paint9_linear_2719_19532)"/>
</g>
<path d="M127.231 130.688C130.586 133.217 140.628 137.979 153.959 136.791" stroke="#D474C6" stroke-width="3.93729"/>
<path d="M155.168 136.391C159.37 136.331 170.222 133.935 180.025 124.821" stroke="url(#paint10_linear_2719_19532)" stroke-width="3.93729"/>
<ellipse cx="139.971" cy="132.393" rx="10.1663" ry="2.87554" transform="rotate(14.7556 139.971 132.393)" fill="#D474C6"/>
<ellipse cx="167.632" cy="129.149" rx="8.95421" ry="2.87554" transform="rotate(-30.08 167.632 129.149)" fill="#D474C6"/>
</g>
</g>
<defs>
<filter id="filter0_i_2719_19532" x="27.546" y="55.7031" width="227.821" height="166.945" filterUnits="userSpaceOnUse" color-interpolation-filters="sRGB">
<feFlood flood-opacity="0" result="BackgroundImageFix"/>
<feBlend mode="normal" in="SourceGraphic" in2="BackgroundImageFix" result="shape"/>
<feColorMatrix in="SourceAlpha" type="matrix" values="0 0 0 0 0 0 0 0 0 0 0 0 0 0 0 0 0 0 127 0" result="hardAlpha"/>
<feOffset dx="-1.68741" dy="0.56247"/>
<feGaussianBlur stdDeviation="1.09682"/>
<feComposite in2="hardAlpha" operator="arithmetic" k2="-1" k3="1"/>
<feColorMatrix type="matrix" values="0 0 0 0 0.259615 0 0 0 0 0.104845 0 0 0 0 0.104845 0 0 0 0.18 0"/>
<feBlend mode="normal" in2="shape" result="effect1_innerShadow_2719_19532"/>
</filter>
<filter id="filter1_n_2719_19532" x="59.4014" y="57.4219" width="171.575" height="153.875" filterUnits="userSpaceOnUse" color-interpolation-filters="sRGB">
<feFlood flood-opacity="0" result="BackgroundImageFix"/>
<feBlend mode="normal" in="SourceGraphic" in2="BackgroundImageFix" result="shape"/>
<feTurbulence type="fractalNoise" baseFrequency="0.14123333990573883 0.14123333990573883" stitchTiles="stitch" numOctaves="3" result="noise" seed="1999" />
<feColorMatrix in="noise" type="luminanceToAlpha" result="alphaNoise" />
<feComponentTransfer in="alphaNoise" result="coloredNoise1">
<feFuncA type="discrete" tableValues="1 1 1 1 1 1 1 1 1 1 1 1 1 1 1 1 1 1 1 1 1 1 1 1 1 1 1 1 1 1 1 1 1 1 1 1 1 1 1 1 1 1 1 1 1 1 1 1 1 1 1 0 0 0 0 0 0 0 0 0 0 0 0 0 0 0 0 0 0 0 0 0 0 0 0 0 0 0 0 0 0 0 0 0 0 0 0 0 0 0 0 0 0 0 0 0 0 0 0 0 "/>
</feComponentTransfer>
<feComposite operator="in" in2="shape" in="coloredNoise1" result="noise1Clipped" />
<feFlood flood-color="rgba(0, 0, 0, 0.08)" result="color1Flood" />
<feComposite operator="in" in2="noise1Clipped" in="color1Flood" result="color1" />
<feMerge result="effect1_noise_2719_19532">
<feMergeNode in="shape" />
<feMergeNode in="color1" />
</feMerge>
</filter>
<filter id="filter2_ii_2719_19532" x="81.3462" y="74.3047" width="128.047" height="129.381" filterUnits="userSpaceOnUse" color-interpolation-filters="sRGB">
<feFlood flood-opacity="0" result="BackgroundImageFix"/>
<feBlend mode="normal" in="SourceGraphic" in2="BackgroundImageFix" result="shape"/>
<feColorMatrix in="SourceAlpha" type="matrix" values="0 0 0 0 0 0 0 0 0 0 0 0 0 0 0 0 0 0 127 0" result="hardAlpha"/>
<feOffset dx="-6.63795" dy="1.4751"/>
<feGaussianBlur stdDeviation="5.49475"/>
<feComposite in2="hardAlpha" operator="arithmetic" k2="-1" k3="1"/>
<feColorMatrix type="matrix" values="0 0 0 0 1 0 0 0 0 0.912766 0 0 0 0 0.792818 0 0 0 0.8 0"/>
<feBlend mode="normal" in2="shape" result="effect1_innerShadow_2719_19532"/>
<feColorMatrix in="SourceAlpha" type="matrix" values="0 0 0 0 0 0 0 0 0 0 0 0 0 0 0 0 0 0 127 0" result="hardAlpha"/>
<feOffset dx="-0.73755" dy="0.73755"/>
<feGaussianBlur stdDeviation="0.368775"/>
<feComposite in2="hardAlpha" operator="arithmetic" k2="-1" k3="1"/>
<feColorMatrix type="matrix" values="0 0 0 0 0.871206 0 0 0 0 1 0 0 0 0 0.997853 0 0 0 0.5 0"/>
<feBlend mode="normal" in2="effect1_innerShadow_2719_19532" result="effect2_innerShadow_2719_19532"/>
</filter>
<filter id="filter3_ii_2719_19532" x="122.912" y="195.461" width="69.121" height="27.6157" filterUnits="userSpaceOnUse" color-interpolation-filters="sRGB">
<feFlood flood-opacity="0" result="BackgroundImageFix"/>
<feBlend mode="normal" in="SourceGraphic" in2="BackgroundImageFix" result="shape"/>
<feColorMatrix in="SourceAlpha" type="matrix" values="0 0 0 0 0 0 0 0 0 0 0 0 0 0 0 0 0 0 127 0" result="hardAlpha"/>
<feOffset dx="-8.11305" dy="1.4751"/>
<feGaussianBlur stdDeviation="3.90902"/>
<feComposite in2="hardAlpha" operator="arithmetic" k2="-1" k3="1"/>
<feColorMatrix type="matrix" values="0 0 0 0 0.869328 0 0 0 0 0.719989 0 0 0 0 1 0 0 0 0.2 0"/>
<feBlend mode="normal" in2="shape" result="effect1_innerShadow_2719_19532"/>
<feColorMatrix in="SourceAlpha" type="matrix" values="0 0 0 0 0 0 0 0 0 0 0 0 0 0 0 0 0 0 127 0" result="hardAlpha"/>
<feOffset dx="-0.73755"/>
<feGaussianBlur stdDeviation="0.368775"/>
<feComposite in2="hardAlpha" operator="arithmetic" k2="-1" k3="1"/>
<feColorMatrix type="matrix" values="0 0 0 0 0.858824 0 0 0 0 0.976471 0 0 0 0 0.984314 0 0 0 0.2 0"/>
<feBlend mode="normal" in2="effect1_innerShadow_2719_19532" result="effect2_innerShadow_2719_19532"/>
</filter>
<filter id="filter4_g_2719_19532" x="124.492" y="129.92" width="26.156" height="23.3235" filterUnits="userSpaceOnUse" color-interpolation-filters="sRGB">
<feFlood flood-opacity="0" result="BackgroundImageFix"/>
<feBlend mode="normal" in="SourceGraphic" in2="BackgroundImageFix" result="shape"/>
<feTurbulence type="fractalNoise" baseFrequency="1.5064890384674072 1.5064890384674072" numOctaves="3" seed="3511" />
<feDisplacementMap in="shape" scale="0.73755002021789551" xChannelSelector="R" yChannelSelector="G" result="displacedImage" width="100%" height="100%" />
<feMerge result="effect1_texture_2719_19532">
<feMergeNode in="displacedImage"/>
</feMerge>
</filter>
<filter id="filter5_g_2719_19532" x="129.348" y="133.227" width="17.7202" height="16.2735" filterUnits="userSpaceOnUse" color-interpolation-filters="sRGB">
<feFlood flood-opacity="0" result="BackgroundImageFix"/>
<feBlend mode="normal" in="SourceGraphic" in2="BackgroundImageFix" result="shape"/>
<feTurbulence type="fractalNoise" baseFrequency="2.2937488555908203 2.2937488555908203" numOctaves="3" seed="3511" />
<feDisplacementMap in="shape" scale="0.48440840840339661" xChannelSelector="R" yChannelSelector="G" result="displacedImage" width="100%" height="100%" />
<feMerge result="effect1_texture_2719_19532">
<feMergeNode in="displacedImage"/>
</feMerge>
</filter>
<filter id="filter6_g_2719_19532" x="160.819" y="126.428" width="23.7256" height="23.2766" filterUnits="userSpaceOnUse" color-interpolation-filters="sRGB">
<feFlood flood-opacity="0" result="BackgroundImageFix"/>
<feBlend mode="normal" in="SourceGraphic" in2="BackgroundImageFix" result="shape"/>
<feTurbulence type="fractalNoise" baseFrequency="1.5064890384674072 1.5064890384674072" numOctaves="3" seed="3511" />
<feDisplacementMap in="shape" scale="0.73755002021789551" xChannelSelector="R" yChannelSelector="G" result="displacedImage" width="100%" height="100%" />
<feMerge result="effect1_texture_2719_19532">
<feMergeNode in="displacedImage"/>
</feMerge>
</filter>
<filter id="filter7_g_2719_19532" x="164.025" y="129.531" width="17.4356" height="16.4766" filterUnits="userSpaceOnUse" color-interpolation-filters="sRGB">
<feFlood flood-opacity="0" result="BackgroundImageFix"/>
<feBlend mode="normal" in="SourceGraphic" in2="BackgroundImageFix" result="shape"/>
<feTurbulence type="fractalNoise" baseFrequency="2.2937488555908203 2.2937488555908203" numOctaves="3" seed="3511" />
<feDisplacementMap in="shape" scale="0.48440840840339661" xChannelSelector="R" yChannelSelector="G" result="displacedImage" width="100%" height="100%" />
<feMerge result="effect1_texture_2719_19532">
<feMergeNode in="displacedImage"/>
</feMerge>
</filter>
<filter id="filter8_ii_2719_19532" x="222.881" y="158.484" width="29.9448" height="27.2033" filterUnits="userSpaceOnUse" color-interpolation-filters="sRGB">
<feFlood flood-opacity="0" result="BackgroundImageFix"/>
<feBlend mode="normal" in="SourceGraphic" in2="BackgroundImageFix" result="shape"/>
<feColorMatrix in="SourceAlpha" type="matrix" values="0 0 0 0 0 0 0 0 0 0 0 0 0 0 0 0 0 0 127 0" result="hardAlpha"/>
<feOffset dx="-3.50291" dy="2.10175"/>
<feGaussianBlur stdDeviation="2.13678"/>
<feComposite in2="hardAlpha" operator="arithmetic" k2="-1" k3="1"/>
<feColorMatrix type="matrix" values="0 0 0 0 0.949782 0 0 0 0 1 0 0 0 0 0.85652 0 0 0 0.77 0"/>
<feBlend mode="normal" in2="shape" result="effect1_innerShadow_2719_19532"/>
<feColorMatrix in="SourceAlpha" type="matrix" values="0 0 0 0 0 0 0 0 0 0 0 0 0 0 0 0 0 0 127 0" result="hardAlpha"/>
<feOffset dx="-0.700583" dy="0.700583"/>
<feGaussianBlur stdDeviation="0.350291"/>
<feComposite in2="hardAlpha" operator="arithmetic" k2="-1" k3="1"/>
<feColorMatrix type="matrix" values="0 0 0 0 0.980056 0 0 0 0 1 0 0 0 0 0.999668 0 0 0 0.7 0"/>
<feBlend mode="normal" in2="effect1_innerShadow_2719_19532" result="effect2_innerShadow_2719_19532"/>
</filter>
<filter id="filter9_iii_2719_19532" x="196.638" y="151.164" width="48.1596" height="48.6539" filterUnits="userSpaceOnUse" color-interpolation-filters="sRGB">
<feFlood flood-opacity="0" result="BackgroundImageFix"/>
<feBlend mode="normal" in="SourceGraphic" in2="BackgroundImageFix" result="shape"/>
<feColorMatrix in="SourceAlpha" type="matrix" values="0 0 0 0 0 0 0 0 0 0 0 0 0 0 0 0 0 0 127 0" result="hardAlpha"/>
<feOffset dx="-3.50291" dy="2.10175"/>
<feGaussianBlur stdDeviation="2.13678"/>
<feComposite in2="hardAlpha" operator="arithmetic" k2="-1" k3="1"/>
<feColorMatrix type="matrix" values="0 0 0 0 0.949782 0 0 0 0 1 0 0 0 0 0.85652 0 0 0 0.77 0"/>
<feBlend mode="normal" in2="shape" result="effect1_innerShadow_2719_19532"/>
<feColorMatrix in="SourceAlpha" type="matrix" values="0 0 0 0 0 0 0 0 0 0 0 0 0 0 0 0 0 0 127 0" result="hardAlpha"/>
<feOffset dx="4.2035" dy="2.80233"/>
<feGaussianBlur stdDeviation="1.89157"/>
<feComposite in2="hardAlpha" operator="arithmetic" k2="-1" k3="1"/>
<feColorMatrix type="matrix" values="0 0 0 0 1 0 0 0 0 0.602539 0 0 0 0 0.403809 0 0 0 0.25 0"/>
<feBlend mode="normal" in2="effect1_innerShadow_2719_19532" result="effect2_innerShadow_2719_19532"/>
<feColorMatrix in="SourceAlpha" type="matrix" values="0 0 0 0 0 0 0 0 0 0 0 0 0 0 0 0 0 0 127 0" result="hardAlpha"/>
<feOffset dx="-0.700583" dy="0.700583"/>
<feGaussianBlur stdDeviation="0.350291"/>
<feComposite in2="hardAlpha" operator="arithmetic" k2="-1" k3="1"/>
<feColorMatrix type="matrix" values="0 0 0 0 0.980056 0 0 0 0 1 0 0 0 0 0.999668 0 0 0 0.7 0"/>
<feBlend mode="normal" in2="effect2_innerShadow_2719_19532" result="effect3_innerShadow_2719_19532"/>
</filter>
<filter id="filter10_i_2719_19532" x="203.196" y="145.094" width="32.4308" height="21.3777" filterUnits="userSpaceOnUse" color-interpolation-filters="sRGB">
<feFlood flood-opacity="0" result="BackgroundImageFix"/>
<feBlend mode="normal" in="SourceGraphic" in2="BackgroundImageFix" result="shape"/>
<feColorMatrix in="SourceAlpha" type="matrix" values="0 0 0 0 0 0 0 0 0 0 0 0 0 0 0 0 0 0 127 0" result="hardAlpha"/>
<feOffset dx="-0.700583" dy="1.40117"/>
<feGaussianBlur stdDeviation="1.75146"/>
<feComposite in2="hardAlpha" operator="arithmetic" k2="-1" k3="1"/>
<feColorMatrix type="matrix" values="0 0 0 0 1 0 0 0 0 0.771221 0 0 0 0 0.942805 0 0 0 0.7 0"/>
<feBlend mode="normal" in2="shape" result="effect1_innerShadow_2719_19532"/>
</filter>
<filter id="filter11_i_2719_19532" x="232.901" y="133.07" width="10.509" height="9.10683" filterUnits="userSpaceOnUse" color-interpolation-filters="sRGB">
<feFlood flood-opacity="0" result="BackgroundImageFix"/>
<feBlend mode="normal" in="SourceGraphic" in2="BackgroundImageFix" result="shape"/>
<feColorMatrix in="SourceAlpha" type="matrix" values="0 0 0 0 0 0 0 0 0 0 0 0 0 0 0 0 0 0 127 0" result="hardAlpha"/>
<feOffset dx="-2.10175" dy="0.700583"/>
<feGaussianBlur stdDeviation="1.75146"/>
<feComposite in2="hardAlpha" operator="arithmetic" k2="-1" k3="1"/>
<feColorMatrix type="matrix" values="0 0 0 0 1 0 0 0 0 0.772549 0 0 0 0 0.941176 0 0 0 0.4 0"/>
<feBlend mode="normal" in2="shape" result="effect1_innerShadow_2719_19532"/>
</filter>
<filter id="filter12_i_2719_19532" x="39.891" y="124.039" width="56.4445" height="65.8827" filterUnits="userSpaceOnUse" color-interpolation-filters="sRGB">
<feFlood flood-opacity="0" result="BackgroundImageFix"/>
<feBlend mode="normal" in="SourceGraphic" in2="BackgroundImageFix" result="shape"/>
<feColorMatrix in="SourceAlpha" type="matrix" values="0 0 0 0 0 0 0 0 0 0 0 0 0 0 0 0 0 0 127 0" result="hardAlpha"/>
<feOffset dx="-1.68741" dy="1.68741"/>
<feGaussianBlur stdDeviation="1.63116"/>
<feComposite in2="hardAlpha" operator="arithmetic" k2="-1" k3="1"/>
<feColorMatrix type="matrix" values="0 0 0 0 0.67451 0 0 0 0 0.623529 0 0 0 0 0.741176 0 0 0 1 0"/>
<feBlend mode="normal" in2="shape" result="effect1_innerShadow_2719_19532"/>
</filter>
<filter id="filter13_ii_2719_19532" x="32.9194" y="119.524" width="62.1358" height="67.0982" filterUnits="userSpaceOnUse" color-interpolation-filters="sRGB">
<feFlood flood-opacity="0" result="BackgroundImageFix"/>
<feBlend mode="normal" in="SourceGraphic" in2="BackgroundImageFix" result="shape"/>
<feColorMatrix in="SourceAlpha" type="matrix" values="0 0 0 0 0 0 0 0 0 0 0 0 0 0 0 0 0 0 127 0" result="hardAlpha"/>
<feOffset dx="-1.12494" dy="1.12494"/>
<feGaussianBlur stdDeviation="0.365605"/>
<feComposite in2="hardAlpha" operator="arithmetic" k2="-1" k3="1"/>
<feColorMatrix type="matrix" values="0 0 0 0 0.968029 0 0 0 0 0.899038 0 0 0 0 1 0 0 0 0.6 0"/>
<feBlend mode="normal" in2="shape" result="effect1_innerShadow_2719_19532"/>
<feColorMatrix in="SourceAlpha" type="matrix" values="0 0 0 0 0 0 0 0 0 0 0 0 0 0 0 0 0 0 127 0" result="hardAlpha"/>
<feOffset dx="2.81235" dy="-4.49976"/>
<feGaussianBlur stdDeviation="5.84968"/>
<feComposite in2="hardAlpha" operator="arithmetic" k2="-1" k3="1"/>
<feColorMatrix type="matrix" values="0 0 0 0 0.501961 0 0 0 0 0.494118 0 0 0 0 0.980392 0 0 0 0.5 0"/>
<feBlend mode="normal" in2="effect1_innerShadow_2719_19532" result="effect2_innerShadow_2719_19532"/>
</filter>
<filter id="filter14_i_2719_19532" x="38.7898" y="129.312" width="46.8654" height="51.6406" filterUnits="userSpaceOnUse" color-interpolation-filters="sRGB">
<feFlood flood-opacity="0" result="BackgroundImageFix"/>
<feBlend mode="normal" in="SourceGraphic" in2="BackgroundImageFix" result="shape"/>
<feColorMatrix in="SourceAlpha" type="matrix" values="0 0 0 0 0 0 0 0 0 0 0 0 0 0 0 0 0 0 127 0" result="hardAlpha"/>
<feOffset dx="1.12494" dy="0.56247"/>
<feGaussianBlur stdDeviation="1.09682"/>
<feComposite in2="hardAlpha" operator="arithmetic" k2="-1" k3="1"/>
<feColorMatrix type="matrix" values="0 0 0 0 0 0 0 0 0 0 0 0 0 0 0 0 0 0 0.18 0"/>
<feBlend mode="normal" in2="shape" result="effect1_innerShadow_2719_19532"/>
</filter>
<filter id="filter15_i_2719_19532" x="46.2699" y="129.461" width="38.2611" height="51.4843" filterUnits="userSpaceOnUse" color-interpolation-filters="sRGB">
<feFlood flood-opacity="0" result="BackgroundImageFix"/>
<feBlend mode="normal" in="SourceGraphic" in2="BackgroundImageFix" result="shape"/>
<feColorMatrix in="SourceAlpha" type="matrix" values="0 0 0 0 0 0 0 0 0 0 0 0 0 0 0 0 0 0 127 0" result="hardAlpha"/>
<feOffset dx="-1.68741" dy="0.56247"/>
<feGaussianBlur stdDeviation="1.09682"/>
<feComposite in2="hardAlpha" operator="arithmetic" k2="-1" k3="1"/>
<feColorMatrix type="matrix" values="0 0 0 0 0.288462 0 0 0 0 0.0624075 0 0 0 0 0.0624075 0 0 0 0.18 0"/>
<feBlend mode="normal" in2="shape" result="effect1_innerShadow_2719_19532"/>
</filter>
<linearGradient id="paint0_linear_2719_19532" x1="216.032" y1="5.37732" x2="229.106" y2="108.064" gradientUnits="userSpaceOnUse">
<stop stop-color="#9CCFFF"/>
<stop offset="1" stop-color="#A7B3FF" stop-opacity="0"/>
</linearGradient>
<linearGradient id="paint1_linear_2719_19532" x1="16.8296" y1="159.456" x2="32.5769" y2="283.137" gradientUnits="userSpaceOnUse">
<stop stop-color="#9CCFFF"/>
<stop offset="1" stop-color="#A7B3FF" stop-opacity="0"/>
</linearGradient>
<linearGradient id="paint2_linear_2719_19532" x1="230.094" y1="112.4" x2="75.9019" y2="177.832" gradientUnits="userSpaceOnUse">
<stop stop-color="#FFB2FF" stop-opacity="0.2"/>
<stop offset="1" stop-color="white" stop-opacity="0"/>
</linearGradient>
<linearGradient id="paint3_linear_2719_19532" x1="61.8459" y1="81.8692" x2="124.169" y2="216.218" gradientUnits="userSpaceOnUse">
<stop stop-color="#802A71"/>
<stop offset="0.586538" stop-color="#CEA184"/>
<stop offset="1" stop-color="#A3547F"/>
</linearGradient>
<linearGradient id="paint4_linear_2719_19532" x1="81.0161" y1="94.9606" x2="121.005" y2="149.556" gradientUnits="userSpaceOnUse">
<stop stop-color="#FFD9FF"/>
<stop offset="0.440397" stop-color="#FCD7FD" stop-opacity="0"/>
</linearGradient>
<linearGradient id="paint5_linear_2719_19532" x1="71.8032" y1="129.188" x2="71.8098" y2="137.301" gradientUnits="userSpaceOnUse">
<stop stop-color="#FFD9FF"/>
<stop offset="1" stop-color="#FCD7FD" stop-opacity="0"/>
</linearGradient>
<linearGradient id="paint6_linear_2719_19532" x1="79.5078" y1="179.446" x2="71.8633" y2="126.428" gradientUnits="userSpaceOnUse">
<stop stop-color="#7477F6"/>
<stop offset="1" stop-color="#7C71D9"/>
</linearGradient>
<linearGradient id="paint7_linear_2719_19532" x1="92.3368" y1="149.837" x2="33.9523" y2="160.632" gradientUnits="userSpaceOnUse">
<stop stop-color="#C6ABFE"/>
<stop offset="1" stop-color="#948EF8"/>
</linearGradient>
<linearGradient id="paint8_linear_2719_19532" x1="47.4516" y1="130.877" x2="60.0104" y2="178.172" gradientUnits="userSpaceOnUse">
<stop stop-color="#E9A6DD"/>
<stop offset="1" stop-color="#FCDDE3"/>
</linearGradient>
<linearGradient id="paint9_linear_2719_19532" x1="77.4024" y1="127.862" x2="52.1408" y2="194.415" gradientUnits="userSpaceOnUse">
<stop stop-color="#E098CF"/>
<stop offset="1" stop-color="#F8D1E2"/>
</linearGradient>
<linearGradient id="paint10_linear_2719_19532" x1="157.097" y1="138.875" x2="178.21" y2="122.484" gradientUnits="userSpaceOnUse">
<stop stop-color="#D474C6"/>
<stop offset="1" stop-color="#D474C6"/>
</linearGradient>
<clipPath id="clip0_2719_19532">
<rect width="298" height="274" fill="white" transform="translate(0 0.953125)"/>
</clipPath>
<clipPath id="clip1_2719_19532">
<rect width="226.133" height="166.386" fill="white" transform="translate(29.2334 55.7031)"/>
</clipPath>
</defs>
</svg>
