<svg width="297" height="140" viewBox="0 0 297 140" fill="none" xmlns="http://www.w3.org/2000/svg">
<g filter="url(#filter0_iii_2808_41996)">
<circle cx="168.527" cy="45.8872" r="77.6694" fill="url(#paint0_linear_2808_41996)"/>
</g>
<mask id="mask0_2808_41996" style="mask-type:alpha" maskUnits="userSpaceOnUse" x="90" y="-32" width="157" height="156">
<circle cx="168.527" cy="45.8872" r="77.6694" fill="#579BC4"/>
</mask>
<g mask="url(#mask0_2808_41996)">
<g filter="url(#filter1_n_2808_41996)">
<path d="M248.581 15.9515C258.388 16.8099 262.588 28.2451 256.895 36.4222C249.805 46.6071 240.813 56.9633 229.51 66.6855C223.351 71.9829 217.944 77.2617 213.206 82.4413C200.495 96.3374 177.149 95.0887 178.962 75.976C179.255 72.8827 180.365 69.8725 182.063 67.3231C198.017 43.3665 215.857 39.8417 231.697 25.9623C233.232 24.6165 234.728 23.1593 236.164 21.6224C239.474 18.0796 243.786 15.5318 248.581 15.9515Z" fill="url(#paint1_linear_2808_41996)"/>
</g>
<g filter="url(#filter2_n_2808_41996)">
<path d="M136.909 13.0668C125.586 11.9533 121.618 -1.31556 128.753 -10.4427C139.125 -23.7115 153.64 -37.4298 173.343 -48.5619C178.382 -51.4088 183.034 -54.328 187.325 -57.2852C206.098 -70.224 233.168 -62.5398 223.22 -41.6019C221.796 -38.6061 219.496 -35.6223 216.812 -33.7685C202.437 -23.842 187.475 -23.5147 165.358 -7.22587C162.22 -4.91497 159.694 -2.51965 157.687 -0.0883959C152.193 6.56752 145.352 13.897 136.909 13.0668Z" fill="url(#paint2_linear_2808_41996)"/>
</g>
<g filter="url(#filter3_n_2808_41996)">
<path d="M138.784 52.1729C141.053 23.474 154.977 1.46141 202.631 -21.1286C223.748 -31.1392 236.675 -44.2316 244.351 -58.0238C253.398 -74.2787 283.716 -86.9602 295.718 -72.7702C299.843 -67.8918 301.332 -61.0843 298.826 -55.1765C289.915 -34.1715 273.677 -16.3915 246.042 3.44953C236.184 10.527 192.498 17.2044 178.23 50.9032C172.914 63.4575 157.891 73.6152 146.432 66.6335C141.477 63.615 138.316 58.0902 138.784 52.1729Z" fill="url(#paint3_linear_2808_41996)"/>
</g>
</g>
<path d="M213.526 -17.4355C236.888 -25.5858 254.793 -26.2098 260.853 -17.3652C271.881 -1.26631 239.487 40.1039 188.497 75.0371C137.508 109.97 87.2307 125.238 76.2012 109.14C70.1348 100.285 77.2071 83.7846 93.2842 64.915C93.6874 66.5601 94.0988 68.0394 94.4961 69.3447C81.4136 84.7396 75.611 97.6208 80.1992 104.318C89.3448 117.667 136.304 101.396 185.085 67.9756C233.866 34.5555 265.997 -3.35809 256.853 -16.707C252.072 -23.6847 236.96 -22.5673 216.656 -15.1396C215.275 -16.2469 214.208 -17.0027 213.526 -17.4355Z" fill="url(#paint4_linear_2808_41996)"/>
<path d="M26.3369 79.5101L26.9657 76.0512L21.8688 57.3206L5.31997 30.8572L4.4322 32.8686C11.2439 46.8086 21.5544 69.4481 26.3369 79.5101Z" fill="url(#paint5_linear_2808_41996)"/>
<path d="M67.528 63.4736C57.7805 68.0072 36.5867 75.4293 26.3368 79.5099L26.9656 76.0511L46.1981 67.6928L68.1565 60.6436L67.528 63.4736Z" fill="url(#paint6_linear_2808_41996)"/>
<path d="M5.15115 30.929C13.888 46.5787 25.085 70.7137 26.9649 76.0507L68.1562 60.6432C61.797 40.7049 52.4334 19.5111 49.5689 14.4664L5.15115 30.929Z" fill="url(#paint7_linear_2808_41996)"/>
<mask id="mask1_2808_41996" style="mask-type:alpha" maskUnits="userSpaceOnUse" x="4" y="12" width="62" height="55">
<path d="M4.4809 28.4592C14.7806 46.6915 21.1214 61.6717 23.0043 66.8828L65.0971 51.6531C58.7221 32.1868 51.4085 17.4623 48.5486 12.5333L4.4809 28.4592Z" fill="url(#paint8_linear_2808_41996)"/>
</mask>
<g mask="url(#mask1_2808_41996)">
<g opacity="0.64" filter="url(#filter4_f_2808_41996)">
<path d="M0.821624 30.8837C7.07485 28.2207 25.2779 21.2844 48.0643 14.8438C49.2462 30.8163 41.4522 56.3859 0.821624 30.8837Z" fill="#5C648D" fill-opacity="0.9"/>
</g>
</g>
<path d="M5.37255 31.0445L5.66816 29.2148L28.8557 27.1483L49.917 14.4207C52.4325 52.1533 22.9885 42.4706 5.37255 31.0445Z" fill="url(#paint9_linear_2808_41996)"/>
<path d="M5.56786 29.1903C11.6321 26.6078 28.9234 19.6444 49.9178 14.4206C51.3585 29.7011 44.9708 53.922 5.56786 29.1903Z" fill="url(#paint10_linear_2808_41996)"/>
<path d="M260.04 132.658L259.666 130.604L262.693 119.479L272.522 103.763L273.049 104.957C269.004 113.236 262.88 126.682 260.04 132.658Z" fill="url(#paint11_linear_2808_41996)"/>
<path d="M235.577 123.133C241.366 125.826 253.953 130.234 260.041 132.658L259.667 130.603L248.245 125.639L235.203 121.453L235.577 123.133Z" fill="url(#paint12_linear_2808_41996)"/>
<path d="M272.621 103.805C267.432 113.1 260.782 127.434 259.665 130.603L235.201 121.453C238.978 109.611 244.539 97.024 246.24 94.0279L272.621 103.805Z" fill="url(#paint13_linear_2808_41996)"/>
<mask id="mask2_2808_41996" style="mask-type:alpha" maskUnits="userSpaceOnUse" x="237" y="92" width="37" height="34">
<path d="M273.02 102.339C266.903 113.167 263.137 122.064 262.019 125.159L237.02 116.114C240.806 104.553 245.149 95.8076 246.848 92.8802L273.02 102.339Z" fill="url(#paint14_linear_2808_41996)"/>
</mask>
<g mask="url(#mask2_2808_41996)">
<g opacity="0.64" filter="url(#filter5_f_2808_41996)">
<path d="M275.192 103.778C271.478 102.196 260.667 98.0767 247.134 94.2515C246.432 103.738 251.061 118.924 275.192 103.778Z" fill="#5C648D" fill-opacity="0.9"/>
</g>
</g>
<path d="M272.489 103.874L272.314 102.788L258.542 101.56L246.034 94.0012C244.54 116.411 262.027 110.66 272.489 103.874Z" fill="url(#paint15_linear_2808_41996)"/>
<path d="M272.373 102.772C268.772 101.238 258.502 97.1026 246.034 94.0002C245.178 103.075 248.972 117.46 272.373 102.772Z" fill="url(#paint16_linear_2808_41996)"/>
<path d="M258.861 116.683C257.781 116.233 249.41 112.982 245.291 112" stroke="url(#paint17_linear_2808_41996)" stroke-width="3" stroke-linecap="round"/>
<path d="M256.861 122.597C255.781 122.147 247.41 118.896 243.291 117.914" stroke="url(#paint18_linear_2808_41996)" stroke-width="3" stroke-linecap="round"/>
<g filter="url(#filter6_ii_2808_41996)">
<circle cx="273.944" cy="43.3814" r="8.38142" fill="url(#paint19_linear_2808_41996)"/>
</g>
<circle cx="273.944" cy="43.3814" r="8.24173" stroke="white" stroke-opacity="0.2" stroke-width="0.279381"/>
<g filter="url(#filter7_f_2808_41996)">
<circle cx="289.87" cy="57.0722" r="3.07319" fill="white"/>
</g>
<circle cx="109.798" cy="46.1004" r="2.55352" fill="white"/>
<path d="M29 53C30.9231 52.0526 46.7885 45.4211 54 44" stroke="url(#paint20_linear_2808_41996)" stroke-width="4" stroke-linecap="round"/>
<path d="M33 62C34.9231 61.0526 49.7885 54.4211 57 53" stroke="url(#paint21_linear_2808_41996)" stroke-width="4" stroke-linecap="round"/>
<path d="M269.516 -11.3033C269.898 -10.6576 269.16 -9.93223 268.521 -10.3241L257.156 -17.2901C256.743 -17.543 256.204 -17.3247 256.083 -16.8561L252.762 -3.94681C252.575 -3.22057 251.54 -3.22903 251.365 -3.95823L248.255 -16.9201C248.142 -17.3906 247.606 -17.6177 247.189 -17.3716L235.712 -10.5923C235.067 -10.2109 234.341 -10.9483 234.733 -11.5877L241.699 -22.9525C241.952 -23.365 241.734 -23.9045 241.265 -24.0251L228.356 -27.347C227.63 -27.5339 227.638 -28.5682 228.367 -28.7432L241.329 -31.8536C241.8 -31.9665 242.027 -32.5024 241.781 -32.919L235.001 -44.3962C234.62 -45.0419 235.357 -45.7673 235.997 -45.3754L247.361 -38.4094C247.774 -38.1565 248.314 -38.3748 248.434 -38.8434L251.756 -51.7527C251.943 -52.4789 252.977 -52.4705 253.152 -51.7413L256.263 -38.7794C256.376 -38.3089 256.911 -38.0818 257.328 -38.3279L268.805 -45.1072C269.451 -45.4886 270.176 -44.7512 269.784 -44.1118L262.818 -32.747C262.565 -32.3345 262.784 -31.795 263.252 -31.6744L276.162 -28.3525C276.888 -28.1656 276.879 -27.1313 276.15 -26.9563L263.188 -23.8459C262.718 -23.733 262.491 -23.1971 262.737 -22.7805L269.516 -11.3033Z" fill="url(#paint22_linear_2808_41996)"/>
<g filter="url(#filter9_f_2808_41996)">
<path d="M63.3801 131.892C63.6519 132.352 63.1264 132.869 62.6708 132.589L57.7424 129.569C57.4484 129.388 57.0639 129.544 56.978 129.878L55.5374 135.476C55.4043 135.994 54.6671 135.988 54.5424 135.468L53.1936 129.847C53.1131 129.512 52.7313 129.35 52.4344 129.525L47.4572 132.465C46.9971 132.737 46.4801 132.211 46.7594 131.756L49.7803 126.827C49.9605 126.533 49.8049 126.149 49.4709 126.063L43.8727 124.622C43.3552 124.489 43.3612 123.752 43.8809 123.627L49.5019 122.279C49.8372 122.198 49.999 121.816 49.8236 121.519L46.8838 116.542C46.612 116.082 47.1374 115.565 47.5931 115.844L52.5215 118.865C52.8155 119.045 53.2 118.89 53.2859 118.556L54.7265 112.958C54.8596 112.44 55.5968 112.446 55.7215 112.966L57.0703 118.587C57.1508 118.922 57.5326 119.084 57.8295 118.909L62.8067 115.969C63.2668 115.697 63.7838 116.222 63.5045 116.678L60.4836 121.606C60.3034 121.9 60.459 122.285 60.793 122.371L66.3912 123.811C66.9087 123.945 66.9027 124.682 66.383 124.806L60.762 126.155C60.4267 126.236 60.2649 126.618 60.4402 126.914L63.3801 131.892Z" fill="url(#paint23_linear_2808_41996)"/>
</g>
<defs>
<filter id="filter0_iii_2808_41996" x="70.4292" y="-34.8546" width="187.032" height="159.688" filterUnits="userSpaceOnUse" color-interpolation-filters="sRGB">
<feFlood flood-opacity="0" result="BackgroundImageFix"/>
<feBlend mode="normal" in="SourceGraphic" in2="BackgroundImageFix" result="shape"/>
<feColorMatrix in="SourceAlpha" type="matrix" values="0 0 0 0 0 0 0 0 0 0 0 0 0 0 0 0 0 0 127 0" result="hardAlpha"/>
<feOffset dx="11.2655" dy="-3.07241"/>
<feGaussianBlur stdDeviation="12.7676"/>
<feComposite in2="hardAlpha" operator="arithmetic" k2="-1" k3="1"/>
<feColorMatrix type="matrix" values="0 0 0 0 0.919872 0 0 0 0 1 0 0 0 0 0.759615 0 0 0 0.5 0"/>
<feBlend mode="normal" in2="shape" result="effect1_innerShadow_2808_41996"/>
<feColorMatrix in="SourceAlpha" type="matrix" values="0 0 0 0 0 0 0 0 0 0 0 0 0 0 0 0 0 0 127 0" result="hardAlpha"/>
<feOffset dx="2.55352" dy="1.27676"/>
<feGaussianBlur stdDeviation="1.27676"/>
<feComposite in2="hardAlpha" operator="arithmetic" k2="-1" k3="1"/>
<feColorMatrix type="matrix" values="0 0 0 0 1 0 0 0 0 1 0 0 0 0 1 0 0 0 0.5 0"/>
<feBlend mode="normal" in2="effect1_innerShadow_2808_41996" result="effect2_innerShadow_2808_41996"/>
<feColorMatrix in="SourceAlpha" type="matrix" values="0 0 0 0 0 0 0 0 0 0 0 0 0 0 0 0 0 0 127 0" result="hardAlpha"/>
<feOffset dx="-20.4282" dy="-0.638381"/>
<feGaussianBlur stdDeviation="11.1078"/>
<feComposite in2="hardAlpha" operator="arithmetic" k2="-1" k3="1"/>
<feColorMatrix type="matrix" values="0 0 0 0 0.327894 0 0 0 0 0.411867 0 0 0 0 0.831731 0 0 0 0.5 0"/>
<feBlend mode="normal" in2="effect2_innerShadow_2808_41996" result="effect3_innerShadow_2808_41996"/>
</filter>
<filter id="filter1_n_2808_41996" x="178.863" y="15.9062" width="80.6016" height="75.8506" filterUnits="userSpaceOnUse" color-interpolation-filters="sRGB">
<feFlood flood-opacity="0" result="BackgroundImageFix"/>
<feBlend mode="normal" in="SourceGraphic" in2="BackgroundImageFix" result="shape"/>
<feTurbulence type="fractalNoise" baseFrequency="4.9333076477050781 4.9333076477050781" stitchTiles="stitch" numOctaves="3" result="noise" seed="7497" />
<feColorMatrix in="noise" type="luminanceToAlpha" result="alphaNoise" />
<feComponentTransfer in="alphaNoise" result="coloredNoise1">
<feFuncA type="discrete" tableValues="1 1 1 1 1 1 1 1 1 1 1 1 1 1 1 1 1 1 1 1 1 1 1 1 1 1 1 1 1 1 1 1 1 1 1 1 1 1 1 1 1 1 1 1 1 1 1 1 1 1 1 0 0 0 0 0 0 0 0 0 0 0 0 0 0 0 0 0 0 0 0 0 0 0 0 0 0 0 0 0 0 0 0 0 0 0 0 0 0 0 0 0 0 0 0 0 0 0 0 0 "/>
</feComponentTransfer>
<feComposite operator="in" in2="shape" in="coloredNoise1" result="noise1Clipped" />
<feFlood flood-color="rgba(0, 0, 0, 0.25)" result="color1Flood" />
<feComposite operator="in" in2="noise1Clipped" in="color1Flood" result="color1" />
<feMerge result="effect1_noise_2808_41996">
<feMergeNode in="shape" />
<feMergeNode in="color1" />
</feMerge>
</filter>
<filter id="filter2_n_2808_41996" x="125.178" y="-63.623" width="100.174" height="76.7539" filterUnits="userSpaceOnUse" color-interpolation-filters="sRGB">
<feFlood flood-opacity="0" result="BackgroundImageFix"/>
<feBlend mode="normal" in="SourceGraphic" in2="BackgroundImageFix" result="shape"/>
<feTurbulence type="fractalNoise" baseFrequency="3.9057283401489258 3.9057283401489258" stitchTiles="stitch" numOctaves="3" result="noise" seed="7704" />
<feColorMatrix in="noise" type="luminanceToAlpha" result="alphaNoise" />
<feComponentTransfer in="alphaNoise" result="coloredNoise1">
<feFuncA type="discrete" tableValues="1 1 1 1 1 1 1 1 1 1 1 1 1 1 1 1 1 1 1 1 1 1 1 1 1 1 1 1 1 1 1 1 1 1 1 1 1 1 1 1 1 1 1 1 1 1 1 1 1 1 1 0 0 0 0 0 0 0 0 0 0 0 0 0 0 0 0 0 0 0 0 0 0 0 0 0 0 0 0 0 0 0 0 0 0 0 0 0 0 0 0 0 0 0 0 0 0 0 0 0 "/>
</feComponentTransfer>
<feComposite operator="in" in2="shape" in="coloredNoise1" result="noise1Clipped" />
<feFlood flood-color="rgba(0, 0, 0, 0.25)" result="color1Flood" />
<feComposite operator="in" in2="noise1Clipped" in="color1Flood" result="color1" />
<feMerge result="effect1_noise_2808_41996">
<feMergeNode in="shape" />
<feMergeNode in="color1" />
</feMerge>
</filter>
<filter id="filter3_n_2808_41996" x="138.738" y="-78.916" width="161.312" height="147.827" filterUnits="userSpaceOnUse" color-interpolation-filters="sRGB">
<feFlood flood-opacity="0" result="BackgroundImageFix"/>
<feBlend mode="normal" in="SourceGraphic" in2="BackgroundImageFix" result="shape"/>
<feTurbulence type="fractalNoise" baseFrequency="3.9057283401489258 3.9057283401489258" stitchTiles="stitch" numOctaves="3" result="noise" seed="5135" />
<feColorMatrix in="noise" type="luminanceToAlpha" result="alphaNoise" />
<feComponentTransfer in="alphaNoise" result="coloredNoise1">
<feFuncA type="discrete" tableValues="1 1 1 1 1 1 1 1 1 1 1 1 1 1 1 1 1 1 1 1 1 1 1 1 1 1 1 1 1 1 1 1 1 1 1 1 1 1 1 1 1 1 1 1 1 1 1 1 1 1 1 0 0 0 0 0 0 0 0 0 0 0 0 0 0 0 0 0 0 0 0 0 0 0 0 0 0 0 0 0 0 0 0 0 0 0 0 0 0 0 0 0 0 0 0 0 0 0 0 0 "/>
</feComponentTransfer>
<feComposite operator="in" in2="shape" in="coloredNoise1" result="noise1Clipped" />
<feFlood flood-color="rgba(0, 0, 0, 0.25)" result="color1Flood" />
<feComposite operator="in" in2="noise1Clipped" in="color1Flood" result="color1" />
<feMerge result="effect1_noise_2808_41996">
<feMergeNode in="shape" />
<feMergeNode in="color1" />
</feMerge>
</filter>
<filter id="filter4_f_2808_41996" x="-3.13549" y="10.886" width="55.269" height="34.7583" filterUnits="userSpaceOnUse" color-interpolation-filters="sRGB">
<feFlood flood-opacity="0" result="BackgroundImageFix"/>
<feBlend mode="normal" in="SourceGraphic" in2="BackgroundImageFix" result="shape"/>
<feGaussianBlur stdDeviation="1.97888" result="effect1_foregroundBlur_2808_41996"/>
</filter>
<filter id="filter5_f_2808_41996" x="244.718" y="91.9014" width="32.8241" height="20.6425" filterUnits="userSpaceOnUse" color-interpolation-filters="sRGB">
<feFlood flood-opacity="0" result="BackgroundImageFix"/>
<feBlend mode="normal" in="SourceGraphic" in2="BackgroundImageFix" result="shape"/>
<feGaussianBlur stdDeviation="1.17527" result="effect1_foregroundBlur_2808_41996"/>
</filter>
<filter id="filter6_ii_2808_41996" x="263.886" y="32.765" width="19.5575" height="21.2328" filterUnits="userSpaceOnUse" color-interpolation-filters="sRGB">
<feFlood flood-opacity="0" result="BackgroundImageFix"/>
<feBlend mode="normal" in="SourceGraphic" in2="BackgroundImageFix" result="shape"/>
<feColorMatrix in="SourceAlpha" type="matrix" values="0 0 0 0 0 0 0 0 0 0 0 0 0 0 0 0 0 0 127 0" result="hardAlpha"/>
<feOffset dx="1.11752" dy="2.23505"/>
<feGaussianBlur stdDeviation="1.11752"/>
<feComposite in2="hardAlpha" operator="arithmetic" k2="-1" k3="1"/>
<feColorMatrix type="matrix" values="0 0 0 0 0.972549 0 0 0 0 0.847059 0 0 0 0 0.992157 0 0 0 0.3 0"/>
<feBlend mode="normal" in2="shape" result="effect1_innerShadow_2808_41996"/>
<feColorMatrix in="SourceAlpha" type="matrix" values="0 0 0 0 0 0 0 0 0 0 0 0 0 0 0 0 0 0 127 0" result="hardAlpha"/>
<feOffset dx="-1.67628" dy="-2.23505"/>
<feGaussianBlur stdDeviation="1.11752"/>
<feComposite in2="hardAlpha" operator="arithmetic" k2="-1" k3="1"/>
<feColorMatrix type="matrix" values="0 0 0 0 0.972549 0 0 0 0 0.847059 0 0 0 0 0.992157 0 0 0 0.2 0"/>
<feBlend mode="normal" in2="effect1_innerShadow_2808_41996" result="effect2_innerShadow_2808_41996"/>
</filter>
<filter id="filter7_f_2808_41996" x="284.562" y="51.764" width="10.6166" height="10.6166" filterUnits="userSpaceOnUse" color-interpolation-filters="sRGB">
<feFlood flood-opacity="0" result="BackgroundImageFix"/>
<feBlend mode="normal" in="SourceGraphic" in2="BackgroundImageFix" result="shape"/>
<feGaussianBlur stdDeviation="1.11752" result="effect1_foregroundBlur_2808_41996"/>
</filter>
<filter id="filter9_f_2808_41996" x="41.2539" y="110.338" width="27.7558" height="27.7577" filterUnits="userSpaceOnUse" color-interpolation-filters="sRGB">
<feFlood flood-opacity="0" result="BackgroundImageFix"/>
<feBlend mode="normal" in="SourceGraphic" in2="BackgroundImageFix" result="shape"/>
<feGaussianBlur stdDeviation="1.11717" result="effect1_foregroundBlur_2808_41996"/>
</filter>
<linearGradient id="paint0_linear_2808_41996" x1="246.41" y1="28.5447" x2="97.3478" y2="60.1446" gradientUnits="userSpaceOnUse">
<stop stop-color="#64B8EB"/>
<stop offset="1" stop-color="#82D0FF"/>
</linearGradient>
<linearGradient id="paint1_linear_2808_41996" x1="249.819" y1="-1.35453" x2="180.36" y2="104.094" gradientUnits="userSpaceOnUse">
<stop stop-color="#439DC7"/>
<stop offset="1" stop-color="#38248E"/>
</linearGradient>
<linearGradient id="paint2_linear_2808_41996" x1="126.371" y1="31.2141" x2="235.05" y2="-84.5652" gradientUnits="userSpaceOnUse">
<stop stop-color="#439DC7"/>
<stop offset="1" stop-color="#38248E"/>
</linearGradient>
<linearGradient id="paint3_linear_2808_41996" x1="112.934" y1="70.9449" x2="321.399" y2="-76.9601" gradientUnits="userSpaceOnUse">
<stop offset="0.120192" stop-color="#373D99"/>
<stop offset="1" stop-color="#4193C1"/>
</linearGradient>
<linearGradient id="paint4_linear_2808_41996" x1="211.938" y1="153.348" x2="120.65" y2="31.0982" gradientUnits="userSpaceOnUse">
<stop stop-color="#FFF6C5"/>
<stop offset="0.774038" stop-color="#FFE67D"/>
<stop offset="1" stop-color="#212740"/>
</linearGradient>
<linearGradient id="paint5_linear_2808_41996" x1="4.77148" y1="30.7686" x2="28.8516" y2="79.8545" gradientUnits="userSpaceOnUse">
<stop stop-color="#C1C8ED"/>
<stop offset="1" stop-color="#7583B9"/>
</linearGradient>
<linearGradient id="paint6_linear_2808_41996" x1="83.25" y1="54.9838" x2="25.9728" y2="79.8196" gradientUnits="userSpaceOnUse">
<stop stop-color="#677593"/>
<stop offset="1" stop-color="#839DC0"/>
</linearGradient>
<linearGradient id="paint7_linear_2808_41996" x1="8.84046" y1="14.6116" x2="56.8535" y2="59.2063" gradientUnits="userSpaceOnUse">
<stop stop-color="#E4D6F2"/>
<stop offset="1" stop-color="#F7F8FC"/>
</linearGradient>
<linearGradient id="paint8_linear_2808_41996" x1="16.8932" y1="24.338" x2="55.3731" y2="56.8361" gradientUnits="userSpaceOnUse">
<stop stop-color="#D6DCF2"/>
<stop offset="1" stop-color="#F7F8FC"/>
</linearGradient>
<linearGradient id="paint9_linear_2808_41996" x1="53.2335" y1="19.2978" x2="3.4767" y2="22.7686" gradientUnits="userSpaceOnUse">
<stop stop-color="#A4AED4"/>
<stop offset="0.4375" stop-color="#8B99CA"/>
<stop offset="0.919013" stop-color="#E1E6F7"/>
</linearGradient>
<linearGradient id="paint10_linear_2808_41996" x1="51.3045" y1="20.8029" x2="12.0778" y2="31.8537" gradientUnits="userSpaceOnUse">
<stop stop-color="#FAFBFD"/>
<stop offset="1" stop-color="#F0F4FD"/>
</linearGradient>
<linearGradient id="paint11_linear_2808_41996" x1="272.848" y1="103.71" x2="258.546" y2="132.863" gradientUnits="userSpaceOnUse">
<stop stop-color="#C1C8ED"/>
<stop offset="1" stop-color="#7583B9"/>
</linearGradient>
<linearGradient id="paint12_linear_2808_41996" x1="226.239" y1="118.091" x2="260.257" y2="132.842" gradientUnits="userSpaceOnUse">
<stop stop-color="#677593"/>
<stop offset="1" stop-color="#839DC0"/>
</linearGradient>
<linearGradient id="paint13_linear_2808_41996" x1="270.43" y1="94.1141" x2="241.914" y2="120.599" gradientUnits="userSpaceOnUse">
<stop stop-color="#E4D6F2"/>
<stop offset="1" stop-color="#F7F8FC"/>
</linearGradient>
<linearGradient id="paint14_linear_2808_41996" x1="265.648" y1="99.8911" x2="242.795" y2="119.192" gradientUnits="userSpaceOnUse">
<stop stop-color="#D6DCF2"/>
<stop offset="1" stop-color="#F7F8FC"/>
</linearGradient>
<linearGradient id="paint15_linear_2808_41996" x1="244.064" y1="96.8977" x2="273.615" y2="98.959" gradientUnits="userSpaceOnUse">
<stop stop-color="#A4AED4"/>
<stop offset="0.4375" stop-color="#8B99CA"/>
<stop offset="0.919013" stop-color="#E1E6F7"/>
</linearGradient>
<linearGradient id="paint16_linear_2808_41996" x1="245.21" y1="97.7907" x2="268.507" y2="104.354" gradientUnits="userSpaceOnUse">
<stop stop-color="#FAFBFD"/>
<stop offset="1" stop-color="#F0F4FD"/>
</linearGradient>
<linearGradient id="paint17_linear_2808_41996" x1="245.059" y1="111.495" x2="258.353" y2="122.782" gradientUnits="userSpaceOnUse">
<stop stop-color="#7C75F5"/>
<stop offset="1" stop-color="#80A7E8"/>
</linearGradient>
<linearGradient id="paint18_linear_2808_41996" x1="243.059" y1="117.409" x2="256.353" y2="128.696" gradientUnits="userSpaceOnUse">
<stop stop-color="#7C75F5"/>
<stop offset="1" stop-color="#80A7E8"/>
</linearGradient>
<linearGradient id="paint19_linear_2808_41996" x1="282.325" y1="51.7628" x2="269.753" y2="35" gradientUnits="userSpaceOnUse">
<stop stop-color="#6C61DB" stop-opacity="0.5"/>
<stop offset="1" stop-color="#C09DDF"/>
</linearGradient>
<linearGradient id="paint20_linear_2808_41996" x1="54.4808" y1="42.5789" x2="23.3517" y2="54.7308" gradientUnits="userSpaceOnUse">
<stop stop-color="#7C75F5"/>
<stop offset="1" stop-color="#80A7E8"/>
</linearGradient>
<linearGradient id="paint21_linear_2808_41996" x1="57.4808" y1="51.5789" x2="26.3517" y2="63.7308" gradientUnits="userSpaceOnUse">
<stop stop-color="#7C75F5"/>
<stop offset="1" stop-color="#80A7E8"/>
</linearGradient>
<linearGradient id="paint22_linear_2808_41996" x1="245.52" y1="-69.805" x2="254.947" y2="4.23667" gradientUnits="userSpaceOnUse">
<stop stop-color="#9CCFFF"/>
<stop offset="1" stop-color="#A7B3FF" stop-opacity="0"/>
</linearGradient>
<linearGradient id="paint23_linear_2808_41996" x1="51.7869" y1="103.391" x2="56.4664" y2="140.144" gradientUnits="userSpaceOnUse">
<stop stop-color="#9CCFFF"/>
<stop offset="1" stop-color="#A7B3FF" stop-opacity="0"/>
</linearGradient>
</defs>
</svg>
